<svg width="893" height="580" viewBox="0 0 893 580" fill="none" xmlns="http://www.w3.org/2000/svg">
<g clip-path="url(#clip0)">
<path d="M683.656 548.527L730.113 479.44L683.751 555.96L683.848 563.734C680.456 563.76 677.097 563.703 673.772 563.565L676.076 463.634L676.013 462.863L676.098 462.714L676.318 453.271L625.441 379.404L676.258 446.204L676.438 448.2L678.179 372.699L634.235 296.115L678.304 359.435L677.844 203.016L677.845 202.495L677.86 203.007L680.777 326.287L720.827 276.211L680.908 336.907L681.782 404.441L718.636 338.53L681.918 414.37L682.404 451.922L736 360.109L682.567 465.023L683.656 548.527Z" fill="#808080"/>
<path d="M840.005 550.704L886.463 481.617L840.1 558.137L840.197 565.911C836.806 565.937 833.447 565.88 830.121 565.741L832.425 465.811L832.362 465.04L832.447 464.891L832.668 455.448L781.791 381.581L832.608 448.381L832.788 450.377L834.529 374.875L790.585 298.292L834.654 361.612L834.194 205.193L834.195 204.672L834.21 205.184L837.127 328.463L877.176 278.387L837.258 339.084L838.132 406.618L874.986 340.707L838.267 416.547L838.754 454.099L892.349 362.286L838.917 467.199L840.005 550.704Z" fill="#808080"/>
<path d="M370.008 0H92V376.039H370.008V0Z" fill="#808080"/>
<path d="M360.212 13.251H101.797V362.789H360.212V13.251Z" fill="white"/>
<path d="M326.244 74.5584H136.59C135.054 74.5564 133.582 73.9447 132.496 72.8577C131.411 71.7708 130.801 70.2974 130.801 68.7611C130.801 67.2249 131.411 65.7515 132.496 64.6645C133.582 63.5776 135.054 62.9659 136.59 62.9639H326.244C327.006 62.9629 327.761 63.1121 328.465 63.403C329.169 63.6939 329.809 64.1207 330.348 64.6592C330.887 65.1976 331.315 65.837 331.607 66.5409C331.899 67.2447 332.049 67.9992 332.049 68.7611C332.049 69.5231 331.899 70.2776 331.607 70.9814C331.315 71.6853 330.887 72.3247 330.348 72.8631C329.809 73.4016 329.169 73.8284 328.465 74.1193C327.761 74.4102 327.006 74.5594 326.244 74.5584V74.5584Z" fill="#D3D3D3"/>
<path d="M326.244 134.188H136.59C135.054 134.186 133.582 133.575 132.496 132.488C131.411 131.401 130.801 129.927 130.801 128.391C130.801 126.855 131.411 125.381 132.496 124.294C133.582 123.207 135.054 122.596 136.59 122.594H326.244C327.006 122.593 327.761 122.742 328.465 123.033C329.169 123.324 329.809 123.751 330.348 124.289C330.887 124.827 331.315 125.467 331.607 126.171C331.899 126.875 332.049 127.629 332.049 128.391C332.049 129.153 331.899 129.907 331.607 130.611C331.315 131.315 330.887 131.955 330.348 132.493C329.809 133.031 329.169 133.458 328.465 133.749C327.761 134.04 327.006 134.189 326.244 134.188V134.188Z" fill="#D3D3D3"/>
<path d="M326.244 193.817H136.59C135.054 193.815 133.582 193.204 132.496 192.117C131.411 191.03 130.801 189.556 130.801 188.02C130.801 186.484 131.411 185.01 132.496 183.923C133.582 182.836 135.054 182.225 136.59 182.223H326.244C327.006 182.222 327.761 182.371 328.465 182.662C329.169 182.953 329.809 183.38 330.348 183.918C330.887 184.456 331.315 185.096 331.607 185.8C331.899 186.504 332.049 187.258 332.049 188.02C332.049 188.782 331.899 189.536 331.607 190.24C331.315 190.944 330.887 191.583 330.348 192.122C329.809 192.66 329.169 193.087 328.465 193.378C327.761 193.669 327.006 193.818 326.244 193.817V193.817Z" fill="#D3D3D3"/>
<path d="M326.244 253.446H136.59C135.054 253.444 133.582 252.832 132.496 251.745C131.411 250.658 130.801 249.185 130.801 247.649C130.801 246.113 131.411 244.639 132.496 243.552C133.582 242.465 135.054 241.854 136.59 241.852H326.244C327.006 241.851 327.761 242 328.465 242.291C329.169 242.582 329.809 243.008 330.348 243.547C330.887 244.085 331.315 244.725 331.607 245.429C331.899 246.132 332.049 246.887 332.049 247.649C332.049 248.411 331.899 249.165 331.607 249.869C331.315 250.573 330.887 251.212 330.348 251.751C329.809 252.289 329.169 252.716 328.465 253.007C327.761 253.298 327.006 253.447 326.244 253.446V253.446Z" fill="#D3D3D3"/>
<path d="M326.244 313.075H136.59C135.054 313.073 133.582 312.461 132.496 311.374C131.411 310.287 130.801 308.814 130.801 307.278C130.801 305.742 131.411 304.268 132.496 303.181C133.582 302.094 135.054 301.482 136.59 301.48H326.244C327.006 301.479 327.761 301.629 328.465 301.92C329.169 302.21 329.809 302.637 330.348 303.176C330.887 303.714 331.315 304.354 331.607 305.057C331.899 305.761 332.049 306.516 332.049 307.278C332.049 308.04 331.899 308.794 331.607 309.498C331.315 310.202 330.887 310.841 330.348 311.38C329.809 311.918 329.169 312.345 328.465 312.636C327.761 312.927 327.006 313.076 326.244 313.075V313.075Z" fill="#D3D3D3"/>
<path d="M293.118 74.5584H135.764C135.002 74.5594 134.247 74.4102 133.543 74.1193C132.839 73.8284 132.199 73.4016 131.66 72.8631C131.121 72.3247 130.693 71.6853 130.401 70.9814C130.109 70.2776 129.959 69.5231 129.959 68.7611C129.959 67.9992 130.109 67.2447 130.401 66.5409C130.693 65.837 131.121 65.1976 131.66 64.6592C132.199 64.1207 132.839 63.6939 133.543 63.403C134.247 63.1121 135.002 62.9629 135.764 62.9639H293.118C294.655 62.9659 296.127 63.5776 297.213 64.6645C298.298 65.7515 298.908 67.2249 298.908 68.7611C298.908 70.2974 298.298 71.7708 297.213 72.8577C296.127 73.9447 294.655 74.5564 293.118 74.5584V74.5584Z" fill="#808080"/>
<path d="M244.254 134.188H135.762C134.225 134.188 132.75 133.578 131.663 132.49C130.576 131.403 129.965 129.929 129.965 128.391C129.965 126.853 130.576 125.379 131.663 124.292C132.75 123.205 134.225 122.594 135.762 122.594H244.254C245.016 122.593 245.771 122.742 246.475 123.033C247.179 123.324 247.819 123.751 248.358 124.289C248.897 124.827 249.325 125.467 249.617 126.171C249.909 126.875 250.059 127.629 250.059 128.391C250.059 129.153 249.909 129.907 249.617 130.611C249.325 131.315 248.897 131.955 248.358 132.493C247.819 133.031 247.179 133.458 246.475 133.749C245.771 134.04 245.016 134.189 244.254 134.188V134.188Z" fill="#808080"/>
<path d="M184.627 193.817H135.764C135.002 193.818 134.247 193.669 133.543 193.378C132.839 193.087 132.199 192.66 131.66 192.122C131.121 191.583 130.693 190.944 130.401 190.24C130.109 189.536 129.959 188.782 129.959 188.02C129.959 187.258 130.109 186.504 130.401 185.8C130.693 185.096 131.121 184.456 131.66 183.918C132.199 183.38 132.839 182.953 133.543 182.662C134.247 182.371 135.002 182.222 135.764 182.223H184.627C186.163 182.225 187.635 182.836 188.721 183.923C189.807 185.01 190.416 186.484 190.416 188.02C190.416 189.556 189.807 191.03 188.721 192.117C187.635 193.204 186.163 193.815 184.627 193.817Z" fill="#808080"/>
<path d="M308.024 253.446H135.762C134.225 253.446 132.75 252.835 131.663 251.748C130.576 250.661 129.965 249.186 129.965 247.649C129.965 246.111 130.576 244.637 131.663 243.55C132.75 242.462 134.225 241.852 135.762 241.852H308.024C309.561 241.852 311.036 242.462 312.123 243.55C313.21 244.637 313.821 246.111 313.821 247.649C313.821 249.186 313.21 250.661 312.123 251.748C311.036 252.835 309.561 253.446 308.024 253.446Z" fill="#808080"/>
<path d="M269.929 313.075H135.764C135.002 313.076 134.247 312.927 133.543 312.636C132.839 312.345 132.199 311.918 131.66 311.38C131.121 310.841 130.693 310.202 130.401 309.498C130.109 308.794 129.959 308.04 129.959 307.278C129.959 306.516 130.109 305.761 130.401 305.057C130.693 304.354 131.121 303.714 131.66 303.176C132.199 302.637 132.839 302.21 133.543 301.92C134.247 301.629 135.002 301.479 135.764 301.48H269.929C270.691 301.479 271.446 301.629 272.15 301.92C272.854 302.21 273.494 302.637 274.034 303.176C274.573 303.714 275 304.354 275.292 305.057C275.584 305.761 275.734 306.516 275.734 307.278C275.734 308.04 275.584 308.794 275.292 309.498C275 310.202 274.573 310.841 274.034 311.38C273.494 311.918 272.854 312.345 272.15 312.636C271.446 312.927 270.691 313.076 269.929 313.075V313.075Z" fill="#808080"/>
<path d="M505.988 270.908C505.988 270.908 499.702 224.814 489.226 237.385C478.75 249.956 489.226 268.813 489.226 268.813L497.607 279.288L505.988 273.003V270.908Z" fill="#9F616A"/>
<path d="M531.13 285.574C531.13 285.574 510.178 262.527 505.988 266.717C501.797 270.908 489.226 273.003 491.322 281.383C493.417 289.764 537.415 317.001 537.415 317.001L531.13 285.574Z" fill="#D3D3D3"/>
<path opacity="0.1" d="M531.13 285.574C531.13 285.574 510.178 262.527 505.988 266.717C501.797 270.908 489.226 273.003 491.322 281.383C493.417 289.764 537.415 317.001 537.415 317.001L531.13 285.574Z" fill="black"/>
<path d="M650.553 283.479V300.24C650.553 300.24 652.648 337.953 640.078 335.857C627.507 333.762 633.792 302.335 633.792 302.335L635.887 283.479L650.553 283.479Z" fill="#9F616A"/>
<path d="M644.269 404.998C644.269 404.998 663.125 434.33 669.411 436.425C675.696 438.521 709.219 457.377 713.409 476.233L742.741 513.946L728.075 532.803C728.075 532.803 661.03 461.567 642.174 455.282C623.317 448.996 604.461 417.569 604.461 417.569L644.269 404.998Z" fill="#9F616A"/>
<path d="M495.512 356.809C495.512 356.809 455.704 363.094 461.989 388.236C468.275 413.378 529.035 465.757 529.035 465.757L531.13 478.328L554.177 482.518L564.652 472.042L562.557 465.757C562.557 465.757 537.415 442.71 535.32 434.33C533.225 425.949 510.178 392.426 499.702 390.331L514.368 381.951L495.512 356.809Z" fill="#9F616A"/>
<path d="M736.454 513.946C736.454 513.946 728.074 501.375 740.645 503.47C753.216 505.565 761.596 507.66 761.596 516.041C761.596 524.422 751.121 583.086 738.55 578.896C725.979 574.705 736.454 555.849 736.454 555.849C736.454 555.849 730.169 539.088 725.979 536.993C721.788 534.897 721.788 524.422 725.979 524.422C730.169 524.422 738.55 518.136 736.454 513.946Z" fill="#808080"/>
<path d="M558.367 467.852C558.367 467.852 558.367 457.376 566.748 467.852C575.128 478.328 579.319 486.709 570.938 492.994C562.557 499.28 533.225 513.946 533.225 513.946C533.225 513.946 501.798 520.231 505.988 505.565C505.988 505.565 526.94 495.089 526.94 486.709C526.94 478.328 526.94 463.662 533.225 467.852C539.511 472.043 558.367 474.138 558.367 467.852Z" fill="#808080"/>
<path d="M598.174 310.716C598.174 310.716 627.506 314.906 625.411 356.809C625.411 356.809 663.124 394.522 652.648 407.093C642.173 419.664 619.126 442.711 610.745 436.425C602.365 430.14 577.223 381.951 577.223 381.951C577.223 381.951 518.558 402.903 508.082 392.427C497.607 381.951 487.131 356.809 487.131 356.809L539.51 329.572L598.174 310.716Z" fill="#808080"/>
<path d="M516.464 191.292C530.35 191.292 541.606 180.035 541.606 166.15C541.606 152.264 530.35 141.008 516.464 141.008C502.579 141.008 491.322 152.264 491.322 166.15C491.322 180.035 502.579 191.292 516.464 191.292Z" fill="#9F616A"/>
<path d="M535.321 168.244C535.321 168.244 549.987 191.291 554.177 193.386C558.368 195.481 524.845 216.433 524.845 216.433C524.845 216.433 524.845 189.196 514.369 182.91L535.321 168.244Z" fill="#9F616A"/>
<path d="M537.416 191.292C537.416 191.292 570.938 180.816 577.224 197.577C583.509 214.339 598.176 245.766 596.08 266.718C593.985 287.669 589.795 283.479 596.08 289.764C602.366 296.05 606.556 291.859 604.461 300.24C602.366 308.621 600.271 308.621 602.366 312.811C604.461 317.001 577.224 331.667 554.177 333.763L531.13 335.858C531.13 335.858 531.13 298.145 526.94 289.764C522.75 281.384 514.369 264.622 514.369 258.337V241.706C514.369 230.637 517.258 219.759 522.75 210.148V210.148C522.75 210.148 535.321 191.292 537.416 191.292Z" fill="#D3D3D3"/>
<path d="M562.557 199.672C562.557 199.672 640.078 205.957 648.459 226.909C656.84 247.861 661.03 289.764 652.649 289.764C644.269 289.764 633.793 293.954 631.698 289.764C629.602 285.573 621.222 243.67 619.127 243.67C617.031 243.67 554.177 237.385 554.177 237.385C554.177 237.385 526.94 203.862 562.557 199.672Z" fill="#D3D3D3"/>
<path d="M515.453 159.917C515.453 159.917 508.781 148.322 500.441 158.393C492.101 168.464 478.534 149.957 480.617 146.008C482.7 142.059 490.055 146.185 502.659 142.065C515.263 137.945 539.544 129.551 543.61 156.932C547.676 184.314 537.992 181.444 537.992 181.444C537.992 181.444 533.553 157.18 529.54 164.15L525.528 171.119L522.048 171.976L515.453 159.917Z" fill="black"/>
</g>
<defs>
<clipPath id="clip0">
<rect width="892.35" height="579.11" fill="white"/>
</clipPath>
</defs>
</svg>
