<svg width="736" height="620" viewBox="0 0 736 620" fill="none" xmlns="http://www.w3.org/2000/svg">
<path d="M179.884 412.056L178.503 411.157C184.156 402.435 186.534 391.986 185.214 381.672C183.893 371.357 178.96 361.847 171.292 354.836C170.625 354.226 169.937 353.635 169.249 353.043C167.233 351.438 165.409 349.604 163.815 347.578C161.864 344.896 160.381 340.731 162.067 337.086L163.561 337.78C162.174 340.776 163.471 344.304 165.146 346.607C166.664 348.53 168.401 350.27 170.322 351.792C171.022 352.395 171.723 352.997 172.402 353.618C180.358 360.893 185.476 370.761 186.847 381.462C188.217 392.164 185.749 403.006 179.884 412.056V412.056Z" fill="#DFE6F0"/>
<path d="M707.024 609.621L705.643 608.723C711.296 600.001 713.675 589.552 712.354 579.238C711.034 568.923 706.101 559.413 698.433 552.402C697.764 551.791 697.076 551.198 696.387 550.606C694.372 549.002 692.549 547.169 690.956 545.144C689.005 542.462 687.521 538.298 689.208 534.651L690.702 535.345C689.315 538.342 690.611 541.87 692.287 544.173C693.805 546.095 695.54 547.834 697.459 549.355C698.161 549.959 698.863 550.562 699.543 551.185C707.499 558.459 712.618 568.327 713.988 579.028C715.358 589.73 712.89 600.572 707.024 609.621H707.024Z" fill="#DFE6F0"/>
<path d="M403.465 562.257C395.432 543.992 381.185 529.176 363.264 520.449C345.342 511.721 324.909 509.649 305.604 514.601C303.936 515.029 302.24 515.519 300.6 515.993C296.024 517.316 291.292 518.684 286.425 518.925C280.345 519.223 272.463 517.335 268.602 511.12L269.999 510.249C273.484 515.857 280.732 517.559 286.344 517.278C291.019 517.046 295.658 515.705 300.144 514.409C301.795 513.931 303.503 513.437 305.196 513.003C324.879 507.954 345.711 510.067 363.984 518.965C382.256 527.864 396.781 542.97 404.971 561.592L403.465 562.257Z" fill="#1E4470"/>
<path d="M404.903 248.679L403.284 248.379C406.904 228.753 403.45 208.476 393.537 191.162C383.624 173.848 367.896 160.621 349.155 153.837C347.535 153.25 345.857 152.7 344.236 152.168C339.709 150.683 335.029 149.147 330.87 146.604C325.67 143.425 320.221 137.423 320.52 130.108L322.164 130.176C321.895 136.775 326.927 142.262 331.727 145.197C335.723 147.64 340.311 149.145 344.748 150.601C346.381 151.137 348.071 151.691 349.714 152.286C368.822 159.203 384.858 172.689 394.965 190.342C405.072 207.995 408.594 228.668 404.903 248.679V248.679Z" fill="#1E4470"/>
<path d="M198.914 322.791C191.971 335.617 178.811 341.381 168.069 336.965C167.917 336.905 167.763 336.84 167.614 336.774L167.443 337.368C167.437 337.39 167.43 337.412 167.42 337.433C167.32 337.786 167.138 338.109 166.889 338.377C166.639 338.644 166.329 338.848 165.985 338.972C165.641 339.096 165.272 339.135 164.91 339.088C164.547 339.041 164.201 338.907 163.901 338.699L161.147 336.889C160.833 336.681 160.565 336.411 160.359 336.097C160.153 335.782 160.013 335.428 159.947 335.057C159.881 334.687 159.891 334.306 159.976 333.939C160.061 333.573 160.219 333.227 160.442 332.923L160.482 332.873L160.944 332.282L161.046 332.148C152.938 323.702 151.521 308.631 158.303 296.102C165.997 281.888 181.324 276.34 192.54 283.711C203.755 291.081 206.608 308.577 198.914 322.791Z" fill="#DFE6F0"/>
<path opacity="0.2" d="M173.462 290.582C176.813 288.62 178.955 286.044 178.245 284.829C177.536 283.614 174.245 284.219 170.894 286.181C167.543 288.144 165.401 290.719 166.111 291.935C166.82 293.15 170.111 292.544 173.462 290.582Z" fill="white"/>
<path d="M167.444 337.368C167.438 337.39 167.43 337.412 167.421 337.433L160.482 332.873L160.944 332.282L168.07 336.965C167.918 336.905 167.764 336.84 167.615 336.773L167.444 337.368Z" fill="#1E4470"/>
<path d="M368 619.5C571.241 619.5 736 621.642 736 608.866C736 596.089 571.241 585.731 368 585.731C164.759 585.731 0 596.089 0 608.866C0 621.642 164.759 619.5 368 619.5Z" fill="#DFE6F0"/>
<path d="M603.527 564.379L604.433 581.604L623.441 579.791L621.631 562.566L603.527 564.379Z" fill="#FBBEBE"/>
<path d="M530.207 544.435L531.113 561.659L550.121 559.846L548.31 542.622L530.207 544.435Z" fill="#FBBEBE"/>
<path d="M616.651 330.031L547.858 341.817L543.332 466.923L525.229 546.701L554.194 559.393L582.254 480.521L592.211 410.716L599.453 480.521L600.358 568.458L644.711 565.738L634.107 393.537C632.743 371.386 626.799 349.76 616.651 330.031V330.031Z" fill="#2F2E41"/>
<path d="M606.242 575.257C606.242 575.257 599.906 568.005 599.906 570.724C599.906 573.444 596.285 599.735 596.285 599.735C596.285 599.735 620.725 606.987 620.725 611.52C620.725 616.053 656.027 623.305 655.121 614.24C654.216 605.174 623.44 570.725 623.44 570.725C623.44 570.725 610.768 568.911 606.242 575.257Z" fill="#2F2E41"/>
<path d="M534.026 555.423C534.026 555.423 532.096 545.982 530.754 548.346C529.412 550.71 513.291 571.773 513.291 571.773C513.291 571.773 530.959 590.175 528.722 594.116C526.485 598.056 553.595 621.835 557.282 613.506C560.969 605.177 551.213 559.995 551.213 559.995C551.213 559.995 541.092 552.146 534.026 555.423Z" fill="#2F2E41"/>
<path d="M532.637 230.094L582.75 234.893L599.454 189.302L551.479 177.729L532.637 230.094Z" fill="#2F2E41"/>
<path d="M573.655 220.79C587.653 220.79 599 209.425 599 195.406C599 181.387 587.653 170.022 573.655 170.022C559.658 170.022 548.311 181.387 548.311 195.406C548.311 209.425 559.658 220.79 573.655 220.79Z" fill="#FBBEBE"/>
<path d="M559.173 210.818C559.173 210.818 559.173 228.043 545.595 235.296C532.018 242.548 578.181 250.707 578.181 250.707L582.707 235.296C582.707 235.296 569.13 228.95 580.897 214.445L559.173 210.818Z" fill="#FBBEBE"/>
<path d="M580.897 230.762C580.897 230.762 564.319 241.046 550.432 231.825L544.691 230.762L527.492 234.389L519.346 265.212L550.122 342.27C550.122 342.27 603.527 351.336 614.389 331.391L608.053 249.8L590.854 228.949L580.897 230.762Z" fill="#1E4470"/>
<path d="M589.045 231.669L618.915 189.967L616.2 185.435L577.277 165.49V152.798L637.924 169.116L642.027 175.628L606.243 253.427L589.045 231.669Z" fill="#1E4470"/>
<path d="M529.303 235.296L527.493 234.389L482.234 232.576L516.631 202.659L505.768 189.061L454.174 228.043V237.109L527.493 267.932L529.303 235.296Z" fill="#1E4470"/>
<path d="M505.316 193.14L511.653 189.514C511.653 189.514 525.23 171.383 530.661 178.635C536.092 185.888 517.989 199.486 517.989 199.486L508.032 203.113L505.316 193.14Z" fill="#FBBEBE"/>
<path d="M579.992 155.518L570.035 150.078C570.035 150.078 540.164 152.798 543.785 159.144C547.406 165.49 568.225 160.05 568.225 160.05L579.992 163.677V155.518Z" fill="#FBBEBE"/>
<path d="M554.2 170.907C554.2 170.907 542.566 174.791 541.975 190.13C541.915 192.583 542.187 195.033 542.782 197.414C543.438 200.194 543.859 206.177 538.782 213.996C535.382 219.158 532.277 224.508 529.48 230.021L529.443 230.094L542.221 231.694L544.938 210.481C546.255 200.197 549.077 190.163 553.313 180.702L553.401 180.505C553.401 180.505 558.991 190.903 570.172 190.903L566.179 186.903C566.179 186.903 583.748 194.102 590.137 194.102C590.137 194.102 594.928 197.301 590.137 202.1C585.345 206.899 575.762 218.097 581.352 226.895C586.942 235.693 582.151 238.092 582.151 238.092L590.935 233.293L594.928 230.894V234.093L615.692 231.694C615.692 231.694 621.282 230.894 609.303 217.297C609.303 217.297 606.14 212.017 607.524 207.463C608.661 204.002 608.96 200.319 608.395 196.72C605.712 181.726 595.183 151.915 554.2 170.907Z" fill="#2F2E41"/>
<path d="M409.913 585.929C409.815 585.767 407.484 581.869 406.676 573.775C405.934 566.349 406.411 553.832 412.893 536.372C425.171 503.295 410.063 476.607 409.908 476.341L410.654 475.908C413.563 481.484 415.664 487.446 416.895 493.615C419.938 507.98 418.83 522.916 413.7 536.673C401.442 569.694 410.555 585.325 410.649 585.48L409.913 585.929Z" fill="#DFE6F0"/>
<path d="M405.112 474.398C408.204 474.398 410.711 471.887 410.711 468.79C410.711 465.693 408.204 463.182 405.112 463.182C402.019 463.182 399.512 465.693 399.512 468.79C399.512 471.887 402.019 474.398 405.112 474.398Z" fill="#DFE6F0"/>
<path d="M422.772 495.106C425.864 495.106 428.371 492.595 428.371 489.498C428.371 486.401 425.864 483.89 422.772 483.89C419.679 483.89 417.172 486.401 417.172 489.498C417.172 492.595 419.679 495.106 422.772 495.106Z" fill="#DFE6F0"/>
<path d="M410.711 508.912C413.804 508.912 416.311 506.401 416.311 503.304C416.311 500.206 413.804 497.695 410.711 497.695C407.618 497.695 405.111 500.206 405.111 503.304C405.111 506.401 407.618 508.912 410.711 508.912Z" fill="#DFE6F0"/>
<path d="M425.358 520.561C428.45 520.561 430.957 518.05 430.957 514.952C430.957 511.855 428.45 509.344 425.358 509.344C422.265 509.344 419.758 511.855 419.758 514.952C419.758 518.05 422.265 520.561 425.358 520.561Z" fill="#DFE6F0"/>
<path d="M406.404 538.68C409.497 538.68 412.004 536.169 412.004 533.071C412.004 529.974 409.497 527.463 406.404 527.463C403.312 527.463 400.805 529.974 400.805 533.071C400.805 536.169 403.312 538.68 406.404 538.68Z" fill="#DFE6F0"/>
<path d="M413.296 586.135C413.296 586.135 407.697 572.33 424.496 561.976L413.296 586.135Z" fill="#DFE6F0"/>
<path d="M406.408 585.885C406.408 585.885 403.86 571.204 384.135 571.33L406.408 585.885Z" fill="#DFE6F0"/>
<path d="M75.671 433.327L80.6098 470.425C80.6098 470.425 64.9701 516.592 81.433 561.11L87.195 593.262H108.597L111.066 582.545C111.066 582.545 101.188 574.301 101.188 555.339L109.42 470.425L111.066 426.731L75.671 433.327Z" fill="#A0616A"/>
<path d="M94.6027 589.965C94.6027 589.965 86.3712 585.019 85.5481 589.965C84.7249 594.912 74.8472 617.995 83.9018 617.995C92.9564 617.995 107.773 613.873 107.773 613.873C107.773 613.873 116.828 607.278 127.528 607.278C138.229 607.278 140.699 594.087 139.052 590.79C137.406 587.492 133.29 582.546 129.175 583.37C126.185 583.897 123.156 584.173 120.12 584.194L107.126 577.725C107.126 577.725 105.304 590.79 94.6027 589.965Z" fill="#2F2E41"/>
<path d="M128.193 426.05L149.516 456.786C149.516 456.786 156.673 505.008 191.632 537.068L211.429 563.028L230.465 553.231L227.77 542.568C227.77 542.568 215.223 539.757 206.57 522.892L175.141 443.598L156.666 403.981L128.193 426.05Z" fill="#A0616A"/>
<path d="M216.513 556.704C216.513 556.704 206.934 556.072 208.459 560.848C209.985 565.625 211.733 590.678 219.787 586.533C227.84 582.388 239.137 571.94 239.137 571.94C239.137 571.94 244.181 561.929 253.699 557.03C263.217 552.132 259.394 539.269 256.425 537.09C253.456 534.91 247.538 532.395 244.253 535.012C241.834 536.85 239.266 538.481 236.576 539.89L222.066 540.084C222.066 540.084 226.407 552.538 216.513 556.704Z" fill="#2F2E41"/>
<path d="M100.777 210.324C113.506 210.324 123.825 199.989 123.825 187.241C123.825 174.492 113.506 164.157 100.777 164.157C88.0475 164.157 77.7285 174.492 77.7285 187.241C77.7285 199.989 88.0475 210.324 100.777 210.324Z" fill="#A0616A"/>
<path d="M83.0788 197.546L64.1465 223.103L87.1945 231.347L97.8953 207.439L83.0788 197.546Z" fill="#A0616A"/>
<path d="M116.828 232.171L115.88 231.294C112.825 228.47 109.19 226.347 105.231 225.074C101.272 223.802 97.0829 223.41 92.9568 223.927V223.927C92.9568 223.927 94.3568 212.789 71.0204 213.824L60.0311 223.102C60.0311 223.102 44.803 238.354 48.9187 261.437C53.0344 284.521 53.446 342.642 53.446 342.642L65.7931 444.044C65.7931 444.044 158.808 439.922 176.094 401.999L123.413 291.528L116.828 232.171Z" fill="#3785BA"/>
<path d="M95.4258 256.903L104.48 306.368L142.345 369.023C142.345 369.023 142.345 398.702 157.985 395.404C173.624 392.107 156.338 364.901 156.338 364.901L122.59 298.124L116.004 256.903H95.4258Z" fill="#A0616A"/>
<path d="M92.9551 236.294L94.6014 264.323L120.115 261.813L116.003 233.82L92.9551 236.294Z" fill="#3785BA"/>
<path d="M125.015 180.595C125.015 180.595 138.614 154.393 106.527 152.835C106.527 152.835 87.3521 141.505 71.1774 164.783L54.4629 189.272L58.4541 188.681L58.7615 192.646L63.6519 195.994L67.6386 192.256L66.7149 198.235L109.257 218.866C109.257 218.866 93.7704 199.887 101.146 178.777L103.453 184.148L125.015 180.595Z" fill="#2F2E41"/>
<path d="M351.139 447.422C341.643 483.474 312.157 507.648 282.44 505.659C282.019 505.638 281.592 505.604 281.177 505.564L281.115 507.115C281.115 507.173 281.109 507.232 281.099 507.289C281.038 508.238 280.767 509.161 280.307 509.992C279.847 510.824 279.209 511.543 278.439 512.098C277.669 512.653 276.785 513.031 275.852 513.203C274.919 513.376 273.959 513.34 273.042 513.097L265.003 510.973C264.099 510.735 263.256 510.302 262.536 509.705C261.815 509.107 261.233 508.36 260.831 507.514C260.428 506.668 260.215 505.744 260.205 504.807C260.196 503.87 260.391 502.942 260.776 502.089L260.846 501.938L261.64 500.164L261.815 499.764C236.216 486.086 223.324 451.321 232.6 416.104C243.124 376.146 278.187 350.768 310.924 359.417C343.661 368.066 361.663 407.464 351.139 447.422Z" fill="#3785BA"/>
<path opacity="0.2" d="M267.091 391.095C274.326 383.794 278.212 375.908 275.771 373.483C273.33 371.057 265.487 375.01 258.253 382.312C251.019 389.614 247.133 397.499 249.573 399.925C252.014 402.35 259.857 398.397 267.091 391.095Z" fill="white"/>
<path d="M281.115 507.115C281.115 507.173 281.109 507.232 281.099 507.289L260.846 501.938L261.64 500.164L282.44 505.659C282.02 505.638 281.593 505.604 281.177 505.564L281.115 507.115Z" fill="#1E4470"/>
<path d="M515.704 82.2648C544.233 101.903 555.587 134.614 543.844 159.093C543.683 159.441 543.51 159.792 543.335 160.13L544.679 160.682C544.73 160.701 544.78 160.724 544.827 160.751C545.63 161.081 546.347 161.591 546.923 162.241C547.499 162.892 547.919 163.665 548.151 164.503C548.383 165.341 548.42 166.221 548.26 167.075C548.1 167.93 547.747 168.736 547.227 169.433L542.655 175.544C542.122 176.236 541.449 176.809 540.681 177.225C539.912 177.641 539.065 177.89 538.194 177.957C537.323 178.025 536.448 177.908 535.625 177.614C534.802 177.321 534.049 176.858 533.417 176.255L533.308 176.148L532.013 174.905L531.72 174.629C511.077 191.861 476.152 191.562 448.284 172.378C416.666 150.612 406.127 112.8 424.746 87.9128C443.366 63.026 484.086 60.4991 515.704 82.2648Z" fill="#3785BA"/>
<path opacity="0.2" d="M439.823 152.79C442.727 151.401 441.816 143.425 437.787 134.975C433.757 126.525 428.137 120.801 425.233 122.19C422.329 123.579 423.241 131.555 427.27 140.005C431.299 148.455 436.919 154.179 439.823 152.79Z" fill="white"/>
<path d="M544.679 160.682C544.73 160.701 544.78 160.725 544.827 160.752L533.308 176.149L532.014 174.906L543.844 159.094C543.683 159.442 543.51 159.792 543.335 160.13L544.679 160.682Z" fill="#1E4470"/>
<path d="M338.868 39.6558C356.089 69.6869 352.203 104.059 331.067 121.023C330.773 121.268 330.466 121.508 330.162 121.737L331.134 122.815C331.172 122.855 331.207 122.897 331.238 122.942C331.818 123.587 332.244 124.356 332.483 125.191C332.721 126.026 332.765 126.904 332.613 127.759C332.46 128.614 332.114 129.422 331.601 130.123C331.088 130.823 330.422 131.396 329.654 131.799L322.901 135.324C322.122 135.717 321.268 135.942 320.397 135.984C319.525 136.026 318.655 135.884 317.841 135.568C317.028 135.251 316.29 134.767 315.676 134.147C315.061 133.527 314.583 132.784 314.273 131.967L314.221 131.824L313.592 130.145L313.447 129.769C287.422 136.355 256.098 120.973 239.276 91.6377C220.19 58.3539 227.01 19.7395 254.515 5.38354C282.019 -8.97239 319.782 6.37194 338.868 39.6558Z" fill="#3785BA"/>
<path opacity="0.2" d="M245.958 53.4101C245.975 44.0567 243.383 36.4696 240.168 36.4638C236.953 36.4581 234.334 44.0359 234.317 53.3893C234.301 62.7427 236.893 70.3299 240.108 70.3356C243.322 70.3413 245.942 62.7636 245.958 53.4101Z" fill="white"/>
<path d="M331.134 122.815C331.172 122.855 331.206 122.897 331.237 122.942L314.221 131.824L313.592 130.145L331.067 121.023C330.772 121.268 330.466 121.508 330.162 121.737L331.134 122.815Z" fill="#1E4470"/>
<path d="M727.736 522.318C720.9 534.946 707.943 540.622 697.366 536.274C697.216 536.215 697.065 536.151 696.918 536.085L696.749 536.671C696.744 536.693 696.736 536.714 696.727 536.735C696.629 537.082 696.449 537.4 696.204 537.664C695.958 537.927 695.653 538.128 695.314 538.25C694.975 538.372 694.612 538.411 694.255 538.364C693.898 538.318 693.558 538.186 693.262 537.981L690.55 536.199C690.242 535.994 689.978 535.729 689.775 535.419C689.572 535.109 689.433 534.761 689.368 534.396C689.304 534.031 689.313 533.656 689.397 533.295C689.481 532.934 689.637 532.593 689.856 532.294L689.895 532.245L690.35 531.663L690.451 531.531C682.468 523.215 681.073 508.376 687.75 496.04C695.326 482.045 710.417 476.582 721.46 483.839C732.503 491.096 735.312 508.323 727.736 522.318Z" fill="#DFE6F0"/>
<path opacity="0.2" d="M702.679 490.608C705.978 488.676 708.087 486.14 707.388 484.943C706.69 483.747 703.449 484.343 700.15 486.275C696.85 488.207 694.742 490.743 695.44 491.94C696.139 493.136 699.38 492.54 702.679 490.608Z" fill="white"/>
<path d="M696.749 536.671C696.743 536.693 696.736 536.715 696.726 536.736L689.895 532.246L690.349 531.664L697.366 536.275C697.215 536.216 697.064 536.152 696.917 536.086L696.749 536.671Z" fill="#1E4470"/>
</svg>
