<svg width="843" height="558" viewBox="0 0 843 558" fill="none" xmlns="http://www.w3.org/2000/svg">
<g clip-path="url(#clip0)">
<path d="M621.59 421.111C658.016 330.044 646.997 228.357 600.018 150.259L108.245 218.351L579.52 120.134C380.898 -127.551 -5.69294 36.7357 31.5724 349.455L621.59 421.111Z" fill="white"/>
<path d="M703.28 320.444H76.7539V515.54H703.28V320.444Z" fill="#808080"/>
<path d="M251.484 296.652C257.106 301.018 259.161 302.427 260.358 302.248C318.358 319.138 267.513 338.931 239.332 305.333L251.484 296.652Z" fill="#FFB8B8"/>
<path d="M60.0996 475.093V514.747L88.6496 513.161L80.7196 471.921L60.0996 475.093Z" fill="#FFB8B8"/>
<path d="M218.713 475.093V514.747L190.162 513.161L198.093 471.921L218.713 475.093Z" fill="#FFB8B8"/>
<path d="M131.475 270.481L174.301 268.895C273.095 372.466 235.733 348.843 232.988 490.954L180.646 475.093L191.749 376.752C191.754 376.748 194.677 374.8 192.248 374.755C177.051 379.977 165.963 315.318 133.061 322.823C95.6206 321.032 89.5253 376.574 74.3741 376.752L85.4771 475.093L33.1344 490.954C27.2739 334.788 -1.44855 370.067 91.8217 268.895L131.475 270.481Z" fill="#535461"/>
<path d="M68.0294 502.058C68.0294 502.058 61.6849 489.368 53.7542 495.713C45.8235 502.058 26.7898 521.091 26.7898 521.091C26.7898 521.091 -19.2084 541.711 9.3422 554.4C37.8927 567.089 61.6849 536.953 61.6849 536.953C88.8789 531.282 104.565 527.652 90.1431 497.989C81.9555 501.532 70.3688 505.634 68.0294 502.058Z" fill="#535461"/>
<path d="M210.783 502.058C210.783 502.058 217.127 489.368 225.058 495.713C232.989 502.058 252.022 521.091 252.022 521.091C252.022 521.091 298.021 541.711 269.47 554.4C240.919 567.089 217.127 536.953 217.127 536.953C189.933 531.282 174.248 527.652 188.669 497.989C196.857 501.532 208.443 505.634 210.783 502.058Z" fill="#535461"/>
<path d="M174.3 91.2474C171.941 130.733 118.052 127.257 117.199 91.2471C119.558 51.7619 173.447 55.2382 174.3 91.2474Z" fill="#FFB8B8"/>
<path d="M133.061 111.867C146.936 153.805 114.176 130.972 160.025 164.21L177.473 129.314C177.473 129.314 164.783 124.556 166.37 107.108L133.061 111.867Z" fill="#FFB8B8"/>
<path d="M218.713 135.659L171.431 124.867C172.761 153.377 142.336 147.639 137.027 133.298L91.8218 159.452C110.796 230.119 105.987 233.034 80.7188 278.412C71.0754 287.218 85.4972 292.265 98.0523 287.447C107.628 281.536 112.491 276.284 122.752 277.621C171.238 287.716 211.601 290.099 217.988 286.154C220.274 282.883 217.922 136.227 218.713 135.659Z" fill="#808080"/>
<path d="M206.023 138.832C207.61 138.832 215.78 134.99 215.78 134.99C239.551 134.589 255.503 294.487 256.78 299.032L240.919 310.135L215.54 245.103L206.023 138.832Z" fill="#808080"/>
<path d="M94.9941 324.41C95.8051 330.396 97.1852 397.62 121.267 366.218C124.426 343.308 113.684 336.469 110.856 321.237L94.9941 324.41Z" fill="#FFB8B8"/>
<path d="M101.339 159.451L96.4792 156.757C83.4499 156.329 87.5562 190.818 82.0438 216.076C77.5404 245.5 78.8227 277.946 84.1062 321.323C84.5682 337.241 113.079 327.213 117.201 325.996C117.201 325.996 107.684 260.964 112.442 249.861C117.201 238.758 101.339 159.451 101.339 159.451Z" fill="#808080"/>
<path d="M173.053 63.57C168.648 56.4173 161.753 51.1464 153.696 48.772L147.777 53.5066L150.078 47.9843C148.143 47.6891 146.185 47.5759 144.229 47.6462L138.904 54.4925L141.108 47.8807C118.259 50.3341 104.74 76.5639 116.602 94.9215C118.432 89.2983 120.653 84.0218 122.483 78.3985C123.921 78.5946 125.379 78.6017 126.819 78.4197L129.045 73.2251L129.667 78.2C136.567 77.5987 146.802 76.279 153.343 75.0696L152.707 71.2533L156.513 74.4247C158.517 73.9632 159.707 73.5449 159.609 73.2251C164.474 81.0683 169.294 86.0779 174.159 93.9211C176.006 82.858 179.266 73.6621 173.053 63.57Z" fill="#2F2E41"/>
<path d="M575.779 343.979H437.412V409.614H575.779V343.979Z" fill="white"/>
<path d="M549.614 357.727H463.578V365.597H549.614V357.727Z" fill="#E6E6E6"/>
<path d="M549.614 372.861H463.578V380.731H549.614V372.861Z" fill="#E6E6E6"/>
<path d="M549.614 387.997H463.578V395.867H549.614V387.997Z" fill="#E6E6E6"/>
<path d="M366.915 359.57L362.414 351.775L357.914 343.979L353.413 351.775L348.912 359.57H353.748V382.144H362.079V359.57H366.915Z" fill="white"/>
<path d="M551.888 520.194C572.356 520.194 588.948 503.601 588.948 483.133C588.948 462.666 572.356 446.073 551.888 446.073C531.42 446.073 514.828 462.666 514.828 483.133C514.828 503.601 531.42 520.194 551.888 520.194Z" fill="#535461"/>
<path d="M558.626 499.558C567.696 499.558 575.05 492.204 575.05 483.133C575.05 474.062 567.696 466.709 558.626 466.709C549.555 466.709 542.201 474.062 542.201 483.133C542.201 492.204 549.555 499.558 558.626 499.558Z" fill="#E6E6E6"/>
<path d="M528.516 509.033L609.375 542.724L606.848 550.726L560.312 545.461L481.559 510.507L525.357 515.561L528.516 509.033Z" fill="#535461"/>
<path d="M599.989 541.206L700.554 211.319L725.044 167.828L725.13 167.409C725.209 167.025 727.007 157.934 722.584 151.351C721.469 149.715 720.029 148.326 718.354 147.27C716.678 146.215 714.803 145.516 712.846 145.217C699.33 142.683 669.092 141.434 667.812 141.382L667.57 141.372L667.331 141.405C666.505 141.517 647.18 144.342 642.812 161.217L621.787 199.481L621.705 199.753L526.527 512.658L531.765 514.252L626.86 201.618L647.954 163.226L648.04 162.873C651.129 150.174 665.897 147.204 667.861 146.864C670.95 146.995 699.37 148.26 711.837 150.598C713.075 150.767 714.264 151.19 715.33 151.843C716.395 152.495 717.314 153.361 718.028 154.387C720.754 158.423 720.071 164.365 719.831 165.928L695.491 209.152L695.404 209.437L594.752 539.61L599.989 541.206Z" fill="#535461"/>
<path d="M614.694 231.117L613.721 236.505L686.351 249.623L687.324 244.235L614.694 231.117Z" fill="#535461"/>
<path d="M601.13 275.923L600.035 281.287L672.147 296.005L673.242 290.641L601.13 275.923Z" fill="#535461"/>
<path d="M576.977 356.055L575.471 361.318L645.875 381.464L647.381 376.2L576.977 356.055Z" fill="#535461"/>
<path d="M624.59 511.372L626.586 506.273L558.25 479.515L554.894 443.181L618.676 467.004L639.339 496.902L643.844 493.79L622.202 462.476L548.641 435L553.109 483.382L624.59 511.372Z" fill="#535461"/>
<path d="M648.33 555.568C668.797 555.568 685.39 538.976 685.39 518.508C685.39 498.041 668.797 481.448 648.33 481.448C627.862 481.448 611.27 498.041 611.27 518.508C611.27 538.976 627.862 555.568 648.33 555.568Z" fill="#535461"/>
<path d="M658.014 536.617C667.085 536.617 674.439 529.264 674.439 520.193C674.439 511.122 667.085 503.769 658.014 503.769C648.943 503.769 641.59 511.122 641.59 520.193C641.59 529.264 648.943 536.617 658.014 536.617Z" fill="#E6E6E6"/>
</g>
<defs>
<clipPath id="clip0">
<rect width="885.558" height="557.519" fill="white"/>
</clipPath>
</defs>
</svg>
