<svg width="771" height="651" viewBox="0 0 771 651" fill="none" xmlns="http://www.w3.org/2000/svg">
<g clip-path="url(#clip0)">
<path d="M719.42 569.573C719.42 569.573 607.114 517.873 646.567 482.021C686.02 446.169 719.42 569.573 719.42 569.573Z" fill="#808080"/>
<path d="M717.467 581.636C717.467 581.636 665.847 412.03 741.859 420.141C817.872 428.253 717.467 581.636 717.467 581.636Z" fill="#808080"/>
<path d="M679.83 566.596L681.997 594.967L682.031 595.457C682.029 599.888 682.253 604.316 682.702 608.723C685.642 637.662 698.28 650.851 713.051 650.851C727.821 650.851 739.909 637.662 742.849 608.723C743.298 604.316 743.522 599.888 743.52 595.457L743.537 595.062L743.546 594.967L745.721 566.596H679.83Z" fill="#808080"/>
<path d="M743.545 594.967L743.537 595.061L743.519 595.457C743.522 599.887 743.298 604.315 742.849 608.723H682.701C682.252 604.315 682.028 599.887 682.03 595.457L681.996 594.967H743.545Z" fill="white"/>
<path d="M84.8094 594.264C84.8094 594.264 43.0494 575.04 57.7197 561.708C72.39 548.377 84.8094 594.264 84.8094 594.264Z" fill="#808080"/>
<path d="M57.1543 592.227L58.6617 611.967L58.6857 612.308C58.6843 615.39 58.84 618.471 59.1523 621.538C61.1981 641.673 69.9915 650.849 80.2683 650.849C90.5452 650.849 98.9558 641.673 101.002 621.538C101.314 618.471 101.47 615.39 101.468 612.308L101.48 612.033L101.486 611.967L103 592.227L57.1543 592.227Z" fill="#808080"/>
<path d="M523.404 306.326C524.97 305.244 526.202 303.744 526.96 301.997C527.717 300.25 527.97 298.326 527.689 296.443C527.409 294.56 526.606 292.793 525.372 291.342C524.138 289.892 522.522 288.817 520.708 288.238L497.328 280.781L484.48 291.915L512.842 306.946C514.49 307.82 516.347 308.224 518.21 308.115C520.072 308.005 521.869 307.387 523.404 306.326V306.326Z" fill="#FFB9B9"/>
<path d="M484.087 299.183L499.501 281.31L442.106 218.494L415.68 157.227C413.939 153.19 410.839 149.89 406.919 147.9C402.998 145.91 398.505 145.355 394.218 146.332V146.332C391.415 146.971 388.795 148.244 386.56 150.053C384.325 151.862 382.535 154.159 381.326 156.768C380.117 159.377 379.522 162.228 379.587 165.102C379.651 167.977 380.374 170.799 381.699 173.351L416.189 239.786L484.087 299.183Z" fill="#808080"/>
<path d="M520.909 535.935L517.955 531.35H512.5V529.35H519.045L522.591 534.851L520.909 535.935Z" fill="white"/>
<path d="M508.668 531.351H497.171V529.351H508.668V531.351ZM493.338 531.351H481.841V529.351H493.338V531.351ZM478.009 531.351H466.512V529.351H478.009L478.009 531.351ZM462.679 531.351H451.182V529.351H462.679V531.351ZM447.35 531.351H435.853V529.351H447.35V531.351ZM432.02 531.351L421.368 531.342L420.4 531.213L420.663 529.23L421.567 529.351H432.02V531.351ZM416.601 530.708L405.203 529.194L405.467 527.212L416.864 528.726L416.601 530.708ZM401.404 528.689L390.007 527.175L390.271 525.192L401.668 526.707L401.404 528.689ZM386.209 526.67L374.812 525.156L375.075 523.174L386.472 524.688L386.209 526.67ZM371.012 524.651L359.615 523.137L359.879 521.154L371.276 522.669L371.012 524.651Z" fill="white"/>
<path d="M350.827 526.877L348.828 526.821L349.031 519.713L356.079 520.65L355.815 522.632L350.967 521.989L350.827 526.877Z" fill="white"/>
<path d="M349.3 580.419L347.301 580.362L347.683 566.977L349.682 567.033L349.3 580.419ZM349.81 562.571L347.811 562.515L348.193 549.129L350.192 549.186L349.81 562.571ZM350.319 544.724L348.32 544.667L348.703 531.281L350.702 531.338L350.319 544.724Z" fill="white"/>
<path d="M346.969 591.933L347.172 584.824L349.171 584.88L349.031 589.767L353.904 589.388L354.06 591.382L346.969 591.933Z" fill="white"/>
<path d="M357.888 591.086L357.732 589.092L369.214 588.199L369.37 590.193L357.888 591.086ZM373.197 589.896L373.042 587.902L384.523 587.01L384.679 589.004L373.197 589.896ZM388.506 588.707L388.351 586.713L399.833 585.82L399.987 587.814L388.506 588.707ZM403.814 587.518L403.66 585.523L415.142 584.631L415.296 586.625L403.814 587.518ZM419.123 586.328L418.969 584.334L430.451 583.441L430.605 585.436L419.123 586.328ZM434.433 585.139L434.278 583.144L445.76 582.252L445.914 584.246L434.433 585.139ZM449.741 583.949L449.587 581.955L461.069 581.062L461.224 583.057L449.741 583.949ZM465.051 582.76L464.896 580.766L476.378 579.873L476.532 581.867L465.051 582.76ZM480.359 581.57L480.205 579.576L491.688 578.684L491.842 580.678L480.359 581.57ZM495.669 580.381L495.515 578.387L506.996 577.494L507.15 579.488L495.669 580.381ZM510.978 579.191L510.823 577.197L522.306 576.305L522.46 578.299L510.978 579.191ZM526.287 578.002L526.133 576.008L537.614 575.115L537.769 577.109L526.287 578.002Z" fill="white"/>
<path d="M541.594 576.813L541.439 574.819L545.751 574.484L543.408 570.85L545.09 569.766L549.247 576.218L541.594 576.813Z" fill="white"/>
<path d="M540.908 566.969L533.408 555.331L535.09 554.247L542.59 565.885L540.908 566.969ZM530.908 551.452L523.408 539.814L525.09 538.73L532.59 550.368L530.908 551.452Z" fill="white"/>
<path d="M504 619.85C541.555 619.85 572 589.405 572 551.85C572 514.294 541.555 483.85 504 483.85C466.445 483.85 436 514.294 436 551.85C436 589.405 466.445 619.85 504 619.85Z" fill="#C6C6C6"/>
<path d="M560 630.85L460.5 454.35L438.5 476.35L536.5 630.35L560 630.85Z" fill="white"/>
<path d="M258.5 626.35L482 399.85L500.5 436.35L288.5 636.35L258.5 626.35Z" fill="white"/>
<path d="M349.5 602.35C374.353 602.35 394.5 582.202 394.5 557.35C394.5 532.497 374.353 512.35 349.5 512.35C324.647 512.35 304.5 532.497 304.5 557.35C304.5 582.202 324.647 602.35 349.5 602.35Z" fill="white"/>
<path d="M289.5 570.35C289.235 570.35 288.981 570.455 288.793 570.643C288.606 570.83 288.5 571.084 288.5 571.35V579.35C288.5 579.615 288.606 579.869 288.793 580.056C288.981 580.244 289.235 580.349 289.5 580.35H314.5C314.765 580.349 315.019 580.244 315.207 580.056C315.394 579.869 315.5 579.615 315.5 579.35V571.35C315.5 571.084 315.394 570.83 315.207 570.643C315.019 570.455 314.765 570.35 314.5 570.35H289.5Z" fill="#C6C6C6"/>
<path d="M347 458.85C346.735 458.85 346.481 458.955 346.293 459.143C346.106 459.33 346 459.584 346 459.85V467.85C346 468.115 346.106 468.369 346.293 468.556C346.481 468.744 346.735 468.849 347 468.85H372C372.265 468.849 372.519 468.744 372.707 468.556C372.894 468.369 373 468.115 373 467.85V459.85C373 459.584 372.894 459.33 372.707 459.143C372.519 458.955 372.265 458.85 372 458.85H347Z" fill="#C6C6C6"/>
<path d="M468.5 442.35H442.5V422.35L452.5 418.35L468.5 430.35V442.35Z" fill="white"/>
<path d="M445.79 413.286L443.078 414.568L448.209 425.416L450.921 424.133L445.79 413.286Z" fill="white"/>
<path d="M448.665 400.305C448.474 400.305 448.288 400.36 448.127 400.464L430.464 411.824C430.241 411.967 430.085 412.194 430.029 412.453C429.972 412.712 430.021 412.982 430.164 413.206L434.492 419.934C434.635 420.157 434.861 420.314 435.12 420.37C435.379 420.426 435.65 420.378 435.873 420.234L453.537 408.875V408.875C453.759 408.731 453.916 408.505 453.972 408.246C454.028 407.987 453.979 407.716 453.836 407.493L449.509 400.764C449.438 400.654 449.346 400.558 449.238 400.483C449.13 400.408 449.009 400.356 448.88 400.328C448.81 400.313 448.738 400.305 448.665 400.305V400.305Z" fill="#C6C6C6"/>
<path d="M488.5 440.35L468 340.85L492 336.85L508.364 417.005C509.067 419.911 509.073 422.942 508.381 425.85C507.688 428.758 506.317 431.461 504.38 433.738C502.442 436.015 499.994 437.801 497.234 438.95C494.474 440.099 491.481 440.579 488.5 440.35Z" fill="white"/>
<path d="M564.031 321.246L540.289 319.55C539.972 319.527 539.664 319.429 539.393 319.264C539.121 319.099 538.892 318.871 538.726 318.599C538.56 318.328 538.461 318.021 538.437 317.704C538.414 317.386 538.466 317.068 538.59 316.775L573.076 235.349C573.206 235.042 573.41 234.773 573.671 234.566C573.931 234.358 574.239 234.219 574.566 234.16L597.984 229.978C598.334 229.916 598.694 229.948 599.028 230.071C599.361 230.194 599.656 230.404 599.881 230.678C600.107 230.953 600.255 231.283 600.311 231.634C600.366 231.985 600.327 232.345 600.198 232.676L566.036 319.98C565.88 320.377 565.602 320.714 565.241 320.942C564.88 321.17 564.456 321.276 564.031 321.246Z" fill="white"/>
<path d="M543.5 313.35L562.5 315.35L593.5 237.35L573.5 240.35L543.5 313.35Z" fill="#C6C6C6"/>
<path d="M336.5 527.35L311.5 552.35L275.5 395.35L295.5 398.35L336.5 527.35Z" fill="white"/>
<path d="M307.367 398.112L303.049 396.816C294.564 400.557 285.333 402.294 276.069 401.893C274.068 401.81 272.178 400.954 270.796 399.505C269.413 398.056 268.647 396.127 268.658 394.125V394.125C268.658 392.063 269.478 390.085 270.936 388.627C272.394 387.169 274.372 386.35 276.434 386.35H314.151C315.172 386.35 316.151 386.755 316.873 387.477C317.595 388.199 318.001 389.178 318.001 390.2C318.001 391.487 317.7 392.757 317.122 393.908C316.544 395.059 315.704 396.058 314.671 396.827C313.638 397.596 312.44 398.112 311.171 398.335C309.903 398.558 308.6 398.482 307.367 398.112V398.112Z" fill="white"/>
<path d="M546.269 299.928C545.303 299.926 544.363 300.243 543.596 300.829L512.895 324.306L478.528 328.789C472.611 329.561 468.514 335.997 468 341.849L508.453 336.231C514.073 335.69 519.383 333.41 523.647 329.71L549.149 307.655C549.829 307.068 550.313 306.287 550.536 305.418C550.759 304.548 550.711 303.63 550.397 302.789C550.083 301.948 549.52 301.222 548.782 300.711C548.043 300.199 547.167 299.926 546.269 299.928V299.928Z" fill="white"/>
<path d="M531.269 284.928C530.303 284.926 529.363 285.243 528.596 285.829L497.895 309.306L463.528 313.789C457.611 314.561 453.514 320.997 453 326.849L493.453 321.231C499.073 320.69 504.383 318.41 508.647 314.71L534.149 292.655C534.829 292.068 535.313 291.287 535.536 290.418C535.759 289.548 535.711 288.63 535.397 287.789C535.083 286.948 534.52 286.222 533.782 285.711C533.043 285.199 532.167 284.926 531.269 284.928V284.928Z" fill="white"/>
<path d="M550 345.35C542.851 345.335 535.805 343.642 529.429 340.409C523.052 337.176 517.524 332.491 513.287 326.732L517.318 323.775C520.552 328.192 524.648 331.908 529.358 334.698C534.068 337.488 539.295 339.294 544.722 340.007C550.15 340.72 555.666 340.325 560.937 338.847C566.207 337.368 571.124 334.837 575.389 331.405C579.654 327.973 583.179 323.712 585.751 318.88C588.323 314.047 589.889 308.744 590.354 303.289C590.819 297.835 590.173 292.343 588.456 287.145C586.738 281.947 583.985 277.151 580.362 273.047L584.11 269.736C589.907 276.302 593.685 284.402 594.991 293.062C596.297 301.722 595.077 310.576 591.475 318.559C587.874 326.543 582.044 333.317 574.687 338.069C567.33 342.822 558.758 345.349 550 345.35V345.35Z" fill="white"/>
<path d="M585 625.85H231V650.85H585V625.85Z" fill="white"/>
<path d="M498.247 332.051C500.015 331.344 501.549 330.155 502.676 328.62C503.803 327.085 504.477 325.265 504.622 323.367C504.767 321.468 504.377 319.567 503.496 317.879C502.615 316.191 501.279 314.783 499.639 313.816L478.5 301.35L463.5 309.35L487.812 330.308C489.225 331.526 490.945 332.333 492.785 332.64C494.626 332.948 496.515 332.744 498.247 332.051V332.051Z" fill="#FFB9B9"/>
<path d="M332.5 420.35L346.5 428.35L432.948 364.719C436.118 362.553 438.806 359.754 440.843 356.499C442.88 353.245 444.222 349.604 444.784 345.806V345.806C445.487 341.004 444.927 336.101 443.16 331.581C441.392 327.062 438.478 323.08 434.703 320.029C415.612 304.523 392.018 290.458 367 276.85L330 294.85C345.248 326.116 362.175 351.894 387 351.85L332.5 420.35Z" fill="#C6C6C6"/>
<path d="M326.396 440.72C338.012 452.488 353.308 460.907 370.392 467.699C371.68 468.21 373.094 468.308 374.44 467.981C375.786 467.654 376.998 466.918 377.908 465.874C379.013 464.606 379.601 462.97 379.555 461.289C379.509 459.608 378.832 458.006 377.659 456.802L366.584 445.433L359.893 421.601C345.525 428.704 336.103 427.114 334.246 412.234L325.189 424.585C323.439 426.979 322.599 429.918 322.82 432.875C323.041 435.832 324.309 438.613 326.396 440.72V440.72Z" fill="black"/>
<path d="M287.5 546.35L308.5 547.35L356.5 300.35L274 273.85C265.763 304.645 277.993 355.052 299.5 414.35L287.5 546.35Z" fill="#C6C6C6"/>
<path d="M449 138.85C467.225 138.85 482 124.075 482 105.85C482 87.6242 467.225 72.8496 449 72.8496C430.775 72.8496 416 87.6242 416 105.85C416 124.075 430.775 138.85 449 138.85Z" fill="#FFB9B9"/>
<path d="M388.5 146.35L409.5 161.35L441.5 129.35L425.5 109.35L388.5 146.35Z" fill="#FFB9B9"/>
<path d="M270.5 276.35C296.398 297.454 324.679 311.327 359.5 305.35C370.022 288.528 377.791 253.091 391 237.85C419.845 204.566 434.152 174.899 425 147.85C416.104 142.034 416.495 142.043 410 122.85C359.123 132.262 309.869 189.695 270.5 276.35Z" fill="#808080"/>
<path d="M287.163 566.93C302.111 573.999 319.367 576.66 337.745 577.179C339.129 577.216 340.491 576.824 341.644 576.055C342.796 575.286 343.681 574.179 344.178 572.886V572.886C344.781 571.316 344.772 569.577 344.152 568.014C343.532 566.451 342.347 565.179 340.831 564.45L326.529 557.57L312.068 537.48C301.008 549.081 291.613 550.82 284.764 537.48L280.494 552.189C279.671 555.037 279.89 558.086 281.112 560.788C282.335 563.49 284.48 565.667 287.163 566.93Z" fill="black"/>
<path d="M461.499 316.35L480.499 302.35L438.499 228.35L426.349 162.741C425.549 158.418 423.26 154.512 419.88 151.701C416.5 148.889 412.242 147.35 407.846 147.35V147.35C404.97 147.35 402.133 148.008 399.552 149.276C396.971 150.543 394.715 152.385 392.956 154.66C391.198 156.935 389.984 159.582 389.409 162.399C388.833 165.216 388.91 168.128 389.635 170.91L408.499 243.35L461.499 316.35Z" fill="#808080"/>
<path d="M366 467.85H355V527.85H366V467.85Z" fill="white"/>
<path d="M475.12 96.279C476.412 97.8276 478.069 99.0302 479.942 99.7786C481.815 100.527 483.844 100.797 485.848 100.566C489.82 99.9463 493.356 96.5578 493.61 92.5456C493.829 89.0808 491.793 85.9031 489.656 83.1672C484.94 77.134 479.341 71.8478 473.046 67.4875C470.044 65.4096 466.733 63.4966 463.089 63.2726C461.286 63.1618 459.479 63.4725 457.674 63.395C454.356 63.2524 451.246 61.8165 448.01 61.0728C444.686 60.3324 441.242 60.3145 437.91 61.0204C434.579 61.7262 431.438 63.1394 428.701 65.1642C426.875 66.5592 425.224 68.1687 423.782 69.9581C419.796 74.8334 417.123 80.6469 416.017 86.8463C414.277 96.6731 416.449 107.451 411.727 116.242C417.267 115.725 421.71 111.5 426.974 109.694C430.879 108.368 435.12 108.406 439.001 109.801C440.001 110.314 441.128 110.525 442.246 110.408C443.169 110.082 443.976 109.492 444.567 108.711L454.632 97.7593C456.681 95.5304 459.008 93.1557 462.019 92.8471C463.817 92.7849 465.605 93.1396 467.243 93.8833C471.279 95.4094 475.183 97.2643 478.915 99.4294" fill="black"/>
<path d="M456 324.85L453 326.85L473 346.85L485 335.85L465 319.85L456 324.85Z" fill="white"/>
<path d="M247.66 0H0V256.25H247.66V0Z" fill="#808080"/>
<path d="M234.441 13.6797H13.2207V242.57H234.441V13.6797Z" fill="white"/>
<path d="M56.2598 246.57H64.1388L64.0888 243.398L63.9538 236.362L62.7048 164.015L62.6878 163.677L62.0468 126.711L60.4778 36.8496H60.1238L58.4528 127.369L57.7948 163.694L57.7778 164.032L56.2598 246.57Z" fill="#808080"/>
<path d="M83.2918 233.291L80.3613 227.725L59.3334 238.795L62.2639 244.362L83.2918 233.291Z" fill="#808080"/>
<path d="M129 6.84961H119V248.85H129V6.84961Z" fill="#808080"/>
<path d="M247.66 122.85H0V132.85H247.66V122.85Z" fill="#808080"/>
</g>
<defs>
<clipPath id="clip0">
<rect width="770.301" height="650.85" fill="white"/>
</clipPath>
</defs>
</svg>
