<svg width="780" height="632" viewBox="0 0 780 632" fill="none" xmlns="http://www.w3.org/2000/svg">
<g clip-path="url(#clip0)">
<path opacity="0.1" d="M203.911 0.704108C276.669 10.6612 335.744 79.8996 401.297 123.107C415.903 132.736 431.214 141.215 447.4 143.725C501.022 152.048 550.467 94.3778 604.339 99.0865C648.002 102.903 685.03 149.146 700.74 203.539C716.45 257.931 714.04 318.769 705.317 375.868C691.657 465.036 661.396 552.758 608.72 610.756C600.028 620.33 590.32 629.286 579.155 631.46C560.551 635.129 543.3 619.368 527.2 606.337C454.535 547.501 362.672 532.562 281.543 566.383C254.067 577.834 227.788 594.542 199.67 602.786C145.524 618.633 84.2505 598.609 47.488 543.34C10.7255 488.072 4.7484 397.229 39.7741 339.974C54.3962 316.078 74.5494 299.207 89.8991 276.148C128.469 218.267 114.23 159.744 109.458 91.867C104.756 24.9829 161.406 -5.10748 203.911 0.704108Z" fill="#3785BA"/>
<path opacity="0.2" d="M534.639 426.287C534.639 426.287 556.161 447.805 544.027 479.733C531.893 511.662 564.853 564.756 564.853 564.756L563.844 564.592C519.641 556.77 497.681 506.249 522.262 468.705C531.384 454.774 538.887 438.395 534.639 426.287Z" fill="#1E4470"/>
<path opacity="0.1" d="M534.639 426.678C534.639 426.678 556.161 448.195 544.027 480.124C531.893 512.053 564.853 565.147 564.853 565.147L563.844 564.983C519.641 557.161 497.681 506.64 522.262 469.095C531.384 455.126 538.887 438.755 534.639 426.678Z" fill="black"/>
<path opacity="0.2" d="M534.639 426.287C534.639 426.287 546.789 452.662 534.639 474.18C522.489 495.698 532.558 556.082 564.838 564.756" stroke="#535461" stroke-miterlimit="10"/>
<path opacity="0.2" d="M496.312 513.343C496.312 513.343 520.87 509.432 523.108 531.435C525.345 553.438 570.33 556.465 570.33 556.465L569.485 557.028C532.34 581.408 496.837 572.554 502.204 540.188C504.183 528.181 504.019 516.089 496.312 513.343Z" fill="#1E4470"/>
<path opacity="0.2" d="M496.312 513.344C496.312 513.344 515.378 517.528 513.806 534.854C512.233 552.179 542.111 572.954 570.33 556.489" stroke="#535461" stroke-miterlimit="10"/>
<path opacity="0.2" d="M279.377 392.403C279.377 392.403 297.261 410.284 287.2 436.808C277.139 463.331 304.506 507.454 304.506 507.454L303.668 507.313C266.945 500.829 248.693 458.818 269.112 427.64C276.67 416.041 282.905 402.439 279.377 392.403Z" fill="#3785BA"/>
<path opacity="0.1" d="M279.377 392.7C279.377 392.7 297.261 410.581 287.2 437.104C277.139 463.628 304.506 507.751 304.506 507.751L303.629 507.633C266.906 501.149 248.654 459.138 269.073 427.961C276.67 416.338 282.905 402.736 279.377 392.7Z" fill="black"/>
<path opacity="0.2" d="M279.377 392.403C279.377 392.403 289.47 414.304 279.377 432.193C269.285 450.081 277.648 500.242 304.467 507.454" stroke="#535461" stroke-miterlimit="10"/>
<path opacity="0.2" d="M247.527 464.716C247.527 464.716 267.954 461.485 269.793 479.749C271.631 498.013 309.028 500.594 309.028 500.594L308.324 501.063C277.46 521.322 247.958 513.969 252.409 487.07C254.06 477.035 253.927 466.961 247.527 464.716Z" fill="#3785BA"/>
<path opacity="0.2" d="M247.527 464.716C247.527 464.716 263.362 468.189 262.063 482.589C260.765 496.988 285.581 514.251 309.004 500.579" stroke="#535461" stroke-miterlimit="10"/>
<path opacity="0.2" d="M204.271 279.77C204.271 279.77 222.156 297.65 212.095 324.174C202.034 350.697 229.4 394.82 229.4 394.82L228.563 394.679C191.84 388.195 173.587 346.184 194.007 315.007C201.564 303.407 207.8 289.805 204.271 279.77Z" fill="#3785BA"/>
<path opacity="0.1" d="M204.271 280.066C204.271 280.066 222.156 297.947 212.095 324.471C202.034 350.994 229.4 395.117 229.4 395.117L228.524 395C191.801 388.515 173.548 346.505 193.968 315.327C201.564 303.704 207.8 290.102 204.271 280.066Z" fill="black"/>
<path opacity="0.2" d="M204.272 279.77C204.272 279.77 214.364 301.671 204.272 319.559C194.18 337.447 202.543 387.608 229.362 394.82" stroke="#535461" stroke-miterlimit="10"/>
<path opacity="0.2" d="M172.422 352.082C172.422 352.082 192.849 348.851 194.687 367.115C196.526 385.379 233.922 387.96 233.922 387.96L233.218 388.43C202.354 408.688 172.852 401.336 177.304 374.437C178.954 364.401 178.821 354.327 172.422 352.082Z" fill="#3785BA"/>
<path opacity="0.2" d="M172.422 352.082C172.422 352.082 188.257 355.555 186.958 369.955C185.659 384.355 210.475 401.617 233.899 387.945" stroke="#535461" stroke-miterlimit="10"/>
<path d="M11.5479 463.346V452.685L230.05 391.417L269.128 386.975V396.744L51.518 474.884L11.5479 463.346Z" fill="#DFE5EE"/>
<path opacity="0.05" d="M11.5479 463.346V452.685L230.05 391.417L269.128 386.975V396.744L51.518 474.884L11.5479 463.346Z" fill="black"/>
<path d="M11.5479 452.686L230.05 380.757L268.244 386.975L51.518 464.231L11.5479 452.686Z" fill="#DFE5EE"/>
<path d="M59.5131 290.181H45.2979V455.353H59.5131V290.181Z" fill="#DFE5EE"/>
<path d="M230.049 251.994H215.834V396.744H230.049V251.994Z" fill="#DFE5EE"/>
<path d="M265.575 206.706V251.111L88.147 290.736L67.1567 295.429L15.0993 307.052L0 302.609V251.111L80.5113 235.764L100.547 231.947L246.924 204.047L265.575 206.706Z" fill="#DFE5EE"/>
<path opacity="0.05" d="M265.575 206.706V251.111L88.147 290.736L67.1567 295.429L15.0993 307.052L0 302.609V251.111L80.5113 235.764L100.547 231.947L246.924 204.047L265.575 206.706Z" fill="black"/>
<path opacity="0.05" d="M59.5131 290.181V298.91L45.2979 302.085V290.181H59.5131Z" fill="black"/>
<path opacity="0.05" d="M230.049 251.994V260.825L215.834 263.993V251.994H230.049Z" fill="black"/>
<path d="M265.576 206.706V251.11L193.537 267.2L172.586 271.877L88.1473 290.735L67.157 295.429L15.0996 307.052L15.9915 256.437L88.3351 242.021L108.574 237.993H108.582L191.284 221.513L211.484 217.484L265.576 206.706Z" fill="#DFE5EE"/>
<path d="M108.582 237.993L88.1466 290.736L67.1562 295.429L88.3344 242.022L80.5109 235.764L100.547 231.947L108.574 237.993H108.582Z" fill="#3785BA"/>
<path d="M212.501 218.251L193.537 267.2L172.586 271.877L192.254 222.28L191.284 221.513L184.431 216.022L204.467 212.205L211.484 217.485L212.493 218.251H212.501Z" fill="#3785BA"/>
<path opacity="0.05" d="M48.4111 452.467L62.6185 449.135V452.467L48.4111 455.799V452.467Z" fill="black"/>
<path opacity="0.05" d="M218.055 393.857L232.262 390.525V393.857L218.055 397.19V393.857Z" fill="black"/>
<path d="M516.138 272.597C493.489 284.525 470.042 271.033 470.042 271.033C469.675 271.722 469.254 272.381 468.783 273.004C468.493 272.785 468.196 272.558 467.899 272.315C458.166 264.361 447.393 245.581 447.393 245.581L426.403 206.229C423.832 201.5 421.893 196.453 420.637 191.219C417.179 176.217 406.14 175.576 406.14 175.576H393.208C386.949 175.576 377.905 176.89 368.955 178.704C369.193 178.46 369.349 178.149 369.401 177.813L368.971 177.899L373.775 173.206C373.775 173.206 387.52 167.636 389.14 155.708L396.416 148.551C396.416 148.551 396.65 147.926 396.979 146.823L399.396 143.78C409.927 130.6 410.686 130.381 410.686 130.381L442.613 111.492C442.613 111.492 454.075 109.865 449.295 77.8189C444.514 45.7731 447.73 41.8387 447.73 41.8387C447.73 41.8387 456.414 9.73032 439.766 13.7272C423.117 17.7242 430.643 45.1708 430.643 45.1708L431.801 51.2327C433.253 58.8243 433.173 66.6293 431.567 74.1896C429.838 82.3634 427.905 92.4613 428.39 94.8704C429.243 99.0707 419.628 104.39 419.628 104.39L414.191 107.565C408.434 110.925 401.654 112.081 395.109 110.819L394.82 110.381L391.565 107.941C391.468 108.275 391.39 108.614 391.33 108.957L390 107.941V108.019C390 107.737 390 107.471 390.063 107.174C390.445 104.166 391.151 101.208 392.168 98.3511C392.254 98.0852 392.363 97.8036 392.457 97.5689C398.539 97.2002 404.254 94.5355 408.446 90.1138C412.638 85.6921 414.993 79.8436 415.036 73.7516C415.037 71.2426 414.635 68.7497 413.846 66.3678C414.462 66.4822 415.093 66.4822 415.708 66.3678C418.634 65.8985 421.74 64.3968 423.258 61.8077C424.061 60.386 424.43 58.7606 424.32 57.1318C424.21 55.503 423.626 53.9419 422.64 52.6406C422.267 52.165 421.848 51.7274 421.388 51.3344C418.611 48.2057 413.964 47.4235 410.271 45.3194C406.758 43.3405 404.091 40.1805 400.82 37.8262C394.64 33.3599 386.738 32.0146 379.196 30.7866C375.957 30.2625 372.664 29.7384 369.409 30.1686C365.294 30.7162 361.507 32.7733 358.284 35.3467C357.141 36.1678 356.184 37.2205 355.476 38.4363C354.279 40.7828 354.803 43.5361 354.591 46.1329C354.075 52.4529 349.115 57.5996 343.639 60.9552C340.274 63.0123 336.597 64.6549 333.773 67.416C330.949 70.1771 329.283 74.5338 331.043 78.0223C331.974 79.8682 333.812 81.4091 333.828 83.4975C333.767 84.416 333.499 85.3089 333.046 86.11C331.166 90.0325 328.629 93.604 325.543 96.6694C314.121 93.9162 301.791 99.9702 301.791 99.9702L264.59 101.535C264.59 101.535 254.076 96.7633 240.338 126.189C226.6 155.614 221.733 157.21 221.733 157.21C221.733 157.21 196.698 179.479 212.838 185.048C228.978 190.617 237.873 163.569 237.873 163.569L246.831 146.924C246.831 146.924 267.047 127.831 268.666 123.858C270.286 119.884 279.987 119.884 279.987 119.884L319.425 121.449C319.477 121.767 319.508 122.089 319.519 122.411C319.613 126.822 315.474 130.233 311.312 131.867C308.683 132.916 305.679 133.706 304.075 136.005C302.472 138.305 302.855 141.645 304.466 143.991C304.958 144.692 305.533 145.331 306.18 145.892C307.871 147.635 309.936 148.973 312.22 149.803C314.113 150.557 316.083 151.103 318.095 151.43C317.277 154.806 316.164 158.103 314.77 161.285L316.335 161.958L315.818 163.334C313.612 169.193 309.067 180.754 305.045 187.746C305.006 187.746 297.738 193.91 292.098 199.479C287.787 203.718 277.397 244.532 307.799 245.268L314.739 250.383H314.88C321.052 259.097 341.432 273.41 341.432 273.41L305.39 275.538C303.592 275.647 301.802 275.864 300.031 276.187C299.441 276.291 298.852 276.409 298.262 276.539C291.91 277.931 284.877 277.439 281.106 276.993C278.61 272.3 267.023 274.208 267.023 274.208C267.023 274.208 265.404 298.073 267.806 311.589C270.208 325.105 279.126 316.36 279.126 316.36C277.507 304.432 290.861 295.656 290.861 295.656C292.559 294.803 294.57 293.771 296.932 292.527C304.427 288.506 340.079 294.654 351.102 296.688C353.529 297.14 355.995 297.349 358.464 297.314C390.063 296.798 381.856 281.389 381.856 281.389L375.496 268.874C374.452 266.793 373.523 264.657 372.711 262.476C367.093 247.614 358.362 239.433 351.673 235.052C352.033 234.599 352.393 234.145 352.745 233.668C352.745 233.668 352.213 233.543 351.407 233.3C357.056 230.414 360.795 228.107 360.795 228.107C360.795 228.107 397.996 205.838 396.384 211.407C394.773 216.976 404.474 238.447 422.264 253.559C422.781 253.997 423.282 254.443 423.782 254.896L424.267 255.342L425.261 256.281L425.801 256.805L426.724 257.728L427.24 258.26L428.218 259.308L428.609 259.73C429.053 260.22 429.491 260.716 429.924 261.216L430.205 261.553C430.539 261.949 430.87 262.345 431.199 262.742L431.645 263.297L432.427 264.298L432.881 264.885L433.663 265.909L434.07 266.449L434.978 267.708L435.197 268.006C435.567 268.527 435.929 269.048 436.284 269.57L436.55 269.969L437.332 271.15L437.661 271.658L438.357 272.753L438.662 273.238L439.39 274.435L439.601 274.779C440.232 275.822 440.832 276.865 441.401 277.908L441.495 278.08L442.238 279.425L442.355 279.644L443.067 280.99L443.114 281.084C445.119 284.912 446.914 288.847 448.489 292.871C447.58 293.09 446.657 293.247 445.727 293.34C440.876 314.819 453.817 314.819 453.817 314.819C453.817 314.819 501.54 307.662 519.33 289.367C537.121 271.072 516.138 272.597 516.138 272.597Z" fill="url(#paint0_linear)"/>
<path d="M343.06 231.916C343.06 231.916 362.728 237.016 372.539 263.375C373.326 265.508 374.227 267.596 375.238 269.633L381.395 281.975C381.395 281.975 389.336 297.126 358.769 297.619C356.381 297.653 353.996 297.446 351.65 297.001C340.987 295.007 306.501 288.96 299.233 292.91C295.171 295.211 290.993 297.299 286.715 299.168L278.109 289.782L281.239 277.267C281.239 277.267 291.574 279.207 300.5 277.212C302.768 276.701 305.073 276.371 307.393 276.226L342.277 274.154C342.277 274.154 314.895 254.599 314.895 247.56C314.895 240.52 343.06 231.916 343.06 231.916Z" fill="#F8BDC5"/>
<path opacity="0.05" d="M284.382 279.629C284.382 279.629 275.776 293.661 293.371 296.055C293.371 296.055 280.47 304.659 282.035 316.391C282.035 316.391 273.429 324.995 271.082 311.698C268.735 298.401 270.3 274.936 270.3 274.936C270.3 274.936 284.382 272.589 284.382 279.629Z" fill="black"/>
<path opacity="0.05" d="M343.06 231.916C343.06 231.916 362.728 237.016 372.539 263.375C373.326 265.508 374.227 267.596 375.238 269.633L381.395 281.975C381.395 281.975 389.336 297.126 358.769 297.619C356.381 297.653 353.996 297.446 351.65 297.001C340.987 295.007 306.501 288.96 299.233 292.91C295.171 295.211 290.993 297.299 286.715 299.168L278.109 289.782L281.239 277.267C281.239 277.267 291.574 279.207 300.5 277.212C302.768 276.701 305.073 276.371 307.393 276.226L342.277 274.154C342.277 274.154 314.895 254.599 314.895 247.56C314.895 240.52 343.06 231.916 343.06 231.916Z" fill="black"/>
<path opacity="0.05" d="M282.037 291.362L285.166 278.847C285.166 278.847 295.501 280.786 304.427 278.792C306.695 278.281 309 277.951 311.32 277.806L346.189 275.718C346.189 275.718 318.807 256.164 318.807 249.124C318.807 242.084 346.971 233.48 346.971 233.48L347.183 233.543C345.858 232.883 344.479 232.338 343.06 231.916C343.06 231.916 314.895 240.52 314.895 247.56C314.895 254.599 342.277 274.154 342.277 274.154L307.416 276.242C305.096 276.387 302.791 276.716 300.524 277.228C291.597 279.222 281.262 277.282 281.262 277.282L278.133 289.797L286.739 299.183C286.739 299.183 287.318 298.949 288.507 298.401L282.037 291.362Z" fill="black"/>
<path d="M284.382 279.629C284.382 279.629 275.776 293.661 293.371 296.055C293.371 296.055 280.47 304.659 282.035 316.391C282.035 316.391 273.429 324.995 271.082 311.698C268.735 298.401 270.3 274.936 270.3 274.936C270.3 274.936 284.382 272.589 284.382 279.629Z" fill="#1E4470"/>
<path d="M261.117 506.366V495.705L479.619 434.437L518.697 429.994V439.764L301.087 517.903L261.117 506.366Z" fill="#DFE5EE"/>
<path opacity="0.05" d="M261.117 506.366V495.705L479.619 434.437L518.697 429.994V439.764L301.087 517.903L261.117 506.366Z" fill="black"/>
<path d="M261.117 495.705L479.619 423.776L517.813 429.995L301.087 507.25L261.117 495.705Z" fill="#DFE5EE"/>
<path d="M309.082 333.2H294.867V498.373H309.082V333.2Z" fill="#DFE5EE"/>
<path d="M479.618 295.015H465.402V439.764H479.618V295.015Z" fill="#DFE5EE"/>
<path d="M515.144 249.726V294.13L337.715 333.755L316.725 338.448L264.668 350.071L249.568 345.629V294.13L330.072 278.784L350.116 274.967L496.493 247.066L515.144 249.726Z" fill="#DFE5EE"/>
<path opacity="0.05" d="M515.144 249.726V294.13L337.715 333.755L316.725 338.448L264.668 350.071L249.568 345.629V294.13L330.072 278.784L350.116 274.967L496.493 247.066L515.144 249.726Z" fill="black"/>
<path opacity="0.05" d="M309.082 333.2V341.929L294.867 345.105V333.2H309.082Z" fill="black"/>
<path opacity="0.05" d="M479.618 295.015V303.845L465.402 307.013V295.015H479.618Z" fill="black"/>
<path d="M515.144 249.727V294.131L443.106 310.22L422.154 314.898L337.716 333.756L316.725 338.449L264.668 350.072L265.56 299.457L337.903 285.042L358.143 281.014H358.151L440.852 264.533L461.053 260.505L515.144 249.727Z" fill="#DFE5EE"/>
<path d="M358.15 281.013L337.715 333.755L316.725 338.448L337.903 285.041L330.071 278.784L350.115 274.967L358.142 281.013H358.15Z" fill="#3785BA"/>
<path d="M462.07 261.271L443.106 310.22L422.154 314.897L441.822 265.299L440.852 264.533L433.999 259.042L454.035 255.225L461.053 260.504L462.062 261.271H462.07Z" fill="#3785BA"/>
<path opacity="0.05" d="M297.98 495.486L312.188 492.154V495.486L297.98 498.818V495.486Z" fill="black"/>
<path opacity="0.05" d="M467.625 436.878L481.832 433.546V436.878L467.625 440.202V436.878Z" fill="black"/>
<path d="M440.171 114.902L409.284 133.479C409.284 133.479 408.549 133.698 398.331 146.658L394.662 151.351C386.901 161.324 370.769 164.648 370.769 164.648L360.536 148.911L358.377 129.795L360.646 122.075L362.445 115.958L378.186 118.211L384.523 121.629L392.346 113.807C392.957 113.971 393.575 114.12 394.193 114.237C400.525 115.486 407.095 114.358 412.648 111.069L417.906 107.941C417.906 107.941 427.2 102.708 426.379 98.5544C425.909 96.2079 427.779 86.2586 429.453 78.2178C431.007 70.7807 431.084 63.1109 429.68 55.6441L428.561 49.6839C428.561 49.6839 421.293 22.6831 437.386 18.7722C453.479 14.8613 445.092 46.4144 445.092 46.4144C445.092 46.4144 442.01 50.2784 446.657 81.7923C451.304 113.306 440.171 114.902 440.171 114.902Z" fill="#F8BDC5"/>
<path d="M389.258 110.71C388.381 118.985 392.348 120.096 392.348 120.096L394.695 129.482V139.651L387.654 151.383H370.442L355.578 144.344V111.492L353.23 103.67C354.544 103.586 355.851 103.416 357.142 103.162C364.692 101.652 368.971 97.4599 371.381 92.9076C375.136 85.782 374.354 77.8272 374.354 77.8272C374.354 77.8272 405.648 69.2233 394.695 93.4708C393.24 96.7012 392.129 99.5405 391.292 102.075C390.311 104.873 389.629 107.768 389.258 110.71V110.71Z" fill="#F8BDC5"/>
<path d="M369.339 179.377C369.288 179.723 369.126 180.044 368.877 180.292C368.47 180.764 368.131 181.291 367.868 181.856C364.207 188.763 357.142 213.143 357.142 213.143L318.807 199.064L318.252 198.923L303.16 195.153C307.44 192.095 314.59 173.753 317.501 165.884C318.283 163.686 318.807 162.302 318.807 162.302L359.489 166.213C359.489 166.213 370.035 175.442 369.339 179.377Z" fill="#F8BDC5"/>
<path d="M353.23 101.292C353.23 101.292 341.495 105.985 329.76 101.292C318.025 96.5989 303.942 103.638 303.942 103.638L267.954 105.203C267.954 105.203 257.784 100.51 244.484 129.45C231.184 158.391 226.49 159.955 226.49 159.955C226.49 159.955 202.237 181.856 217.884 187.332C233.531 192.807 242.137 166.213 242.137 166.213L250.743 149.787C250.743 149.787 270.301 131.015 271.866 127.104C273.431 123.193 282.819 123.193 282.819 123.193L321.936 124.757L321.694 136.193L333.671 146.658L344.624 137.272L353.23 120.064V101.292Z" fill="#F8BDC5"/>
<path opacity="0.1" d="M394.695 93.4708C393.24 96.7012 392.129 99.5405 391.292 102.075C390.869 102.075 390.431 102.075 390.001 102.075C386.397 102.079 382.841 101.25 379.61 99.6549C376.379 98.0594 373.56 95.7397 371.373 92.8763C375.136 85.782 374.354 77.8272 374.354 77.8272C374.354 77.8272 405.648 69.2233 394.695 93.4708Z" fill="black"/>
<path d="M390 101.292C402.962 101.292 413.47 90.7862 413.47 77.8267C413.47 64.8671 402.962 54.3613 390 54.3613C377.037 54.3613 366.529 64.8671 366.529 77.8267C366.529 90.7862 377.037 101.292 390 101.292Z" fill="#F8BDC5"/>
<path opacity="0.1" d="M369.338 179.377C369.287 179.723 369.125 180.044 368.877 180.292C368.47 180.764 368.13 181.291 367.868 181.856C353.95 181.246 323.493 168.473 317.5 165.915C318.282 163.717 318.807 162.333 318.807 162.333L359.489 166.244C359.489 166.244 370.035 175.442 369.338 179.377Z" fill="black"/>
<path opacity="0.1" d="M398.363 146.658L394.693 151.352C386.933 161.324 370.801 164.649 370.801 164.649L360.567 148.911L358.408 129.795L359.097 111.069C361.279 121.238 367.382 142.45 376.699 144.312C392.276 147.441 391.157 125.125 390.391 115.762C390.274 114.317 390.406 112.861 390.782 111.46L393.911 113.807L394.193 114.237C401.649 125.813 399.974 139.595 398.363 146.658Z" fill="black"/>
<path d="M357.141 99.7275H349.318C349.318 99.7275 357.141 149.787 320.371 135.708C320.371 135.708 323.5 147.44 316.459 163.866C316.459 163.866 354.012 180.292 368.876 180.292L373.57 175.599C373.57 175.599 386.87 170.124 388.435 158.391L395.476 151.351C395.476 151.351 403.299 130.232 392.347 113.807L389.217 111.46C388.841 112.861 388.709 114.316 388.826 115.762C389.608 125.148 390.712 147.425 375.135 144.312C355.576 140.401 357.141 99.7275 357.141 99.7275Z" fill="#1E4470"/>
<path d="M303.941 242.084L316.459 251.471C316.459 251.471 336.8 257.728 353.229 235.045C353.229 235.045 343.059 232.698 344.623 227.223C346.188 221.748 303.941 242.084 303.941 242.084Z" fill="#1E4470"/>
<path opacity="0.05" d="M303.941 242.084L316.459 251.471C316.459 251.471 336.8 257.728 353.229 235.045C353.229 235.045 343.059 232.698 344.623 227.223C346.188 221.748 303.941 242.084 303.941 242.084Z" fill="black"/>
<path opacity="0.1" d="M369.339 180.159C369.288 180.506 369.126 180.827 368.878 181.074C365.748 184.203 357.142 213.926 357.142 213.926L318.807 199.847L318.252 199.706C321.222 197.829 324.366 196.242 327.64 194.966C330.308 193.933 332.991 192.838 335.315 191.79C337.198 190.985 339.007 190.016 340.721 188.896C343.999 186.55 356.587 182.795 369.339 180.159Z" fill="black"/>
<path d="M458.065 291.361L446.33 294.49C446.33 294.49 446.064 293.708 445.547 292.347C443.044 285.98 434.704 266.84 420.512 254.599C403.3 239.737 393.912 218.619 395.477 213.143C397.042 207.668 361.054 229.569 361.054 229.569C361.054 229.569 334.962 245.799 317.72 245.823C315.143 245.896 312.581 245.421 310.201 244.43C303.551 241.435 300.86 236.186 299.96 231.133C299.428 227.935 299.57 224.661 300.379 221.521C301.187 218.381 302.643 215.445 304.654 212.901C310.616 205.196 318.569 199.265 327.655 195.748C330.323 194.715 333.007 193.62 335.33 192.572C337.213 191.767 339.022 190.798 340.736 189.678C346.213 185.767 377.507 177.945 392.371 177.945H404.889C404.889 177.945 415.56 178.571 418.908 193.323C420.115 198.454 421.982 203.408 424.463 208.059L444.765 246.777C444.765 246.777 455.186 265.244 464.597 273.066C467.281 275.303 469.886 276.672 472.147 276.5C482.318 275.718 458.065 291.361 458.065 291.361Z" fill="#F8BDC5"/>
<path opacity="0.1" d="M421.42 66.1092C422.196 64.7085 422.552 63.1142 422.447 61.5165C422.341 59.9188 421.778 58.3852 420.825 57.0985C418.196 53.6804 413.448 52.8982 409.7 50.7551C406.297 48.8074 403.723 45.7022 400.562 43.387C394.585 38.9989 386.965 37.6692 379.65 36.4725C376.521 35.9563 373.329 35.44 370.184 35.8702C366.202 36.4099 362.54 38.4358 359.419 40.9622C358.311 41.7725 357.386 42.8065 356.704 43.997C355.546 46.281 356.055 49.0186 355.851 51.5685C355.35 57.7869 350.547 62.8475 345.25 66.1405C341.996 68.1664 338.413 69.7776 335.706 72.4918C332.999 75.206 331.364 79.4923 333.069 82.9182C333.977 84.7329 335.753 86.2503 335.76 88.284C335.709 89.1856 335.458 90.0646 335.025 90.8574C333.172 94.7971 330.647 98.3837 327.562 101.456C324.792 104.209 321.483 106.681 320.043 110.318C318.658 113.814 319.261 117.803 320.536 121.347C321.131 123.036 321.874 124.726 321.905 126.509C321.991 130.85 317.993 134.182 313.964 135.809C311.422 136.834 308.488 137.616 306.962 139.876C305.437 142.137 305.781 145.422 307.338 147.698C308.895 149.974 311.406 151.5 313.988 152.54C318.781 154.558 324.093 154.991 329.15 153.776C331.658 153.149 334.008 152.006 336.049 150.419C338.09 148.833 339.777 146.838 341.002 144.562C343.349 139.994 343.506 134.393 346.76 130.404C352.495 123.435 364.59 125.195 370.575 118.429C375.379 112.993 374.072 104.757 373.704 97.5137C373.492 93.4787 373.659 89.4326 374.205 85.429C374.596 82.5819 375.316 79.5236 377.553 77.7246C379.361 76.2697 381.802 75.9412 384.102 75.6596C388.905 75.0573 394.437 73.8919 396.619 69.5665C397.527 67.7674 397.801 65.4991 399.436 64.3259C401.697 62.6989 404.865 64.3259 406.837 66.2813C409.012 68.4479 410.834 71.1152 414.144 70.5755C416.952 70.1374 419.957 68.6591 421.42 66.1092Z" fill="black"/>
<path d="M420.574 65.2645C421.349 63.8631 421.704 62.2684 421.597 60.6707C421.49 59.073 420.926 57.5397 419.972 56.2538C417.343 52.8357 412.594 52.0535 408.847 49.9103C405.443 47.9627 402.869 44.8575 399.709 42.5422C393.732 38.1542 386.112 36.8245 378.797 35.6278C375.667 35.1115 372.475 34.5953 369.33 35.0255C365.348 35.5652 361.687 37.591 358.565 40.1175C357.458 40.9278 356.533 41.9617 355.85 43.1523C354.693 45.4363 355.201 48.1739 354.998 50.7238C354.497 56.9421 349.693 62.0028 344.397 65.2958C341.142 67.3216 337.559 68.9329 334.852 71.6471C332.145 74.3612 330.51 78.6476 332.216 82.0735C333.123 83.8882 334.899 85.4056 334.907 87.4392C334.855 88.3409 334.604 89.2198 334.172 90.0126C332.319 93.9524 329.793 97.539 326.708 100.611C323.938 103.364 320.629 105.836 319.19 109.473C317.805 112.97 318.407 116.959 319.683 120.502C320.277 122.191 321.02 123.881 321.052 125.664C321.138 130.005 317.14 133.337 313.111 134.964C310.568 135.989 307.634 136.771 306.109 139.032C304.583 141.292 304.927 144.577 306.484 146.853C308.041 149.13 310.553 150.655 313.134 151.695C317.927 153.713 323.24 154.147 328.296 152.931C330.804 152.305 333.154 151.161 335.195 149.575C337.236 147.988 338.923 145.993 340.149 143.717C342.496 139.149 342.652 133.549 345.907 129.56C351.641 122.59 363.736 124.35 369.721 117.584C374.525 112.148 373.219 103.912 372.851 96.669C372.638 92.6339 372.806 88.5879 373.351 84.5843C373.743 81.7372 374.462 78.6788 376.7 76.8798C378.507 75.425 380.948 75.0965 383.248 74.8149C388.052 74.2126 393.583 73.0472 395.766 68.7217C396.673 66.9227 396.947 64.6544 398.582 63.4811C400.843 61.8542 404.012 63.4811 405.983 65.4366C408.158 67.6032 409.981 70.2704 413.29 69.7307C416.099 69.2849 419.111 67.8066 420.574 65.2645Z" fill="#6E464E"/>
<path opacity="0.1" d="M339.539 158C339.539 158 348.145 165.04 359.098 164.257Z" fill="black"/>
<path opacity="0.05" d="M474.041 276.64C469.55 281.052 459.63 287.45 459.63 287.45L447.895 290.579C447.895 290.579 439.289 265.549 422.077 250.688C404.865 235.826 395.477 214.708 397.042 209.232C398.607 203.757 362.619 225.658 362.619 225.658C362.619 225.658 336.527 241.888 319.284 241.912C316.708 241.985 314.145 241.51 311.766 240.519C305.116 237.524 302.425 232.275 301.525 227.222C300.918 223.75 301.138 220.183 302.167 216.812C299.895 221.219 299.121 226.246 299.96 231.133C300.86 236.186 303.551 241.435 310.201 244.43C312.581 245.421 315.143 245.896 317.72 245.823C334.931 245.823 361.054 229.569 361.054 229.569C361.054 229.569 397.042 207.668 395.477 213.143C393.913 218.618 403.301 239.737 420.512 254.599C437.724 269.46 446.33 294.49 446.33 294.49L458.065 291.361C458.065 291.361 478.32 278.291 474.041 276.64Z" fill="black"/>
<path opacity="0.1" d="M336.019 192.807L334.689 193.425C324.98 197.882 317.027 205.437 312.079 214.903C301.595 235.303 315.451 244.493 317.72 245.823C315.143 245.896 312.581 245.421 310.201 244.431C303.551 241.435 300.86 236.187 299.96 231.134C299.428 227.935 299.57 224.661 300.379 221.521C301.187 218.381 302.643 215.445 304.654 212.901C310.616 205.196 318.569 199.265 327.655 195.748C330.323 194.715 333.007 193.62 335.33 192.572L336.019 192.807Z" fill="black"/>
<path d="M334.453 192.807C334.453 192.807 318.024 186.972 307.071 189.889C307.071 189.889 300.03 195.935 294.553 201.411C290.094 205.869 278.906 251.47 316.459 245.995C316.459 245.995 299.122 237.062 310.513 214.903C315.461 205.437 323.414 197.882 333.123 193.425L334.453 192.807Z" fill="#1E4470"/>
<path opacity="0.1" d="M458.064 291.362L446.329 294.49C446.329 294.49 446.063 293.708 445.547 292.347C448.277 291.628 451.806 290.001 451.806 286.668C451.806 286.668 460.763 278.307 464.597 273.066C467.28 275.303 469.886 276.672 472.147 276.5C482.317 275.718 458.064 291.362 458.064 291.362Z" fill="black"/>
<path d="M452.588 287.45C452.588 287.45 464.323 276.5 466.67 271.807C466.67 271.807 489.358 285.104 511.264 273.371C511.264 273.371 531.605 271.807 514.393 289.797C497.182 307.787 451.023 314.826 451.023 314.826C451.023 314.826 438.506 314.826 443.2 293.708C443.2 293.708 452.588 292.925 452.588 287.45Z" fill="#1E4470"/>
<path d="M522.42 561.119V550.458L740.922 489.19L780 484.747V494.516L562.39 572.656L522.42 561.119Z" fill="#DFE5EE"/>
<path opacity="0.05" d="M522.42 561.119V550.458L740.922 489.19L780 484.747V494.516L562.39 572.656L522.42 561.119Z" fill="black"/>
<path d="M522.42 550.458L740.922 478.529L779.116 484.748L562.39 562.003L522.42 550.458Z" fill="#DFE5EE"/>
<path d="M570.385 387.952H556.17V553.125H570.385V387.952Z" fill="#DFE5EE"/>
<path d="M740.922 349.767H726.707V494.517H740.922V349.767Z" fill="#DFE5EE"/>
<path d="M776.449 304.479V348.883L599.02 388.508L578.03 393.201L525.972 404.824L510.873 400.382V348.883L591.377 333.537L611.42 329.72L757.797 301.819L776.449 304.479Z" fill="#DFE5EE"/>
<path opacity="0.05" d="M776.449 304.479V348.883L599.02 388.508L578.03 393.201L525.972 404.824L510.873 400.382V348.883L591.377 333.537L611.42 329.72L757.797 301.819L776.449 304.479Z" fill="black"/>
<path opacity="0.05" d="M570.385 387.952V396.681L556.17 399.857V387.952H570.385Z" fill="black"/>
<path opacity="0.05" d="M740.922 349.767V358.597L726.707 361.765V349.767H740.922Z" fill="black"/>
<path d="M776.449 304.479V348.883L704.41 364.972L683.459 369.65L599.02 388.508L578.03 393.201L525.973 404.824L526.865 354.209L599.208 339.794L619.448 335.766H619.455L702.157 319.285L722.357 315.257L776.449 304.479Z" fill="#DFE5EE"/>
<path d="M619.455 335.766L599.02 388.508L578.029 393.201L599.207 339.794L591.376 333.537L611.42 329.72L619.447 335.766H619.455Z" fill="#3785BA"/>
<path d="M723.374 316.024L704.41 364.972L683.459 369.65L703.127 320.052L702.157 319.285L695.304 313.795L715.34 309.978L722.357 315.257L723.366 316.024H723.374Z" fill="#3785BA"/>
<path opacity="0.05" d="M559.283 550.239L573.491 546.907V550.239L559.283 553.571V550.239Z" fill="black"/>
<path opacity="0.05" d="M728.928 491.63L743.135 488.298V491.63L728.928 494.954V491.63Z" fill="black"/>
</g>
<defs>
<linearGradient id="paint0_linear" x1="366.968" y1="319.129" x2="366.968" y2="13.3518" gradientUnits="userSpaceOnUse">
<stop stop-color="#808080" stop-opacity="0.25"/>
<stop offset="0.54" stop-color="#808080" stop-opacity="0.12"/>
<stop offset="1" stop-color="#808080" stop-opacity="0.1"/>
</linearGradient>
<clipPath id="clip0">
<rect width="780" height="632" fill="white"/>
</clipPath>
</defs>
</svg>
