<svg width="690" height="577" viewBox="0 0 690 577" fill="none" xmlns="http://www.w3.org/2000/svg">
<path d="M556.632 563.421L92 141.531L164.656 0L675.519 559.956L556.632 563.421Z" fill="#3785BA" fill-opacity="0.42"/>
<path d="M345 119.373C360.525 119.373 373.111 106.783 373.111 91.2512C373.111 75.7197 360.525 63.1289 345 63.1289C329.474 63.1289 316.889 75.7197 316.889 91.2512C316.889 106.783 329.474 119.373 345 119.373Z" fill="#3785BA" fill-opacity="0.42"/>
<path d="M468.519 158.574C473.694 158.574 477.889 154.377 477.889 149.2C477.889 144.023 473.694 139.826 468.519 139.826C463.344 139.826 459.148 144.023 459.148 149.2C459.148 154.377 463.344 158.574 468.519 158.574Z" fill="#3785BA"/>
<path d="M468.519 232.715C473.694 232.715 477.889 228.518 477.889 223.341C477.889 218.164 473.694 213.967 468.519 213.967C463.344 213.967 459.148 218.164 459.148 223.341C459.148 228.518 463.344 232.715 468.519 232.715Z" fill="#3785BA"/>
<path d="M562.222 251.463C567.397 251.463 571.592 247.266 571.592 242.089C571.592 236.912 567.397 232.715 562.222 232.715C557.047 232.715 552.852 236.912 552.852 242.089C552.852 247.266 557.047 251.463 562.222 251.463Z" fill="#3785BA"/>
<path d="M345 577C535.538 577 690 569.369 690 559.956C690 550.543 535.538 542.912 345 542.912C154.462 542.912 0 550.543 0 559.956C0 569.369 154.462 577 345 577Z" fill="#3785BA" fill-opacity="0.42"/>
<path d="M546.817 283.128C542.904 276.671 529.235 276.838 529.235 276.838C516.79 295.335 486.876 275.687 486.876 275.687C464.658 285.631 451.102 253.941 451.102 253.941C421.206 249.469 425.824 218.059 425.824 218.059C410.951 215.071 415.124 188.169 415.124 188.169C415.124 188.169 423.377 181.397 419.316 176.443C416.734 173.294 416.573 164.255 416.799 158.085C397.39 152.18 377.212 149.186 356.925 149.201C243.543 149.201 151.629 241.152 151.629 354.579C151.629 468.006 243.543 559.957 356.925 559.957C470.307 559.957 562.222 468.006 562.222 354.579C562.246 329.937 557.827 305.493 549.178 282.42C548.124 283.61 547.307 283.937 546.817 283.128Z" fill="#3785BA"/>
<path opacity="0.1" d="M546.817 283.128C542.904 276.671 529.235 276.838 529.235 276.838C516.79 295.335 486.876 275.687 486.876 275.687C464.658 285.631 451.102 253.941 451.102 253.941C421.206 249.469 425.824 218.059 425.824 218.059C410.951 215.071 415.124 188.169 415.124 188.169C415.124 188.169 423.377 181.397 419.316 176.443C416.734 173.294 416.573 164.255 416.799 158.085C397.39 152.18 377.212 149.186 356.925 149.201C243.543 149.201 151.629 241.152 151.629 354.579C151.629 468.006 243.543 559.957 356.925 559.957C470.307 559.957 562.222 468.006 562.222 354.579C562.246 329.937 557.827 305.493 549.178 282.42C548.124 283.61 547.307 283.937 546.817 283.128Z" fill="black"/>
<path d="M534.651 282.316C530.93 276.176 517.931 276.334 517.931 276.334C506.095 293.926 477.645 275.239 477.645 275.239C456.515 284.696 443.622 254.558 443.622 254.558C415.189 250.305 419.582 220.432 419.582 220.432C405.436 217.591 409.405 192.005 409.405 192.005C409.405 192.005 417.254 185.565 413.392 180.854C410.936 177.859 410.784 169.262 410.998 163.394C392.539 157.778 373.349 154.931 354.055 154.945C246.224 154.945 158.809 242.395 158.809 350.27C158.809 458.144 246.224 545.594 354.055 545.594C461.887 545.594 549.302 458.144 549.302 350.27C549.326 326.834 545.123 303.586 536.897 281.643C535.895 282.775 535.118 283.086 534.651 282.316Z" fill="#3785BA"/>
<path d="M330.741 270.414C330.741 270.414 297.072 248.98 264.933 270.414C253.684 277.916 248.06 288.607 245.501 299.335C240.951 318.409 245.941 338.518 258.108 353.893L330.815 445.77C333.308 448.971 336.652 451.405 340.463 452.795C344.274 454.184 348.399 454.472 352.366 453.627C352.524 453.592 352.682 453.555 352.841 453.516C355.714 452.809 358.412 451.521 360.769 449.731C363.125 447.941 365.09 445.687 366.543 443.109L417.108 354.277C426.463 338.1 430.297 319.315 428.031 300.764C425.66 282.495 416.891 263.238 391.958 256.635C391.958 256.635 362.88 244.387 330.741 270.414Z" fill="#1E4470"/>
<path opacity="0.1" d="M330.741 270.414C330.741 270.414 297.072 248.98 264.933 270.414C253.684 277.916 248.06 288.607 245.501 299.335C240.951 318.409 245.941 338.518 258.108 353.893L330.815 445.77C333.308 448.971 336.652 451.405 340.463 452.795C344.274 454.184 348.399 454.472 352.366 453.627C352.524 453.592 352.682 453.555 352.841 453.516C355.714 452.809 358.412 451.521 360.769 449.731C363.125 447.941 365.09 445.687 366.543 443.109L417.108 354.277C426.463 338.1 430.297 319.315 428.031 300.764C425.66 282.495 416.891 263.238 391.958 256.635C391.958 256.635 362.88 244.387 330.741 270.414Z" fill="black"/>
<path d="M331.084 275.588C331.084 275.588 299.5 255.481 269.351 275.588C258.799 282.625 253.523 292.654 251.123 302.717C246.854 320.61 251.535 339.474 262.949 353.897L331.153 440.083C333.492 443.086 336.628 445.37 340.203 446.673C343.778 447.976 347.648 448.247 351.37 447.453C351.517 447.42 351.666 447.386 351.815 447.35C354.511 446.687 357.041 445.478 359.252 443.799C361.462 442.12 363.306 440.006 364.669 437.587L412.102 354.257C420.877 339.081 424.474 321.46 422.349 304.058C420.124 286.92 411.898 268.856 388.509 262.662C388.509 262.662 361.232 251.172 331.084 275.588Z" fill="#1E4470"/>
<path opacity="0.1" d="M332.314 310.064C332.314 310.064 316.947 300.281 302.279 310.064C297.725 313.147 294.545 317.88 293.411 323.263C292.429 327.579 292.436 332.061 293.433 336.373C294.429 340.686 296.389 344.717 299.164 348.163C299.164 348.163 338.505 394.505 342.183 393.681C342.255 393.665 342.328 393.648 342.4 393.631C345.051 392.994 371.731 348.338 371.731 348.338C376.001 340.955 377.751 332.382 376.717 323.915C375.634 315.577 371.632 306.788 360.253 303.775C360.253 303.775 346.982 298.185 332.314 310.064Z" fill="black"/>
<path opacity="0.1" d="M236.332 383.303L240.639 390.484L249.252 404.846L252.124 414.899L246.381 423.517L253.559 440.751L256.431 450.805L250.688 456.549L262.173 465.167" fill="black"/>
<path opacity="0.1" d="M447.372 320.109V331.599L440.194 350.27L435.887 360.323L443.065 373.249L445.937 381.867L457.422 386.175L461.729 393.357V410.591" fill="black"/>
<path opacity="0.1" d="M520.589 331.6L509.104 338.781C509.104 338.781 503.361 341.653 503.361 343.089V354.579" fill="black"/>
<path opacity="0.1" d="M468.906 291.385L471.777 305.747L468.906 315.801" fill="black"/>
<path opacity="0.1" d="M480.392 420.645L471.778 433.57L461.729 442.187V447.932L467.471 455.113V463.73L463.164 472.348" fill="black"/>
<path opacity="0.1" d="M398.56 176.488H384.203L372.718 186.542L354.055 196.595L345.441 203.776V206.649L326.777 216.702L321.035 226.756" fill="black"/>
<path opacity="0.1" d="M243.511 200.904L230.59 226.756L226.283 236.81L216.234 249.735C216.234 249.735 209.056 262.661 207.62 264.097C206.184 265.534 196.135 268.406 196.135 268.406L210.491 282.768" fill="black"/>
<path opacity="0.1" d="M186.085 300.002L183.213 318.673L186.085 330.163V350.269L177.471 387.611L186.085 397.664L196.134 410.59" fill="black"/>
<path opacity="0.1" d="M207.619 308.619L216.233 312.928L221.975 331.598L233.461 328.726L239.203 338.78" fill="black"/>
<path opacity="0.1" d="M365.539 495.326L388.509 492.454L398.559 482.4H412.915" fill="black"/>
<path opacity="0.1" d="M226.283 465.166L234.897 475.219L249.253 479.528L259.304 482.401L262.174 498.199" fill="black"/>
<path opacity="0.1" d="M395.688 416.337L405.738 409.155L410.045 397.665L418.659 396.229L422.965 381.867" fill="black"/>
<path d="M137.862 55.459H161.899C169.489 55.459 176.767 58.475 182.134 63.8436C187.5 69.2122 190.515 76.4937 190.515 84.086V136.76H109.246V84.086C109.246 80.3267 109.986 76.6041 111.424 73.1309C112.862 69.6577 114.97 66.5019 117.627 63.8437C120.285 61.1854 123.439 59.0767 126.911 57.6381C130.383 56.1994 134.104 55.459 137.862 55.459V55.459Z" fill="#2F2E41"/>
<path d="M162.539 507.189C162.539 507.189 159.984 523.381 155.725 525.938C151.465 528.494 177.873 534.46 177.873 534.46L182.132 508.894L162.539 507.189Z" fill="#FBBEBE"/>
<path d="M194.058 322.266L203.428 333.344L199.169 371.693L195.762 447.538C195.762 447.538 202.577 513.156 195.762 514.861C188.947 516.565 158.28 515.713 159.132 511.452C159.984 507.191 160.836 503.782 162.539 497.817C164.243 491.851 160.836 470.547 160.836 470.547L165.095 446.685L149.762 343.57L194.058 322.266Z" fill="white"/>
<path d="M163.392 523.381C163.392 523.381 154.022 521.676 153.17 523.381C152.318 525.085 136.133 542.981 133.577 542.981C131.022 542.981 112.281 560.025 131.873 560.877C151.466 561.729 183.836 546.39 183.836 546.39C183.836 546.39 179.073 524.704 179.325 525.747C179.577 526.789 163.392 527.641 163.392 523.381Z" fill="white"/>
<path d="M153.17 484.18C153.17 484.18 177.022 510.598 177.874 513.154C178.725 515.711 191.503 513.154 191.503 513.154L196.614 496.111L192.355 490.145L168.503 470.545L153.17 484.18Z" fill="#FBBEBE"/>
<path d="M187.244 503.78L174.893 515.411C174.893 515.411 190.652 539.572 190.652 542.129C190.652 544.685 191.504 565.99 200.022 562.581C208.541 559.173 209.393 525.085 209.393 525.085C209.393 525.085 208.541 490.145 203.43 487.589C198.319 485.032 187.116 485.84 187.116 485.84C187.116 485.84 194.059 502.928 187.244 503.78Z" fill="white"/>
<path d="M116.54 246.419C116.54 246.419 112.281 260.054 111.429 263.463C110.577 266.871 105.466 276.245 105.466 290.733C105.466 305.22 107.17 322.264 105.466 323.968C103.762 325.672 76.503 421.118 88.4289 431.344C100.355 441.57 139.54 475.658 142.096 479.919C144.651 484.18 145.503 494.406 150.614 492.702C155.725 490.997 175.318 473.953 176.17 470.545C177.021 467.136 165.096 461.171 165.096 461.171C165.096 461.171 141.244 426.231 135.281 427.083C129.318 427.935 130.17 422.822 131.021 420.265C131.873 417.709 133.577 416.005 131.021 416.005C128.466 416.005 130.17 409.187 131.021 405.778C131.873 402.369 151.466 356.351 151.466 356.351L203.429 333.342C203.429 333.342 200.873 271.132 182.133 254.088L177.873 243.862C177.873 243.862 130.17 240.453 116.54 246.419Z" fill="white"/>
<path d="M137.837 111.773C137.837 111.773 142.096 141.6 131.874 143.304C121.651 145.009 113.133 144.157 113.133 145.009C113.133 145.861 138.688 172.279 138.688 172.279L162.54 170.575L183.836 147.565C183.836 147.565 164.244 144.157 164.244 132.226C164.244 120.295 163.392 111.773 163.392 111.773H137.837Z" fill="#FBBEBE"/>
<path opacity="0.1" d="M137.837 111.773C137.837 111.773 142.096 141.6 131.874 143.304C121.651 145.009 113.133 144.157 113.133 145.009C113.133 145.861 138.688 172.279 138.688 172.279L162.54 170.575L183.836 147.565C183.836 147.565 164.244 144.157 164.244 132.226C164.244 120.295 163.392 111.773 163.392 111.773H137.837Z" fill="black"/>
<path d="M151.04 124.131C165.625 124.131 177.448 112.303 177.448 97.7128C177.448 83.1226 165.625 71.2949 151.04 71.2949C136.456 71.2949 124.633 83.1226 124.633 97.7128C124.633 112.303 136.456 124.131 151.04 124.131Z" fill="#FBBEBE"/>
<path d="M127.615 140.748C127.615 140.748 94.3923 145.009 91.8367 156.087C89.2812 167.166 108.874 236.193 111.429 242.159C113.985 248.124 113.133 252.385 113.133 252.385C116.987 249.501 121.415 247.477 126.117 246.448C130.819 245.419 135.686 245.409 140.392 246.42C156.577 249.828 179.577 248.124 179.577 248.124C179.577 248.124 187.244 216.593 188.948 213.184C190.652 209.775 197.466 191.027 197.466 185.914C197.466 180.801 207.689 159.496 207.689 159.496C207.689 159.496 202.577 144.157 183.837 145.009C183.837 145.009 175.662 141.349 173.361 144.031C171.059 146.713 158.281 158.644 142.096 153.531C125.911 148.418 127.615 140.748 127.615 140.748Z" fill="#55A9E2"/>
<path d="M101.206 155.236H91.8357L86.7246 222.559C86.7246 222.559 105.465 227.672 108.021 224.264C110.576 220.855 101.206 155.236 101.206 155.236Z" fill="#55A9E2"/>
<path d="M191.502 155.236L207.687 159.497C207.687 159.497 219.613 202.959 220.465 203.811C221.317 204.663 222.169 209.776 222.169 209.776C222.169 209.776 222.169 210.629 223.872 213.185C225.576 215.742 228.132 214.037 226.428 217.446C224.724 220.855 222.169 219.151 223.872 222.559C225.576 225.968 224.724 235.342 224.724 235.342C224.724 235.342 220.465 219.151 205.132 223.412L194.909 177.393L191.502 155.236Z" fill="#55A9E2"/>
<path d="M171.657 91.287H130.625L121.336 69.9277H178.625L171.657 91.287Z" fill="#2F2E41"/>
<path d="M125.243 106.917C126.339 106.6 126.541 103.972 125.694 101.048C124.847 98.124 123.272 96.0113 122.176 96.329C121.08 96.6467 120.878 99.2746 121.725 102.198C122.572 105.122 124.147 107.235 125.243 106.917Z" fill="#FFB9B9"/>
<path d="M180.754 102.198C181.601 99.2743 181.399 96.6465 180.303 96.3288C179.207 96.011 177.632 98.1237 176.785 101.048C175.939 103.972 176.14 106.599 177.236 106.917C178.332 107.235 179.908 105.122 180.754 102.198Z" fill="#FFB9B9"/>
<path d="M173.779 214.819C182.247 214.819 189.112 207.952 189.112 199.48C189.112 191.008 182.247 184.141 173.779 184.141C165.31 184.141 158.445 191.008 158.445 199.48C158.445 207.952 165.31 214.819 173.779 214.819Z" fill="#3785BA"/>
<path opacity="0.1" d="M173.779 214.819C182.247 214.819 189.112 207.952 189.112 199.48C189.112 191.008 182.247 184.141 173.779 184.141C165.31 184.141 158.445 191.008 158.445 199.48C158.445 207.952 165.31 214.819 173.779 214.819Z" fill="black"/>
<path d="M173.778 213.298C181.406 213.298 187.59 207.112 187.59 199.48C187.59 191.849 181.406 185.662 173.778 185.662C166.149 185.662 159.965 191.849 159.965 199.48C159.965 207.112 166.149 213.298 173.778 213.298Z" fill="#3785BA"/>
<path opacity="0.1" d="M173.169 191.669C173.169 191.669 169.65 189.429 166.29 191.669C165.247 192.375 164.519 193.459 164.259 194.692C164.034 195.68 164.036 196.707 164.264 197.694C164.492 198.682 164.941 199.605 165.577 200.395L173.177 209.998C173.437 210.333 173.787 210.587 174.185 210.732C174.584 210.878 175.015 210.908 175.429 210.819L175.479 210.808C175.779 210.734 176.061 210.599 176.308 210.412C176.554 210.225 176.759 209.99 176.911 209.72L182.197 200.435C183.174 198.744 183.575 196.78 183.338 194.841C183.284 193.771 182.889 192.745 182.21 191.915C181.532 191.086 180.606 190.495 179.568 190.229C179.568 190.229 176.528 188.948 173.169 191.669Z" fill="black"/>
<path d="M173.204 192.21C173.204 192.21 169.903 190.108 166.752 192.21C165.773 192.872 165.09 193.889 164.846 195.045C164.636 195.972 164.637 196.935 164.851 197.862C165.065 198.788 165.486 199.654 166.083 200.395L173.212 209.404C173.456 209.717 173.784 209.956 174.158 210.092C174.531 210.229 174.936 210.257 175.325 210.174L175.371 210.163C175.653 210.094 175.918 209.967 176.149 209.792C176.38 209.616 176.573 209.396 176.715 209.143L181.673 200.433C182.59 198.846 182.966 197.004 182.744 195.185C182.693 194.181 182.322 193.219 181.686 192.441C181.049 191.662 180.181 191.108 179.207 190.859C179.207 190.859 176.356 189.658 173.204 192.21Z" fill="#1E4470"/>
<path opacity="0.1" d="M173.332 195.814C172.859 195.527 172.316 195.375 171.763 195.375C171.209 195.375 170.666 195.527 170.193 195.814C169.717 196.136 169.384 196.631 169.266 197.193C169.163 197.645 169.164 198.113 169.268 198.564C169.372 199.015 169.577 199.436 169.867 199.796C169.867 199.796 173.979 204.64 174.364 204.554L174.387 204.549C174.664 204.482 177.452 199.814 177.452 199.814C177.899 199.043 178.082 198.147 177.973 197.262C177.949 196.773 177.768 196.305 177.459 195.926C177.149 195.548 176.726 195.278 176.253 195.156C175.751 194.999 175.217 194.977 174.704 195.092C174.191 195.208 173.718 195.457 173.332 195.814V195.814Z" fill="black"/>
<path d="M160.148 223.341C168.616 223.341 175.481 216.473 175.481 208.002C175.481 199.53 168.616 192.662 160.148 192.662C151.679 192.662 144.814 199.53 144.814 208.002C144.814 216.473 151.679 223.341 160.148 223.341Z" fill="#3785BA"/>
<path opacity="0.1" d="M160.148 223.341C168.616 223.341 175.481 216.473 175.481 208.002C175.481 199.53 168.616 192.662 160.148 192.662C151.679 192.662 144.814 199.53 144.814 208.002C144.814 216.473 151.679 223.341 160.148 223.341Z" fill="black"/>
<path d="M160.149 221.82C167.777 221.82 173.961 215.633 173.961 208.002C173.961 200.37 167.777 194.184 160.149 194.184C152.52 194.184 146.336 200.37 146.336 208.002C146.336 215.633 152.52 221.82 160.149 221.82Z" fill="#3785BA"/>
<path opacity="0.1" d="M159.538 200.19C159.538 200.19 156.019 197.95 152.659 200.19C151.616 200.897 150.888 201.98 150.628 203.213C150.403 204.202 150.405 205.228 150.633 206.216C150.862 207.204 151.31 208.127 151.946 208.916L159.546 218.52C159.806 218.854 160.156 219.109 160.554 219.254C160.953 219.399 161.384 219.429 161.798 219.341L161.848 219.329C162.148 219.255 162.43 219.121 162.677 218.934C162.923 218.747 163.129 218.511 163.28 218.241L168.566 208.956C169.543 207.265 169.944 205.302 169.707 203.363C169.653 202.292 169.258 201.267 168.579 200.437C167.901 199.607 166.975 199.016 165.937 198.75C165.937 198.75 162.897 197.47 159.538 200.19Z" fill="black"/>
<path d="M159.576 200.731C159.576 200.731 156.274 198.629 153.123 200.731C152.144 201.393 151.461 202.41 151.218 203.567C151.007 204.494 151.008 205.457 151.222 206.383C151.436 207.31 151.857 208.176 152.454 208.916L159.583 217.925C159.827 218.239 160.155 218.478 160.529 218.614C160.902 218.75 161.307 218.778 161.696 218.695L161.743 218.685C162.024 218.615 162.289 218.489 162.52 218.313C162.751 218.138 162.944 217.917 163.086 217.664L168.044 208.954C168.961 207.368 169.337 205.526 169.115 203.707C169.064 202.703 168.693 201.741 168.057 200.962C167.42 200.184 166.552 199.629 165.578 199.38C165.578 199.38 162.727 198.179 159.576 200.731Z" fill="#1E4470"/>
<path opacity="0.1" d="M159.703 204.335C159.23 204.048 158.687 203.897 158.134 203.897C157.58 203.897 157.037 204.048 156.564 204.335C156.088 204.658 155.756 205.152 155.637 205.715C155.534 206.166 155.535 206.635 155.639 207.085C155.743 207.536 155.948 207.957 156.238 208.318C156.238 208.318 160.35 213.162 160.735 213.075L160.758 213.07C161.035 213.004 163.823 208.336 163.823 208.336C164.27 207.564 164.453 206.668 164.345 205.783C164.32 205.294 164.139 204.827 163.83 204.448C163.52 204.069 163.097 203.799 162.624 203.678C162.122 203.521 161.588 203.498 161.075 203.614C160.562 203.729 160.089 203.978 159.703 204.335V204.335Z" fill="black"/>
<path d="M148.455 169.651C148.082 169.035 146.777 169.051 146.777 169.051C145.59 170.817 142.735 168.941 142.735 168.941C140.614 169.89 139.32 166.866 139.32 166.866C136.467 166.439 136.908 163.442 136.908 163.442C135.489 163.156 135.887 160.589 135.887 160.589C135.887 160.589 136.675 159.943 136.287 159.47C136.056 158.917 135.973 158.313 136.047 157.718C131.819 156.431 127.28 156.612 123.168 158.233C119.056 159.853 115.613 162.818 113.399 166.645C111.185 170.471 110.331 174.935 110.974 179.309C111.618 183.683 113.722 187.711 116.944 190.737C120.166 193.763 124.316 195.61 128.721 195.977C133.125 196.344 137.524 195.209 141.202 192.758C144.88 190.306 147.62 186.682 148.978 182.475C150.336 178.267 150.231 173.724 148.68 169.584C148.58 169.697 148.502 169.729 148.455 169.651Z" fill="#3785BA"/>
<path opacity="0.1" d="M148.455 169.651C148.082 169.035 146.777 169.051 146.777 169.051C145.59 170.817 142.735 168.941 142.735 168.941C140.614 169.89 139.32 166.866 139.32 166.866C136.467 166.439 136.908 163.442 136.908 163.442C135.489 163.156 135.887 160.589 135.887 160.589C135.887 160.589 136.675 159.943 136.287 159.47C136.056 158.917 135.973 158.313 136.047 157.718C131.819 156.431 127.28 156.612 123.168 158.233C119.056 159.853 115.613 162.818 113.399 166.645C111.185 170.471 110.331 174.935 110.974 179.309C111.618 183.683 113.722 187.711 116.944 190.737C120.166 193.763 124.316 195.61 128.721 195.977C133.125 196.344 137.524 195.209 141.202 192.758C144.88 190.306 147.62 186.682 148.978 182.475C150.336 178.267 150.231 173.724 148.68 169.584C148.58 169.697 148.502 169.729 148.455 169.651Z" fill="black"/>
<path d="M147.294 169.575C146.939 168.989 145.698 169.004 145.698 169.004C144.568 170.683 141.853 168.899 141.853 168.899C139.837 169.802 138.606 166.926 138.606 166.926C135.893 166.52 136.312 163.669 136.312 163.669C134.962 163.398 135.341 160.956 135.341 160.956C135.341 160.956 136.09 160.341 135.721 159.891C135.501 159.365 135.423 158.791 135.493 158.225C131.472 157.001 127.155 157.173 123.244 158.715C119.334 160.256 116.06 163.076 113.954 166.715C111.849 170.354 111.036 174.599 111.648 178.759C112.26 182.919 114.261 186.75 117.325 189.628C120.389 192.506 124.337 194.262 128.525 194.611C132.714 194.96 136.897 193.881 140.395 191.55C143.893 189.218 146.5 185.772 147.791 181.77C149.083 177.769 148.983 173.448 147.508 169.51C147.412 169.618 147.338 169.648 147.294 169.575Z" fill="#3785BA"/>
<path d="M127.835 168.439C127.835 168.439 124.621 166.394 121.554 168.439C120.602 169.084 119.937 170.074 119.7 171.199C119.494 172.102 119.496 173.039 119.704 173.941C119.913 174.843 120.322 175.686 120.903 176.406L127.842 185.175C128.08 185.48 128.399 185.712 128.762 185.845C129.126 185.978 129.52 186.005 129.898 185.924L129.944 185.914C130.218 185.846 130.476 185.723 130.7 185.553C130.925 185.382 131.113 185.167 131.251 184.921L136.077 176.443C136.97 174.899 137.336 173.106 137.12 171.336C137.07 170.358 136.709 169.422 136.09 168.664C135.47 167.907 134.625 167.367 133.677 167.124C133.677 167.124 130.902 165.955 127.835 168.439Z" fill="#1E4470"/>
<path opacity="0.1" d="M127.835 168.439C127.835 168.439 124.621 166.394 121.554 168.439C120.602 169.084 119.937 170.074 119.7 171.199C119.494 172.102 119.496 173.039 119.704 173.941C119.913 174.843 120.322 175.686 120.903 176.406L127.842 185.175C128.08 185.48 128.399 185.712 128.762 185.845C129.126 185.978 129.52 186.005 129.898 185.924L129.944 185.914C130.218 185.846 130.476 185.723 130.7 185.553C130.925 185.382 131.113 185.167 131.251 184.921L136.077 176.443C136.97 174.899 137.336 173.106 137.12 171.336C137.07 170.358 136.709 169.422 136.09 168.664C135.47 167.907 134.625 167.367 133.677 167.124C133.677 167.124 130.902 165.955 127.835 168.439Z" fill="black"/>
<path d="M127.866 168.933C127.866 168.933 124.852 167.014 121.975 168.933C121.081 169.538 120.458 170.466 120.235 171.522C120.043 172.368 120.044 173.248 120.239 174.094C120.435 174.939 120.819 175.73 121.364 176.406L127.873 184.632C128.096 184.918 128.395 185.136 128.737 185.26C129.078 185.385 129.447 185.411 129.802 185.335L129.845 185.325C130.102 185.262 130.344 185.146 130.555 184.986C130.766 184.826 130.942 184.624 131.072 184.393L135.598 176.441C136.436 174.992 136.779 173.311 136.576 171.65C136.53 170.733 136.191 169.855 135.61 169.144C135.029 168.433 134.236 167.927 133.347 167.699C133.347 167.699 130.744 166.603 127.866 168.933Z" fill="#1E4470"/>
<path opacity="0.1" d="M127.984 172.223C127.551 171.961 127.056 171.823 126.551 171.823C126.045 171.823 125.55 171.961 125.117 172.223C124.683 172.518 124.379 172.969 124.271 173.483C124.177 173.895 124.178 174.323 124.273 174.734C124.368 175.146 124.555 175.53 124.82 175.859C124.82 175.859 128.575 180.282 128.926 180.203L128.946 180.199C129.954 178.807 130.888 177.365 131.745 175.876C132.153 175.171 132.32 174.353 132.221 173.545C132.199 173.099 132.034 172.672 131.751 172.326C131.468 171.98 131.083 171.734 130.65 171.623C130.192 171.479 129.704 171.459 129.236 171.565C128.768 171.67 128.336 171.897 127.984 172.223Z" fill="black"/>
<path opacity="0.1" d="M118.824 179.213L119.235 179.898L120.057 181.268L120.331 182.228L119.783 183.05L120.468 184.695L120.742 185.655L120.194 186.203L121.29 187.026" fill="black"/>
<path opacity="0.1" d="M138.965 173.182V174.278L138.281 176.06L137.869 177.019L138.554 178.253L138.828 179.075L139.925 179.486L140.335 180.172V181.817" fill="black"/>
<path opacity="0.1" d="M145.953 174.277L144.857 174.963C144.857 174.963 144.309 175.237 144.309 175.374V176.47" fill="black"/>
<path opacity="0.1" d="M141.02 170.439L141.294 171.81L141.02 172.769" fill="black"/>
<path opacity="0.1" d="M142.117 182.775L141.295 184.009L140.336 184.831V185.38L140.885 186.065V186.887L140.473 187.71" fill="black"/>
<path opacity="0.1" d="M134.307 159.475H132.937L131.84 160.434L130.059 161.394L129.237 162.079V162.353L127.456 163.312L126.908 164.272" fill="black"/>
<path opacity="0.1" d="M119.51 161.805L118.277 164.272L117.865 165.231L116.906 166.465C116.906 166.465 116.221 167.699 116.084 167.836C115.734 168.01 115.367 168.148 114.988 168.247L116.358 169.617" fill="black"/>
<path opacity="0.1" d="M114.029 171.262L113.755 173.044L114.029 174.14V176.06L113.207 179.623L114.029 180.582L114.988 181.816" fill="black"/>
<path opacity="0.1" d="M116.084 172.084L116.906 172.496L117.454 174.278L118.55 174.003L119.098 174.963" fill="black"/>
<path opacity="0.1" d="M131.156 189.903L133.348 189.629L134.307 188.67H135.678" fill="black"/>
<path opacity="0.1" d="M117.865 187.025L118.687 187.985L120.057 188.396L121.016 188.67L121.291 190.178" fill="black"/>
<path opacity="0.1" d="M134.033 182.364L134.992 181.678L135.403 180.582L136.225 180.445L136.636 179.074" fill="black"/>
<path d="M89.2812 215.741L86.7256 222.558C86.7256 222.558 85.0219 244.715 95.2441 243.863C105.466 243.011 111.429 230.228 111.429 230.228C111.429 230.228 105.466 214.037 98.6515 215.741C91.8367 217.445 89.2812 215.741 89.2812 215.741Z" fill="#55A9E2"/>
<path d="M97.7985 220.002C97.7985 220.002 92.6874 235.341 98.6504 235.341C104.613 235.341 115.687 225.967 116.539 218.298C117.391 210.628 132.724 181.653 121.65 184.21C110.576 186.767 105.465 208.071 105.465 208.071L97.7985 220.002Z" fill="#FBBEBE"/>
<path d="M219.614 220.855L224.936 229.752C224.936 229.752 227.281 246.42 215.355 246.42C203.429 246.42 186.392 230.229 186.392 230.229C186.392 230.229 177.874 226.82 172.762 227.672C167.651 228.524 139.54 227.672 151.466 213.185C163.392 198.698 183.836 213.185 183.836 213.185L205.133 223.411L216.207 217.446L219.614 220.855Z" fill="#FBBEBE"/>
<path d="M212.374 209.349L203.855 222.984C203.855 222.984 223.448 225.541 225.152 229.801C226.855 234.062 217.485 207.645 217.485 207.645L212.374 209.349Z" fill="#55A9E2"/>
</svg>
