<svg width="728" height="495" viewBox="0 0 728 495" fill="none" xmlns="http://www.w3.org/2000/svg">
<path d="M328.825 45.5198C335.696 45.958 343.182 45.4943 351.146 45.5198V27.3379C343.742 28.3721 336.229 28.3721 328.825 27.3379V45.5198Z" fill="#3785BA"/>
<path d="M289.618 41.5605H589.982V49.9265H289.618V41.5605Z" fill="#3785BA"/>
<path d="M339.958 34.0311C330.691 34.0311 323.178 26.54 323.178 17.2992C323.178 8.05849 330.691 0.567383 339.958 0.567383C349.226 0.567383 356.738 8.05849 356.738 17.2992C356.738 26.54 349.226 34.0311 339.958 34.0311Z" fill="#3785BA"/>
<path d="M339.961 30.685C332.547 30.685 326.537 24.6922 326.537 17.2996C326.537 9.90695 332.547 3.91406 339.961 3.91406C347.375 3.91406 353.385 9.90695 353.385 17.2996C353.385 24.6922 347.375 30.685 339.961 30.685Z" fill="#CCCCCC"/>
<path d="M339.96 20.6449C338.107 20.6449 336.604 19.1467 336.604 17.2985C336.604 15.4504 338.107 13.9521 339.96 13.9521C341.814 13.9521 343.316 15.4504 343.316 17.2985C343.316 19.1467 341.814 20.6449 339.96 20.6449Z" fill="#3785BA"/>
<path d="M328.213 18.1351V16.4619H341.637V18.1351H328.213Z" fill="#3785BA"/>
<path d="M340.799 18.9717H339.121V5.5862H340.799V18.9717Z" fill="#3785BA"/>
<path d="M535.985 0.748047H547.088V44.5695H535.985V0.748047Z" fill="#3785BA"/>
<path d="M535.985 7.66797H547.088V12.742H535.985V7.66797Z" fill="#1E4470"/>
<path d="M535.985 29.8076H547.088V34.8817H535.985V29.8076Z" fill="#1E4470"/>
<path d="M553.104 0.748047H564.207V44.5695H553.104V0.748047Z" fill="#3785BA"/>
<path d="M553.104 7.66797H564.207V12.742H553.104V7.66797Z" fill="#1E4470"/>
<path d="M553.104 29.8076H564.207V34.8817H553.104V29.8076Z" fill="#1E4470"/>
<path d="M526.421 0.567529L536.371 5.47949L516.872 44.7514L506.922 39.8394L526.421 0.567529Z" fill="#3785BA"/>
<path d="M523.341 6.76872L533.291 11.6807L531.033 16.2279L521.083 11.316L523.341 6.76872Z" fill="#1E4470"/>
<path d="M513.49 26.6105L523.439 31.5225L521.182 36.0697L511.232 31.1578L513.49 26.6105Z" fill="#1E4470"/>
<path d="M431.95 0.748047H443.053V44.5695H431.95V0.748047Z" fill="#3785BA"/>
<path d="M431.95 7.66797H443.053V12.742H431.95V7.66797Z" fill="#1E4470"/>
<path d="M431.95 29.8076H443.053V34.8817H431.95V29.8076Z" fill="#1E4470"/>
<path d="M449.067 0.748047H460.17V44.5695H449.067V0.748047Z" fill="#3785BA"/>
<path d="M449.067 7.66797H460.17V12.742H449.067V7.66797Z" fill="#1E4470"/>
<path d="M449.067 29.8076H460.17V34.8817H449.067V29.8076Z" fill="#1E4470"/>
<path d="M422.384 0.567543L432.334 5.47949L412.835 44.7514L402.885 39.8394L422.384 0.567543Z" fill="#3785BA"/>
<path d="M419.306 6.76871L429.256 11.6807L426.998 16.2279L417.048 11.316L419.306 6.76871Z" fill="#1E4470"/>
<path d="M409.452 26.6105L419.402 31.5225L417.145 36.0697L407.194 31.1578L409.452 26.6105Z" fill="#1E4470"/>
<path d="M669.091 181.856L666.232 177.45C667.08 175.115 668.059 172.83 669.165 170.605L671.014 172.093L669.55 169.838C670.945 167.1 672.043 165.375 672.043 165.375C672.043 165.375 677.776 174.384 679.691 183.922L676.023 189.575L680.084 186.304C680.228 187.415 680.303 188.534 680.307 189.654C680.307 200.951 676.607 210.108 672.043 210.108C667.478 210.108 663.778 200.951 663.778 189.654C663.864 186.061 664.502 182.501 665.669 179.1L669.091 181.856Z" fill="#3785BA"/>
<path d="M648.856 191.65L643.711 190.55C642.654 188.301 641.726 185.995 640.93 183.642L643.293 183.391L640.658 182.828C639.703 179.909 639.256 177.915 639.256 177.915C639.256 177.915 649.698 180.243 657.816 185.637L659.231 192.22L659.784 187.044C660.674 187.728 661.52 188.467 662.317 189.256C670.328 197.244 674.206 206.328 670.978 209.546C667.751 212.764 658.641 208.898 650.63 200.91C648.142 198.308 646.068 195.342 644.482 192.114L648.856 191.65Z" fill="#3785BA"/>
<path d="M646.977 235.361C658.909 236.122 671.91 235.316 685.74 235.361V203.786C673.553 205.678 660.557 205.484 646.977 203.786V235.361Z" fill="#1E4470"/>
<path d="M154.118 245.271H315.207V453.582H154.118V245.271Z" fill="#3785BA"/>
<path d="M643.26 256.146H651.65V453.581H643.26V256.146Z" fill="#3785BA"/>
<path d="M154.119 231.048H728V247.78H154.119V231.048Z" fill="#3785BA"/>
<path d="M639.066 247.78H655.846V264.512H639.066V247.78Z" fill="#3785BA"/>
<path d="M221.974 257.4L222.918 261.166H246.411L247.826 257.4H307.658V295.884H161.671V257.4H221.974Z" fill="white"/>
<path d="M221.974 305.924L222.918 309.688H246.411L247.826 305.924H307.658V344.407H161.671V305.924H221.974Z" fill="white"/>
<path d="M221.974 354.445L222.918 358.21H246.411L247.826 354.445H307.658V392.928H161.671V354.445H221.974Z" fill="white"/>
<path d="M221.974 402.969L222.918 406.733H246.411L247.826 402.969H307.658V441.452H161.671V402.969H221.974Z" fill="white"/>
<path d="M416.727 228.538H466.229L464.551 206.787H418.405L416.727 228.538Z" fill="#3785BA"/>
<path d="M413.374 226.029H468.748V231.049H413.374V226.029Z" fill="#3785BA"/>
<path d="M346.67 66.6582H535.866C537.201 66.6582 538.482 67.187 539.426 68.1284C540.37 69.0697 540.9 70.3465 540.9 71.6778V186.709H341.636V71.6778C341.636 70.3465 342.166 69.0697 343.111 68.1284C344.055 67.187 345.335 66.6582 346.67 66.6582Z" fill="#1E4470"/>
<path d="M540.9 186.709V205.532C540.9 206.864 540.37 208.14 539.426 209.082C538.482 210.023 537.201 210.552 535.866 210.552H346.67C345.335 210.552 344.055 210.023 343.111 209.082C342.166 208.14 341.636 206.864 341.636 205.532V186.709H540.9Z" fill="#3785BA"/>
<path d="M351.284 77.1152H530.832V177.506H351.284V77.1152Z" fill="white"/>
<path d="M441.06 203.44C438.279 203.44 436.026 201.193 436.026 198.421C436.026 195.649 438.279 193.401 441.06 193.401C443.84 193.401 446.094 195.649 446.094 198.421C446.094 201.193 443.84 203.44 441.06 203.44Z" fill="#1E4470"/>
<path d="M424.196 105.453H472.607V108.224H424.196V105.453Z" fill="#1E4470"/>
<path d="M397.85 115.561H472.607V118.332H397.85V115.561Z" fill="#3785BA"/>
<path d="M411.681 125.084H472.607V127.855H411.681V125.084Z" fill="#3785BA"/>
<path d="M437.04 134.571H472.607V137.342H437.04V134.571Z" fill="#1E4470"/>
<path d="M418.927 144.059H472.607V146.83H418.927V144.059Z" fill="#1E4470"/>
<path d="M488.746 104.469H494.674V110.38H488.746V104.469Z" fill="#1E4470"/>
<path d="M488.746 113.992H494.674V119.903H488.746V113.992Z" fill="#3785BA"/>
<path d="M488.746 123.514H494.674V129.425H488.746V123.514Z" fill="#3785BA"/>
<path d="M488.746 133.037H494.674V138.948H488.746V133.037Z" fill="#1E4470"/>
<path d="M488.746 142.561H494.674V148.471H488.746V142.561Z" fill="#1E4470"/>
<path d="M359.604 100.207H385.008C386.742 90.2134 386.742 79.9974 385.008 70.0039H359.604C362.466 79.8693 362.466 90.3415 359.604 100.207Z" fill="#3785BA"/>
<path d="M544.455 160.743L554.907 158.203C558.895 158.208 562.835 157.329 566.44 155.629C570.046 153.929 573.228 151.452 575.755 148.375C578.282 145.299 580.092 141.701 581.054 137.841C582.016 133.982 582.105 129.958 581.315 126.06V126.06C581.326 116.759 577.632 107.835 571.045 101.25C564.458 94.6649 555.517 90.959 546.189 90.9473H546.189C536.862 90.9356 527.912 94.6191 521.308 101.187C514.704 107.756 510.987 116.671 510.976 125.972V125.972C505.05 146.534 523.609 165.81 544.455 160.743Z" fill="#2F2E41"/>
<path d="M533.039 164.408C518.767 164.408 507.197 152.871 507.197 138.64C507.197 124.41 518.767 112.873 533.039 112.873C547.311 112.873 558.881 124.41 558.881 138.64C558.881 152.871 547.311 164.408 533.039 164.408Z" fill="#FFB8B8"/>
<path d="M549.892 152.084C549.892 152.084 557.757 178.972 562.251 181.212C566.745 183.453 526.297 186.814 526.297 186.814C526.297 186.814 527.421 161.047 525.174 158.806C522.927 156.565 549.892 152.084 549.892 152.084Z" fill="#FFB8B8"/>
<path d="M509.445 317.892C509.445 317.892 458.885 313.41 452.143 330.215C445.402 347.02 456.638 446.729 456.638 446.729H477.985V364.945C477.985 364.945 569.008 339.147 569.008 330.184C569.008 321.221 509.445 317.892 509.445 317.892Z" fill="#2F2E41"/>
<path d="M460.01 442.248L448.774 446.729C448.774 446.729 435.291 445.609 440.909 455.692C442.517 458.619 444.767 461.146 447.49 463.086C450.214 465.026 453.341 466.328 456.639 466.895C456.639 466.895 477.986 474.737 479.11 466.895C480.234 459.053 473.492 443.368 473.492 443.368L460.01 442.248Z" fill="#2F2E41"/>
<path d="M537.533 317.893C537.533 317.893 486.973 313.412 480.232 330.217C473.491 347.021 484.726 446.73 484.726 446.73H506.074V364.946C506.074 364.946 570.686 350.024 570.686 341.061C570.686 336.85 575.088 315.452 567.329 310.944C558.573 305.855 537.533 317.893 537.533 317.893Z" fill="#2F2E41"/>
<path d="M488.099 442.248L476.864 446.729C476.864 446.729 463.381 445.609 468.999 455.692C470.607 458.619 472.856 461.146 475.58 463.086C478.303 465.026 481.431 466.328 484.729 466.895C484.729 466.895 506.076 474.737 507.2 466.895C508.323 459.053 501.582 443.368 501.582 443.368L488.099 442.248Z" fill="#2F2E41"/>
<path d="M561.131 177.853L527.366 181.512C522.154 182.077 517.255 184.269 513.368 187.776C509.481 191.282 506.805 195.924 505.722 201.038L492.594 262.997C492.594 262.997 488.1 324.615 497.088 327.976C506.076 331.337 518.436 314.532 535.289 316.772C552.142 319.013 574.052 324.055 574.052 324.055C574.052 324.055 577.531 213.761 577.984 204.74C578.89 186.706 561.131 177.853 561.131 177.853Z" fill="#1E4470"/>
<path d="M481.147 321.094L467.285 329.234C467.285 329.234 442.416 325.676 443.193 334.391C443.969 343.107 471.115 341.423 471.115 341.423L487.82 331.159L481.147 321.094Z" fill="#FFB8B8"/>
<path d="M583.198 117.684C573.979 117.684 566.505 110.232 566.505 101.039C566.505 91.8466 573.979 84.3945 583.198 84.3945C592.417 84.3945 599.891 91.8466 599.891 101.039C599.891 110.232 592.417 117.684 583.198 117.684Z" fill="#2F2E41"/>
<path d="M567.796 92.0918C567.798 89.6296 568.348 87.1986 569.406 84.9741C570.464 82.7496 572.005 80.7871 573.916 79.228C575.827 77.669 578.061 76.5524 580.458 75.9588C582.854 75.3651 585.353 75.3092 587.773 75.7951C585.638 74.7887 583.312 74.246 580.95 74.203C578.588 74.1599 576.244 74.6174 574.073 75.5453C571.901 76.4731 569.952 77.8501 568.355 79.5852C566.757 81.3203 565.547 83.3739 564.805 85.6101C564.063 87.8463 563.805 90.2142 564.049 92.5571C564.293 94.9 565.034 97.1644 566.221 99.2007C567.409 101.237 569.017 102.998 570.938 104.369C572.859 105.739 575.051 106.687 577.367 107.15C574.503 105.805 572.082 103.674 570.387 101.008C568.692 98.3411 567.793 95.2487 567.796 92.0918V92.0918Z" fill="#2F2E41"/>
<path d="M553.478 101.531L530.973 97.3994L513.667 108.215C509.412 110.874 506.011 114.694 503.867 119.222C501.724 123.75 500.928 128.796 501.573 133.762L518.907 129.381L522.788 119.677L527.411 127.232L551.58 158.246L565.15 149.63L577.248 130.726L553.478 101.531Z" fill="#2F2E41"/>
<path d="M534.943 187.382L523.708 181.78C523.708 181.78 500.113 185.141 495.619 200.826C491.125 216.51 470.901 325.181 470.901 325.181L490.001 334.144L516.966 268.045L534.943 187.382Z" fill="#1E4470"/>
<path opacity="0.2" d="M525.379 231.467L514.134 274.989L494.193 323.869L494.884 325.562L518.667 275.806L525.379 231.467Z" fill="black"/>
<path d="M609.284 471.487L613.25 470.125L574.834 356.346L569.28 358.253L609.284 471.487Z" fill="#1E4470"/>
<path d="M462.45 471.487L458.484 470.125L496.901 356.346L502.453 358.253L462.45 471.487Z" fill="#1E4470"/>
<path d="M543.625 494.986L539.43 495L538.127 361.995L544 361.975L543.625 494.986Z" fill="#1E4470"/>
<path d="M618.992 289.492L607.485 335.865C605.873 342.359 602.518 348.293 597.78 353.029C593.041 357.766 587.098 361.125 580.589 362.748H580.589C548.498 370.748 514.899 370.532 482.914 362.12L465.734 357.602C455.751 354.977 448.244 346.428 447.534 336.158C447.246 332.528 447.906 328.885 449.448 325.583C449.515 325.441 449.583 325.3 449.65 325.161C451.891 320.571 455.347 316.681 459.646 313.909C463.944 311.138 468.921 309.591 474.038 309.437L492.237 308.852L558.519 279.571C558.519 279.571 581.315 268.025 600.055 266.733C612.431 265.879 621.971 277.484 618.992 289.492Z" fill="#3785BA"/>
<path d="M214.946 143.624H280.389V232.303H214.946V143.624Z" fill="#3785BA"/>
<path d="M222.497 153.856H272.838V222.071H222.497V153.856Z" fill="white"/>
<path d="M228.635 171.707H253.025V174.478H228.635V171.707Z" fill="#1E4470"/>
<path d="M260.773 170.174H266.701V176.085H260.773V170.174Z" fill="#1E4470"/>
<path d="M228.635 183.419H253.025V186.19H228.635V183.419Z" fill="#1E4470"/>
<path d="M260.773 181.886H266.701V187.797H260.773V181.886Z" fill="#1E4470"/>
<path d="M228.635 195.133H253.025V197.904H228.635V195.133Z" fill="#1E4470"/>
<path d="M260.773 193.598H266.701V199.509H260.773V193.598Z" fill="#1E4470"/>
<path d="M245.152 148.644C245.152 147.257 246.278 146.134 247.669 146.134C249.059 146.134 250.186 147.257 250.186 148.644C250.186 150.03 249.059 151.153 247.669 151.153C246.278 151.153 245.152 150.03 245.152 148.644Z" fill="#1E4470"/>
</svg>
