<svg width="893" height="580" viewBox="0 0 893 580" fill="none" xmlns="http://www.w3.org/2000/svg">
<g clip-path="url(#clip0)">
<path d="M683.656 548.527L730.113 479.44L683.751 555.96L683.848 563.734C680.456 563.76 677.097 563.703 673.772 563.565L676.076 463.634L676.013 462.863L676.098 462.714L676.318 453.271L625.441 379.404L676.258 446.204L676.438 448.2L678.179 372.699L634.235 296.115L678.304 359.435L677.844 203.016L677.845 202.495L677.86 203.007L680.777 326.287L720.827 276.211L680.908 336.907L681.782 404.441L718.636 338.53L681.918 414.37L682.404 451.922L736 360.109L682.567 465.023L683.656 548.527Z" fill="#1E4470"/>
<path d="M840.005 550.704L886.463 481.617L840.1 558.137L840.197 565.911C836.806 565.937 833.447 565.88 830.121 565.741L832.425 465.811L832.362 465.04L832.447 464.891L832.668 455.448L781.791 381.581L832.608 448.381L832.788 450.377L834.529 374.875L790.585 298.292L834.654 361.612L834.194 205.193L834.195 204.672L834.21 205.184L837.127 328.463L877.176 278.387L837.258 339.084L838.132 406.618L874.986 340.707L838.267 416.547L838.754 454.099L892.349 362.286L838.917 467.199L840.005 550.704Z" fill="#1E4470"/>
<path d="M430.008 0H152V376.039H430.008V0Z" fill="#1E4470" fill-opacity="0.6"/>
<path d="M420.212 13.251H161.797V362.789H420.212V13.251Z" fill="white"/>
<path opacity="0.6" d="M386.244 74.5584H196.59C195.054 74.5564 193.582 73.9447 192.496 72.8577C191.411 71.7708 190.801 70.2974 190.801 68.7611C190.801 67.2249 191.411 65.7515 192.496 64.6645C193.582 63.5776 195.054 62.9659 196.59 62.9639H386.244C387.006 62.9629 387.761 63.1121 388.465 63.403C389.169 63.6939 389.809 64.1207 390.348 64.6592C390.887 65.1976 391.315 65.837 391.607 66.5409C391.899 67.2447 392.049 67.9992 392.049 68.7611C392.049 69.5231 391.899 70.2776 391.607 70.9814C391.315 71.6853 390.887 72.3247 390.348 72.8631C389.809 73.4016 389.169 73.8284 388.465 74.1193C387.761 74.4102 387.006 74.5594 386.244 74.5584V74.5584Z" fill="#D3D3D3"/>
<path opacity="0.6" d="M386.244 134.188H196.59C195.054 134.186 193.582 133.575 192.496 132.488C191.411 131.401 190.801 129.927 190.801 128.391C190.801 126.855 191.411 125.381 192.496 124.294C193.582 123.207 195.054 122.596 196.59 122.594H386.244C387.006 122.593 387.761 122.742 388.465 123.033C389.169 123.324 389.809 123.751 390.348 124.289C390.887 124.827 391.315 125.467 391.607 126.171C391.899 126.875 392.049 127.629 392.049 128.391C392.049 129.153 391.899 129.907 391.607 130.611C391.315 131.315 390.887 131.955 390.348 132.493C389.809 133.031 389.169 133.458 388.465 133.749C387.761 134.04 387.006 134.189 386.244 134.188V134.188Z" fill="#D3D3D3"/>
<path opacity="0.6" d="M386.244 193.817H196.59C195.054 193.815 193.582 193.204 192.496 192.117C191.411 191.03 190.801 189.556 190.801 188.02C190.801 186.484 191.411 185.01 192.496 183.923C193.582 182.836 195.054 182.225 196.59 182.223H386.244C387.006 182.222 387.761 182.371 388.465 182.662C389.169 182.953 389.809 183.38 390.348 183.918C390.887 184.456 391.315 185.096 391.607 185.8C391.899 186.504 392.049 187.258 392.049 188.02C392.049 188.782 391.899 189.536 391.607 190.24C391.315 190.944 390.887 191.583 390.348 192.122C389.809 192.66 389.169 193.087 388.465 193.378C387.761 193.669 387.006 193.818 386.244 193.817V193.817Z" fill="#D3D3D3"/>
<path opacity="0.6" d="M386.244 253.446H196.59C195.054 253.444 193.582 252.832 192.496 251.745C191.411 250.658 190.801 249.185 190.801 247.649C190.801 246.113 191.411 244.639 192.496 243.552C193.582 242.465 195.054 241.854 196.59 241.852H386.244C387.006 241.851 387.761 242 388.465 242.291C389.169 242.582 389.809 243.008 390.348 243.547C390.887 244.085 391.315 244.725 391.607 245.429C391.899 246.132 392.049 246.887 392.049 247.649C392.049 248.411 391.899 249.165 391.607 249.869C391.315 250.573 390.887 251.212 390.348 251.751C389.809 252.289 389.169 252.716 388.465 253.007C387.761 253.298 387.006 253.447 386.244 253.446V253.446Z" fill="#D3D3D3"/>
<path opacity="0.6" d="M386.244 313.075H196.59C195.054 313.073 193.582 312.461 192.496 311.374C191.411 310.287 190.801 308.814 190.801 307.278C190.801 305.742 191.411 304.268 192.496 303.181C193.582 302.094 195.054 301.482 196.59 301.48H386.244C387.006 301.479 387.761 301.629 388.465 301.92C389.169 302.21 389.809 302.637 390.348 303.176C390.887 303.714 391.315 304.354 391.607 305.057C391.899 305.761 392.049 306.516 392.049 307.278C392.049 308.04 391.899 308.794 391.607 309.498C391.315 310.202 390.887 310.841 390.348 311.38C389.809 311.918 389.169 312.345 388.465 312.636C387.761 312.927 387.006 313.076 386.244 313.075V313.075Z" fill="#D3D3D3"/>
<path opacity="0.6" d="M353.117 74.5584H195.762C195 74.5594 194.245 74.4102 193.541 74.1193C192.837 73.8284 192.197 73.4016 191.658 72.8631C191.119 72.3247 190.691 71.6853 190.399 70.9814C190.107 70.2776 189.957 69.5231 189.957 68.7611C189.957 67.9992 190.107 67.2447 190.399 66.5409C190.691 65.837 191.119 65.1976 191.658 64.6592C192.197 64.1207 192.837 63.6939 193.541 63.403C194.245 63.1121 195 62.9629 195.762 62.9639H353.117C354.653 62.9659 356.125 63.5776 357.211 64.6645C358.296 65.7515 358.906 67.2249 358.906 68.7611C358.906 70.2974 358.296 71.7708 357.211 72.8577C356.125 73.9447 354.653 74.5564 353.117 74.5584V74.5584Z" fill="#3785BA"/>
<path opacity="0.6" d="M304.254 134.188H195.762C194.225 134.188 192.75 133.578 191.663 132.49C190.576 131.403 189.965 129.929 189.965 128.391C189.965 126.853 190.576 125.379 191.663 124.292C192.75 123.205 194.225 122.594 195.762 122.594H304.254C305.016 122.593 305.771 122.742 306.475 123.033C307.179 123.324 307.819 123.751 308.358 124.289C308.897 124.827 309.325 125.467 309.617 126.171C309.909 126.875 310.059 127.629 310.059 128.391C310.059 129.153 309.909 129.907 309.617 130.611C309.325 131.315 308.897 131.955 308.358 132.493C307.819 133.031 307.179 133.458 306.475 133.749C305.771 134.04 305.016 134.189 304.254 134.188V134.188Z" fill="#3785BA"/>
<path opacity="0.6" d="M244.625 193.817H195.762C195 193.818 194.245 193.669 193.541 193.378C192.837 193.087 192.197 192.66 191.658 192.122C191.119 191.583 190.691 190.944 190.399 190.24C190.107 189.536 189.957 188.782 189.957 188.02C189.957 187.258 190.107 186.504 190.399 185.8C190.691 185.096 191.119 184.456 191.658 183.918C192.197 183.38 192.837 182.953 193.541 182.662C194.245 182.371 195 182.222 195.762 182.223H244.625C246.161 182.225 247.633 182.836 248.719 183.923C249.805 185.01 250.414 186.484 250.414 188.02C250.414 189.556 249.805 191.03 248.719 192.117C247.633 193.204 246.161 193.815 244.625 193.817Z" fill="#3785BA"/>
<path opacity="0.6" d="M368.024 253.446H195.762C194.225 253.446 192.75 252.835 191.663 251.748C190.576 250.661 189.965 249.186 189.965 247.649C189.965 246.111 190.576 244.637 191.663 243.55C192.75 242.462 194.225 241.852 195.762 241.852H368.024C369.561 241.852 371.036 242.462 372.123 243.55C373.21 244.637 373.821 246.111 373.821 247.649C373.821 249.186 373.21 250.661 372.123 251.748C371.036 252.835 369.561 253.446 368.024 253.446Z" fill="#3785BA"/>
<path opacity="0.6" d="M329.927 313.075H195.762C195 313.076 194.245 312.927 193.541 312.636C192.837 312.345 192.197 311.918 191.658 311.38C191.119 310.841 190.691 310.202 190.399 309.498C190.107 308.794 189.957 308.04 189.957 307.278C189.957 306.516 190.107 305.761 190.399 305.057C190.691 304.354 191.119 303.714 191.658 303.176C192.197 302.637 192.837 302.21 193.541 301.92C194.245 301.629 195 301.479 195.762 301.48H329.927C330.689 301.479 331.444 301.629 332.148 301.92C332.852 302.21 333.492 302.637 334.032 303.176C334.571 303.714 334.998 304.354 335.29 305.057C335.582 305.761 335.732 306.516 335.732 307.278C335.732 308.04 335.582 308.794 335.29 309.498C334.998 310.202 334.571 310.841 334.032 311.38C333.492 311.918 332.852 312.345 332.148 312.636C331.444 312.927 330.689 313.076 329.927 313.075V313.075Z" fill="#3785BA"/>
<path d="M505.988 270.908C505.988 270.908 499.702 224.814 489.226 237.385C478.75 249.956 489.226 268.813 489.226 268.813L497.607 279.288L505.988 273.003V270.908Z" fill="#9F616A"/>
<path d="M531.13 285.574C531.13 285.574 510.178 262.527 505.988 266.717C501.797 270.908 489.226 273.003 491.322 281.383C493.417 289.764 537.415 317.001 537.415 317.001L531.13 285.574Z" fill="#3785BA"/>
<path opacity="0.1" d="M531.13 285.574C531.13 285.574 510.178 262.527 505.988 266.717C501.797 270.908 489.226 273.003 491.322 281.383C493.417 289.764 537.415 317.001 537.415 317.001L531.13 285.574Z" fill="black"/>
<path d="M650.553 283.479V300.24C650.553 300.24 652.648 337.953 640.078 335.857C627.507 333.762 633.792 302.335 633.792 302.335L635.887 283.479L650.553 283.479Z" fill="#9F616A"/>
<path d="M644.269 404.998C644.269 404.998 663.125 434.33 669.411 436.425C675.696 438.521 709.219 457.377 713.409 476.233L742.741 513.946L728.075 532.803C728.075 532.803 661.03 461.567 642.174 455.282C623.317 448.996 604.461 417.569 604.461 417.569L644.269 404.998Z" fill="#9F616A"/>
<path d="M495.512 356.809C495.512 356.809 455.704 363.094 461.989 388.236C468.275 413.378 529.035 465.757 529.035 465.757L531.13 478.328L554.177 482.518L564.652 472.042L562.557 465.757C562.557 465.757 537.415 442.71 535.32 434.33C533.225 425.949 510.178 392.426 499.702 390.331L514.368 381.951L495.512 356.809Z" fill="#9F616A"/>
<path d="M736.454 513.946C736.454 513.946 728.074 501.375 740.645 503.47C753.216 505.565 761.596 507.66 761.596 516.041C761.596 524.422 751.121 583.086 738.55 578.896C725.979 574.705 736.454 555.849 736.454 555.849C736.454 555.849 730.169 539.088 725.979 536.993C721.788 534.897 721.788 524.422 725.979 524.422C730.169 524.422 738.55 518.136 736.454 513.946Z" fill="#1E4470"/>
<path d="M558.367 467.852C558.367 467.852 558.367 457.376 566.748 467.852C575.128 478.328 579.319 486.709 570.938 492.994C562.557 499.28 533.225 513.946 533.225 513.946C533.225 513.946 501.798 520.231 505.988 505.565C505.988 505.565 526.94 495.089 526.94 486.709C526.94 478.328 526.94 463.662 533.225 467.852C539.511 472.043 558.367 474.138 558.367 467.852Z" fill="#1E4470"/>
<path d="M598.174 310.716C598.174 310.716 627.506 314.906 625.411 356.809C625.411 356.809 663.124 394.522 652.648 407.093C642.173 419.664 619.126 442.711 610.745 436.425C602.365 430.14 577.223 381.951 577.223 381.951C577.223 381.951 518.558 402.903 508.082 392.427C497.607 381.951 487.131 356.809 487.131 356.809L539.51 329.572L598.174 310.716Z" fill="#1E4470"/>
<path d="M516.464 191.292C530.35 191.292 541.606 180.035 541.606 166.15C541.606 152.264 530.35 141.008 516.464 141.008C502.579 141.008 491.322 152.264 491.322 166.15C491.322 180.035 502.579 191.292 516.464 191.292Z" fill="#9F616A"/>
<path d="M535.321 168.244C535.321 168.244 549.987 191.291 554.177 193.386C558.368 195.481 524.845 216.433 524.845 216.433C524.845 216.433 524.845 189.196 514.369 182.91L535.321 168.244Z" fill="#9F616A"/>
<path d="M537.416 191.292C537.416 191.292 570.938 180.816 577.224 197.577C583.509 214.339 598.176 245.766 596.08 266.718C593.985 287.669 589.795 283.479 596.08 289.764C602.366 296.05 606.556 291.859 604.461 300.24C602.366 308.621 600.271 308.621 602.366 312.811C604.461 317.001 577.224 331.667 554.177 333.763L531.13 335.858C531.13 335.858 531.13 298.145 526.94 289.764C522.75 281.384 514.369 264.622 514.369 258.337V241.706C514.369 230.637 517.258 219.759 522.75 210.148V210.148C522.75 210.148 535.321 191.292 537.416 191.292Z" fill="#3785BA"/>
<path d="M562.557 199.672C562.557 199.672 640.078 205.957 648.459 226.909C656.84 247.861 661.03 289.764 652.649 289.764C644.269 289.764 633.793 293.954 631.698 289.764C629.602 285.573 621.222 243.67 619.127 243.67C617.031 243.67 554.177 237.385 554.177 237.385C554.177 237.385 526.94 203.862 562.557 199.672Z" fill="#3785BA"/>
<path d="M515.453 159.917C515.453 159.917 508.781 148.322 500.441 158.393C492.101 168.464 478.534 149.957 480.617 146.008C482.7 142.059 490.055 146.185 502.659 142.065C515.263 137.945 539.544 129.551 543.61 156.932C547.676 184.314 537.992 181.444 537.992 181.444C537.992 181.444 533.553 157.18 529.54 164.15L525.528 171.119L522.048 171.976L515.453 159.917Z" fill="black"/>
</g>
<defs>
<clipPath id="clip0">
<rect width="892.35" height="579.11" fill="white"/>
</clipPath>
</defs>
</svg>
