<svg width="728" height="495" viewBox="0 0 728 495" fill="none" xmlns="http://www.w3.org/2000/svg">
<path d="M327.827 44.9524C334.698 45.3906 342.184 44.9269 350.148 44.9524V26.7705C342.744 27.8047 335.231 27.8047 327.827 26.7705V44.9524Z" fill="#D3D3D3"/>
<path d="M288.62 40.9932H588.984V49.3591H288.62V40.9932Z" fill="#D3D3D3"/>
<path d="M338.96 33.4637C329.693 33.4637 322.18 25.9726 322.18 16.7318C322.18 7.49111 329.693 0 338.96 0C348.227 0 355.74 7.49111 355.74 16.7318C355.74 25.9726 348.227 33.4637 338.96 33.4637Z" fill="#D3D3D3"/>
<path d="M338.963 30.1177C331.549 30.1177 325.539 24.1248 325.539 16.7322C325.539 9.33957 331.549 3.34668 338.963 3.34668C346.377 3.34668 352.387 9.33957 352.387 16.7322C352.387 24.1248 346.377 30.1177 338.963 30.1177Z" fill="#CCCCCC"/>
<path d="M338.962 20.0775C337.109 20.0775 335.606 18.5793 335.606 16.7311C335.606 14.883 337.109 13.3848 338.962 13.3848C340.816 13.3848 342.318 14.883 342.318 16.7311C342.318 18.5793 340.816 20.0775 338.962 20.0775Z" fill="#D3D3D3"/>
<path d="M327.215 17.5677V15.8945H340.639V17.5677H327.215Z" fill="#D3D3D3"/>
<path d="M339.801 18.4043H338.123V5.01881H339.801V18.4043Z" fill="#D3D3D3"/>
<path d="M534.987 0.180664H546.09V44.0021H534.987V0.180664Z" fill="#D3D3D3"/>
<path d="M534.987 7.10059H546.09V12.1746H534.987V7.10059Z" fill="#808080"/>
<path d="M534.987 29.2402H546.09V34.3143H534.987V29.2402Z" fill="#808080"/>
<path d="M552.106 0.180664H563.209V44.0021H552.106V0.180664Z" fill="#D3D3D3"/>
<path d="M552.106 7.10059H563.209V12.1746H552.106V7.10059Z" fill="#808080"/>
<path d="M552.106 29.2402H563.209V34.3143H552.106V29.2402Z" fill="#808080"/>
<path d="M525.423 0.000146663L535.373 4.91211L515.874 44.184L505.924 39.2721L525.423 0.000146663Z" fill="#D3D3D3"/>
<path d="M522.343 6.20134L532.293 11.1133L530.035 15.6605L520.085 10.7486L522.343 6.20134Z" fill="#808080"/>
<path d="M512.491 26.0431L522.441 30.9551L520.184 35.5023L510.234 30.5904L512.491 26.0431Z" fill="#808080"/>
<path d="M430.952 0.180664H442.055V44.0021H430.952V0.180664Z" fill="#D3D3D3"/>
<path d="M430.952 7.10059H442.055V12.1746H430.952V7.10059Z" fill="#808080"/>
<path d="M430.952 29.2402H442.055V34.3143H430.952V29.2402Z" fill="#808080"/>
<path d="M448.069 0.180664H459.172V44.0021H448.069V0.180664Z" fill="#D3D3D3"/>
<path d="M448.069 7.10059H459.172V12.1746H448.069V7.10059Z" fill="#808080"/>
<path d="M448.069 29.2402H459.172V34.3143H448.069V29.2402Z" fill="#808080"/>
<path d="M421.386 0.000160404L431.336 4.91211L411.837 44.184L401.887 39.2721L421.386 0.000160404Z" fill="#D3D3D3"/>
<path d="M418.308 6.20133L428.258 11.1133L426 15.6605L416.05 10.7486L418.308 6.20133Z" fill="#808080"/>
<path d="M408.454 26.0431L418.404 30.9551L416.146 35.5024L406.196 30.5904L408.454 26.0431Z" fill="#808080"/>
<path d="M668.093 181.288L665.234 176.883C666.082 174.548 667.061 172.262 668.167 170.037L670.016 171.526L668.552 169.271C669.947 166.533 671.044 164.808 671.044 164.808C671.044 164.808 676.778 173.816 678.693 183.354L675.025 189.007L679.086 185.737C679.23 186.848 679.305 187.967 679.309 189.087C679.309 200.383 675.609 209.541 671.044 209.541C666.48 209.541 662.78 200.383 662.78 189.087C662.866 185.493 663.504 181.934 664.671 178.532L668.093 181.288Z" fill="#D3D3D3"/>
<path d="M647.858 191.082L642.713 189.983C641.656 187.734 640.728 185.427 639.932 183.074L642.295 182.824L639.66 182.261C638.705 179.341 638.258 177.348 638.258 177.348C638.258 177.348 648.7 179.675 656.818 185.069L658.233 191.653L658.786 186.477C659.676 187.161 660.522 187.899 661.319 188.689C669.33 196.677 673.207 205.761 669.98 208.979C666.753 212.197 657.643 208.33 649.632 200.343C647.144 197.741 645.07 194.774 643.484 191.546L647.858 191.082Z" fill="#D3D3D3"/>
<path d="M645.979 234.793C657.911 235.554 670.912 234.749 684.742 234.793V203.219C672.555 205.111 659.559 204.916 645.979 203.219V234.793Z" fill="#808080"/>
<path d="M153.12 244.703H314.209V453.015H153.12V244.703Z" fill="#D3D3D3"/>
<path d="M642.262 255.578H650.652V453.014H642.262V255.578Z" fill="#D3D3D3"/>
<path d="M153.121 230.48H727.002V247.212H153.121V230.48Z" fill="#D3D3D3"/>
<path d="M638.068 247.213H654.848V263.945H638.068V247.213Z" fill="#D3D3D3"/>
<path d="M220.976 256.833L221.92 260.598H245.413L246.828 256.833H306.66V295.317H160.673V256.833H220.976Z" fill="white"/>
<path d="M220.976 305.356L221.92 309.121H245.413L246.828 305.356H306.66V343.84H160.673V305.356H220.976Z" fill="white"/>
<path d="M220.976 353.878L221.92 357.642H245.413L246.828 353.878H306.66V392.361H160.673V353.878H220.976Z" fill="white"/>
<path d="M220.976 402.401L221.92 406.166H245.413L246.828 402.401H306.66V440.884H160.673V402.401H220.976Z" fill="white"/>
<path d="M415.729 227.971H465.23L463.553 206.22H417.407L415.729 227.971Z" fill="#D3D3D3"/>
<path d="M412.376 225.462H467.75V230.481H412.376V225.462Z" fill="#D3D3D3"/>
<path d="M345.672 66.0908H534.868C536.203 66.0908 537.484 66.6197 538.428 67.561C539.372 68.5024 539.902 69.7791 539.902 71.1104V186.142H340.638V71.1104C340.638 69.7791 341.168 68.5024 342.112 67.561C343.057 66.6197 344.337 66.0908 345.672 66.0908Z" fill="#808080"/>
<path d="M539.902 186.142V204.965C539.902 206.296 539.372 207.573 538.428 208.514C537.484 209.456 536.203 209.984 534.868 209.984H345.672C344.337 209.984 343.057 209.456 342.112 208.514C341.168 207.573 340.638 206.296 340.638 204.965V186.142H539.902Z" fill="#D3D3D3"/>
<path d="M350.286 76.5479H529.834V176.939H350.286V76.5479Z" fill="white"/>
<path d="M440.062 202.873C437.281 202.873 435.028 200.626 435.028 197.854C435.028 195.081 437.281 192.834 440.062 192.834C442.842 192.834 445.096 195.081 445.096 197.854C445.096 200.626 442.842 202.873 440.062 202.873Z" fill="#808080"/>
<path d="M423.198 104.886H471.609V107.657H423.198V104.886Z" fill="#808080"/>
<path d="M396.851 114.993H471.609V117.764H396.851V114.993Z" fill="#D3D3D3"/>
<path d="M410.683 124.517H471.609V127.288H410.683V124.517Z" fill="#D3D3D3"/>
<path d="M436.042 134.004H471.609V136.775H436.042V134.004Z" fill="#808080"/>
<path d="M417.929 143.491H471.609V146.262H417.929V143.491Z" fill="#808080"/>
<path d="M487.748 103.901H493.676V109.812H487.748V103.901Z" fill="#808080"/>
<path d="M487.748 113.425H493.676V119.336H487.748V113.425Z" fill="#D3D3D3"/>
<path d="M487.748 122.946H493.676V128.857H487.748V122.946Z" fill="#D3D3D3"/>
<path d="M487.748 132.47H493.676V138.381H487.748V132.47Z" fill="#808080"/>
<path d="M487.748 141.993H493.676V147.904H487.748V141.993Z" fill="#808080"/>
<path d="M358.606 99.6395H384.01C385.744 89.6461 385.744 79.43 384.01 69.4365H358.606C361.468 79.302 361.468 89.7741 358.606 99.6395Z" fill="#D3D3D3"/>
<path d="M543.457 160.176L553.909 157.635C557.897 157.64 561.837 156.761 565.442 155.062C569.048 153.362 572.23 150.884 574.757 147.808C577.284 144.732 579.094 141.134 580.056 137.274C581.017 133.415 581.107 129.39 580.317 125.492V125.492C580.328 116.192 576.634 107.267 570.047 100.682C563.46 94.0975 554.519 90.3916 545.191 90.3799H545.191C535.864 90.3682 526.914 94.0517 520.31 100.62C513.706 107.188 509.989 116.103 509.977 125.404V125.404C504.052 145.967 522.611 165.242 543.457 160.176Z" fill="#323232"/>
<path d="M532.041 163.84C517.769 163.84 506.199 152.304 506.199 138.073C506.199 123.842 517.769 112.306 532.041 112.306C546.313 112.306 557.883 123.842 557.883 138.073C557.883 152.304 546.313 163.84 532.041 163.84Z" fill="#FFB8B8"/>
<path d="M548.894 151.517C548.894 151.517 556.759 178.404 561.253 180.645C565.747 182.886 525.299 186.247 525.299 186.247C525.299 186.247 526.423 160.479 524.176 158.239C521.929 155.998 548.894 151.517 548.894 151.517Z" fill="#FFB8B8"/>
<path d="M508.447 317.324C508.447 317.324 457.887 312.843 451.145 329.648C444.404 346.453 455.64 446.161 455.64 446.161H476.987V364.378C476.987 364.378 568.01 338.579 568.01 329.617C568.01 320.654 508.447 317.324 508.447 317.324Z" fill="#323232"/>
<path d="M459.012 441.681L447.776 446.162C447.776 446.162 434.293 445.042 439.911 455.125C441.519 458.051 443.769 460.579 446.492 462.519C449.216 464.458 452.343 465.76 455.641 466.328C455.641 466.328 476.988 474.17 478.112 466.328C479.236 458.486 472.494 442.801 472.494 442.801L459.012 441.681Z" fill="#323232"/>
<path d="M536.535 317.326C536.535 317.326 485.975 312.844 479.234 329.649C472.493 346.454 483.728 446.163 483.728 446.163H505.076V364.379C505.076 364.379 569.687 349.456 569.687 340.494C569.687 336.283 574.09 314.884 566.331 310.376C557.575 305.288 536.535 317.326 536.535 317.326Z" fill="#323232"/>
<path d="M487.101 441.681L475.866 446.162C475.866 446.162 462.383 445.042 468.001 455.125C469.609 458.051 471.858 460.579 474.582 462.519C477.305 464.458 480.433 465.76 483.731 466.328C483.731 466.328 505.078 474.17 506.202 466.328C507.325 458.486 500.584 442.801 500.584 442.801L487.101 441.681Z" fill="#323232"/>
<path d="M560.133 177.285L526.367 180.945C521.156 181.51 516.257 183.702 512.37 187.208C508.483 190.715 505.807 195.357 504.723 200.471L491.596 262.43C491.596 262.43 487.102 324.047 496.09 327.408C505.078 330.769 517.438 313.964 534.291 316.205C551.144 318.446 573.054 323.487 573.054 323.487C573.054 323.487 576.533 213.194 576.986 204.173C577.892 186.139 560.133 177.285 560.133 177.285Z" fill="#808080"/>
<path d="M480.149 320.526L466.287 328.666C466.287 328.666 441.418 325.108 442.195 333.824C442.971 342.54 470.117 340.856 470.117 340.856L486.822 330.592L480.149 320.526Z" fill="#FFB8B8"/>
<path d="M582.2 117.117C572.981 117.117 565.507 109.664 565.507 100.472C565.507 91.2792 572.981 83.8271 582.2 83.8271C591.419 83.8271 598.893 91.2792 598.893 100.472C598.893 109.664 591.419 117.117 582.2 117.117Z" fill="#323232"/>
<path d="M566.798 91.5244C566.8 89.0622 567.35 86.6312 568.408 84.4067C569.466 82.1822 571.007 80.2197 572.918 78.6607C574.829 77.1016 577.063 75.985 579.46 75.3914C581.856 74.7977 584.355 74.7418 586.775 75.2277C584.64 74.2213 582.314 73.6787 579.952 73.6356C577.59 73.5925 575.246 74.05 573.074 74.9779C570.903 75.9057 568.954 77.2827 567.357 79.0178C565.759 80.7529 564.549 82.8065 563.807 85.0427C563.065 87.2789 562.807 89.6468 563.051 91.9897C563.295 94.3326 564.036 96.597 565.223 98.6333C566.411 100.669 568.019 102.431 569.94 103.801C571.861 105.172 574.053 106.12 576.369 106.582C573.505 105.237 571.084 103.107 569.389 100.44C567.694 97.7737 566.795 94.6813 566.798 91.5244V91.5244Z" fill="#323232"/>
<path d="M552.48 100.964L529.975 96.832L512.669 107.648C508.414 110.307 505.013 114.127 502.869 118.655C500.726 123.183 499.93 128.229 500.575 133.195L517.909 128.814L521.79 119.109L526.413 126.665L550.582 157.679L564.152 149.062L576.25 130.159L552.48 100.964Z" fill="#323232"/>
<path d="M533.945 186.815L522.71 181.213C522.71 181.213 499.115 184.574 494.621 200.258C490.127 215.943 469.903 324.614 469.903 324.614L489.003 333.577L515.968 267.478L533.945 186.815Z" fill="#808080"/>
<path opacity="0.2" d="M524.381 230.899L513.136 274.422L493.195 323.302L493.886 324.994L517.669 275.239L524.381 230.899Z" fill="black"/>
<path d="M608.286 470.919L612.252 469.557L573.836 355.778L568.282 357.686L608.286 470.919Z" fill="#808080"/>
<path d="M461.452 470.919L457.486 469.557L495.903 355.778L501.455 357.686L461.452 470.919Z" fill="#808080"/>
<path d="M542.627 494.418L538.432 494.433L537.129 361.428L543.002 361.407L542.627 494.418Z" fill="#808080"/>
<path d="M617.994 288.924L606.487 335.298C604.875 341.792 601.52 347.726 596.782 352.462C592.043 357.198 586.1 360.558 579.591 362.181H579.591C547.5 370.18 513.901 369.965 481.916 361.553L464.736 357.035C454.753 354.41 447.246 345.861 446.536 335.591C446.248 331.96 446.907 328.317 448.45 325.016C448.517 324.874 448.585 324.733 448.652 324.593C450.893 320.004 454.349 316.113 458.648 313.342C462.946 310.57 467.923 309.024 473.039 308.87L491.239 308.284L557.521 279.004C557.521 279.004 580.317 267.458 599.057 266.165C611.433 265.312 620.973 276.916 617.994 288.924Z" fill="#D3D3D3"/>
<path d="M213.948 143.057H279.391V231.735H213.948V143.057Z" fill="#D3D3D3"/>
<path d="M221.499 153.289H271.84V221.504H221.499V153.289Z" fill="white"/>
<path d="M227.637 171.14H252.027V173.911H227.637V171.14Z" fill="#808080"/>
<path d="M259.775 169.606H265.703V175.517H259.775V169.606Z" fill="#808080"/>
<path d="M227.637 182.852H252.027V185.623H227.637V182.852Z" fill="#808080"/>
<path d="M259.775 181.318H265.703V187.229H259.775V181.318Z" fill="#808080"/>
<path d="M227.637 194.565H252.027V197.336H227.637V194.565Z" fill="#808080"/>
<path d="M259.775 193.03H265.703V198.941H259.775V193.03Z" fill="#808080"/>
<path d="M244.153 148.076C244.153 146.69 245.28 145.566 246.67 145.566C248.061 145.566 249.188 146.69 249.188 148.076C249.188 149.462 248.061 150.586 246.67 150.586C245.28 150.586 244.153 149.462 244.153 148.076Z" fill="#808080"/>
</svg>
