<svg width="812" height="603" viewBox="0 0 812 603" fill="none" xmlns="http://www.w3.org/2000/svg">
<path d="M85.696 63.4782C80.393 65.6783 74.9504 68.5022 72.0362 73.4524C68.9497 78.6816 69.3191 85.1751 69.8937 91.2253C74.9012 143.699 88.093 199.505 65.3131 247.036C54.2556 270.096 35.7607 288.575 21.0502 309.517C6.33969 330.458 -4.76708 356.605 2.0628 381.241C10.4031 411.344 41.5316 428.033 62.5138 451.199C76.2475 466.345 85.8766 484.75 98.6908 500.685C111.505 516.619 129.064 530.656 149.521 531.592C178.942 532.947 202.879 507.539 231.726 501.653C261.278 495.628 291.036 510.962 314.998 529.318C338.96 547.674 360.755 569.913 388.673 581.373C419.506 594.04 454.263 592.102 486.722 599.712C516.274 606.649 518.161 595.136 547.5 603H656C685.626 576.731 686.57 543.504 705.491 508.754C723.067 476.467 757.471 457.192 780.628 428.649C822.297 377.275 820.934 298.754 785.554 242.882C750.173 187.01 686.085 153.18 620.553 144.372C591.001 140.407 560.57 140.949 532.158 131.927C456.11 107.792 410.854 21.3157 333.214 3.32106C283.861 -8.09796 235.863 11.678 193.825 36.0184C157.336 57.1489 123.671 47.7247 85.696 63.4782Z" fill="#8DC0E3"/>
<path d="M428.454 18.3931C264.334 18.3931 131.289 151.442 131.289 315.567C131.289 454.698 226.399 570.154 355.5 602.5H428H504C631.533 569.076 725.62 453.586 725.62 315.567C725.62 151.442 592.574 18.3931 428.454 18.3931Z" fill="url(#paint0_linear)"/>
<path d="M428.454 23.3188C267.054 23.3188 136.214 154.163 136.214 315.567C136.214 458.362 238.623 577.237 374 602.751H428H496.5C622.806 570.487 720.694 451.928 720.694 315.567C720.694 154.163 589.854 23.3188 428.454 23.3188Z" fill="#0086BF"/>
<path d="M428.454 547.888C556.758 547.888 660.769 443.874 660.769 315.567C660.769 187.26 556.758 83.2461 428.454 83.2461C300.151 83.2461 196.14 187.26 196.14 315.567C196.14 443.874 300.151 547.888 428.454 547.888Z" fill="#DDE1EC"/>
<path opacity="0.3" d="M435.021 124.292H421.887V329.522H435.021V124.292Z" fill="#535461"/>
<g opacity="0.1">
<path opacity="0.1" d="M627.933 310.642H442.409V327.06H627.933V310.642Z" fill="black"/>
<path opacity="0.1" d="M311.428 249.216L303.812 263.76L420.545 324.892L428.161 310.348L311.428 249.216Z" fill="black"/>
<path opacity="0.1" d="M428.454 343.478C442.055 343.478 453.081 332.452 453.081 318.851C453.081 305.249 442.055 294.223 428.454 294.223C414.853 294.223 403.827 305.249 403.827 318.851C403.827 332.452 414.853 343.478 428.454 343.478Z" fill="black"/>
</g>
<path d="M627.933 307.357H442.409V323.776H627.933V307.357Z" fill="#535461"/>
<path d="M428.215 307.082L311.482 245.95L303.866 260.495L420.599 321.627L428.215 307.082Z" fill="#535461"/>
<path d="M428.454 340.194C442.055 340.194 453.081 329.168 453.081 315.567C453.081 301.965 442.055 290.939 428.454 290.939C414.853 290.939 403.827 301.965 403.827 315.567C403.827 329.168 414.853 340.194 428.454 340.194Z" fill="#535461"/>
<g opacity="0.1">
<path opacity="0.1" d="M214.183 343.478C214.183 215.168 318.191 111.157 446.498 111.157C482.51 111.126 518.035 119.48 550.259 135.558C582.483 151.636 610.521 174.997 632.152 203.79C592.618 131.943 516.274 83.2461 428.438 83.2461C300.131 83.2461 196.123 187.257 196.123 315.567C196.048 365.973 212.441 415.023 242.808 455.255C223.976 421.013 214.128 382.557 214.183 343.478V343.478Z" fill="black"/>
</g>
<path d="M643.103 144.667C640.345 142.016 617.13 159.444 617.13 159.444C617.13 159.444 608.863 160.954 610.834 166.627C612.804 172.3 602.173 204.069 602.173 204.069L597.847 198.019C598.266 190.918 596.312 185.886 594.407 182.75C594.251 182.495 594.095 182.249 593.939 182.019L594.695 181.757C594.407 177.882 588.21 171.979 584.918 169.09C584.918 168.671 584.918 168.269 584.918 167.842C585.123 163.212 586.978 158.327 584.918 154.133C582.586 149.347 575.765 146.941 575.19 141.687C574.845 138.551 576.963 135.719 577.899 132.698C580.132 125.474 575.494 118.102 571.061 111.88C569.559 109.547 567.732 107.44 565.635 105.624C563.637 104.164 561.442 102.992 559.117 102.144C552.624 99.5167 545.983 98.195 539.284 96.3972C532.856 94.6896 526.929 93.8769 520.403 96.0195C518.855 96.4371 517.44 97.2489 516.299 98.3756C514.747 100.116 514.542 102.595 513.524 104.672C511.882 108.013 508.344 110.008 505.217 112.151C502.089 114.293 498.953 117.232 498.937 120.926C498.937 126.172 504.929 129.472 506.932 134.357C508.804 138.904 506.932 143.97 505.89 148.764C505.454 150.313 505.412 151.947 505.767 153.517C506.18 154.687 506.803 155.772 507.605 156.718C508.845 158.36 510.175 159.887 511.496 161.447L510.889 161.685C499.873 160.552 492.788 174.541 492.788 174.541C493.297 174.647 493.781 174.771 494.258 174.91L493.79 175.518C490.461 179.841 487.74 184.6 485.704 189.662L476.674 201.762C476.674 201.762 474.704 171.503 479.432 164.698C484.161 157.892 475.106 153.73 475.106 153.73C475.106 153.73 455.404 131.795 452.671 133.683C449.937 135.572 459.361 159.403 467.628 163.187C467.628 163.187 468.449 170.748 466.807 175.665C465.813 178.777 460.51 211.597 460.51 211.597C460.51 211.597 455.79 239.205 477.437 225.553C491.499 216.703 500.587 201.467 505.217 191.895C505.54 191.222 505.843 190.579 506.128 189.966C506.342 190.981 506.487 192.009 506.563 193.044L507.384 224.674C507.592 232.498 505.884 240.254 502.409 247.266L492.764 266.829L493.839 267.157L493.19 268.093C486.837 277.443 476.034 298.467 498.272 309.18L527.824 312.964L526.248 320.525C526.248 320.525 514.049 343.593 510.503 359.478C508.301 369.205 504.86 378.61 500.267 387.463L501.178 387.947C500.989 388.161 500.792 388.383 500.603 388.612C498.811 390.628 497.627 393.11 497.188 395.771L493.182 401.452C493.182 401.452 491.606 424.897 494.758 430.578C496.482 433.681 502.204 435.651 507.072 436.8C514.296 438.516 520.124 431.054 516.291 424.905L516.241 424.823H516.167C515.347 421.006 512.835 409.16 513.655 404.661C513.885 403.381 514.099 402.108 514.205 400.811C514.403 399.107 514.921 397.455 515.732 395.943C515.864 395.689 516.003 395.442 516.143 395.196L516.57 395.377C517.891 395.943 519.197 396.477 520.436 396.945C518.515 398.693 517.153 402.314 518.794 409.759C518.794 409.759 518.95 428.386 520.37 431.317C521.791 434.247 537.683 438.122 540.441 435.101C543.2 432.08 538.668 421.671 538.668 421.671L538.529 421.769C537.618 415.736 536.493 404.932 539.259 400.68C540.376 398.964 541.459 397.191 542.428 395.533L543.027 394.507C548.166 397.068 553.6 398.997 556.572 397.659C556.572 397.659 569.559 367.4 568.771 363.624C567.983 359.847 588.842 317.102 588.842 317.102C588.842 317.102 606.548 297.4 584.91 283.822C578.039 279.496 573.031 276.589 569.395 274.627L566.349 258.702C564.783 250.352 565.063 241.762 567.17 233.532L570.453 221.005L570.724 219.938C570.724 219.938 578.991 202.92 578.597 194.973C578.566 194.356 578.636 193.738 578.802 193.143C578.892 193.52 578.991 193.914 579.098 194.325C581.269 202.584 584.131 210.647 587.651 218.427C593.931 232.596 603.248 231.472 608.354 229.46C609.447 229.037 610.418 228.349 611.179 227.458C611.94 226.567 612.467 225.5 612.713 224.354C614.552 215.538 619.601 190.836 619.921 184.014C620.207 178.68 620.865 173.372 621.891 168.129C634.845 160.552 645.861 147.319 643.103 144.667Z" fill="url(#paint1_linear)"/>
<path d="M546.738 387.02C546.738 387.02 545.005 390.492 542.633 394.663C541.705 396.304 540.671 398.069 539.612 399.769C535.861 405.77 539.612 424.889 539.612 424.889L531.403 426.014L523.194 421.909L521.692 408.035V397.889L531.05 387.422L535.155 382.891L546.738 387.02Z" fill="#F8BDC5"/>
<g opacity="0.1">
<path opacity="0.1" d="M546.737 387.02C546.737 387.02 545.005 390.492 542.633 394.663C539.009 392.726 535.505 390.571 532.142 388.21L531.42 387.701L531.034 387.422L535.138 382.891L546.737 387.02Z" fill="black"/>
</g>
<path d="M586.872 316.897C586.872 316.897 566.998 359.265 567.753 363.016C568.508 366.768 556.129 396.764 556.129 396.764C553.305 398.094 548.117 396.182 543.224 393.645C539.535 391.679 535.971 389.485 532.553 387.078L531.83 386.569L531.395 386.257L564.018 295.89L535.155 274.718L533.021 273.15L520.116 263.627L559.519 270.753C559.519 270.753 560.89 270.581 568.139 274.636C571.619 276.582 576.454 279.496 583.136 283.88C603.733 297.4 586.872 316.897 586.872 316.897Z" fill="#01426A"/>
<g opacity="0.03">
<path opacity="0.03" d="M586.872 316.897C586.872 316.897 566.998 359.265 567.753 363.016C568.508 366.768 556.129 396.764 556.129 396.764C553.305 398.094 548.117 396.182 543.224 393.645C539.535 391.679 535.971 389.485 532.553 387.078L531.83 386.569L531.395 386.257L564.018 295.89L535.155 274.718L533.021 273.15L520.116 263.627L559.519 270.753C559.519 270.753 560.89 270.581 568.139 274.636C571.619 276.582 576.454 279.496 583.136 283.88C603.733 297.4 586.872 316.897 586.872 316.897Z" fill="black"/>
</g>
<path d="M526.494 394.515C526.494 394.515 516.742 393.013 520.124 408.766C520.124 408.766 520.272 427.237 521.626 430.11C522.981 432.983 538.126 436.858 540.745 433.862C543.364 430.866 539.054 420.555 539.054 420.555C539.054 420.555 527.997 428.616 524.992 419.988C521.988 411.36 526.494 394.515 526.494 394.515Z" fill="#5D3E53"/>
<path d="M519.738 391.519C518.674 392.532 517.808 393.734 517.185 395.065C516.411 396.572 515.918 398.208 515.732 399.892C515.634 401.173 515.429 402.445 515.215 403.709C514.279 409.053 517.867 424.889 517.867 424.889L503.616 427.138L498.37 421.515L497.246 409.144C498.646 404.902 499.404 400.475 499.495 396.009C499.495 392.783 501.137 389.901 502.778 387.8C503.891 386.398 505.167 385.133 506.579 384.032C506.579 384.032 522.743 388.892 519.738 391.519Z" fill="#F8BDC5"/>
<g opacity="0.1">
<path opacity="0.1" d="M519.738 391.518C518.674 392.532 517.809 393.734 517.185 395.065C511.349 392.43 505.217 389.105 502.984 387.873L502.811 387.783C503.924 386.381 505.2 385.116 506.612 384.015C506.612 384.015 522.743 388.891 519.738 391.518Z" fill="black"/>
</g>
<path d="M565.865 305.65C565.865 305.65 556.498 323.276 550.489 337.896C546.549 347.501 538.406 370.372 533.25 384.935L532.495 387.086C530.229 393.53 528.719 397.889 528.719 397.889C527.72 397.896 526.726 397.749 525.772 397.454C524.885 397.216 523.892 396.896 522.833 396.502L521.643 396.05C520.461 395.591 519.18 395.057 517.957 394.499C511.997 391.839 505.644 388.375 503.337 387.11L502.467 386.626C506.866 377.811 510.151 368.482 512.244 358.854C515.617 343.109 527.241 320.271 527.241 320.271L528.744 312.768L500.62 309.016C479.432 298.426 489.726 277.55 495.776 268.282C496.808 266.673 497.923 265.12 499.117 263.627L521.618 268.553C521.618 268.553 525.164 269.686 533.045 273.175L536.665 274.817C541.082 276.844 546.516 279.455 553.083 282.804C575.231 294.002 565.865 305.65 565.865 305.65Z" fill="#01426A"/>
<path d="M517.727 423.764C518.53 425.116 518.914 426.675 518.832 428.245C518.749 429.815 518.204 431.326 517.265 432.587C516.326 433.847 515.034 434.802 513.553 435.329C512.072 435.857 510.468 435.935 508.944 435.553C504.338 434.412 498.879 432.458 497.238 429.379C494.241 423.756 495.735 400.507 495.735 400.507L499.676 394.695C499.676 394.695 497.615 420.382 502.491 422.607C507.367 424.831 517.678 423.649 517.678 423.649L517.727 423.764Z" fill="#5D3E53"/>
<path d="M521.717 97.686C520.219 98.1028 518.859 98.9102 517.776 100.026C516.299 101.75 516.135 104.212 515.133 106.273C513.573 109.557 510.208 111.568 507.22 113.661C504.232 115.755 501.252 118.702 501.235 122.363C501.235 127.568 506.982 130.835 508.853 135.67C510.635 140.185 508.853 145.201 507.86 149.954C507.446 151.493 507.406 153.109 507.745 154.666C508.137 155.821 508.732 156.897 509.502 157.843C513.122 162.769 517.621 167.136 520.042 172.743C521.881 177.003 522.39 181.707 522.874 186.329C523.572 192.979 524.27 199.751 523.006 206.319C522.883 206.711 522.883 207.132 523.006 207.525C523.221 207.902 523.56 208.192 523.966 208.346C526.355 209.507 528.954 210.173 531.606 210.303C534.259 210.434 536.91 210.027 539.402 209.107C541.893 208.187 544.172 206.772 546.103 204.949C548.034 203.125 549.576 200.93 550.637 198.495C552.279 194.776 552.911 190.286 556.162 187.872C556.541 187.559 556.997 187.352 557.483 187.273C558.25 187.294 558.993 187.543 559.618 187.987C563.837 190.27 568.951 190.335 573.655 189.399C576.495 188.833 579.401 187.823 581.281 185.607C584.984 181.207 582.923 174.631 583.169 168.893C583.366 164.304 585.131 159.46 583.169 155.307C580.953 150.562 574.443 148.181 573.901 142.993C573.573 139.89 575.592 137.074 576.487 134.086C578.613 126.919 574.197 119.613 569.977 113.448C568.558 111.148 566.82 109.061 564.814 107.25C562.922 105.809 560.831 104.647 558.608 103.802C552.427 101.2 546.122 99.8861 539.727 98.1129C533.603 96.3644 527.964 95.5516 521.717 97.686Z" fill="#85555C"/>
<path d="M553.116 204.784H531.362V169.533C532.009 166.148 532.387 162.717 532.495 159.272C532.495 158.114 532.495 156.932 532.495 155.742C532.29 151.539 531.42 147.344 529.138 144.782C523.137 138.034 548.634 139.159 548.634 139.159C549.416 142.258 550.432 145.293 551.671 148.239C553.518 152.835 555.976 157.162 558.977 161.102C561.618 164.609 565.002 167.488 568.885 169.533C583.859 177.036 553.116 204.784 553.116 204.784Z" fill="#F8BDC5"/>
<g opacity="0.1">
<path opacity="0.1" d="M551.647 148.239C549.438 151.119 546.484 153.34 543.104 154.662C539.724 155.985 536.047 156.358 532.47 155.742C532.265 151.539 531.395 147.344 529.113 144.782C523.112 138.034 548.609 139.159 548.609 139.159C549.392 142.258 550.407 145.293 551.647 148.239V148.239Z" fill="black"/>
</g>
<path d="M535.861 154.921C546.837 154.921 555.735 146.023 555.735 135.046C555.735 124.07 546.837 115.172 535.861 115.172C524.885 115.172 515.987 124.07 515.987 135.046C515.987 146.023 524.885 154.921 535.861 154.921Z" fill="#F8BDC5"/>
<path d="M618.353 169.164C617.377 174.364 616.752 179.625 616.481 184.909C616.177 191.665 611.367 216.162 609.61 224.904C609.388 226.025 608.893 227.074 608.169 227.958C607.444 228.842 606.512 229.533 605.456 229.969C600.58 231.964 591.714 233.081 585.755 219.035C582.395 211.306 579.668 203.317 577.603 195.146C576.873 192.399 576.324 189.608 575.961 186.789L589.096 179.663C590.332 180.82 591.379 182.164 592.199 183.645C594.013 186.756 595.876 191.747 595.482 198.783L599.587 204.784C599.587 204.784 609.709 173.285 607.796 167.662C605.883 162.038 613.797 160.536 613.797 160.536C613.797 160.536 635.92 143.297 638.547 145.915C641.174 148.534 630.724 161.661 618.353 169.164Z" fill="#F8BDC5"/>
<path d="M510.741 184.162C509.716 187.095 508.538 189.972 507.211 192.782C502.795 202.28 494.142 217.409 480.745 226.16C460.124 239.656 464.623 212.287 464.623 212.287C464.623 212.287 469.671 179.746 470.624 176.667C472.126 171.791 471.371 164.296 471.371 164.296C463.498 160.544 454.501 136.926 457.12 135.046C459.739 133.166 478.463 154.921 478.463 154.921C478.463 154.921 487.091 159.025 482.568 165.798C478.045 172.571 479.941 202.542 479.941 202.542L488.618 190.565C490.548 185.567 493.141 180.852 496.326 176.544C497.968 174.303 499.117 172.948 499.117 172.948L510.741 184.162Z" fill="#F8BDC5"/>
<g opacity="0.1">
<path opacity="0.1" d="M592.207 183.645C589.449 184.663 578.769 188.973 577.587 195.138C576.856 192.391 576.308 189.6 575.945 186.781L589.079 179.655C590.325 180.813 591.381 182.159 592.207 183.645Z" fill="black"/>
</g>
<g opacity="0.1">
<path opacity="0.1" d="M510.741 184.162C509.717 187.095 508.538 189.972 507.212 192.781C506.703 189.071 504.609 179.581 496.326 176.519C497.968 174.278 499.117 172.923 499.117 172.923L510.741 184.162Z" fill="black"/>
</g>
<g opacity="0.1">
<path opacity="0.1" d="M553.116 204.783H531.362V169.533C532.009 166.148 532.387 162.716 532.495 159.271C536.969 163.59 535.861 170.28 535.861 170.28L547.485 196.55L553.116 173.326L551.244 170.329L558.961 161.151C561.602 164.658 564.985 167.537 568.869 169.582C583.859 177.036 553.116 204.783 553.116 204.783Z" fill="black"/>
</g>
<g opacity="0.1">
<path opacity="0.1" d="M568.483 276.762C568.483 276.762 551.441 275.408 536.657 274.767L535.171 274.702C533.07 274.62 531.067 274.554 529.105 274.505C514.755 274.16 498.526 269.144 495.768 268.266C496.803 266.662 497.921 265.114 499.117 263.627L521.618 268.553C521.618 268.553 525.164 269.686 533.045 273.175L520.116 263.627L559.519 270.753C559.519 270.753 560.89 270.581 568.139 274.636L568.483 276.762Z" fill="black"/>
</g>
<path d="M553.116 174.787L551.244 171.791L559.568 161.833C559.568 161.833 576.733 170.247 581.232 168.4C581.232 168.4 592.109 177.43 592.478 182.651C592.478 182.651 576.733 187.897 577.103 195.786C577.472 203.675 569.632 220.529 569.632 220.529L566.349 234.008C564.328 242.177 564.049 250.68 565.528 258.964L568.524 275.654C568.524 275.654 544.899 273.782 529.121 273.404C513.343 273.027 495.374 267.034 495.374 267.034L504.576 247.669C507.895 240.68 509.52 233.008 509.321 225.274L508.5 193.923C508.5 193.923 507.753 178.177 495.366 175.551C495.366 175.551 502.114 161.677 512.605 162.802C512.605 162.802 527.89 156.423 532.429 160.733C536.969 165.043 535.852 171.799 535.852 171.799L547.476 198.068L553.116 174.787Z" fill="#2D353E"/>
<g opacity="0.1">
<path opacity="0.1" d="M521.52 130.95C524.532 130.95 526.896 127.756 529.909 127.92C531.469 128.003 532.807 128.996 534.096 129.891C538.966 133.263 544.385 135.763 550.111 137.279C552.336 137.87 554.692 138.313 556.925 137.772C559.158 137.23 561.251 135.473 561.505 133.183C561.568 132.173 561.434 131.161 561.111 130.203C558.584 121.396 552.865 113.848 545.071 109.031C541.952 107.118 538.143 105.657 534.687 106.856C531.567 107.931 529.556 110.854 527.299 113.259C525.597 115.06 523.665 116.628 521.552 117.922C519.911 118.915 517.448 119.563 516.504 121.386C514.723 124.785 517.522 130.917 521.52 130.95Z" fill="black"/>
</g>
<path d="M521.52 130.203C524.532 130.203 526.896 127.009 529.909 127.173C531.469 127.255 532.807 128.249 534.096 129.144C538.966 132.516 544.385 135.016 550.111 136.532C552.336 137.123 554.692 137.566 556.925 137.024C559.158 136.483 561.251 134.726 561.505 132.436C561.568 131.426 561.434 130.414 561.111 129.456C558.584 120.649 552.865 113.101 545.071 108.284C541.952 106.371 538.143 104.91 534.687 106.109C531.567 107.184 529.556 110.106 527.299 112.512C525.597 114.313 523.665 115.881 521.552 117.175C519.911 118.168 517.448 118.816 516.504 120.639C514.723 124.07 517.522 130.162 521.52 130.203Z" fill="#85555C"/>
<path opacity="0.05" d="M512.432 215.841C512.432 215.841 530.804 222.589 542.806 217.344L548.806 217.721C548.806 217.721 558.78 224.715 569.329 221.588" fill="black"/>
<path opacity="0.05" d="M599.423 204.595C599.423 204.595 596.427 211.72 597.921 213.97Z" fill="black"/>
<path opacity="0.05" d="M479.81 202.345C479.81 202.345 481.312 209.471 479.81 211.72Z" fill="black"/>
<defs>
<linearGradient id="paint0_linear" x1="428.454" y1="612.74" x2="428.454" y2="18.3931" gradientUnits="userSpaceOnUse">
<stop stop-color="#808080" stop-opacity="0.25"/>
<stop offset="0.54" stop-color="#808080" stop-opacity="0.12"/>
<stop offset="1" stop-color="#808080" stop-opacity="0.1"/>
</linearGradient>
<linearGradient id="paint1_linear" x1="143659" y1="204213" x2="143659" y2="61458.9" gradientUnits="userSpaceOnUse">
<stop stop-color="#808080" stop-opacity="0.25"/>
<stop offset="0.54" stop-color="#808080" stop-opacity="0.12"/>
<stop offset="1" stop-color="#808080" stop-opacity="0.1"/>
</linearGradient>
</defs>
</svg>
