<svg width="696" height="498" viewBox="0 0 696 498" fill="none" xmlns="http://www.w3.org/2000/svg">
<path d="M218.733 492.322C218.738 489.278 174.836 486.739 120.676 486.652C66.5159 486.565 22.6065 488.963 22.6016 492.007C22.5967 495.052 66.4982 497.59 120.658 497.677C174.818 497.764 218.728 495.367 218.733 492.322Z" fill="#E6E6E6"/>
<path d="M173.132 225.569L185.257 228.79C186.484 229.116 187.767 229.171 189.017 228.95C190.267 228.729 191.454 228.238 192.495 227.511C193.536 226.784 194.406 225.839 195.044 224.741C195.682 223.644 196.073 222.421 196.189 221.156V221.156C196.315 219.796 196.119 218.425 195.618 217.154C195.117 215.883 194.325 214.747 193.305 213.838C192.285 212.929 191.066 212.272 189.746 211.921C188.425 211.569 187.041 211.532 185.704 211.812L172.793 214.524L131.355 213.198L118.973 191.718L105.249 205.126L123.41 228.451L173.132 225.569Z" fill="#A0616A"/>
<path d="M102.627 206.869L131.598 196.612L121.43 177.29C120.338 175.213 118.813 173.395 116.959 171.958C115.105 170.521 112.965 169.497 110.682 168.956C108.399 168.416 106.027 168.37 103.725 168.823C101.423 169.276 99.2452 170.217 97.3375 171.583V171.583C95.57 172.848 94.0712 174.451 92.928 176.3C91.7848 178.149 91.02 180.206 90.6779 182.352C90.3357 184.499 90.4231 186.692 90.9349 188.805C91.4468 190.917 92.3729 192.907 93.6595 194.659L102.627 206.869Z" fill="#1E4470"/>
<path d="M133.634 235.115L141.644 272.797L185.083 442.445L152.21 452.425L114.054 317.41L72.9622 453.012L35.98 442.445L72.3752 349.109L76.4844 301.561C76.4844 301.561 63.0321 262.662 89.7169 234.562L133.634 235.115Z" fill="#2F2E41"/>
<path d="M36.5442 491.742L49.4514 492.804L50.9507 477.366C53.8855 488.634 59.4163 494.479 67.36 495.283C69.2765 495.448 71.2002 495.061 72.9033 494.166C74.6063 493.272 76.0173 491.908 76.969 490.236C77.1353 489.952 77.2869 489.66 77.4239 489.363C78.0101 487.971 78.0782 486.414 77.6158 484.976C77.1533 483.538 76.191 482.313 74.9032 481.523C66.2919 475.811 67.295 458.236 69.0219 439.768L52.9073 439.392L50.7139 452.727C39.1842 463.685 36.2427 476.45 36.5442 491.742Z" fill="#2F2E41"/>
<path d="M149.976 493.89L162.918 493.404L162.564 477.898C166.823 488.735 173.011 493.878 180.994 493.728C182.917 493.664 184.781 493.049 186.365 491.958C187.949 490.867 189.187 489.344 189.932 487.571V487.571C190.063 487.268 190.179 486.961 190.28 486.649C190.696 485.197 190.577 483.644 189.947 482.271C189.316 480.898 188.214 479.797 186.841 479.167C177.61 474.523 176.509 456.954 176.019 438.412L159.975 439.961L159.389 453.462C149.249 465.719 147.852 478.743 149.976 493.89Z" fill="#2F2E41"/>
<path d="M86.9956 150.893C98.4949 150.893 107.817 141.571 107.817 130.071C107.817 118.572 98.4949 109.25 86.9956 109.25C75.4963 109.25 66.1743 118.572 66.1743 130.071C66.1743 141.571 75.4963 150.893 86.9956 150.893Z" fill="#A0616A"/>
<path d="M78.8326 211.746L109.358 180.047L94.6821 158.328L94.0951 137.195H69.4403L71.7302 155.371C56.2631 172.952 65.03 192.178 78.8326 211.746Z" fill="#A0616A"/>
<path d="M87.3444 236.694L137.241 241.978C132.214 205.915 121.4 177.247 104.074 171.242L63.5701 180.634L87.3444 236.694Z" fill="#1E4470"/>
<path d="M89.7831 259.642L95.4992 270.81C96.0776 271.94 96.8955 272.93 97.8959 273.712C98.8964 274.493 100.055 275.047 101.292 275.335C102.528 275.622 103.812 275.637 105.055 275.377C106.298 275.117 107.469 274.589 108.486 273.831V273.831C109.582 273.014 110.47 271.952 111.08 270.729C111.689 269.506 112.004 268.158 111.997 266.791C111.991 265.425 111.664 264.08 111.042 262.863C110.421 261.646 109.522 260.592 108.419 259.786L97.7675 252.002L71.0366 220.311L78.7221 196.74L59.5747 195.505L54.3835 224.608L89.7831 259.642Z" fill="#A0616A"/>
<path d="M56.5256 194.723L83.5286 209.398L91.0916 188.915C91.9041 186.714 92.2358 184.365 92.0642 182.025C91.8927 179.686 91.2218 177.41 90.0969 175.351C88.9719 173.293 87.419 171.499 85.5426 170.091C83.6662 168.683 81.5099 167.693 79.2189 167.188V167.188C77.0962 166.72 74.9017 166.679 72.7628 167.065C70.6238 167.452 68.5829 168.26 66.7584 169.441C64.9339 170.622 63.362 172.154 62.134 173.948C60.9059 175.741 60.0461 177.761 59.6044 179.889L56.5256 194.723Z" fill="#1E4470"/>
<path d="M81.6439 132.679C84.7225 133.623 87.7192 130.933 89.3524 128.159C90.9856 125.384 92.2223 122.093 95.0209 120.501C98.6473 118.438 103.739 119.969 106.959 117.316C110.011 114.801 109.468 109.618 106.754 106.741C104.041 103.863 99.9215 102.819 95.9932 102.359C87.1369 101.322 77.7623 102.71 70.3246 107.629C62.8869 112.547 57.7512 121.333 58.5305 130.216C58.8655 134.034 60.223 137.679 61.0595 141.42C61.896 145.16 62.1703 149.249 60.4469 152.673C58.1741 157.188 52.8588 159.498 47.8066 159.661C42.7543 159.824 37.8336 158.229 32.996 156.762C28.1585 155.295 23.1262 153.927 18.1105 154.555C14.4564 155.103 11.0144 156.615 8.13937 158.936C5.2643 161.257 3.06005 164.303 1.75378 167.759C0.522462 171.242 0.125399 174.964 0.594506 178.628C1.06361 182.292 2.38582 185.794 4.4548 188.854C8.74188 195.23 15.8638 199.348 23.3424 201.112C30.821 202.875 38.6608 202.467 46.2412 201.211C56.2478 199.551 65.9611 196.45 75.0782 192.004C80.6233 189.298 86.229 185.784 88.8696 180.207C91.4837 174.687 90.6587 168.025 88.0816 162.487C85.5045 156.949 81.3558 152.318 77.2043 147.838C75.0968 145.564 72.924 143.229 71.8012 140.339C70.6783 137.449 70.8483 133.826 73.0485 131.642C75.2488 129.457 79.6594 129.741 80.8963 132.585" fill="#2F2E41"/>
<path d="M337.521 495.175C389.975 495.091 432.493 492.632 432.488 489.684C432.484 486.735 389.957 484.413 337.503 484.497C285.049 484.582 242.531 487.041 242.535 489.989C242.54 492.938 285.066 495.26 337.521 495.175Z" fill="#E6E6E6"/>
<path d="M600.521 495.174C652.975 495.089 695.493 492.631 695.489 489.682C695.484 486.733 652.958 484.412 600.504 484.496C548.05 484.58 505.531 487.039 505.536 489.988C505.54 492.937 548.067 495.258 600.521 495.174Z" fill="#E6E6E6"/>
<path d="M367.125 448.729C367.125 448.729 273.99 402.162 287.295 271.328C300.6 140.495 296.165 153.8 296.165 153.8C296.165 153.8 318.34 80.622 358.255 54.0118C358.255 54.0118 262.902 -43.5588 187.507 133.842C187.507 133.842 167.549 240.283 183.072 311.244C198.594 382.204 234.075 439.859 234.075 439.859C234.075 439.859 267.337 473.122 305.035 473.122C342.733 473.122 367.125 448.729 367.125 448.729Z" fill="#CCCCCC"/>
<path d="M521.243 370.008C521.243 370.008 468.022 511.928 301.709 485.318C135.395 458.708 179.745 170.431 179.745 170.431C179.745 170.431 161.161 385.477 258.399 448.72C285.341 466.244 320.532 466.4 346.269 447.149C363.323 434.393 377.936 412.14 375.995 373.334L521.243 370.008Z" fill="#E6E6E6"/>
<path d="M516.057 99.9946C516.057 99.9946 440.303 -36.9064 276.207 9.66145C174.488 53 176.382 164.59 176.382 164.59C164.117 349.61 296.128 346.622 327.21 149.365C332.667 114.73 321.666 95.0358 321.666 95.0358C321.666 95.0358 306.144 141.604 258.467 151.582C210.716 161.577 202.552 145.679 204.138 121.646C204.154 121.406 204.17 121.167 204.186 120.93C205.494 101.463 213.047 82.9372 225.723 68.1056C253.058 36.2791 312.639 -10.1973 375.995 87.2745L380.43 98.2418C380.43 98.2418 458.759 119.367 516.057 99.9946Z" fill="#E6E6E6"/>
<path d="M393.714 96.1446C382.255 96.1574 371.269 100.715 363.167 108.818C355.064 116.92 350.507 127.906 350.494 139.364V342.752C350.507 354.682 355.252 366.119 363.688 374.554C372.123 382.989 383.56 387.734 395.49 387.748H502.498C516.874 387.731 530.657 382.013 540.823 371.848C550.988 361.682 556.706 347.899 556.723 333.523V150.792C556.706 136.304 550.944 122.413 540.699 112.168C530.454 101.924 516.564 96.1608 502.075 96.1445L393.714 96.1446Z" fill="#3F3D56"/>
<path d="M412.27 105.015C406.181 105.022 400.342 107.444 396.036 111.75C391.73 116.056 389.307 121.895 389.301 127.985V357.017C389.307 363.106 391.729 368.945 396.036 373.251C400.342 377.558 406.181 379.98 412.27 379.986H514.031C526.232 379.972 537.928 375.12 546.555 366.493C555.182 357.866 560.035 346.169 560.049 333.969V145.558C560.037 134.809 555.761 124.504 548.161 116.903C540.56 109.302 530.255 105.027 519.506 105.015H412.27Z" fill="#3785BA"/>
<path opacity="0.2" d="M408.518 106.288C405.654 108.419 403.328 111.189 401.724 114.379C400.12 117.568 399.283 121.088 399.279 124.658V353.69C399.286 359.78 401.708 365.619 406.014 369.925C410.321 374.231 416.159 376.653 422.249 376.66H524.01C527.87 376.645 531.713 376.142 535.447 375.163C528.577 379.053 520.817 381.097 512.923 381.095H411.162C405.072 381.088 399.233 378.666 394.927 374.36C390.621 370.054 388.198 364.215 388.192 358.125V129.093C388.2 123.462 390.274 118.03 394.021 113.827C397.767 109.624 402.926 106.941 408.518 106.288V106.288Z" fill="black"/>
<path d="M358.255 215.891C370.502 215.891 380.43 203.48 380.43 188.172C380.43 172.863 370.502 160.453 358.255 160.453C346.008 160.453 336.08 172.863 336.08 188.172C336.08 203.48 346.008 215.891 358.255 215.891Z" fill="#3785BA"/>
<path opacity="0.2" d="M373.778 188.172C373.778 174.762 366.159 163.578 356.038 161.009C357.487 160.64 358.977 160.453 360.473 160.453C372.72 160.453 382.648 172.863 382.648 188.172C382.648 203.48 372.72 215.891 360.473 215.891C358.977 215.89 357.487 215.703 356.038 215.334C366.159 212.765 373.778 201.582 373.778 188.172Z" fill="black"/>
<path d="M353.82 259.132V316.787C353.82 318.846 354.638 320.82 356.094 322.275C357.549 323.731 359.523 324.549 361.582 324.549C363.64 324.549 365.614 323.731 367.07 322.275C368.525 320.82 369.343 318.846 369.343 316.787V259.132C369.343 257.073 368.525 255.099 367.07 253.644C365.614 252.188 363.64 251.371 361.582 251.371C359.523 251.371 357.549 252.188 356.094 253.644C354.638 255.099 353.82 257.073 353.82 259.132V259.132Z" fill="#3785BA"/>
<path opacity="0.2" d="M366.016 316.787V259.132C366.01 257.467 365.468 255.847 364.469 254.515C363.471 253.182 362.069 252.206 360.473 251.733C361.19 251.503 361.937 251.381 362.69 251.371C364.748 251.373 366.72 252.192 368.175 253.647C369.63 255.102 370.449 257.074 370.451 259.132V316.787C370.449 318.845 369.63 320.818 368.175 322.273C366.72 323.728 364.748 324.546 362.69 324.549C361.937 324.538 361.19 324.416 360.473 324.187C362.069 323.713 363.471 322.737 364.469 321.405C365.468 320.072 366.01 318.453 366.016 316.787Z" fill="black"/>
<path d="M242.945 377.769C249.068 377.769 254.032 372.805 254.032 366.681C254.032 360.558 249.068 355.594 242.945 355.594C236.821 355.594 231.857 360.558 231.857 366.681C231.857 372.805 236.821 377.769 242.945 377.769Z" fill="white"/>
<path opacity="0.3" d="M249.597 366.681C249.597 364.126 248.714 361.649 247.098 359.669C245.481 357.689 243.231 356.329 240.727 355.817C242.338 355.489 244.001 355.523 245.598 355.917C247.194 356.31 248.682 357.054 249.955 358.094C251.229 359.134 252.255 360.444 252.959 361.929C253.664 363.414 254.029 365.037 254.029 366.681C254.029 368.325 253.664 369.949 252.959 371.434C252.255 372.919 251.229 374.229 249.955 375.269C248.682 376.309 247.194 377.052 245.598 377.446C244.001 377.84 242.338 377.874 240.727 377.545C243.231 377.034 245.481 375.673 247.098 373.694C248.714 371.714 249.597 369.237 249.597 366.681V366.681Z" fill="black"/>
<path d="M237.945 333.769C244.068 333.769 249.032 328.805 249.032 322.681C249.032 316.558 244.068 311.594 237.945 311.594C231.821 311.594 226.857 316.558 226.857 322.681C226.857 328.805 231.821 333.769 237.945 333.769Z" fill="white"/>
<path opacity="0.3" d="M244.597 322.681C244.597 320.126 243.714 317.649 242.098 315.669C240.481 313.689 238.231 312.329 235.727 311.817C237.338 311.489 239.001 311.523 240.598 311.917C242.194 312.31 243.682 313.054 244.955 314.094C246.229 315.134 247.255 316.444 247.959 317.929C248.664 319.414 249.029 321.037 249.029 322.681C249.029 324.325 248.664 325.949 247.959 327.434C247.255 328.919 246.229 330.229 244.955 331.269C243.682 332.309 242.194 333.052 240.598 333.446C239.001 333.84 237.338 333.874 235.727 333.545C238.231 333.034 240.481 331.673 242.098 329.694C243.714 327.714 244.597 325.237 244.597 322.681V322.681Z" fill="black"/>
<path d="M249.597 131.625C255.721 131.625 260.685 126.661 260.685 120.537C260.685 114.414 255.721 109.45 249.597 109.45C243.474 109.45 238.51 114.414 238.51 120.537C238.51 126.661 243.474 131.625 249.597 131.625Z" fill="white"/>
<path opacity="0.3" d="M256.249 120.537C256.249 117.982 255.366 115.505 253.75 113.525C252.134 111.545 249.883 110.185 247.379 109.673C248.99 109.345 250.654 109.379 252.25 109.772C253.846 110.166 255.334 110.91 256.608 111.95C257.881 112.99 258.907 114.3 259.612 115.785C260.316 117.27 260.682 118.893 260.682 120.537C260.682 122.181 260.316 123.805 259.612 125.29C258.907 126.775 257.881 128.085 256.608 129.125C255.334 130.165 253.846 130.908 252.25 131.302C250.654 131.696 248.99 131.73 247.379 131.401C249.883 130.89 252.134 129.529 253.75 127.55C255.366 125.57 256.249 123.093 256.249 120.537V120.537Z" fill="black"/>
<path opacity="0.2" d="M478.986 276.587C491.233 276.587 501.161 264.177 501.161 248.868C501.161 233.56 491.233 221.149 478.986 221.149C466.739 221.149 456.811 233.56 456.811 248.868C456.811 264.177 466.739 276.587 478.986 276.587Z" fill="white"/>
<path opacity="0.2" d="M478.986 300.662C501.87 300.662 520.421 277.473 520.421 248.868C520.421 220.264 501.87 197.075 478.986 197.075C456.102 197.075 437.551 220.264 437.551 248.868C437.551 277.473 456.102 300.662 478.986 300.662Z" fill="white"/>
<path opacity="0.2" d="M478.986 326.901C513.463 326.901 541.412 291.964 541.412 248.868C541.412 205.772 513.463 170.835 478.986 170.835C444.509 170.835 416.56 205.772 416.56 248.868C416.56 291.964 444.509 326.901 478.986 326.901Z" fill="white"/>
<path d="M680.515 306.378L682.01 316.596C682.214 317.984 682.091 319.401 681.652 320.733C681.212 322.065 680.469 323.277 679.481 324.272C678.492 325.267 677.285 326.019 675.956 326.467C674.627 326.915 673.211 327.047 671.822 326.853V326.853C670.473 326.665 669.185 326.174 668.052 325.418C666.92 324.662 665.973 323.659 665.283 322.486C664.592 321.312 664.176 319.997 664.065 318.64C663.954 317.283 664.152 315.918 664.642 314.648L669.715 301.518L667.015 212.959L682.675 207.019L680.515 306.378Z" fill="#FFB8B8"/>
<path d="M636.236 159.5C648.165 159.5 657.835 149.829 657.835 137.9C657.835 125.97 648.165 116.3 636.236 116.3C624.306 116.3 614.636 125.97 614.636 137.9C614.636 149.829 624.306 159.5 636.236 159.5Z" fill="#FFB8B8"/>
<path d="M662.155 178.4L622.195 176.78C626.632 167.064 628.391 157.666 626.515 148.7H652.975C651.584 157.155 655.424 167.308 662.155 178.4Z" fill="#FFB8B8"/>
<path d="M655.675 262.639L596.815 266.959L598.955 233.698C592.171 217.564 593.255 205.913 601.239 198.195L601.962 186.958C602.193 183.361 603.546 179.927 605.83 177.139C608.115 174.351 611.215 172.35 614.696 171.416L624.895 168.68C638.101 176.415 648.628 176.31 656.215 167.6L668.353 173.817C671.294 175.323 673.707 177.688 675.271 180.598C676.836 183.508 677.479 186.824 677.114 190.108L655.675 262.639Z" fill="#1E4470"/>
<path d="M565.496 265.879L548.882 274.601C547.46 275.348 545.829 275.595 544.25 275.303C542.672 275.011 541.237 274.197 540.176 272.991V272.991C539.347 272.049 538.78 270.906 538.532 269.676C538.284 268.446 538.363 267.172 538.763 265.982C539.162 264.792 539.866 263.728 540.806 262.897C541.746 262.065 542.888 261.495 544.117 261.244L555.776 258.859L591.956 244.819L597.896 202.699L614.636 207.019L611.396 256.699L565.496 265.879Z" fill="#FFB8B8"/>
<path d="M683.755 209.719L665.395 220.519L664.315 177.319L667.48 176.239C669.618 176.239 671.734 176.66 673.708 177.478C675.683 178.296 677.477 179.495 678.988 181.006C680.499 182.517 681.698 184.311 682.516 186.286C683.334 188.26 683.755 190.376 683.755 192.514V209.719Z" fill="#1E4470"/>
<path d="M671.065 474.587L655.453 472.145C652.301 418.805 645.951 369.008 634.615 324.738C608.4 359.476 586.425 410.672 567.656 474.317L549.296 469.457L597.356 259.939L654.595 258.859C678.005 290.911 671.151 389.902 671.065 474.587Z" fill="#2F2E41"/>
<path d="M559.548 493.023L532.422 489.221C531.67 489.115 530.949 488.851 530.307 488.445C529.664 488.039 529.116 487.501 528.698 486.867C528.28 486.232 528.002 485.516 527.883 484.766C527.763 484.016 527.805 483.249 528.004 482.516V482.516C528.279 481.511 528.841 480.607 529.622 479.917C530.403 479.226 531.368 478.779 532.4 478.63L537.22 477.934L552.461 468.625L565.069 471.987L568.807 483.02C569.095 484.328 569.062 485.686 568.711 486.978C568.36 488.27 567.702 489.459 566.792 490.441C565.883 491.424 564.749 492.172 563.487 492.622C562.226 493.071 560.874 493.209 559.548 493.023V493.023Z" fill="#2F2E41"/>
<path d="M665.928 493.023L638.801 489.221C638.049 489.115 637.328 488.851 636.686 488.445C636.044 488.039 635.496 487.501 635.078 486.867C634.66 486.232 634.382 485.516 634.262 484.766C634.142 484.016 634.184 483.249 634.384 482.516V482.516C634.658 481.511 635.22 480.607 636.001 479.917C636.782 479.226 637.748 478.779 638.779 478.63L643.599 477.934L658.841 468.625L671.448 471.987L675.187 483.02C675.474 484.328 675.441 485.686 675.091 486.978C674.74 488.27 674.081 489.459 673.172 490.441C672.262 491.424 671.128 492.172 669.867 492.622C668.605 493.071 667.254 493.209 665.928 493.023V493.023Z" fill="#2F2E41"/>
<path d="M617.875 217.819C612.965 207.027 604.487 202.846 590.335 209.179L592.244 195.107C592.96 189.823 595.206 184.864 598.705 180.84C602.203 176.816 606.802 173.903 611.935 172.459V172.459L617.875 217.819Z" fill="#1E4470"/>
<path d="M610.743 126.817C610.743 126.817 607.345 100.372 635.071 109.044C635.071 109.044 654.872 105.41 661.366 130.179L667.942 156.143L664.737 154.399L663.243 157.665L658.05 158.98L655.828 154.569L654.753 159.925L612.221 164.165C612.221 164.165 631.27 152.9 631.572 132.709L627.944 136.544L610.743 126.817Z" fill="#2F2E41"/>
<path d="M657.872 119.997C663.779 119.997 668.567 115.209 668.567 109.303C668.567 103.396 663.779 98.6079 657.872 98.6079C651.966 98.6079 647.178 103.396 647.178 109.303C647.178 115.209 651.966 119.997 657.872 119.997Z" fill="#2F2E41"/>
<path d="M646.852 106.685C647.028 103.971 648.231 101.427 650.217 99.5697C652.203 97.7126 654.823 96.6824 657.542 96.6889C657.321 96.6609 657.102 96.6269 656.877 96.6124C654.046 96.4304 651.259 97.3803 649.129 99.2531C646.999 101.126 645.7 103.768 645.518 106.599C645.336 109.429 646.286 112.216 648.159 114.346C650.032 116.477 652.674 117.776 655.505 117.958C655.73 117.972 655.951 117.966 656.174 117.967C653.476 117.625 651.011 116.268 649.279 114.172C647.547 112.076 646.679 109.398 646.852 106.685V106.685Z" fill="#2F2E41"/>
</svg>
