<svg width="609" height="609" viewBox="0 0 609 609" fill="none" xmlns="http://www.w3.org/2000/svg">
<path d="M262.035 505C222.547 505 190.535 472.988 190.535 433.5C190.535 394.012 222.547 362 262.035 362C301.524 362 333.535 394.012 333.535 433.5C333.535 472.988 301.524 505 262.035 505Z" fill="#0086BF"/>
<path opacity="0.2" d="M314.452 386C321.109 401.591 322.012 419.044 316.999 435.24C311.987 451.437 301.387 465.321 287.092 474.412C272.797 483.503 255.739 487.208 238.967 484.866C222.194 482.524 206.8 474.286 195.535 461.626C199.602 471.151 205.688 479.678 213.372 486.614C221.057 493.551 230.155 498.732 240.038 501.798C249.92 504.864 260.351 505.742 270.606 504.372C280.861 503.001 290.696 499.415 299.43 493.861C308.163 488.307 315.586 480.918 321.184 472.206C326.783 463.494 330.422 453.668 331.851 443.408C333.28 433.149 332.464 422.7 329.46 412.787C326.455 402.875 321.334 393.734 314.452 386Z" fill="black"/>
<path d="M263.035 407H262.851L259.535 609H266.535L263.035 407Z" fill="#3F3D56"/>
<path d="M273.611 513.981L275.254 517.104L263.459 523.314L261.815 520.192L273.611 513.981Z" fill="#3F3D56"/>
<path d="M544.931 559.538C551.91 582.852 541.079 606.687 541.079 606.687C541.079 606.687 518.932 592.724 511.953 569.411C504.974 546.098 515.805 522.262 515.805 522.262C515.805 522.262 537.952 536.225 544.931 559.538Z" fill="#3785BA"/>
<path d="M534.335 560.169C528.461 583.785 540.402 607.084 540.402 607.084C540.402 607.084 561.867 592.094 567.741 568.478C573.615 544.862 561.674 521.563 561.674 521.563C561.674 521.563 540.209 536.553 534.335 560.169Z" fill="#2670A2"/>
<path d="M185.267 583.619L180.825 572.192L222.785 549.619L229.341 566.484L185.267 583.619Z" fill="#FFB8B8"/>
<path d="M161.465 553.81C163.349 553.077 165.358 552.722 167.378 552.766C169.398 552.81 171.39 553.251 173.24 554.065C175.09 554.879 176.76 556.05 178.157 557.51C179.554 558.971 180.65 560.692 181.381 562.576L184.378 570.279L188.998 582.169L190.127 585.084L175.321 590.844L161 553.995L161.465 553.81Z" fill="#2F2E41"/>
<path d="M188.996 561.628L190.929 566.751L195.75 579.54L195.866 579.86C208.151 581.438 221.618 578.344 234.075 573.536C239.059 571.614 243.94 569.436 248.699 567.011C255.744 563.451 262.051 559.695 267.083 556.482C274.658 551.619 279.343 547.969 279.343 547.969C279.343 547.969 280.58 549.087 282.82 551.005C285.821 553.573 290.618 557.583 296.693 562.304C299.01 564.117 301.499 566.014 304.158 567.994C323.759 582.533 348.913 543.738 348.913 543.738C348.913 543.738 341.839 539.234 339.99 538.359C334.039 535.544 320.058 528.9 307.996 522.996C301.782 519.95 296.084 517.093 292.259 515.064C278.713 507.852 261.875 521.498 261.875 521.498L188.996 561.628Z" fill="#2F2E41"/>
<path d="M103.035 453C46.426 453 0.535156 407.109 0.535156 350.5C0.535156 293.891 46.426 248 103.035 248C159.644 248 205.535 293.891 205.535 350.5C205.535 407.109 159.644 453 103.035 453Z" fill="#0086BF"/>
<path opacity="0.2" d="M178.532 282C188.104 304.404 189.403 329.483 182.196 352.757C174.988 376.031 159.745 395.982 139.19 409.045C118.634 422.109 94.1058 427.434 69.9878 424.068C45.8698 420.702 23.7337 408.865 7.53515 390.673C13.3826 404.36 22.1343 416.613 33.184 426.58C44.2337 436.548 57.3172 443.993 71.5279 448.399C85.7387 452.805 100.737 454.067 115.484 452.097C130.23 450.128 144.372 444.974 156.931 436.993C169.489 429.012 180.163 418.394 188.213 405.876C196.263 393.357 201.497 379.238 203.552 364.494C205.606 349.751 204.433 334.737 200.113 320.493C195.793 306.249 188.429 293.114 178.532 282Z" fill="black"/>
<path d="M104.035 318H103.746L98.5352 609H109.535L104.035 318Z" fill="#3F3D56"/>
<path d="M119.349 466.587L121.713 471.078L104.748 480.009L102.384 475.519L119.349 466.587Z" fill="#3F3D56"/>
<path opacity="0.14" d="M188.996 561.628L190.929 566.751L195.75 579.54L195.866 579.86C208.151 581.438 221.618 578.344 234.075 573.536C239.059 571.614 243.94 569.436 248.699 567.011C255.744 563.451 262.051 559.695 267.083 556.482C274.658 551.619 279.343 547.969 279.343 547.969C279.343 547.969 280.58 549.087 282.82 551.005C285.821 553.573 290.618 557.583 296.693 562.304C299.01 564.117 301.499 566.014 304.158 567.994C323.759 582.533 348.913 543.738 348.913 543.738C348.913 543.738 341.839 539.234 339.99 538.359C334.039 535.544 320.058 528.9 307.996 522.996C301.782 519.95 296.084 517.093 292.259 515.064C278.713 507.852 261.875 521.498 261.875 521.498L188.996 561.628Z" fill="black"/>
<path d="M436 337C354.262 337 288 270.514 288 188.5C288 106.486 354.262 40 436 40C517.738 40 584 106.486 584 188.5C584 270.514 517.738 337 436 337Z" fill="#0086BF"/>
<path opacity="0.2" d="M545.381 90C559.229 122.23 561.108 158.309 550.681 191.791C540.255 225.272 518.202 253.974 488.464 272.767C458.727 291.56 423.242 299.22 388.35 294.378C353.459 289.536 321.434 272.508 298 246.336C306.459 266.027 319.121 283.653 335.106 297.993C351.092 312.332 370.02 323.042 390.578 329.38C411.137 335.719 432.835 337.535 454.169 334.701C475.503 331.868 495.963 324.454 514.131 312.972C532.299 301.491 547.741 286.216 559.387 268.207C571.033 250.198 578.605 229.886 581.577 208.676C584.55 187.467 582.852 165.868 576.602 145.376C570.352 124.884 559.699 105.989 545.381 90Z" fill="black"/>
<path d="M436.75 120.311H436.276L427.755 608.843H445.744L436.75 120.311Z" fill="#3F3D56"/>
<path d="M463.019 367L466.988 374.54L438.505 389.536L434.535 381.996L463.019 367Z" fill="#3F3D56"/>
<path d="M385.056 454.077H443.056C444.249 454.075 445.393 453.601 446.237 452.757C447.08 451.914 447.555 450.77 447.556 449.577V424.577C447.556 415.692 444.027 407.171 437.744 400.889C431.462 394.606 422.941 391.077 414.056 391.077C405.171 391.077 396.651 394.606 390.368 400.889C384.086 407.171 380.556 415.692 380.556 424.577V449.577C380.557 450.77 381.032 451.914 381.876 452.757C382.719 453.601 383.863 454.075 385.056 454.077Z" fill="#2F2E41"/>
<path d="M329.899 485.478C331.249 485.715 332.531 486.246 333.654 487.032C334.777 487.818 335.714 488.841 336.399 490.028C337.084 491.215 337.5 492.538 337.619 493.904C337.737 495.27 337.555 496.645 337.084 497.933L352.856 512.438L346.378 524.173L324.393 503.375C322.283 502.441 320.588 500.765 319.63 498.665C318.673 496.566 318.518 494.187 319.197 491.981C319.876 489.775 321.34 487.895 323.312 486.696C325.285 485.498 327.628 485.064 329.899 485.478Z" fill="#FFB8B8"/>
<path d="M377.354 551.43C378.067 551.43 378.78 551.399 379.495 551.338C383.749 550.983 387.844 549.552 391.394 547.181C394.945 544.81 397.834 541.576 399.792 537.782L425.06 489.15C426.715 485.963 427.079 482.261 426.074 478.813C425.07 475.365 422.775 472.437 419.667 470.638C416.559 468.84 412.877 468.308 409.387 469.155C405.897 470.002 402.868 472.162 400.93 475.185L377.619 527.488L345.9 501.716L327.534 508.866L358.55 543.108C360.934 545.725 363.838 547.817 367.076 549.25C370.313 550.682 373.814 551.425 377.354 551.43V551.43Z" fill="#CCCCCC"/>
<path d="M283.889 476.285L311.99 448.184C312.973 447.2 314.307 446.648 315.697 446.648C317.087 446.648 318.421 447.2 319.404 448.184L344.683 473.463C345.666 474.446 346.219 475.78 346.219 477.17C346.219 478.56 345.666 479.893 344.683 480.877L318.427 507.133C317.491 508.069 316.235 508.617 314.911 508.665C313.588 508.713 312.296 508.259 311.294 507.393L284.168 483.958C283.647 483.508 283.22 482.96 282.911 482.345C282.602 481.73 282.417 481.06 282.367 480.373C282.317 479.687 282.403 478.997 282.619 478.344C282.836 477.69 283.179 477.086 283.629 476.565C283.712 476.469 283.799 476.375 283.889 476.285Z" fill="#3F3D56"/>
<path d="M287.867 481.213L316.793 452.288L340.664 476.159L313.302 503.5L287.867 481.213Z" fill="#F2F2F2"/>
<path d="M320.517 475.552C321.918 476.868 321.992 481.606 319.853 483.882C317.715 486.158 314.173 485.111 312.772 483.795C311.371 482.479 312.642 481.392 314.781 479.116C316.92 476.839 319.117 474.236 320.517 475.552Z" fill="#F2F2F2"/>
<path d="M188.812 599.69L183.505 588.639L223.606 562.909L231.439 579.22L188.812 599.69Z" fill="#FFB8B8"/>
<path d="M162.79 571.798C164.611 570.922 166.587 570.414 168.605 570.303C170.623 570.191 172.643 570.478 174.549 571.148C176.456 571.818 178.212 572.856 179.717 574.205C181.222 575.554 182.446 577.186 183.32 579.008L186.9 586.458L192.42 597.958L193.77 600.778L179.45 607.658L162.34 572.018L162.79 571.798Z" fill="#2F2E41"/>
<path d="M190.84 577.478L193.16 582.438L198.95 594.818L199.09 595.128C211.46 595.758 224.65 591.638 236.7 585.888C241.522 583.588 246.221 581.042 250.78 578.258C257.53 574.168 263.53 569.938 268.3 566.348C275.48 560.918 279.87 556.918 279.87 556.918C279.87 556.918 281.19 557.938 283.57 559.678C286.76 562.008 291.85 565.638 298.27 569.878C300.72 571.508 303.347 573.208 306.15 574.978C326.81 587.968 356.19 603.788 381.18 607.128C425.07 612.998 414.74 554.428 414.74 554.428L379.81 536.288L364.98 539.298L348.47 542.638L342.62 543.828C342.62 543.828 341.51 543.408 339.6 542.678C333.45 540.328 319 534.778 306.52 529.818C300.09 527.258 294.19 524.848 290.22 523.118C276.16 516.968 260.42 531.868 260.42 531.868L190.84 577.478Z" fill="#2F2E41"/>
<path d="M478.657 608.526C477.321 608.22 476.069 607.624 474.988 606.781C473.907 605.938 473.024 604.868 472.401 603.647C471.778 602.426 471.431 601.083 471.383 599.713C471.336 598.343 471.589 596.979 472.125 595.717L457.125 580.415L464.201 569.032L485.081 590.938C487.14 591.98 488.746 593.741 489.594 595.888C490.442 598.034 490.473 600.417 489.681 602.585C488.889 604.753 487.33 606.556 485.298 607.651C483.266 608.746 480.904 609.057 478.657 608.526L478.657 608.526Z" fill="#FFB8B8"/>
<path d="M405.844 455.193C392.928 455.193 382.458 444.723 382.458 431.807C382.458 418.891 392.928 408.42 405.844 408.42C418.76 408.42 429.23 418.891 429.23 431.807C429.23 444.723 418.76 455.193 405.844 455.193Z" fill="#FFB8B8"/>
<path d="M436.269 496.724L415.897 554.48L416.02 554.682C418.853 559.366 419.779 563.144 418.697 565.608C418.412 566.235 417.995 566.792 417.474 567.241C416.953 567.691 416.34 568.022 415.679 568.212L367.47 534.515L369.158 521.01L369.064 520.859C364.404 513.404 362.895 506.652 364.579 500.792C366.763 493.188 373.704 489.736 373.774 489.701L373.942 489.569L397.987 460.304L430.129 466.014L436.269 496.724Z" fill="#CCCCCC"/>
<path d="M467.249 598.099L480.896 581.303L447.997 526.993L432.658 479.58L432.183 479.734L432.658 479.58C431.821 476.99 430.437 474.61 428.601 472.6C426.766 470.589 424.52 468.996 422.017 467.927C419.513 466.858 416.809 466.338 414.088 466.402C411.366 466.466 408.69 467.113 406.24 468.299C403.789 469.485 401.621 471.182 399.883 473.276C398.144 475.371 396.874 477.814 396.159 480.441C395.444 483.067 395.3 485.817 395.738 488.504C396.175 491.191 397.183 493.753 398.695 496.017L426.854 538.206L467.249 598.099Z" fill="#CCCCCC"/>
<path d="M372.631 427.077H408.096L408.46 421.985L410.279 427.077H415.739L416.46 416.985L420.064 427.077H430.631V426.577C430.623 419.551 427.829 412.815 422.861 407.847C417.893 402.879 411.157 400.085 404.131 400.077H399.131C392.105 400.085 385.369 402.879 380.401 407.847C375.433 412.815 372.639 419.551 372.631 426.577V427.077Z" fill="#2F2E41"/>
<path d="M408.387 458.743C408.654 458.743 408.92 458.719 409.183 458.673L435.153 454.091V411.171H406.565L407.273 411.996C417.12 423.48 409.701 442.103 404.403 452.181C404.012 452.919 403.838 453.752 403.9 454.585C403.963 455.418 404.259 456.216 404.755 456.888C405.171 457.462 405.716 457.93 406.348 458.252C406.979 458.575 407.678 458.743 408.387 458.743V458.743Z" fill="#2F2E41"/>
</svg>
