<svg width="584" height="569" viewBox="0 0 584 569" fill="none" xmlns="http://www.w3.org/2000/svg">
<path d="M261.5 465C222.012 465 190 432.988 190 393.5C190 354.012 222.012 322 261.5 322C300.988 322 333 354.012 333 393.5C333 432.988 300.988 465 261.5 465Z" fill="#9DABBB"/>
<path opacity="0.2" d="M313.917 346C320.573 361.591 321.476 379.044 316.464 395.24C311.452 411.437 300.852 425.321 286.557 434.412C272.262 443.503 255.204 447.208 238.432 444.866C221.659 442.524 206.265 434.286 195 421.626C199.066 431.151 205.153 439.678 212.837 446.614C220.521 453.551 229.62 458.732 239.503 461.798C249.385 464.864 259.815 465.742 270.071 464.372C280.326 463.001 290.161 459.415 298.894 453.861C307.628 448.307 315.051 440.918 320.649 432.206C326.247 423.494 329.887 413.668 331.316 403.408C332.745 393.149 331.929 382.7 328.925 372.787C325.92 362.875 320.799 353.734 313.917 346Z" fill="black"/>
<path d="M262.5 367H262.316L259 569H266L262.5 367Z" fill="#3F3D56"/>
<path d="M273.075 473.981L274.719 477.104L262.924 483.314L261.28 480.191L273.075 473.981Z" fill="#3F3D56"/>
<path d="M544.396 519.539C551.375 542.852 540.544 566.687 540.544 566.687C540.544 566.687 518.397 552.724 511.418 529.411C504.439 506.098 515.27 482.263 515.27 482.263C515.27 482.263 537.417 496.226 544.396 519.539Z" fill="#8F9091"/>
<path d="M533.8 520.169C527.926 543.785 539.867 567.084 539.867 567.084C539.867 567.084 561.332 552.094 567.206 528.478C573.08 504.862 561.138 481.563 561.138 481.563C561.138 481.563 539.673 496.553 533.8 520.169Z" fill="#5F6B78"/>
<path d="M184.732 543.619L180.29 532.192L222.25 509.619L228.806 526.484L184.732 543.619Z" fill="#FFB8B8"/>
<path d="M160.93 513.81C162.813 513.077 164.823 512.722 166.843 512.766C168.863 512.81 170.855 513.251 172.705 514.065C174.554 514.879 176.225 516.05 177.622 517.51C179.019 518.971 180.114 520.692 180.846 522.576L183.843 530.279L188.463 542.169L189.592 545.084L174.786 550.844L160.465 513.995L160.93 513.81Z" fill="#2F2E41"/>
<path d="M188.461 521.628L190.393 526.751L195.215 539.54L195.331 539.86C207.616 541.438 221.083 538.344 233.54 533.536C238.524 531.614 243.405 529.436 248.164 527.011C255.208 523.451 261.516 519.695 266.547 516.482C274.123 511.619 278.808 507.969 278.808 507.969C278.808 507.969 280.045 509.087 282.285 511.005C285.286 513.573 290.082 517.583 296.158 522.304C298.475 524.117 300.963 526.014 303.622 527.994C323.223 542.533 348.378 503.738 348.378 503.738C348.378 503.738 341.303 499.234 339.455 498.359C333.504 495.544 319.523 488.9 307.461 482.996C301.247 479.95 295.549 477.093 291.724 475.064C278.178 467.852 261.34 481.498 261.34 481.498L188.461 521.628Z" fill="#2F2E41"/>
<path d="M102.5 413C45.8908 413 0 367.109 0 310.5C0 253.891 45.8908 208 102.5 208C159.109 208 205 253.891 205 310.5C205 367.109 159.109 413 102.5 413Z" fill="#9DABBB"/>
<path opacity="0.2" d="M177.997 242C187.569 264.404 188.868 289.483 181.66 312.757C174.453 336.031 159.21 355.982 138.654 369.045C118.099 382.109 93.5706 387.434 69.4526 384.068C45.3347 380.702 23.1986 368.865 6.99999 350.673C12.8474 364.36 21.5992 376.613 32.6489 386.58C43.6986 396.548 56.7821 403.993 70.9928 408.399C85.2035 412.805 100.202 414.067 114.948 412.097C129.695 410.128 143.837 404.974 156.396 396.993C168.954 389.012 179.628 378.394 187.678 365.876C195.728 353.357 200.962 339.238 203.016 324.494C205.071 309.751 203.898 294.737 199.578 280.493C195.258 266.249 187.894 253.114 177.997 242Z" fill="black"/>
<path d="M103.5 278H103.21L98 569H109L103.5 278Z" fill="#3F3D56"/>
<path d="M118.813 426.587L121.178 431.078L104.213 440.009L101.848 435.519L118.813 426.587Z" fill="#3F3D56"/>
<path opacity="0.14" d="M188.461 521.628L190.393 526.751L195.215 539.54L195.331 539.86C207.616 541.438 221.083 538.344 233.54 533.536C238.524 531.614 243.405 529.436 248.164 527.011C255.208 523.451 261.516 519.695 266.547 516.482C274.123 511.619 278.808 507.969 278.808 507.969C278.808 507.969 280.045 509.087 282.285 511.005C285.286 513.573 290.082 517.583 296.158 522.304C298.475 524.117 300.963 526.014 303.622 527.994C323.223 542.533 348.378 503.738 348.378 503.738C348.378 503.738 341.303 499.234 339.455 498.359C333.504 495.544 319.523 488.9 307.461 482.996C301.247 479.95 295.549 477.093 291.724 475.064C278.178 467.852 261.34 481.498 261.34 481.498L188.461 521.628Z" fill="black"/>
<path d="M435.465 297C353.727 297 287.465 230.514 287.465 148.5C287.465 66.4857 353.727 0 435.465 0C517.203 0 583.465 66.4857 583.465 148.5C583.465 230.514 517.203 297 435.465 297Z" fill="#9DABBB"/>
<path opacity="0.2" d="M544.846 50C558.694 82.2301 560.573 118.309 550.146 151.791C539.719 185.272 517.667 213.974 487.929 232.767C458.192 251.56 422.707 259.22 387.815 254.378C352.924 249.536 320.899 232.508 297.465 206.336C305.924 226.027 318.585 243.653 334.571 257.993C350.557 272.332 369.485 283.042 390.043 289.38C410.602 295.719 432.3 297.535 453.634 294.701C474.968 291.868 495.427 284.454 513.596 272.972C531.764 261.491 547.206 246.216 558.852 228.207C570.498 210.198 578.069 189.886 581.042 168.676C584.015 147.467 582.317 125.868 576.067 105.376C569.817 84.8839 559.164 65.9889 544.846 50Z" fill="black"/>
<path d="M436.215 80.311H435.741L427.22 568.843H445.209L436.215 80.311Z" fill="#3F3D56"/>
<path d="M462.484 327L466.453 334.54L437.969 349.536L434 341.996L462.484 327Z" fill="#3F3D56"/>
<path d="M384.521 414.077H442.521C443.714 414.075 444.858 413.601 445.702 412.757C446.545 411.914 447.02 410.77 447.021 409.577V384.577C447.021 375.692 443.492 367.171 437.209 360.889C430.927 354.606 422.406 351.077 413.521 351.077C404.636 351.077 396.115 354.606 389.833 360.889C383.55 367.171 380.021 375.692 380.021 384.577V409.577C380.022 410.77 380.497 411.914 381.341 412.757C382.184 413.601 383.328 414.075 384.521 414.077Z" fill="#2F2E41"/>
<path d="M329.364 445.478C330.714 445.715 331.996 446.245 333.119 447.031C334.242 447.818 335.179 448.84 335.864 450.028C336.549 451.215 336.965 452.538 337.084 453.904C337.202 455.27 337.02 456.645 336.549 457.932L352.321 472.438L345.843 484.172L323.858 463.375C321.748 462.441 320.053 460.765 319.095 458.665C318.137 456.565 317.983 454.187 318.662 451.981C319.34 449.775 320.805 447.895 322.777 446.696C324.749 445.498 327.093 445.064 329.364 445.478Z" fill="#FFB8B8"/>
<path d="M376.819 511.43C377.532 511.43 378.245 511.399 378.96 511.338C383.214 510.983 387.309 509.552 390.859 507.181C394.409 504.81 397.299 501.576 399.257 497.782L424.525 449.15C426.18 445.963 426.544 442.261 425.539 438.813C424.535 435.365 422.24 432.437 419.132 430.638C416.024 428.84 412.342 428.308 408.852 429.155C405.362 430.002 402.333 432.162 400.395 435.185L377.084 487.488L345.365 461.716L326.999 468.866L358.015 503.108C360.399 505.725 363.303 507.817 366.54 509.25C369.778 510.682 373.279 511.425 376.819 511.43V511.43Z" fill="#CCCCCC"/>
<path d="M283.354 436.285L311.455 408.184C312.438 407.201 313.772 406.648 315.162 406.648C316.552 406.648 317.885 407.201 318.868 408.184L344.148 433.464C345.131 434.447 345.684 435.78 345.684 437.17C345.684 438.56 345.131 439.894 344.148 440.877L317.892 467.133C316.956 468.07 315.699 468.617 314.376 468.665C313.053 468.713 311.76 468.259 310.758 467.393L283.633 443.959C283.112 443.509 282.685 442.96 282.376 442.345C282.067 441.73 281.882 441.06 281.832 440.374C281.782 439.687 281.868 438.997 282.084 438.344C282.3 437.69 282.644 437.086 283.094 436.565C283.177 436.469 283.263 436.376 283.354 436.285Z" fill="#3F3D56"/>
<path d="M287.332 441.213L316.258 412.288L340.129 436.159L312.767 463.5L287.332 441.213Z" fill="#F2F2F2"/>
<path d="M319.982 435.552C321.383 436.868 321.457 441.606 319.318 443.882C317.179 446.158 313.638 445.111 312.237 443.795C310.836 442.479 312.107 441.392 314.246 439.116C316.384 436.839 318.581 434.236 319.982 435.552Z" fill="#F2F2F2"/>
<path d="M188.277 559.69L182.97 548.639L223.071 522.909L230.904 539.22L188.277 559.69Z" fill="#FFB8B8"/>
<path d="M162.255 531.798C164.076 530.922 166.052 530.414 168.07 530.303C170.088 530.191 172.108 530.478 174.014 531.148C175.921 531.818 177.677 532.856 179.182 534.205C180.687 535.554 181.911 537.186 182.785 539.008L186.365 546.458L191.885 557.958L193.235 560.778L178.915 567.658L161.805 532.018L162.255 531.798Z" fill="#2F2E41"/>
<path d="M190.305 537.478L192.625 542.438L198.415 554.818L198.555 555.128C210.925 555.758 224.115 551.638 236.165 545.888C240.986 543.589 245.686 541.042 250.245 538.258C256.995 534.168 262.995 529.938 267.765 526.348C274.945 520.918 279.335 516.918 279.335 516.918C279.335 516.918 280.655 517.938 283.035 519.678C286.225 522.008 291.315 525.638 297.735 529.878C300.185 531.508 302.812 533.208 305.615 534.978C326.275 547.968 355.655 563.788 380.645 567.128C424.535 572.998 414.205 514.428 414.205 514.428L379.275 496.288L364.445 499.298L347.935 502.638L342.085 503.828C342.085 503.828 340.975 503.408 339.065 502.678C332.915 500.328 318.465 494.778 305.985 489.818C299.555 487.258 293.655 484.848 289.685 483.118C275.625 476.968 259.885 491.868 259.885 491.868L190.305 537.478Z" fill="#2F2E41"/>
<path d="M478.122 568.526C476.786 568.22 475.533 567.624 474.453 566.781C473.372 565.938 472.489 564.868 471.866 563.647C471.243 562.426 470.896 561.083 470.848 559.713C470.8 558.343 471.054 556.979 471.59 555.717L456.59 540.415L463.665 529.032L484.545 550.938C486.605 551.98 488.211 553.741 489.059 555.888C489.907 558.034 489.938 560.417 489.146 562.585C488.354 564.753 486.795 566.556 484.763 567.651C482.731 568.746 480.368 569.057 478.122 568.526L478.122 568.526Z" fill="#FFB8B8"/>
<path d="M405.309 415.193C392.393 415.193 381.923 404.723 381.923 391.807C381.923 378.891 392.393 368.42 405.309 368.42C418.225 368.42 428.695 378.891 428.695 391.807C428.695 404.723 418.225 415.193 405.309 415.193Z" fill="#FFB8B8"/>
<path d="M435.734 456.724L415.362 514.479L415.484 514.682C418.318 519.366 419.244 523.144 418.162 525.608C417.877 526.234 417.46 526.791 416.938 527.241C416.417 527.691 415.805 528.022 415.144 528.212L366.935 494.515L368.623 481.01L368.529 480.859C363.869 473.403 362.36 466.651 364.044 460.791C366.228 453.187 373.169 449.735 373.239 449.701L373.407 449.569L397.452 420.304L429.594 426.014L435.734 456.724Z" fill="#CCCCCC"/>
<path d="M466.714 558.099L480.361 541.303L447.462 486.993L432.123 439.58L431.647 439.734L432.123 439.58C431.285 436.99 429.902 434.61 428.066 432.6C426.23 430.589 423.985 428.996 421.482 427.927C418.978 426.858 416.274 426.338 413.553 426.402C410.831 426.466 408.155 427.113 405.705 428.299C403.254 429.485 401.086 431.182 399.347 433.276C397.608 435.371 396.339 437.814 395.624 440.441C394.909 443.067 394.765 445.817 395.202 448.504C395.64 451.191 396.648 453.753 398.16 456.017L426.319 498.206L466.714 558.099Z" fill="#CCCCCC"/>
<path d="M372.096 387.077H407.561L407.925 381.985L409.743 387.077H415.204L415.925 376.985L419.529 387.077H430.096V386.577C430.088 379.551 427.293 372.815 422.325 367.847C417.357 362.879 410.622 360.085 403.596 360.077H398.596C391.57 360.085 384.834 362.879 379.866 367.847C374.898 372.815 372.104 379.551 372.096 386.577V387.077Z" fill="#2F2E41"/>
<path d="M407.852 418.743C408.119 418.743 408.385 418.719 408.648 418.673L434.617 414.091V371.171H406.03L406.738 371.996C416.585 383.48 409.166 402.103 403.868 412.181C403.477 412.919 403.303 413.752 403.365 414.585C403.428 415.418 403.724 416.216 404.22 416.888C404.635 417.462 405.181 417.93 405.812 418.252C406.444 418.575 407.143 418.743 407.852 418.743V418.743Z" fill="#2F2E41"/>
</svg>
