<svg width="766" height="615" viewBox="0 0 766 615" fill="none" xmlns="http://www.w3.org/2000/svg">
<g clip-path="url(#clip0_1225:2525)">
<path d="M585.208 365.094C583.513 363.878 581.436 363.314 579.359 363.507C577.282 363.701 575.345 364.638 573.903 366.146C572.343 367.847 571.507 370.09 571.572 372.398C571.637 374.706 572.599 376.898 574.253 378.507L585.064 389.266C585.232 389.435 585.431 389.569 585.65 389.661C585.869 389.752 586.104 389.799 586.342 389.799C586.58 389.799 586.815 389.752 587.034 389.661C587.254 389.569 587.453 389.435 587.62 389.266L598.399 378.435C600.044 376.818 600.995 374.621 601.048 372.313C601.102 370.005 600.254 367.767 598.685 366.074C597.231 364.577 595.287 363.654 593.209 363.472C591.131 363.291 589.056 363.864 587.365 365.086C587.054 365.318 586.676 365.444 586.288 365.446C585.899 365.447 585.521 365.324 585.208 365.094V365.094Z" fill="#3785BA"/>
<path d="M113.92 119.625C112.225 118.409 110.149 117.845 108.072 118.039C105.995 118.232 104.058 119.169 102.616 120.677C101.056 122.378 100.219 124.621 100.285 126.929C100.35 129.237 101.312 131.429 102.966 133.038L113.777 143.798C113.944 143.967 114.143 144.101 114.363 144.192C114.582 144.284 114.817 144.331 115.055 144.331C115.292 144.331 115.528 144.284 115.747 144.192C115.966 144.101 116.165 143.967 116.333 143.798L127.112 132.967C128.757 131.349 129.707 129.153 129.761 126.844C129.814 124.536 128.967 122.298 127.398 120.606C125.944 119.109 124 118.185 121.922 118.004C119.843 117.822 117.769 118.395 116.078 119.617C115.766 119.85 115.389 119.976 115.001 119.977C114.612 119.979 114.234 119.855 113.92 119.625Z" fill="#3785BA"/>
<path d="M13.6138 338.793C11.9188 337.577 9.84211 337.013 7.76538 337.207C5.68866 337.4 3.75134 338.337 2.30932 339.845C0.749058 341.546 -0.0872327 343.789 -0.0218235 346.097C0.0435857 348.405 1.00553 350.597 2.65959 352.206L13.4705 362.966C13.6378 363.135 13.8368 363.269 14.0561 363.36C14.2754 363.452 14.5107 363.499 14.7483 363.499C14.9858 363.499 15.2211 363.452 15.4404 363.36C15.6597 363.269 15.8587 363.135 16.026 362.966L26.8051 352.135C28.4503 350.517 29.4007 348.321 29.4542 346.012C29.5077 343.704 28.6602 341.466 27.0917 339.774C25.6371 338.277 23.6933 337.353 21.6151 337.172C19.5368 336.99 17.4627 337.563 15.7712 338.785C15.4598 339.018 15.0822 339.144 14.6938 339.145C14.3055 339.147 13.927 339.023 13.6138 338.793V338.793Z" fill="#3785BA"/>
<path d="M584.411 98.1079C582.716 96.8913 580.639 96.3278 578.562 96.5211C576.486 96.7144 574.548 97.6513 573.106 99.1599C571.546 100.861 570.71 103.103 570.775 105.412C570.84 107.72 571.802 109.911 573.456 111.521L584.267 122.28C584.435 122.449 584.634 122.583 584.853 122.675C585.072 122.766 585.308 122.813 585.545 122.813C585.783 122.813 586.018 122.766 586.237 122.675C586.457 122.583 586.656 122.449 586.823 122.28L597.602 111.449C599.247 109.831 600.198 107.635 600.251 105.327C600.305 103.019 599.457 100.781 597.889 99.0881C596.434 97.591 594.49 96.6675 592.412 96.486C590.334 96.3046 588.26 96.8774 586.568 98.0999C586.257 98.3321 585.879 98.4582 585.491 98.4596C585.102 98.461 584.724 98.3377 584.411 98.1079Z" fill="#3785BA"/>
<path d="M520.644 58.9121H518.256V72.4606H520.644V58.9121Z" fill="#3785BA"/>
<path d="M526.217 66.8812V64.4902H512.683V66.8812H526.217Z" fill="#3785BA"/>
<path d="M625.728 243.014H623.34V256.562H625.728V243.014Z" fill="#3785BA"/>
<path d="M631.301 250.983V248.592H617.767V250.983H631.301Z" fill="#3785BA"/>
<path d="M156.035 411.174H153.646V424.722H156.035V411.174Z" fill="#3785BA"/>
<path d="M161.607 419.145V416.754H148.074V419.145H161.607Z" fill="#3785BA"/>
<path d="M101.103 58.9121H98.7148V72.4606H101.103V58.9121Z" fill="#3785BA"/>
<path d="M106.676 66.8812V64.4902H93.1422V66.8812H106.676Z" fill="#3785BA"/>
<path d="M206.187 80.4297H203.799V93.9782H206.187V80.4297Z" fill="#3785BA"/>
<path d="M211.76 88.4007V86.0098H198.226V88.4007H211.76Z" fill="#3785BA"/>
<path d="M153.726 228.604C153.067 228.318 152.537 227.799 152.236 227.146C151.935 226.494 151.884 225.753 152.094 225.065C152.128 224.959 152.149 224.85 152.158 224.739V224.739C152.178 224.423 152.096 224.11 151.924 223.845C151.752 223.58 151.499 223.378 151.203 223.268C150.906 223.159 150.583 223.148 150.28 223.238C149.977 223.328 149.712 223.513 149.523 223.766C149.459 223.856 149.406 223.952 149.363 224.053C149.076 224.712 148.558 225.242 147.906 225.543C147.255 225.844 146.516 225.895 145.829 225.687C145.723 225.654 145.613 225.633 145.502 225.623C145.187 225.603 144.874 225.685 144.61 225.857C144.345 226.03 144.143 226.283 144.034 226.579C143.925 226.876 143.914 227.2 144.004 227.503C144.093 227.806 144.278 228.072 144.531 228.261V228.261C144.619 228.327 144.716 228.38 144.818 228.421C145.476 228.709 146.006 229.23 146.307 229.884C146.607 230.537 146.658 231.278 146.45 231.967C146.413 232.07 146.391 232.177 146.386 232.286C146.366 232.601 146.448 232.915 146.62 233.18C146.792 233.445 147.045 233.647 147.341 233.756C147.638 233.865 147.961 233.876 148.264 233.786C148.567 233.697 148.832 233.511 149.021 233.258C149.084 233.168 149.137 233.072 149.18 232.971C149.473 232.319 149.994 231.797 150.646 231.503C151.297 231.209 152.033 231.165 152.715 231.377C152.821 231.411 152.931 231.432 153.041 231.441C153.356 231.458 153.668 231.374 153.931 231.2C154.194 231.027 154.395 230.774 154.504 230.477C154.612 230.181 154.623 229.858 154.535 229.555C154.447 229.253 154.264 228.986 154.013 228.795V228.795C153.924 228.722 153.828 228.657 153.726 228.604V228.604Z" fill="#1E4470"/>
<path d="M605.11 5.45152C604.458 5.15852 603.937 4.63669 603.643 3.98468C603.35 3.33268 603.305 2.59566 603.518 1.91296C603.551 1.80678 603.573 1.69717 603.582 1.5862C603.602 1.2708 603.52 0.957269 603.348 0.692319C603.176 0.427368 602.923 0.22518 602.626 0.115877C602.33 0.0065733 602.007 -0.00399378 601.704 0.0857483C601.401 0.17549 601.136 0.360738 600.947 0.613894V0.613894C600.883 0.703192 600.829 0.799445 600.787 0.900804C600.493 1.55198 599.972 2.07327 599.321 2.36677C598.67 2.66027 597.935 2.70578 597.253 2.49475C597.146 2.46215 597.037 2.44078 596.926 2.43099C596.611 2.41065 596.298 2.49275 596.033 2.66507C595.769 2.83738 595.567 3.09068 595.458 3.38723C595.348 3.68379 595.338 4.00772 595.427 4.31076C595.517 4.61381 595.702 4.87975 595.955 5.06897V5.06897C596.043 5.13439 596.14 5.18798 596.242 5.22837C596.9 5.51725 597.43 6.03776 597.73 6.69135C598.031 7.34493 598.082 8.08623 597.874 8.77489C597.836 8.87731 597.815 8.98481 597.81 9.09368C597.79 9.40908 597.872 9.72262 598.044 9.98757C598.216 10.2525 598.469 10.4547 598.765 10.564C599.061 10.6733 599.385 10.6839 599.688 10.5941C599.99 10.5044 600.256 10.3191 600.445 10.066V10.066C600.507 9.97586 600.561 9.87976 600.604 9.77908C600.897 9.12676 601.418 8.60438 602.069 8.31068C602.721 8.01698 603.457 7.97232 604.139 8.18514C604.245 8.21859 604.354 8.23998 604.465 8.24889V8.24889C604.78 8.26601 605.092 8.18164 605.355 8.00818C605.618 7.83472 605.819 7.58132 605.928 7.28522C606.036 6.98911 606.047 6.66591 605.959 6.36311C605.87 6.06031 605.687 5.79387 605.436 5.60295V5.60295C605.333 5.54075 605.224 5.48998 605.11 5.45152V5.45152Z" fill="#3785BA"/>
<path d="M324.886 18.2035C324.234 17.9105 323.712 17.3886 323.419 16.7366C323.125 16.0846 323.081 15.3476 323.293 14.6649C323.327 14.5587 323.348 14.4491 323.357 14.3382C323.377 14.0228 323.295 13.7092 323.123 13.4443C322.951 13.1793 322.698 12.9771 322.402 12.8678C322.106 12.7585 321.782 12.748 321.479 12.8377C321.177 12.9274 320.911 13.1127 320.722 13.3658V13.3658C320.658 13.4551 320.605 13.5514 320.563 13.6528C320.269 14.3039 319.747 14.8252 319.096 15.1187C318.446 15.4122 317.71 15.4577 317.028 15.2467C316.922 15.2141 316.812 15.1927 316.702 15.1829C316.387 15.1626 316.073 15.2447 315.809 15.417C315.544 15.5893 315.342 15.8426 315.233 16.1392C315.124 16.4357 315.113 16.7597 315.203 17.0627C315.292 17.3658 315.478 17.6317 315.73 17.8209V17.8209C315.819 17.8863 315.915 17.9399 316.017 17.9803C316.675 18.2692 317.205 18.7897 317.506 19.4433C317.807 20.0969 317.858 20.8382 317.649 21.5268C317.612 21.6293 317.59 21.7368 317.585 21.8456V21.8456C317.565 22.161 317.647 22.4746 317.819 22.7395C317.991 23.0045 318.244 23.2067 318.541 23.316C318.837 23.4253 319.16 23.4358 319.463 23.3461C319.766 23.2563 320.031 23.0711 320.22 22.8179V22.8179C320.283 22.7278 320.336 22.6317 320.38 22.531C320.672 21.8787 321.194 21.3563 321.845 21.0626C322.496 20.7689 323.232 20.7243 323.914 20.9371C324.02 20.9705 324.13 20.9919 324.241 21.0008V21.0008C324.555 21.018 324.867 20.9336 325.13 20.7601C325.394 20.5867 325.594 20.3333 325.703 20.0372C325.812 19.7411 325.823 19.4179 325.734 19.1151C325.646 18.8123 325.463 18.5458 325.212 18.3549V18.3549C325.109 18.2927 324.999 18.2419 324.886 18.2035V18.2035Z" fill="#1E4470"/>
<path d="M177.609 316.27C176.95 315.984 176.419 315.465 176.118 314.812C175.817 314.16 175.767 313.419 175.977 312.731C176.01 312.625 176.032 312.516 176.041 312.405V312.405C176.061 312.089 175.979 311.776 175.807 311.511C175.635 311.246 175.382 311.044 175.085 310.934C174.789 310.825 174.466 310.814 174.163 310.904C173.86 310.994 173.595 311.179 173.406 311.432V311.432C173.342 311.522 173.288 311.618 173.246 311.719C172.959 312.378 172.441 312.908 171.789 313.209C171.138 313.51 170.398 313.561 169.712 313.353C169.605 313.32 169.496 313.299 169.385 313.289C169.07 313.269 168.757 313.351 168.492 313.523C168.228 313.696 168.026 313.949 167.917 314.245C167.807 314.542 167.797 314.866 167.886 315.169C167.976 315.472 168.161 315.738 168.414 315.927C168.502 315.993 168.599 316.046 168.701 316.087C169.359 316.375 169.889 316.896 170.189 317.55C170.49 318.203 170.541 318.944 170.333 319.633C170.295 319.735 170.274 319.843 170.269 319.952V319.952C170.249 320.267 170.331 320.581 170.503 320.846C170.675 321.111 170.928 321.313 171.224 321.422C171.52 321.531 171.844 321.542 172.147 321.452C172.449 321.363 172.715 321.177 172.904 320.924V320.924C172.966 320.834 173.02 320.738 173.063 320.637C173.356 319.985 173.877 319.463 174.528 319.169C175.18 318.875 175.916 318.831 176.598 319.043C176.704 319.077 176.813 319.098 176.924 319.107V319.107C177.239 319.124 177.551 319.04 177.814 318.866C178.077 318.693 178.278 318.44 178.387 318.143C178.495 317.847 178.506 317.524 178.418 317.221C178.329 316.918 178.146 316.652 177.895 316.461C177.807 316.388 177.711 316.323 177.609 316.27V316.27Z" fill="#1E4470"/>
<path d="M529.481 214.258C528.83 213.965 528.308 213.443 528.014 212.791C527.721 212.139 527.676 211.402 527.889 210.72C527.922 210.613 527.944 210.504 527.953 210.393V210.393C527.973 210.077 527.891 209.764 527.719 209.499C527.547 209.234 527.294 209.032 526.997 208.923C526.701 208.813 526.378 208.803 526.075 208.892C525.772 208.982 525.507 209.167 525.318 209.421C525.254 209.51 525.2 209.606 525.158 209.707C524.871 210.366 524.353 210.896 523.701 211.197C523.05 211.498 522.311 211.55 521.624 211.341C521.517 211.309 521.408 211.287 521.297 211.277V211.277C520.982 211.257 520.669 211.339 520.404 211.512C520.14 211.684 519.938 211.937 519.829 212.234C519.72 212.53 519.709 212.854 519.799 213.157C519.888 213.46 520.073 213.726 520.326 213.915V213.915C520.414 213.981 520.511 214.034 520.613 214.075C521.271 214.364 521.801 214.884 522.102 215.538C522.402 216.191 522.453 216.933 522.245 217.621C522.207 217.724 522.186 217.831 522.181 217.94C522.161 218.256 522.243 218.569 522.415 218.834C522.587 219.099 522.84 219.301 523.136 219.41C523.432 219.52 523.756 219.53 524.059 219.441C524.361 219.351 524.627 219.166 524.816 218.912V218.912C524.879 218.822 524.932 218.726 524.975 218.626C525.268 217.973 525.789 217.451 526.441 217.157C527.092 216.863 527.828 216.819 528.51 217.032C528.616 217.065 528.726 217.086 528.836 217.095V217.095C529.151 217.112 529.463 217.028 529.726 216.855C529.989 216.681 530.19 216.428 530.299 216.132C530.407 215.836 530.418 215.512 530.33 215.21C530.242 214.907 530.058 214.64 529.808 214.449V214.449C529.706 214.373 529.597 214.309 529.481 214.258V214.258Z" fill="#1E4470"/>
<path d="M765.124 131.373C764.472 131.08 763.95 130.559 763.657 129.907C763.364 129.255 763.319 128.518 763.532 127.835C763.565 127.729 763.586 127.619 763.595 127.508V127.508C763.616 127.193 763.534 126.879 763.361 126.614C763.189 126.349 762.936 126.147 762.64 126.038C762.344 125.928 762.02 125.918 761.718 126.008C761.415 126.097 761.149 126.283 760.96 126.536V126.536C760.896 126.625 760.843 126.721 760.801 126.823C760.514 127.481 759.995 128.011 759.344 128.312C758.692 128.614 757.953 128.665 757.266 128.456C757.16 128.424 757.051 128.403 756.94 128.393C756.625 128.372 756.312 128.454 756.047 128.627C755.782 128.799 755.58 129.052 755.471 129.349C755.362 129.646 755.351 129.969 755.441 130.272C755.531 130.576 755.716 130.841 755.969 131.031V131.031C756.057 131.096 756.153 131.15 756.255 131.19C756.906 131.486 757.427 132.009 757.72 132.662C758.013 133.315 758.059 134.053 757.847 134.737C757.81 134.839 757.789 134.947 757.784 135.055V135.055C757.764 135.371 757.846 135.684 758.018 135.949C758.19 136.214 758.443 136.416 758.739 136.526C759.035 136.635 759.359 136.646 759.662 136.556C759.964 136.466 760.23 136.281 760.419 136.028C760.481 135.938 760.535 135.841 760.578 135.741C760.871 135.088 761.392 134.566 762.043 134.272C762.695 133.979 763.431 133.934 764.113 134.147C764.219 134.18 764.328 134.202 764.439 134.211V134.211C764.754 134.228 765.066 134.143 765.329 133.97C765.592 133.796 765.793 133.543 765.901 133.247C766.01 132.951 766.021 132.628 765.933 132.325C765.844 132.022 765.661 131.756 765.41 131.565V131.565C765.322 131.491 765.226 131.427 765.124 131.373V131.373Z" fill="#1E4470"/>
<path d="M502.199 269.871L502.327 270.27C502.271 270.141 502.228 270.008 502.199 269.871V269.871Z" fill="url(#paint0_linear_1225:2525)"/>
<path d="M130.718 589.417C130.638 589.305 130.558 589.194 130.495 589.082C130.431 588.97 130.407 588.923 130.367 588.843C130.303 588.735 130.244 588.623 130.192 588.508L130.097 588.269C130.057 588.158 130.009 588.038 129.977 587.926L129.914 587.695C129.914 587.584 129.858 587.464 129.834 587.345V587.129C129.834 587.01 129.834 586.882 129.834 586.763C129.834 586.643 129.834 586.635 129.834 586.564C129.834 586.492 129.834 586.309 129.834 586.189C129.834 586.07 129.834 586.07 129.834 586.006L129.882 585.607C129.882 585.559 129.882 585.504 129.882 585.456C129.906 585.316 129.938 585.178 129.977 585.041V584.914C130.014 584.77 130.062 584.627 130.121 584.484C130.121 584.484 130.121 584.412 130.121 584.38C130.121 584.348 130.24 584.077 130.304 583.926V583.862C130.375 583.703 130.455 583.543 130.535 583.392L130.813 582.906C131.885 581.256 133.231 579.803 134.794 578.61C146.695 583.511 161.391 577.908 161.391 577.908C161.391 577.908 180.991 568.098 179.59 570.903C179.12 571.844 179.359 573.732 179.892 575.828C189.286 573.86 194.461 568.807 197.287 564.232L186.587 552.684C186.587 552.684 230.054 528.122 234.926 515.514C239.798 502.905 263.585 467.169 263.585 467.169C263.585 467.169 271.284 439.14 285.287 432.836C285.287 432.836 313.206 399.45 329.502 370.815C323.714 356.398 315.65 333.86 317.481 324.224C319.766 312.27 317.393 289.54 316.446 281.554C308.7 288.018 277.223 313.632 264.987 313.019C260.592 312.796 255.855 310.436 251.453 307.304C240.881 300.602 231.423 288.496 231.423 288.496C232.848 288.631 234.019 287.324 234.966 285.141C223.279 272.389 199.07 246.28 196.427 245.754C192.932 245.053 174.033 212.114 184.534 205.109C195.034 198.103 213.925 223.327 214.626 228.221C215.103 231.544 229.752 246.153 239.114 255.206C239.114 254.975 239.114 254.84 239.114 254.84L240.499 255.533C240.499 255.095 240.499 254.84 240.499 254.84L264.668 266.946L285.295 238.725C285.295 238.725 290.868 208.599 304.895 203.658C318.922 198.717 329.04 183.694 329.04 183.694C329.17 184.185 329.274 184.682 329.351 185.184C330.059 184.252 330.441 183.694 330.441 183.694C330.441 183.694 330.441 183.813 330.521 184.029C331.583 179.717 331.853 175.247 331.317 170.839L331.118 170.719C331.03 170.177 330.943 169.659 330.847 169.165C323.713 164.81 318.368 158.046 315.779 150.093C313.189 142.139 313.524 133.521 316.725 125.794C313.158 123.299 307.968 121.745 303.589 119.848C296.974 117.003 291.449 112.819 287.803 107.894C290.211 107.29 292.737 107.342 295.119 108.045C295.413 104.809 291.68 101.112 294.585 98.6489C296.384 97.1187 299.736 97.2542 302.307 98.0113C304.879 98.7684 307.203 100.02 309.934 100.354C314.711 100.936 319.161 98.633 322.552 96.1464C325.943 93.6598 329.112 90.7509 333.65 89.5714C342.629 87.2362 351.546 92.5919 360.565 94.8553C375.054 98.4895 383.7 102.363 384.345 111.592C386.209 112.845 387.926 114.305 389.464 115.943C392.585 118.66 394.742 122.318 395.609 126.368C396.835 132.656 394.288 139.047 391.223 144.698C389.48 147.886 381.105 164.479 375.413 162.287C373.838 164.096 372.083 165.738 370.174 167.189C370.357 169.101 370.62 171.03 370.97 172.959C372.252 173.662 373.644 174.142 375.086 174.377C378.203 174.953 381.367 175.23 384.536 175.206C389.516 175.169 394.491 174.866 399.439 174.298C404.246 173.752 409.081 173.486 413.92 173.501C416.331 173.493 418.74 173.608 421.14 173.843H421.514C422 173.899 422.477 173.955 422.939 174.027H423.162C423.704 174.106 424.221 174.186 424.754 174.282H424.921L426.195 174.529L426.482 174.592C426.928 174.688 427.358 174.792 427.779 174.903C428.215 175.015 428.637 175.134 429.045 175.262L429.252 175.326L430.247 175.636L430.462 175.716C431.211 175.971 431.919 176.242 432.588 176.513L432.795 176.601L433.591 176.959L433.742 177.031L434.682 177.47L434.761 177.509L435.557 177.908L435.756 178.003L436.552 178.41H436.608L437.603 178.928L438.2 179.239L438.479 179.382L439.275 179.797C446.273 183.303 514.163 201.522 526.049 237.976L525.81 238.199L525.755 238.239L525.484 238.486C525.683 239.02 525.874 239.546 526.049 240.08C526.049 240.08 524.895 241.116 523.096 242.805C526.28 256.744 534.846 292.345 539.344 294.035C544.917 296.139 551.245 338.88 536.55 337.478C521.854 336.075 521.846 301.741 521.846 301.741C521.846 301.741 512.157 275.728 505.008 262.522C503.778 264.168 502.831 266.008 502.206 267.966L502.254 268.109C502.234 268.065 502.219 268.02 502.206 267.974C502.032 268.572 502.005 269.204 502.127 269.815C501.434 267.782 497.844 258.45 490.352 259.701C482.352 261.032 452.14 231.241 449.282 228.388C449.346 229.185 449.433 230.126 449.529 231.249V231.289C449.584 231.943 449.648 232.652 449.704 233.409V233.648C449.704 233.839 449.704 234.031 449.744 234.23C449.783 234.429 449.744 234.485 449.744 234.612L449.791 235.202C449.791 235.338 449.791 235.481 449.791 235.617L449.839 236.206C449.839 236.382 449.839 236.565 449.839 236.74C449.839 236.916 449.887 237.314 449.903 237.609C449.919 237.904 449.943 238.079 449.959 238.31C449.975 238.542 449.959 238.645 449.959 238.813L450.006 239.514C450.006 239.673 450.006 239.833 450.006 239.992C450.006 240.151 450.006 240.486 450.062 240.741C450.118 240.996 450.062 241.068 450.062 241.235L450.11 242.032C450.11 242.192 450.11 242.343 450.11 242.495C450.11 242.917 450.166 243.339 450.19 243.77V243.937L450.261 245.117V245.523C450.261 245.842 450.301 246.169 450.317 246.495V246.958C450.317 247.292 450.357 247.627 450.373 247.962V248.376C450.373 248.775 450.373 249.173 450.436 249.588C450.436 249.667 450.436 249.739 450.436 249.819L450.508 251.341V251.429C450.508 251.891 450.508 252.353 450.572 252.815C450.572 252.951 450.572 253.086 450.572 253.214L450.619 254.353C450.619 254.505 450.619 254.656 450.619 254.808C450.619 255.19 450.619 255.605 450.619 255.963C450.619 256.091 450.619 256.226 450.619 256.362C450.619 257.414 450.691 258.482 450.723 259.55C450.723 259.629 450.723 259.709 450.723 259.781C450.723 260.235 450.723 260.689 450.723 261.144C450.723 261.279 450.723 261.423 450.723 261.558C450.723 261.965 450.723 262.355 450.723 262.785C450.723 262.929 450.723 263.072 450.723 263.208V264.563V264.834C450.723 265.933 450.723 267.041 450.723 268.157C450.723 268.269 450.723 268.388 450.723 268.508V269.799C450.723 269.95 450.723 270.102 450.723 270.245C450.723 270.66 450.723 271.042 450.723 271.48V271.823C450.771 287.109 449.791 302.666 446.36 311.544C444.543 316.312 443.573 321.361 443.494 326.464C444.018 335.762 446.665 344.817 451.232 352.931V352.931L450.436 352.676C450.532 352.851 450.588 352.939 450.588 352.939L450.134 352.796C450.818 354.238 451.288 355.043 451.288 355.043C451.288 355.043 450.269 354.716 448.454 354.182C451.033 363.308 452.761 377.358 447.785 394.979C447.785 394.979 444.983 410.393 447.085 416.004C449.186 421.614 451.288 466.452 451.288 466.452C451.288 466.452 455.483 472.031 463.182 468.556C470.88 465.081 565.304 453.142 565.304 453.142C565.304 453.142 565.527 453.533 565.894 454.21C568.799 453.302 572.987 451.915 576.052 450.624C574.921 449.03 573.87 448.114 573.003 448.233C573.003 448.233 578.05 445.794 583.543 443.874L584.546 443.531H584.586L585.565 443.212H585.629L586.568 442.925H586.672L587.531 442.686L587.706 442.63L588.503 442.423L588.71 442.367L589.506 442.192L589.729 442.144L590.421 442.001L590.684 441.953L591.313 441.849L591.607 441.802L592.181 441.738H592.491H593.016H593.311H594.107H594.537H594.808L595.19 441.817L595.444 441.873C595.556 441.873 595.659 441.953 595.763 441.993C595.842 442.017 595.919 442.046 595.994 442.08C596.098 442.13 596.199 442.186 596.296 442.248C596.352 442.248 596.416 442.312 596.463 442.351C596.606 442.454 596.734 442.575 596.846 442.71C600.34 446.91 619.932 527.492 610.841 533.095C610.57 533.262 610.308 533.422 610.045 533.565L609.726 533.748L609.312 533.979L608.914 534.195L608.62 534.346L608.19 534.553L607.967 534.657L607.521 534.848L607.362 534.912C607.203 534.976 607.044 535.039 606.892 535.087H606.789L606.311 535.239H606.247C601.176 536.609 599.489 531.907 593.335 521.833C587.308 511.959 579.57 499.518 572.804 494.912C572.652 495.239 572.509 495.581 572.342 495.908C572.342 495.908 501.649 503.615 475.752 512.023C449.855 520.431 429.579 531.636 412.757 512.023C397.687 494.426 382.625 437.37 379.68 425.798C379.473 425.001 379.329 424.388 379.242 424.061V423.917V423.862V423.806L323.245 466.548L298.614 495.191C298.614 495.191 264.382 543.535 258.053 544.205C251.724 544.874 222.356 591.146 222.356 591.146L221.289 589.999C221.034 591.282 220.843 592.461 220.7 593.489C223.088 599.068 220.867 605.747 218.765 610.17L218.678 610.345L218.439 610.831L218.312 611.086C218.232 611.238 218.16 611.389 218.081 611.533L217.961 611.756C217.882 611.915 217.794 612.067 217.715 612.218L217.595 612.441L217.404 612.776L217.309 612.943C217.229 613.095 217.141 613.23 217.07 613.366C217.031 613.421 216.996 613.48 216.966 613.541C216.911 613.621 216.863 613.709 216.815 613.788C216.767 613.868 216.759 613.884 216.727 613.924L216.544 614.227C216.518 614.265 216.494 614.305 216.473 614.346L216.353 614.521L216.306 614.601L216.186 614.784C216.186 614.832 216.138 614.856 216.122 614.888C216.122 614.888 142.627 597.355 133.528 591.776C133.241 591.601 132.971 591.417 132.732 591.234L132.501 591.059C132.342 590.931 132.182 590.812 132.039 590.684C131.956 590.614 131.876 590.539 131.8 590.461C131.681 590.349 131.554 590.238 131.45 590.126C131.347 590.015 131.307 589.967 131.235 589.887L130.956 589.56L130.718 589.417Z" fill="url(#paint1_linear_1225:2525)"/>
<path d="M557.552 452.553C557.552 452.553 573.92 447.772 574.597 445.723C575.273 443.675 588.926 483.261 588.926 483.261L575.289 492.824C575.289 492.824 560.96 484.639 553.476 486.002C545.993 487.365 557.552 452.553 557.552 452.553Z" fill="#4C4C56"/>
<path d="M205.097 550.166C205.097 550.166 203.083 568.592 180.553 570.64C158.024 572.688 195.552 589.066 195.552 589.066L224.211 591.115C224.211 591.115 224.888 579.511 229.664 570.64C234.441 561.77 205.097 550.166 205.097 550.166Z" fill="#4C4C56"/>
<path d="M441.656 342.683C441.656 342.683 454.648 362.496 445.748 393.873C445.748 393.873 443.025 408.888 445.071 414.347C447.117 419.806 449.155 463.488 449.155 463.488C449.155 463.488 453.247 468.948 460.746 465.537C468.245 462.126 560.258 450.522 560.258 450.522C560.258 450.522 575.256 476.455 567.072 492.156C567.072 492.156 498.218 499.663 472.998 507.848C447.778 516.033 428.003 526.975 411.635 507.848C395.267 488.721 378.916 421.855 378.916 421.855L324.375 463.488L300.493 491.47C300.493 491.47 267.057 538.563 260.951 539.241C254.845 539.918 226.185 584.971 226.185 584.971L191.412 547.434C191.412 547.434 233.685 523.524 238.453 511.259C243.222 498.994 266.404 464.174 266.404 464.174C266.404 464.174 273.903 436.87 287.54 430.701C287.54 430.701 336.627 372.012 341.396 344.708C346.164 317.403 423.202 330.362 423.202 330.362L441.656 342.683Z" fill="#DFE6F0"/>
<path d="M188.053 578.825C188.053 578.825 183.277 567.906 184.646 565.181C186.015 562.455 166.917 572.003 166.917 572.003C166.917 572.003 152.587 577.462 141.012 572.688C141.012 572.688 130.79 580.188 139.651 585.655C148.511 591.122 220.096 608.177 220.096 608.177C220.096 608.177 231.002 592.477 222.142 583.607L188.053 578.825Z" fill="#55A9E2"/>
<path opacity="0.1" d="M238.501 511.259C243.277 498.978 266.451 464.174 266.451 464.174C266.451 464.174 273.951 436.87 287.588 430.701C287.588 430.701 336.675 372.012 341.443 344.708C342.43 339.081 346.49 335.144 352.302 332.498C355.486 342.03 358.657 351.559 361.815 361.085C366.141 374.103 370.469 387.12 374.799 400.137C377.299 407.669 379.672 416.077 379.441 423.855C379.114 422.556 378.939 421.839 378.939 421.839L324.399 463.473L300.516 491.454C300.516 491.454 267.08 538.547 260.974 539.225C254.868 539.902 226.209 584.955 226.209 584.955L191.436 547.418C191.436 547.418 233.732 523.548 238.501 511.259Z" fill="black"/>
<path d="M330.538 167.286C330.538 167.286 336.333 181.958 328.834 195.61C321.335 209.262 331.899 233.49 338.713 234.853C345.528 236.216 372.802 218.475 374.848 206.871C376.894 195.267 365.988 171.382 371.441 155.682L330.538 167.286Z" fill="#FDC2CC"/>
<path opacity="0.1" d="M367.348 192.541C367.348 192.541 346.212 235.538 323.038 204.822C323.038 204.822 299.856 251.916 307.355 259.423C312.69 264.603 318.386 269.397 324.399 273.768L336.675 359.762C336.675 359.762 406.206 335.853 435.526 339.973L390.531 232.143L367.348 192.541Z" fill="black"/>
<path d="M367.348 190.492C367.348 190.492 346.212 233.489 323.038 202.774C323.038 202.774 299.856 249.867 307.355 257.374C312.69 262.554 318.386 267.348 324.399 271.72L336.675 357.713C336.675 357.713 406.206 333.804 435.542 337.908L390.546 230.078L367.348 190.492Z" fill="#7EAFD0"/>
<path d="M518.017 240.311C518.017 240.311 529.6 293.548 535.053 295.597C540.506 297.645 546.644 339.271 532.33 337.908C518.017 336.545 518.001 303.104 518.001 303.104C518.001 303.104 503.018 262.873 496.88 258.091C490.742 253.309 518.017 240.311 518.017 240.311Z" fill="#FDC2CC"/>
<path d="M250.093 264.881C250.093 264.881 219.412 236.19 218.735 231.408C218.059 226.626 199.629 202.064 189.415 208.886C179.201 215.708 197.599 247.786 201.006 248.471C204.414 249.157 244.64 293.516 244.64 293.516L250.093 264.881Z" fill="#FDC2CC"/>
<path opacity="0.1" d="M370.422 179.23C370.422 179.23 374.172 183.662 399.392 180.936C424.612 178.21 430.75 182.984 437.604 186.395C444.459 189.806 510.55 207.555 522.133 243.044C522.133 243.044 496.229 266.244 498.959 272.389C498.959 272.389 495.552 260.785 487.368 262.156C479.184 263.526 447.142 231.44 447.142 231.44C447.142 231.44 453.279 291.5 445.104 312.66C436.928 333.819 449.188 354.971 449.188 354.971C449.188 354.971 391.24 336.545 365.335 345.407C365.335 345.407 350.337 277.84 363.289 250.568C376.242 223.295 357.836 197.33 357.836 197.33L370.422 179.23Z" fill="black"/>
<path opacity="0.1" d="M369.737 177.184C369.737 177.184 373.487 181.623 398.707 178.889C423.927 176.155 430.073 180.937 436.919 184.348C443.766 187.759 509.833 205.492 521.424 240.997C521.424 240.997 495.52 264.197 498.242 270.342C498.242 270.342 494.835 258.738 486.651 260.109C478.467 261.479 446.433 229.401 446.433 229.401C446.433 229.401 452.57 289.461 444.387 310.621C436.203 331.78 448.479 352.932 448.479 352.932C448.479 352.932 390.531 334.506 364.626 343.368C364.626 343.368 349.628 275.801 362.58 248.529C375.533 221.256 357.127 195.291 357.127 195.291L369.737 177.184Z" fill="black"/>
<path d="M370.423 177.184C370.423 177.184 374.172 181.623 399.393 178.889C424.613 176.155 430.751 180.937 437.605 184.348C444.459 187.759 510.519 205.492 522.102 240.997C522.102 240.997 496.197 264.197 498.928 270.342C498.928 270.342 495.521 258.738 487.337 260.109C479.153 261.479 447.11 229.401 447.11 229.401C447.11 229.401 453.248 289.461 445.072 310.621C436.896 331.78 449.156 352.932 449.156 352.932C449.156 352.932 391.209 334.506 365.304 343.368C365.304 343.368 350.306 275.801 363.258 248.529C376.21 221.256 357.805 195.291 357.805 195.291L370.423 177.184Z" fill="#3785BA"/>
<path opacity="0.1" d="M332.242 189.465C332.242 189.465 322.354 204.145 308.725 208.919C295.096 213.693 289.619 243.045 289.619 243.045L269.159 271.027L244.64 258.738C244.64 258.738 243.955 292.211 237.141 291.501C237.141 291.501 254.185 313.338 267.814 314.024C281.443 314.709 319.632 281.946 319.632 281.946C319.632 281.946 323.724 311.976 320.993 326.305C318.262 340.635 338.037 384.317 338.037 384.317L365.304 378.858C365.304 378.858 350.974 324.257 333.261 315.387C333.261 315.387 333.261 278.535 335.991 269.656C338.722 260.778 318.262 227.345 320.993 220.523C322.522 216.689 328.532 208.505 331.557 201.069C332.962 197.361 333.201 193.312 332.242 189.465V189.465Z" fill="black"/>
<path opacity="0.1" d="M330.195 188.102C330.195 188.102 320.307 202.774 306.678 207.556C293.049 212.338 287.572 241.674 287.572 241.674L267.121 269.656L242.593 257.374C242.593 257.374 241.908 290.847 235.094 290.138C235.094 290.138 252.138 311.975 265.775 312.66C279.412 313.346 317.585 280.582 317.585 280.582C317.585 280.582 321.677 310.612 318.946 324.942C316.216 339.271 336.03 382.953 336.03 382.953L363.296 377.494C363.296 377.494 348.967 322.894 331.262 314.023C331.262 314.023 331.262 277.163 333.984 268.293C336.707 259.423 316.263 225.982 318.986 219.152C320.514 215.326 326.525 207.141 329.55 199.705C330.942 195.994 331.167 191.945 330.195 188.102V188.102Z" fill="black"/>
<path d="M331.556 188.102C331.556 188.102 321.701 202.774 308.04 207.556C294.379 212.338 288.933 241.674 288.933 241.674L268.482 269.656L243.954 257.374C243.954 257.374 243.278 290.847 236.455 290.138C236.455 290.138 253.499 311.975 267.136 312.66C280.774 313.346 318.946 280.582 318.946 280.582C318.946 280.582 323.038 310.612 320.307 324.942C317.577 339.271 337.352 382.953 337.352 382.953L364.626 377.494C364.626 377.494 350.296 322.894 332.583 314.023C332.583 314.023 332.583 277.163 335.306 268.293C338.029 259.423 317.585 225.982 320.307 219.152C321.844 215.326 327.854 207.141 330.88 199.705C332.279 195.997 332.515 191.948 331.556 188.102V188.102Z" fill="#3785BA"/>
<path opacity="0.05" d="M330.402 189.258C330.402 189.258 320.522 203.898 306.885 208.68C293.248 213.462 287.779 242.798 287.779 242.798L267.343 270.844L242.8 258.563C242.8 258.563 242.123 292.035 235.301 291.318C235.301 291.318 252.345 313.163 265.982 313.841C279.619 314.518 317.792 281.77 317.792 281.77C317.792 281.77 321.884 311.8 319.153 326.13C316.423 340.459 336.198 384.142 336.198 384.142L363.472 378.682C363.472 378.682 349.142 324.082 331.429 315.211C331.429 315.211 331.429 278.351 334.152 269.481C336.874 260.611 316.431 227.17 319.153 220.34C320.69 216.514 326.7 208.321 329.725 200.894C331.131 197.175 331.368 193.115 330.402 189.258V189.258Z" fill="black"/>
<path d="M567.781 445.739C567.781 445.739 587.548 436.175 590.964 440.28C594.379 444.384 613.453 522.862 604.593 528.321C595.732 533.78 595.04 529.684 587.548 517.403C580.057 505.121 569.827 488.712 562.328 489.421C562.328 489.421 584.141 481.913 583.464 479.18C582.788 476.446 572.55 445.061 567.781 445.739Z" fill="#55A9E2"/>
<path opacity="0.1" d="M370.206 173.325C364.804 177.423 358.305 179.815 351.538 180.197C344.771 180.579 338.045 178.933 332.217 175.469C331.892 173.143 331.329 170.857 330.537 168.647L371.44 157.051C369.753 161.896 369.633 167.523 370.206 173.325Z" fill="black"/>
<path d="M344.906 146.611C336.595 147.337 326.477 145.766 323.412 140.1C322.528 138.506 322.337 136.681 321.438 135.055C318.834 130.361 311.375 128.44 305.388 125.866C298.94 123.093 293.558 119.02 290.008 114.222C292.366 113.628 294.84 113.678 297.173 114.366C297.467 111.178 293.821 107.615 296.655 105.209C298.407 103.718 301.671 103.854 304.17 104.595C306.67 105.336 308.947 106.547 311.606 106.874C316.231 107.44 320.594 105.201 323.897 102.778C327.201 100.355 330.266 97.5177 334.7 96.402C343.457 94.1226 352.135 99.3428 360.924 101.542C378.939 106.061 387.672 110.955 382.776 126.639C379.091 138.195 360.024 145.304 344.906 146.611Z" fill="#4F4949"/>
<path d="M349.62 178.888C368.447 178.888 383.709 163.609 383.709 144.761C383.709 125.914 368.447 110.635 349.62 110.635C330.793 110.635 315.531 125.914 315.531 144.761C315.531 163.609 330.793 178.888 349.62 178.888Z" fill="#FDC2CC"/>
<path opacity="0.1" d="M376.123 139.557C374.475 132.862 369.714 126.606 363.075 124.749C357.43 123.155 351.428 124.885 345.919 126.885C340.41 128.886 334.774 131.221 328.93 130.87C323.087 130.519 316.941 126.487 316.495 120.637C316.388 119.733 316.534 118.817 316.917 117.991C317.52 117.037 318.363 116.259 319.361 115.736C327.935 110.26 337.671 105.949 347.853 106.116C356.22 106.252 364.213 109.392 371.991 112.492C381.807 116.397 392.96 121.856 394.982 132.225C396.176 138.354 393.7 144.578 390.715 150.053C388.987 153.241 380.605 169.818 375.056 167.084C372.819 165.985 377.181 143.861 376.123 139.557Z" fill="black"/>
<path d="M374.761 138.195C373.113 131.493 368.344 125.245 361.705 123.388C356.061 121.794 350.058 123.523 344.549 125.524C339.04 127.524 333.404 129.859 327.561 129.508C321.717 129.158 315.572 125.117 315.126 119.267C315.022 118.363 315.171 117.447 315.556 116.621C316.162 115.673 317 114.897 317.992 114.366C326.574 108.899 336.302 104.587 346.492 104.746C354.859 104.89 362.851 108.03 370.629 111.122C380.437 115.027 391.598 120.487 393.62 130.855C394.815 136.976 392.331 143.2 389.345 148.676C387.626 151.864 379.243 168.449 373.694 165.715C371.457 164.623 375.836 142.531 374.761 138.195Z" fill="#4F4949"/>
<path opacity="0.5" d="M602.547 529.007C611.415 523.548 592.325 445.062 588.918 440.966C587.421 439.173 582.78 440.001 578.043 441.492C583.425 439.611 589.252 438.232 590.964 440.28C594.371 444.377 613.453 522.863 604.593 528.322C603.085 529.35 601.413 530.113 599.649 530.577C600.649 530.119 601.617 529.595 602.547 529.007V529.007Z" fill="white"/>
<path opacity="0.5" d="M137.16 576.881C136.244 579.232 136.523 581.958 140.344 584.301C149.204 589.76 220.789 606.823 220.789 606.823C221.499 605.754 222.15 604.647 222.74 603.508C221.977 605.132 221.096 606.698 220.104 608.194C220.104 608.194 148.512 591.115 139.651 585.648C135.074 582.834 135.591 579.463 137.16 576.881Z" fill="white"/>
<g opacity="0.05">
<path opacity="0.05" d="M495.249 263.504C500.917 254.379 516.616 240.312 516.616 240.312C505.025 204.823 438.901 187.082 432.087 183.663C428.321 181.782 424.763 179.487 418.1 178.268C428.505 179.065 432.859 182.013 437.54 184.348C444.355 187.76 510.486 205.508 522.069 240.997C522.069 240.997 497.175 263.313 498.768 269.959C497.975 267.621 496.785 265.437 495.249 263.504V263.504Z" fill="black"/>
<path opacity="0.05" d="M498.799 269.959L498.926 270.342C498.871 270.219 498.828 270.091 498.799 269.959V269.959Z" fill="black"/>
<path opacity="0.05" d="M369.633 178.307L370.429 177.184C370.429 177.184 371.297 178.204 374.959 178.961C373.171 178.859 371.392 178.641 369.633 178.307Z" fill="black"/>
<path opacity="0.05" d="M486.595 260.141C485.564 260.048 484.557 259.778 483.617 259.344C484.654 259.398 485.669 259.67 486.595 260.141V260.141Z" fill="black"/>
<path opacity="0.05" d="M397.895 341.831C385.699 340.484 373.789 340.468 365.303 343.369C365.303 343.369 365.144 342.66 364.881 341.369C374.179 339.56 386.129 340.181 397.895 341.831Z" fill="black"/>
<path opacity="0.05" d="M443.113 351.13C440.724 346.531 432.533 328.233 439.61 309.927C447.794 288.767 441.656 228.707 441.656 228.707C441.656 228.707 443.996 231.05 447.571 234.437C448.829 249.325 451.806 293.158 445.095 310.612C436.887 331.764 449.155 352.931 449.155 352.931C449.155 352.931 446.91 352.206 443.113 351.13Z" fill="black"/>
</g>
</g>
<defs>
<linearGradient id="paint0_linear_1225:2525" x1="502.263" y1="270.27" x2="502.263" y2="269.871" gradientUnits="userSpaceOnUse">
<stop stop-color="#808080" stop-opacity="0.25"/>
<stop offset="0.54" stop-color="#808080" stop-opacity="0.12"/>
<stop offset="1" stop-color="#808080" stop-opacity="0.1"/>
</linearGradient>
<linearGradient id="paint1_linear_1225:2525" x1="1.05995e+06" y1="439652" x2="1.05995e+06" y2="92546.4" gradientUnits="userSpaceOnUse">
<stop stop-color="#808080" stop-opacity="0.25"/>
<stop offset="0.54" stop-color="#808080" stop-opacity="0.12"/>
<stop offset="1" stop-color="#808080" stop-opacity="0.1"/>
</linearGradient>
<clipPath id="clip0_1225:2525">
<rect width="766" height="615" fill="white"/>
</clipPath>
</defs>
</svg>
