<svg width="779" height="682" viewBox="0 0 779 682" fill="none" xmlns="http://www.w3.org/2000/svg">
<path d="M560.822 673.808C548.946 663.769 541.732 647.911 543.624 632.473C545.516 617.035 557.233 602.843 572.432 599.564C587.631 596.286 604.957 605.361 609.573 620.213C612.114 591.579 615.042 561.745 630.26 537.36C644.04 515.28 667.908 499.481 693.775 496.654C719.642 493.828 746.876 504.503 763.008 524.926C779.141 545.35 783.091 575.041 771.792 598.489C763.469 615.762 748.134 628.617 732.068 639.075C680.15 672.585 617.883 686.212 556.721 677.449" fill="#F2F2F2"/>
<path d="M737.427 505.094C716.084 522.485 696.504 541.935 678.969 563.163C651.529 596.271 629.323 633.391 613.127 673.23C611.941 676.136 616.659 677.401 617.832 674.527C644.332 609.78 686.637 552.713 740.877 508.545C743.313 506.561 739.843 503.127 737.427 505.094Z" fill="white"/>
<path d="M130.555 680.679H63.2015C60.9256 680.677 58.7436 679.771 57.1343 678.161C55.525 676.551 54.6198 674.369 54.6172 672.092V532.054C54.6198 529.777 55.525 527.595 57.1343 525.985C58.7436 524.375 60.9256 523.469 63.2015 523.467H130.555C132.831 523.469 135.013 524.375 136.622 525.985C138.232 527.595 139.137 529.777 139.139 532.054V672.092C139.137 674.369 138.232 676.551 136.622 678.161C135.013 679.771 132.831 680.677 130.555 680.679Z" fill="#3785BA"/>
<path d="M290.356 682H223.003C220.377 681.997 217.859 680.952 216.002 679.095C214.145 677.237 213.101 674.719 213.098 672.092V399.943C213.101 397.316 214.145 394.797 216.002 392.939C217.859 391.082 220.377 390.037 223.003 390.034H290.356C292.982 390.037 295.5 391.082 297.357 392.939C299.214 394.797 300.258 397.316 300.261 399.943V672.092C300.258 674.719 299.214 677.237 297.357 679.095C295.5 680.952 292.982 681.997 290.356 682V682ZM223.003 392.676C221.077 392.679 219.231 393.445 217.869 394.807C216.507 396.169 215.741 398.016 215.739 399.943V672.092C215.741 674.018 216.507 675.865 217.869 677.227C219.231 678.589 221.077 679.356 223.003 679.358H290.356C292.282 679.356 294.128 678.589 295.49 677.227C296.852 675.865 297.618 674.018 297.62 672.092V399.943C297.618 398.016 296.852 396.169 295.49 394.807C294.128 393.445 292.282 392.679 290.356 392.676H223.003Z" fill="#7EAFD0"/>
<path d="M450.155 682H382.801C380.175 681.997 377.658 680.953 375.801 679.095C373.944 677.237 372.899 674.719 372.896 672.092V226.877C372.899 224.25 373.944 221.732 375.801 219.874C377.658 218.017 380.175 216.972 382.801 216.969H450.155C452.781 216.972 455.299 218.017 457.156 219.874C459.013 221.732 460.057 224.25 460.06 226.877V672.092C460.057 674.719 459.013 677.237 457.156 679.095C455.299 680.953 452.781 681.997 450.155 682V682ZM382.801 219.611C380.876 219.613 379.029 220.379 377.668 221.742C376.306 223.104 375.54 224.951 375.538 226.877V672.092C375.54 674.018 376.306 675.865 377.668 677.227C379.029 678.59 380.876 679.356 382.801 679.358H450.155C452.081 679.356 453.927 678.59 455.289 677.227C456.651 675.865 457.417 674.018 457.419 672.092V226.877C457.417 224.951 456.651 223.104 455.289 221.742C453.927 220.379 452.081 219.613 450.155 219.611H382.801Z" fill="#7EAFD0"/>
<path d="M611.446 681.34H544.092C541.816 681.337 539.634 680.431 538.025 678.821C536.416 677.212 535.51 675.029 535.508 672.752V45.2239C535.51 42.9473 536.416 40.7646 538.025 39.1548C539.634 37.5449 541.816 36.6394 544.092 36.6367H611.446C613.722 36.6394 615.904 37.5449 617.513 39.1548C619.122 40.7646 620.027 42.9473 620.03 45.2239V672.752C620.027 675.029 619.122 677.212 617.513 678.821C615.904 680.431 613.722 681.337 611.446 681.34Z" fill="#3785BA"/>
<path d="M192.55 293.761C192.794 291.834 192.613 289.877 192.02 288.028C191.426 286.179 190.435 284.482 189.115 283.058C187.795 281.633 186.179 280.516 184.381 279.784C182.583 279.052 180.646 278.723 178.707 278.821L155.23 235.74L149.947 254.236L166.031 293.718C166.411 296.966 167.969 299.961 170.41 302.137C172.85 304.312 176.003 305.517 179.272 305.522C182.541 305.527 185.698 304.333 188.145 302.165C190.592 299.997 192.159 297.007 192.55 293.761V293.761Z" fill="#A0616A"/>
<path d="M11.668 463.86L24.7438 473.41L67.7907 427.497L48.4906 413.402L11.668 463.86Z" fill="#A0616A"/>
<path d="M41.0996 503.975L0.000711491 473.96L11.5933 458.075L36.8131 476.493C41.0245 479.569 43.8421 484.192 44.6459 489.346C45.4498 494.5 44.1742 499.762 41.0996 503.975V503.975L41.0996 503.975Z" fill="#7EAFD0"/>
<path d="M80.8503 514.411L97.0416 514.409L104.744 451.937L80.8477 451.938L80.8503 514.411Z" fill="#A0616A"/>
<path d="M128.268 529.448L77.3816 529.451L77.3807 509.783L108.606 509.782C113.82 509.782 118.821 511.854 122.509 515.542C126.196 519.23 128.267 524.232 128.268 529.448V529.448V529.448Z" fill="#7EAFD0"/>
<path d="M129.476 270.75C129.476 270.75 137.4 347.374 117.59 400.219L103.063 500.623H77.9705L80.6118 381.723L71.3672 276.034C71.3672 276.034 89.8564 228.474 129.476 270.75Z" fill="#7EAFD0"/>
<path d="M43.6335 276.033L70.0467 367.19L18.541 449.099L44.2939 470.897L103.063 379.08L85.8947 266.785L43.6335 276.033Z" fill="#7EAFD0"/>
<path d="M110.993 71.6233C128.908 71.6233 143.43 57.0959 143.43 39.1754C143.43 21.2549 128.908 6.72754 110.993 6.72754C93.0791 6.72754 78.5566 21.2549 78.5566 39.1754C78.5566 57.0959 93.0791 71.6233 110.993 71.6233Z" fill="#A0616A"/>
<path d="M83.9151 83.8121C83.9151 83.8121 103.725 70.601 126.176 99.6655L132.119 282.64C132.119 282.64 114.951 258.86 79.2928 281.318C43.635 303.777 35.7111 278.676 35.7111 278.676C35.7111 278.676 10.6185 89.7571 83.9151 83.8121Z" fill="#C1DAEB"/>
<path d="M124.578 99.2036C130.276 99.5117 135.658 101.917 139.69 105.955C143.721 109.994 146.118 115.382 146.418 121.082L150.608 200.73L178.342 276.033L162.494 289.245L110.988 199.409L100.443 125.568C99.96 122.183 100.233 118.734 101.242 115.467C102.251 112.201 103.972 109.199 106.28 106.678C108.588 104.157 111.426 102.179 114.59 100.886C117.754 99.5937 121.165 99.0191 124.578 99.2036V99.2036Z" fill="#C1DAEB"/>
<path d="M87.1586 63.5143C92.4614 69.1649 102.309 66.1315 103 58.4121C103.055 57.8128 103.051 57.2096 102.989 56.611C102.632 53.1916 100.657 50.0873 101.13 46.4769C101.237 45.5783 101.572 44.722 102.102 43.9891C106.328 38.3286 116.248 46.5208 120.236 41.3966C122.681 38.2545 119.806 33.3075 121.683 29.7957C124.16 25.1607 131.496 27.4472 136.096 24.9088C141.215 22.0846 140.908 14.2286 137.539 9.45021C133.43 3.62279 126.225 0.513214 119.111 0.0650264C111.996 -0.383161 104.93 1.54083 98.2879 4.13029C90.7409 7.0724 83.257 11.1385 78.6127 17.7769C72.9647 25.8498 72.4212 36.7031 75.2459 46.1429C76.9641 51.8852 82.8283 58.9001 87.1586 63.5143Z" fill="#323537"/>
</svg>
