<svg width="928" height="653" viewBox="0 0 928 653" fill="none" xmlns="http://www.w3.org/2000/svg">
<path d="M186.035 26.9941L190.131 364.913L367.121 451.126L363.025 113.208L186.035 26.9941Z" fill="#F2F2F2"/>
<path d="M132.251 0L0 271.502L179.446 358.913L175.35 20.994L132.251 0Z" fill="#F2F2F2"/>
<path d="M927.639 381.414L570.445 207.422L574.541 545.34L795.387 652.916L927.639 381.414Z" fill="#F2F2F2"/>
<path d="M379.025 113.207L383.121 451.125L560.112 537.339L556.016 199.421L379.025 113.207Z" fill="#F2F2F2"/>
<path d="M440.543 382.945L435.543 494.945C435.543 494.945 448.543 600.945 445.543 603.945C442.543 606.945 434.543 612.945 440.543 619.945C446.543 626.945 468.543 631.945 469.543 627.945C470.543 623.945 472.543 509.945 472.543 509.945L479.543 374.945L440.543 382.945Z" fill="#808080"/>
<path opacity="0.2" d="M440.543 382.945L435.543 494.945C435.543 494.945 448.543 600.945 445.543 603.945C442.543 606.945 434.543 612.945 440.543 619.945C446.543 626.945 468.543 631.945 469.543 627.945C470.543 623.945 472.543 509.945 472.543 509.945L479.543 374.945L440.543 382.945Z" fill="#808080"/>
<path d="M445.543 617.945C445.543 617.945 420.543 636.945 417.543 636.945C414.543 636.945 387.543 645.945 406.543 649.945C425.543 653.945 471.543 651.945 472.543 645.945C473.543 639.945 469.543 621.737 469.543 621.737L445.543 617.945Z" fill="#808080"/>
<path opacity="0.2" d="M445.543 617.945C445.543 617.945 420.543 636.945 417.543 636.945C414.543 636.945 387.543 645.945 406.543 649.945C425.543 653.945 471.543 651.945 472.543 645.945C473.543 639.945 469.543 621.737 469.543 621.737L445.543 617.945Z" fill="#808080"/>
<path d="M383.544 298.945C383.544 298.945 372.544 302.945 372.544 305.945C372.544 308.945 362.544 346.945 360.544 348.945C358.544 350.945 357.544 359.945 357.544 359.945C357.544 359.945 347.544 382.945 349.544 382.945C351.544 382.945 368.544 378.945 369.544 382.945C370.544 386.945 378.544 357.945 378.544 357.945L395.544 323.945L383.544 298.945Z" fill="#CCCCCC"/>
<path d="M349.543 386.945C349.543 386.945 352.543 408.945 360.543 410.945C368.543 412.945 360.543 382.945 360.543 382.945L349.543 386.945Z" fill="#FFB8B8"/>
<path d="M375.543 286.944C375.543 286.944 381.543 299.944 384.543 306.944C387.543 313.944 415.543 288.944 415.543 288.944C415.543 288.944 400.543 277.944 400.543 272.944C400.543 267.944 375.543 286.944 375.543 286.944Z" fill="#FFB8B8"/>
<path d="M87.0819 612C93.7882 636.791 116.759 652.144 116.759 652.144C116.759 652.144 128.857 627.304 122.15 602.513C115.444 577.723 92.4731 562.369 92.4731 562.369C92.4731 562.369 80.3755 587.209 87.0819 612Z" fill="#808080"/>
<path d="M96.9359 606.672C115.338 624.586 117.586 652.124 117.586 652.124C117.586 652.124 89.9976 650.618 71.5953 632.704C53.193 614.79 50.9453 587.252 50.9453 587.252C50.9453 587.252 78.5336 588.758 96.9359 606.672Z" fill="#CCCCCC"/>
<path d="M325.543 652.945C307.545 652.945 289.951 647.608 274.986 637.609C260.021 627.61 248.358 613.398 241.47 596.77C234.582 580.141 232.78 561.844 236.292 544.192C239.803 526.54 248.47 510.325 261.196 497.599C273.923 484.872 290.138 476.205 307.79 472.694C325.442 469.183 343.739 470.985 360.367 477.872C376.995 484.76 391.208 496.424 401.207 511.388C411.206 526.353 416.543 543.947 416.543 561.945C416.516 586.072 406.92 609.202 389.86 626.262C372.8 643.322 349.669 652.918 325.543 652.945ZM325.543 472.945C307.94 472.945 290.733 478.165 276.097 487.945C261.461 497.724 250.054 511.624 243.318 527.887C236.582 544.149 234.819 562.044 238.253 579.308C241.687 596.573 250.164 612.431 262.61 624.878C275.057 637.325 290.916 645.801 308.18 649.235C325.444 652.669 343.339 650.907 359.602 644.171C375.864 637.434 389.764 626.027 399.544 611.391C409.323 596.755 414.543 579.548 414.543 561.945C414.516 538.349 405.131 515.727 388.446 499.042C371.761 482.357 349.139 472.972 325.543 472.945V472.945Z" fill="#808080"/>
<path d="M605.543 652.945C587.545 652.945 569.951 647.608 554.986 637.609C540.021 627.61 528.358 613.398 521.47 596.77C514.582 580.141 512.78 561.844 516.292 544.192C519.803 526.54 528.47 510.325 541.196 497.599C553.923 484.872 570.138 476.205 587.79 472.694C605.442 469.183 623.739 470.985 640.367 477.872C656.995 484.76 671.208 496.424 681.207 511.388C691.206 526.353 696.543 543.947 696.543 561.945C696.516 586.072 686.92 609.202 669.86 626.262C652.8 643.322 629.669 652.918 605.543 652.945ZM605.543 472.945C587.94 472.945 570.733 478.165 556.097 487.945C541.461 497.724 530.054 511.624 523.318 527.887C516.582 544.149 514.819 562.044 518.253 579.308C521.687 596.573 530.164 612.431 542.611 624.878C555.057 637.325 570.916 645.801 588.18 649.235C605.444 652.669 623.339 650.907 639.602 644.171C655.864 637.434 669.764 626.027 679.544 611.391C689.323 596.755 694.543 579.548 694.543 561.945C694.516 538.349 685.131 515.727 668.446 499.042C651.761 482.357 629.139 472.972 605.543 472.945V472.945Z" fill="#808080"/>
<path d="M325.543 567.945C328.857 567.945 331.543 565.259 331.543 561.945C331.543 558.632 328.857 555.945 325.543 555.945C322.229 555.945 319.543 558.632 319.543 561.945C319.543 565.259 322.229 567.945 325.543 567.945Z" fill="#808080"/>
<path d="M607.543 567.945C610.857 567.945 613.543 565.259 613.543 561.945C613.543 558.632 610.857 555.945 607.543 555.945C604.229 555.945 601.543 558.632 601.543 561.945C601.543 565.259 604.229 567.945 607.543 567.945Z" fill="#808080"/>
<path d="M334.463 553.338L332.623 552.553L384.888 429.932L533.098 432.956L533.385 433.406L606.385 547.406L604.701 548.485L531.988 434.935L386.198 431.959L334.463 553.338Z" fill="#808080"/>
<path d="M490.168 576.128L528.581 440.672L530.505 441.217L492.918 573.761L593.417 560.952L593.669 562.937L490.168 576.128Z" fill="#808080"/>
<path d="M381.258 460.244L379.83 461.645L482.83 566.645L484.258 565.244L381.258 460.244Z" fill="#808080"/>
<path d="M538.573 408.681L532.582 430.684L534.512 431.209L540.502 409.206L538.573 408.681Z" fill="#808080"/>
<path d="M388.519 424.166L386.567 423.723L391.29 402.945H374.543V389.945H376.543V400.945H393.796L388.519 424.166Z" fill="#808080"/>
<path d="M502.543 388.945C502.543 388.945 502.543 382.945 515.543 385.945C528.543 388.945 568.543 396.945 571.543 395.945C574.543 394.945 573.543 401.945 560.543 404.945C547.543 407.945 532.543 400.945 529.543 398.945C526.543 396.945 502.543 388.945 502.543 388.945Z" fill="#808080"/>
<path d="M466.543 567.945H440.543V577.945H466.543V567.945Z" fill="#CCCCCC"/>
<path d="M491.543 594.945C487.587 594.945 483.721 593.772 480.432 591.575C477.143 589.377 474.579 586.254 473.065 582.599C471.552 578.944 471.156 574.923 471.927 571.043C472.699 567.164 474.604 563.6 477.401 560.803C480.198 558.006 483.762 556.101 487.641 555.33C491.521 554.558 495.542 554.954 499.197 556.468C502.851 557.981 505.975 560.545 508.172 563.834C510.37 567.123 511.543 570.99 511.543 574.945C511.537 580.248 509.428 585.331 505.679 589.081C501.929 592.83 496.845 594.939 491.543 594.945V594.945ZM491.543 556.945C487.983 556.945 484.503 558.001 481.543 559.979C478.583 561.957 476.276 564.768 474.913 568.057C473.551 571.346 473.194 574.965 473.889 578.457C474.583 581.949 476.298 585.156 478.815 587.673C481.332 590.191 484.54 591.905 488.031 592.599C491.523 593.294 495.142 592.938 498.431 591.575C501.72 590.213 504.532 587.906 506.509 584.946C508.487 581.986 509.543 578.505 509.543 574.945C509.537 570.173 507.639 565.598 504.265 562.223C500.89 558.849 496.315 556.951 491.543 556.945Z" fill="#808080"/>
<path d="M384.543 296.945C397.798 296.945 408.543 286.2 408.543 272.945C408.543 259.69 397.798 248.945 384.543 248.945C371.288 248.945 360.543 259.69 360.543 272.945C360.543 286.2 371.288 296.945 384.543 296.945Z" fill="#FFB8B8"/>
<path d="M460.542 384.944C460.542 384.944 391.542 424.944 392.542 437.944C393.542 450.944 445.542 521.944 445.542 521.944C445.542 521.944 449.542 542.944 453.542 542.944C457.542 542.944 482.542 551.944 483.542 545.944C484.542 539.944 475.542 532.944 476.542 528.944C477.542 524.944 432.542 451.944 432.542 451.944C432.542 451.944 528.849 415.944 508.696 384.944C488.542 353.944 460.542 384.944 460.542 384.944Z" fill="#808080"/>
<path d="M462.543 538.945C462.543 538.945 450.543 541.945 448.543 545.945C446.543 549.945 411.543 562.945 421.543 565.945C431.543 568.945 489.543 569.945 491.543 567.945C493.543 565.945 491.543 542.733 483.543 542.839C475.543 542.945 466.543 545.945 462.543 538.945Z" fill="#808080"/>
<path d="M384.543 309.945L407.043 282.445C407.043 282.445 432.543 274.945 443.543 289.945C454.543 304.945 484.543 341.945 494.543 349.945C504.543 357.945 518.543 388.945 513.543 389.945C508.543 390.945 480.543 378.945 469.543 386.945C458.543 394.945 437.543 395.945 436.543 391.945C435.543 387.945 375.543 320.945 375.543 311.945C375.543 302.945 381.937 301.014 381.937 301.014L384.543 309.945Z" fill="#CCCCCC"/>
<path d="M396.627 389.45L366.457 378.783C364.895 378.231 363.181 379.05 362.629 380.612C362.077 382.174 362.895 383.888 364.457 384.44L394.627 395.106C396.189 395.659 397.903 394.84 398.456 393.278C399.008 391.716 398.189 390.002 396.627 389.45Z" fill="#808080"/>
<path d="M328.544 376.945C328.544 376.945 293.544 386.945 296.544 397.945C299.544 408.945 331.544 384.945 331.544 384.945L328.544 376.945Z" fill="#FFB8B8"/>
<path d="M419.542 289.944C419.542 289.944 405.542 301.944 402.542 315.944C399.542 329.944 384.542 354.944 384.542 354.944L323.542 374.944C323.542 374.944 319.542 393.944 325.542 393.944C331.542 393.944 398.542 379.944 400.542 376.944C402.542 373.944 445.542 316.944 445.542 316.944C445.542 316.944 449.542 285.944 419.542 289.944Z" fill="#CCCCCC"/>
<path d="M369.636 245.166C369.045 245.675 368.337 246.03 367.575 246.2C367.193 246.268 366.799 246.182 366.479 245.961C366.16 245.74 365.941 245.401 365.871 245.019C365.43 246.243 364.611 247.293 363.532 248.019C362.387 248.616 360.616 248.115 360.451 246.835C360.284 247.807 359.854 248.715 359.207 249.46C358.87 249.817 358.406 250.026 357.915 250.043C357.425 250.059 356.948 249.881 356.588 249.548C357.089 252.289 356.78 255.107 356.937 257.888C357.095 260.67 357.837 263.619 359.938 265.448C363.003 268.115 367.612 267.457 371.643 266.952C372.253 266.824 372.886 266.858 373.478 267.052C374.987 267.695 374.919 269.797 374.939 271.437C375.062 274.316 376.202 277.058 378.155 279.176C380.108 281.295 382.749 282.652 385.608 283.008C387.208 283.255 388.841 282.857 390.148 281.9C391.292 280.93 391.877 279.349 393.189 278.62C395.322 277.434 397.91 279.163 399.47 281.04C401.03 282.918 402.567 285.227 404.984 285.571C408.18 286.025 410.614 282.768 411.808 279.769C413.456 275.565 414.246 271.075 414.13 266.561C414.015 262.048 412.997 257.603 411.136 253.489C404.463 238.942 381.666 236.641 369.636 245.166Z" fill="#808080"/>
<path d="M791.931 652.903L790.154 651.985C813.236 607.361 800.893 549.41 786.475 508.653C776.685 481.259 764.198 454.904 749.197 429.979L750.888 428.91C765.966 453.963 778.518 480.451 788.36 507.985C802.911 549.115 815.34 607.645 791.931 652.903Z" fill="#808080"/>
<path d="M809.049 429.269L796.074 500.273L798.041 500.633L811.015 429.628L809.049 429.269Z" fill="#808080"/>
<path d="M722.775 489.762L721.311 491.125L788.31 563.125L789.775 561.762L722.775 489.762Z" fill="#808080"/>
<path d="M843.224 568.854L809.24 615.865L810.861 617.037L844.845 570.026L843.224 568.854Z" fill="#808080"/>
<path d="M815.043 410.445C820.566 410.445 825.043 405.968 825.043 400.445C825.043 394.922 820.566 390.445 815.043 390.445C809.52 390.445 805.043 394.922 805.043 400.445C805.043 405.968 809.52 410.445 815.043 410.445Z" fill="#CCCCCC"/>
<path d="M706.043 487.445C711.566 487.445 716.043 482.968 716.043 477.445C716.043 471.922 711.566 467.445 706.043 467.445C700.52 467.445 696.043 471.922 696.043 477.445C696.043 482.968 700.52 487.445 706.043 487.445Z" fill="#808080"/>
<path d="M750.043 497.445C755.566 497.445 760.043 492.968 760.043 487.445C760.043 481.922 755.566 477.445 750.043 477.445C744.52 477.445 740.043 481.922 740.043 487.445C740.043 492.968 744.52 497.445 750.043 497.445Z" fill="#808080"/>
<path d="M730.043 536.445C735.566 536.445 740.043 531.968 740.043 526.445C740.043 520.922 735.566 516.445 730.043 516.445C724.52 516.445 720.043 520.922 720.043 526.445C720.043 531.968 724.52 536.445 730.043 536.445Z" fill="#CCCCCC"/>
<path d="M855.043 561.445C860.566 561.445 865.043 556.968 865.043 551.445C865.043 545.922 860.566 541.445 855.043 541.445C849.52 541.445 845.043 545.922 845.043 551.445C845.043 556.968 849.52 561.445 855.043 561.445Z" fill="#808080"/>
<path d="M822.043 572.445C827.566 572.445 832.043 567.968 832.043 562.445C832.043 556.922 827.566 552.445 822.043 552.445C816.52 552.445 812.043 556.922 812.043 562.445C812.043 567.968 816.52 572.445 822.043 572.445Z" fill="#808080"/>
<path d="M845.043 604.445C850.566 604.445 855.043 599.968 855.043 594.445C855.043 588.922 850.566 584.445 845.043 584.445C839.52 584.445 835.043 588.922 835.043 594.445C835.043 599.968 839.52 604.445 845.043 604.445Z" fill="#808080"/>
<path d="M740.043 422.445C745.566 422.445 750.043 417.968 750.043 412.445C750.043 406.922 745.566 402.445 740.043 402.445C734.52 402.445 730.043 406.922 730.043 412.445C730.043 417.968 734.52 422.445 740.043 422.445Z" fill="#808080"/>
<path d="M144.978 444.371L60.1074 395.371L11.1074 480.242L95.9779 529.242L144.978 444.371Z" fill="#F2F2F2"/>
<path d="M98.043 546.307C93.6918 546.307 89.4383 545.016 85.8204 542.599C82.2026 540.182 79.3828 536.746 77.7176 532.726C76.0525 528.706 75.6168 524.282 76.4657 520.015C77.3146 515.747 79.4099 511.827 82.4866 508.75C85.5634 505.674 89.4834 503.578 93.751 502.729C98.0186 501.88 102.442 502.316 106.462 503.981C110.482 505.646 113.918 508.466 116.335 512.084C118.753 515.702 120.043 519.955 120.043 524.307C120.036 530.139 117.716 535.731 113.592 539.856C109.468 543.98 103.876 546.3 98.043 546.307V546.307ZM98.043 504.307C94.0873 504.307 90.2206 505.48 86.9316 507.677C83.6426 509.875 81.0791 512.998 79.5654 516.653C78.0516 520.307 77.6556 524.329 78.4273 528.208C79.199 532.088 81.1038 535.652 83.9008 538.449C86.6979 541.246 90.2615 543.151 94.1412 543.922C98.0208 544.694 102.042 544.298 105.697 542.784C109.351 541.27 112.475 538.707 114.672 535.418C116.87 532.129 118.043 528.262 118.043 524.307C118.037 519.004 115.928 513.92 112.179 510.171C108.429 506.422 103.345 504.313 98.043 504.307V504.307Z" fill="#808080"/>
</svg>
