<svg width="932" height="519" viewBox="0 0 932 519" fill="none" xmlns="http://www.w3.org/2000/svg">
<path d="M931.529 487.603C931.529 459.33 917.172 436.41 899.461 436.41C888.33 436.41 878.526 445.468 872.776 459.215C870.833 458.409 868.751 457.992 866.647 457.986C861.286 457.986 856.33 460.731 852.288 465.376C847.105 448.236 836.114 436.41 823.392 436.41C811.498 436.41 801.124 446.756 795.588 462.11C792.512 459.517 788.636 458.06 784.612 457.986C771.02 457.986 760.002 475.576 760.002 497.274C759.945 504.507 761.261 511.685 763.879 518.429H925.062C929.12 509.853 931.529 499.179 931.529 487.603Z" fill="#CCCCCC"/>
<path d="M816.561 189.986C791.306 135.396 741.884 88.8269 682.179 81.2369C666.393 79.23 649.911 80.0349 635.264 86.2518C616.038 94.4124 601.869 110.884 587.547 126.079C557.226 158.243 523.294 186.806 486.425 211.204C468.228 223.242 448.71 234.473 427.105 237.554C383.788 243.729 340.941 214.212 321.186 175.199C308.845 150.829 303.142 122.216 293.166 96.8679C281.677 96.8459 267.989 96.8501 253.262 96.9179C212.556 97.1054 179.422 97.7063 179.422 97.7063C179.422 97.7063 218.806 45.5782 253.114 64.8913C264.078 71.0632 275.561 76.5708 286.115 81.2104C280.119 69.6867 272.557 59.3182 262.153 50.9816C241.639 34.5436 213.855 29.9328 187.588 31.1569C160.006 32.4424 132.17 39.8213 109.757 55.9366C69.8302 84.6449 53.3421 135.176 39.2305 182.262L73.3403 199.349C87.9713 186.709 109.366 174.206 129.086 185.308C163.394 204.621 202.805 217.444 202.805 217.444C202.805 217.444 169.941 217.147 129.234 217.334C122.397 217.366 115.783 217.409 109.494 217.459L488.196 407.162C613.103 408.92 707.284 402.17 825.974 407.162C832.164 407.422 846.087 374.999 846.133 366.466C846.46 306.327 841.815 244.575 816.561 189.986ZM695.276 206.347C654.569 206.535 621.436 207.136 621.436 207.136C621.436 207.136 660.82 155.008 695.128 174.321C729.436 193.634 768.847 206.457 768.847 206.457C768.847 206.457 735.982 206.16 695.276 206.347L695.276 206.347Z" fill="#F2F2F2"/>
<path opacity="0.3" d="M801.345 384.75C801.345 364.192 788.607 347.527 772.894 347.527C763.019 347.527 754.321 354.113 749.219 364.109C747.468 363.518 745.631 363.216 743.782 363.215C739.001 363.296 734.436 365.222 731.043 368.589C726.445 356.126 716.694 347.527 705.408 347.527C694.855 347.527 685.651 355.05 680.74 366.214C677.859 364.282 674.473 363.239 671.003 363.215C658.944 363.215 649.169 376.005 649.169 391.781C649.133 397.103 650.31 402.363 652.609 407.163H795.607C799.442 400.319 801.419 392.593 801.345 384.75V384.75Z" fill="#CCCCCC"/>
<path d="M354.166 247.104C354.166 247.104 359.695 206.591 368.91 217.64C378.125 228.689 368.91 245.263 368.91 245.263L361.538 254.471L354.166 248.946V247.104Z" fill="#FFB8B8"/>
<path d="M332.05 259.996C332.05 259.996 350.48 239.739 354.166 243.422C357.852 247.105 368.91 248.947 367.067 256.313C365.224 263.679 326.521 287.619 326.521 287.619L332.05 259.996Z" fill="#CCCCCC"/>
<path opacity="0.1" d="M332.05 259.996C332.05 259.996 350.48 239.739 354.166 243.422C357.852 247.105 368.91 248.947 367.067 256.313C365.224 263.679 326.521 287.619 326.521 287.619L332.05 259.996Z" fill="#808080"/>
<path d="M227.002 258.154V272.887C227.002 272.887 225.159 306.034 236.217 304.193C247.275 302.351 241.746 274.728 241.746 274.728L239.903 258.154H227.002Z" fill="#FFB8B8"/>
<path d="M232.531 364.965C232.531 364.965 215.945 390.746 210.416 392.588C204.887 394.429 175.4 411.003 171.714 427.577L145.912 460.725L158.813 477.299C158.813 477.299 217.788 414.686 234.374 409.162C250.961 403.637 267.548 376.014 267.548 376.014L232.531 364.965Z" fill="#FFB8B8"/>
<path d="M363.382 322.609C363.382 322.609 398.398 328.134 392.87 350.232C387.341 372.331 333.895 418.37 333.895 418.37L332.052 429.419L311.779 433.102L302.564 423.894L304.407 418.37C304.407 418.37 326.523 398.113 328.366 390.746C330.209 383.38 350.482 353.916 359.696 352.074L346.796 344.708L363.382 322.609Z" fill="#FFB8B8"/>
<path d="M151.44 460.723C151.44 460.723 158.812 449.674 147.754 451.516C136.696 453.357 129.324 455.199 129.324 462.565C129.324 469.931 138.539 521.494 149.597 517.811C160.655 514.128 151.44 497.554 151.44 497.554C151.44 497.554 156.969 482.822 160.655 480.98C164.341 479.139 164.341 469.931 160.655 469.931C156.969 469.931 149.597 464.406 151.44 460.723Z" fill="#808080"/>
<path d="M308.092 420.21C308.092 420.21 308.092 411.002 300.72 420.21C293.348 429.417 289.662 436.783 297.034 442.308C304.406 447.833 330.207 460.723 330.207 460.723C330.207 460.723 357.852 466.248 354.166 453.357C354.166 453.357 335.736 444.15 335.736 436.783C335.736 429.417 335.736 416.526 330.207 420.21C324.678 423.893 308.092 425.734 308.092 420.21Z" fill="#808080"/>
<path d="M273.075 282.094C273.075 282.094 247.274 285.777 249.117 322.608C249.117 322.608 215.943 355.755 225.158 366.805C234.373 377.854 254.646 398.111 262.017 392.586C269.389 387.062 291.505 344.706 291.505 344.706C291.505 344.706 343.108 363.122 352.323 353.914C361.537 344.706 370.752 322.608 370.752 322.608L324.678 298.668L273.075 282.094Z" fill="#808080"/>
<path d="M344.952 177.127C357.166 177.127 367.067 167.233 367.067 155.028C367.067 142.824 357.166 132.93 344.952 132.93C332.737 132.93 322.836 142.824 322.836 155.028C322.836 167.233 332.737 177.127 344.952 177.127Z" fill="#FFB8B8"/>
<path d="M328.365 156.869C328.365 156.869 315.464 177.126 311.778 178.968C308.092 180.809 337.579 199.225 337.579 199.225C337.579 199.225 337.579 175.285 346.794 169.76L328.365 156.869Z" fill="#FFB8B8"/>
<path d="M326.523 177.127C326.523 177.127 297.035 167.919 291.506 182.652C285.977 197.384 273.077 225.007 274.92 243.423C276.763 261.838 280.449 258.155 274.92 263.679C269.391 269.204 265.705 265.521 267.548 272.887C269.391 280.253 271.234 280.253 269.391 283.936C267.548 287.62 291.506 300.51 311.779 302.352L332.052 304.193C332.052 304.193 332.051 271.046 335.737 263.68C339.423 256.313 346.795 241.581 346.795 236.056V221.439C346.795 211.709 344.254 202.148 339.423 193.701V193.701C339.423 193.701 328.366 177.127 326.523 177.127Z" fill="#CCCCCC"/>
<path d="M304.406 184.492C304.406 184.492 236.217 190.017 228.845 208.432C221.473 226.848 217.787 263.678 225.159 263.678C232.531 263.678 241.746 267.362 243.589 263.678C245.432 259.995 252.803 223.165 254.646 223.165C256.489 223.165 311.778 217.64 311.778 217.64C311.778 217.64 335.737 188.175 304.406 184.492Z" fill="#CCCCCC"/>
<path d="M345.84 149.55C345.84 149.55 351.709 139.359 359.045 148.211C366.381 157.062 378.315 140.796 376.483 137.325C374.651 133.854 368.181 137.481 357.094 133.859C346.007 130.237 324.649 122.859 321.072 146.927C317.496 170.994 326.014 168.471 326.014 168.471C326.014 168.471 329.919 147.145 333.448 153.27L336.978 159.396L340.039 160.149L345.84 149.55Z" fill="#808080"/>
<path d="M554.439 93.1588C569.341 93.1588 581.421 81.0879 581.421 66.1976C581.421 51.3073 569.341 39.2363 554.439 39.2363C539.537 39.2363 527.457 51.3073 527.457 66.1976C527.457 81.0879 539.537 93.1588 554.439 93.1588Z" fill="#808080"/>
<path d="M545.815 86.1536C545.815 86.1536 547.211 111.267 544.419 111.267C541.626 111.267 561.872 123.126 561.872 123.126L574.438 116.15V107.779C574.438 107.779 557.683 105.686 564.665 87.5488C571.646 69.4113 545.815 86.1536 545.815 86.1536Z" fill="#9F616A"/>
<path d="M487.171 361.703L485.076 382.631L492.058 384.724L497.643 379.143L499.737 361.703H487.171Z" fill="#9F616A"/>
<path d="M587.703 373.564L591.193 386.817L600.967 393.096L611.44 387.515L599.571 367.982L587.703 373.564Z" fill="#9F616A"/>
<path d="M552.447 96.9664C563.629 96.9664 572.693 87.909 572.693 76.7361C572.693 65.5633 563.629 56.5059 552.447 56.5059C541.266 56.5059 532.201 65.5633 532.201 76.7361C532.201 87.909 541.266 96.9664 552.447 96.9664Z" fill="#9F616A"/>
<path d="M540.23 152.424L535.343 150.332C535.343 150.332 526.966 145.448 526.268 135.682C525.569 125.916 533.249 113.359 533.249 113.359L544.419 109.871L557.543 120.545L557.684 137.775L540.23 152.424Z" fill="#9F616A"/>
<path d="M535.342 114.755L532.55 113.36C532.55 113.36 518.587 112.662 517.191 129.404C515.795 146.147 510.908 174.05 510.908 174.05C510.908 174.05 499.738 193.583 500.436 214.511L494.851 232.649C494.851 232.649 487.171 259.157 496.247 259.157C505.323 259.157 504.624 230.556 504.624 230.556C504.624 230.556 521.38 190.095 522.776 183.119C524.172 176.143 536.041 143.356 532.55 134.287C529.059 125.219 535.342 114.755 535.342 114.755Z" fill="#9F616A"/>
<path d="M545.814 158.703V166.377C545.814 166.377 550.701 171.957 548.607 175.445C546.512 178.933 544.418 185.909 544.418 185.909L554.192 201.256L587.004 204.047L593.529 160.363L545.814 158.703Z" fill="#9F616A"/>
<path d="M576.533 109.872L582.118 107.082C582.118 107.082 593.987 98.7106 603.76 97.3154L633.78 77.0851L653.328 30.3461C653.328 30.3461 652.63 5.23269 658.215 8.02307C663.8 10.8134 663.102 32.4389 663.102 32.4389C663.102 32.4389 652.63 75.6899 643.554 87.549C634.478 99.4081 601.666 118.941 601.666 118.941C601.666 118.941 592.59 129.405 593.288 134.288C593.987 139.171 576.533 109.872 576.533 109.872Z" fill="#9F616A"/>
<path d="M550.701 185.91C550.701 185.91 543.022 181.027 538.135 189.398C533.248 197.769 524.172 199.862 518.587 224.975C513.002 250.089 499.737 289.852 496.247 292.642C492.756 295.432 478.095 324.732 486.473 365.89H500.435L512.304 306.594C512.304 306.594 550.701 259.158 553.494 239.625L566.06 312.872C566.06 312.872 566.758 340.776 577.23 354.031L588.4 380.539L603.061 373.563L586.306 306.594C586.306 306.594 594.683 238.927 589.098 220.092L588.296 195.399C588.296 195.399 565.362 196.374 550.701 185.91Z" fill="#808080"/>
<path d="M492.058 379.143H483.68C482.284 379.143 471.114 388.212 476.001 393.095C480.887 397.978 488.567 407.047 488.567 407.047C488.567 407.047 515.794 410.507 516.492 405.624C517.191 400.741 504.624 390.304 504.624 390.304L501.133 379.143C501.133 379.143 494.152 371.469 492.058 379.143Z" fill="#808080"/>
<path d="M603.062 386.12C603.062 386.12 591.194 385.423 589.1 384.725C587.005 384.027 582.817 402.862 589.1 404.258C595.383 405.653 621.214 407.746 621.214 407.746C621.214 407.746 641.46 407.048 640.064 401.467C638.667 395.887 611.44 384.725 611.44 384.725C611.44 384.725 607.949 377.749 603.062 386.12Z" fill="#808080"/>
<path d="M547.91 109.174L544.419 107.081L540.231 110.569C540.231 110.569 552.797 118.94 550.005 126.614C547.212 134.287 535.344 150.332 535.344 150.332C535.344 150.332 545.816 162.191 545.816 166.377C545.816 166.377 573.043 156.61 593.289 166.377C593.289 166.377 593.289 152.425 596.081 149.634C598.874 146.844 600.27 137.078 593.289 128.707C588.37 122.547 583.936 116.016 580.024 109.174L573.043 104.988L569.447 106.128C569.447 106.128 576.534 114.057 569.552 114.755C562.571 115.452 551.401 113.359 547.91 109.174Z" fill="#CCCCCC"/>
<path d="M574.161 20.2305C571.788 22.876 568.54 24.5764 565.012 25.0187C558.914 25.8892 563.706 35.4656 563.706 35.4656C563.706 35.4656 561.963 31.9833 565.448 28.9363C568.933 25.8892 574.161 24.1481 574.161 20.2305Z" fill="#808080"/>
<path d="M562.402 44.9807C566.555 44.9807 569.922 41.6167 569.922 37.4669C569.922 33.3172 566.555 29.9531 562.402 29.9531C558.249 29.9531 554.883 33.3172 554.883 37.4669C554.883 41.6167 558.249 44.9807 562.402 44.9807Z" fill="#808080"/>
<path d="M571.181 44.8657C565.372 41.8337 555.378 39.449 550.068 39.6195L551.412 34.4883C556.112 37.6794 566.053 40.1086 572.524 39.7345L571.181 44.8657Z" fill="#CCCCCC"/>
<path d="M559.178 45.3184C559.178 45.3184 550.024 57.079 531.715 59.6924C513.407 62.3059 527.792 91.054 527.792 91.054C527.792 91.054 522.561 80.6002 533.023 71.453C543.485 62.3059 559.178 57.079 559.178 45.3184Z" fill="#808080"/>
<path d="M559.878 44.6211C559.878 44.6211 565.109 62.9154 572.955 65.5288C580.802 68.1423 576.879 95.5837 563.801 98.1972C563.801 98.1972 574.917 83.1697 568.378 71.4091C561.839 59.6485 557.916 50.5014 559.878 44.6211Z" fill="#808080"/>
<path d="M682.997 13.9512H634.826V19.5319H682.997V13.9512Z" fill="#808080"/>
<path d="M682.999 33.4846C685.313 33.4846 687.188 25.9888 687.188 16.7423C687.188 7.49578 685.313 0 682.999 0C680.686 0 678.811 7.49578 678.811 16.7423C678.811 25.9888 680.686 33.4846 682.999 33.4846Z" fill="#808080"/>
<path d="M634.828 33.4846C637.141 33.4846 639.016 25.9888 639.016 16.7423C639.016 7.49578 637.141 0 634.828 0C632.514 0 630.639 7.49578 630.639 16.7423C630.639 25.9888 632.514 33.4846 634.828 33.4846Z" fill="#808080"/>
<path d="M707.433 389.271H659.262V394.852H707.433V389.271Z" fill="#808080"/>
<path d="M707.433 408.805C709.746 408.805 711.622 401.309 711.622 392.063C711.622 382.816 709.746 375.32 707.433 375.32C705.12 375.32 703.244 382.816 703.244 392.063C703.244 401.309 705.12 408.805 707.433 408.805Z" fill="#808080"/>
<path d="M659.261 408.805C661.574 408.805 663.45 401.309 663.45 392.063C663.45 382.816 661.574 375.32 659.261 375.32C656.948 375.32 655.072 382.816 655.072 392.063C655.072 401.309 656.948 408.805 659.261 408.805Z" fill="#808080"/>
<path opacity="0.3" d="M152.177 384.75C152.177 364.192 139.439 347.527 123.726 347.527C113.851 347.527 105.153 354.113 100.051 364.109C98.2997 363.518 96.4634 363.216 94.6145 363.215C89.8331 363.296 85.2683 365.222 81.8752 368.589C77.2768 356.126 67.5259 347.527 56.2397 347.527C45.6871 347.527 36.4834 355.05 31.5719 366.214C28.6908 364.282 25.3045 363.239 21.8347 363.215C9.77619 363.215 0.000771827 376.005 0.000771827 391.781C-0.0345328 397.103 1.14176 402.363 3.44067 407.163H146.439C150.274 400.319 152.251 392.593 152.177 384.75V384.75Z" fill="#CCCCCC"/>
</svg>
