<svg width="929" height="653" viewBox="0 0 929 653" fill="none" xmlns="http://www.w3.org/2000/svg">
<path d="M186.992 26.9941L191.088 364.913L368.078 451.126L363.982 113.208L186.992 26.9941Z" fill="#F2F2F2"/>
<path d="M133.208 0L0.957031 271.502L180.403 358.913L176.307 20.994L133.208 0Z" fill="#F2F2F2"/>
<path d="M928.596 381.414L571.402 207.422L575.498 545.34L796.344 652.916L928.596 381.414Z" fill="#F2F2F2"/>
<path d="M379.982 113.207L384.078 451.125L561.069 537.339L556.973 199.421L379.982 113.207Z" fill="#F2F2F2"/>
<path d="M441.5 382.945L436.5 494.945C436.5 494.945 449.5 600.945 446.5 603.945C443.5 606.945 435.5 612.945 441.5 619.945C447.5 626.945 469.5 631.945 470.5 627.945C471.5 623.945 473.5 509.945 473.5 509.945L480.5 374.945L441.5 382.945Z" fill="#3785BA"/>
<path opacity="0.2" d="M441.5 382.945L436.5 494.945C436.5 494.945 449.5 600.945 446.5 603.945C443.5 606.945 435.5 612.945 441.5 619.945C447.5 626.945 469.5 631.945 470.5 627.945C471.5 623.945 473.5 509.945 473.5 509.945L480.5 374.945L441.5 382.945Z" fill="black"/>
<path d="M446.5 617.945C446.5 617.945 421.5 636.945 418.5 636.945C415.5 636.945 388.5 645.945 407.5 649.945C426.5 653.945 472.5 651.945 473.5 645.945C474.5 639.945 470.5 621.737 470.5 621.737L446.5 617.945Z" fill="#3785BA"/>
<path opacity="0.2" d="M446.5 617.945C446.5 617.945 421.5 636.945 418.5 636.945C415.5 636.945 388.5 645.945 407.5 649.945C426.5 653.945 472.5 651.945 473.5 645.945C474.5 639.945 470.5 621.737 470.5 621.737L446.5 617.945Z" fill="black"/>
<path d="M384.501 298.945C384.501 298.945 373.501 302.945 373.501 305.945C373.501 308.945 363.501 346.945 361.501 348.945C359.501 350.945 358.501 359.945 358.501 359.945C358.501 359.945 348.501 382.945 350.501 382.945C352.501 382.945 369.501 378.945 370.501 382.945C371.501 386.945 379.501 357.945 379.501 357.945L396.501 323.945L384.501 298.945Z" fill="#7EAFD0"/>
<path d="M350.5 386.945C350.5 386.945 353.5 408.945 361.5 410.945C369.5 412.945 361.5 382.945 361.5 382.945L350.5 386.945Z" fill="#FFB8B8"/>
<path d="M376.5 286.944C376.5 286.944 382.5 299.944 385.5 306.944C388.5 313.944 416.5 288.944 416.5 288.944C416.5 288.944 401.5 277.944 401.5 272.944C401.5 267.944 376.5 286.944 376.5 286.944Z" fill="#FFB8B8"/>
<path d="M88.0389 612C94.7452 636.791 117.716 652.144 117.716 652.144C117.716 652.144 129.814 627.304 123.107 602.513C116.401 577.723 93.4301 562.369 93.4301 562.369C93.4301 562.369 81.3325 587.209 88.0389 612Z" fill="#3785BA"/>
<path d="M97.8929 606.672C116.295 624.586 118.543 652.124 118.543 652.124C118.543 652.124 90.9546 650.618 72.5523 632.704C54.15 614.79 51.9023 587.252 51.9023 587.252C51.9023 587.252 79.4906 588.758 97.8929 606.672Z" fill="#7EAFD0"/>
<path d="M326.5 652.945C308.502 652.945 290.908 647.608 275.943 637.609C260.978 627.61 249.315 613.398 242.427 596.77C235.539 580.141 233.737 561.844 237.249 544.192C240.76 526.54 249.427 510.325 262.153 497.599C274.88 484.872 291.095 476.205 308.747 472.694C326.399 469.183 344.696 470.985 361.324 477.872C377.952 484.76 392.165 496.424 402.164 511.388C412.163 526.353 417.5 543.947 417.5 561.945C417.473 586.072 407.877 609.202 390.817 626.262C373.757 643.322 350.626 652.918 326.5 652.945ZM326.5 472.945C308.898 472.945 291.69 478.165 277.054 487.945C262.418 497.724 251.011 511.624 244.275 527.887C237.539 544.149 235.776 562.044 239.21 579.308C242.644 596.573 251.121 612.431 263.568 624.878C276.014 637.325 291.873 645.801 309.137 649.235C326.401 652.669 344.296 650.907 360.559 644.171C376.821 637.434 390.721 626.027 400.501 611.391C410.28 596.755 415.5 579.548 415.5 561.945C415.473 538.349 406.088 515.727 389.403 499.042C372.718 482.357 350.096 472.972 326.5 472.945V472.945Z" fill="#3785BA"/>
<path d="M606.5 652.945C588.502 652.945 570.908 647.608 555.943 637.609C540.978 627.61 529.315 613.398 522.427 596.77C515.539 580.141 513.737 561.844 517.249 544.192C520.76 526.54 529.427 510.325 542.153 497.599C554.88 484.872 571.095 476.205 588.747 472.694C606.399 469.183 624.696 470.985 641.324 477.872C657.952 484.76 672.165 496.424 682.164 511.388C692.163 526.353 697.5 543.947 697.5 561.945C697.473 586.072 687.877 609.202 670.817 626.262C653.757 643.322 630.626 652.918 606.5 652.945ZM606.5 472.945C588.897 472.945 571.69 478.165 557.054 487.945C542.418 497.724 531.011 511.624 524.275 527.887C517.539 544.149 515.776 562.044 519.21 579.308C522.644 596.573 531.121 612.431 543.568 624.878C556.014 637.325 571.873 645.801 589.137 649.235C606.401 652.669 624.296 650.907 640.559 644.171C656.821 637.434 670.721 626.027 680.501 611.391C690.28 596.755 695.5 579.548 695.5 561.945C695.473 538.349 686.088 515.727 669.403 499.042C652.718 482.357 630.096 472.972 606.5 472.945V472.945Z" fill="#3785BA"/>
<path d="M326.5 567.945C329.814 567.945 332.5 565.259 332.5 561.945C332.5 558.632 329.814 555.945 326.5 555.945C323.186 555.945 320.5 558.632 320.5 561.945C320.5 565.259 323.186 567.945 326.5 567.945Z" fill="#3785BA"/>
<path d="M608.5 567.945C611.814 567.945 614.5 565.259 614.5 561.945C614.5 558.632 611.814 555.945 608.5 555.945C605.186 555.945 602.5 558.632 602.5 561.945C602.5 565.259 605.186 567.945 608.5 567.945Z" fill="#3785BA"/>
<path d="M335.42 553.338L333.58 552.553L385.845 429.932L534.055 432.956L534.342 433.406L607.342 547.406L605.658 548.485L532.945 434.935L387.155 431.959L335.42 553.338Z" fill="#3785BA"/>
<path d="M491.125 576.128L529.538 440.672L531.462 441.217L493.875 573.761L594.374 560.952L594.626 562.937L491.125 576.128Z" fill="#3785BA"/>
<path d="M382.215 460.244L380.787 461.645L483.787 566.645L485.215 565.244L382.215 460.244Z" fill="#3785BA"/>
<path d="M539.53 408.681L533.539 430.684L535.469 431.209L541.459 409.206L539.53 408.681Z" fill="#3785BA"/>
<path d="M389.476 424.166L387.524 423.723L392.247 402.945H375.5V389.945H377.5V400.945H394.753L389.476 424.166Z" fill="#3785BA"/>
<path d="M503.5 388.945C503.5 388.945 503.5 382.945 516.5 385.945C529.5 388.945 569.5 396.945 572.5 395.945C575.5 394.945 574.5 401.945 561.5 404.945C548.5 407.945 533.5 400.945 530.5 398.945C527.5 396.945 503.5 388.945 503.5 388.945Z" fill="#3785BA"/>
<path d="M467.5 567.945H441.5V577.945H467.5V567.945Z" fill="#7EAFD0"/>
<path d="M492.5 594.945C488.544 594.945 484.678 593.772 481.389 591.575C478.1 589.377 475.536 586.254 474.022 582.599C472.509 578.944 472.113 574.923 472.884 571.043C473.656 567.164 475.561 563.6 478.358 560.803C481.155 558.006 484.719 556.101 488.598 555.33C492.478 554.558 496.499 554.954 500.154 556.468C503.808 557.981 506.932 560.545 509.129 563.834C511.327 567.123 512.5 570.99 512.5 574.945C512.494 580.248 510.385 585.331 506.636 589.081C502.886 592.83 497.802 594.939 492.5 594.945V594.945ZM492.5 556.945C488.94 556.945 485.46 558.001 482.5 559.979C479.54 561.957 477.233 564.768 475.87 568.057C474.508 571.346 474.151 574.965 474.846 578.457C475.54 581.949 477.255 585.156 479.772 587.673C482.289 590.191 485.497 591.905 488.988 592.599C492.48 593.294 496.099 592.938 499.388 591.575C502.677 590.213 505.489 587.906 507.466 584.946C509.444 581.986 510.5 578.505 510.5 574.945C510.494 570.173 508.596 565.598 505.222 562.223C501.847 558.849 497.272 556.951 492.5 556.945Z" fill="#3785BA"/>
<path d="M385.5 296.945C398.755 296.945 409.5 286.2 409.5 272.945C409.5 259.69 398.755 248.945 385.5 248.945C372.245 248.945 361.5 259.69 361.5 272.945C361.5 286.2 372.245 296.945 385.5 296.945Z" fill="#FFB8B8"/>
<path d="M461.499 384.944C461.499 384.944 392.499 424.944 393.499 437.944C394.499 450.944 446.499 521.944 446.499 521.944C446.499 521.944 450.499 542.944 454.499 542.944C458.499 542.944 483.499 551.944 484.499 545.944C485.499 539.944 476.499 532.944 477.499 528.944C478.499 524.944 433.499 451.944 433.499 451.944C433.499 451.944 529.806 415.944 509.653 384.944C489.499 353.944 461.499 384.944 461.499 384.944Z" fill="#3785BA"/>
<path d="M463.5 538.945C463.5 538.945 451.5 541.945 449.5 545.945C447.5 549.945 412.5 562.945 422.5 565.945C432.5 568.945 490.5 569.945 492.5 567.945C494.5 565.945 492.5 542.733 484.5 542.839C476.5 542.945 467.5 545.945 463.5 538.945Z" fill="#3785BA"/>
<path d="M385.5 309.945L408 282.445C408 282.445 433.5 274.945 444.5 289.945C455.5 304.945 485.5 341.945 495.5 349.945C505.5 357.945 519.5 388.945 514.5 389.945C509.5 390.945 481.5 378.945 470.5 386.945C459.5 394.945 438.5 395.945 437.5 391.945C436.5 387.945 376.5 320.945 376.5 311.945C376.5 302.945 382.894 301.014 382.894 301.014L385.5 309.945Z" fill="#7EAFD0"/>
<path d="M397.584 389.45L367.414 378.783C365.852 378.231 364.138 379.05 363.586 380.612C363.034 382.174 363.852 383.888 365.414 384.44L395.584 395.106C397.146 395.659 398.861 394.84 399.413 393.278C399.965 391.716 399.146 390.002 397.584 389.45Z" fill="#3785BA"/>
<path d="M329.501 376.945C329.501 376.945 294.501 386.945 297.501 397.945C300.501 408.945 332.501 384.945 332.501 384.945L329.501 376.945Z" fill="#FFB8B8"/>
<path d="M420.499 289.944C420.499 289.944 406.499 301.944 403.499 315.944C400.499 329.944 385.499 354.944 385.499 354.944L324.499 374.944C324.499 374.944 320.499 393.944 326.499 393.944C332.499 393.944 399.499 379.944 401.499 376.944C403.499 373.944 446.499 316.944 446.499 316.944C446.499 316.944 450.499 285.944 420.499 289.944Z" fill="#7EAFD0"/>
<path d="M370.593 245.166C370.002 245.675 369.294 246.03 368.532 246.2C368.15 246.268 367.756 246.182 367.436 245.961C367.117 245.74 366.898 245.401 366.828 245.019C366.387 246.243 365.568 247.293 364.489 248.019C363.344 248.616 361.573 248.115 361.408 246.835C361.241 247.807 360.811 248.715 360.164 249.46C359.827 249.817 359.363 250.026 358.872 250.043C358.382 250.059 357.905 249.881 357.545 249.548C358.046 252.289 357.737 255.107 357.894 257.888C358.052 260.67 358.794 263.619 360.895 265.448C363.96 268.115 368.569 267.457 372.6 266.952C373.21 266.824 373.843 266.858 374.435 267.052C375.944 267.695 375.876 269.797 375.896 271.437C376.019 274.316 377.159 277.058 379.112 279.176C381.065 281.295 383.706 282.652 386.565 283.008C388.166 283.255 389.798 282.857 391.105 281.9C392.249 280.93 392.834 279.349 394.146 278.62C396.279 277.434 398.867 279.163 400.427 281.04C401.987 282.918 403.524 285.227 405.941 285.571C409.137 286.025 411.571 282.768 412.765 279.769C414.413 275.565 415.203 271.075 415.087 266.561C414.972 262.048 413.954 257.603 412.093 253.489C405.42 238.942 382.623 236.641 370.593 245.166Z" fill="#3F3D56"/>
<path d="M792.888 652.903L791.111 651.985C814.193 607.361 801.85 549.41 787.432 508.653C777.642 481.259 765.155 454.904 750.154 429.979L751.845 428.91C766.923 453.963 779.475 480.451 789.317 507.985C803.868 549.115 816.297 607.645 792.888 652.903Z" fill="#3785BA"/>
<path d="M810.006 429.269L797.031 500.273L798.998 500.633L811.972 429.628L810.006 429.269Z" fill="#3785BA"/>
<path d="M723.732 489.762L722.268 491.125L789.267 563.125L790.732 561.762L723.732 489.762Z" fill="#3785BA"/>
<path d="M844.181 568.854L810.197 615.865L811.818 617.037L845.803 570.026L844.181 568.854Z" fill="#3785BA"/>
<path d="M816 410.445C821.523 410.445 826 405.968 826 400.445C826 394.922 821.523 390.445 816 390.445C810.477 390.445 806 394.922 806 400.445C806 405.968 810.477 410.445 816 410.445Z" fill="#7EAFD0"/>
<path d="M707 487.445C712.523 487.445 717 482.968 717 477.445C717 471.922 712.523 467.445 707 467.445C701.477 467.445 697 471.922 697 477.445C697 482.968 701.477 487.445 707 487.445Z" fill="#3785BA"/>
<path d="M751 497.445C756.523 497.445 761 492.968 761 487.445C761 481.922 756.523 477.445 751 477.445C745.477 477.445 741 481.922 741 487.445C741 492.968 745.477 497.445 751 497.445Z" fill="#3785BA"/>
<path d="M731 536.445C736.523 536.445 741 531.968 741 526.445C741 520.922 736.523 516.445 731 516.445C725.477 516.445 721 520.922 721 526.445C721 531.968 725.477 536.445 731 536.445Z" fill="#7EAFD0"/>
<path d="M856 561.445C861.523 561.445 866 556.968 866 551.445C866 545.922 861.523 541.445 856 541.445C850.477 541.445 846 545.922 846 551.445C846 556.968 850.477 561.445 856 561.445Z" fill="#3785BA"/>
<path d="M823 572.445C828.523 572.445 833 567.968 833 562.445C833 556.922 828.523 552.445 823 552.445C817.477 552.445 813 556.922 813 562.445C813 567.968 817.477 572.445 823 572.445Z" fill="#3785BA"/>
<path d="M846 604.445C851.523 604.445 856 599.968 856 594.445C856 588.922 851.523 584.445 846 584.445C840.477 584.445 836 588.922 836 594.445C836 599.968 840.477 604.445 846 604.445Z" fill="#3785BA"/>
<path d="M741 422.445C746.523 422.445 751 417.968 751 412.445C751 406.922 746.523 402.445 741 402.445C735.477 402.445 731 406.922 731 412.445C731 417.968 735.477 422.445 741 422.445Z" fill="#3785BA"/>
<path d="M145.935 444.371L61.0645 395.371L12.0645 480.242L96.935 529.242L145.935 444.371Z" fill="#F2F2F2"/>
<path d="M99 546.307C94.6488 546.307 90.3954 545.016 86.7775 542.599C83.1596 540.182 80.3398 536.746 78.6747 532.726C77.0095 528.706 76.5739 524.282 77.4227 520.015C78.2716 515.747 80.3669 511.827 83.4437 508.75C86.5204 505.674 90.4404 503.578 94.708 502.729C98.9756 501.88 103.399 502.316 107.419 503.981C111.439 505.646 114.875 508.466 117.292 512.084C119.71 515.702 121 519.955 121 524.307C120.993 530.139 118.673 535.731 114.549 539.856C110.425 543.98 104.833 546.3 99 546.307V546.307ZM99 504.307C95.0444 504.307 91.1776 505.48 87.8886 507.677C84.5996 509.875 82.0362 512.998 80.5224 516.653C79.0087 520.307 78.6126 524.329 79.3843 528.208C80.156 532.088 82.0608 535.652 84.8579 538.449C87.6549 541.246 91.2186 543.151 95.0982 543.922C98.9778 544.694 102.999 544.298 106.654 542.784C110.308 541.27 113.432 538.707 115.629 535.418C117.827 532.129 119 528.262 119 524.307C118.994 519.004 116.885 513.92 113.136 510.171C109.386 506.422 104.303 504.313 99 504.307V504.307Z" fill="#3785BA"/>
</svg>
