<svg width="767" height="614" viewBox="0 0 767 614" fill="none" xmlns="http://www.w3.org/2000/svg">
<g clip-path="url(#clip0_1225:2472)">
<path d="M407.594 356.868C412.642 356.868 416.733 352.775 416.733 347.726C416.733 342.676 412.642 338.583 407.594 338.583C402.547 338.583 398.455 342.676 398.455 347.726C398.455 352.775 402.547 356.868 407.594 356.868Z" fill="#FBBEBE"/>
<path d="M289.974 605.482C293.501 605.482 296.36 602.622 296.36 599.094C296.36 595.565 293.501 592.705 289.974 592.705C286.447 592.705 283.588 595.565 283.588 599.094C283.588 602.622 286.447 605.482 289.974 605.482Z" fill="#808080"/>
<path opacity="0.1" d="M289.974 605.482C293.501 605.482 296.36 602.622 296.36 599.094C296.36 595.565 293.501 592.705 289.974 592.705C286.447 592.705 283.588 595.565 283.588 599.094C283.588 602.622 286.447 605.482 289.974 605.482Z" fill="black"/>
<path d="M242.788 552.599C246.315 552.599 249.175 549.739 249.175 546.211C249.175 542.682 246.315 539.822 242.788 539.822C239.261 539.822 236.402 542.682 236.402 546.211C236.402 549.739 239.261 552.599 242.788 552.599Z" fill="#808080"/>
<path opacity="0.1" d="M242.788 552.599C246.315 552.599 249.175 549.739 249.175 546.211C249.175 542.682 246.315 539.822 242.788 539.822C239.261 539.822 236.402 542.682 236.402 546.211C236.402 549.739 239.261 552.599 242.788 552.599Z" fill="black"/>
<path d="M238.887 532.369C238.887 532.369 244.563 530.949 250.949 543.016L303.457 603.352C303.457 603.352 309.57 607.963 316.093 605.303C316.093 605.303 316.939 608.321 307.005 607.611C297.071 606.901 277.203 582.767 277.203 582.767C277.203 582.767 238.177 538.757 238.887 532.369Z" fill="#E4E4E4"/>
<path d="M246.691 562.182C250.218 562.182 253.077 559.322 253.077 555.794C253.077 552.265 250.218 549.405 246.691 549.405C243.164 549.405 240.305 552.265 240.305 555.794C240.305 559.322 243.164 562.182 246.691 562.182Z" fill="#808080"/>
<path d="M294.232 614C297.759 614 300.618 611.139 300.618 607.611C300.618 604.083 297.759 601.223 294.232 601.223C290.705 601.223 287.846 604.083 287.846 607.611C287.846 611.139 290.705 614 294.232 614Z" fill="#808080"/>
<path d="M358.379 441.02C358.379 441.02 403.082 499.227 406.63 502.776C406.63 502.776 398.115 529.04 400.244 537.558C402.372 546.076 395.986 566.661 395.986 566.661L403.791 576.599H410.178C410.178 576.599 415.02 548.101 420.821 534.009C435.722 497.807 428.626 493.548 420.821 478.642C413.016 463.735 393.857 434.632 392.438 434.632C391.019 434.632 358.379 441.02 358.379 441.02Z" fill="#FBBEBE"/>
<path d="M376.118 316.799C392.185 316.799 405.21 303.769 405.21 287.696C405.21 271.623 392.185 258.593 376.118 258.593C360.051 258.593 347.025 271.623 347.025 287.696C347.025 303.769 360.051 316.799 376.118 316.799Z" fill="#808080"/>
<path d="M369.377 304.377C369.377 304.377 382.149 328.511 360.152 325.672L361.571 356.195C361.571 356.195 376.472 364.713 377.182 364.713C377.892 364.713 399.888 357.615 399.888 357.615L404.855 351.936L405.565 325.672C405.565 325.672 388.535 324.252 387.826 305.087C387.116 285.921 369.377 304.377 369.377 304.377Z" fill="#FBBEBE"/>
<path opacity="0.1" d="M369.377 304.377C369.377 304.377 382.149 328.511 360.152 325.672L361.571 356.195C361.571 356.195 376.472 364.713 377.182 364.713C377.892 364.713 399.888 357.615 399.888 357.615L404.855 351.936L405.565 325.672C405.565 325.672 388.535 324.252 387.826 305.087C387.116 285.921 369.377 304.377 369.377 304.377Z" fill="black"/>
<path d="M351.638 382.459L340.285 390.267L355.896 417.241L373.635 415.821L390.665 408.013C390.665 408.013 390.665 395.946 394.922 388.848C399.18 381.749 351.638 382.459 351.638 382.459Z" fill="#FBBEBE"/>
<path d="M394.212 295.15C394.213 299.22 392.869 303.176 390.389 306.402C387.908 309.629 384.431 311.944 380.499 312.988C376.566 314.032 372.399 313.746 368.646 312.175C364.893 310.603 361.765 307.834 359.748 304.299C358.147 301.517 357.307 298.361 357.314 295.15V295.143C357.315 290.248 359.26 285.554 362.721 282.093C366.181 278.633 370.874 276.689 375.767 276.69C380.66 276.691 385.352 278.637 388.811 282.098C392.27 285.56 394.213 290.255 394.212 295.15V295.15Z" fill="#FBBEBE"/>
<path d="M360.236 325.285C360.236 325.285 350.218 320.704 342.413 321.413C334.607 322.123 319.706 324.253 315.449 321.413C311.191 318.574 289.195 323.543 289.195 323.543C289.195 323.543 288.485 330.641 307.644 335.61C326.802 340.579 340.993 341.289 344.541 346.967C348.089 352.646 353.056 359.745 353.056 359.745L362.99 339.159L360.236 325.285Z" fill="#FBBEBE"/>
<path opacity="0.2" d="M359.748 304.299C358.147 301.517 357.307 298.361 357.314 295.15V295.142C361.6 294.887 366.489 295.27 370.796 297.279C378.148 300.715 367.213 303.128 359.748 304.299Z" fill="black"/>
<path d="M301.968 327.802C301.968 327.802 314.74 323.543 318.288 318.574C321.836 313.605 353.766 302.958 353.766 302.958C353.766 302.958 381.44 300.119 370.796 295.15C360.152 290.181 345.961 295.15 345.961 295.15C345.961 295.15 293.453 312.896 291.324 316.445C290.042 318.6 289.311 321.038 289.195 323.543L294.162 325.673L301.968 327.802Z" fill="#FBBEBE"/>
<path d="M321.836 415.821C321.836 415.821 307.644 437.116 320.417 488.934C320.417 488.934 320.417 515.198 318.288 524.426C316.159 533.654 318.288 581.923 318.288 581.923L325.384 589.021L331.77 584.762C331.77 584.762 327.158 566.661 334.963 548.205C342.768 529.75 337.092 505.615 337.092 505.615C337.092 505.615 351.638 456.282 348.09 439.956C344.542 423.63 321.836 415.821 321.836 415.821Z" fill="#FBBEBE"/>
<path d="M323.965 581.213C323.965 581.213 317.579 571.275 316.16 574.115C314.741 576.954 312.612 585.472 303.388 589.021C294.163 592.57 287.777 592.57 297.002 599.669C306.226 606.767 308.355 606.767 312.612 604.638C316.869 602.508 323.965 601.088 326.094 601.798C328.223 602.508 336.737 599.669 336.028 595.41C335.318 591.151 331.77 586.892 331.77 586.892C331.77 586.892 330.351 579.084 328.932 581.213C327.513 583.343 323.965 581.213 323.965 581.213Z" fill="#808080"/>
<path d="M407.694 571.274C407.694 571.274 397.212 561.182 397.841 559.13C398.469 557.078 385.697 557.078 387.826 564.886C389.954 572.694 395.631 581.922 395.631 581.922C394.921 591.15 394.921 598.958 402.727 601.797C410.532 604.637 419.756 602.507 416.918 593.989C414.08 585.471 411.765 572.417 411.765 572.417L407.694 571.274Z" fill="#808080"/>
<path d="M343.478 387.073C343.478 387.073 318.288 401.625 316.869 421.5C316.869 421.5 323.965 441.376 349.509 444.925C349.509 444.925 355.64 442.085 358.606 444.925C361.572 447.764 387.117 444.925 394.922 437.826C394.922 437.826 390.31 407.658 391.729 401.27C391.729 401.27 368.668 420.79 358.024 404.464C347.381 388.138 343.478 387.073 343.478 387.073Z" fill="#808080"/>
<path d="M404.145 327.802C404.145 327.802 417.627 320.704 424.723 336.32C431.819 351.936 446.01 376.071 445.3 384.589C444.591 393.107 401.307 417.241 401.307 417.241C401.307 417.241 382.858 436.407 381.439 428.598C380.02 420.79 394.921 410.143 394.921 410.143C394.921 410.143 427.561 390.977 427.561 383.879C427.561 376.781 411.241 348.387 407.693 348.387C404.145 348.387 404.145 327.802 404.145 327.802Z" fill="#FBBEBE"/>
<path d="M361.572 324.253L355.896 323.543C355.896 323.543 363.001 346.906 349.869 355.1C349.869 355.1 357.315 377.49 346.671 383.879C336.028 390.267 389.246 403.754 394.213 398.076C399.18 392.397 415.105 356.339 413.883 355.202C412.661 354.066 404.147 347.677 406.275 339.869C407.535 335.386 408.257 330.77 408.426 326.116L401.779 324.454L397.051 348.387C397.051 348.387 375.764 356.905 366.539 344.128L361.572 324.253Z" fill="#E4E4E4"/>
<path d="M383.038 272.79H364.939C362.099 272.79 359.797 275.093 359.797 277.934V283.262C359.797 286.103 362.099 288.406 364.939 288.406H383.038C385.878 288.406 388.18 286.103 388.18 283.262V277.934C388.18 275.093 385.878 272.79 383.038 272.79Z" fill="#808080"/>
<path d="M378.247 271.37C385.301 271.37 391.019 265.65 391.019 258.593C391.019 251.537 385.301 245.816 378.247 245.816C371.193 245.816 365.475 251.537 365.475 258.593C365.475 265.65 371.193 271.37 378.247 271.37Z" fill="#808080"/>
<path d="M585.721 459.729C588.544 454.8 590.003 449.208 589.947 443.528C589.947 428.886 580.883 417.017 569.703 417.017C558.522 417.017 549.459 428.886 549.459 443.528C549.403 449.208 550.861 454.8 553.684 459.729C550.913 464.679 549.459 470.257 549.459 475.93C549.459 481.603 550.913 487.182 553.684 492.132C550.913 497.082 549.459 502.66 549.459 508.333C549.459 514.006 550.913 519.584 553.684 524.534C550.913 529.484 549.459 535.062 549.459 540.735C549.459 546.408 550.913 551.987 553.684 556.937C550.861 561.866 549.403 567.458 549.459 573.138C549.459 587.78 558.522 599.649 569.703 599.649C580.883 599.649 589.947 587.78 589.947 573.138C590.003 567.458 588.544 561.866 585.721 556.937C588.492 551.987 589.947 546.408 589.947 540.735C589.947 535.062 588.492 529.484 585.721 524.534C588.492 519.584 589.947 514.006 589.947 508.333C589.947 502.66 588.492 497.082 585.721 492.132C588.492 487.182 589.947 481.603 589.947 475.93C589.947 470.257 588.492 464.679 585.721 459.729V459.729Z" fill="#808080"/>
<path d="M569.703 437.637C580.884 437.637 589.947 425.767 589.947 411.125C589.947 396.484 580.884 384.614 569.703 384.614C558.523 384.614 549.459 396.484 549.459 411.125C549.459 425.767 558.523 437.637 569.703 437.637Z" fill="#808080"/>
<path d="M569.703 405.234C580.884 405.234 589.947 393.365 589.947 378.723C589.947 364.081 580.884 352.212 569.703 352.212C558.523 352.212 549.459 364.081 549.459 378.723C549.459 393.365 558.523 405.234 569.703 405.234Z" fill="#808080"/>
<path d="M645.488 156.982C648.253 153.46 650.773 149.75 653.027 145.88L599.834 137.141L657.364 137.569C662.882 125.557 665.893 112.545 666.212 99.3286C666.53 86.1124 664.149 72.9702 659.215 60.7061L582.032 100.76L653.213 48.4172C646.544 36.8892 637.574 26.8583 626.861 18.9495C616.149 11.0407 603.922 5.42343 590.945 2.44755C577.967 -0.528317 564.516 -0.799006 551.429 1.65234C538.342 4.10369 525.9 9.22456 514.878 16.6959C503.856 24.1673 494.49 33.8292 487.363 45.0796C480.237 56.33 475.502 68.928 473.454 82.0887C471.407 95.2494 472.09 108.691 475.462 121.576C478.834 134.461 484.822 146.513 493.053 156.982C488.742 162.464 485.034 168.396 481.994 174.673L551.042 210.559L477.417 185.84C472.248 201.127 470.97 217.463 473.7 233.369C476.43 249.275 483.082 264.248 493.053 276.935C481.802 291.244 474.804 308.431 472.857 326.531C470.911 344.631 474.095 362.914 482.045 379.289C489.996 395.664 502.392 409.471 517.817 419.13C533.242 428.79 551.072 433.912 569.27 433.912C587.468 433.912 605.299 428.79 620.723 419.13C636.148 409.471 648.545 395.664 656.495 379.289C664.446 362.914 667.63 344.631 665.683 326.531C663.737 308.431 656.738 291.244 645.488 276.935C658.931 259.836 666.24 238.713 666.24 216.959C666.24 195.204 658.931 174.082 645.488 156.982V156.982Z" fill="#D3D3D3"/>
<path opacity="0.1" d="M472.301 216.959C472.267 238.718 479.58 259.852 493.053 276.935C481.802 291.244 474.804 308.431 472.857 326.531C470.911 344.631 474.095 362.914 482.045 379.289C489.996 395.664 502.392 409.471 517.817 419.13C533.242 428.79 551.073 433.912 569.27 433.912C587.468 433.912 605.299 428.79 620.723 419.13C636.148 409.471 648.545 395.664 656.495 379.289C664.446 362.914 667.63 344.631 665.683 326.531C663.737 308.431 656.738 291.244 645.488 276.935C658.485 260.429 472.301 206.071 472.301 216.959Z" fill="black"/>
<path d="M11.3242 496.801C11.3242 545.805 42.0556 585.459 80.0336 585.459Z" fill="#BBBBBB"/>
<path d="M80.0332 585.459C80.0332 535.904 114.328 495.805 156.709 495.805Z" fill="#E4E4E4"/>
<path d="M36.2188 501.243C36.2188 547.792 55.8156 585.459 80.0334 585.459Z" fill="#E4E4E4"/>
<path d="M80.0332 585.459C80.0332 522.138 119.672 470.9 168.658 470.9Z" fill="#BBBBBB"/>
<path d="M65.5801 586.084C65.5801 586.084 75.3242 585.783 78.2608 583.692C81.1975 581.6 93.2498 579.102 93.9783 582.457C94.7068 585.812 108.622 599.143 97.6208 599.231C86.6197 599.32 72.0592 597.517 69.1282 595.731C66.1973 593.945 65.5801 586.084 65.5801 586.084Z" fill="#A8A8A8"/>
<path opacity="0.2" d="M97.8171 598.064C86.816 598.153 72.2555 596.35 69.3245 594.564C67.0924 593.204 66.203 588.323 65.9054 586.071C65.6993 586.08 65.5801 586.084 65.5801 586.084C65.5801 586.084 66.1972 593.946 69.1282 595.732C72.0592 597.518 86.6197 599.321 97.6208 599.232C100.796 599.206 101.893 598.076 101.833 596.402C101.392 597.413 100.181 598.045 97.8171 598.064Z" fill="black"/>
<path d="M451.95 135.093C449.043 132.174 445.777 130.427 443.239 130.189L445.842 134.843L441.564 130.282C440.898 130.423 440.294 130.774 439.84 131.282C437.695 133.737 439.638 139.425 444.18 143.985C448.723 148.546 454.144 150.252 456.29 147.797C458.435 145.341 456.493 139.654 451.95 135.093Z" fill="#D3D3D3"/>
<path opacity="0.1" d="M453.517 137.892C452.737 139.041 452.356 140.558 451.484 141.619C450.611 142.681 449.08 143.242 447.009 142.314C445.894 141.814 444.74 140.936 443.606 140.312C442.691 139.782 441.677 139.447 440.627 139.328C441.594 141.035 442.79 142.602 444.181 143.985C448.723 148.546 454.145 150.252 456.29 147.797C458.091 145.736 457.011 141.398 453.932 137.361C453.782 137.529 453.644 137.706 453.517 137.892V137.892Z" fill="black"/>
<path d="M454.978 278.575C458.743 276.905 461.543 274.481 462.675 272.195L457.399 272.96L463.189 270.598C463.295 269.925 463.184 269.236 462.873 268.63C461.35 265.746 455.345 265.523 449.462 268.132C443.578 270.741 440.044 275.194 441.567 278.077C443.09 280.961 449.094 281.184 454.978 278.575Z" fill="#D3D3D3"/>
<path opacity="0.1" d="M451.805 279.035C451.011 277.894 449.732 276.995 449.054 275.801C448.376 274.606 448.401 272.975 450.009 271.373C450.875 270.51 452.107 269.747 453.096 268.911C453.918 268.247 454.594 267.419 455.081 266.481C453.142 266.774 451.251 267.329 449.462 268.132C443.578 270.741 440.044 275.194 441.567 278.077C442.845 280.497 447.28 281.042 452.151 279.613C452.048 279.413 451.932 279.22 451.805 279.035V279.035Z" fill="black"/>
<path d="M220.012 256.125C215.906 255.799 212.289 256.596 210.206 258.066L215.209 259.908L208.994 259.225C208.58 259.767 208.349 260.425 208.334 261.106C208.3 264.367 213.473 267.425 219.888 267.935C226.304 268.446 231.532 266.216 231.566 262.954C231.6 259.693 226.427 256.636 220.012 256.125Z" fill="#D3D3D3"/>
<path opacity="0.1" d="M223.022 257.233C223.176 258.614 223.873 260.014 223.9 261.387C223.927 262.761 223.128 264.183 220.952 264.825C219.779 265.171 218.332 265.255 217.064 265.518C216.025 265.711 215.037 266.116 214.162 266.708C216.006 267.376 217.933 267.788 219.889 267.935C226.304 268.445 231.533 266.215 231.567 262.954C231.595 260.217 227.956 257.624 222.992 256.56C222.988 256.784 222.997 257.009 223.022 257.233V257.233Z" fill="black"/>
<path d="M315.568 363.167C317.344 359.45 317.896 355.786 317.27 353.314L313.759 357.326L316.622 351.766C316.265 351.186 315.733 350.734 315.103 350.476C312.071 349.276 307.365 353.012 304.59 358.821C301.816 364.63 302.024 370.312 305.056 371.513C308.087 372.713 312.794 368.977 315.568 363.167Z" fill="#D3D3D3"/>
<path opacity="0.1" d="M313.457 365.582C312.113 365.232 310.556 365.381 309.265 364.914C307.973 364.447 306.932 363.192 307.112 360.929C307.21 359.71 307.65 358.328 307.858 357.05C308.051 356.011 308.026 354.943 307.787 353.913C306.503 355.397 305.428 357.048 304.59 358.822C301.816 364.631 302.024 370.313 305.056 371.514C307.6 372.521 311.324 370.05 314.095 365.796C313.887 365.711 313.674 365.639 313.457 365.582V365.582Z" fill="black"/>
<path d="M669.493 277.735C665.387 277.408 661.77 278.205 659.687 279.675L664.689 281.517L658.474 280.835C658.06 281.376 657.829 282.035 657.815 282.716C657.78 285.977 662.953 289.034 669.369 289.545C675.784 290.055 681.012 287.825 681.047 284.564C681.081 281.303 675.908 278.245 669.493 277.735Z" fill="#D3D3D3"/>
<path opacity="0.1" d="M672.502 278.842C672.657 280.223 673.353 281.623 673.38 282.997C673.407 284.37 672.609 285.793 670.432 286.434C669.26 286.78 667.812 286.864 666.545 287.127C665.506 287.32 664.518 287.725 663.643 288.318C665.487 288.985 667.414 289.398 669.369 289.544C675.785 290.055 681.013 287.825 681.047 284.564C681.076 281.826 677.436 279.234 672.473 278.169C672.468 278.394 672.478 278.618 672.502 278.842V278.842Z" fill="black"/>
<path d="M765.051 384.778C766.826 381.06 767.378 377.397 766.752 374.924L763.241 378.937L766.104 373.376C765.748 372.796 765.215 372.344 764.585 372.087C761.554 370.886 756.847 374.623 754.073 380.432C751.299 386.241 751.507 391.923 754.538 393.123C757.57 394.323 762.276 390.587 765.051 384.778Z" fill="#D3D3D3"/>
<path opacity="0.1" d="M762.939 387.191C761.595 386.841 760.038 386.99 758.747 386.523C757.455 386.057 756.414 384.801 756.595 382.538C756.692 381.32 757.132 379.937 757.34 378.659C757.533 377.62 757.509 376.552 757.269 375.522C755.986 377.006 754.91 378.658 754.073 380.432C751.299 386.241 751.507 391.923 754.538 393.123C757.083 394.13 760.806 391.659 763.578 387.405C763.37 387.32 763.156 387.249 762.939 387.191V387.191Z" fill="black"/>
<path d="M743.512 224.692C742.242 220.773 740.122 217.735 737.966 216.373L738.18 221.701L736.431 215.696C735.773 215.521 735.077 215.559 734.442 215.807C731.417 217.023 730.574 222.974 732.559 229.099C734.543 235.223 738.604 239.201 741.629 237.984C744.654 236.767 745.497 230.816 743.512 224.692Z" fill="#D3D3D3"/>
<path opacity="0.1" d="M743.642 227.896C742.426 228.568 741.4 229.747 740.142 230.298C738.884 230.849 737.264 230.655 735.838 228.89C735.07 227.938 734.438 226.633 733.71 225.562C733.135 224.676 732.382 223.918 731.5 223.336C731.59 225.296 731.946 227.234 732.559 229.098C734.544 235.222 738.605 239.2 741.63 237.984C744.168 236.962 745.169 232.606 744.253 227.611C744.043 227.693 743.839 227.788 743.642 227.896Z" fill="black"/>
<path d="M681.243 353.98C685.356 354.198 688.95 353.305 690.994 351.78L685.945 350.072L692.176 350.589C692.575 350.037 692.788 349.373 692.785 348.692C692.733 345.431 687.481 342.511 681.054 342.171C674.627 341.831 669.46 344.199 669.512 347.46C669.564 350.721 674.816 353.64 681.243 353.98Z" fill="#D3D3D3"/>
<path opacity="0.1" d="M678.204 352.954C678.013 351.577 677.279 350.196 677.216 348.824C677.153 347.452 677.913 346.009 680.072 345.309C681.235 344.933 682.68 344.81 683.94 344.513C684.973 344.293 685.95 343.862 686.809 343.247C684.948 342.628 683.011 342.267 681.052 342.172C674.625 341.832 669.458 344.2 669.51 347.461C669.554 350.198 673.261 352.693 678.251 353.626C678.25 353.401 678.234 353.177 678.204 352.954V352.954Z" fill="black"/>
</g>
<defs>
<clipPath id="clip0_1225:2472">
<rect width="767" height="614" fill="white"/>
</clipPath>
</defs>
</svg>
