<svg width="780" height="682" viewBox="0 0 780 682" fill="none" xmlns="http://www.w3.org/2000/svg">
<path d="M561.607 673.808C549.731 663.769 542.518 647.911 544.409 632.473C546.301 617.035 558.018 602.843 573.217 599.564C588.416 596.286 605.742 605.361 610.358 620.213C612.899 591.579 615.827 561.745 631.045 537.36C644.826 515.28 668.693 499.481 694.56 496.654C720.427 493.828 747.661 504.503 763.794 524.926C779.926 545.35 783.876 575.041 772.577 598.489C764.254 615.762 748.919 628.617 732.853 639.075C680.936 672.585 618.668 686.212 557.506 677.449" fill="#F2F2F2"/>
<path d="M738.212 505.094C716.869 522.485 697.289 541.935 679.755 563.163C652.314 596.271 630.109 633.391 613.912 673.23C612.727 676.136 617.444 677.401 618.617 674.527C645.117 609.78 687.422 552.713 741.662 508.545C744.098 506.561 740.628 503.127 738.212 505.094Z" fill="white"/>
<path d="M131.34 680.679H63.9866C61.7107 680.677 59.5288 679.771 57.9195 678.161C56.3102 676.551 55.4049 674.369 55.4023 672.092V532.054C55.4049 529.777 56.3102 527.595 57.9195 525.985C59.5288 524.375 61.7107 523.469 63.9866 523.467H131.34C133.616 523.469 135.798 524.375 137.407 525.985C139.017 527.595 139.922 529.777 139.925 532.054V672.092C139.922 674.369 139.017 676.551 137.407 678.161C135.798 679.771 133.616 680.677 131.34 680.679Z" fill="#BBBBBB"/>
<path d="M291.141 682H223.788C221.162 681.997 218.644 680.952 216.787 679.095C214.93 677.237 213.886 674.719 213.883 672.092V399.943C213.886 397.316 214.93 394.797 216.787 392.939C218.644 391.082 221.162 390.037 223.788 390.034H291.141C293.767 390.037 296.285 391.082 298.142 392.939C299.999 394.797 301.043 397.316 301.046 399.943V672.092C301.043 674.719 299.999 677.237 298.142 679.095C296.285 680.952 293.767 681.997 291.141 682V682ZM223.788 392.676C221.862 392.679 220.016 393.445 218.654 394.807C217.292 396.169 216.526 398.016 216.524 399.943V672.092C216.526 674.018 217.292 675.865 218.654 677.227C220.016 678.589 221.862 679.356 223.788 679.358H291.141C293.067 679.356 294.913 678.589 296.275 677.227C297.637 675.865 298.403 674.018 298.405 672.092V399.943C298.403 398.016 297.637 396.169 296.275 394.807C294.913 393.445 293.067 392.679 291.141 392.676H223.788Z" fill="#808080"/>
<path d="M450.94 682H383.587C380.961 681.997 378.443 680.953 376.586 679.095C374.729 677.237 373.685 674.719 373.682 672.092V226.877C373.685 224.25 374.729 221.732 376.586 219.874C378.443 218.017 380.961 216.972 383.587 216.969H450.94C453.566 216.972 456.084 218.017 457.941 219.874C459.798 221.732 460.842 224.25 460.845 226.877V672.092C460.842 674.719 459.798 677.237 457.941 679.095C456.084 680.953 453.566 681.997 450.94 682V682ZM383.587 219.611C381.661 219.613 379.815 220.379 378.453 221.742C377.091 223.104 376.325 224.951 376.323 226.877V672.092C376.325 674.018 377.091 675.865 378.453 677.227C379.815 678.59 381.661 679.356 383.587 679.358H450.94C452.866 679.356 454.712 678.59 456.074 677.227C457.436 675.865 458.202 674.018 458.204 672.092V226.877C458.202 224.951 457.436 223.104 456.074 221.742C454.712 220.379 452.866 219.613 450.94 219.611H383.587Z" fill="#808080"/>
<path d="M612.231 681.34H544.877C542.601 681.337 540.419 680.431 538.81 678.821C537.201 677.212 536.296 675.029 536.293 672.752V45.2239C536.296 42.9473 537.201 40.7646 538.81 39.1548C540.419 37.5449 542.601 36.6394 544.877 36.6367H612.231C614.507 36.6394 616.689 37.5449 618.298 39.1548C619.907 40.7646 620.813 42.9473 620.815 45.2239V672.752C620.813 675.029 619.907 677.212 618.298 678.821C616.689 680.431 614.507 681.337 612.231 681.34Z" fill="#BBBBBB"/>
<path d="M193.335 293.761C193.579 291.834 193.398 289.877 192.805 288.028C192.211 286.179 191.22 284.482 189.9 283.058C188.58 281.633 186.964 280.516 185.166 279.784C183.368 279.052 181.431 278.723 179.492 278.821L156.015 235.74L150.732 254.236L166.817 293.718C167.197 296.966 168.754 299.961 171.195 302.137C173.635 304.312 176.788 305.517 180.057 305.522C183.326 305.527 186.483 304.333 188.93 302.165C191.377 299.997 192.944 297.007 193.335 293.761V293.761Z" fill="#A0616A"/>
<path d="M12.4531 463.86L25.529 473.41L68.5759 427.497L49.2757 413.402L12.4531 463.86Z" fill="#A0616A"/>
<path d="M41.8847 503.975L0.785868 473.96L12.3785 458.075L37.5983 476.493C41.8097 479.569 44.6272 484.192 45.4311 489.346C46.235 494.5 44.9593 499.762 41.8848 503.975V503.975L41.8847 503.975Z" fill="#808080"/>
<path d="M81.6355 514.411L97.8267 514.409L105.529 451.937L81.6328 451.938L81.6355 514.411Z" fill="#A0616A"/>
<path d="M129.053 529.448L78.1668 529.451L78.1659 509.783L109.391 509.782C114.606 509.782 119.606 511.854 123.294 515.542C126.981 519.23 129.052 524.232 129.053 529.448V529.448V529.448Z" fill="#808080"/>
<path d="M130.261 270.75C130.261 270.75 138.185 347.374 118.375 400.219L103.848 500.623H78.7556L81.397 381.723L72.1523 276.034C72.1523 276.034 90.6416 228.474 130.261 270.75Z" fill="#808080"/>
<path d="M44.4187 276.033L70.8319 367.19L19.3262 449.099L45.079 470.897L103.848 379.08L86.6798 266.785L44.4187 276.033Z" fill="#808080"/>
<path d="M111.779 71.6233C129.693 71.6233 144.215 57.0959 144.215 39.1754C144.215 21.2549 129.693 6.72754 111.779 6.72754C93.8642 6.72754 79.3418 21.2549 79.3418 39.1754C79.3418 57.0959 93.8642 71.6233 111.779 71.6233Z" fill="#A0616A"/>
<path d="M84.7003 83.8121C84.7003 83.8121 104.51 70.601 126.961 99.6655L132.904 282.64C132.904 282.64 115.736 258.86 80.078 281.318C44.4202 303.777 36.4962 278.676 36.4962 278.676C36.4962 278.676 11.4037 89.7571 84.7003 83.8121Z" fill="#CCCCCC"/>
<path d="M125.363 99.2036C131.061 99.5117 136.443 101.917 140.475 105.955C144.507 109.994 146.903 115.382 147.203 121.082L151.393 200.73L179.127 276.033L163.279 289.245L111.774 199.409L101.228 125.568C100.745 122.183 101.018 118.734 102.027 115.467C103.036 112.201 104.757 109.199 107.065 106.678C109.373 104.157 112.212 102.179 115.376 100.886C118.54 99.5937 121.951 99.0191 125.363 99.2036V99.2036Z" fill="#CCCCCC"/>
<path d="M87.9438 63.5143C93.2466 69.1649 103.095 66.1315 103.786 58.4121C103.84 57.8128 103.836 57.2096 103.774 56.611C103.417 53.1916 101.442 50.0873 101.915 46.4769C102.022 45.5783 102.357 44.722 102.888 43.9891C107.113 38.3286 117.033 46.5208 121.021 41.3966C123.466 38.2545 120.592 33.3075 122.468 29.7957C124.945 25.1607 132.281 27.4472 136.881 24.9088C142 22.0846 141.694 14.2286 138.324 9.45021C134.215 3.62279 127.011 0.513214 119.896 0.0650264C112.781 -0.383161 105.715 1.54083 99.073 4.13029C91.5261 7.0724 84.0422 11.1385 79.3978 17.7769C73.7499 25.8498 73.2064 36.7031 76.031 46.1429C77.7493 51.8852 83.6135 58.9001 87.9438 63.5143Z" fill="#4F4949"/>
</svg>
