<svg width="813" height="709" viewBox="0 0 813 709" fill="none" xmlns="http://www.w3.org/2000/svg">
<path d="M795.578 235.208C795.578 265.811 788.612 291.002 776.527 312.581C774.437 316.305 575.523 303.838 573.144 307.365C570.981 310.569 765.379 329.785 762.987 332.812C718.561 389.345 635.966 420.287 561.316 470.407C340.961 618.349 317.092 381.287 327.044 235.208C331.059 176.265 353.121 122.272 388.171 80.9319C392.168 76.2113 602.092 55.6073 606.427 51.2275C610.077 47.5404 408.088 60.0265 411.965 56.594C451.757 21.3359 503.166 0 561.316 0C661.081 0 746.277 62.6067 780.056 150.83C781.559 154.758 465.953 128.59 467.241 132.589C468.607 136.834 786.853 171.25 787.975 175.564C793.023 194.972 795.589 215.026 795.578 235.208Z" fill="#9DABBB"/>
<path d="M319.894 62.0334C319.894 62.6062 354.285 65.0636 354.235 65.6198C353.984 69.0675 352.966 72.4156 351.256 75.4204C349.545 78.4252 347.186 81.011 344.35 82.9894C341.513 84.9678 338.27 86.289 334.858 86.8568C331.446 87.4246 327.95 87.2247 324.625 86.2716C321.3 85.3185 318.229 83.6363 315.637 81.3475C314.456 80.3043 346.45 77.2781 345.508 76.0265C344.384 74.5318 310.378 74.7714 309.64 73.0407C308.284 69.8605 307.655 66.4182 307.799 62.9644C307.942 59.5106 308.855 56.1323 310.47 53.0755C310.718 52.6018 336.209 50.6045 336.491 50.151C336.779 49.6873 311.859 50.7681 312.182 50.3276C314.963 46.4719 318.862 43.5616 323.35 41.9891C327.839 40.4166 332.702 40.2575 337.284 41.5335C341.866 42.8094 345.947 45.4589 348.975 49.1245C352.003 52.7902 353.833 57.2957 354.219 62.0334C354.277 62.656 319.894 61.3941 319.894 62.0334Z" fill="#9DABBB"/>
<path d="M640.879 480.768C640.61 481.274 670.367 500.058 670.062 500.526C668.222 503.454 665.751 505.935 662.83 507.788C659.909 509.641 656.61 510.82 653.175 511.239C649.74 511.657 646.255 511.305 642.973 510.208C639.691 509.111 636.696 507.297 634.205 504.897C631.714 502.498 629.79 499.573 628.573 496.337C628.076 495.014 656.161 505.153 655.913 503.77C655.554 501.771 626.998 488.225 627.172 486.189C627.466 482.744 628.526 479.409 630.274 476.425C632.021 473.441 634.413 470.884 637.275 468.941C637.742 468.621 661.436 478.175 661.927 477.893C662.373 477.636 639.613 467.539 640.077 467.315C644.345 465.212 649.155 464.468 653.86 465.181C658.564 465.895 662.936 468.033 666.387 471.307C669.837 474.581 672.199 478.833 673.155 483.49C674.11 488.147 673.613 492.984 671.731 497.35C671.49 497.927 641.179 480.203 640.879 480.768Z" fill="#9DABBB"/>
<path d="M774.171 88.1902C774.571 88.6006 801.377 65.9601 801.729 66.3933C803.955 69.0386 805.563 72.1476 806.437 75.494C807.311 78.8403 807.429 82.3397 806.781 85.7373C806.134 89.1348 804.737 92.3449 802.694 95.1338C800.65 97.9228 798.011 100.22 794.969 101.859C791.926 103.498 788.557 104.436 785.106 104.606C783.603 104.68 802.669 82.6523 801.188 82.4367C799.27 82.1575 776.822 103.594 775.022 102.843C771.834 101.511 768.982 99.4846 766.674 96.9103C764.367 94.3359 762.662 91.2787 761.684 87.9614C761.53 87.4479 777.288 68.576 777.173 68.0528C777.056 67.521 761.067 85.3377 760.99 84.7981C760.289 80.0941 761.045 75.2879 763.157 71.0277C765.27 66.7675 768.636 63.2584 772.802 60.9735C776.969 58.6886 781.735 57.738 786.458 58.2498C791.181 58.7616 795.633 60.7113 799.215 63.8358C799.691 64.2412 773.725 87.7323 774.171 88.1902Z" fill="#9DABBB"/>
<path d="M400.693 528.844C400.693 528.844 447.15 531.249 447.15 545.677C447.15 560.106 394.886 545.677 394.886 545.677L400.693 528.844Z" fill="#A0616A"/>
<path d="M324.708 709H224.262L220.841 675.708L199.912 709H104.529C106.682 624.659 141.145 542.538 143.299 531.44C145.453 520.343 150.601 474.488 150.601 474.488C160.014 453.913 209.339 451.982 248.002 453.846C264.027 454.601 278.243 456.021 287.009 457.042C292.803 457.708 296.228 458.197 296.228 458.197C311.672 474.599 321.623 496.949 327.74 521.918C349.797 611.875 324.708 709 324.708 709Z" fill="#2F2E41"/>
<path d="M214.864 220.836C243.729 220.836 267.129 194.817 267.129 162.721C267.129 130.625 243.729 104.606 214.864 104.606C186 104.606 162.6 130.625 162.6 162.721C162.6 194.817 186 220.836 214.864 220.836Z" fill="#A0616A"/>
<path d="M180.061 174.344C180.061 174.344 165.438 243.95 142.459 264.158C119.48 284.366 232.286 264.158 232.286 264.158C232.286 264.158 207.218 219.251 226.019 199.043C244.82 178.835 180.061 174.344 180.061 174.344Z" fill="#A0616A"/>
<path d="M290.357 460.806L254.145 464.942L152.843 476.541C152.843 476.541 152.363 475.215 151.511 472.81C144.155 452.152 108.729 351.629 104.822 321.44C100.456 287.723 146.294 247.262 146.294 247.262C146.294 247.262 189.95 238.271 203.046 238.271C216.143 238.271 268.529 258.501 268.529 258.501L288.065 439.474L289.746 455.142L290.357 460.806Z" fill="#9DABBB"/>
<path opacity="0.15" d="M325.2 517.221L256.116 473.428C256.116 473.428 254.904 469.162 252.85 461.963C251.823 458.364 250.57 454.009 249.153 449.076C241.182 421.392 227.809 375.71 217.086 342.337C200.652 291.234 280.767 433.434 280.767 433.434L284.773 436.789L286.355 452.276C291.88 452.942 295.147 453.431 295.147 453.431C309.875 469.851 319.366 492.225 325.2 517.221Z" fill="black"/>
<path d="M231.769 262.35C231.769 262.35 210.018 291.549 227.419 343.208C244.82 394.867 268.747 475.725 268.747 475.725L394.906 552.09L412.307 529.63L294.849 435.296C294.849 435.296 290.498 264.596 268.747 257.858C246.995 251.12 231.769 262.35 231.769 262.35Z" fill="#9DABBB"/>
<path d="M127.757 457.593C127.757 457.593 158.614 523.549 171.838 516.726C185.062 509.903 138.777 441.672 138.777 441.672L127.757 457.593Z" fill="#A0616A"/>
<path d="M123.494 284.762L11.4136 382.174C11.4136 382.174 -30.881 413.168 47.364 435.307C125.609 457.446 131.953 470.73 131.953 470.73C131.953 470.73 140.412 441.949 150.986 446.377L60.0524 399.885L134.068 353.393L123.494 284.762Z" fill="#9DABBB"/>
<path d="M78.0182 209.734C83.9894 206.631 97.1752 200.368 108.407 192.823C107.619 168.277 110.499 145.994 118.931 134.183C123.664 122.906 133.602 111.616 141.386 102.725C160.501 80.8907 202.769 68.7031 210.266 79.6122C266.966 80.7869 272.936 127.427 272.936 127.427C272.641 146.935 253.319 147.552 236.394 146.842C237.91 160.16 233.871 173.998 222.175 180.135C199.808 191.871 193.098 207.127 204.281 217.689C215.465 228.251 235.595 256.417 208.755 263.458C181.915 270.5 178.56 284.583 186.388 290.451C194.216 296.318 168.495 279.888 168.495 279.888C168.495 279.888 164.021 308.054 140.536 301.013C138.432 300.382 136.328 298.765 134.26 296.346C127.917 303.66 122.259 307.984 117.994 308.008C93.57 308.144 96.4989 279.756 96.4989 279.756C96.4989 279.756 67.5084 288.3 76.5545 284.864C85.6005 281.428 85.9881 266.918 61.9512 252.543C37.9143 238.168 64.5353 216.741 78.0182 209.734Z" fill="#2F2E41"/>
<path d="M378.347 279.871L377.968 279.818L378.892 283.52C379.766 288.686 381.035 293.768 382.687 298.718L409.804 407.313C410.67 410.779 412.477 413.904 415.004 416.303C417.531 418.702 420.668 420.272 424.03 420.82L479.331 429.833C482.907 430.416 486.566 429.814 489.804 428.112C493.041 426.41 495.697 423.691 497.405 420.331L549.959 316.922C551.601 314.057 553.102 311.104 554.454 308.076L556.239 304.565L555.96 304.526C561.531 290.643 563.984 275.592 563.126 260.546C562.268 245.501 558.124 230.867 551.015 217.786C543.907 204.705 534.027 193.53 522.146 185.132C510.264 176.734 496.703 171.341 482.517 169.372C468.332 167.402 453.907 168.911 440.366 173.78C426.825 178.649 414.535 186.746 404.452 197.441C394.37 208.135 386.769 221.138 382.24 235.436C377.712 249.734 376.38 264.941 378.347 279.871H378.347Z" fill="#5F6B78"/>
<path d="M482.474 441.672C481.494 441.672 480.515 441.592 479.546 441.433L421.356 431.881C417.66 431.275 414.212 429.537 411.434 426.881C408.656 424.224 406.669 420.765 405.719 416.927L377.185 301.844C375.442 296.576 374.101 291.166 373.178 285.669L372.456 280.635C370.515 264.55 372.123 248.208 377.156 232.896C382.188 217.585 390.505 203.724 401.452 192.408C412.399 181.092 425.675 172.631 440.232 167.692C454.789 162.753 470.229 161.472 485.333 163.95L485.081 165.673C470.142 163.23 454.871 164.526 440.487 169.456C426.104 174.386 413.005 182.815 402.236 194.069C391.468 205.324 383.327 219.093 378.464 234.278C373.601 249.463 372.15 265.643 374.226 281.529L374.781 285.295C375.698 290.745 377.027 296.109 378.755 301.333L407.308 416.484C408.177 419.993 409.994 423.156 412.534 425.586C415.074 428.015 418.228 429.604 421.608 430.158L479.797 439.71C483.391 440.296 487.068 439.686 490.322 437.963C493.576 436.24 496.246 433.49 497.965 430.09L499.414 430.912C497.77 434.162 495.327 436.879 492.344 438.773C489.361 440.668 485.951 441.669 482.474 441.672V441.672Z" fill="url(#paint0_linear)"/>
<path d="M497.264 305.802L461.442 408.06L463.461 408.833L499.283 306.575L497.264 305.802Z" fill="url(#paint1_linear)"/>
<path d="M438.774 296.34L436.626 296.439L441.198 405.235L443.346 405.136L438.774 296.34Z" fill="url(#paint2_linear)"/>
<path d="M479.453 493.946L402.538 481.206C401.966 481.108 401.453 480.771 401.112 480.269C400.772 479.768 400.63 479.142 400.719 478.529C400.807 477.917 401.119 477.366 401.585 476.998C402.052 476.631 402.635 476.475 403.208 476.567L480.123 489.306C480.409 489.352 480.683 489.457 480.931 489.617C481.179 489.777 481.394 489.987 481.566 490.236C481.737 490.485 481.861 490.768 481.93 491.069C481.999 491.369 482.011 491.681 481.967 491.987C481.923 492.293 481.823 492.586 481.672 492.85C481.522 493.114 481.324 493.344 481.09 493.526C480.857 493.708 480.592 493.839 480.311 493.911C480.03 493.983 479.738 493.995 479.453 493.946V493.946Z" fill="#5F6B78"/>
<path d="M479.453 476.511L402.562 463.774C402.276 463.729 402.002 463.623 401.754 463.464C401.507 463.304 401.291 463.094 401.12 462.845C400.949 462.596 400.825 462.313 400.756 462.013C400.687 461.712 400.674 461.4 400.719 461.094C400.763 460.789 400.863 460.495 401.013 460.231C401.164 459.967 401.362 459.738 401.595 459.556C401.829 459.374 402.094 459.243 402.375 459.171C402.656 459.099 402.947 459.087 403.232 459.136L480.124 471.873C480.409 471.918 480.684 472.024 480.931 472.183C481.179 472.343 481.395 472.553 481.566 472.802C481.737 473.051 481.861 473.334 481.93 473.635C481.999 473.935 482.011 474.247 481.967 474.553C481.923 474.859 481.823 475.152 481.672 475.416C481.522 475.68 481.324 475.91 481.091 476.092C480.857 476.274 480.592 476.404 480.311 476.476C480.03 476.548 479.739 476.56 479.453 476.511V476.511Z" fill="#5F6B78"/>
<path d="M479.657 459.081L408.213 446.338C407.682 446.24 407.206 445.903 406.89 445.401C406.573 444.9 406.442 444.274 406.524 443.661C406.606 443.048 406.896 442.497 407.329 442.13C407.762 441.762 408.304 441.606 408.836 441.698L480.279 454.441C480.811 454.539 481.286 454.876 481.603 455.377C481.92 455.879 482.051 456.505 481.969 457.118C481.887 457.731 481.597 458.281 481.164 458.649C480.731 459.017 480.189 459.172 479.657 459.081H479.657Z" fill="#5F6B78"/>
<path d="M435.742 499.318C450.134 501.629 463.041 495.177 464.571 484.909L412.456 476.541C410.926 486.81 421.351 497.007 435.742 499.318Z" fill="#5F6B78"/>
<path d="M466.798 283.738C463.583 283.177 460.922 280.31 459.464 278.389C458.986 277.759 458.52 277.105 458.053 276.45C456.355 274.065 454.751 271.813 452.518 270.639C447.588 268.044 441.78 271.668 436.751 275.556L435.536 273.557C441.065 269.282 447.512 265.332 453.426 268.442C456.112 269.855 457.951 272.437 459.728 274.932C460.18 275.568 460.632 276.202 461.095 276.813C462.612 278.81 465.636 282.048 468.877 281.301C470.243 280.852 471.513 280.093 472.61 279.072C473.446 278.368 474.329 277.74 475.252 277.192C477.123 276.18 479.217 275.814 481.272 276.142C483.327 276.469 485.25 277.475 486.799 279.033C487.351 279.623 487.875 280.247 488.366 280.902C489.332 282.144 490.245 283.317 491.432 283.743C493.188 284.377 495.043 283.245 497.01 282.049C499.037 280.814 501.133 279.538 503.511 279.853C503.588 279.863 503.666 279.875 503.743 279.888C507.974 280.627 509.925 285.905 511.029 289.844L508.98 290.574C507.48 285.219 505.654 282.556 503.26 282.259C501.556 282.033 499.844 283.077 498.03 284.181C495.757 285.565 493.404 286.997 490.78 286.052C489.024 285.422 487.868 283.937 486.751 282.5C486.311 281.912 485.843 281.352 485.349 280.821C484.115 279.602 482.594 278.815 480.97 278.556C479.346 278.297 477.69 278.577 476.205 279.363C475.383 279.856 474.595 280.42 473.85 281.05C472.517 282.276 470.969 283.171 469.308 283.675C468.482 283.865 467.631 283.886 466.798 283.738Z" fill="url(#paint3_linear)"/>
<defs>
<linearGradient id="paint0_linear" x1="435.536" y1="162.721" x2="435.536" y2="441.672" gradientUnits="userSpaceOnUse">
<stop stop-color="#E6F0F7"/>
<stop offset="1" stop-color="#E0F0F9"/>
</linearGradient>
<linearGradient id="paint1_linear" x1="479.353" y1="356.931" x2="481.393" y2="357.645" gradientUnits="userSpaceOnUse">
<stop stop-color="#E6F0F7"/>
<stop offset="1" stop-color="#E0F0F9"/>
</linearGradient>
<linearGradient id="paint2_linear" x1="437.7" y1="296.39" x2="442.697" y2="405.166" gradientUnits="userSpaceOnUse">
<stop stop-color="#E6F0F7"/>
<stop offset="1" stop-color="#E0F0F9"/>
</linearGradient>
<linearGradient id="paint3_linear" x1="473.282" y1="267.328" x2="473.282" y2="290.574" gradientUnits="userSpaceOnUse">
<stop stop-color="#E6F0F7"/>
<stop offset="1" stop-color="#E0F0F9"/>
</linearGradient>
</defs>
</svg>
