<svg width="734" height="625" viewBox="0 0 734 625" fill="none" xmlns="http://www.w3.org/2000/svg">
<path d="M627.268 444.932L640 394.84L594.391 359.463L557.381 330.762L527.874 307.876L490.868 279.176L283.062 118L86.8976 367.655L69.4662 389.832L47.4068 417.908L29.9689 440.1L9 466.787L45.9885 481.74L76.7407 494.169L115.653 509.901L395.252 625H581.492L598.368 558.618L608.696 517.981L616.934 485.57L627.268 444.932Z" fill="#F1F7FD"/>
<path d="M452.587 370.31L473.2 405.968L493.812 441.626H452.587H411.362L431.974 405.968L452.587 370.31Z" fill="#01426A"/>
<path d="M335.456 300.275H249.01V386.614H335.456V300.275Z" fill="#01426A"/>
<path d="M397.421 245.263C428.052 245.263 452.884 220.462 452.884 189.868C452.884 159.275 428.052 134.474 397.421 134.474C366.79 134.474 341.958 159.275 341.958 189.868C341.958 220.462 366.79 245.263 397.421 245.263Z" fill="#01426A"/>
<path d="M447.338 282.362C447.338 280.549 447.877 278.776 448.885 277.268C449.894 275.76 451.328 274.585 453.005 273.891C454.683 273.197 456.528 273.016 458.309 273.37C460.09 273.723 461.726 274.597 463.01 275.879C464.293 277.161 465.168 278.795 465.522 280.573C465.876 282.352 465.694 284.195 465 285.871C464.305 287.546 463.128 288.978 461.618 289.986C460.109 290.993 458.334 291.531 456.518 291.531C454.084 291.528 451.751 290.561 450.03 288.842C448.309 287.123 447.341 284.793 447.338 282.362V282.362ZM448.868 282.362C448.868 283.873 449.317 285.35 450.157 286.607C450.998 287.863 452.193 288.843 453.591 289.421C454.989 289.999 456.527 290.151 458.011 289.856C459.495 289.561 460.858 288.833 461.928 287.765C462.998 286.696 463.726 285.335 464.021 283.853C464.316 282.371 464.165 280.834 463.586 279.438C463.007 278.042 462.026 276.849 460.768 276.009C459.51 275.17 458.031 274.721 456.518 274.721C454.49 274.724 452.546 275.53 451.111 276.962C449.677 278.394 448.87 280.336 448.868 282.362V282.362Z" fill="#3F3D56"/>
<path d="M368.302 441.85L354.789 427.38L369.276 413.884L382.789 428.354L368.302 441.85ZM356.942 427.455L368.377 439.699L380.635 428.279L369.201 416.035L356.942 427.455Z" fill="#3F3D56"/>
<path d="M256.701 236.008L245.703 224.231L257.495 213.247L268.493 225.024L256.701 236.008ZM247.456 224.292L256.762 234.257L266.74 224.963L257.434 214.998L247.456 224.292Z" fill="#3F3D56"/>
<path d="M411.191 252.139C396.061 252.139 381.27 247.658 368.69 239.263C356.109 230.867 346.304 218.934 340.514 204.973C334.724 191.011 333.209 175.649 336.16 160.827C339.112 146.006 346.398 132.392 357.097 121.706C367.796 111.021 381.427 103.744 396.267 100.796C411.106 97.8477 426.488 99.3607 440.467 105.144C454.445 110.927 466.393 120.72 474.799 133.285C483.205 145.85 487.692 160.622 487.692 175.734C487.669 195.991 479.602 215.411 465.26 229.735C450.918 244.059 431.473 252.116 411.191 252.139V252.139ZM411.191 100.856C396.363 100.856 381.869 105.247 369.54 113.475C357.211 121.703 347.602 133.397 341.927 147.079C336.253 160.761 334.768 175.817 337.661 190.341C340.554 204.866 347.694 218.208 358.179 228.68C368.664 239.152 382.022 246.283 396.565 249.173C411.108 252.062 426.182 250.579 439.881 244.912C453.58 239.244 465.289 229.647 473.527 217.333C481.765 205.02 486.162 190.543 486.162 175.734C486.139 155.882 478.234 136.849 464.179 122.812C450.124 108.774 431.068 100.878 411.191 100.856V100.856Z" fill="#3F3D56"/>
<path d="M364.096 235.181L344.333 276.259L345.712 276.921L365.475 235.843L364.096 235.181Z" fill="#3F3D56"/>
<path d="M359.535 330.929L358.807 332.273L445.855 379.325L446.584 377.981L359.535 330.929Z" fill="#3F3D56"/>
<path d="M359.936 387.378H248.245V275.825H359.936V387.378ZM249.775 385.85H358.406V277.353H249.775V385.85Z" fill="#3F3D56"/>
<path d="M525.567 442.39H410.037L467.802 342.462L525.567 442.39ZM412.687 440.862H522.917L467.802 345.518L412.687 440.862Z" fill="#3F3D56"/>
<path d="M671.294 276.589C681.856 276.589 690.419 268.037 690.419 257.488C690.419 246.938 681.856 238.386 671.294 238.386C660.731 238.386 652.168 246.938 652.168 257.488C652.168 268.037 660.731 276.589 671.294 276.589Z" fill="#95686E"/>
<path d="M681.239 267.421C681.239 267.421 683.534 290.343 687.359 294.163C691.184 297.983 660.583 291.871 660.583 291.871C660.583 291.871 665.174 272.769 662.114 269.713C659.053 266.657 681.239 267.421 681.239 267.421Z" fill="#95686E"/>
<path d="M694.626 306.005C694.626 306.005 703.806 331.983 706.101 348.029C708.397 364.074 708.397 370.95 708.397 370.95C708.397 370.95 718.342 401.513 715.282 416.03C715.282 416.03 726.757 450.412 716.812 450.412C706.866 450.412 703.806 422.142 703.806 422.142L688.506 349.557L694.626 306.005Z" fill="#95686E"/>
<path d="M699.216 318.23C699.216 318.23 696.921 289.96 686.976 287.668C682.228 286.574 674.517 284.957 667.753 283.566C655.97 281.143 643.817 286.726 638.46 297.485C637.456 299.435 636.789 301.541 636.486 303.713C634.956 315.938 627.306 315.938 634.191 331.983C641.076 348.029 639.546 364.838 639.546 364.838L644.136 405.333C644.136 405.333 625.011 458.817 626.541 494.728L608.946 582.595C608.946 582.595 612.771 591.763 623.481 587.179C623.481 587.179 650.256 542.1 647.961 509.245L675.501 448.12C675.501 448.12 694.626 506.189 699.981 511.537L713.752 594.056C713.752 594.056 726.757 597.876 732.877 594.056C732.877 594.056 735.172 514.593 722.167 501.604C722.167 501.604 709.161 446.592 712.222 432.075C715.282 417.558 716.047 395.4 693.096 375.535C693.096 375.535 696.156 367.13 686.211 362.546L693.861 338.096L699.216 318.23Z" fill="#2F2E41"/>
<path d="M651.235 285.669C651.029 285.639 650.818 285.615 650.603 285.595C643.829 284.984 637.997 290.386 637.695 297.172L636.486 324.343L631.896 354.141L621.951 418.322C621.951 418.322 602.826 441.244 615.831 442.772C628.836 444.3 631.131 417.558 631.131 417.558L647.961 367.13L654.846 320.522C654.846 320.522 662.877 312.502 659.534 293.96C659.194 291.884 658.21 289.968 656.721 288.48C655.232 286.993 653.313 286.01 651.235 285.669V285.669Z" fill="#95686E"/>
<path d="M607.415 579.539L602.06 607.045C602.06 607.045 589.055 613.157 597.47 620.798C605.885 628.438 617.361 619.27 617.361 619.27L620.421 610.101L619.656 623.854H621.951L624.246 610.101C624.246 610.101 628.836 601.696 625.776 594.82V585.651L607.415 579.539Z" fill="#2F2E41"/>
<path d="M711.839 582.213L708.779 607.427C708.779 607.427 695.774 613.539 704.189 621.18C712.604 628.82 724.079 619.652 724.079 619.652L727.139 610.483L726.374 624.236H728.669L730.964 610.483C730.964 610.483 735.554 602.078 732.494 595.202V586.033L711.839 582.213Z" fill="#2F2E41"/>
<path d="M681.27 227.964H681.27C680.198 227.966 679.128 228.072 678.076 228.281C676.175 227.359 674.09 226.879 671.977 226.877H671.423C660.751 226.877 652.099 236.522 652.099 248.421V248.421H655.675L656.253 244.03L657.099 248.421H660.079C659.152 251.944 658.687 255.572 658.695 259.214V281.142H664.102L667.232 273.017L666.449 281.142H701.202L704.048 273.756L703.336 281.142H707.249V263.925C707.249 244.064 695.618 227.964 681.27 227.964Z" fill="#2F2E41"/>
</svg>
