<svg width="730" height="618" viewBox="0 0 730 618" fill="none" xmlns="http://www.w3.org/2000/svg">
<path d="M573.5 617C678.986 617 729.913 619 729.913 610.163C729.913 601.327 644.4 594.163 538.913 594.163C433.427 594.163 347.913 601.327 347.913 610.163C347.913 619 468.014 617 573.5 617Z" fill="#01426A"/>
<path d="M728.913 431.181C728.913 509.587 682.303 536.963 624.805 536.963C567.308 536.963 520.697 509.587 520.697 431.181C520.697 352.776 624.805 253.031 624.805 253.031C624.805 253.031 728.913 352.776 728.913 431.181Z" fill="#3785BA"/>
<path d="M621.013 524.97L622.079 459.351L666.452 378.172L622.246 449.058L622.725 419.553L653.307 360.82L622.852 411.745L623.714 358.679L656.462 311.921L623.85 350.335L624.388 253.032L621.003 381.844L621.281 376.53L587.986 325.566L620.747 386.731L617.645 445.996L617.553 444.423L579.169 390.791L617.437 449.98L617.049 457.391L616.979 457.503L617.011 458.111L609.14 608.472H619.656L620.918 530.808L659.091 471.764L621.013 524.97Z" fill="#01426A"/>
<path d="M696.387 572.274C696.387 594.743 683.03 602.588 666.553 602.588C666.171 602.588 665.79 602.584 665.41 602.575C664.646 602.559 663.89 602.523 663.143 602.472C648.272 601.419 636.719 593.17 636.719 572.274C636.719 550.649 664.353 523.362 666.429 521.342L666.433 521.339C666.513 521.261 666.553 521.222 666.553 521.222C666.553 521.222 696.387 549.806 696.387 572.274Z" fill="#3785BA"/>
<path d="M665.466 599.151L676.378 583.904L665.439 600.825L665.41 602.575C664.646 602.559 663.89 602.522 663.143 602.472L664.319 579.992L664.31 579.818L664.33 579.785L664.441 577.662L653.475 560.699L664.475 576.069L664.501 576.52L665.39 559.536L656.001 542.008L665.504 556.555L666.429 521.342L666.433 521.222V521.339L666.278 549.106L675.625 538.098L666.24 551.498L665.993 566.705L674.72 552.11L665.957 568.942L665.819 577.396L678.488 557.084L665.771 580.346L665.466 599.151Z" fill="#01426A"/>
<path d="M183.565 114.462L144.998 49.8613C149.625 43.9872 151.957 36.6305 151.559 29.1634C151.162 21.6964 148.061 14.629 142.836 9.27958C137.612 3.93019 130.619 0.664157 123.164 0.090743C115.708 -0.482671 108.298 1.67569 102.317 6.1632C96.3354 10.6507 92.1907 17.1609 90.6559 24.4793C89.1211 31.7978 90.3009 39.4246 93.9754 45.9372C97.6498 52.4497 103.568 57.4032 110.626 59.8736C117.684 62.3439 125.399 62.1625 132.333 59.363L183.565 114.462Z" fill="#0086BF"/>
<path d="M120.795 45.0845C128.702 45.0845 135.111 38.6749 135.111 30.7684C135.111 22.8619 128.702 16.4524 120.795 16.4524C112.889 16.4524 106.479 22.8619 106.479 30.7684C106.479 38.6749 112.889 45.0845 120.795 45.0845Z" fill="#01426A"/>
<path d="M268 117.94L321.352 64.8899C328.171 67.9586 335.873 68.4418 343.022 66.2495C350.171 64.0572 356.279 59.3391 360.205 52.9753C364.132 46.6115 365.609 39.0366 364.362 31.6637C363.114 24.2909 359.228 17.6235 353.426 12.9053C347.625 8.18722 340.306 5.74057 332.833 6.02181C325.361 6.30305 318.246 9.29296 312.816 14.4338C307.386 19.5747 304.011 26.5153 303.321 33.9611C302.632 41.4069 304.674 48.8493 309.068 54.8999L268 117.94Z" fill="#0086BF"/>
<path d="M334.022 51.1035C341.929 51.1035 348.338 44.694 348.338 36.7875C348.338 28.8809 341.929 22.4714 334.022 22.4714C326.116 22.4714 319.706 28.8809 319.706 36.7875C319.706 44.694 326.116 51.1035 334.022 51.1035Z" fill="#01426A"/>
<path d="M285 191L349.382 229.933C348.054 237.292 349.448 244.882 353.305 251.288C357.162 257.695 363.217 262.479 370.342 264.75C377.467 267.02 385.174 266.621 392.026 263.627C398.878 260.633 404.407 255.249 407.582 248.478C410.756 241.708 411.359 234.014 409.279 226.832C407.198 219.649 402.576 213.469 396.274 209.444C389.972 205.419 382.421 203.824 375.03 204.956C367.638 206.088 360.911 209.87 356.103 215.597L285 191Z" fill="#0086BF"/>
<path d="M379.715 249.744C387.621 249.744 394.031 243.335 394.031 235.428C394.031 227.522 387.621 221.112 379.715 221.112C371.808 221.112 365.399 227.522 365.399 235.428C365.399 243.335 371.808 249.744 379.715 249.744Z" fill="#01426A"/>
<path d="M203.976 256L181.775 327.888C174.314 328.38 167.286 331.569 162.003 336.861C156.72 342.153 153.543 349.186 153.063 356.648C152.584 364.111 154.836 371.492 159.398 377.417C163.961 383.341 170.523 387.403 177.86 388.846C185.198 390.288 192.809 389.012 199.275 385.256C205.74 381.499 210.619 375.519 213 368.431C215.381 361.342 215.102 353.63 212.215 346.732C209.328 339.834 204.031 334.221 197.311 330.942L203.976 256Z" fill="#0086BF"/>
<path d="M183.781 372.966C191.688 372.966 198.097 366.556 198.097 358.65C198.097 350.743 191.688 344.333 183.781 344.333C175.875 344.333 169.465 350.743 169.465 358.65C169.465 366.556 175.875 372.966 183.781 372.966Z" fill="#01426A"/>
<path d="M135.256 184.55L60.1331 180.4C57.8507 173.279 53.0559 167.232 46.643 163.386C40.2302 159.54 32.6373 158.159 25.2807 159.499C17.9242 160.839 11.3064 164.81 6.66191 170.67C2.0174 176.53 -0.336651 183.88 0.0388958 191.348C0.414443 198.817 3.49394 205.893 8.70293 211.258C13.9119 216.623 20.8946 219.91 28.3485 220.505C35.8024 221.101 43.2184 218.964 49.2131 214.495C55.2078 210.025 59.3718 203.527 60.9283 196.213L135.256 184.55Z" fill="#0086BF"/>
<path d="M30.7706 204.104C38.6771 204.104 45.0867 197.695 45.0867 189.788C45.0867 181.882 38.6771 175.472 30.7706 175.472C22.8641 175.472 16.4546 181.882 16.4546 189.788C16.4546 197.695 22.8641 204.104 30.7706 204.104Z" fill="#01426A"/>
<path d="M531.413 551.663C531.413 551.663 528.413 570.663 523.413 573.663C518.413 576.663 549.413 583.663 549.413 583.663L554.413 553.663L531.413 551.663Z" fill="#FBBEBE"/>
<path d="M568.413 334.663L579.413 347.663L574.413 392.663L570.413 481.663C570.413 481.663 578.413 558.663 570.413 560.663C562.413 562.663 526.413 561.663 527.413 556.663C528.413 551.663 529.413 547.663 531.413 540.663C533.413 533.663 529.413 508.663 529.413 508.663L534.413 480.663L516.413 359.663L568.413 334.663Z" fill="#2F2E41"/>
<path d="M532.413 570.663C532.413 570.663 521.413 568.663 520.413 570.663C519.413 572.663 500.413 593.663 497.413 593.663C494.413 593.663 472.413 613.663 495.413 614.663C518.413 615.663 556.413 597.663 556.413 597.663C556.413 597.663 550.821 572.217 551.117 573.44C551.413 574.663 532.413 575.663 532.413 570.663Z" fill="#2F2E41"/>
<path d="M520.413 524.663C520.413 524.663 548.413 555.663 549.413 558.663C550.413 561.663 565.413 558.663 565.413 558.663L571.413 538.663L566.413 531.663L538.413 508.663L520.413 524.663Z" fill="#FBBEBE"/>
<path d="M560.413 547.663L545.913 561.311C545.913 561.311 564.413 589.663 564.413 592.663C564.413 595.663 565.413 620.663 575.413 616.663C585.413 612.663 586.413 572.663 586.413 572.663C586.413 572.663 585.413 531.663 579.413 528.663C573.413 525.663 560.263 526.611 560.263 526.611C560.263 526.611 568.413 546.663 560.413 547.663Z" fill="#2F2E41"/>
<path d="M477.413 245.663C477.413 245.663 472.413 261.663 471.413 265.663C470.413 269.663 464.413 280.663 464.413 297.663C464.413 314.663 466.413 334.663 464.413 336.663C462.413 338.663 430.413 450.663 444.413 462.663C458.413 474.663 504.413 514.663 507.413 519.663C510.413 524.663 511.413 536.663 517.413 534.663C523.413 532.663 546.413 512.663 547.413 508.663C548.413 504.663 534.413 497.663 534.413 497.663C534.413 497.663 506.413 456.663 499.413 457.663C492.413 458.663 493.413 452.663 494.413 449.663C495.413 446.663 497.413 444.663 494.413 444.663C491.413 444.663 493.413 436.663 494.413 432.663C495.413 428.663 518.413 374.663 518.413 374.663L579.413 347.663C579.413 347.663 576.413 274.663 554.413 254.663L549.413 242.663C549.413 242.663 493.413 238.663 477.413 245.663Z" fill="#2F2E41"/>
<path d="M502.413 87.6631C502.413 87.6631 507.413 122.663 495.413 124.663C483.413 126.663 473.413 125.663 473.413 126.663C473.413 127.663 503.413 158.663 503.413 158.663L531.413 156.663L556.413 129.663C556.413 129.663 533.413 125.663 533.413 111.663C533.413 97.6631 532.413 87.6631 532.413 87.6631H502.413Z" fill="#FBBEBE"/>
<path opacity="0.1" d="M502.413 87.6631C502.413 87.6631 507.413 122.663 495.413 124.663C483.413 126.663 473.413 125.663 473.413 126.663C473.413 127.663 503.413 158.663 503.413 158.663L531.413 156.663L556.413 129.663C556.413 129.663 533.413 125.663 533.413 111.663C533.413 97.6631 532.413 87.6631 532.413 87.6631H502.413Z" fill="black"/>
<path d="M517.913 102.163C535.034 102.163 548.913 88.2839 548.913 71.1631C548.913 54.0423 535.034 40.1631 517.913 40.1631C500.793 40.1631 486.913 54.0423 486.913 71.1631C486.913 88.2839 500.793 102.163 517.913 102.163Z" fill="#FBBEBE"/>
<path d="M490.413 121.663C490.413 121.663 451.413 126.663 448.413 139.663C445.413 152.663 468.413 233.663 471.413 240.663C474.413 247.663 473.413 252.663 473.413 252.663C477.938 249.279 483.135 246.903 488.655 245.696C494.175 244.489 499.889 244.477 505.413 245.663C524.413 249.663 551.413 247.663 551.413 247.663C551.413 247.663 560.413 210.663 562.413 206.663C564.413 202.663 572.413 180.663 572.413 174.663C572.413 168.663 584.413 143.663 584.413 143.663C584.413 143.663 578.413 125.663 556.413 126.663C556.413 126.663 546.817 122.368 544.115 125.516C541.413 128.663 526.413 142.663 507.413 136.663C488.413 130.663 490.413 121.663 490.413 121.663Z" fill="#01426A"/>
<path d="M459.413 138.663H448.413L442.413 217.663C442.413 217.663 464.413 223.663 467.413 219.663C470.413 215.663 459.413 138.663 459.413 138.663Z" fill="#01426A"/>
<path d="M445.413 209.663L442.413 217.663C442.413 217.663 440.413 243.663 452.413 242.663C464.413 241.663 471.413 226.663 471.413 226.663C471.413 226.663 464.413 207.663 456.413 209.663C448.413 211.663 445.413 209.663 445.413 209.663Z" fill="#01426A"/>
<path d="M565.413 138.663L584.413 143.663C584.413 143.663 598.413 194.663 599.413 195.663C600.413 196.663 601.413 202.663 601.413 202.663C601.413 202.663 601.413 203.663 603.413 206.663C605.413 209.663 608.413 207.663 606.413 211.663C604.413 215.663 601.413 213.663 603.413 217.663C605.413 221.663 604.413 232.663 604.413 232.663C604.413 232.663 599.413 213.663 581.413 218.663L569.413 164.663L565.413 138.663Z" fill="#01426A"/>
<path d="M482.603 45.6208C476.299 56.6967 474.88 69.8157 474.01 82.5301C473.637 87.983 473.356 93.5797 474.974 98.8006C476.679 104.306 480.473 109.899 478.528 115.324C476.646 120.571 470.352 122.67 466.837 126.997C463.859 130.663 463.11 135.686 463.369 140.403C463.627 145.12 464.771 149.75 465.107 154.462C465.799 164.812 462.605 175.048 456.148 183.167C471.21 182.586 487.314 175.907 493.665 162.237C495.564 158.151 496.488 153.679 498.202 149.511C500.14 144.796 503.065 140.529 504.901 135.774C507.671 128.599 507.821 120.72 507.936 113.029C508.005 108.426 508.054 103.7 506.461 99.3801C502.954 89.8713 492.048 83.7275 490.965 73.6506C490.778 72.585 490.936 71.4877 491.415 70.5178C491.924 69.8093 492.541 69.1852 493.244 68.6686C500.054 62.658 498.931 49.933 507.037 45.8356C510.675 43.9969 515.06 44.6437 518.966 45.8076C523.304 47.1001 527.632 49.1018 530.454 52.6404C536.137 59.7662 533.894 70.0596 532.135 79.0027C529.587 91.9749 528.683 105.217 529.446 118.415C529.495 120.526 529.806 122.623 530.373 124.657C531.417 127.958 533.643 130.73 535.323 133.757C538.748 139.979 539.859 147.212 538.46 154.175C537.219 160.235 534.138 166.688 536.851 172.247C538.045 174.393 539.708 176.243 541.716 177.657C550.579 184.603 561.828 188.907 568.417 198.038C569.552 190.58 567.387 183.074 565.789 175.702C564.191 168.329 563.219 160.303 566.503 153.511C567.944 150.532 570.146 147.94 571.324 144.847C574.044 137.704 570.802 129.87 568.833 122.484C567.426 116.685 566.41 110.797 565.792 104.862L563.761 88.8398C562.082 75.5947 560.326 62.0798 554.51 50.0621C543.549 27.4146 518.745 19.0035 496.537 31.5527C490.717 34.9111 485.906 39.7693 482.603 45.6208V45.6208Z" fill="#A28253"/>
<path d="M455.413 214.663C455.413 214.663 449.413 232.663 456.413 232.663C463.413 232.663 476.413 221.663 477.413 212.663C478.413 203.663 496.413 169.663 483.413 172.663C470.413 175.663 464.413 200.663 464.413 200.663L455.413 214.663Z" fill="#FBBEBE"/>
<path d="M556.413 138.663L523.413 245.663L568.413 255.663L601.413 151.663L556.413 138.663Z" fill="#3785BA"/>
<path d="M598.413 215.663L604.661 226.103C604.661 226.103 607.413 245.663 593.413 245.663C579.413 245.663 559.413 226.663 559.413 226.663C559.413 226.663 549.413 222.663 543.413 223.663C537.413 224.663 504.413 223.663 518.413 206.663C532.413 189.663 556.413 206.663 556.413 206.663L581.413 218.663L594.413 211.663L598.413 215.663Z" fill="#FBBEBE"/>
<path d="M589.913 202.163L579.913 218.163C579.913 218.163 602.913 221.163 604.913 226.163C606.913 231.163 595.913 200.163 595.913 200.163L589.913 202.163Z" fill="#01426A"/>
<path d="M161.846 178.826C161.22 179.026 160.554 179.054 159.914 178.908C159.274 178.761 158.684 178.445 158.202 177.992C157.72 177.538 157.363 176.963 157.169 176.325C156.974 175.686 156.947 175.006 157.092 174.354C159.263 165.14 167.516 142.609 197.585 133.132C210.61 129.027 223.101 128.957 234.696 132.922C244.234 136.171 250.567 141.255 253.596 143.712C254.365 144.333 254.861 145.24 254.975 146.235C255.089 147.229 254.811 148.229 254.202 149.014C254.194 149.024 254.187 149.034 254.179 149.043C253.554 149.831 252.65 150.336 251.663 150.451C250.676 150.565 249.684 150.279 248.902 149.655C243.414 145.243 226.761 131.841 199.77 140.347C173.415 148.654 166.256 168.082 164.399 176.031C164.258 176.688 163.947 177.294 163.498 177.785C163.048 178.277 162.478 178.636 161.846 178.826L161.846 178.826Z" fill="#3785BA"/>
<path d="M243.266 229.765C242.964 229.863 242.651 229.922 242.335 229.94C218.613 231.22 203.52 211.48 202.901 210.657L202.786 210.467C202.408 209.879 193.275 195.961 197.296 184.908C199.142 179.854 203.226 176.307 209.469 174.376C215.275 172.579 220.025 173.111 224.069 176.003C227.385 178.36 229.51 181.874 231.569 185.267C235.853 192.314 238.478 195.899 246.62 193.83C250.195 192.922 251.864 190.122 252.627 187.941C254.68 182.006 252.86 173.916 248.046 167.795C241.826 159.853 224.42 146.663 202.944 153.309C193.773 156.147 186.267 161.739 181.241 169.439C177.077 175.83 174.656 183.766 174.603 191.168C174.52 204.95 185.796 223.081 185.902 223.245C186.162 223.661 186.337 224.124 186.418 224.608C186.499 225.092 186.484 225.587 186.374 226.065C186.264 226.543 186.061 226.995 185.777 227.394C185.493 227.794 185.133 228.133 184.717 228.393C184.706 228.4 184.694 228.407 184.683 228.415C183.832 228.946 182.806 229.121 181.828 228.902C180.849 228.682 179.996 228.086 179.453 227.242C178.944 226.413 166.904 207.081 167.001 191.153C167.136 173.888 177.609 153.283 200.73 146.129C211.416 142.823 222.647 143.378 233.216 147.719C241.407 151.104 248.989 156.707 254.001 163.105C260.403 171.272 262.658 181.962 259.744 190.305C257.801 195.867 253.779 199.705 248.433 201.078C234.501 204.628 229.043 195.689 225.062 189.169C220.975 182.485 218.714 179.351 211.649 181.537C207.77 182.738 205.38 184.661 204.375 187.424C203.008 191.202 204.304 196.044 205.632 199.438C205.646 199.474 205.66 199.509 205.673 199.544C207.376 203.859 210.034 207.73 213.446 210.867C218.911 215.923 229.058 223.131 241.991 222.436C242.979 222.375 243.952 222.709 244.694 223.366C245.437 224.023 245.889 224.948 245.95 225.938C245.951 225.95 245.951 225.962 245.952 225.974C245.982 226.814 245.736 227.64 245.25 228.326C244.765 229.011 244.067 229.517 243.266 229.765L243.266 229.765Z" fill="#3785BA"/>
<path d="M214.945 236.83C214.448 236.982 213.924 237.033 213.405 236.979C212.887 236.926 212.385 236.769 211.93 236.519C200.15 229.936 191.881 221.082 185.926 208.671L185.902 208.595C182.149 200.321 179.89 187.679 184.873 176.994C188.552 169.11 195.458 163.568 205.364 160.55C217.081 156.98 227.99 159.608 236.944 168.114C241.016 172.04 244.327 176.666 246.715 181.765C247.096 182.682 247.095 183.711 246.713 184.628C246.331 185.544 245.598 186.276 244.674 186.664C243.749 187.053 242.707 187.066 241.772 186.702C240.837 186.338 240.085 185.626 239.679 184.719C237.657 180.464 234.865 176.608 231.441 173.34C224.539 166.864 216.516 164.949 207.567 167.676C199.834 170.032 194.509 174.198 191.783 180.059C187.852 188.494 189.876 199.028 192.813 205.511C198.063 216.487 205.346 224.273 215.714 230.056C216.142 230.295 216.519 230.614 216.822 230.996C217.125 231.377 217.349 231.814 217.481 232.281C217.613 232.749 217.651 233.237 217.592 233.718C217.532 234.2 217.378 234.665 217.136 235.087C217.126 235.104 217.117 235.121 217.107 235.137C216.624 235.946 215.854 236.55 214.945 236.83V236.83Z" fill="#3785BA"/>
<path d="M215.5 200C217.985 200 220 197.761 220 195C220 192.239 217.985 190 215.5 190C213.015 190 211 192.239 211 195C211 197.761 213.015 200 215.5 200Z" fill="#0086BF"/>
</svg>
