<svg width="873" height="591" viewBox="0 0 873 591" fill="none" xmlns="http://www.w3.org/2000/svg">
<g clip-path="url(#clip0)">
<path d="M58.7305 444.733C54.5865 444.733 50.434 444.904 46.3787 445.249L45.7885 445.299C18.89 447.677 -0.785103 461.472 0.0240767 477.389L0.18051 480.267C0.28367 482.086 0.393583 484.042 0.484053 486.212C0.533053 487.282 1.99337 488.104 3.81045 488.104H665.45C712.099 487.82 758.579 487.464 803.591 487.044C812.033 487.062 820.469 486.624 828.864 485.734C841.373 484.254 850.055 481.319 855.409 476.763H855.411C862.069 471.112 862.279 463.997 861.876 455.958C861.056 439.726 860.243 422.673 859.431 405.672C858.714 390.689 858 375.745 857.287 361.439C856.845 352.948 855.864 345.454 848.303 339.727C840.108 333.532 825.162 330.393 803.88 330.393C803.623 330.393 803.368 330.393 803.107 330.394C736.41 330.631 670.324 353.564 638.662 387.461C635.016 391.364 631.618 395.543 628.332 399.585C623.477 405.556 618.458 411.729 612.468 417.249C609.225 420.278 605.718 423.012 601.989 425.418C601.732 425.596 601.437 425.786 601.126 425.967C600.414 426.431 599.67 426.878 598.945 427.276C594.697 429.73 590.221 431.765 585.58 433.353L585.111 433.51C584.759 433.636 584.377 433.762 583.994 433.877C581.314 434.737 578.53 435.481 575.74 436.083C563.671 438.743 549.947 439.381 534.951 437.977C521.179 436.653 507.586 433.883 494.394 429.712C480.508 425.323 467.51 419.852 454.94 414.561C449.419 412.235 443.708 409.832 438.005 407.555C436.932 407.126 435.878 406.707 434.808 406.288C427.842 403.573 421.527 401.331 415.501 399.434C400.573 394.714 385.121 391.852 369.493 390.912C352.905 390.004 338.287 391.717 326.056 395.991C322.683 397.165 319.4 398.58 316.23 400.225C301.743 407.748 292.811 418.852 284.175 429.59C273.431 442.946 262.322 456.759 240.385 463.919C215.072 472.188 178.123 468.753 151.982 462.778C143.763 460.899 135.554 458.738 127.616 456.647C124.409 455.803 121.201 454.964 117.99 454.131C111.68 452.502 106.517 451.254 101.739 450.2L100.228 449.864C99.3878 449.682 98.5465 449.499 97.69 449.325C92.0155 448.134 86.7316 447.196 81.5281 446.459L80.297 446.279C77.8289 445.954 75.5214 445.684 73.257 445.456L72.3531 445.366C67.9182 444.944 63.3286 444.733 58.7305 444.733Z" fill="#F2F2F2"/>
<path d="M742.905 462.498C761.523 445.721 789.214 437.285 812.443 446.693C788.615 459.921 770.235 481.152 760.555 506.627C756.857 516.466 753.768 527.794 744.673 533.061C739.013 536.338 731.972 536.499 725.627 534.916C719.281 533.334 713.465 530.162 707.728 527.022L706.096 526.985C713.423 503.019 724.288 479.274 742.905 462.498Z" fill="#E6E6E6"/>
<path d="M812.312 447.204C791.739 449.862 772.527 458.935 757.405 473.134C754.096 476.133 751.279 479.635 749.06 483.511C747.02 487.356 746.047 491.678 746.242 496.027C746.343 500.085 746.916 504.225 746.028 508.237C745.543 510.284 744.631 512.205 743.351 513.875C742.072 515.544 740.454 516.925 738.603 517.925C734.058 520.538 728.844 521.362 723.717 521.99C718.025 522.688 712.102 523.322 707.175 526.515C706.578 526.902 706.013 525.953 706.609 525.567C715.181 520.012 726.029 522.033 735.246 518.326C739.547 516.596 743.353 513.56 744.7 508.969C745.878 504.954 745.291 500.685 745.154 496.577C744.901 492.337 745.69 488.101 747.453 484.237C749.467 480.26 752.144 476.656 755.368 473.577C762.516 466.531 770.728 460.653 779.702 456.158C789.915 450.97 800.941 447.568 812.301 446.099C813.005 446.008 813.01 447.114 812.312 447.204H812.312Z" fill="white"/>
<path d="M762.005 468.274C759.967 465.414 759.013 461.922 759.312 458.422C759.611 454.923 761.144 451.644 763.637 449.17C764.144 448.671 764.943 449.435 764.436 449.934C762.109 452.233 760.681 455.288 760.41 458.547C760.138 461.806 761.04 465.055 762.953 467.708C763.369 468.285 762.418 468.848 762.005 468.274V468.274Z" fill="white"/>
<path d="M745.921 493.974C752.99 495.227 760.272 493.769 766.315 489.891C766.913 489.506 767.479 490.455 766.881 490.839C760.586 494.863 753.005 496.365 745.651 495.045C744.95 494.919 745.224 493.849 745.921 493.974V493.974Z" fill="white"/>
<path d="M790.004 452.432C790.562 453.703 791.427 454.816 792.521 455.67C793.615 456.524 794.904 457.094 796.273 457.327C796.975 457.444 796.7 458.514 796.003 458.398C794.492 458.133 793.069 457.503 791.858 456.562C790.647 455.621 789.685 454.397 789.056 452.998C788.986 452.872 788.966 452.723 789.002 452.582C789.037 452.441 789.125 452.319 789.247 452.241C789.373 452.167 789.523 452.145 789.665 452.181C789.807 452.217 789.929 452.307 790.004 452.432V452.432Z" fill="white"/>
<path d="M838.019 527.598C837.579 527.537 837.138 527.477 836.691 527.423C830.765 526.636 824.784 526.332 818.809 526.514C818.347 526.521 817.878 526.535 817.417 526.555C803.026 527.147 788.869 530.405 775.667 536.165C770.416 538.462 765.347 541.155 760.504 544.22C753.817 548.455 746.902 553.578 739.426 555.305C738.648 555.494 737.86 555.634 737.064 555.726L706.176 528.98C706.136 528.884 706.09 528.795 706.05 528.699L704.768 527.687C705.006 527.512 705.258 527.335 705.496 527.159C705.634 527.057 705.779 526.96 705.917 526.858C706.012 526.792 706.106 526.725 706.187 526.66C706.219 526.638 706.25 526.616 706.276 526.601C706.357 526.535 706.439 526.483 706.514 526.425C707.917 525.432 709.328 524.447 710.749 523.471C710.755 523.463 710.755 523.464 710.768 523.462C721.526 515.916 733.141 509.673 745.369 504.863C745.736 504.724 746.109 504.578 746.49 504.452C751.997 502.404 757.662 500.81 763.429 499.686C766.589 499.08 769.777 498.635 772.982 498.351C781.264 497.635 789.607 498.226 797.705 500.103C813.849 503.846 828.615 512.711 837.361 526.535C837.585 526.889 837.802 527.237 838.019 527.598Z" fill="#E6E6E6"/>
<path d="M837.61 527.93C819.584 517.666 798.782 513.344 778.159 515.576C773.71 515.978 769.353 517.078 765.248 518.837C761.304 520.679 757.925 523.544 755.463 527.134C753.1 530.435 751.065 534.085 747.94 536.754C746.321 538.096 744.436 539.081 742.409 539.644C740.382 540.207 738.259 540.335 736.179 540.019C730.976 539.369 726.318 536.888 721.846 534.303C716.881 531.433 711.77 528.373 705.914 527.956C705.204 527.905 705.324 526.807 706.032 526.858C716.221 527.584 723.665 535.729 733.257 538.318C737.733 539.527 742.6 539.393 746.439 536.539C749.797 534.043 751.898 530.281 754.262 526.918C756.613 523.381 759.794 520.473 763.528 518.449C767.53 516.487 771.838 515.221 776.265 514.704C786.215 513.381 796.31 513.632 806.182 515.445C817.46 517.453 828.312 521.375 838.267 527.041C838.883 527.392 838.222 528.278 837.61 527.93V527.93Z" fill="white"/>
<path d="M784.758 514.468C784.853 510.957 786.193 507.594 788.539 504.98C790.885 502.366 794.083 500.671 797.563 500.197C798.268 500.104 798.446 501.194 797.741 501.288C794.499 501.723 791.52 503.302 789.34 505.741C787.161 508.179 785.925 511.317 785.856 514.587C785.84 515.297 784.742 515.174 784.758 514.468V514.468Z" fill="white"/>
<path d="M756.44 525.302C761.331 530.558 768.023 533.778 775.182 534.32C775.892 534.373 775.772 535.471 775.064 535.418C767.615 534.841 760.657 531.475 755.58 525.994C755.096 525.472 755.96 524.782 756.441 525.302H756.44Z" fill="white"/>
<path d="M816.652 518.675C816.332 520.025 816.353 521.434 816.712 522.775C817.071 524.116 817.758 525.347 818.71 526.357C819.2 526.873 818.336 527.562 817.85 527.049C816.803 525.928 816.046 524.568 815.646 523.088C815.246 521.607 815.214 520.051 815.554 518.556C815.574 518.412 815.648 518.281 815.761 518.191C815.874 518.1 816.018 518.055 816.162 518.066C816.308 518.083 816.441 518.156 816.532 518.27C816.624 518.384 816.667 518.529 816.652 518.675V518.675Z" fill="white"/>
<path d="M255.544 479.183C270.789 456.06 298.059 439.334 325.519 442.933C303.715 463.711 289.964 491.531 286.697 521.471C285.479 533.022 285.327 545.997 277.065 554.161C271.924 559.24 264.438 561.371 257.211 561.444C249.984 561.517 242.88 559.743 235.871 557.98L234.115 558.395C235.285 530.724 240.299 502.305 255.544 479.183Z" fill="#E6E6E6"/>
<path d="M325.52 443.516C304.257 452.083 286.234 467.131 274.01 486.524C271.305 490.653 269.267 495.181 267.972 499.944C266.86 504.624 267.021 509.517 268.44 514.114C269.677 518.426 271.441 522.694 271.608 527.233C271.658 529.557 271.217 531.865 270.313 534.007C269.409 536.149 268.063 538.075 266.362 539.66C262.227 543.72 256.88 546.051 251.572 548.149C245.678 550.479 239.52 552.806 235.138 557.591C234.607 558.171 233.739 557.313 234.269 556.734C241.892 548.408 254.056 547.552 262.883 541.023C267.002 537.976 270.227 533.67 270.391 528.385C270.534 523.764 268.718 519.361 267.429 515.005C265.979 510.541 265.645 505.79 266.454 501.167C267.503 496.354 269.363 491.754 271.955 487.565C277.64 478.04 284.787 469.469 293.134 462.164C302.615 453.775 313.46 447.069 325.202 442.337C325.929 442.045 326.242 443.225 325.52 443.516L325.52 443.516Z" fill="white"/>
<path d="M277.58 480.048C274.605 477.556 272.612 474.087 271.958 470.261C271.305 466.435 272.032 462.501 274.011 459.162C274.414 458.488 275.481 459.082 275.077 459.757C273.229 462.863 272.551 466.527 273.167 470.089C273.783 473.65 275.652 476.874 278.437 479.179C279.041 479.68 278.181 480.547 277.58 480.048V480.048Z" fill="white"/>
<path d="M267.526 512.01C275.435 511.383 282.818 507.798 288.202 501.969C288.735 501.391 289.603 502.249 289.071 502.826C283.457 508.881 275.767 512.596 267.535 513.231C266.75 513.291 266.745 512.07 267.526 512.01H267.526Z" fill="white"/>
<path d="M303.119 455.313C304.069 456.517 305.303 457.467 306.711 458.076C308.119 458.685 309.656 458.935 311.185 458.804C311.968 458.734 311.972 459.955 311.194 460.024C309.504 460.162 307.807 459.884 306.25 459.214C304.693 458.544 303.324 457.503 302.262 456.182C302.151 456.066 302.089 455.912 302.088 455.752C302.087 455.592 302.147 455.437 302.255 455.319C302.369 455.205 302.524 455.14 302.686 455.139C302.847 455.138 303.003 455.2 303.119 455.313H303.119Z" fill="white"/>
<path d="M375.382 522.349C374.894 522.407 374.406 522.464 373.913 522.531C367.356 523.338 360.875 524.677 354.535 526.534C354.043 526.67 353.546 526.815 353.058 526.964C337.83 531.601 323.596 539.025 311.078 548.858C306.101 552.775 301.429 557.065 297.102 561.692C291.128 568.081 285.158 575.484 277.643 579.411C276.863 579.829 276.058 580.199 275.233 580.518L234.756 560.506C234.687 560.415 234.613 560.332 234.543 560.24L232.891 559.515C233.097 559.261 233.317 559.002 233.523 558.747C233.642 558.599 233.77 558.456 233.89 558.308C233.972 558.211 234.055 558.114 234.123 558.021C234.151 557.989 234.178 557.957 234.201 557.933C234.27 557.841 234.343 557.762 234.408 557.679C235.631 556.227 236.867 554.781 238.115 553.341C238.12 553.332 238.12 553.332 238.133 553.327C247.672 542.379 258.209 532.131 269.966 523.808C270.32 523.558 270.678 523.298 271.05 523.057C276.37 519.335 281.986 516.054 287.841 513.247C291.052 511.72 294.338 510.356 297.687 509.162C306.345 506.092 315.433 504.403 324.616 504.157C342.924 503.67 361.183 509.043 374.383 521.396C374.721 521.712 375.049 522.024 375.382 522.349Z" fill="#E6E6E6"/>
<path d="M375.038 522.817C352.903 516.855 329.452 518.019 308.016 526.144C303.37 527.811 299.016 530.2 295.115 533.223C291.409 536.29 288.592 540.294 286.957 544.819C285.348 549.006 284.187 553.477 281.588 557.2C280.229 559.087 278.487 560.664 276.476 561.83C274.465 562.996 272.23 563.724 269.918 563.965C264.172 564.717 258.499 563.359 252.998 561.838C246.889 560.15 240.571 558.3 234.192 559.483C233.419 559.626 233.242 558.418 234.013 558.275C245.113 556.217 255.34 562.857 266.319 562.958C271.442 563.006 276.61 561.509 279.923 557.388C282.819 553.784 284.021 549.176 285.613 544.922C287.143 540.485 289.737 536.49 293.167 533.286C296.902 530.074 301.157 527.522 305.748 525.737C316.022 521.555 326.889 519.014 337.951 518.207C350.572 517.217 363.269 518.393 375.493 521.684C376.25 521.888 375.789 523.019 375.038 522.817V522.817Z" fill="white"/>
<path d="M314.763 523.123C313.888 519.341 314.386 515.372 316.167 511.923C317.949 508.475 320.898 505.772 324.489 504.297C325.216 504.002 325.71 505.118 324.982 505.414C321.636 506.781 318.889 509.299 317.236 512.514C315.584 515.729 315.135 519.428 315.971 522.944C316.151 523.709 314.943 523.883 314.763 523.123H314.763Z" fill="white"/>
<path d="M287.493 542.588C294.186 546.849 302.239 548.432 310.046 547.019C310.82 546.879 310.997 548.086 310.225 548.227C302.097 549.681 293.72 548.018 286.765 543.568C286.102 543.143 286.834 542.166 287.493 542.588V542.588Z" fill="white"/>
<path d="M350.048 518.749C350.081 520.283 350.495 521.784 351.253 523.118C352.01 524.453 353.087 525.578 354.386 526.393C355.054 526.809 354.322 527.786 353.658 527.373C352.227 526.466 351.039 525.221 350.199 523.749C349.359 522.277 348.893 520.622 348.84 518.928C348.822 518.768 348.865 518.608 348.96 518.479C349.056 518.351 349.197 518.263 349.355 518.235C349.515 518.212 349.677 518.253 349.807 518.349C349.937 518.446 350.023 518.59 350.048 518.749V518.749Z" fill="white"/>
<path d="M364.039 305.828C365.051 304.822 365.829 303.606 366.32 302.266C366.811 300.926 367.002 299.495 366.879 298.074C366.757 296.652 366.325 295.274 365.613 294.038C364.901 292.801 363.926 291.736 362.758 290.917L378.69 213.811L361.501 219.233L348.682 293.828C347.437 295.882 346.988 298.321 347.42 300.685C347.853 303.048 349.138 305.17 351.03 306.649C352.923 308.128 355.293 308.862 357.691 308.71C360.088 308.559 362.347 307.534 364.039 305.828V305.828Z" fill="#FFB6B6"/>
<path d="M400.864 99.7186L390.216 91.6813C390.216 91.6813 380.823 91.0161 379.16 107.955C377.496 124.894 367.08 189.905 367.08 189.905L350.787 265.368L373.341 270.318L390.792 188.881L408.261 132.697L400.864 99.7186Z" fill="#E6E6E6"/>
<path d="M392.753 239.353L341.678 199.639C340.883 199.019 340.366 198.109 340.24 197.108C340.115 196.107 340.392 195.098 341.01 194.301L375.761 149.608C376.381 148.812 377.292 148.295 378.292 148.17C379.293 148.045 380.303 148.322 381.1 148.94L432.175 188.653C432.97 189.273 433.487 190.184 433.613 191.185C433.738 192.185 433.461 193.195 432.843 193.992L398.092 238.685C397.472 239.48 396.561 239.997 395.561 240.123C394.56 240.248 393.55 239.971 392.753 239.353V239.353Z" fill="#3785BA"/>
<path d="M392.473 235.243L345.731 198.899C345.024 198.348 344.565 197.54 344.454 196.651C344.343 195.763 344.589 194.866 345.137 194.159L376.641 153.643C377.191 152.936 377.999 152.477 378.888 152.366C379.777 152.255 380.673 152.501 381.381 153.05L428.123 189.394C428.829 189.945 429.289 190.753 429.4 191.641C429.511 192.53 429.265 193.426 428.716 194.134L397.213 234.65C396.662 235.356 395.854 235.816 394.966 235.927C394.077 236.038 393.181 235.792 392.473 235.243V235.243Z" fill="white"/>
<path d="M351.857 197.868C351.68 197.731 351.566 197.528 351.538 197.306C351.51 197.084 351.571 196.86 351.709 196.683L367.601 176.244C367.739 176.067 367.941 175.952 368.163 175.925C368.273 175.911 368.385 175.919 368.492 175.948C368.598 175.978 368.699 176.028 368.786 176.096C368.874 176.164 368.947 176.248 369.002 176.345C369.057 176.441 369.092 176.547 369.106 176.658C369.119 176.768 369.111 176.879 369.082 176.986C369.053 177.093 369.002 177.193 368.934 177.281L353.042 197.72C352.904 197.896 352.702 198.011 352.48 198.039C352.258 198.067 352.034 198.005 351.857 197.868V197.868Z" fill="#E4E4E4"/>
<path d="M354.492 199.915C354.315 199.777 354.2 199.575 354.173 199.353C354.145 199.131 354.206 198.907 354.343 198.73L370.236 178.291C370.373 178.114 370.575 177.999 370.798 177.971C371.02 177.944 371.244 178.005 371.421 178.143C371.598 178.28 371.713 178.482 371.74 178.704C371.768 178.927 371.707 179.151 371.569 179.328L355.677 199.767C355.539 199.943 355.337 200.058 355.115 200.086C354.893 200.114 354.669 200.052 354.492 199.915Z" fill="#E4E4E4"/>
<path d="M366.128 190.386C365.952 190.248 365.837 190.046 365.809 189.824C365.781 189.602 365.843 189.378 365.98 189.201L372.869 180.341C372.937 180.253 373.022 180.18 373.118 180.125C373.215 180.07 373.321 180.034 373.431 180.02C373.541 180.006 373.653 180.014 373.76 180.044C373.867 180.073 373.967 180.123 374.055 180.191C374.143 180.26 374.216 180.344 374.271 180.441C374.326 180.537 374.361 180.644 374.375 180.754C374.388 180.864 374.38 180.976 374.351 181.083C374.321 181.19 374.271 181.29 374.202 181.378L367.313 190.237C367.176 190.414 366.974 190.529 366.752 190.557C366.529 190.584 366.305 190.523 366.128 190.386V190.386Z" fill="#E4E4E4"/>
<path d="M369.681 207.772C369.505 207.635 369.39 207.433 369.362 207.21C369.334 206.988 369.396 206.764 369.533 206.587L394.622 174.32C394.69 174.233 394.775 174.159 394.871 174.105C394.968 174.05 395.074 174.014 395.184 174.001C395.294 173.987 395.406 173.995 395.513 174.024C395.62 174.054 395.72 174.104 395.807 174.172C395.895 174.24 395.968 174.325 396.023 174.421C396.078 174.517 396.113 174.624 396.127 174.734C396.14 174.844 396.132 174.955 396.103 175.062C396.074 175.169 396.024 175.269 395.955 175.357L370.866 207.624C370.728 207.801 370.526 207.915 370.304 207.943C370.082 207.971 369.858 207.909 369.681 207.772V207.772Z" fill="#E4E4E4"/>
<path d="M372.314 209.819C372.137 209.682 372.023 209.48 371.995 209.257C371.967 209.035 372.028 208.811 372.166 208.634L397.255 176.367C397.323 176.28 397.408 176.206 397.504 176.151C397.601 176.097 397.707 176.061 397.817 176.048C397.927 176.034 398.039 176.042 398.145 176.071C398.252 176.101 398.352 176.151 398.44 176.219C398.528 176.287 398.601 176.372 398.656 176.468C398.71 176.564 398.746 176.671 398.76 176.781C398.773 176.891 398.765 177.002 398.736 177.109C398.707 177.216 398.656 177.316 398.588 177.404L373.499 209.671C373.361 209.847 373.159 209.962 372.937 209.99C372.715 210.018 372.491 209.956 372.314 209.819V209.819Z" fill="#E4E4E4"/>
<path d="M378.294 214.469C378.118 214.332 378.003 214.13 377.975 213.908C377.948 213.686 378.009 213.461 378.146 213.285L403.236 181.017C403.304 180.93 403.388 180.857 403.485 180.802C403.581 180.747 403.687 180.712 403.797 180.698C403.907 180.684 404.019 180.692 404.126 180.722C404.233 180.751 404.333 180.801 404.42 180.869C404.508 180.937 404.581 181.022 404.636 181.118C404.691 181.215 404.726 181.321 404.74 181.431C404.754 181.541 404.746 181.653 404.716 181.76C404.687 181.866 404.637 181.967 404.569 182.054L379.479 214.321C379.342 214.498 379.14 214.613 378.918 214.64C378.695 214.668 378.471 214.607 378.294 214.469V214.469Z" fill="#E4E4E4"/>
<path d="M380.927 216.516C380.751 216.379 380.636 216.177 380.608 215.955C380.58 215.733 380.642 215.508 380.779 215.331L405.868 183.064C405.936 182.977 406.021 182.904 406.117 182.849C406.214 182.794 406.32 182.759 406.43 182.745C406.54 182.731 406.652 182.739 406.759 182.768C406.866 182.798 406.966 182.848 407.053 182.916C407.141 182.984 407.214 183.069 407.269 183.165C407.324 183.262 407.359 183.368 407.373 183.478C407.387 183.588 407.379 183.7 407.349 183.806C407.32 183.913 407.27 184.014 407.202 184.101L382.112 216.368C381.975 216.545 381.773 216.66 381.55 216.687C381.328 216.715 381.104 216.654 380.927 216.516V216.516Z" fill="#E4E4E4"/>
<path d="M386.908 221.165C386.731 221.027 386.616 220.825 386.589 220.603C386.561 220.381 386.622 220.157 386.759 219.98L411.849 187.713C411.917 187.625 412.002 187.552 412.098 187.497C412.194 187.442 412.301 187.407 412.411 187.393C412.521 187.379 412.632 187.388 412.739 187.417C412.846 187.446 412.946 187.496 413.034 187.565C413.121 187.633 413.195 187.717 413.249 187.814C413.304 187.91 413.34 188.016 413.353 188.126C413.367 188.236 413.359 188.348 413.33 188.455C413.3 188.562 413.25 188.662 413.182 188.749L388.093 221.017C387.955 221.193 387.753 221.308 387.531 221.336C387.309 221.363 387.085 221.302 386.908 221.165Z" fill="#E4E4E4"/>
<path d="M389.541 223.213C389.364 223.076 389.249 222.874 389.221 222.652C389.194 222.429 389.255 222.205 389.392 222.028L414.482 189.761C414.619 189.585 414.821 189.471 415.043 189.444C415.265 189.416 415.488 189.478 415.665 189.615C415.841 189.752 415.956 189.954 415.984 190.176C416.012 190.397 415.952 190.621 415.815 190.798L390.726 223.065C390.588 223.242 390.386 223.357 390.164 223.384C389.942 223.412 389.717 223.351 389.541 223.213V223.213Z" fill="#E4E4E4"/>
<path d="M347.608 260.688C347.8 260.688 347.955 260.532 347.955 260.341C347.955 260.149 347.8 259.994 347.608 259.994C347.417 259.994 347.262 260.149 347.262 260.341C347.262 260.532 347.417 260.688 347.608 260.688Z" fill="white"/>
<path d="M398.128 21.7963C396.909 28.3481 394.909 34.7302 392.172 40.8065C376.499 73.9632 421.133 63.1558 437.084 63.1558C454.524 63.1558 471.211 72.3265 468.662 31.5779C467.574 14.1719 454.524 0 437.084 0C422.188 0 401.243 6.62127 398.128 21.7963Z" fill="black"/>
<path d="M453.34 508.084H438.481L431.41 450.771H453.34V508.084Z" fill="#FFB6B6"/>
<path d="M461.183 533.831H450.528L448.625 523.771L443.754 533.831H415.492C414.137 533.831 412.818 533.398 411.727 532.595C410.636 531.793 409.83 530.662 409.427 529.369C409.023 528.075 409.044 526.687 409.486 525.406C409.928 524.126 410.767 523.02 411.882 522.25L434.451 506.663V496.492L458.19 497.909L461.183 533.831Z" fill="#72A9CE"/>
<path d="M541.617 489.333L529.693 498.2L489.82 456.429L507.418 443.342L541.617 489.333Z" fill="#FFB6B6"/>
<path d="M563.272 505.313L554.721 511.671L547.192 504.733L549.286 515.713L526.607 532.578C525.52 533.386 524.203 533.826 522.848 533.833C521.494 533.84 520.172 533.413 519.077 532.616C517.982 531.819 517.17 530.692 516.76 529.401C516.351 528.11 516.364 526.721 516.8 525.439L525.609 499.463L519.54 491.302L539.435 478.273L563.272 505.313Z" fill="#72A9CE"/>
<path d="M404.676 244.313L475.211 233.327L461.184 191.129H404.676V244.313Z" fill="#FFB6B6"/>
<path d="M470.638 212.383C470.638 212.383 498.831 236.74 485.823 306.176L469.943 374.211L513.209 449.327L491.209 461.327L437.891 387.222L413.493 329.992L400.588 229.691L470.638 212.383Z" fill="#72A9CE"/>
<path d="M426.942 346.301L425.246 372.562L430.21 450.327L454.854 458.812L459.521 379.134L426.942 346.301Z" fill="#72A9CE"/>
<path d="M419.365 71.8965L446.63 72.9602L457.496 90.9977L482.288 95.8375L467.488 170.71L470.21 213.327L445.524 213.177C427.733 213.068 410.528 219.532 397.21 231.327V231.327L397.948 176.007L387.33 134.712L389.716 91.4105L409.66 88.9175L419.365 71.8965Z" fill="#E6E6E6"/>
<path d="M434.471 63.1474C448.643 63.1474 460.132 51.6587 460.132 37.4868C460.132 23.3148 448.643 11.8262 434.471 11.8262C420.299 11.8262 408.811 23.3148 408.811 37.4868C408.811 51.6587 420.299 63.1474 434.471 63.1474Z" fill="#FFB6B6"/>
<path d="M417.044 11.3293C421.541 8.58804 426.691 7.10518 431.957 7.03576C437.223 6.96634 442.411 8.31291 446.978 10.9347C451.545 13.5564 455.324 17.3571 457.92 21.9392C460.515 26.5214 461.832 31.7167 461.733 36.982C448.657 40.2648 434.921 42.7771 420.977 37.7672L417.684 29.7079L415.743 37.7732C411.496 39.5089 407.239 40.9774 402.981 37.7564C402.807 32.506 404.015 27.3019 406.483 22.6643C408.951 18.0267 412.592 14.1181 417.044 11.3293Z" fill="black"/>
<path d="M477.542 265.061L481.001 296.453C481.242 297.237 481.728 297.922 482.387 298.409C483.047 298.896 483.844 299.158 484.664 299.158H500.609C501.429 299.159 502.227 298.896 502.886 298.409C503.545 297.922 504.031 297.237 504.272 296.453L507.137 272.392C507.964 272.798 508.875 273.001 509.796 272.986C510.717 272.97 511.621 272.737 512.434 272.304C513.247 271.871 513.946 271.251 514.472 270.495C514.999 269.74 515.339 268.87 515.464 267.958C515.589 267.045 515.496 266.116 515.192 265.246C514.888 264.377 514.382 263.592 513.715 262.956C513.049 262.321 512.241 261.852 511.358 261.59C510.476 261.327 509.543 261.278 508.637 261.446C508.28 261.023 507.835 260.684 507.332 260.452C506.83 260.22 506.283 260.1 505.73 260.102H481.205C480.606 260.102 480.014 260.242 479.479 260.513C478.943 260.783 478.479 261.175 478.123 261.657C477.766 262.139 477.528 262.699 477.428 263.29C477.327 263.881 477.366 264.488 477.542 265.061V265.061ZM507.638 270.765L509.393 265.061C509.596 264.402 509.616 263.701 509.451 263.032C509.526 263.028 509.596 263.01 509.672 263.01C510.774 263.01 511.831 263.448 512.61 264.227C513.389 265.006 513.827 266.063 513.827 267.165C513.827 268.267 513.389 269.324 512.61 270.103C511.831 270.882 510.774 271.32 509.672 271.32C508.957 271.316 508.256 271.124 507.638 270.765V270.765Z" fill="#1E4470"/>
<path d="M501.587 299.181C500.581 298.169 499.808 296.949 499.324 295.607C498.84 294.265 498.657 292.833 498.786 291.412C498.916 289.991 499.355 288.615 500.073 287.383C500.792 286.15 501.772 285.089 502.944 284.276L487.404 207.09L504.565 212.6L517.004 287.258C518.24 289.319 518.676 291.761 518.232 294.122C517.787 296.482 516.492 298.598 514.591 300.067C512.691 301.537 510.317 302.258 507.921 302.095C505.524 301.932 503.27 300.895 501.587 299.181V299.181Z" fill="#FFB6B6"/>
<path d="M471.641 103.875L482.289 95.8375C482.289 95.8375 491.682 95.1723 493.345 112.111C495.009 129.05 505.425 194.061 505.425 194.061L521.718 269.524L499.164 274.475L481.713 193.037L464.244 136.853L471.641 103.875Z" fill="#E6E6E6"/>
<path d="M379.744 174.137C383.073 174.137 385.771 171.438 385.771 168.109C385.771 164.781 383.073 162.082 379.744 162.082C376.415 162.082 373.717 164.781 373.717 168.109C373.717 171.438 376.415 174.137 379.744 174.137Z" fill="#1E4470"/>
<path d="M187.545 578.007L200.106 578.006L206.082 529.557L187.543 529.558L187.545 578.007Z" fill="#FFB6B6"/>
<path d="M184.342 573.905L187.877 573.904L201.681 568.291L209.079 573.904H209.08C213.261 573.904 217.27 575.565 220.227 578.521C223.183 581.477 224.844 585.487 224.844 589.668V590.18L184.343 590.182L184.342 573.905Z" fill="#72A9CE"/>
<path d="M236.221 570.089L248.474 572.856L264.975 526.913L246.891 522.83L236.221 570.089Z" fill="#FFB6B6"/>
<path d="M233.999 565.385L237.447 566.164L252.148 563.729L258.128 570.833L258.129 570.833C262.207 571.754 265.753 574.258 267.985 577.793C270.218 581.327 270.955 585.604 270.034 589.683L269.921 590.182L230.414 581.262L233.999 565.385Z" fill="#72A9CE"/>
<path d="M164.549 328.789L175.907 456.049C175.907 456.049 171.651 532.45 185.385 559.335H205.301L215.162 449.072L216.401 375.063L259.1 437.502L231.904 557.532L256.416 559.724L300.549 429.462L252.064 307.178L164.549 328.789Z" fill="#72A9CE"/>
<path d="M176.445 126.131C192.623 126.131 205.738 113.016 205.738 96.8379C205.738 80.6598 192.623 67.5449 176.445 67.5449C160.267 67.5449 147.152 80.6598 147.152 96.8379C147.152 113.016 160.267 126.131 176.445 126.131Z" fill="#FFB8B8"/>
<path d="M227.94 154.046L203.908 143.735L192.209 131.326L162.984 136.04L155.23 149.335L130.129 172.675L159.538 305.648L158.648 334.691C158.648 334.691 177.47 343.165 259.1 323.655C260.079 323.421 258.03 322.396 258.03 322.396L227.94 154.046Z" fill="#3785BA"/>
<path d="M145.986 113.46C145.781 113.181 145.579 112.9 145.379 112.617C145.299 112.787 145.235 112.963 145.143 113.129L145.986 113.46Z" fill="#72A9CE"/>
<path d="M205.585 75.4116C203.627 71.1461 200.136 67.7733 195.806 65.9636C191.513 64.2323 186.716 64.2365 182.427 65.9753C178.554 63.5286 174.251 61.5889 169.72 61.3487C165.188 61.1084 160.397 62.7896 157.605 66.4902C156.981 67.4671 156.273 68.3872 155.488 69.24C153.243 71.3188 149.832 71.019 146.848 70.5939C148.187 71.7408 149.525 72.8878 150.864 74.0347C149.244 74.4579 147.624 74.8811 146.004 75.3043C147.894 76.4509 149.785 77.5974 151.675 78.744C146.187 82.038 143.693 89.2276 144.351 95.7573C144.975 101.939 147.959 107.592 151.527 112.617C152.951 109.614 152.644 106.02 152.62 102.637C152.596 99.0626 153.228 95.0038 156.092 93.0063C158.024 91.6588 160.509 91.5986 162.839 91.6114C174.59 91.6759 186.329 92.4087 197.998 93.8064C199.581 93.8749 201.125 94.3226 202.499 95.112C205.08 96.8724 205.582 100.505 205.842 103.692C207.205 98.4299 207.872 93.0113 207.826 87.5753C207.941 83.4084 207.177 79.2641 205.585 75.4116V75.4116Z" fill="black"/>
<path d="M214.705 417.999C240.168 417.999 260.81 397.357 260.81 371.894C260.81 346.431 240.168 325.789 214.705 325.789C189.242 325.789 168.6 346.431 168.6 371.894C168.6 397.357 189.242 417.999 214.705 417.999Z" fill="white"/>
<path d="M214.704 324.766C212.334 324.766 209.967 324.944 207.624 325.298C206.425 325.473 205.258 325.698 204.1 325.975C195.594 327.935 187.8 332.22 181.588 338.352C175.376 344.484 170.99 352.221 168.919 360.701C166.848 369.18 167.174 378.068 169.86 386.373C172.546 394.678 177.487 402.074 184.131 407.734C184.92 408.4 185.719 409.046 186.549 409.661C192.531 414.12 199.485 417.096 206.842 418.342C214.198 419.589 221.745 419.071 228.861 416.831C235.978 414.591 242.461 410.693 247.777 405.457C253.093 400.222 257.09 393.799 259.438 386.718C261.787 379.636 262.42 372.098 261.286 364.723C260.152 357.349 257.283 350.35 252.916 344.301C248.548 338.252 242.806 333.327 236.163 329.93C229.52 326.534 222.165 324.764 214.704 324.766V324.766ZM214.704 416.976C205.118 416.986 195.782 413.923 188.065 408.236C187.225 407.622 186.416 406.987 185.627 406.31C179.154 400.85 174.351 393.675 171.768 385.609C169.186 377.544 168.93 368.914 171.028 360.709C173.127 352.504 177.496 345.057 183.633 339.221C189.771 333.386 197.429 329.398 205.729 327.716C206.876 327.481 208.024 327.296 209.192 327.153C211.021 326.926 212.861 326.814 214.704 326.815C226.66 326.815 238.127 331.564 246.581 340.019C255.035 348.473 259.785 359.939 259.785 371.895C259.785 383.851 255.035 395.318 246.581 403.772C238.127 412.226 226.66 416.976 214.704 416.976V416.976Z" fill="#3785BA"/>
<path d="M192.09 362.674H237.318C238.975 362.674 240.318 361.331 240.318 359.674V359.526C240.318 357.87 238.975 356.526 237.318 356.526H192.09C190.434 356.526 189.09 357.87 189.09 359.526V359.674C189.09 361.331 190.434 362.674 192.09 362.674Z" fill="#1E4470"/>
<path d="M192.09 374.969H237.318C238.975 374.969 240.318 373.626 240.318 371.969V371.821C240.318 370.165 238.975 368.821 237.318 368.821H192.09C190.434 368.821 189.09 370.165 189.09 371.821V371.969C189.09 373.626 190.434 374.969 192.09 374.969Z" fill="#1E4470"/>
<path d="M192.09 387.264H237.318C238.975 387.264 240.318 385.921 240.318 384.264V384.116C240.318 382.459 238.975 381.116 237.318 381.116H192.09C190.434 381.116 189.09 382.459 189.09 384.116V384.264C189.09 385.921 190.434 387.264 192.09 387.264Z" fill="#1E4470"/>
<path d="M730.519 576.442L717.348 576.441L711.082 525.639L730.521 525.64L730.519 576.442Z" fill="#9E616A"/>
<path d="M668.209 576.442L655.039 576.441L648.773 525.639L668.212 525.64L668.209 576.442Z" fill="#9E616A"/>
<path d="M668.673 590.182L628.172 590.18V589.668C628.172 585.487 629.833 581.477 632.789 578.521C635.746 575.565 639.755 573.904 643.936 573.904H643.937L651.335 568.291L665.139 573.904L668.674 573.905L668.673 590.182Z" fill="#72A9CE"/>
<path d="M732.673 590.182L692.172 590.18V589.668C692.172 585.487 693.833 581.477 696.789 578.521C699.746 575.565 703.755 573.904 707.936 573.904H707.937L715.335 568.291L729.139 573.904L732.674 573.905L732.673 590.182Z" fill="#72A9CE"/>
<path d="M655.29 275.779L635.273 397.663L640.721 415.826L633.572 428.69L644.07 541.66L639.808 551.041L651.714 558.384H675.94L677.226 456.111L683.21 441.095V432.819L695.392 370.456L697.635 457.792L701.179 472.831L698.202 483.539L702.091 491.041L712.423 560.612H739.588L737.487 544.427C739.853 543.229 741.754 541.278 742.891 538.882C744.028 536.486 744.336 533.78 743.768 531.189L742.21 524.095L745.755 503.119L752.21 386.095L750.39 291.672L718.612 267.371L655.29 275.779Z" fill="#72A9CE"/>
<path d="M701.178 119.265C715.117 119.265 726.417 107.965 726.417 94.0259C726.417 80.0869 715.117 68.7871 701.178 68.7871C687.239 68.7871 675.939 80.0869 675.939 94.0259C675.939 107.965 687.239 119.265 701.178 119.265Z" fill="#9E616A"/>
<path d="M646.036 324.146C647.134 323.011 647.97 321.649 648.485 320.156C649 318.663 649.182 317.076 649.017 315.505C648.852 313.934 648.345 312.419 647.531 311.065C646.717 309.712 645.616 308.553 644.306 307.671L654.12 270.557L635.211 276.917L628.79 311.187C627.455 313.486 627.009 316.195 627.537 318.801C628.065 321.407 629.531 323.729 631.657 325.326C633.782 326.923 636.42 327.686 639.07 327.468C641.72 327.251 644.199 326.069 646.036 324.146H646.036Z" fill="#9E616A"/>
<path d="M656.364 145.952L652.305 145.109L648.844 147.026C648.844 147.026 639.175 159.918 639.175 171.735C639.175 183.553 627.357 297.43 627.357 297.43L648.844 307.099L666.033 217.931L656.364 145.952Z" fill="#E6E6E6"/>
<path d="M723.281 75.5207C723.281 75.5207 729.882 62.9013 715.359 61.7541C715.359 61.7541 702.978 50.5232 690.359 59.7009C690.359 59.7009 683.476 59.7009 679.712 67.4902C679.712 67.4902 674.298 65.437 673.108 70.9318C673.108 70.9318 669.147 82.4041 673.108 92.729C677.07 103.054 678.385 104.201 678.385 104.201C678.385 104.201 671.876 82.5543 687.72 81.4071C703.565 80.2599 721.295 70.3583 722.615 82.9777C723.936 95.597 725.923 98.7064 725.923 98.7064C725.923 98.7064 738.464 80.6832 723.281 75.5207Z" fill="black"/>
<path d="M815.477 428.689C813.572 428.692 811.734 427.99 810.314 426.719L733.934 358.728C732.394 357.355 731.463 355.427 731.343 353.368C731.224 351.309 731.926 349.286 733.295 347.744L782.226 292.776C783.599 291.237 785.526 290.305 787.586 290.185C789.645 290.065 791.668 290.767 793.21 292.137L869.592 360.13C871.133 361.501 872.066 363.429 872.185 365.489C872.305 367.549 871.602 369.572 870.23 371.113L821.299 426.081C820.622 426.846 819.799 427.47 818.879 427.915C817.959 428.361 816.96 428.619 815.939 428.675C815.785 428.685 815.631 428.689 815.477 428.689Z" fill="white"/>
<path d="M815.476 429.188C813.449 429.191 811.492 428.445 809.982 427.093L733.601 359.102C731.963 357.64 730.971 355.588 730.844 353.396C730.717 351.204 731.464 349.052 732.922 347.41L781.852 292.442C783.314 290.805 785.365 289.813 787.557 289.686C789.748 289.558 791.901 290.305 793.543 291.763L869.924 359.755C871.564 361.215 872.557 363.267 872.684 365.459C872.812 367.652 872.063 369.805 870.603 371.445L821.673 426.413C820.951 427.228 820.076 427.891 819.097 428.365C818.118 428.839 817.054 429.114 815.968 429.175C815.803 429.184 815.64 429.188 815.476 429.188ZM788.04 291.67C787.154 291.669 786.277 291.855 785.467 292.217C784.658 292.58 783.935 293.11 783.346 293.772L734.416 348.74C733.31 349.985 732.743 351.618 732.84 353.28C732.936 354.943 733.688 356.499 734.931 357.607L811.312 425.599C811.928 426.147 812.646 426.569 813.425 426.84C814.204 427.111 815.029 427.226 815.852 427.178C816.675 427.13 817.481 426.92 818.224 426.561C818.966 426.201 819.63 425.699 820.178 425.083L869.109 370.115C870.217 368.871 870.784 367.238 870.688 365.575C870.591 363.913 869.838 362.356 868.594 361.249L792.213 293.257C791.064 292.233 789.579 291.668 788.04 291.67H788.04Z" fill="#3785BA"/>
<path d="M843.175 376.632C842.35 376.633 841.554 376.33 840.938 375.781L780.982 322.41C780.65 322.117 780.38 321.76 780.186 321.362C779.992 320.964 779.878 320.531 779.852 320.089C779.825 319.647 779.886 319.204 780.032 318.785C780.177 318.366 780.403 317.981 780.698 317.65C780.992 317.319 781.349 317.049 781.748 316.857C782.147 316.664 782.58 316.552 783.023 316.527C783.465 316.502 783.908 316.564 784.326 316.711C784.744 316.858 785.129 317.085 785.459 317.381L845.416 370.752C845.926 371.206 846.286 371.804 846.448 372.467C846.61 373.13 846.566 373.827 846.323 374.465C846.08 375.103 845.649 375.651 845.087 376.039C844.524 376.426 843.858 376.633 843.175 376.632V376.632Z" fill="#1E4470"/>
<path d="M831.739 389.479C830.914 389.48 830.117 389.178 829.502 388.629L769.546 335.257C769.216 334.963 768.947 334.607 768.754 334.209C768.561 333.811 768.449 333.379 768.424 332.938C768.398 332.497 768.46 332.055 768.605 331.637C768.75 331.22 768.976 330.835 769.27 330.505C769.564 330.175 769.92 329.906 770.318 329.713C770.716 329.52 771.148 329.408 771.589 329.383C772.031 329.357 772.473 329.419 772.89 329.564C773.308 329.709 773.693 329.935 774.023 330.229L833.979 383.6C834.489 384.054 834.849 384.652 835.011 385.315C835.174 385.978 835.13 386.675 834.887 387.313C834.644 387.951 834.213 388.499 833.65 388.886C833.088 389.273 832.421 389.48 831.739 389.479H831.739Z" fill="#1E4470"/>
<path d="M820.303 402.326C819.478 402.328 818.681 402.025 818.066 401.475L758.109 348.105C757.779 347.811 757.509 347.455 757.316 347.057C757.123 346.658 757.01 346.226 756.984 345.784C756.958 345.343 757.02 344.9 757.165 344.482C757.31 344.064 757.537 343.679 757.831 343.349C758.125 343.018 758.481 342.749 758.88 342.556C759.278 342.364 759.71 342.252 760.152 342.226C760.594 342.201 761.036 342.263 761.454 342.408C761.872 342.554 762.257 342.781 762.587 343.075L822.543 396.446C823.053 396.9 823.413 397.498 823.575 398.161C823.737 398.824 823.694 399.521 823.451 400.159C823.208 400.797 822.777 401.346 822.215 401.733C821.652 402.12 820.986 402.327 820.303 402.326H820.303Z" fill="#1E4470"/>
<path d="M751.738 326.336C750.968 324.957 750.511 323.426 750.397 321.85C750.284 320.275 750.517 318.694 751.08 317.219C751.644 315.743 752.524 314.41 753.658 313.311C754.793 312.213 756.155 311.376 757.648 310.861L757.713 272.471L774.349 283.482L771.737 318.25C772.436 320.815 772.17 323.548 770.989 325.93C769.808 328.313 767.794 330.179 765.329 331.176C762.864 332.173 760.119 332.23 757.614 331.338C755.109 330.446 753.018 328.667 751.738 326.336H751.738Z" fill="#9E616A"/>
<path d="M753.276 156.472L760.708 149.309L766.168 153.249C766.168 153.249 771.539 159.695 775.837 179.033C780.134 198.37 775.837 304.728 775.837 304.728L752.202 301.505L755.425 245.64L745.756 198.37L753.276 156.472Z" fill="#E6E6E6"/>
<path d="M764.249 151.054L739.21 139.094L722.21 123.326L691.21 123.094L681.21 136.094L654.809 145.062L659.21 236.094L656.21 243.094C656.21 243.094 658.3 244.982 659.255 246.038C660.209 247.094 657.935 255.934 657.935 255.934L656.653 265.552L660.21 268.094L655.586 273.556L654.438 282.166C654.438 282.166 735.153 262.104 750.404 295.338C751.21 297.094 749.225 279.933 749.225 279.933L747.241 267.37L749.21 256.094L752.21 253.094L747.178 248.062L750.404 224.188L764.249 151.054Z" fill="#3785BA"/>
<path d="M196.41 352.866C197.031 351.288 197.299 349.593 197.195 347.901C197.09 346.208 196.616 344.559 195.805 343.07C194.995 341.58 193.867 340.287 192.502 339.28C191.138 338.274 189.569 337.579 187.906 337.244L182.344 296.4L166.217 310.498L173.971 347.122C173.594 349.953 174.268 352.823 175.866 355.189C177.464 357.555 179.874 359.253 182.64 359.961C185.405 360.669 188.335 360.338 190.873 359.03C193.411 357.722 195.381 355.529 196.41 352.866V352.866Z" fill="#FFB8B8"/>
<path d="M133.225 171.928L128.854 172.765L126.212 176.092C126.212 176.092 121.937 192.858 126.807 204.575C131.676 216.292 166.883 334.072 166.883 334.072L192.171 334.805L172.471 239.312L133.225 171.928Z" fill="#3785BA"/>
<path d="M232.916 346.875C231.751 345.642 230.871 344.17 230.337 342.56C229.802 340.951 229.628 339.244 229.825 337.559C230.022 335.875 230.585 334.255 231.476 332.812C232.367 331.369 233.564 330.139 234.982 329.209L224.914 289.236L245.135 296.304L251.595 333.179C253 335.664 253.445 338.579 252.845 341.37C252.245 344.161 250.641 346.635 248.339 348.324C246.036 350.012 243.195 350.797 240.352 350.53C237.51 350.263 234.864 348.962 232.916 346.875V346.875Z" fill="#FFB8B8"/>
<path d="M224.083 155.425L228.451 154.572L232.143 156.674C232.143 156.674 242.361 170.637 242.211 183.325C242.062 196.013 253.309 318.427 253.309 318.427L230.118 328.536L212.791 232.583L224.083 155.425Z" fill="#3785BA"/>
</g>
<defs>
<clipPath id="clip0">
<rect width="872.699" height="590.182" fill="white"/>
</clipPath>
</defs>
</svg>
