<svg width="733" height="586" viewBox="0 0 733 586" fill="none" xmlns="http://www.w3.org/2000/svg">
<path d="M121.519 169.421C119.804 169.594 118.08 169.634 116.359 169.541C116.066 169.509 115.772 169.594 115.54 169.776C115.309 169.959 115.158 170.225 115.121 170.518L111.83 195.203C111.577 196.995 110.843 198.685 109.707 200.093C108.77 201.214 108.074 202.516 107.661 203.917C107.248 205.318 107.128 206.79 107.307 208.239V250.172C107.307 250.172 107.095 255.763 111.391 255.763C116.532 256.409 121.735 256.409 126.876 255.763C126.876 255.763 130.315 255.112 130.315 249.952V208.664C130.578 207.223 130.524 205.743 130.157 204.326C129.791 202.908 129.12 201.587 128.192 200.454C127.094 199.041 126.384 197.365 126.133 195.592L122.715 170.391C122.676 170.107 122.531 169.849 122.308 169.669C122.086 169.489 121.804 169.4 121.519 169.421V169.421Z" fill="white"/>
<path d="M119.117 256.952C116.519 256.953 113.923 256.791 111.344 256.469C110.768 256.483 110.196 256.377 109.662 256.159C109.129 255.94 108.646 255.614 108.245 255.2C106.497 253.385 106.594 250.275 106.599 250.143L106.599 208.281C106.416 206.742 106.55 205.182 106.99 203.696C107.431 202.21 108.17 200.829 109.163 199.639C110.214 198.331 110.894 196.764 111.128 195.103L114.418 170.423C114.482 169.948 114.729 169.517 115.105 169.221C115.482 168.925 115.959 168.787 116.435 168.836C118.106 168.925 119.782 168.884 121.447 168.716L121.466 168.714C121.931 168.68 122.391 168.825 122.753 169.118C123.115 169.411 123.352 169.831 123.415 170.293L126.833 195.496C127.068 197.145 127.729 198.703 128.75 200.019C129.734 201.221 130.446 202.621 130.838 204.124C131.23 205.626 131.293 207.196 131.022 208.726V249.951C131.022 255.631 127.047 256.449 127.007 256.457C124.39 256.787 121.755 256.952 119.117 256.952V256.952ZM116.262 170.244C116.157 170.239 116.053 170.273 115.972 170.34C115.891 170.407 115.837 170.502 115.822 170.606L112.53 195.295C112.26 197.216 111.474 199.027 110.256 200.537C109.381 201.585 108.73 202.801 108.344 204.111C107.957 205.42 107.843 206.795 108.009 208.151L108.014 208.238V250.17C108.013 250.222 107.938 252.845 109.268 254.222C109.543 254.502 109.875 254.721 110.24 254.864C110.606 255.008 110.998 255.072 111.39 255.054L111.478 255.059C116.561 255.697 121.704 255.697 126.787 255.059C126.854 255.043 129.607 254.415 129.607 249.951L129.618 208.536C129.863 207.196 129.814 205.819 129.473 204.501C129.132 203.183 128.508 201.954 127.644 200.902C126.465 199.387 125.702 197.591 125.431 195.69L122.012 170.484C121.997 170.381 121.944 170.287 121.864 170.22C121.783 170.154 121.68 170.12 121.576 170.125C119.83 170.3 118.073 170.34 116.32 170.247C116.301 170.245 116.281 170.244 116.262 170.244H116.262Z" fill="#1E4470"/>
<path d="M116.324 208.988H121.54C123.614 208.988 125.603 209.812 127.07 211.279C128.536 212.745 129.36 214.734 129.36 216.809V236.434C129.36 238.508 128.536 240.497 127.07 241.963C125.603 243.43 123.614 244.254 121.54 244.254H116.324C114.25 244.254 112.261 243.43 110.794 241.963C109.328 240.497 108.504 238.508 108.504 236.434V216.809C108.504 215.782 108.706 214.765 109.099 213.816C109.492 212.867 110.068 212.005 110.794 211.279C111.521 210.553 112.383 209.977 113.332 209.584C114.28 209.191 115.297 208.988 116.324 208.988V208.988Z" fill="#3785BA"/>
<path d="M20.4327 569.437H37.4377L45.5277 503.846L20.4297 503.847L20.4327 569.437Z" fill="#9F616A"/>
<path d="M16.0938 563.886L49.5827 563.885H49.5841C55.2441 563.885 60.6723 566.134 64.6746 570.136C68.6769 574.138 70.9255 579.566 70.9259 585.226V585.92L16.0948 585.922L16.0938 563.886Z" fill="#7EAFD0"/>
<path d="M9.74084 335.162C9.74084 335.162 2.37099 343.493 14.5743 375.967L12.4248 554.03L51.972 553.259L60.6649 466.401L76.492 339.651L9.74084 335.162Z" fill="#7EAFD0"/>
<path d="M90.0562 359.782L89.6233 359.715C39.0315 352 0.853988 344.603 0.474258 344.529L0 344.437L13.2623 312.18C13.1575 308.809 10.2867 214.156 15.7823 186.962C21.1025 160.636 46.1799 156.322 49.0375 155.916L51.907 146.408L88.1584 165.272L94.4809 187.032L95.7652 246.671L90.0562 359.782Z" fill="#3785BA"/>
<path d="M111.89 237.031C110.258 237.031 108.643 237.368 107.147 238.023C105.651 238.677 104.307 239.633 103.199 240.832H42.2666L19.9473 245.583L23.6118 273.847L103.008 256.772C104.322 258.256 105.988 259.388 107.852 260.063C109.717 260.739 111.72 260.936 113.681 260.638C115.641 260.34 117.495 259.555 119.074 258.356C120.654 257.157 121.907 255.581 122.721 253.773C123.535 251.965 123.882 249.982 123.732 248.004C123.582 246.027 122.939 244.119 121.862 242.454C120.785 240.789 119.308 239.421 117.567 238.474C115.825 237.526 113.873 237.03 111.89 237.031H111.89Z" fill="#9F616A"/>
<path d="M112.418 135.722C120.197 121.491 114.967 103.648 100.736 95.869C86.505 88.0896 68.6621 93.3197 60.8827 107.551C53.1033 121.782 58.3334 139.625 72.5645 147.404C86.7955 155.184 104.638 149.953 112.418 135.722Z" fill="#9F616A"/>
<path d="M59.0324 98.1612L57.6087 95.2958L64.7722 91.7367C64.7722 91.7367 72.6747 78.8785 86.9746 82.4919C101.274 86.1053 107.708 88.2679 107.708 88.2679L114.854 91.8632L111.267 95.4314L117.701 97.5941L113.403 99.7295L118.404 102.604L115.712 117.339C115.712 117.339 111.24 106.163 102.644 110.434C94.0479 114.705 78.3243 108.226 78.3243 108.226L64.6639 134.663C64.6639 134.663 61.8457 125.396 56.8211 127.867C56.8211 127.867 43.9846 107.424 59.0324 98.1612Z" fill="#2F2E41"/>
<path d="M24.0014 279.144L17.0332 258.417L15.3477 189.323L18.3167 179.52C19.3853 175.992 21.1553 172.715 23.5205 169.887C25.8857 167.059 28.7975 164.738 32.0814 163.063C35.3652 161.387 38.9535 160.392 42.6313 160.136C46.3091 159.881 50.0005 160.37 53.4845 161.576C56.9685 162.781 60.1733 164.677 62.9069 167.151C65.6404 169.625 67.8465 172.625 69.3927 175.971C70.939 179.318 71.7938 182.942 71.9057 186.627C72.0177 190.312 71.3846 193.982 70.0444 197.416L54.1308 238.195L54.9397 239.765L89.4165 239.486L101.663 261.53L24.0014 279.144Z" fill="#3785BA"/>
<path d="M368.948 270.628C370.234 269.762 371.315 268.623 372.115 267.294C372.914 265.964 373.412 264.476 373.573 262.933C373.735 261.39 373.556 259.83 373.05 258.364C372.544 256.898 371.722 255.56 370.643 254.446L387.637 220.783L368.172 223.041L355.018 254.661C353.266 256.598 352.286 259.111 352.262 261.722C352.239 264.334 353.174 266.864 354.891 268.832C356.608 270.8 358.987 272.07 361.578 272.401C364.169 272.732 366.791 272.101 368.948 270.628V270.628Z" fill="#FFB7B7"/>
<path d="M505.241 509.074L489.925 509.073L482.639 449.998L505.243 450L505.241 509.074Z" fill="#FFB7B7"/>
<path d="M509.146 523.92L459.762 523.918V523.293C459.762 518.196 461.787 513.307 465.392 509.702C468.997 506.098 473.886 504.073 478.983 504.072H478.984L509.146 504.073L509.146 523.92Z" fill="#7EAFD0"/>
<path d="M421.54 509.074L406.224 509.073L398.938 449.998L421.543 450L421.54 509.074Z" fill="#FFB7B7"/>
<path d="M421.698 523.92L372.314 523.918V523.293C372.315 518.196 374.34 513.307 377.945 509.702C381.549 506.098 386.438 504.073 391.536 504.072H391.537L421.699 504.073L421.698 523.92Z" fill="#7EAFD0"/>
<path d="M420.285 259.572L405.294 294.108L392.928 492.614L424.159 491.365L432.689 396.736L459.002 312.454L474.129 406.415L480.376 488.866L506.218 489.985L516.516 259.572H420.285Z" fill="#7EAFD0"/>
<path d="M495.22 89.1543L451.771 90.2411L426.263 103.336L424.863 199.95L408.953 266.654C408.953 266.654 508.357 273.496 522.099 263.502L505.859 187.297L527.64 104.942L495.22 89.1543Z" fill="#3785BA"/>
<path d="M432.972 104.939L428.927 102.207C428.927 102.207 412.17 107.229 407.217 129.573C407.217 129.573 403.427 140.784 401.764 148.491C399.857 157.331 357.738 238.532 357.738 238.532L382.955 245.767L429.187 171.001L432.972 104.939Z" fill="#3785BA"/>
<path d="M526.96 283.017C525.962 281.829 525.237 280.437 524.835 278.939C524.434 277.44 524.366 275.872 524.636 274.345C524.906 272.817 525.508 271.367 526.399 270.097C527.29 268.827 528.448 267.768 529.793 266.995L522.74 229.951L540.828 237.489L544.752 271.511C545.902 273.856 546.152 276.541 545.454 279.058C544.757 281.575 543.16 283.748 540.967 285.167C538.774 286.585 536.137 287.15 533.555 286.753C530.973 286.357 528.627 285.028 526.96 283.017V283.017Z" fill="#FFB7B7"/>
<path d="M521.102 106.096L525.743 104.586C525.743 104.586 540.465 114.034 539.065 136.878C539.065 136.878 539.616 148.699 539.089 156.566C538.485 165.589 546.585 255.256 546.585 255.256H520.351L509.107 174.055L521.102 106.096Z" fill="#3785BA"/>
<path d="M505.885 48.6214C505.885 54.5785 504.119 60.4018 500.809 65.3549C497.5 70.308 492.796 74.1685 487.292 76.4482C481.789 78.7279 475.733 79.3243 469.89 78.1621C464.047 77 458.681 74.1314 454.468 69.9191C450.256 65.7068 447.387 60.3401 446.225 54.4975C445.063 48.6549 445.66 42.5989 447.939 37.0953C450.219 31.5917 454.079 26.8877 459.032 23.5781C463.986 20.2685 469.809 18.5021 475.766 18.502V18.502C483.734 18.4821 491.384 21.6284 497.032 27.2488C502.681 32.8691 505.865 40.5031 505.885 48.4714C505.885 48.5214 505.885 48.5714 505.885 48.6214Z" fill="#FFB7B7"/>
<path d="M445.748 8.16502C449.276 0.577923 456.104 2.07797 462.075 4.64978C469.638 2.9724 476.83 -2.04946 484.977 0.920439C493.003 12.5936 519.95 9.15915 514.217 28.1631C514.209 32.7168 522.785 30.0662 521.288 37.5242C525.831 51.8771 504.889 79.0592 492.867 73.3351C495.84 67.8858 502.633 55.5088 492.331 54.2812C470.17 74.9008 490.044 15.0168 462.2 32.432C452.981 40.8693 440.359 16.6044 445.748 8.16502Z" fill="#2F2E41"/>
<path d="M532.232 286.02C533.666 286.309 535.147 286.279 536.569 285.934C537.99 285.588 539.319 284.935 540.461 284.02C541.604 283.105 542.531 281.951 543.179 280.639C543.827 279.327 544.18 277.889 544.212 276.426L619.839 205.244L602.822 191.67L533.706 266.088C531.244 266.197 528.909 267.205 527.141 268.922C525.374 270.638 524.297 272.943 524.115 275.4C523.934 277.856 524.66 280.295 526.155 282.252C527.651 284.21 529.813 285.55 532.232 286.02V286.02Z" fill="#9F616A"/>
<path d="M609.123 216.75L594.41 199.507C593.991 199.017 593.683 198.442 593.507 197.821C593.331 197.201 593.29 196.55 593.388 195.912C593.486 195.275 593.72 194.666 594.075 194.127C594.429 193.589 594.896 193.133 595.442 192.79L614.597 180.799C617.119 178.671 620.382 177.63 623.671 177.905C626.96 178.179 630.005 179.746 632.14 182.263C634.274 184.779 635.324 188.04 635.058 191.329C634.793 194.619 633.233 197.668 630.722 199.809L615.919 216.787C615.495 217.273 614.971 217.662 614.383 217.928C613.795 218.193 613.157 218.328 612.512 218.325C611.867 218.321 611.231 218.179 610.646 217.907C610.061 217.635 609.542 217.241 609.123 216.75V216.75Z" fill="#CBCBCB"/>
<path d="M569.557 567.998L551.067 567.997L542.27 496.676L569.56 496.677L569.557 567.998Z" fill="#9F616A"/>
<path d="M574.272 585.922L514.65 585.919V585.165C514.651 579.011 517.096 573.108 521.448 568.756C525.8 564.404 531.702 561.959 537.857 561.959H537.858L574.273 561.96L574.272 585.922Z" fill="#7EAFD0"/>
<path d="M717.365 567.998L698.875 567.997L690.078 496.676L717.369 496.677L717.365 567.998Z" fill="#9F616A"/>
<path d="M722.081 585.922L662.459 585.919V585.165C662.459 579.011 664.905 573.108 669.257 568.756C673.609 564.404 679.511 561.959 685.666 561.959H685.667L722.082 561.96L722.081 585.922Z" fill="#7EAFD0"/>
<path d="M667.628 254.556L686.267 185.693L662.087 172.102H628.336L615.209 186.146C615.209 186.146 593.277 201.405 598.585 218.312L607.149 256.821L594.051 317.982L528.061 409.498L512.439 499.39L573.931 515.511L640.426 384.58L672.665 529.555L732.643 526.538L711.976 350.757C711.976 350.757 706.084 297.207 675.202 263.772L667.628 254.556Z" fill="#7EAFD0"/>
<path d="M706.12 315.486C707.16 314.456 707.961 313.21 708.467 311.837C708.973 310.464 709.172 308.997 709.05 307.539C708.927 306.081 708.487 304.667 707.759 303.398C707.031 302.128 706.034 301.034 704.838 300.191L690.376 202.627L669.619 209.181L690.397 303.146C689.115 305.25 688.65 307.751 689.088 310.175C689.527 312.599 690.84 314.778 692.778 316.299C694.716 317.82 697.145 318.578 699.604 318.428C702.063 318.278 704.381 317.231 706.12 315.486V315.486Z" fill="#9F616A"/>
<path d="M693.949 217.939L671.432 220.536C670.791 220.61 670.142 220.545 669.529 220.345C668.915 220.145 668.352 219.816 667.878 219.379C667.403 218.942 667.029 218.408 666.779 217.814C666.53 217.219 666.411 216.577 666.432 215.933L667.161 193.346C666.802 190.066 667.758 186.778 669.82 184.201C671.882 181.625 674.881 179.972 678.16 179.603C681.439 179.235 684.73 180.182 687.312 182.236C689.894 184.291 691.556 187.285 691.934 190.563L697.771 212.319C697.937 212.942 697.968 213.594 697.861 214.23C697.753 214.866 697.509 215.471 697.147 216.004C696.784 216.538 696.311 216.987 695.759 217.321C695.207 217.654 694.59 217.866 693.949 217.939V217.939Z" fill="#CBCBCB"/>
<path d="M607.467 152.52V123.505C607.467 113.193 611.563 103.304 618.854 96.0127C626.146 88.7213 636.035 84.625 646.347 84.625C656.658 84.625 666.547 88.7213 673.839 96.0127C681.13 103.304 685.227 113.193 685.227 123.505V152.52C685.225 153.904 684.674 155.232 683.695 156.211C682.716 157.19 681.389 157.741 680.004 157.742H612.689C611.305 157.741 609.977 157.19 608.998 156.211C608.019 155.232 607.468 153.904 607.467 152.52V152.52Z" fill="#2F2E41"/>
<path d="M652.032 153.572C665.846 146.021 670.922 128.701 663.371 114.887C655.82 101.073 638.5 95.9965 624.686 103.548C610.872 111.099 605.795 128.419 613.347 142.233C620.898 156.047 638.218 161.123 652.032 153.572Z" fill="#9F616A"/>
<path d="M598.27 125.826C598.279 117.672 601.522 109.854 607.288 104.089C613.054 98.3228 620.871 95.0795 629.025 95.0703H634.828C642.983 95.0795 650.8 98.3228 656.566 104.089C662.332 109.854 665.575 117.672 665.584 125.826V126.406H653.32L649.138 114.694L648.301 126.406H641.963L639.853 120.497L639.431 126.406H598.27V125.826Z" fill="#2F2E41"/>
<path d="M635.553 161.004C634.977 160.224 634.634 159.298 634.561 158.331C634.489 157.365 634.691 156.398 635.144 155.541C641.294 143.844 649.904 122.232 638.475 108.903L637.654 107.945H670.832V157.758L640.692 163.076C640.387 163.13 640.078 163.157 639.768 163.157C638.945 163.157 638.134 162.962 637.401 162.588C636.669 162.213 636.035 161.671 635.553 161.004V161.004Z" fill="#2F2E41"/>
<path d="M330.599 187.528C330.179 187.961 329.793 188.426 329.445 188.919L275.386 187.596L269.079 176.072L250.443 183.317L259.625 204.803C260.367 206.539 261.652 207.987 263.287 208.931C264.922 209.874 266.819 210.262 268.693 210.035L329.77 202.657C331.21 204.481 333.172 205.823 335.394 206.505C337.617 207.187 339.994 207.176 342.209 206.473C344.425 205.771 346.374 204.411 347.798 202.574C349.222 200.737 350.053 198.51 350.18 196.189C350.307 193.868 349.725 191.564 348.511 189.582C347.296 187.6 345.507 186.035 343.381 185.095C341.256 184.155 338.894 183.884 336.611 184.319C334.328 184.753 332.231 185.873 330.599 187.528H330.599Z" fill="#FFB7B7"/>
<path d="M154.374 515.836H172.149L180.605 447.275L154.371 447.276L154.374 515.836Z" fill="#FFB7B7"/>
<path d="M149.84 510.033L184.845 510.031H184.847C190.763 510.032 196.437 512.382 200.621 516.565C204.804 520.749 207.155 526.423 207.155 532.339V533.064L149.841 533.066L149.84 510.033Z" fill="#7EAFD0"/>
<path d="M315.779 515.441L332.125 508.458L312.968 442.086L288.844 452.393L315.779 515.441Z" fill="#FFB7B7"/>
<path d="M309.328 511.886L341.519 498.133L341.52 498.133C346.961 495.809 353.102 495.742 358.593 497.945C364.084 500.149 368.474 504.444 370.799 509.884L371.083 510.551L318.377 533.067L309.328 511.886Z" fill="#7EAFD0"/>
<path d="M240.774 202.382L242.059 223.211L204.488 227.232L165.174 231.439L176.745 199.811L240.774 202.382Z" fill="#FFB7B7"/>
<path d="M242.093 209.854C241.667 209.687 199.23 193.179 173.164 206.677L172.523 207.009L167.323 181.414L164.359 126.384L183.64 117.273L188.949 105.382L225.108 103.242L232.539 113.433L257.838 121.724L242.718 210.101L242.093 209.854Z" fill="#E4E4E4"/>
<path d="M243.422 160.184L247.894 125.041L258.078 121.941L258.25 122.005C258.485 122.091 264.02 124.209 265.535 131.872C266.989 139.227 277.941 184.995 278.052 185.457L278.161 185.914L252.428 196.21L243.422 160.184Z" fill="#E4E4E4"/>
<path d="M302.539 503.392L336.793 496.365L282.044 345.293L263.307 293.764C263.307 293.764 251.422 252.449 246.053 236.461L242.813 215.008L166.105 223.498C166.105 223.498 144.681 254.962 151.19 306.245L148.246 499L182.501 500.757L211.193 306.354L261.55 412.924C261.55 412.924 277.422 458.401 288.778 468.258L302.539 503.392Z" fill="#7EAFD0"/>
<path d="M196.867 230.653C196.263 230.639 195.66 230.672 195.062 230.753L159.277 190.212L163.439 177.752L145.456 169.012L135.943 190.353C135.175 192.078 134.986 194.004 135.406 195.845C135.826 197.685 136.831 199.34 138.271 200.56L185.209 240.331C184.851 242.628 185.2 244.979 186.211 247.072C187.222 249.165 188.846 250.9 190.868 252.048C192.889 253.195 195.212 253.7 197.527 253.495C199.842 253.29 202.04 252.385 203.829 250.9C205.617 249.416 206.911 247.422 207.539 245.184C208.166 242.946 208.097 240.57 207.342 238.372C206.586 236.174 205.179 234.258 203.308 232.879C201.436 231.5 199.19 230.724 196.867 230.653V230.653Z" fill="#FFB7B7"/>
<path d="M142.217 175.017L156.207 135.168C157.779 130.47 159.749 127.617 162.063 126.685C162.518 126.48 163.012 126.372 163.512 126.367C164.011 126.363 164.507 126.462 164.966 126.658L171.239 134.584L177.061 159.042L162.134 194.156L142.217 175.017Z" fill="#E4E4E4"/>
<path d="M234.818 94.9976H173.402C172.138 94.9962 170.927 94.4937 170.034 93.6004C169.141 92.7071 168.638 91.4959 168.637 90.2326V63.7601C168.637 54.3521 172.374 45.3294 179.027 38.6769C185.679 32.0244 194.702 28.2871 204.11 28.2871C213.518 28.2871 222.54 32.0244 229.193 38.6769C235.845 45.3294 239.583 54.3521 239.583 63.7601V90.2325C239.581 91.4959 239.079 92.7071 238.186 93.6004C237.292 94.4937 236.081 94.9962 234.818 94.9976V94.9976Z" fill="#2F2E41"/>
<path d="M211.398 94.3804C225.762 94.3804 237.406 82.7364 237.406 68.3728C237.406 54.0092 225.762 42.3652 211.398 42.3652C197.035 42.3652 185.391 54.0092 185.391 68.3728C185.391 82.7364 197.035 94.3804 211.398 94.3804Z" fill="#FFB7B7"/>
<path d="M247.975 66.4066H210.42L210.035 61.0149L208.11 66.4066H202.327L201.564 55.7204L197.748 66.4066H186.559V65.8772C186.567 58.4376 189.526 51.3051 194.787 46.0445C200.047 40.7839 207.18 37.8248 214.619 37.8164H219.914C227.353 37.8248 234.486 40.7839 239.746 46.0445C245.007 51.3051 247.966 58.4376 247.975 65.8772L247.975 66.4066Z" fill="#2F2E41"/>
<path d="M210.112 99.9386C209.829 99.9383 209.547 99.9134 209.269 99.8641L181.77 95.0122V49.5645H212.041L211.291 50.4383C200.864 62.599 208.72 82.3179 214.33 92.9895C214.744 93.7711 214.928 94.6536 214.862 95.5354C214.796 96.4172 214.483 97.2625 213.957 97.9738C213.517 98.5821 212.939 99.0774 212.271 99.4189C211.603 99.7604 210.863 99.9386 210.112 99.9386V99.9386Z" fill="#2F2E41"/>
<path d="M539.518 209.181C537.804 209.353 536.08 209.394 534.359 209.301C534.066 209.269 533.772 209.353 533.54 209.536C533.309 209.719 533.158 209.985 533.121 210.278L529.83 234.963C529.577 236.755 528.843 238.445 527.707 239.853C526.77 240.974 526.074 242.276 525.661 243.677C525.248 245.078 525.128 246.549 525.307 247.999V289.931C525.307 289.931 525.095 295.522 529.391 295.522C534.532 296.168 539.735 296.168 544.876 295.522C544.876 295.522 548.315 294.871 548.315 289.712V248.424C548.578 246.983 548.524 245.503 548.157 244.085C547.791 242.668 547.12 241.347 546.192 240.214C545.094 238.801 544.384 237.125 544.133 235.352L540.715 210.15C540.676 209.867 540.53 209.609 540.308 209.429C540.086 209.249 539.804 209.16 539.518 209.181V209.181Z" fill="white"/>
<path d="M537.117 296.714C534.519 296.714 531.923 296.553 529.344 296.231C528.768 296.244 528.196 296.139 527.662 295.92C527.129 295.702 526.646 295.376 526.245 294.962C524.497 293.146 524.594 290.037 524.599 289.905L524.599 248.043C524.416 246.504 524.55 244.943 524.99 243.457C525.431 241.971 526.17 240.591 527.163 239.4C528.214 238.093 528.894 236.526 529.128 234.865L532.418 210.185C532.482 209.71 532.729 209.279 533.105 208.983C533.482 208.687 533.959 208.549 534.435 208.598C536.106 208.686 537.782 208.646 539.447 208.477L539.466 208.476C539.931 208.442 540.391 208.586 540.753 208.88C541.115 209.173 541.352 209.593 541.415 210.055L544.833 235.258C545.068 236.906 545.729 238.465 546.75 239.78C547.734 240.982 548.446 242.383 548.838 243.885C549.23 245.388 549.293 246.958 549.022 248.487V289.713C549.022 295.392 545.047 296.211 545.007 296.219C542.39 296.548 539.755 296.714 537.117 296.714V296.714ZM534.262 210.005C534.157 210 534.053 210.035 533.972 210.101C533.891 210.168 533.837 210.263 533.822 210.367L530.53 235.057C530.26 236.977 529.474 238.789 528.256 240.298C527.381 241.347 526.731 242.563 526.344 243.873C525.957 245.182 525.843 246.557 526.009 247.913L526.014 248V289.932C526.013 289.984 525.938 292.606 527.268 293.984C527.543 294.264 527.875 294.483 528.24 294.626C528.606 294.769 528.998 294.834 529.39 294.816L529.478 294.821C534.561 295.459 539.704 295.459 544.787 294.821C544.854 294.804 547.607 294.177 547.607 289.713L547.618 248.298C547.863 246.958 547.814 245.581 547.473 244.263C547.132 242.944 546.507 241.716 545.644 240.663C544.465 239.149 543.702 237.352 543.431 235.452L540.012 210.246C539.997 210.142 539.944 210.048 539.864 209.982C539.783 209.916 539.68 209.882 539.576 209.887C537.83 210.062 536.073 210.102 534.32 210.008C534.301 210.006 534.282 210.005 534.262 210.005V210.005Z" fill="#1E4470"/>
<path d="M534.324 248.75H539.54C541.614 248.75 543.603 249.574 545.07 251.041C546.536 252.507 547.36 254.496 547.36 256.57V276.195C547.36 278.269 546.536 280.259 545.07 281.725C543.603 283.192 541.614 284.016 539.54 284.016H534.324C532.25 284.016 530.261 283.192 528.794 281.725C527.328 280.259 526.504 278.269 526.504 276.195V256.57C526.504 254.496 527.328 252.507 528.794 251.041C530.261 249.574 532.25 248.75 534.324 248.75V248.75Z" fill="#3785BA"/>
<path d="M362.518 175.181C360.804 175.353 359.08 175.394 357.359 175.301C357.066 175.269 356.772 175.353 356.54 175.536C356.309 175.719 356.158 175.985 356.121 176.278L352.83 200.963C352.577 202.755 351.843 204.445 350.707 205.853C349.77 206.974 349.074 208.276 348.661 209.677C348.248 211.078 348.128 212.549 348.307 213.999V255.931C348.307 255.931 348.095 261.522 352.391 261.522C357.532 262.168 362.735 262.168 367.876 261.522C367.876 261.522 371.315 260.871 371.315 255.712V214.424C371.578 212.983 371.524 211.503 371.157 210.085C370.791 208.668 370.12 207.347 369.192 206.214C368.094 204.801 367.384 203.125 367.133 201.352L363.715 176.15C363.676 175.867 363.53 175.609 363.308 175.429C363.086 175.249 362.804 175.16 362.518 175.181V175.181Z" fill="white"/>
<path d="M360.117 262.714C357.519 262.714 354.923 262.553 352.344 262.231C351.768 262.244 351.196 262.139 350.662 261.92C350.129 261.702 349.646 261.376 349.245 260.962C347.497 259.146 347.594 256.037 347.599 255.905L347.599 214.043C347.416 212.504 347.55 210.943 347.99 209.457C348.431 207.971 349.17 206.591 350.163 205.4C351.214 204.093 351.894 202.526 352.128 200.865L355.418 176.185C355.482 175.71 355.729 175.279 356.105 174.983C356.482 174.687 356.959 174.549 357.435 174.598C359.106 174.686 360.782 174.646 362.447 174.477L362.466 174.476C362.931 174.442 363.391 174.586 363.753 174.88C364.115 175.173 364.352 175.593 364.415 176.055L367.833 201.258C368.068 202.906 368.729 204.465 369.75 205.78C370.734 206.982 371.446 208.383 371.838 209.885C372.23 211.388 372.293 212.958 372.022 214.487V255.713C372.022 261.392 368.047 262.211 368.007 262.219C365.39 262.548 362.755 262.714 360.117 262.714V262.714ZM357.262 176.005C357.157 176 357.053 176.035 356.972 176.101C356.891 176.168 356.837 176.263 356.822 176.367L353.53 201.057C353.26 202.977 352.474 204.789 351.256 206.298C350.381 207.347 349.731 208.563 349.344 209.873C348.957 211.182 348.843 212.557 349.009 213.913L349.014 214V255.932C349.013 255.984 348.938 258.606 350.268 259.984C350.543 260.264 350.875 260.483 351.24 260.626C351.606 260.769 351.998 260.834 352.39 260.816L352.478 260.821C357.561 261.459 362.704 261.459 367.787 260.821C367.854 260.804 370.607 260.177 370.607 255.713L370.618 214.298C370.863 212.958 370.814 211.581 370.473 210.263C370.132 208.944 369.507 207.716 368.644 206.663C367.465 205.149 366.702 203.352 366.431 201.452L363.012 176.246C362.997 176.142 362.944 176.048 362.864 175.982C362.783 175.916 362.68 175.882 362.576 175.887C360.83 176.062 359.073 176.102 357.32 176.008C357.301 176.006 357.282 176.005 357.262 176.005V176.005Z" fill="#1E4470"/>
<path d="M357.324 214.75H362.54C364.614 214.75 366.603 215.574 368.07 217.041C369.536 218.507 370.36 220.496 370.36 222.57V242.195C370.36 244.269 369.536 246.259 368.07 247.725C366.603 249.192 364.614 250.016 362.54 250.016H357.324C355.25 250.016 353.261 249.192 351.794 247.725C350.328 246.259 349.504 244.269 349.504 242.195V222.57C349.504 220.496 350.328 218.507 351.794 217.041C353.261 215.574 355.25 214.75 357.324 214.75V214.75Z" fill="#3785BA"/>
<path d="M332.518 139.181C330.804 139.353 329.08 139.394 327.359 139.301C327.066 139.269 326.772 139.353 326.54 139.536C326.309 139.719 326.158 139.985 326.121 140.278L322.83 164.963C322.577 166.755 321.843 168.445 320.707 169.853C319.77 170.974 319.074 172.276 318.661 173.677C318.248 175.078 318.128 176.549 318.307 177.999V219.931C318.307 219.931 318.095 225.522 322.391 225.522C327.532 226.168 332.735 226.168 337.876 225.522C337.876 225.522 341.315 224.871 341.315 219.712V178.424C341.578 176.983 341.524 175.503 341.157 174.085C340.791 172.668 340.12 171.347 339.192 170.214C338.094 168.801 337.384 167.125 337.133 165.352L333.715 140.15C333.676 139.867 333.53 139.609 333.308 139.429C333.086 139.249 332.804 139.16 332.518 139.181V139.181Z" fill="white"/>
<path d="M330.117 226.714C327.519 226.714 324.923 226.553 322.344 226.231C321.768 226.244 321.196 226.139 320.662 225.92C320.129 225.702 319.646 225.376 319.245 224.962C317.497 223.146 317.594 220.037 317.599 219.905L317.599 178.043C317.416 176.504 317.55 174.943 317.99 173.457C318.431 171.971 319.17 170.591 320.163 169.4C321.214 168.093 321.894 166.526 322.128 164.865L325.418 140.185C325.482 139.71 325.729 139.279 326.105 138.983C326.482 138.687 326.959 138.549 327.435 138.598C329.106 138.686 330.782 138.646 332.447 138.477L332.466 138.476C332.931 138.442 333.391 138.586 333.753 138.88C334.115 139.173 334.352 139.593 334.415 140.055L337.833 165.258C338.068 166.906 338.729 168.465 339.75 169.78C340.734 170.982 341.446 172.383 341.838 173.885C342.23 175.388 342.293 176.958 342.022 178.487V219.713C342.022 225.392 338.047 226.211 338.007 226.219C335.39 226.548 332.755 226.714 330.117 226.714V226.714ZM327.262 140.005C327.157 140 327.053 140.035 326.972 140.101C326.891 140.168 326.837 140.263 326.822 140.367L323.53 165.057C323.26 166.977 322.474 168.789 321.256 170.298C320.381 171.347 319.731 172.563 319.344 173.873C318.957 175.182 318.843 176.557 319.009 177.913L319.014 178V219.932C319.013 219.984 318.938 222.606 320.268 223.984C320.543 224.264 320.875 224.483 321.24 224.626C321.606 224.769 321.998 224.834 322.39 224.816L322.478 224.821C327.561 225.459 332.704 225.459 337.787 224.821C337.854 224.804 340.607 224.177 340.607 219.713L340.618 178.298C340.863 176.958 340.814 175.581 340.473 174.263C340.132 172.944 339.507 171.716 338.644 170.663C337.465 169.149 336.702 167.352 336.431 165.452L333.012 140.246C332.997 140.142 332.944 140.048 332.864 139.982C332.783 139.916 332.68 139.882 332.576 139.887C330.83 140.062 329.073 140.102 327.32 140.008C327.301 140.006 327.282 140.005 327.262 140.005V140.005Z" fill="#1E4470"/>
<path d="M327.324 178.75H332.54C334.614 178.75 336.603 179.574 338.07 181.041C339.536 182.507 340.36 184.496 340.36 186.57V206.195C340.36 208.269 339.536 210.259 338.07 211.725C336.603 213.192 334.614 214.016 332.54 214.016H327.324C325.25 214.016 323.261 213.192 321.794 211.725C320.328 210.259 319.504 208.269 319.504 206.195V186.57C319.504 184.496 320.328 182.507 321.794 181.041C323.261 179.574 325.25 178.75 327.324 178.75Z" fill="#3785BA"/>
</svg>
