<svg width="864" height="565" viewBox="0 0 864 565" fill="none" xmlns="http://www.w3.org/2000/svg">
<g clip-path="url(#clip0_1221:1503)">
<path d="M116.397 464.942C116.845 481.713 119.652 498.338 124.735 514.325C124.847 514.696 124.972 515.062 125.094 515.433H156.207C156.174 515.1 156.141 514.729 156.108 514.325C154.034 490.453 165.885 346.891 180.186 322.044C178.933 324.059 113.984 389.089 116.397 464.942Z" fill="#F0F0F0"/>
<path d="M118.731 514.325C118.991 514.696 119.262 515.067 119.539 515.433H142.881C142.704 515.117 142.499 514.746 142.261 514.325C138.405 507.36 126.992 486.533 116.399 464.942C105.018 441.74 94.5688 417.658 95.4488 408.941C95.1762 410.906 87.2979 470.834 118.731 514.325Z" fill="#F0F0F0"/>
<path d="M40.4282 487.753C40.6743 496.947 42.2131 506.061 44.9992 514.826C45.061 515.029 45.1295 515.23 45.1962 515.433H62.253C62.2351 515.251 62.2166 515.047 62.1986 514.826C61.0614 501.739 67.5585 423.036 75.3984 409.414C74.7116 410.519 39.1057 446.169 40.4282 487.753Z" fill="#F0F0F0"/>
<path d="M41.708 514.826C41.8507 515.029 41.9989 515.233 42.1509 515.433H54.9473C54.8503 515.26 54.7379 515.057 54.6075 514.826C52.4937 511.007 46.237 499.589 40.4294 487.753C34.1905 475.033 28.462 461.831 28.9444 457.053C28.7949 458.13 24.4759 490.983 41.708 514.826Z" fill="#F0F0F0"/>
<path d="M201.553 487.753C201.799 496.947 203.338 506.061 206.124 514.826C206.186 515.029 206.255 515.23 206.321 515.433H223.378C223.36 515.251 223.342 515.047 223.324 514.826C222.186 501.739 228.684 423.036 236.523 409.414C235.837 410.519 200.231 446.169 201.553 487.753Z" fill="#F0F0F0"/>
<path d="M202.833 514.826C202.976 515.029 203.124 515.233 203.276 515.433H216.072C215.975 515.26 215.863 515.057 215.733 514.826C213.619 511.007 207.362 499.589 201.554 487.753C195.315 475.033 189.587 461.831 190.069 457.053C189.92 458.13 185.601 490.983 202.833 514.826Z" fill="#F0F0F0"/>
<path d="M509.55 498.628H493.149L485.347 435.304L509.553 435.305L509.55 498.628Z" fill="#FFB7B7"/>
<path d="M513.734 493.268L481.435 493.267H481.433C475.974 493.267 470.739 495.438 466.879 499.302C463.018 503.165 460.85 508.406 460.849 513.87V514.54L513.733 514.542L513.734 493.268Z" fill="#0086BF"/>
<path d="M598.352 498.628H581.951L574.149 435.304L598.355 435.305L598.352 498.628Z" fill="#FFB7B7"/>
<path d="M602.537 493.268L570.237 493.267H570.236C564.777 493.267 559.542 495.438 555.681 499.302C551.821 503.165 549.652 508.406 549.652 513.87V514.54L602.536 514.542L602.537 493.268Z" fill="#0086BF"/>
<path d="M605.035 211.63V378.825L600.806 486.762H565.92L554.292 283.587L531.034 367.186L516.233 484.645L473.947 482.529L502.49 211.63H605.035Z" fill="#7EAFD0"/>
<path d="M564.48 61.3658C550.467 61.3658 539.108 49.9953 539.108 35.969C539.108 21.9428 550.467 10.5723 564.48 10.5723C578.492 10.5723 589.852 21.9428 589.852 35.969C589.852 49.9953 578.492 61.3658 564.48 61.3658Z" fill="#FFB8B8"/>
<path d="M575.024 67.9814L581.779 75.1219L588.121 217.979L513.063 215.862L531.035 90.9955L546.892 75.784L554.938 67.9814H575.024Z" fill="#3785BA"/>
<path d="M587.064 83.5881L581.366 74.332L579.663 94.1701C579.663 94.1701 565.92 138.614 566.977 177.768C568.035 216.921 561.692 308.984 570.149 310.042C578.606 311.101 614.55 313.217 614.55 305.81C614.55 298.402 616.664 101.577 616.664 101.577L587.064 83.5881Z" fill="#1E4470"/>
<path d="M548.594 74.332L534.206 85.7045L502.491 97.3447C502.491 97.3447 502.491 232.794 496.148 264.54C489.805 296.286 478.176 299.46 492.976 300.519C507.777 301.577 506.719 296.286 506.719 296.286C506.719 296.286 496.148 243.376 509.891 232.794C523.634 222.212 550.063 160.836 547.949 126.974C545.834 93.1118 550.709 74.332 548.594 74.332Z" fill="#1E4470"/>
<path d="M588.483 43.9145C588.483 43.9145 586.327 40.1251 586.828 27.4659C587.329 14.8067 568.071 21.9666 551.979 20.7589C535.887 19.5513 539.293 41.8938 539.293 41.8938C539.293 41.8938 538.133 40.5657 535.647 29.7825C533.161 18.9994 538.805 8.25356 538.805 8.25356C540.467 -3.0775 549.425 0.554117 549.425 0.554117C545.111 2.23513 545.939 5.82951 545.939 5.82951C549.591 -0.579003 558.549 3.05264 558.549 3.05264C570.496 -4.45173 582.604 5.43058 582.604 5.43058C597.036 8.70928 588.572 20.1982 588.572 20.1982C603.087 27.5403 588.483 43.9145 588.483 43.9145Z" fill="#2F2E41"/>
<path d="M614.514 290.508C613.439 289.37 612.626 288.01 612.132 286.524C611.638 285.038 611.476 283.461 611.657 281.906C611.838 280.35 612.358 278.853 613.179 277.52C614.001 276.187 615.104 275.051 616.412 274.191L611.842 250.141L625.765 243.796L631.743 277.85C633.04 280.145 633.452 282.836 632.899 285.415C632.347 287.993 630.869 290.279 628.745 291.839C626.621 293.399 624 294.125 621.377 293.88C618.754 293.635 616.312 292.435 614.514 290.508Z" fill="#FFB7B7"/>
<path d="M611.378 101.577L614.185 100.07C614.185 100.07 629.35 105.81 628.292 110.042C627.235 114.275 636.75 262.423 633.578 267.714C630.407 273.005 605.035 268.772 605.035 268.772L611.378 101.577Z" fill="#1E4470"/>
<path d="M490.693 280.534C491.916 279.556 492.909 278.322 493.603 276.918C494.297 275.515 494.676 273.976 494.712 272.41C494.747 270.844 494.44 269.29 493.81 267.856C493.181 266.422 492.245 265.143 491.069 264.111L498.92 240.925L486.007 232.713L475.38 265.611C473.778 267.705 472.998 270.313 473.189 272.943C473.38 275.573 474.528 278.042 476.415 279.881C478.303 281.72 480.799 282.803 483.43 282.923C486.062 283.043 488.646 282.193 490.693 280.534V280.534Z" fill="#FFB7B7"/>
<path d="M503.085 260.32C503.085 260.32 477.372 260.998 474.963 255.319C472.553 249.639 502.454 104.234 501.992 99.8959C501.53 95.5574 517.342 91.9736 517.342 91.9736L519.914 93.8544L503.085 260.32Z" fill="#1E4470"/>
<path d="M389.441 266.863L405.36 188.782L412.353 131.111L427.846 141.143L425.706 204.696L400.978 270.543C401.773 272.059 402.099 273.776 401.917 275.478C401.734 277.179 401.049 278.788 399.951 280.099C398.852 281.41 397.389 282.364 395.747 282.841C394.105 283.317 392.358 283.294 390.729 282.774C389.1 282.255 387.663 281.262 386.599 279.922C385.535 278.583 384.894 276.957 384.756 275.251C384.617 273.545 384.989 271.837 385.824 270.343C386.658 268.85 387.917 267.638 389.441 266.863H389.441Z" fill="#FFB7B7"/>
<path d="M538.333 272.899L533.926 193.331L535.386 135.256L514.904 142.926L511.485 206.115L526.384 274.862C525.377 276.245 524.805 277.897 524.738 279.607C524.672 281.317 525.116 283.008 526.012 284.465C526.909 285.922 528.218 287.079 529.773 287.79C531.328 288.5 533.06 288.731 534.747 288.454C536.434 288.177 538 287.404 539.247 286.234C540.494 285.063 541.366 283.548 541.75 281.88C542.134 280.213 542.015 278.469 541.406 276.87C540.798 275.27 539.728 273.888 538.333 272.899Z" fill="#FFB7B7"/>
<path d="M495.436 504.233H484.971L479.992 463.826L495.438 463.827L495.436 504.233Z" fill="#FFB7B7"/>
<path d="M498.105 500.813L477.495 500.812H477.495C474.011 500.813 470.671 502.198 468.207 504.663C465.744 507.129 464.36 510.473 464.36 513.96V514.387L498.105 514.388L498.105 500.813Z" fill="#0086BF"/>
<path d="M455.797 499.598L445.454 501.199L434.361 462.03L449.627 459.667L455.797 499.598Z" fill="#FFB7B7"/>
<path d="M457.913 495.809L437.545 498.962L437.545 498.962C434.102 499.496 431.012 501.376 428.955 504.189C426.897 507.003 426.041 510.519 426.573 513.965L426.638 514.387L459.986 509.224L457.913 495.809Z" fill="#0086BF"/>
<path d="M498.509 492.169L498.564 491.876L536.45 286.836C539.458 270.375 537.059 253.382 529.613 238.4L506.681 192.493L438.257 201.772L430.182 260.219L401.405 371.715L401.433 371.806L438.303 489.036L462.467 490.627L441.062 385.983L480.255 296.875L477.491 490.575L498.509 492.169Z" fill="#DFE5EE"/>
<path d="M436.665 209.252L437.116 208.544C437.197 208.416 445.509 195.882 468.126 204.251C491.215 212.796 509.105 196.292 509.283 196.124L509.372 196.04L514.601 149.39L520.773 111.519L501.124 108.068L491.464 102.267L453.05 101.582L442.942 109.54L426.345 111.351L424.826 145.858L424.833 145.896L436.665 209.252Z" fill="#3785BA"/>
<path d="M431.16 149.195V119.648L426.493 111.122L426.303 111.116C422.629 111.253 419.157 112.833 416.637 115.512C411.943 120.287 409.816 128.241 410.317 139.154L410.326 139.353L431.16 149.195Z" fill="#3785BA"/>
<path d="M512.505 145.984L536.292 143.126L536.311 142.852C537.122 130.979 535.052 122.165 530.157 116.656C527.7 113.71 524.215 111.81 520.41 111.343L520.273 111.337L513.833 117.196L512.505 145.984Z" fill="#3785BA"/>
<path d="M443.648 89.6755H506.241C507.529 89.6741 508.763 89.1614 509.674 88.2501C510.584 87.3388 511.096 86.1032 511.098 84.8144V62.129C511.106 57.3716 510.176 52.6593 508.363 48.2617C506.55 43.8641 503.888 39.8675 500.53 36.5007C497.172 33.1339 493.184 30.4628 488.794 28.6404C484.403 26.8179 479.697 25.8799 474.945 25.8799C470.192 25.8799 465.486 26.8179 461.095 28.6404C456.705 30.4628 452.717 33.1339 449.359 36.5007C446.001 39.8675 443.339 43.8641 441.526 48.2617C439.713 52.6593 438.784 57.3716 438.791 62.129V84.8144C438.793 86.1032 439.305 87.3388 440.215 88.2502C441.126 89.1615 442.36 89.6741 443.648 89.6755Z" fill="#2F2E41"/>
<path d="M473.49 89.453C458.851 89.453 446.984 77.5741 446.984 62.9208C446.984 48.2675 458.851 36.3887 473.49 36.3887C488.129 36.3887 499.996 48.2675 499.996 62.9208C499.996 77.5741 488.129 89.453 473.49 89.453Z" fill="#FFB7B7"/>
<path d="M448.295 63.7498H483.29C483.947 63.749 484.582 63.5082 485.075 63.0726C485.567 62.637 485.885 62.0365 485.967 61.3835L486.42 57.7556C486.464 57.4068 486.619 57.0816 486.864 56.829C487.108 56.5765 487.428 56.4104 487.775 56.3557C488.122 56.3011 488.477 56.3608 488.787 56.526C489.097 56.6912 489.345 56.9528 489.493 57.2714L491.787 62.1916C492.006 62.6565 492.351 63.0497 492.784 63.3256C493.217 63.6014 493.719 63.7485 494.232 63.7498H499.548C499.924 63.7499 500.296 63.6713 500.64 63.519C500.984 63.3668 501.292 63.1442 501.545 62.8657C501.798 62.5872 501.99 62.2588 502.108 61.9016C502.227 61.5444 502.27 61.1664 502.234 60.7917L500.138 38.8775C500.093 38.4087 499.927 37.9595 499.657 37.574C499.387 37.1885 499.021 36.8797 498.596 36.678C482.569 29.189 466.318 29.1985 450.291 36.7065C449.885 36.8977 449.532 37.1875 449.265 37.5494C448.999 37.9114 448.827 38.3342 448.764 38.7795L445.625 60.6652C445.57 61.0484 445.597 61.439 445.706 61.8104C445.815 62.1819 446.003 62.5256 446.256 62.8181C446.509 63.1107 446.822 63.3453 447.174 63.506C447.526 63.6668 447.908 63.7499 448.295 63.7498H448.295Z" fill="#2F2E41"/>
<path d="M433.897 269.344C432.563 268.872 431.348 268.112 430.339 267.119C429.33 266.125 428.551 264.923 428.056 263.595C427.562 262.268 427.364 260.848 427.477 259.436C427.59 258.024 428.011 256.653 428.71 255.422L406.023 229.534L423.733 227.088L442.562 252.047C444.551 253.36 445.99 255.357 446.606 257.662C447.223 259.966 446.973 262.416 445.905 264.548C444.837 266.68 443.025 268.346 440.811 269.23C438.598 270.114 436.138 270.155 433.897 269.344Z" fill="#9F616A"/>
<path d="M406.536 498.778L422.359 498.777L429.887 437.686L406.532 437.687L406.536 498.778Z" fill="#9F616A"/>
<path d="M402.501 514.132L453.521 514.13V513.484C453.521 508.212 451.429 503.157 447.705 499.429C443.98 495.701 438.93 493.607 433.663 493.606H433.662L402.5 493.608L402.501 514.132Z" fill="#0086BF"/>
<path d="M323.708 485.524L338.82 490.22L364.107 434.11L341.803 427.18L323.708 485.524Z" fill="#9F616A"/>
<path d="M315.305 498.989L364.031 514.132L364.222 513.515C365.784 508.48 365.283 503.031 362.831 498.365C360.379 493.7 356.176 490.2 351.146 488.637L351.145 488.636L321.384 479.388L315.305 498.989Z" fill="#0086BF"/>
<path d="M418.654 217.12L442.088 243.985L423.742 245.638L418.654 217.12Z" fill="#E6E6E6"/>
<path d="M427.81 251.748C427.81 251.748 435.95 255.821 436.968 274.154C437.985 292.488 433.915 340.36 433.915 340.36C433.915 340.36 437.984 361.748 433.915 381.099C429.845 400.45 437.984 470.722 432.897 470.722C427.81 470.722 401.356 473.777 400.338 470.722C399.32 467.666 398.303 421.835 398.303 421.835C398.303 421.835 390.163 398.409 398.303 384.155C398.303 384.155 369.882 433.831 351.499 471.743C347.476 480.041 316.905 470.725 321.992 461.558C327.079 452.391 339.288 410.634 339.288 410.634C339.288 410.634 348.446 380.079 364.725 366.839L356.585 301.656C356.585 301.656 339.288 257.862 349.461 251.751C359.634 245.64 427.81 251.748 427.81 251.748Z" fill="#7EAFD0"/>
<path d="M397.286 85.7348C382.676 85.7348 370.832 73.8792 370.832 59.2546C370.832 44.63 382.676 32.7744 397.286 32.7744C411.896 32.7744 423.74 44.63 423.74 59.2546C423.74 73.8792 411.896 85.7348 397.286 85.7348Z" fill="#A0616A"/>
<path d="M367.78 87.7715L400.667 107.122C400.667 107.122 413.26 114.221 417.964 126.473C422.978 139.531 420.064 157.916 417.964 162.12C413.894 170.268 419.671 190.637 419.671 190.637L424.758 237.487C424.758 237.487 443.072 254.801 428.827 256.838C414.583 258.875 389.146 255.819 373.884 256.838C358.621 257.856 341.325 259.894 346.412 249.707C351.499 239.519 357.604 232.392 351.499 212.026C346.722 196.087 346.929 136.49 347.244 111.321C347.288 107.865 348.214 104.477 349.935 101.48C351.655 98.4833 354.113 95.9768 357.075 94.1992L367.78 87.7715Z" fill="#E5E5E5"/>
<path opacity="0.1" d="M382.528 119.855L379.476 181.982L409.057 241.946L414.074 240.035L383.549 184.019L382.528 119.855Z" fill="#3F3D56"/>
<path opacity="0.1" d="M348.956 195.221V188.09L383.547 245.127L348.956 195.221Z" fill="#3F3D56"/>
<path d="M416.062 34.724L420.432 32.974C420.432 32.974 411.286 22.8967 398.565 23.7727L402.143 19.8292C402.143 19.8292 393.397 16.3243 385.445 25.5246C381.264 30.3614 376.429 36.0471 373.41 42.4508H368.727L370.681 46.7595L363.84 51.0681L370.862 50.2972C370.197 54.0169 370.425 57.8415 371.526 61.4558L371.334 64.8614C371.334 64.8614 379.478 52.2477 379.478 50.4976V54.8795C379.478 54.8795 383.851 50.9361 383.851 48.3072L386.237 51.3746L387.43 46.5562L402.141 51.3746L399.757 47.4293L408.903 48.7437L405.324 43.9253C405.324 43.9253 415.661 49.6207 416.059 54.4411C416.457 59.2614 421.625 65.3943 421.625 65.3943L424.01 61.0124C424.01 61.0124 427.588 41.2963 416.062 34.724Z" fill="#2F2E41"/>
<path d="M398.947 272.226C397.718 271.524 396.658 270.56 395.841 269.404C395.024 268.247 394.47 266.925 394.219 265.53C393.968 264.136 394.025 262.704 394.386 261.334C394.748 259.965 395.405 258.691 396.312 257.603L378.575 228.095L396.438 228.835L410.542 256.743C412.267 258.388 413.329 260.61 413.527 262.987C413.725 265.364 413.045 267.731 411.615 269.639C410.186 271.548 408.107 272.865 405.772 273.342C403.438 273.819 401.009 273.422 398.947 272.226Z" fill="#9F616A"/>
<path d="M358.62 101.014L350.989 99.4863C350.989 99.4863 334.378 114.89 341.5 148.5C348.622 182.11 373.882 234.434 373.882 234.434C373.882 234.434 381.007 243.601 383.04 245.637C385.073 247.673 389.145 245.637 387.109 248.693C385.074 251.749 390.162 253.785 390.162 253.785C390.162 253.785 412.547 253.785 410.512 245.637C408.477 237.489 373.882 179.432 373.882 179.432L378.969 125.453C378.969 125.453 383.041 98.9765 358.62 101.014Z" fill="#E5E5E5"/>
<path d="M1.12738 516.56H689.576C689.875 516.56 690.162 516.442 690.373 516.23C690.584 516.019 690.703 515.732 690.703 515.433C690.703 515.133 690.584 514.847 690.373 514.635C690.162 514.424 689.875 514.305 689.576 514.305H1.12738C0.828552 514.305 0.541931 514.424 0.330627 514.635C0.119263 514.847 0.000610352 515.133 0.000610352 515.433C0.000610352 515.732 0.119263 516.019 0.330627 516.23C0.541931 516.442 0.828552 516.56 1.12738 516.56Z" fill="#CACACA"/>
<path d="M845.851 47.1104V47.4985H856.474C858.105 47.4985 859.669 48.147 860.822 49.3012C861.975 50.4555 862.623 52.0209 862.623 53.6533V76.183C862.623 77.8153 861.975 79.3808 860.822 80.535C859.669 81.6893 858.105 82.3377 856.474 82.3377H798.192C796.561 82.3377 794.997 81.6893 793.844 80.535C792.691 79.3808 792.043 77.8153 792.043 76.183V53.6533C792.043 52.0209 792.691 50.4554 793.844 49.3012C794.997 48.147 796.561 47.4985 798.192 47.4985H838.289V47.1104L845.851 47.1104Z" fill="#1E4470"/>
<path d="M691.372 140.687C691.125 173.936 712.349 168.908 738.226 168.908C764.102 168.908 782.823 173.86 785.079 140.687C788.664 87.9732 774.832 48.498 738.226 48.498C700.357 48.498 691.763 87.9732 691.372 140.687Z" fill="#2F2E41"/>
<path d="M833.092 70.1628C832.256 71.8562 831.801 73.7125 831.759 75.601C831.717 77.4895 832.09 79.3642 832.85 81.0931C833.61 82.8219 834.74 84.3629 836.159 85.6075C837.579 86.8521 839.254 87.77 841.066 88.2966L843.427 134.152L862.625 120.008L857.44 78.6316C858.121 75.5255 857.641 72.2769 856.09 69.5013C854.539 66.7258 852.025 64.6162 849.024 63.5723C846.023 62.5284 842.743 62.6227 839.807 63.8374C836.871 65.0521 834.482 67.3027 833.092 70.1628V70.1628Z" fill="#A0616A"/>
<path d="M659.973 329.309C658.931 327.734 658.247 325.949 657.969 324.081C657.69 322.213 657.825 320.306 658.362 318.495C658.9 316.685 659.828 315.014 661.08 313.601C662.332 312.188 663.879 311.067 665.611 310.317L662.208 264.527L683.026 276.149L683.066 317.85C684.132 320.846 684.063 324.129 682.872 327.078C681.681 330.026 679.451 332.435 676.604 333.847C673.757 335.26 670.492 335.578 667.427 334.741C664.362 333.905 661.709 331.972 659.973 329.309H659.973Z" fill="#A0616A"/>
<path d="M755.848 549.73L740.111 549.729L732.625 488.968L755.852 488.969L755.848 549.73Z" fill="#A0616A"/>
<path d="M759.863 544.587L728.871 544.586H728.87C726.276 544.586 723.707 545.097 721.311 546.091C718.915 547.084 716.737 548.54 714.903 550.376C713.069 552.212 711.614 554.392 710.622 556.79C709.629 559.189 709.118 561.76 709.119 564.356V564.999L759.862 565L759.863 544.587Z" fill="#0086BF"/>
<path d="M655.724 549.73L639.987 549.729L632.5 488.968L655.727 488.969L655.724 549.73Z" fill="#A0616A"/>
<path d="M659.736 544.587L628.744 544.586H628.743C626.149 544.586 623.581 545.097 621.184 546.091C618.788 547.084 616.611 548.54 614.776 550.376C612.942 552.212 611.488 554.392 610.495 556.79C609.502 559.189 608.992 561.76 608.992 564.356V564.999L659.735 565L659.736 544.587Z" fill="#0086BF"/>
<path d="M664.705 304.08L665.389 303.956C671.121 302.917 676.923 301.867 682.024 300.769L682.529 300.66L682.531 300.143C682.618 276.852 682.706 253.566 682.835 230.068C695.019 205.486 700.141 178 697.63 150.674L697.601 150.386L697.365 150.216C695.144 148.673 692.553 147.749 689.858 147.54C687.163 147.332 684.461 147.846 682.03 149.029C679.651 150.33 677.618 152.182 676.1 154.429C674.582 156.677 673.622 159.255 673.302 161.949C668.663 187.256 663.861 213.462 658.504 239.286L658.485 239.38L658.494 239.477C660.478 260.537 662.53 282.316 664.636 303.388L664.705 304.08Z" fill="#3785BA"/>
<path d="M674.965 528.074L675.09 527.482C682.452 492.623 689.559 464.237 696.432 436.785C704.668 403.887 712.473 372.713 720.353 332.371C719.271 383.244 716.757 419.794 713.868 461.806C712.563 480.776 711.215 500.393 709.846 523.293L709.804 523.992L710.503 523.974C735.133 523.343 760.368 521.82 784.772 520.348L785.418 520.309L785.374 519.663C780.754 451.493 779.306 407.196 778.249 374.851C776.018 306.611 775.675 296.122 750.281 238.369C749.319 236.179 743.576 229.705 737.262 230.691L687.299 238.475L687.212 238.915C685.801 246.024 678.805 267.594 669.122 297.448C648.421 361.269 617.139 457.716 607.366 515.206L607.256 515.857L607.909 515.95C622.103 517.969 632.319 520.072 642.198 522.105C651.546 524.03 661.211 526.018 674.367 527.983L674.965 528.074Z" fill="#7EAFD0"/>
<path d="M718.389 256.516C731.724 256.517 744.905 251.886 754.354 242.867C755.831 242.007 757.079 240.805 757.995 239.361C758.911 237.917 759.466 236.274 759.615 234.571C759.858 233.01 759.756 231.415 759.317 229.898C758.878 228.381 758.113 226.978 757.075 225.788C766.339 214.564 775.904 202.963 785.06 191.151L785.312 190.824L785.019 190.265C779.029 178.808 772.835 166.963 766.886 155.258C766.472 154.238 765.791 153.348 764.914 152.684C764.037 152.019 762.997 151.603 761.904 151.481C760.954 151.301 759.977 151.317 759.034 151.528C758.091 151.739 757.2 152.141 756.418 152.708L756.406 152.423C756.157 146.498 755.908 140.573 755.653 134.957L755.626 134.357L755.026 134.343C743.588 134.091 731.761 133.829 720.144 133.14L719.702 133.113L713.94 145.979C704.582 145.069 695.165 146.982 686.902 151.472L686.521 151.676L686.565 152.105C688.883 174.216 688.379 196.532 685.066 218.515C685.245 228.553 685.439 238.812 687.473 246.989L687.533 247.228L687.736 247.366C696.818 253.399 707.49 256.584 718.389 256.516Z" fill="#3785BA"/>
<path d="M767.474 200.7L768.241 200.347C777.202 195.848 786.19 190.856 794.882 186.029L796.083 185.794C818.97 181.195 831.577 178.663 852.225 166.543L852.384 166.449L852.469 166.286C862.808 146.516 865.692 129.235 863.11 102.525L863.058 101.99L862.523 101.947C860.285 101.765 856.636 101.643 853.108 101.525C849.676 101.411 846.127 101.292 843.951 101.121L843.446 101.081L843.29 101.563C840.585 109.926 838.286 117.729 835.853 125.989C833.352 134.48 830.766 143.256 827.617 153.007C816.088 156.324 785.18 155.333 775.57 154.022C772.695 153.811 769.814 154.326 767.19 155.52C764.567 156.714 762.285 158.549 760.555 160.856L760.377 161.079L760.423 161.362C762.539 174.286 764.968 187.287 767.317 199.86L767.474 200.7Z" fill="#3785BA"/>
<path d="M711.136 113.059C702.784 97.7656 708.399 78.5903 723.678 70.2301C738.957 61.8698 758.113 67.4904 766.465 82.7841C774.817 98.0777 769.202 117.253 753.923 125.613C738.645 133.973 719.488 128.353 711.136 113.059Z" fill="#A0616A"/>
<path d="M774.811 96.0397H762.341L756.839 80.6207L755.739 96.0397H749.779L746.57 87.0453L745.928 96.0397H701.642C701.642 87.1794 705.158 78.682 711.417 72.4168C717.676 66.1516 726.165 62.6318 735.017 62.6318H741.435C750.287 62.6318 758.776 66.1516 765.035 72.4168C771.294 78.682 774.811 87.1794 774.811 96.0397Z" fill="#2F2E41"/>
</g>
<defs>
<clipPath id="clip0_1221:1503">
<rect width="864" height="565" fill="white" transform="matrix(-1 0 0 1 864 0)"/>
</clipPath>
</defs>
</svg>
