<svg width="668" height="569" viewBox="0 0 668 569" fill="none" xmlns="http://www.w3.org/2000/svg">
<path d="M87.2287 509.501C82.1224 511.296 76.6398 511.746 71.3093 510.807C65.9787 509.868 60.9798 507.572 56.7942 504.14C46.1343 495.193 42.7922 480.452 40.0728 466.804L32.0293 426.434L48.8692 438.029C60.9794 446.368 73.3624 454.973 81.7475 467.051C90.1326 479.13 93.7927 495.617 87.0555 508.686" fill="#E6E6E6"/>
<path d="M85.7904 558.376C87.4948 545.961 89.2474 533.386 88.0519 520.838C86.9901 509.694 83.5902 498.809 76.6684 489.885C72.9944 485.156 68.5237 481.105 63.4575 477.913C62.1364 477.079 60.9205 479.173 62.2359 480.003C71.0019 485.543 77.7821 493.724 81.5989 503.366C85.8145 514.089 86.4915 525.777 85.765 537.167C85.3257 544.055 84.3946 550.898 83.4564 557.732C83.3824 558.041 83.4286 558.367 83.5855 558.643C83.7424 558.92 83.9984 559.126 84.3017 559.221C84.6111 559.304 84.941 559.262 85.2197 559.104C85.4984 558.946 85.7035 558.684 85.7904 558.376Z" fill="#F2F2F2"/>
<path d="M69.3738 536.408C67.1838 539.736 64.1735 542.445 60.6329 544.272C57.0923 546.1 53.1407 546.984 49.1589 546.841C38.9258 546.356 30.3946 539.213 22.7149 532.433L0 512.377L15.0335 511.658C25.8447 511.14 36.9348 510.658 47.2321 513.992C57.5294 517.326 67.0261 525.35 68.9091 536.008" fill="#E6E6E6"/>
<path d="M90.6067 565.512C82.403 550.997 72.8876 534.864 55.885 529.708C51.1574 528.279 46.2003 527.767 41.2805 528.2C39.7299 528.334 40.1171 530.724 41.6648 530.59C49.9115 529.905 58.1422 532.083 64.9713 536.756C71.5428 541.229 76.6595 547.448 80.9902 554.043C83.6429 558.082 86.019 562.293 88.3956 566.498C89.1551 567.842 91.375 566.872 90.6067 565.512V565.512Z" fill="#F2F2F2"/>
<path d="M310.489 274.723L131.636 422.958C129.385 424.818 126.489 425.711 123.581 425.439C120.674 425.166 117.993 423.752 116.127 421.506L40.7321 330.537C38.8712 328.287 37.979 325.39 38.2512 322.483C38.5233 319.576 39.9376 316.895 42.1838 315.029L221.037 166.795C223.287 164.934 226.184 164.041 229.091 164.314C231.999 164.586 234.68 166 236.546 168.246L311.941 259.215C313.801 261.465 314.694 264.362 314.422 267.269C314.149 270.177 312.735 272.857 310.489 274.723Z" fill="#808080"/>
<path d="M303.322 270.26L128.58 415.087C127.421 416.045 125.929 416.505 124.431 416.365C122.933 416.225 121.552 415.496 120.591 414.339L48.6036 327.482C47.645 326.323 47.1853 324.83 47.3255 323.333C47.4657 321.835 48.1943 320.454 49.3515 319.493L224.093 174.666C225.252 173.707 226.745 173.248 228.242 173.388C229.74 173.528 231.121 174.257 232.082 175.414L304.07 262.271C305.028 263.43 305.488 264.922 305.348 266.42C305.208 267.918 304.479 269.299 303.322 270.26Z" fill="white"/>
<path d="M311.376 300.576L275.436 297.212L301.159 276.967L315.016 293.686C315.556 294.324 315.891 295.111 315.977 295.942C316.063 296.774 315.896 297.612 315.498 298.347C315.236 298.846 314.879 299.289 314.446 299.65C314.021 300 313.531 300.262 313.004 300.421C312.477 300.58 311.923 300.633 311.376 300.576Z" fill="#808080"/>
<path d="M239.203 236.202L150.804 309.467C150.265 309.915 149.642 310.251 148.972 310.458C148.302 310.665 147.597 310.738 146.899 310.672C146.201 310.607 145.522 310.405 144.902 310.077C144.282 309.75 143.733 309.303 143.285 308.763C142.838 308.223 142.501 307.6 142.294 306.93C142.087 306.26 142.015 305.556 142.08 304.858C142.145 304.159 142.348 303.481 142.675 302.861C143.003 302.241 143.449 301.691 143.989 301.244L232.388 227.979C232.928 227.531 233.551 227.194 234.221 226.988C234.891 226.781 235.595 226.708 236.293 226.773C236.991 226.839 237.67 227.041 238.29 227.368C238.91 227.696 239.46 228.143 239.907 228.682C240.355 229.222 240.691 229.845 240.898 230.515C241.105 231.185 241.178 231.89 241.112 232.588C241.047 233.286 240.845 233.965 240.517 234.585C240.19 235.205 239.743 235.754 239.203 236.202Z" fill="#808080"/>
<path d="M195.94 242.581L136.322 291.992C135.232 292.896 133.827 293.329 132.417 293.197C131.007 293.065 129.707 292.379 128.803 291.288C127.899 290.198 127.465 288.793 127.597 287.383C127.729 285.973 128.416 284.673 129.507 283.769L189.124 234.358C190.215 233.454 191.62 233.02 193.03 233.152C194.44 233.284 195.74 233.971 196.644 235.061C197.547 236.152 197.981 237.557 197.849 238.967C197.717 240.377 197.03 241.677 195.94 242.581Z" fill="#808080"/>
<path d="M103.561 343.636C112.778 343.636 120.249 336.164 120.249 326.948C120.249 317.731 112.778 310.26 103.561 310.26C94.3445 310.26 86.873 317.731 86.873 326.948C86.873 336.164 94.3445 343.636 103.561 343.636Z" fill="#808080"/>
<path d="M236.307 293.497C239.256 293.497 241.647 291.106 241.647 288.157C241.647 285.207 239.256 282.816 236.307 282.816C233.358 282.816 230.967 285.207 230.967 288.157C230.967 291.106 233.358 293.497 236.307 293.497Z" fill="#E6E6E6"/>
<path d="M250.698 281.569C253.647 281.569 256.038 279.178 256.038 276.229C256.038 273.28 253.647 270.889 250.698 270.889C247.748 270.889 245.357 273.28 245.357 276.229C245.357 279.178 247.748 281.569 250.698 281.569Z" fill="#E6E6E6"/>
<path d="M265.088 269.641C268.037 269.641 270.428 267.25 270.428 264.301C270.428 261.352 268.037 258.961 265.088 258.961C262.139 258.961 259.748 261.352 259.748 264.301C259.748 267.25 262.139 269.641 265.088 269.641Z" fill="#E6E6E6"/>
<path d="M179.973 556.215L192.233 556.214L198.065 508.926L179.971 508.927L179.973 556.215Z" fill="#FFB8B8"/>
<path d="M176.846 552.212L200.99 552.211H200.991C203.011 552.211 205.012 552.609 206.879 553.382C208.745 554.155 210.442 555.289 211.87 556.717C213.299 558.146 214.433 559.842 215.206 561.709C215.979 563.576 216.377 565.577 216.377 567.597V568.097L176.846 568.099L176.846 552.212Z" fill="#D3D3D3"/>
<path d="M135.973 556.215L148.233 556.214L154.065 508.926L135.971 508.927L135.973 556.215Z" fill="#FFB8B8"/>
<path d="M132.846 552.212L156.99 552.211H156.991C159.011 552.211 161.012 552.609 162.879 553.382C164.745 554.155 166.442 555.289 167.87 556.717C169.299 558.146 170.433 559.842 171.206 561.709C171.979 563.576 172.377 565.577 172.377 567.597V568.097L132.846 568.099L132.846 552.212Z" fill="#D3D3D3"/>
<path d="M148.276 541.744H148.274L137.849 541.741C136.682 541.745 135.56 541.294 134.721 540.484C133.882 539.674 133.391 538.569 133.354 537.403L133.025 528.282C130.39 455.342 127.664 379.918 144.543 346.018L144.675 345.751L200.555 343.729L211.774 446.64C212.253 451.029 212.077 455.466 211.254 459.804L196.423 537.952C196.223 539.012 195.648 539.964 194.804 540.635C193.961 541.307 192.904 541.653 191.826 541.61L180.116 541.23C179.502 541.206 178.901 541.057 178.347 540.791C177.794 540.526 177.301 540.15 176.898 539.687C176.495 539.224 176.191 538.684 176.005 538.099C175.818 537.515 175.753 536.898 175.814 536.287L185.013 464.008C185.326 460.888 185.043 457.737 184.178 454.724L172.738 414.729C172.643 414.399 172.438 414.111 172.156 413.913C171.874 413.716 171.533 413.621 171.19 413.646C170.847 413.67 170.523 413.811 170.271 414.046C170.02 414.281 169.857 414.595 169.81 414.936L152.733 537.863C152.58 538.937 152.045 539.921 151.227 540.633C150.409 541.346 149.361 541.74 148.276 541.744Z" fill="#D3D3D3"/>
<path d="M154.959 240.841C168.524 240.841 179.521 229.844 179.521 216.28C179.521 202.715 168.524 191.719 154.959 191.719C141.395 191.719 130.398 202.715 130.398 216.28C130.398 229.844 141.395 240.841 154.959 240.841Z" fill="#FFB8B8"/>
<path d="M197.936 351.327H147.113C146.467 351.327 145.829 351.188 145.242 350.919C144.654 350.651 144.132 350.259 143.709 349.77C143.287 349.281 142.974 348.708 142.793 348.088C142.612 347.468 142.567 346.816 142.66 346.177L145.171 328.98L130.427 288.427C128.905 284.24 128.339 279.766 128.772 275.332C129.204 270.899 130.624 266.618 132.926 262.804C135.228 258.991 138.355 255.741 142.077 253.294C145.799 250.846 150.022 249.263 154.436 248.66C160.724 247.783 167.129 248.942 172.711 251.968C178.293 254.994 182.759 259.727 185.457 265.475L188.695 272.366L202.361 346.007C202.481 346.656 202.457 347.324 202.291 347.963C202.124 348.602 201.819 349.197 201.396 349.704C200.974 350.212 200.445 350.621 199.847 350.901C199.249 351.182 198.597 351.327 197.936 351.327H197.936Z" fill="#808080"/>
<path d="M90.6502 394.462C92.18 394.107 93.6133 393.421 94.8491 392.452C96.085 391.482 97.0933 390.254 97.8031 388.853C98.5128 387.452 98.9068 385.913 98.9572 384.343C99.0076 382.773 98.7132 381.212 98.0948 379.768L137.697 290.296L115.043 284.59L83.2383 374.332C80.882 375.532 79.0476 377.554 78.0827 380.016C77.1178 382.478 77.0895 385.208 78.0031 387.689C78.9167 390.171 80.7088 392.231 83.0397 393.479C85.3706 394.727 88.0785 395.077 90.6502 394.462H90.6502Z" fill="#FFB8B8"/>
<path d="M132.335 306.298L110.302 295.984C109.675 295.691 109.119 295.266 108.671 294.738C108.223 294.21 107.894 293.592 107.707 292.925C107.52 292.259 107.478 291.56 107.585 290.876C107.692 290.192 107.946 289.54 108.328 288.963L121.718 268.74C123.239 265.543 125.965 263.079 129.299 261.889C132.633 260.698 136.303 260.877 139.505 262.388C142.707 263.898 145.18 266.616 146.381 269.946C147.583 273.276 147.416 276.946 145.916 280.153L138.992 303.316C138.794 303.979 138.455 304.592 137.998 305.112C137.542 305.632 136.978 306.048 136.346 306.331C135.715 306.614 135.029 306.758 134.337 306.752C133.645 306.746 132.962 306.591 132.335 306.298H132.335Z" fill="#808080"/>
<path d="M255.851 164.223C256.329 165.719 256.474 167.301 256.274 168.859C256.075 170.417 255.536 171.912 254.696 173.239C253.856 174.566 252.736 175.693 251.413 176.54C250.091 177.387 248.599 177.934 247.042 178.142L190.473 257.977L173.971 241.44L234.765 168.165C234.589 165.527 235.387 162.916 237.007 160.827C238.627 158.737 240.958 157.315 243.557 156.829C246.156 156.343 248.843 156.827 251.109 158.19C253.375 159.553 255.062 161.699 255.851 164.223Z" fill="#FFB8B8"/>
<path d="M203.554 248.607C203.635 249.295 203.567 249.992 203.354 250.65C203.14 251.309 202.788 251.914 202.32 252.424L185.97 270.233C183.985 273.165 180.917 275.191 177.44 275.865C173.964 276.54 170.361 275.808 167.423 273.83C164.485 271.853 162.451 268.791 161.767 265.316C161.084 261.841 161.806 258.237 163.775 255.293L174.287 233.436C174.588 232.812 175.019 232.26 175.551 231.818C176.084 231.376 176.705 231.054 177.373 230.873C178.042 230.693 178.741 230.659 179.424 230.773C180.106 230.887 180.756 231.148 181.33 231.536L201.472 245.179C202.045 245.567 202.528 246.074 202.887 246.666C203.247 247.258 203.474 247.92 203.554 248.607Z" fill="#808080"/>
<path d="M187.23 206C187.215 203.777 186.906 201.566 186.312 199.424C182.355 184.802 167.747 176.025 153.087 178.228C150.236 177.41 147.284 176.997 144.318 177C136.773 177 129.477 179.698 123.747 184.607C118.017 189.515 114.23 196.311 113.072 203.767L101.23 280H165.23L175.564 213.475C175.948 211.002 176.038 208.493 175.833 206H187.23Z" fill="#3F3D56"/>
<path d="M266.775 568.652H55.7754C55.5102 568.652 55.2558 568.547 55.0683 568.359C54.8808 568.172 54.7754 567.918 54.7754 567.652C54.7754 567.387 54.8808 567.133 55.0683 566.945C55.2558 566.758 55.5102 566.652 55.7754 566.652H266.775C267.041 566.652 267.295 566.758 267.482 566.945C267.67 567.133 267.775 567.387 267.775 567.652C267.775 567.918 267.67 568.172 267.482 568.359C267.295 568.547 267.041 568.652 266.775 568.652Z" fill="#808080"/>
<path d="M479.346 77.6673C480.809 77.5265 482.285 77.7083 483.671 78.1998C485.056 78.6913 486.317 79.4806 487.365 80.5121C488.412 81.5436 489.221 82.7923 489.733 84.17C490.246 85.5478 490.45 87.0213 490.332 88.4866L523.039 102.882L507.438 112.952L478.77 97.7387C476.322 97.3767 474.091 96.1291 472.501 94.2324C470.911 92.3356 470.072 89.9215 470.143 87.4474C470.214 84.9733 471.19 82.6113 472.886 80.8087C474.582 79.0062 476.881 77.8885 479.346 77.6674V77.6673Z" fill="#A0616A"/>
<path d="M611.278 59.7099C624.843 59.7099 635.839 48.7136 635.839 35.1489C635.839 21.5842 624.843 10.5879 611.278 10.5879C597.713 10.5879 586.717 21.5842 586.717 35.1489C586.717 48.7136 597.713 59.7099 611.278 59.7099Z" fill="#A0616A"/>
<path d="M566.824 385.363L554.564 385.362L548.732 338.074L566.826 338.075L566.824 385.363Z" fill="#A0616A"/>
<path d="M569.952 397.247L530.422 397.246V396.746C530.422 394.725 530.82 392.724 531.593 390.857C532.366 388.991 533.5 387.295 534.928 385.866C536.357 384.437 538.053 383.304 539.92 382.53C541.787 381.757 543.788 381.359 545.808 381.359H545.809L569.953 381.36L569.952 397.247Z" fill="#D3D3D3"/>
<path d="M617.824 385.363L605.564 385.362L599.732 338.074L617.826 338.075L617.824 385.363Z" fill="#A0616A"/>
<path d="M620.952 397.247L581.422 397.246V396.746C581.422 394.725 581.82 392.724 582.593 390.857C583.366 388.991 584.5 387.295 585.928 385.866C587.357 384.437 589.053 383.304 590.92 382.53C592.787 381.757 594.788 381.359 596.808 381.359H596.809L620.953 381.36L620.952 397.247Z" fill="#D3D3D3"/>
<path d="M617.245 375.291C617.061 375.291 616.878 375.279 616.696 375.257L598.75 373.048C597.699 372.92 596.727 372.425 596.005 371.65C595.284 370.875 594.859 369.87 594.806 368.812L589.576 251.049C589.558 250.715 589.43 250.396 589.21 250.144C588.99 249.891 588.692 249.72 588.364 249.656C588.035 249.592 587.695 249.64 587.397 249.792C587.099 249.944 586.86 250.192 586.719 250.495L573.285 295.279L570.518 367.216C570.494 367.836 570.342 368.445 570.072 369.004C569.801 369.562 569.418 370.059 568.947 370.462C568.475 370.866 567.924 371.167 567.331 371.348C566.737 371.528 566.112 371.584 565.495 371.511L549.955 369.682C548.844 369.554 547.82 369.016 547.085 368.173C546.35 367.33 545.956 366.243 545.982 365.125L547.301 297.411L557.83 191.119L558.3 191.137L622.322 193.604L621.745 370.806C621.741 371.997 621.265 373.137 620.422 373.978C619.578 374.819 618.436 375.291 617.245 375.291H617.245Z" fill="#D3D3D3"/>
<path d="M619.895 203.319C619.855 203.319 619.816 203.319 619.777 203.318L555.298 201.629C554.666 201.612 554.045 201.463 553.474 201.19C552.904 200.917 552.398 200.527 551.988 200.046C551.578 199.564 551.275 199.002 551.097 198.395C550.92 197.788 550.872 197.151 550.957 196.524L563.347 105.333C564.121 99.1755 566.185 93.2505 569.403 87.9446C572.622 82.6388 576.924 78.0715 582.027 74.5409C586.517 71.4504 591.615 69.3565 596.981 68.3997C602.347 67.443 607.855 67.6456 613.136 68.994C635.642 74.6971 649.143 98.8641 643.233 122.866L624.265 199.895C624.02 200.87 623.457 201.736 622.666 202.356C621.875 202.976 620.9 203.315 619.895 203.319Z" fill="#3F3D56"/>
<path d="M535.305 130.904C531.056 130.909 526.898 129.674 523.341 127.349L485.739 102.68C485.188 102.319 484.724 101.841 484.378 101.281C484.032 100.721 483.813 100.092 483.737 99.438C483.661 98.7842 483.729 98.1216 483.937 97.497C484.145 96.8724 484.487 96.301 484.94 95.8231L490.604 89.8426C491.222 89.1871 492.023 88.7327 492.903 88.5389C493.782 88.345 494.7 88.4206 495.536 88.7557L537.538 105.481L576.446 77.6952C578.266 76.396 580.335 75.4886 582.523 75.0304C584.712 74.5722 586.971 74.5732 589.159 75.0333C591.346 75.4934 593.415 76.4025 595.233 77.7032C597.052 79.004 598.58 80.6679 599.722 82.5898C600.864 84.5118 601.595 86.6498 601.868 88.8687C602.141 91.0876 601.95 93.339 601.309 95.4805C600.667 97.622 599.587 99.6069 598.139 101.31C596.69 103.012 594.904 104.396 592.893 105.373L544.805 128.73C541.843 130.164 538.595 130.908 535.305 130.904Z" fill="#3F3D56"/>
<path d="M619.789 58.6378C623.979 59.6272 629.034 60.3864 632.029 57.2929C632.559 56.7089 633.033 56.0761 633.445 55.4028L637.36 49.4254C640.359 44.8465 643.411 40.1481 644.68 34.8236C645.41 31.7641 645.524 28.5901 645.016 25.486C644.509 22.382 643.389 19.4097 641.723 16.742C640.057 14.0742 637.878 11.764 635.311 9.94574C632.745 8.12743 629.843 6.83719 626.773 6.14999C620.928 4.84117 615.207 2.58922 609.231 3C603.255 3.41078 596.246 3.27592 591.231 0C591.544 1.46046 593.234 7.91341 593.234 7.91341C593.234 7.91341 585.692 14.8321 584.18 16.5572C586.159 15.6796 588.314 15.2675 590.478 15.3526C592.642 15.4378 594.758 16.0179 596.662 17.0485C598.567 18.079 600.21 19.5325 601.465 21.2973C602.72 23.062 603.554 25.0911 603.903 27.2285C604.331 29.8543 604.079 32.7664 605.639 34.9216C607.123 36.9714 609.785 37.6896 612.021 38.8732C615.245 40.71 617.707 43.6386 618.963 47.1307C620.218 50.6227 620.185 54.4485 618.868 57.9179L619.789 58.6378Z" fill="#3F3D56"/>
<path d="M590.299 212.116H386.71C384.15 212.113 381.697 211.095 379.887 209.285C378.077 207.475 377.06 205.022 377.057 202.463V98.9128C377.06 96.3535 378.077 93.8999 379.887 92.0903C381.697 90.2806 384.15 89.2626 386.71 89.2598H590.299C592.858 89.2627 595.312 90.2806 597.122 92.0903C598.931 93.8999 599.949 96.3535 599.952 98.9128V202.463C599.949 205.022 598.931 207.475 597.122 209.285C595.312 211.095 592.858 212.113 590.299 212.116Z" fill="#808080"/>
<path d="M587.958 205.094H389.049C387.731 205.093 386.467 204.569 385.534 203.636C384.602 202.704 384.078 201.44 384.076 200.122V101.252C384.078 99.9336 384.602 98.6696 385.534 97.7374C386.467 96.8051 387.731 96.2808 389.049 96.2793H587.958C589.277 96.2808 590.541 96.8051 591.473 97.7374C592.405 98.6696 592.929 99.9336 592.931 101.252V200.122C592.929 201.44 592.405 202.704 591.473 203.636C590.541 204.569 589.277 205.093 587.958 205.094Z" fill="white"/>
<path d="M576.439 230.058L554.068 207.688L582.748 208.413V227.444C582.756 228.177 582.542 228.895 582.135 229.504C581.728 230.113 581.147 230.586 580.467 230.859C580.011 231.05 579.523 231.148 579.029 231.15C578.546 231.148 578.069 231.051 577.624 230.863C577.18 230.676 576.777 230.402 576.439 230.058Z" fill="#808080"/>
<path d="M563.74 146.253H463.116C461.875 146.253 460.684 145.76 459.806 144.882C458.929 144.004 458.436 142.814 458.436 141.573C458.436 140.332 458.929 139.141 459.806 138.263C460.684 137.386 461.875 136.893 463.116 136.893H563.74C564.982 136.893 566.172 137.386 567.05 138.263C567.928 139.141 568.421 140.332 568.421 141.573C568.421 142.814 567.928 144.004 567.05 144.882C566.172 145.76 564.982 146.253 563.74 146.253Z" fill="#808080"/>
<path d="M530.978 126.362H463.115C462.5 126.363 461.89 126.243 461.322 126.008C460.753 125.773 460.236 125.429 459.801 124.994C459.366 124.559 459.02 124.043 458.785 123.475C458.549 122.907 458.428 122.297 458.428 121.682C458.428 121.067 458.549 120.458 458.785 119.89C459.02 119.321 459.366 118.805 459.801 118.37C460.236 117.936 460.753 117.591 461.322 117.356C461.89 117.121 462.5 117.001 463.115 117.002H530.978C532.219 117.002 533.41 117.495 534.287 118.373C535.165 119.25 535.658 120.441 535.658 121.682C535.658 122.923 535.165 124.114 534.287 124.992C533.41 125.869 532.219 126.362 530.978 126.362Z" fill="#808080"/>
<path d="M421.462 146.253C429.539 146.253 436.087 139.705 436.087 131.628C436.087 123.55 429.539 117.002 421.462 117.002C413.384 117.002 406.836 123.55 406.836 131.628C406.836 139.705 413.384 146.253 421.462 146.253Z" fill="#808080"/>
<path d="M532.731 184.372C535.316 184.372 537.411 182.277 537.411 179.692C537.411 177.107 535.316 175.012 532.731 175.012C530.146 175.012 528.051 177.107 528.051 179.692C528.051 182.277 530.146 184.372 532.731 184.372Z" fill="#E6E6E6"/>
<path d="M549.112 184.372C551.697 184.372 553.792 182.277 553.792 179.692C553.792 177.107 551.697 175.012 549.112 175.012C546.527 175.012 544.432 177.107 544.432 179.692C544.432 182.277 546.527 184.372 549.112 184.372Z" fill="#E6E6E6"/>
<path d="M565.493 184.372C568.078 184.372 570.173 182.277 570.173 179.692C570.173 177.107 568.078 175.012 565.493 175.012C562.908 175.012 560.812 177.107 560.812 179.692C560.812 182.277 562.908 184.372 565.493 184.372Z" fill="#E6E6E6"/>
<path d="M587.147 199.801C587.309 198.339 587.789 196.931 588.553 195.676C589.318 194.42 590.348 193.348 591.572 192.533C592.796 191.719 594.184 191.183 595.638 190.963C597.091 190.744 598.575 190.845 599.985 191.261L620.769 162.191L627.434 179.524L606.676 204.471C605.82 206.794 604.143 208.722 601.961 209.89C599.779 211.059 597.244 211.386 594.837 210.81C592.43 210.234 590.317 208.796 588.9 206.766C587.483 204.737 586.859 202.259 587.147 199.801H587.147Z" fill="#A0616A"/>
<path d="M610.954 198.231C610.627 198.258 610.298 198.25 609.973 198.206C609.32 198.119 608.695 197.889 608.141 197.533C607.587 197.177 607.118 196.704 606.768 196.146L602.375 189.178C601.893 188.417 601.65 187.529 601.68 186.628C601.71 185.727 602.011 184.857 602.544 184.13L629.146 147.576L611.855 103.001C610.31 99.0785 610.369 94.7066 612.017 90.8271C613.666 86.9477 616.773 83.8713 620.669 82.2611C622.87 81.3379 625.248 80.914 627.633 81.0198C630.017 81.1256 632.349 81.7586 634.459 82.8731C636.57 83.9877 638.408 85.5561 639.84 87.4657C641.272 89.3752 642.263 91.5784 642.742 93.9167L653.47 146.29C654.216 149.984 653.996 153.807 652.831 157.391C651.665 160.974 649.595 164.196 646.819 166.745L613.609 197.07C612.877 197.74 611.943 198.148 610.954 198.231Z" fill="#3F3D56"/>
<path d="M666.775 399.652H455.775C455.51 399.652 455.256 399.547 455.068 399.359C454.881 399.172 454.775 398.918 454.775 398.652C454.775 398.387 454.881 398.133 455.068 397.945C455.256 397.758 455.51 397.652 455.775 397.652H666.775C667.041 397.652 667.295 397.758 667.483 397.945C667.67 398.133 667.775 398.387 667.775 398.652C667.775 398.918 667.67 399.172 667.483 399.359C667.295 399.547 667.041 399.652 666.775 399.652Z" fill="#808080"/>
</svg>
