<svg width="642" height="603" viewBox="0 0 642 603" fill="none" xmlns="http://www.w3.org/2000/svg">
<path d="M128.52 486.634C128.651 500.078 120.697 504.849 110.831 504.945C110.602 504.948 110.374 504.947 110.147 504.944C109.689 504.939 109.236 504.923 108.788 504.895C99.8773 504.352 92.9099 499.485 92.7878 486.982C92.6615 474.044 109.053 457.554 110.283 456.335L110.285 456.333C110.332 456.287 110.356 456.264 110.356 456.264C110.356 456.264 128.388 473.191 128.52 486.634Z" fill="#D3D3D3"/>
<path d="M410.574 485.878C410.706 499.322 402.752 504.093 392.886 504.19C392.656 504.192 392.428 504.191 392.201 504.189C391.744 504.183 391.291 504.167 390.843 504.139C381.932 503.596 374.965 498.729 374.843 486.226C374.716 473.288 391.108 456.798 392.337 455.579L392.34 455.578C392.386 455.531 392.41 455.508 392.41 455.508C392.41 455.508 410.443 472.436 410.574 485.878Z" fill="#D3D3D3"/>
<path d="M642 503.223H0V504.734H642V503.223Z" fill="#3F3D56"/>
<path d="M130.819 250.831C200.146 250.831 256.346 194.68 256.346 125.415C256.346 56.1504 200.146 0 130.819 0C61.4931 0 5.29297 56.1504 5.29297 125.415C5.29297 194.68 61.4931 250.831 130.819 250.831Z" fill="#D3D3D3"/>
<path d="M283.569 391.356H283.569C313.652 391.356 342.502 403.296 363.774 424.549C385.046 445.802 396.996 474.627 396.996 504.684V504.684H219.293V455.575C219.293 438.543 226.065 422.209 238.119 410.166C250.173 398.122 266.522 391.356 283.569 391.356Z" fill="#3F3D56"/>
<path d="M530.01 241.81C530.01 241.81 535.184 309.018 527.94 311.086C520.696 313.154 494.823 328.663 453.428 324.527C453.428 324.527 413.067 346.241 419.276 325.561C425.486 304.882 453.428 310.052 453.428 310.052C453.428 310.052 503.102 299.712 505.172 292.474C507.242 285.236 498.963 255.251 502.068 254.217C505.172 253.183 530.01 241.81 530.01 241.81Z" fill="#A0616A"/>
<path d="M468.021 358.988C468.021 358.988 472.056 456.084 478.265 470.559C483.437 482.617 486.455 521.936 487.319 534.735C487.493 537.301 487.579 538.801 487.579 538.801C487.579 538.801 504.137 538.801 505.172 534.666C506.207 530.53 509.312 485.035 505.172 470.559C501.033 456.084 510.452 355.886 510.452 355.886L468.021 358.988Z" fill="#2F2E41"/>
<path d="M491.718 533.632C491.718 533.632 481.369 536.734 479.299 540.869C477.229 545.005 443.078 552.243 453.427 557.413C463.776 562.583 494.822 553.277 494.822 553.277C494.822 553.277 511.381 552.243 510.346 546.039C509.311 539.836 505.542 532.191 505.542 532.191L491.718 533.632Z" fill="#2F2E41"/>
<path d="M520.694 544.764C520.694 544.764 510.345 547.866 508.276 552.002C506.206 556.138 472.054 563.376 482.403 568.546C492.752 573.716 523.799 564.41 523.799 564.41C523.799 564.41 540.357 563.376 539.322 557.172C538.287 550.968 534.519 543.324 534.519 543.324L520.694 544.764Z" fill="#2F2E41"/>
<path d="M477.229 356.581L491.717 381.396L515.897 467.675C515.897 467.675 513.45 546.832 516.554 546.832C519.659 546.832 536.217 552.002 537.252 546.832C538.126 542.465 549.717 500.632 543.94 472.787C540.182 455.189 537.764 437.332 536.708 419.369L534.147 371.057C534.147 371.057 544.496 352.445 533.113 349.343C521.729 346.241 477.229 356.581 477.229 356.581Z" fill="#2F2E41"/>
<path d="M490.683 197.349C504.4 197.349 515.52 186.238 515.52 172.533C515.52 158.828 504.4 147.718 490.683 147.718C476.966 147.718 465.846 158.828 465.846 172.533C465.846 186.238 476.966 197.349 490.683 197.349Z" fill="#A0616A"/>
<path d="M487.578 189.077C487.578 189.077 491.718 222.164 490.683 224.232C489.648 226.3 515.52 201.485 515.52 201.485C515.52 201.485 506.206 187.009 508.276 179.771L487.578 189.077Z" fill="#A0616A"/>
<path d="M545.532 222.164C545.532 222.164 516.555 201.485 515.52 197.349L493.788 215.96L490.095 211.568C490.095 211.568 473.09 228.368 473.09 235.606C473.09 242.843 472.055 264.557 475.16 270.761C478.264 276.965 465.846 355.547 465.846 355.547C465.846 355.547 476.195 364.852 477.229 365.886C478.264 366.92 519.66 359.683 519.66 359.683C519.66 359.683 540.358 357.615 540.358 354.513C540.358 351.411 534.148 304.882 536.218 292.474C538.288 280.067 545.532 222.164 545.532 222.164Z" fill="#BBBBBB"/>
<path d="M551.742 251.115C551.742 251.115 556.916 318.324 549.672 320.391C542.428 322.459 516.556 337.969 475.16 333.833C475.16 333.833 434.799 355.547 441.009 334.867C447.218 314.188 475.16 319.358 475.16 319.358C475.16 319.358 524.835 309.018 526.905 301.78C528.974 294.542 520.695 264.557 523.8 263.523C526.905 262.489 551.742 251.115 551.742 251.115Z" fill="#A0616A"/>
<path d="M480.074 160.137C483.469 158.929 487.214 158.309 490.676 159.31C495.575 160.727 498.969 165.017 502.629 168.567C506.288 172.116 511.421 175.261 516.24 173.592C515.949 171.505 516.497 169.388 517.764 167.703C518.393 167.075 518.858 166.303 519.118 165.453C519.323 164.124 518.205 162.977 517.869 161.675C517.282 159.392 518.893 156.268 516.912 154.988C516.389 154.651 515.727 154.574 515.216 154.217C513.213 152.818 515.438 149.34 514.113 147.288C513.717 146.758 513.201 146.328 512.608 146.033C503.005 140.435 491.261 140.42 480.144 140.561C478.596 140.58 476.442 141.348 476.878 142.832C474.777 141.325 472.026 143.441 470.332 145.394L466.866 149.391C465.237 151.129 463.816 153.051 462.63 155.116C461.571 157.139 461.337 160.25 463.444 161.132C461.878 160.476 459.977 169.748 467.2 168.222C471.396 167.336 475.51 161.76 480.074 160.137Z" fill="#2F2E41"/>
<path d="M528.974 224.232L545.532 222.164C545.532 222.164 562.091 254.217 552.777 259.387C543.463 264.557 519.66 268.693 519.66 266.625C519.66 264.557 528.974 224.232 528.974 224.232Z" fill="#BBBBBB"/>
<path d="M302.039 231.265C302.039 231.265 306.979 247.481 304.156 252.416C301.333 257.351 309.095 267.926 321.797 262.991C334.499 258.056 335.204 252.416 335.204 252.416C335.204 252.416 330.265 244.661 328.853 228.445L302.039 231.265Z" fill="#FFB9B9"/>
<path d="M237.472 390.247C237.472 390.247 212.069 402.937 223.359 419.858C229.922 429.693 242.445 448.818 251.782 463.11C259.596 475.071 265.589 488.126 269.564 501.846L271.343 507.985L278.399 516.445L293.218 499.525C293.218 499.525 271.343 459.339 271.343 451.583C271.343 443.828 253.702 419.153 253.702 419.153L271.343 407.872C271.343 407.872 251.585 385.312 237.472 390.247Z" fill="#FFB9B9"/>
<path d="M320.033 433.958C320.033 433.958 320.739 453.699 321.445 461.454C322.027 467.852 316.365 485.766 318.328 505.696C319.526 518.59 319.383 531.573 317.901 544.437L315.094 570.026L336.263 572.142L343.319 514.33C343.319 514.33 347.553 473.439 345.436 460.044L346.142 431.843C346.142 431.843 330.618 426.203 320.033 433.958Z" fill="#FFB9B9"/>
<path d="M282.28 351.824C282.28 351.824 232.885 383.55 232.18 393.42C232.18 393.42 260.405 390.6 261.111 415.275C261.111 415.275 278.046 408.93 282.28 407.52C286.514 406.11 309.095 391.305 309.095 391.305C309.095 391.305 318.268 398.355 318.268 409.635C318.268 420.915 317.562 440.656 318.268 442.066C318.974 443.476 335.204 423.03 348.611 440.656L357.784 392.01C357.784 392.01 360.607 362.399 354.961 360.284L315.446 345.479L282.28 351.824Z" fill="#2F2E41"/>
<path d="M312.271 240.078C323.962 240.078 333.44 230.609 333.44 218.928C333.44 207.247 323.962 197.777 312.271 197.777C300.579 197.777 291.102 207.247 291.102 218.928C291.102 230.609 300.579 240.078 312.271 240.078Z" fill="#FFB9B9"/>
<path d="M306.978 255.941C306.978 255.941 330.855 262.241 334.088 250.278C334.088 250.278 363.429 255.941 368.369 274.976C373.308 294.012 356.373 339.838 356.373 341.248C356.373 342.658 370.485 351.118 364.135 355.348C357.784 359.578 352.139 354.643 354.961 360.283C357.784 365.923 362.723 367.333 358.49 368.743C354.256 370.154 328.853 348.298 309.095 353.938C289.337 359.578 279.458 355.348 279.458 355.348L270.598 278.845C270.252 275.914 270.647 272.944 271.745 270.204C272.844 267.465 274.611 265.044 276.887 263.162C281.309 259.525 287.176 255.596 292.865 254.531C304.155 252.416 304.624 251.258 304.624 251.258L306.978 255.941Z" fill="#D3D3D3"/>
<path d="M284.396 379.319C284.396 379.319 290.747 415.275 299.215 410.34C307.683 405.405 297.098 379.319 297.098 379.319H284.396Z" fill="#FFB9B9"/>
<path d="M313.876 383.973C313.876 383.973 302.872 418.79 312.664 418.324C322.456 417.859 325.139 389.839 325.139 389.839L313.876 383.973Z" fill="#FFB9B9"/>
<path d="M274.871 506.575C274.871 506.575 269.932 500.935 267.109 508.69C264.286 516.445 256.524 526.315 256.524 526.315C256.524 526.315 239.589 545.351 251.585 546.056C263.581 546.761 280.516 529.136 280.516 529.136L300.274 510.805C300.274 510.805 293.726 494.871 290.649 494.73C287.573 494.59 288.278 513.625 274.871 506.575Z" fill="#2F2E41"/>
<path d="M320.738 565.092C320.738 565.092 315.765 566.542 316.135 560.529C316.135 560.529 298.158 570.027 303.097 577.077C308.037 584.127 313.682 591.177 313.682 591.177C313.682 591.177 339.791 605.983 341.908 602.458C344.024 598.933 344.024 591.882 342.613 589.062C341.202 586.242 334.145 581.307 336.262 577.077C338.379 572.847 335.557 561.567 332.029 561.567C328.5 561.567 320.738 565.092 320.738 565.092Z" fill="#2F2E41"/>
<path d="M293.796 201.006C293.796 201.006 300.606 186.264 313.659 189.666C326.711 193.068 334.089 198.171 334.656 203.274C335.224 208.377 334.372 216.031 334.372 216.031C334.372 216.031 332.954 205.542 323.874 207.81C314.794 210.078 300.606 208.377 300.606 208.377L298.336 228.788C298.336 228.788 295.783 225.103 292.945 227.371C290.108 229.639 284.716 205.542 293.796 201.006Z" fill="#2F2E41"/>
<path d="M356.373 274.272C356.373 274.272 339.438 320.098 340.849 325.738C342.26 331.378 340.849 332.083 338.732 333.493C336.615 334.903 330.97 349.709 330.97 349.709C330.97 349.709 327.442 358.169 324.619 360.284C321.797 362.399 321.797 368.039 321.797 368.039C321.797 368.039 314.74 375.089 316.151 376.5C317.563 377.91 317.563 380.025 314.74 382.14C311.918 384.255 309.095 387.075 310.506 387.78C311.917 388.485 321.797 396.24 324.619 395.535C327.442 394.83 323.208 392.01 326.736 390.6C330.264 389.19 332.381 387.075 330.97 386.37C329.559 385.665 325.325 385.665 329.559 384.255C333.792 382.845 348.611 373.679 353.55 362.399C358.49 351.119 382.157 282.871 367.854 273.284C367.854 273.284 362.018 265.812 356.373 274.272Z" fill="#D3D3D3"/>
<path d="M278.046 266.517L277.759 266.636C275.094 267.746 272.739 269.489 270.9 271.714C269.06 273.938 267.791 276.577 267.202 279.402C265.662 286.77 264.146 297.428 265.344 307.408C267.461 325.033 268.872 332.788 271.695 338.428C274.518 344.069 275.223 341.954 274.517 346.184C273.812 350.414 270.284 346.889 273.812 352.529C277.34 358.169 279.457 356.759 278.046 359.579C276.634 362.399 274.518 362.399 277.34 365.924C280.163 369.449 280.163 370.859 280.868 372.269C281.574 373.679 283.691 384.255 283.691 384.255C283.691 384.255 294.981 380.73 301.332 382.14C301.332 382.14 295.687 372.269 297.098 370.154C298.509 368.039 300.626 367.334 298.509 365.219C296.392 363.104 292.864 363.809 296.392 361.694C299.921 359.579 293.57 337.723 293.57 337.723L278.046 266.517Z" fill="#D3D3D3"/>
<path d="M142.919 503.173H117.209L128.93 106.527L142.919 503.173Z" fill="#3F3D56"/>
<path d="M131.198 181.701L158.798 143.548L130.82 191.145L127.795 185.857L131.198 181.701Z" fill="#3F3D56"/>
<path d="M128.173 220.233L100.572 182.079L128.551 229.677L131.576 224.388L128.173 220.233Z" fill="#3F3D56"/>
<path d="M142.333 296.857L129.891 304.034L133.672 310.577L146.114 303.4L142.333 296.857Z" fill="#3F3D56"/>
</svg>
