<svg width="906" height="562" viewBox="0 0 906 562" fill="none" xmlns="http://www.w3.org/2000/svg">
<g clip-path="url(#clip0)">
<path d="M787.062 440.12C786.861 439.865 786.66 439.608 786.462 439.352C786.263 439.095 786.066 438.838 785.869 438.58C785.672 438.322 785.476 438.063 785.281 437.803C785.086 437.544 784.892 437.283 784.699 437.021C784.376 429.499 784.371 422.044 784.686 414.656C784.993 407.32 785.613 400.072 786.548 392.912C787.471 385.805 788.694 378.809 790.217 371.922C791.728 365.088 793.528 358.383 795.619 351.807C795.857 351.049 796.1 350.294 796.347 349.542C796.593 348.789 796.845 348.042 797.101 347.3C797.356 346.554 797.615 345.811 797.879 345.072C798.143 344.333 798.41 343.597 798.682 342.863C800.695 337.372 802.911 332.015 805.33 326.793C807.733 321.607 810.327 316.565 813.114 311.666C815.879 306.801 818.828 302.086 821.959 297.521C825.068 292.991 828.35 288.618 831.805 284.404L832.349 283.743L832.896 283.086L833.444 282.431L833.993 281.781L834.39 281.314L834.79 280.849C834.924 280.694 835.058 280.541 835.194 280.387C835.329 280.234 835.466 280.083 835.605 279.933L835.933 279.753L836.26 279.575L836.584 279.397L836.908 279.22L836.928 279.214L836.949 279.204L836.969 279.194L836.99 279.187L837.12 279.115L837.249 279.043L837.376 278.971L837.499 278.898L838.063 278.596L838.626 278.298L839.187 278.001L839.745 277.701L839.32 277.487L838.251 276.956L838.258 276.951C838.35 276.99 838.441 277.032 838.531 277.075C838.621 277.119 838.712 277.161 838.804 277.202C838.895 277.245 838.986 277.287 839.075 277.33C839.164 277.372 839.254 277.416 839.346 277.46L839.449 277.504L839.553 277.549L839.659 277.594C839.695 277.608 839.729 277.625 839.762 277.645C839.791 277.661 839.822 277.674 839.854 277.684L839.946 277.723L840.038 277.763L840.13 277.802C844.024 279.586 847.928 281.398 851.781 283.298C855.635 285.198 859.429 287.178 863.12 289.309C866.802 291.423 870.37 293.73 873.809 296.219C877.239 298.696 880.485 301.417 883.522 304.363C886.727 307.494 889.594 310.954 892.074 314.685C894.528 318.351 896.546 322.29 898.087 326.423C899.569 330.358 900.452 334.493 900.707 338.689C900.952 342.726 900.384 346.771 899.037 350.584C898.855 351.081 898.659 351.571 898.448 352.055C898.237 352.538 898.012 353.014 897.774 353.483C897.535 353.951 897.282 354.412 897.015 354.864C896.748 355.316 896.468 355.76 896.174 356.195C896.051 356.377 895.926 356.557 895.799 356.735C895.671 356.913 895.542 357.09 895.411 357.266C895.28 357.441 895.147 357.615 895.012 357.789C894.878 357.963 894.742 358.135 894.604 358.306C892.054 361.512 888.813 364.101 885.123 365.879C881.413 367.652 877.381 368.652 873.273 368.818C868.955 368.999 864.641 368.372 860.553 366.972C856.168 365.475 852.093 363.189 848.53 360.228C847.298 359.21 846.131 358.116 845.035 356.954C843.949 355.802 842.936 354.584 842.001 353.307C841.074 352.04 840.228 350.716 839.468 349.343C838.713 347.981 838.048 346.57 837.476 345.122C837.208 349.622 837.906 354.128 839.525 358.336C841.233 362.76 843.555 366.922 846.422 370.698C849.451 374.72 852.811 378.481 856.468 381.941C860.149 385.471 864.06 388.78 867.922 391.828C871.785 394.875 875.784 397.992 879.656 401.243C883.524 404.439 887.205 407.853 890.683 411.469C894.057 414.963 897.041 418.812 899.582 422.95C902.079 427.035 903.884 431.504 904.925 436.177C906.038 441.267 905.982 446.544 904.76 451.609C904.166 454.074 903.32 456.47 902.235 458.762C901.141 461.071 899.83 463.272 898.321 465.334L898.179 465.523L898.038 465.71L897.894 465.898L897.747 466.084C894.063 470.899 889.438 474.915 884.153 477.887C881.492 479.382 878.689 480.607 875.784 481.542C872.81 482.499 869.748 483.158 866.644 483.509C860.738 484.053 854.784 483.712 848.979 482.497C843.001 481.246 837.19 479.301 831.662 476.704C825.947 474.029 820.485 470.846 815.34 467.192C810.15 463.519 805.236 459.47 800.638 455.078C799.417 453.914 798.217 452.729 797.039 451.521C795.861 450.314 794.706 449.087 793.574 447.84C792.44 446.592 791.331 445.325 790.247 444.039C789.163 442.753 788.101 441.447 787.062 440.12Z" fill="#F2F2F2"/>
<path d="M882.012 352.974C878.362 351.08 874.852 348.926 871.51 346.53C864.834 341.745 858.87 336.038 853.796 329.578C851.28 326.374 849.001 322.989 846.977 319.453C845.289 316.465 843.79 313.374 842.49 310.198C841.22 307.1 840.153 303.922 839.294 300.686C838.456 297.524 837.831 294.31 837.424 291.065C837.025 287.886 836.85 284.684 836.9 281.48C836.904 281.3 836.909 281.12 836.912 280.942C836.916 280.764 836.92 280.584 836.925 280.404C836.93 280.223 836.936 280.045 836.946 279.869L836.972 279.336C836.819 279.457 836.666 279.579 836.513 279.702L836.057 280.074L835.602 280.448L835.149 280.824L834.858 281.065L834.566 281.307L834.276 281.552L833.988 281.797L834.384 281.331L834.791 280.85C834.925 280.696 835.06 280.542 835.195 280.389C835.33 280.235 835.467 280.084 835.606 279.934L835.934 279.754L836.261 279.576L836.579 279.399L836.902 279.222L836.923 279.215L836.943 279.205L836.964 279.196L836.984 279.188L837.115 279.117L837.244 279.045L837.371 278.973L837.494 278.9L838.059 278.598L838.621 278.3L839.183 278.003L839.745 277.705L839.306 277.486L838.237 276.954L838.244 276.949C838.336 276.989 838.427 277.03 838.517 277.074C838.608 277.117 838.698 277.159 838.79 277.2C838.882 277.243 838.972 277.285 839.061 277.328C839.15 277.37 839.241 277.414 839.332 277.458L839.435 277.502L839.539 277.547L839.645 277.592C839.68 277.606 839.714 277.623 839.747 277.642L839.737 277.812L839.725 277.971L839.716 278.129L839.707 278.29C839.313 283.685 839.594 289.109 840.544 294.435C841.521 299.917 843.124 305.269 845.323 310.386C847.595 315.681 850.434 320.715 853.793 325.398C857.262 330.242 861.238 334.703 865.652 338.706C870.094 342.679 874.941 346.176 880.112 349.14C882.665 350.604 885.295 351.931 887.989 353.115C890.661 354.288 893.394 355.315 896.177 356.192C896.054 356.374 895.929 356.554 895.802 356.732C895.674 356.91 895.545 357.087 895.414 357.262C895.283 357.437 895.15 357.612 895.015 357.786C894.881 357.959 894.745 358.132 894.607 358.303C893.534 357.947 892.466 357.569 891.404 357.168C890.343 356.767 889.286 356.345 888.235 355.9C887.184 355.455 886.14 354.988 885.103 354.5C884.066 354.011 883.036 353.503 882.012 352.974Z" fill="white"/>
<path d="M809.762 393.299C808.567 391.514 807.439 389.697 806.378 387.847C805.317 385.996 804.325 384.12 803.403 382.217C802.482 380.315 801.63 378.388 800.849 376.438C800.068 374.487 799.36 372.52 798.726 370.535C798.403 369.483 798.104 368.426 797.83 367.366C797.557 366.306 797.309 365.244 797.087 364.181C796.865 363.118 796.668 362.052 796.496 360.984C796.324 359.915 796.178 358.848 796.06 357.782C796 357.285 795.946 356.787 795.898 356.288C795.85 355.789 795.807 355.291 795.77 354.792C795.733 354.294 795.702 353.796 795.676 353.298C795.65 352.801 795.629 352.304 795.613 351.808C795.852 351.05 796.094 350.295 796.341 349.542C796.588 348.79 796.838 348.041 797.093 347.295C797.348 346.55 797.607 345.807 797.871 345.068C798.135 344.329 798.403 343.592 798.676 342.858C798.616 343.473 798.565 344.089 798.523 344.707C798.481 345.325 798.448 345.945 798.423 346.566C798.398 347.188 798.382 347.811 798.374 348.435C798.367 349.06 798.368 349.686 798.378 350.313C798.377 350.655 798.38 350.996 798.387 351.338C798.394 351.679 798.403 352.021 798.414 352.363C798.426 352.705 798.441 353.046 798.459 353.388C798.477 353.73 798.497 354.072 798.52 354.414C798.783 358.248 799.384 362.052 800.318 365.78C801.263 369.553 802.496 373.249 804.006 376.834C805.545 380.488 807.319 384.038 809.318 387.462C811.351 390.946 813.574 394.316 815.977 397.555C818.564 401.053 821.297 404.458 824.179 407.771C827.06 411.085 830.051 414.307 833.151 417.439C836.254 420.568 839.447 423.6 842.732 426.535C846.017 429.471 849.357 432.305 852.752 435.037C856.228 437.842 859.774 440.541 863.391 443.133C867.008 445.726 870.684 448.204 874.418 450.569C878.152 452.934 881.941 455.183 885.787 457.317C889.632 459.451 893.521 461.462 897.453 463.352C897.634 463.44 897.797 463.561 897.934 463.708C898.069 463.851 898.178 464.017 898.256 464.197C898.334 464.376 898.38 464.566 898.392 464.76C898.404 464.955 898.378 465.151 898.316 465.337C898.296 465.417 898.268 465.495 898.232 465.569C898.197 465.642 898.155 465.711 898.106 465.774C898.058 465.838 898.003 465.896 897.943 465.948C897.882 465.999 897.816 466.044 897.747 466.082C897.673 466.115 897.595 466.14 897.516 466.154C897.436 466.168 897.354 466.172 897.273 466.167C897.19 466.161 897.109 466.146 897.029 466.121C896.947 466.097 896.868 466.063 896.794 466.021C896.308 465.787 895.822 465.553 895.337 465.319C894.851 465.084 894.367 464.847 893.883 464.609C893.399 464.371 892.916 464.131 892.434 463.889C891.952 463.647 891.47 463.401 890.988 463.152C886.98 461.093 883.026 458.91 879.124 456.605C875.223 454.299 871.381 451.873 867.597 449.327C863.814 446.781 860.1 444.121 856.454 441.347C852.808 438.573 849.239 435.688 845.747 432.693C842.374 429.81 839.044 426.829 835.794 423.747C832.543 420.665 829.374 417.484 826.324 414.201C823.273 410.919 820.344 407.537 817.569 404.052C814.794 400.567 812.181 396.985 809.762 393.299Z" fill="white"/>
<path d="M885.268 106.884L882.397 107.257L901.647 35.008C903.066 30.1836 903.297 25.0878 902.32 20.155C901.473 16.1244 899.379 12.4629 896.333 9.68996C893.143 6.91744 889.235 5.10334 885.058 4.45697C879.971 3.6692 874.778 3.9017 869.782 5.14096V5.14096L738.954 34.935C734.388 36.0428 730.017 37.8409 725.993 40.267C721.617 42.8694 717.547 45.9555 713.859 49.467C710.066 53.0477 706.661 57.0187 703.7 61.314C700.809 65.4714 698.451 69.9761 696.684 74.722V74.722L559.799 451.221C557.524 457.412 556.045 463.867 555.399 470.431C554.8 476.258 555.083 482.143 556.238 487.886C557.202 492.876 559.216 497.604 562.146 501.757C564.833 505.533 568.619 508.389 572.988 509.935V509.935L711.216 557.521C717.357 559.612 723.948 560.004 730.293 558.657C737.076 557.179 743.456 554.242 748.988 550.048C755.201 545.38 760.543 539.655 764.77 533.135C769.452 525.971 772.951 518.101 775.131 509.825V509.825L867.803 162.017L870.711 161.784L885.268 106.884Z" fill="#2F2E41"/>
<path d="M875.268 102.884L872.397 103.257L891.647 31.008C893.066 26.1836 893.297 21.0878 892.32 16.155C891.473 12.1244 889.379 8.46286 886.333 5.68996C883.143 2.91744 879.235 1.10334 875.058 0.456969C869.971 -0.330803 864.778 -0.0982962 859.782 1.14096L728.954 30.935C724.388 32.0428 720.017 33.8409 715.993 36.267C711.617 38.8694 707.547 41.9555 703.859 45.467C700.066 49.0477 696.661 53.0187 693.7 57.314C690.809 61.4714 688.451 65.9761 686.684 70.722V70.722L549.799 447.221C547.524 453.412 546.045 459.867 545.399 466.431C544.8 472.258 545.083 478.143 546.238 483.886C547.202 488.876 549.216 493.604 552.146 497.757C554.833 501.533 558.619 504.389 562.988 505.935V505.935L701.216 553.521C707.357 555.612 713.948 556.004 720.293 554.657C727.076 553.179 733.456 550.242 738.988 546.048C745.201 541.38 750.543 535.655 754.77 529.135C759.452 521.971 762.951 514.101 765.131 505.825V505.825L857.803 158.017L860.711 157.784L875.268 102.884Z" fill="#3F3D56"/>
<path d="M858.627 10.5678L839.396 14.7808C839.606 16.4447 839.44 18.1345 838.911 19.7258C838.311 21.5872 837.443 23.3506 836.332 24.9598C833.831 28.6131 830.494 31.6161 826.598 33.7188C826.131 33.9668 825.666 34.1958 825.203 34.4058C824.739 34.6158 824.276 34.8065 823.813 34.9778C823.351 35.1492 822.893 35.3005 822.438 35.4318C821.982 35.5632 821.532 35.6738 821.088 35.7638L745.898 50.9888C744.503 51.313 743.05 51.2965 741.663 50.9408C740.546 50.6411 739.56 49.9774 738.863 49.0548C738.159 48.0642 737.762 46.889 737.721 45.6748C737.663 44.126 737.908 42.5809 738.442 41.1258C738.575 40.7332 738.727 40.3378 738.898 39.9398C739.068 39.5418 739.254 39.1438 739.456 38.7458C739.656 38.3458 739.874 37.9478 740.111 37.5518C740.347 37.1558 740.597 36.7602 740.86 36.3648L726.623 39.4838C723.194 40.2879 719.91 41.617 716.887 43.4238C713.583 45.3698 710.512 47.6846 707.731 50.3238C704.864 53.0202 702.293 56.0145 700.061 59.2558C697.884 62.388 696.115 65.7843 694.796 69.3628L558.168 449.134C556.468 453.8 555.377 458.666 554.922 463.612C554.5 467.977 554.749 472.381 555.659 476.672C556.416 480.38 557.964 483.881 560.196 486.938C562.241 489.71 565.094 491.783 568.363 492.873V492.873L707.608 538.111C712.202 539.584 717.106 539.804 721.814 538.748C726.827 537.6 731.536 535.391 735.624 532.269C740.195 528.807 744.131 524.577 747.256 519.769C750.713 514.487 753.308 508.688 754.943 502.591V502.591L882.169 33.1088C883.236 29.525 883.434 25.7384 882.746 22.0628C882.148 19.0508 880.625 16.3005 878.389 14.1958C876.045 12.0916 873.152 10.6971 870.046 10.1748C866.252 9.53772 862.368 9.67139 858.627 10.5678V10.5678Z" fill="white"/>
<path d="M783.951 190.432H506.955V96.5664H783.951V190.432Z" fill="white"/>
<path d="M702.968 223.562H431.494V355.157H702.968V223.562Z" fill="white"/>
<path d="M475.598 286.754C486.443 286.754 495.234 277.962 495.234 267.117C495.234 256.272 486.443 247.48 475.598 247.48C464.753 247.48 455.961 256.272 455.961 267.117C455.961 277.962 464.753 286.754 475.598 286.754Z" fill="#BBBBBB"/>
<path d="M520.949 254.025C520.081 254.025 519.248 254.37 518.634 254.984C518.021 255.598 517.676 256.43 517.676 257.298C517.676 258.166 518.021 258.999 518.634 259.612C519.248 260.226 520.081 260.571 520.949 260.571H675.237C676.104 260.569 676.934 260.223 677.546 259.61C678.158 258.996 678.502 258.165 678.502 257.298C678.502 256.432 678.158 255.6 677.546 254.987C676.934 254.373 676.104 254.028 675.237 254.025H520.949Z" fill="#E6E6E6"/>
<path d="M520.948 273.662C520.518 273.661 520.092 273.744 519.694 273.907C519.296 274.071 518.934 274.311 518.629 274.614C518.324 274.918 518.082 275.278 517.916 275.675C517.751 276.072 517.665 276.498 517.664 276.928C517.663 277.358 517.747 277.784 517.911 278.182C518.075 278.58 518.315 278.941 518.619 279.246C518.923 279.55 519.284 279.792 519.681 279.957C520.078 280.122 520.504 280.207 520.934 280.208H587.339C587.769 280.208 588.194 280.123 588.591 279.959C588.988 279.794 589.349 279.553 589.653 279.249C589.957 278.945 590.198 278.584 590.363 278.187C590.527 277.79 590.612 277.365 590.612 276.935C590.612 276.505 590.527 276.08 590.363 275.682C590.198 275.285 589.957 274.925 589.653 274.621C589.349 274.317 588.988 274.076 588.591 273.911C588.194 273.747 587.769 273.662 587.339 273.662H520.948Z" fill="#E6E6E6"/>
<path d="M460.535 305.056C458.045 305.056 456.02 306.524 456.02 308.328C456.02 310.133 458.045 311.601 460.535 311.601H673.406C675.896 311.601 677.922 310.133 677.922 308.328C677.922 306.524 675.896 305.056 673.406 305.056H460.535Z" fill="#E6E6E6"/>
<path d="M460.535 324.692C458.045 324.692 456.02 326.161 456.02 327.965C456.02 329.77 458.045 331.238 460.535 331.238H624.406C626.896 331.238 628.922 329.77 628.922 327.965C628.922 326.161 626.896 324.692 624.406 324.692H460.535Z" fill="#E6E6E6"/>
<path d="M705.73 357.918H428.734V220.801H705.73V357.918ZM434.256 352.397H700.209V226.322H434.256V352.397Z" fill="#E6E6E6"/>
<path d="M553.818 162.52C564.664 162.52 573.455 153.728 573.455 142.883C573.455 132.038 564.664 123.246 553.818 123.246C542.973 123.246 534.182 132.038 534.182 142.883C534.182 153.728 542.973 162.52 553.818 162.52Z" fill="#BBBBBB"/>
<path d="M599.169 129.792C598.301 129.792 597.469 130.137 596.855 130.751C596.241 131.364 595.896 132.197 595.896 133.065C595.896 133.933 596.241 134.765 596.855 135.379C597.469 135.993 598.301 136.338 599.169 136.338H753.458C754.325 136.335 755.155 135.99 755.767 135.376C756.379 134.763 756.723 133.931 756.723 133.065C756.723 132.198 756.379 131.367 755.767 130.753C755.155 130.14 754.325 129.794 753.458 129.792H599.169Z" fill="#E6E6E6"/>
<path d="M599.171 149.429C598.74 149.427 598.314 149.511 597.916 149.674C597.518 149.837 597.157 150.078 596.852 150.381C596.547 150.684 596.304 151.045 596.139 151.442C595.973 151.839 595.888 152.264 595.887 152.695C595.886 153.125 595.97 153.551 596.134 153.949C596.298 154.346 596.538 154.708 596.842 155.012C597.146 155.317 597.506 155.559 597.904 155.724C598.301 155.889 598.727 155.974 599.157 155.974H720.562C721.43 155.974 722.262 155.63 722.876 155.016C723.49 154.402 723.834 153.57 723.834 152.702C723.834 151.834 723.49 151.001 722.876 150.387C722.262 149.774 721.43 149.429 720.562 149.429H599.171Z" fill="#E6E6E6"/>
<path d="M783.951 190.432H506.955V96.5664H783.951V190.432ZM512.477 184.911H778.429V102.088H512.477V184.911Z" fill="#E6E6E6"/>
<path d="M239.685 547.988H253.648L260.291 494.129L239.682 494.13L239.685 547.988Z" fill="#FFB6B6"/>
<path d="M280.578 560.952L236.694 560.954L236.693 543.999L265.69 543.997C269.639 543.997 273.425 545.566 276.217 548.357C279.009 551.149 280.578 554.935 280.578 558.884L280.578 560.952V560.952Z" fill="#2F2E41"/>
<path d="M100.061 529.892L112.297 536.619L144.067 492.624L126.008 482.696L100.061 529.892Z" fill="#FFB6B6"/>
<path d="M129.646 560.954L91.1906 539.812L99.3592 524.954L124.77 538.924C128.23 540.826 130.792 544.025 131.894 547.816C132.995 551.608 132.545 555.682 130.643 559.141L129.646 560.954V560.954Z" fill="#2F2E41"/>
<path d="M239.033 518.094C237.789 518.093 236.588 517.639 235.653 516.817C234.719 515.996 234.116 514.862 233.956 513.628L216.493 379.063C216.416 378.468 216.152 377.913 215.741 377.476C215.329 377.039 214.79 376.744 214.2 376.632C213.61 376.52 213 376.598 212.457 376.853C211.914 377.109 211.466 377.529 211.176 378.055L138.399 510.094C137.798 511.172 136.831 511.998 135.672 512.424C134.514 512.849 133.241 512.844 132.086 512.41L116.222 506.366C115.584 506.123 115.001 505.755 114.508 505.284C114.014 504.812 113.619 504.247 113.347 503.621C113.075 502.994 112.93 502.32 112.922 501.638C112.914 500.955 113.043 500.277 113.3 499.645L163.715 375.799C163.842 375.484 163.929 375.155 163.972 374.818C170.8 321.967 188.174 295.091 193.336 288.112C193.713 287.599 193.961 287.003 194.06 286.374C194.158 285.745 194.103 285.102 193.901 284.499L193.191 282.37C192.908 281.525 192.85 280.621 193.023 279.746C193.196 278.872 193.594 278.058 194.177 277.385C212.778 256.198 245.198 267.759 245.523 267.878L245.686 267.938L245.787 268.077C282.14 317.932 268.699 479.858 265.636 511.812C265.521 513.013 264.986 514.134 264.124 514.978C263.262 515.823 262.13 516.335 260.927 516.424L239.431 518.079C239.298 518.089 239.165 518.094 239.033 518.094Z" fill="#2F2E41"/>
<path d="M229.176 144.188C246.339 144.188 260.251 130.275 260.251 113.113C260.251 95.9508 246.339 82.0381 229.176 82.0381C212.014 82.0381 198.102 95.9508 198.102 113.113C198.102 130.275 212.014 144.188 229.176 144.188Z" fill="#FFB8B8"/>
<path d="M181.135 310.849L272.574 319.172C264.602 291.451 257.298 263.828 263.252 236.305C270.812 211.734 271.515 198.122 251.571 186.55L238.105 156.51L213.735 155.624L201.851 152.367C192.251 167.804 188.323 186.101 190.744 204.117C195.91 243.296 194.515 279.651 181.135 310.849Z" fill="#BBBBBB"/>
<path d="M195.013 172.181L185.815 129.966C183.896 119.973 184.378 109.668 187.22 99.8973C187.53 98.8961 187.903 97.9156 188.337 96.9618C190.883 91.4132 194.886 86.6589 199.92 83.205C204.954 79.751 210.83 77.7267 216.923 77.3475C237.826 75.9037 240.894 78.1073 241.65 79.1942C253.462 78.7172 262.621 83.2806 266.8 91.7255C267.209 92.5637 267.43 93.4814 267.446 94.4141C267.462 95.3468 267.274 96.2716 266.894 97.1236C266.514 97.9756 265.952 98.7339 265.248 99.3451C264.543 99.9564 263.713 100.406 262.816 100.661C256.978 102.345 248.773 104.214 242.619 103.664C230.285 118.459 235.327 145.566 247.841 161.717L248.333 162.352L235.934 164.893L221.526 144.828C221.241 144.431 220.828 144.144 220.357 144.015C219.885 143.885 219.384 143.922 218.936 144.118C218.488 144.314 218.122 144.658 217.897 145.092C217.672 145.526 217.604 146.024 217.702 146.503L222.077 167.754L195.013 172.181Z" fill="#2F2E41"/>
<path d="M867.081 561.282H0V559.101H867.476L867.081 561.282Z" fill="#CACACA"/>
<path d="M372.632 285.853L146.471 445.784L92.2754 369.145L318.436 209.214L372.632 285.853Z" fill="white"/>
<path d="M168.617 395.937C177.472 389.675 179.574 377.421 173.312 368.566C167.05 359.711 154.796 357.609 145.941 363.871C137.086 370.133 134.984 382.387 141.246 391.242C147.508 400.097 159.762 402.199 168.617 395.937Z" fill="#BBBBBB"/>
<path d="M186.75 343.03C186.042 343.532 185.561 344.294 185.414 345.149C185.268 346.005 185.467 346.884 185.968 347.592C186.469 348.301 187.231 348.782 188.087 348.928C188.942 349.075 189.821 348.876 190.53 348.375L316.503 259.292C317.209 258.79 317.687 258.028 317.833 257.174C317.978 256.319 317.779 255.442 317.279 254.735C316.778 254.027 316.018 253.547 315.164 253.399C314.31 253.252 313.432 253.449 312.724 253.947L186.75 343.03Z" fill="#E6E6E6"/>
<path d="M198.087 359.063C197.378 359.563 196.897 360.324 196.749 361.179C196.601 362.034 196.799 362.912 197.298 363.621C197.797 364.331 198.558 364.813 199.412 364.961C200.267 365.11 201.145 364.914 201.855 364.415L201.866 364.407L300.979 294.319C301.688 293.818 302.169 293.056 302.315 292.2C302.462 291.345 302.263 290.466 301.762 289.757C301.514 289.406 301.199 289.108 300.835 288.878C300.472 288.649 300.067 288.494 299.643 288.421C298.788 288.274 297.909 288.474 297.2 288.975L198.087 359.063Z" fill="#E6E6E6"/>
<path d="M372.632 285.853L146.471 445.784L92.2754 369.145L318.436 209.214L372.632 285.853ZM147.792 438.088L364.936 284.533L317.116 216.91L99.9716 370.465L147.792 438.088Z" fill="#E6E6E6"/>
<path d="M889.046 257.458C889.848 257.427 890.647 257.564 891.394 257.858C892.103 258.142 892.745 258.57 893.281 259.113C893.819 259.661 894.239 260.312 894.515 261.028C894.806 261.787 894.939 262.598 894.905 263.41C894.873 264.244 894.679 265.063 894.334 265.822C893.997 266.567 893.528 267.245 892.95 267.822C892.376 268.397 891.701 268.862 890.96 269.194C890.207 269.532 889.395 269.718 888.571 269.74C887.768 269.765 886.969 269.621 886.225 269.319C885.52 269.031 884.881 268.601 884.35 268.054C883.817 267.506 883.402 266.854 883.13 266.138C882.844 265.382 882.714 264.575 882.75 263.767C882.783 262.938 882.976 262.123 883.319 261.367C883.654 260.63 884.118 259.958 884.691 259.385C885.261 258.812 885.931 258.347 886.667 258.012C887.416 257.673 888.224 257.485 889.046 257.458V257.458Z" fill="#F2F2F2"/>
<path d="M253.206 335.419L238.499 255.021L239.535 205.301L206.389 204.266L212.604 260.2L234.036 337.764C232.257 339.926 231.167 342.572 230.906 345.36C230.646 348.147 231.227 350.949 232.574 353.404C233.921 355.858 235.973 357.852 238.465 359.129C240.957 360.406 243.774 360.907 246.553 360.567C249.333 360.227 251.946 359.062 254.057 357.222C256.167 355.382 257.678 352.952 258.394 350.246C259.111 347.539 258.999 344.68 258.074 342.037C257.149 339.394 255.454 337.089 253.206 335.419H253.206Z" fill="#FFB8B8"/>
<path d="M204.316 209.445C216.326 204.871 229.597 204.871 241.606 209.445L239.535 168.012C239.535 165.835 239.106 163.68 238.273 161.669C237.44 159.659 236.219 157.832 234.68 156.293C233.141 154.754 231.314 153.533 229.304 152.7C227.293 151.867 225.138 151.438 222.961 151.438V151.438C220.785 151.438 218.63 151.867 216.619 152.7C214.608 153.533 212.781 154.754 211.242 156.293C209.703 157.832 208.483 159.659 207.65 161.669C206.817 163.68 206.388 165.835 206.388 168.012L204.316 209.445Z" fill="#BBBBBB"/>
</g>
<defs>
<clipPath id="clip0">
<rect width="905.719" height="561.282" fill="white"/>
</clipPath>
</defs>
</svg>
