<svg width="862" height="626" viewBox="0 0 862 626" fill="none" xmlns="http://www.w3.org/2000/svg">
<g clip-path="url(#clip0_1224:1438)">
<path opacity="0.1" d="M838.992 140.954C804.554 85.7325 746.51 46.9012 683.75 37.0321C627.116 28.1346 567.449 42.946 520.533 76.8958L530.873 68.7196C493.918 92.899 445.91 91.32 403.869 78.733C361.827 66.146 323.212 43.6975 282.239 27.7551C247.922 14.4075 211.996 5.65963 175.391 1.73847C123.184 -3.87935 64.8587 2.92277 28.51 42.0729C-11.9929 85.6718 -8.88491 164.298 34.9307 204.337C57.2099 224.698 86.3951 234.703 111.843 250.578C137.291 266.452 160.851 292.871 158.683 323.549C156.674 351.949 133.349 373.729 109.213 387.394C90.5492 397.97 67.5726 409.509 65.3211 431.426C63.1455 452.607 82.4684 469.202 100.95 478.646C161.139 509.43 235.292 509.134 295.255 477.887C316.647 466.735 336.311 451.893 358.742 443.201C417.643 420.372 482.547 443.352 544.92 451.756C597.888 458.859 651.742 455.192 703.263 440.976C734.153 432.443 765.158 419.401 786.854 395.107C802.447 377.525 812.218 355.38 821.398 333.494C831.162 310.142 840.544 286.625 849.545 262.944C854.942 248.725 860.264 234.233 861.674 219.027C864.16 191.454 853.502 164.2 838.992 140.954ZM232.192 144.849H176.975C175.455 144.849 173.998 144.244 172.923 143.168C171.848 142.091 171.244 140.632 171.244 139.109C171.244 137.587 171.848 136.127 172.923 135.051C173.998 133.975 175.455 133.37 176.975 133.37H195.926C195.509 132.7 195.234 131.95 195.121 131.168C195.007 130.386 195.056 129.589 195.266 128.827C195.475 128.065 195.84 127.355 196.337 126.741C196.835 126.128 197.454 125.624 198.155 125.262H191.947C190.427 125.262 188.969 124.658 187.894 123.581C186.82 122.505 186.216 121.045 186.216 119.523C186.216 118.001 186.82 116.541 187.894 115.465C188.969 114.388 190.427 113.784 191.947 113.784H247.156C248.442 113.777 249.693 114.204 250.707 114.996C251.721 115.788 252.44 116.898 252.748 118.148C253.056 119.399 252.935 120.717 252.405 121.89C251.875 123.063 250.966 124.024 249.824 124.617H256.04C257.56 124.617 259.018 125.222 260.093 126.298C261.167 127.374 261.771 128.834 261.771 130.356C261.771 131.878 261.167 133.338 260.093 134.415C259.018 135.491 257.56 136.096 256.04 136.096H237.089C237.661 137.004 237.964 138.058 237.961 139.132C237.951 140.656 237.338 142.113 236.256 143.185C235.175 144.256 233.713 144.855 232.192 144.849ZM323.219 226.709H304.268C304.81 227.577 305.11 228.574 305.136 229.597C305.163 230.62 304.915 231.631 304.419 232.526C303.923 233.42 303.197 234.165 302.315 234.683C301.434 235.201 300.43 235.473 299.409 235.47H244.199C242.68 235.47 241.222 234.866 240.147 233.789C239.072 232.713 238.469 231.253 238.469 229.731C238.469 228.209 239.072 226.749 240.147 225.673C241.222 224.596 242.68 223.992 244.199 223.992H263.151C262.733 223.321 262.459 222.57 262.346 221.788C262.233 221.006 262.283 220.208 262.493 219.447C262.704 218.685 263.069 217.975 263.567 217.361C264.065 216.748 264.685 216.245 265.387 215.884H259.171C257.651 215.884 256.193 215.279 255.119 214.203C254.044 213.126 253.44 211.667 253.44 210.144C253.44 208.622 254.044 207.163 255.119 206.086C256.193 205.01 257.651 204.405 259.171 204.405H314.38C315.665 204.402 316.913 204.831 317.924 205.625C318.935 206.418 319.65 207.528 319.955 208.778C320.259 210.028 320.135 211.343 319.603 212.514C319.07 213.684 318.16 214.641 317.018 215.231H323.227C324.747 215.231 326.204 215.836 327.279 216.912C328.354 217.988 328.958 219.448 328.958 220.97C328.958 222.492 328.354 223.952 327.279 225.028C326.204 226.105 324.747 226.709 323.227 226.709H323.219ZM406.332 165.263L407.227 166.659C405.338 166.88 403.425 166.688 401.617 166.098C398.842 165.882 396.187 164.873 393.969 163.19L398.812 162.378C398.752 160.928 399.275 159.007 400.715 156.456L403.944 161.52L412.601 160.078C411.025 162.348 408.857 164.141 406.332 165.263ZM533.875 223.597L534.77 224.994C532.881 225.209 530.969 225.018 529.16 224.432C526.385 224.216 523.73 223.207 521.511 221.524L526.355 220.712C526.295 219.262 526.818 217.341 528.258 214.791L531.487 219.854L540.144 218.412C538.568 220.682 536.399 222.476 533.875 223.597V223.597ZM634.416 175.587L635.311 176.984C633.422 177.204 631.509 177.013 629.701 176.422C626.914 176.2 624.25 175.177 622.029 173.477L626.873 172.664C626.813 171.214 627.336 169.294 628.776 166.743L632.005 171.807L640.655 170.364C639.094 172.646 636.935 174.453 634.416 175.587V175.587ZM702.383 115.378H683.432C683.974 116.245 684.274 117.242 684.301 118.265C684.327 119.288 684.08 120.3 683.583 121.194C683.087 122.089 682.361 122.834 681.48 123.351C680.598 123.869 679.595 124.141 678.573 124.139H623.379C621.859 124.139 620.401 123.534 619.326 122.458C618.252 121.381 617.648 119.922 617.648 118.399C617.648 116.877 618.252 115.417 619.326 114.341C620.401 113.265 621.859 112.66 623.379 112.66H642.33C641.914 111.987 641.642 111.234 641.532 110.45C641.421 109.666 641.475 108.868 641.688 108.106C641.902 107.344 642.272 106.634 642.774 106.022C643.276 105.411 643.899 104.91 644.604 104.552H638.388C636.868 104.552 635.411 103.948 634.336 102.871C633.261 101.795 632.657 100.335 632.657 98.8129C632.657 97.2908 633.261 95.831 634.336 94.7546C635.411 93.6783 636.868 93.0736 638.388 93.0736H693.597C694.882 93.0704 696.13 93.4999 697.141 94.293C698.152 95.0862 698.868 96.1968 699.172 97.4464C699.477 98.696 699.353 100.012 698.82 101.182C698.287 102.353 697.377 103.31 696.236 103.899H702.383C703.903 103.899 705.361 104.504 706.436 105.58C707.51 106.657 708.114 108.116 708.114 109.639C708.114 111.161 707.51 112.621 706.436 113.697C705.361 114.773 703.903 115.378 702.383 115.378V115.378Z" fill="#BBBBBB"/>
<path opacity="0.1" d="M472.563 626C496.733 626 516.326 619.868 516.326 612.305C516.326 604.741 496.733 598.609 472.563 598.609C448.394 598.609 428.801 604.741 428.801 612.305C428.801 619.868 448.394 626 472.563 626Z" fill="#BBBBBB"/>
<path opacity="0.1" d="M539.318 534.915C552.33 534.915 562.879 531.615 562.879 527.543C562.879 523.472 552.33 520.172 539.318 520.172C526.306 520.172 515.758 523.472 515.758 527.543C515.758 531.615 526.306 534.915 539.318 534.915Z" fill="#BBBBBB"/>
<path opacity="0.1" d="M661.099 555.564C674.111 555.564 684.66 552.264 684.66 548.193C684.66 544.122 674.111 540.821 661.099 540.821C648.087 540.821 637.539 544.122 637.539 548.193C637.539 552.264 648.087 555.564 661.099 555.564Z" fill="#BBBBBB"/>
<path opacity="0.1" d="M708.032 617.907C732.201 617.907 751.795 611.776 751.795 604.212C751.795 596.648 732.201 590.517 708.032 590.517C683.863 590.517 664.27 596.648 664.27 604.212C664.27 611.776 683.863 617.907 708.032 617.907Z" fill="#BBBBBB"/>
<path d="M823.249 245.833C819.944 239.304 815.486 256.279 815.486 258.291C815.486 259.157 814.501 260.143 813.371 260.986C813.182 261.13 812.992 261.267 812.795 261.396C812.443 260.722 811.874 260.187 811.18 259.878C807.299 258.792 801.485 265.101 801.485 265.101C801.485 265.101 790.925 269.238 784.679 270.324C778.433 271.41 773.05 275.767 773.05 275.767C773.05 275.767 762.923 279.472 759.261 277.513C756.942 276.268 749.952 275.555 744.32 275.137C744.259 275.016 744.206 274.894 744.153 274.773C742.742 271.851 740.902 269.156 738.695 266.779C736.792 264.736 734.571 262.854 733.525 260.265C733.434 260.037 733.358 259.809 733.283 259.574C737.194 255.991 741.265 251.307 741.341 247.253C741.424 242.698 734.655 241.848 729.015 241.939C727.575 241.939 726.157 241.939 724.883 242.037C724.062 240.764 723.067 239.612 721.927 238.614L721.775 237.604L719.865 225.047C717.699 221.417 714.553 218.474 710.79 216.556C707.027 214.638 702.799 213.824 698.594 214.206C698.594 214.206 681.917 216.089 680.795 223.491C680.139 227.558 679.269 231.587 678.187 235.562C678.074 235.949 677.983 236.26 677.914 236.503C676.338 236.936 675.178 237.262 674.579 237.475C668.742 238.09 661.654 240.117 661.23 246.304C660.805 252.491 661.229 257.691 664.648 261.335C665.217 262.429 665.816 263.507 666.278 264.645C667.171 266.913 667.495 269.364 667.223 271.786C666.951 274.208 666.09 276.526 664.717 278.538C662.367 281.894 658.735 284.088 655.893 287.026C653.492 289.47 651.942 292.625 651.473 296.022L651.109 296.075C649.112 299.248 647.58 302.691 646.561 306.301C645.265 311.524 635.145 322.41 635.145 322.41C635.145 322.41 625.472 334.785 621.379 336.531C617.285 338.277 615.776 339.795 615.776 339.795L613.616 341.313C613.616 341.313 611.895 343.925 610.174 345.011C608.454 346.096 585.159 363.952 585.159 363.952C585.159 363.952 574.174 368.082 572.666 371.346C572.279 372.174 572.825 373.624 573.848 375.271L572.81 375.825C570.005 377.343 566.541 379.12 563.653 380.38C563.655 380.335 563.655 380.289 563.653 380.243C563.653 380.243 561.917 376.516 560.492 373.069C560.241 372.454 559.991 371.847 559.733 371.27C561.083 371.376 561.932 371.468 561.932 371.468C561.932 371.468 561.356 365.66 563.084 365.394C564.812 365.128 561.833 360.46 561.833 360.46L561.075 356.11C561.075 356.11 562.804 345.367 561.075 343.044C559.347 340.721 557.346 334.344 557.346 334.344C557.346 334.344 559.066 328.825 557.346 327.087C555.625 325.348 554.761 320.118 554.761 320.118C554.761 320.118 553.32 309.094 549.591 302.125C545.861 295.156 539.531 281.81 539.531 281.81L534.649 265.868C534.649 265.868 520.004 238.872 505.639 229.595C491.273 220.318 470.768 218.966 470.768 218.966C470.7 218.792 470.624 218.625 470.556 218.45C470.004 217.05 469.539 215.618 469.161 214.161C469.1 213.918 469.055 213.675 469.002 213.402C474.048 209.071 477.372 203.068 478.368 196.488C479.365 189.908 477.967 183.188 474.429 177.554C474.217 177.22 473.997 176.901 473.77 176.582C475.208 175.812 476.441 174.708 477.364 173.362C478.287 172.015 478.875 170.467 479.076 168.846C479.531 164.853 474.528 161.391 471.579 159.326C471.284 159.114 470.973 158.909 470.662 158.719L470.268 158.476L469.737 158.172C469.57 158.081 469.396 157.983 469.214 157.899L468.812 157.694C466.826 156.675 464.623 156.154 462.392 156.176C459.625 156.267 456.971 157.36 454.212 157.527C448.072 157.907 441.75 153.731 436.057 156.108C431.872 157.838 429.174 162.758 424.686 163.236C423.427 163.373 422.162 163.122 420.896 163.191C420.261 163.172 419.632 163.316 419.069 163.608C418.505 163.9 418.025 164.331 417.674 164.861C417.174 165.81 417.34 166.964 417.469 168.034C418.018 172.714 417.459 177.457 415.839 181.881C411.556 180.295 398.23 186.117 397.305 188.714C396.6 190.718 391.612 196.48 388.276 200.2L387.427 201.141C387.398 200.738 387.46 200.333 387.609 199.957L379.271 205.18C379.271 205.18 370.659 206.903 367.498 214.168C364.337 221.434 355.195 223.203 355.195 223.203L349.456 232.776C349.456 232.776 335.091 238.849 334.227 257.152C333.363 275.456 345.105 274.279 345.105 274.279C349.98 275.729 373.244 274.279 373.244 274.279C373.244 274.279 391.635 262.087 393.067 271.083C394.5 280.079 400.254 310.256 404.567 313.452C408.88 316.648 410.882 327.671 410.882 327.671C410.882 327.671 402.543 344.798 408.873 354.083C412.912 360.181 416.28 366.7 418.917 373.525L419.834 373.76L419.251 375.347L415.764 384.7C415.764 384.7 423.23 389.482 422.942 391.813C422.654 394.144 420.933 403.709 420.933 403.709C420.933 403.709 427.832 417.055 426.68 419.378C425.527 421.701 426.808 426.051 426.808 426.051C426.808 426.051 431.561 455.074 435.291 462.62C437.622 467.552 439.067 472.856 439.559 478.29C439.559 478.29 436.451 485.251 438.172 487.574C439.892 489.897 439.559 493.959 439.559 493.959C439.559 493.959 439.286 498.893 439.559 500.351C439.832 501.809 440.438 507.016 441.295 507.889C442.151 508.762 442.455 532.851 454.182 557.235V563.043C454.182 563.043 451.597 566.231 454.182 569.116C454.94 569.936 457.669 569.822 461.209 569.23C461.474 569.739 461.74 570.278 462.02 570.839C463.758 574.222 465.119 577.786 466.076 581.468C466.144 581.733 466.197 581.999 466.25 582.265C464.613 583.024 463.392 584.163 463.809 585.932C464.886 590.487 460.368 603.347 460.368 603.347C460.368 603.347 455.622 610.529 458.639 613.793C461.656 617.057 487.938 619.456 489.014 616.625C490.091 613.793 485.982 596.127 485.982 596.127L482.093 582.925L481.866 581.923C481.047 578.355 479.637 572.054 478.531 566.672C478.417 566.11 478.311 565.563 478.197 565.024C481.639 564.03 484.042 563.263 484.042 563.263C484.042 563.263 478.872 556.294 480.016 553.394C481.161 550.494 476.863 502.606 476.863 502.606C476.863 502.606 474.968 496.866 476.097 493.678C477.227 490.489 472.36 485.555 472.36 485.555L474.376 431.867C474.376 431.867 487.589 474.524 502.811 484.689C502.811 484.689 522.058 487.005 526.083 479.747C526.296 479.368 526.493 478.988 526.682 478.533C526.864 478.768 527.039 479.003 527.198 479.246C527.789 480.118 528.316 481.031 528.774 481.979C528.987 482.404 529.176 482.822 529.343 483.232C529.343 483.232 533.687 495.849 534.695 501.292C535.703 506.736 546.399 497.155 549.636 495.219C552.873 493.283 550.925 479.77 546.399 475.633C544.125 473.59 543.564 470 542.92 465.824L542.753 463.547C542.753 463.547 542.677 463.448 542.526 463.281C541.934 459.66 541.1 455.765 539.076 452.114C536.802 448.09 533.088 447.255 529.639 447.559C528.276 447.68 526.982 448.212 525.928 449.085C524.874 449.958 524.108 451.13 523.733 452.448L523.423 452.599C522.676 452.594 521.93 452.655 521.194 452.782C521.194 452.782 521.194 445.532 519.754 441.751C518.313 437.97 520.33 426.955 520.33 426.955C520.33 426.955 520.913 424.055 519.185 418.543C517.457 413.032 518.328 381.974 518.328 381.974C517.776 379.692 517.108 377.44 516.327 375.225C516.236 374.975 516.138 374.724 516.039 374.466C516.18 374.285 516.274 374.071 516.312 373.844C516.6 371.232 512.575 362.236 517.745 359.336C522.915 356.436 515.471 343.667 515.471 343.667L513.742 305.359C513.742 305.359 508.102 295.035 508.898 292.734L517.768 303.613C517.768 303.613 523.832 315.229 524.09 316.967C524.347 318.706 525.53 323.04 527.251 322.479C528.972 321.917 529.836 330.609 529.836 330.609C529.836 330.609 534.43 340.478 533.573 343.955C532.716 347.432 534.718 350.628 534.718 350.628C534.718 350.628 539.311 358.463 538.743 361.371C538.174 364.278 541.282 372.857 541.32 372.971C541.32 372.971 541.434 373.449 541.593 374.238C542.109 376.736 543.109 382.301 542.798 384.73C542.328 387.919 540.82 410.337 552.456 405.554C553.834 404.982 555.101 404.172 556.201 403.163C556.745 403.633 557.414 403.934 558.126 404.028C563.615 404.787 575.311 392.519 581.126 385.96L581.937 385.041C583.226 386.393 584.128 387.266 584.128 387.266L590.192 384.229C590.192 384.229 627.625 369.175 631.286 362.646C634.948 356.117 656.363 341.966 656.363 341.966C656.363 341.966 659.721 358.288 657.356 360.687C655.082 362.965 647.964 378.254 649.154 383.105C649.198 383.333 649.275 383.553 649.381 383.758C645.94 386.15 649.381 416.843 649.381 416.843C649.381 416.843 650.458 430.986 648.562 440.536C648.153 442.952 648.133 445.417 648.502 447.84C649.26 454.194 651.731 461.178 652.739 465.619C653.141 467.365 653.315 468.724 653.08 469.483C652.004 472.968 654.597 484.72 657.174 486.458C659.751 488.197 658.038 495.568 658.038 495.568C658.038 495.568 656.097 506.667 658.038 509.932C658.412 510.566 658.741 511.226 659.024 511.905L658.516 512.551C654.945 517.106 649.419 525.844 651.504 533.807C654.536 545.263 661.851 551.511 667.302 544.83C672.752 538.15 672.29 526.322 672.29 526.322C672.29 526.322 672.29 524.045 672.426 521.342C672.426 520.773 672.509 520.188 672.562 519.596C673.095 519.634 673.629 519.634 674.162 519.596C678.71 519.163 679.332 516.331 683.638 514.593C687.943 512.854 691.825 505.483 691.825 505.483L692.044 481.949C692.044 481.949 694.197 503.965 695.486 509.37C696.775 514.775 693.97 537.672 693.97 537.672L691.817 558.169L690.741 565.563C691.302 566.937 692.962 567.962 695.206 568.721C695.092 569.222 694.978 569.761 694.849 570.346C693.978 574.445 692.856 580.291 692.681 583.7C692.393 589.363 697.139 605.761 698.132 605.905C699.125 606.05 726.286 613.74 723.147 603.871C720.009 594.002 714.96 593.136 715.688 589.363C716.158 586.865 715.377 578.173 714.786 572.601C714.725 571.971 714.657 571.394 714.604 570.862C717.227 570.862 718.986 570.794 718.986 570.794L718.554 562.299C718.554 562.299 726.961 529.435 726.134 523.126C725.308 516.817 728.916 502.788 728.916 502.788C728.916 502.788 732.153 475.587 731.949 471.116C731.744 466.644 735.83 450.77 735.83 450.77C739.006 439.755 741.537 428.563 743.41 417.253C746.208 399.625 738.665 381.99 738.665 381.99C738.665 381.99 738.597 381.678 738.498 381.132C737.74 377.237 734.905 361.287 738.665 355.001C742.978 347.819 744.267 333.023 744.267 333.023C744.267 333.023 755.259 316.041 754.182 311.691C754.182 311.691 789.515 300.151 791.668 296.454C793.821 292.757 808.899 284.938 808.899 284.938L819.246 281.651C819.246 281.651 818.776 279.305 818.011 276.154L818.723 275.562C821.202 273.497 824.128 271.205 824.916 271.205C826.258 271.243 826.546 252.362 823.249 245.833ZM404.855 222.61H397.964C397.964 222.61 396.448 223.37 394.242 224.645C393.59 225.009 392.893 225.404 392.158 225.867C393.052 222.831 393.939 219.938 393.939 219.938L399.397 214.191C399.397 214.191 398.73 213.736 397.722 212.961C398.116 212.779 398.541 212.582 398.988 212.4C400.224 211.823 401.554 211.475 402.915 211.375C405.719 211.375 411.966 201.141 411.966 201.141C413.307 198.226 414.499 195.243 415.536 192.206C415.939 192.691 416.383 193.14 416.863 193.55C417.1 194.325 417.537 195.024 418.129 195.576C419.273 196.655 420.774 197.474 421.358 198.94C422.26 201.172 420.6 203.973 421.828 206.053C422.373 206.834 423.106 207.466 423.958 207.89C425.967 209.09 428.021 210.206 430.098 211.284L431.728 212.134V212.339C431.69 214.571 431.584 216.962 431.364 219.384C431.364 219.634 431.311 219.885 431.289 220.143C431.289 220.143 417.204 213.926 414.338 216.537C411.473 219.149 406.295 218.564 406.295 218.564C406.295 218.564 407.44 222.61 404.855 222.61Z" fill="url(#paint0_linear_1224:1438)"/>
<path d="M482.699 241.832L451.399 260.242C451.399 260.242 413.754 250.464 424.109 242.113C428.718 238.401 430.651 230.467 431.364 222.8C431.583 220.401 431.69 218.025 431.727 215.815C431.791 211.918 431.644 208.021 431.288 204.14C431.288 204.14 474.944 196.669 469.486 207.89C468.16 210.615 468.266 214.016 469.168 217.615C469.544 219.059 470.01 220.479 470.563 221.866C474.512 231.864 482.699 241.832 482.699 241.832Z" fill="#FFCCD0"/>
<path opacity="0.1" d="M469.488 207.89C468.161 210.615 468.267 214.016 469.169 217.615C464.231 221.883 457.923 224.228 451.4 224.219C444.221 224.219 441.47 218.1 436.595 213.591C436.216 213.234 433.882 214.206 433.563 213.834C433.669 207.267 431.289 204.162 431.289 204.162C431.289 204.162 474.968 196.669 469.488 207.89Z" fill="black"/>
<path d="M478.689 196.024C478.686 202.604 476.311 208.962 472.003 213.93C467.694 218.897 461.74 222.142 455.235 223.066C448.729 223.991 442.109 222.534 436.59 218.964C431.071 215.393 427.024 209.948 425.192 203.629C423.36 197.31 423.866 190.541 426.617 184.565C429.368 178.589 434.179 173.808 440.167 171.1C446.155 168.392 452.918 167.938 459.214 169.822C465.509 171.706 470.914 175.802 474.437 181.357C477.217 185.742 478.692 190.829 478.689 196.024V196.024Z" fill="#FFCCD0"/>
<path opacity="0.1" d="M474.436 181.357C473.953 181.597 473.444 181.786 472.92 181.918C470.768 182.465 468.516 182.23 466.31 182.017C465.962 181.944 465.599 181.989 465.279 182.146C464.893 182.397 464.794 182.905 464.65 183.361C464.051 185.13 462.224 186.162 460.466 186.77C456.874 187.984 453 188.082 449.352 187.05C448.868 186.869 448.352 186.789 447.836 186.815C446.646 186.959 445.941 188.242 445.752 189.427C445.562 190.611 445.676 191.871 445.229 192.972C444.471 194.9 442.303 195.781 440.423 196.631C438.543 197.481 436.473 198.84 436.382 200.913C436.321 202.105 436.951 203.19 437.14 204.375C437.283 205.417 437.114 206.479 436.654 207.425C436.193 208.371 435.463 209.159 434.555 209.689C434.129 211.835 433.559 213.95 432.85 216.02C429.992 213.382 427.73 210.162 426.216 206.578C424.701 202.993 423.969 199.126 424.067 195.234C424.166 191.343 425.093 187.518 426.787 184.015C428.482 180.512 430.903 177.412 433.891 174.921C436.878 172.431 440.362 170.609 444.11 169.577C447.857 168.544 451.781 168.325 455.62 168.935C459.459 169.544 463.124 170.967 466.369 173.11C469.614 175.252 472.364 178.064 474.436 181.357V181.357Z" fill="black"/>
<path d="M471.61 163.289C468.955 161.303 465.736 160.22 462.422 160.199C459.655 160.29 457.002 161.369 454.243 161.536C448.102 161.915 441.78 157.8 436.087 160.131C431.903 161.847 429.204 166.721 424.716 167.199C423.458 167.328 422.192 167.085 420.926 167.146C419.66 167.206 418.303 167.685 417.704 168.801C417.319 169.806 417.248 170.905 417.5 171.951C418.066 176.771 417.433 181.655 415.658 186.17C414.801 188.334 413.664 190.581 414.066 192.874C414.469 194.597 415.461 196.125 416.871 197.193C417.11 197.963 417.546 198.657 418.136 199.205C419.281 200.268 420.782 201.08 421.366 202.53C422.268 204.755 420.608 207.526 421.836 209.591C422.382 210.365 423.115 210.989 423.966 211.405C426.528 212.923 429.146 214.341 431.819 215.656C432.591 213.423 433.212 211.141 433.677 208.824C434.584 208.294 435.315 207.506 435.775 206.56C436.235 205.614 436.405 204.552 436.262 203.51C436.049 202.341 435.42 201.232 435.504 200.048C435.602 197.975 437.656 196.609 439.544 195.759C441.432 194.908 443.584 194.028 444.358 192.107C444.805 190.999 444.684 189.746 444.873 188.562C445.063 187.377 445.768 186.087 446.958 185.943C447.474 185.919 447.99 186.002 448.474 186.186C452.123 187.211 455.996 187.111 459.587 185.897C461.353 185.297 463.18 184.257 463.771 182.488C463.915 182.041 464.014 181.524 464.408 181.274C464.725 181.117 465.086 181.071 465.432 181.145C467.637 181.357 469.896 181.585 472.042 181.054C473.911 180.512 475.58 179.431 476.84 177.946C478.101 176.461 478.897 174.638 479.13 172.703C479.562 168.755 474.543 165.339 471.61 163.289Z" fill="#E3787D"/>
<path opacity="0.1" d="M471.61 163.289C470.551 162.546 469.421 161.91 468.237 161.391C468.798 161.709 469.359 162.051 469.889 162.423C472.823 164.473 477.841 167.904 477.379 171.86C477.149 173.794 476.354 175.618 475.095 177.103C473.836 178.588 472.168 179.669 470.299 180.21C468.146 180.749 465.894 180.514 463.688 180.301C463.34 180.232 462.978 180.277 462.657 180.43C462.263 180.681 462.172 181.19 462.021 181.645C461.437 183.422 459.61 184.454 457.844 185.054C454.251 186.275 450.374 186.376 446.723 185.342C446.239 185.16 445.723 185.078 445.207 185.099C444.017 185.244 443.312 186.534 443.122 187.718C442.933 188.903 443.054 190.155 442.607 191.264C441.849 193.184 439.673 194.073 437.786 194.923C435.898 195.773 433.851 197.132 433.753 199.205C433.692 200.389 434.314 201.482 434.511 202.666C434.654 203.709 434.484 204.771 434.024 205.717C433.564 206.663 432.834 207.451 431.926 207.981C431.458 210.278 430.84 212.543 430.076 214.76C430.652 215.056 431.213 215.367 431.789 215.648C432.561 213.415 433.182 211.132 433.647 208.816C434.554 208.286 435.285 207.498 435.745 206.552C436.205 205.606 436.375 204.544 436.232 203.502C436.019 202.332 435.39 201.224 435.474 200.04C435.572 197.967 437.626 196.601 439.514 195.75C441.401 194.9 443.554 194.02 444.328 192.099C444.775 190.99 444.654 189.738 444.843 188.554C445.033 187.369 445.738 186.079 446.928 185.934C447.444 185.911 447.96 185.994 448.444 186.177C452.093 187.203 455.966 187.102 459.557 185.889C461.323 185.289 463.15 184.249 463.741 182.48C463.885 182.032 463.984 181.516 464.378 181.266C464.695 181.108 465.056 181.063 465.402 181.137C467.607 181.349 469.866 181.577 472.012 181.045C473.881 180.504 475.55 179.423 476.81 177.938C478.071 176.453 478.867 174.63 479.1 172.695C479.562 168.755 474.544 165.338 471.61 163.289Z" fill="black"/>
<path d="M411.966 204.716C411.966 204.716 405.719 214.859 402.915 214.859C401.556 214.96 400.226 215.305 398.988 215.876C397.748 216.391 396.542 216.987 395.38 217.66L385.252 207.092C385.252 207.092 386.541 205.726 388.284 203.805C391.62 200.123 396.623 194.407 397.313 192.418C398.389 189.381 416.264 182.055 417.136 187.02C418.008 191.985 411.966 204.716 411.966 204.716Z" fill="#FFCCD0"/>
<path d="M584.536 383.947C584.536 383.947 583.202 385.549 581.102 387.895C575.288 394.393 563.591 406.548 558.103 405.804C550.643 404.794 554.653 384.949 559.111 384.084C561.817 383.56 568.207 380.341 572.832 377.882C575.864 376.287 578.07 375.02 578.07 375.02L584.536 383.947Z" fill="#CE828D"/>
<path d="M552.433 407.315C540.797 412.067 542.305 389.854 542.775 386.673C543.124 384.267 542.085 378.747 541.57 376.273C541.411 375.513 541.297 375.02 541.297 375.02L544.246 367.55C544.246 367.55 558.649 367.831 558.649 369.774C558.649 370.571 559.49 372.811 560.476 375.179C561.901 378.596 563.637 382.293 563.637 382.293C563.637 382.293 564.069 402.578 552.433 407.315Z" fill="#FFCCD0"/>
<path d="M482.632 585.104C482.632 585.104 464.749 595.026 466.47 587.692C466.81 585.715 466.701 583.686 466.151 581.756C465.193 578.099 463.833 574.56 462.096 571.203C460.33 567.635 458.715 565.039 458.715 565.039C458.715 565.039 476.81 553.598 477.029 557.918C477.405 561.013 477.938 564.086 478.629 567.127C479.736 572.486 481.146 578.704 481.964 582.241L482.632 585.104Z" fill="#BBBBBB"/>
<path opacity="0.1" d="M482.631 585.104C482.631 585.104 464.748 595.026 466.469 587.692C466.809 585.715 466.7 583.686 466.15 581.756C468.194 580.939 470.358 580.464 472.556 580.351C474.914 578.62 480.758 581.589 481.963 582.241L482.631 585.104Z" fill="black"/>
<path d="M472.557 581.217C472.557 581.217 462.808 581.649 463.885 586.182C464.961 590.714 460.443 603.437 460.443 603.437C460.443 603.437 455.698 610.558 458.715 613.8C461.732 617.042 488.014 619.41 489.09 616.601C490.167 613.792 486.058 596.324 486.058 596.324L482.192 583.259C482.192 583.259 475.195 579.273 472.557 581.217Z" fill="#BBBBBB"/>
<path d="M544.246 484.848L530.813 488.644C530.325 486.727 529.642 484.865 528.774 483.087C528.315 482.146 527.788 481.241 527.197 480.377C525.067 477.295 521.891 474.835 517.388 476.217C507.533 479.253 517.388 456.691 517.388 456.691C517.388 456.691 520.056 455.552 522.747 454.277L523.376 453.966C525.552 452.895 527.621 451.772 528.129 451.119C529.1 449.889 538.06 459.591 541.463 463.356C542.267 464.245 542.752 464.806 542.752 464.806L543.381 473.271L544.246 484.848Z" fill="#BBBBBB"/>
<path opacity="0.1" d="M544.247 484.848L530.814 488.644C530.326 486.727 529.643 484.865 528.775 483.087C529.321 481.288 530.784 478.259 534.339 478.714C538.433 479.246 537.856 464.913 532.11 461.459C526.364 458.004 522.915 457.792 522.915 457.792C522.548 456.656 522.49 455.442 522.748 454.277L523.378 453.966C525.553 452.895 527.623 451.772 528.131 451.119C529.101 449.889 538.061 459.591 541.465 463.356C542.139 467.076 542.435 470.576 543.383 473.271L544.247 484.848Z" fill="black"/>
<path d="M523.779 457.807C523.465 456.836 523.374 455.807 523.512 454.796C523.65 453.785 524.015 452.819 524.578 451.969C525.141 451.118 525.889 450.407 526.765 449.886C527.641 449.366 528.624 449.05 529.639 448.962C533.088 448.666 536.84 449.501 539.076 453.517C544.034 462.369 541.874 472.732 546.399 476.831C550.925 480.931 552.866 494.292 549.636 496.243C546.407 498.194 535.703 507.676 534.695 502.279C533.687 496.881 529.343 484.377 529.343 484.377C529.343 484.377 530.207 478.114 535.195 478.76C539.296 479.291 538.72 464.958 532.974 461.504C527.228 458.05 523.779 457.837 523.779 457.837V457.807Z" fill="#BBBBBB"/>
<path opacity="0.1" d="M478.629 567.126C474.005 568.463 467.319 570.277 462.096 571.203C460.33 567.635 458.715 565.039 458.715 565.039C458.715 565.039 476.81 553.598 477.029 557.918C477.405 561.013 477.938 564.086 478.629 567.126V567.126Z" fill="black"/>
<path opacity="0.1" d="M527.197 480.392C525.067 477.31 521.891 474.851 517.388 476.232C507.533 479.269 517.388 456.706 517.388 456.706C517.388 456.706 520.488 455.385 523.376 453.981C525.158 453.86 528.243 454.042 529.236 456.441C530.638 459.819 530.942 473.082 527.197 480.392Z" fill="black"/>
<path d="M526.082 480.893C522.057 488.082 502.81 485.782 502.81 485.782C487.588 475.715 474.375 433.399 474.375 433.399L472.358 486.625C472.358 486.625 477.24 491.506 476.096 494.679C474.951 497.853 476.96 503.592 476.96 503.592C476.96 503.592 481.266 551.055 480.113 553.94C478.961 556.825 484.139 563.718 484.139 563.718C484.139 563.718 456.849 572.35 454.256 569.472C451.664 566.595 454.256 563.399 454.256 563.399V557.637C442.491 533.473 442.195 509.597 441.369 508.731C440.543 507.866 439.936 502.658 439.633 501.261C439.33 499.864 439.633 494.922 439.633 494.922C439.633 494.922 439.967 490.899 438.246 488.598C436.525 486.298 439.633 479.39 439.633 479.39C439.141 474 437.695 468.741 435.365 463.857C431.636 456.379 426.883 427.607 426.883 427.607C426.883 427.607 425.602 423.287 426.754 420.995C427.906 418.702 421.008 405.462 421.008 405.462C421.008 405.462 422.736 395.965 423.017 393.665C423.297 391.365 415.838 386.612 415.838 386.612L419.325 377.343L423.017 367.474C423.017 367.474 508.616 369.197 512.065 370.343C513.733 370.897 515.257 374.056 516.394 377.176C517.176 379.369 517.844 381.601 518.395 383.864C518.395 383.864 517.531 414.641 519.252 420.107C520.973 425.573 520.396 428.457 520.396 428.457C520.396 428.457 518.395 439.389 519.82 443.124C521.245 446.859 521.261 454.064 521.261 454.064C521.261 454.064 527.007 452.91 528.439 456.341C529.872 459.773 530.092 473.704 526.082 480.893Z" fill="#BBBBBB"/>
<path d="M698.139 605.882C697.146 605.745 692.4 589.484 692.688 583.866C692.863 580.488 693.985 574.695 694.856 570.626C695.433 567.962 695.895 566.071 695.895 566.071L714.232 568.075C714.232 568.075 714.475 570.08 714.77 572.889C715.362 578.408 716.143 587.024 715.673 589.499C714.915 593.249 719.978 594.107 723.132 603.885C726.285 613.663 699.147 606.034 698.139 605.882Z" fill="#BBBBBB"/>
<path d="M674.01 513.97C673.032 515.564 672.607 519.125 672.425 522.123C672.251 524.818 672.289 527.065 672.289 527.065C672.289 527.065 672.721 538.863 667.263 545.468C661.805 552.072 654.482 545.9 651.465 534.543C649.373 526.648 654.907 518.009 658.477 513.469C660.046 511.48 661.229 510.28 661.229 510.28C661.229 510.28 675.852 510.948 674.01 513.97Z" fill="#BBBBBB"/>
<path d="M682.265 240.534C682.265 240.534 661.95 238.955 661.229 249.454C660.509 259.953 662.298 268.038 677.854 269.321C693.409 270.604 687.799 240.739 687.799 240.739L682.265 240.534Z" fill="#808080"/>
<path d="M719.865 245.803C719.865 245.803 739.794 242.69 739.65 250.464C739.506 258.238 724.436 268.343 724.436 268.343L719.865 245.803Z" fill="#808080"/>
<path opacity="0.15" d="M683.016 240.534C683.016 240.534 662.708 238.955 661.988 249.454C661.267 259.953 663.049 268.038 678.604 269.321C694.159 270.604 688.557 240.739 688.557 240.739L683.016 240.534Z" fill="black"/>
<path opacity="0.15" d="M721.555 245.803C721.555 245.803 741.484 242.69 741.34 250.464C741.196 258.238 726.118 268.343 726.118 268.343L721.555 245.803Z" fill="black"/>
<path d="M687.98 237.558C682.402 239.802 677.156 242.798 672.387 246.463C671.713 246.875 671.205 247.512 670.954 248.263C670.914 248.867 670.927 249.474 670.992 250.077C670.871 253.114 666.285 253.372 664.223 255.626C662.76 257.221 662.783 259.726 663.465 261.776C664.147 263.825 665.443 265.632 666.262 267.636C667.155 269.883 667.479 272.316 667.207 274.718C666.935 277.121 666.074 279.419 664.701 281.408C662.351 284.74 658.719 286.912 655.877 289.827C652.087 293.752 649.759 300.136 652.776 304.722C654.618 307.531 657.992 308.996 659.963 311.706C662.085 314.644 662.237 318.584 661.729 322.175C661.221 325.766 660.137 329.296 660.107 332.925C660.038 340.015 664.147 346.741 669.87 350.924C675.594 355.107 682.757 356.998 689.815 357.377C692.324 357.522 694.932 357.476 697.214 356.428C699.495 355.381 701.284 353.392 702.846 351.372C707.554 345.305 711.168 338.461 713.527 331.148C714.55 327.983 715.399 324.619 717.598 322.129C719.207 320.506 721.077 319.166 723.131 318.167L733.229 312.503C736.541 310.643 740.172 308.381 741.044 304.684C742.03 300.493 739.119 295.619 741.484 292.021C742.242 290.852 743.485 290.055 744.357 288.984C746.805 285.887 745.873 281.317 744.137 277.771C742.723 274.869 740.883 272.195 738.679 269.838C736.776 267.819 734.555 265.959 733.509 263.385C732.706 261.411 732.675 259.187 731.955 257.183C730.439 253.007 726.33 250.464 723.571 246.995C721.297 244.118 719.91 240.542 717.249 238.029C712.936 233.945 708.152 235.25 702.846 235.41C700.223 235.493 697.782 234.522 695.197 234.476C692.165 234.393 690.838 236.412 687.98 237.558Z" fill="#663D5C"/>
<path d="M722.373 244.831L677.754 240.276C677.754 240.276 677.913 239.745 678.186 238.758C679.258 234.828 680.121 230.845 680.771 226.824C681.916 219.536 698.593 217.668 698.593 217.668C702.796 217.28 707.023 218.087 710.789 219.995C714.556 221.903 717.709 224.835 719.887 228.456L721.774 240.876L722.373 244.831Z" fill="#BBBBBB"/>
<path d="M730.819 293.182L723.928 310.871L694.842 315.836C694.842 315.836 660.805 308.502 676.527 293.182C678.356 291.423 680.049 289.528 681.591 287.511C683.128 285.527 684.362 283.324 685.252 280.975C687.769 273.945 683.857 270.529 683.857 270.529C683.857 270.529 712.504 257.365 712.936 272.252C713.031 275.602 714.032 278.864 715.832 281.689C716.831 283.25 718.009 284.69 719.342 285.978C722.66 289.108 726.56 291.555 730.819 293.182V293.182Z" fill="#CE828D"/>
<path d="M824.825 274.195C824.067 274.195 821.111 276.473 818.632 278.507C816.615 280.17 814.91 281.673 814.91 281.673L810.172 265.996C811.285 265.426 812.354 264.774 813.371 264.045C814.5 263.21 815.486 262.223 815.486 261.373C815.486 259.377 819.943 242.546 823.248 249.021C826.553 255.497 826.258 274.195 824.825 274.195Z" fill="#CE828D"/>
<path opacity="0.1" d="M482.699 241.832L451.399 260.242C451.399 260.242 413.754 250.464 424.109 242.113C428.718 238.401 430.651 230.468 431.364 222.8C437.64 233.527 447.935 234.187 452.642 233.815C454.06 233.717 455.485 233.724 456.902 233.686C463.422 233.504 469.41 223.855 470.547 221.866C474.512 231.864 482.699 241.832 482.699 241.832Z" fill="black"/>
<path opacity="0.1" d="M516.327 377.259C516.327 377.388 516.327 377.51 516.327 377.609C516.039 380.197 503.971 384.517 503.971 384.517C503.971 384.517 448.534 391.418 443.652 386.795C439.104 382.543 421.866 378.049 419.273 377.381L422.965 367.512C422.965 367.512 508.565 369.235 512.014 370.381C513.666 370.974 515.19 374.132 516.327 377.259Z" fill="black"/>
<path d="M515.447 345.975C515.447 345.975 522.914 358.622 517.722 361.507C512.529 364.392 516.577 373.297 516.289 375.886C516.001 378.475 503.933 382.787 503.933 382.787C503.933 382.787 448.496 389.695 443.614 385.064C438.732 380.433 418.901 375.567 418.901 375.567C416.262 368.798 412.894 362.338 408.857 356.299C402.535 347.091 410.866 330.116 410.866 330.116C410.866 330.116 408.857 319.191 404.552 316.018C400.246 312.845 394.515 282.972 393.097 274.051C391.68 265.131 373.274 277.217 373.274 277.217C373.274 277.217 350.009 278.659 345.135 277.217C345.038 277.19 344.945 277.146 344.862 277.088C341.239 274.636 364.087 248.156 364.087 248.156C364.087 248.156 381.325 244.998 381.029 239.805C380.832 236.177 389.208 230.862 394.257 228C396.433 226.763 397.987 225.989 397.987 225.989H404.877C407.462 225.989 406.318 221.965 406.318 221.965C406.318 221.965 411.488 222.542 414.361 219.953C417.234 217.364 431.311 223.529 431.311 223.529C437.58 234.37 447.943 235.007 452.665 234.658C454.083 234.567 455.508 234.575 456.926 234.529C464.195 234.332 470.798 222.383 470.798 222.383C470.798 222.383 491.341 223.711 505.669 232.92C519.996 242.128 534.679 268.874 534.679 268.874C534.679 268.874 513.135 295.634 509.664 295.065C506.192 294.496 513.674 308.009 513.674 308.009L515.447 345.975Z" fill="#D3D3D3"/>
<path opacity="0.1" d="M394.234 228.016C393.431 230.726 392.514 233.869 392.21 235.213C391.642 237.801 385.615 240.398 385.615 240.398C385.615 240.398 379.862 248.156 380.438 249.599C381.014 251.041 375.556 256.5 373.251 261.677C370.947 266.855 346.856 277.217 346.856 277.217C346.189 277.254 345.519 277.211 344.862 277.088C341.239 274.636 364.086 248.156 364.086 248.156C364.086 248.156 381.325 244.998 381.029 239.805C380.809 236.192 389.186 230.878 394.234 228.016Z" fill="black"/>
<path opacity="0.1" d="M398.988 215.876C397.748 216.392 396.542 216.988 395.38 217.66L385.252 207.093C385.252 207.093 386.541 205.726 388.284 203.806C388.405 207.67 395.925 213.622 398.988 215.876Z" fill="black"/>
<path d="M387.617 203.57L379.278 208.748C379.278 208.748 370.659 210.456 367.498 217.653C364.337 224.85 355.195 226.581 355.195 226.581L349.456 236.078C349.456 236.078 335.091 242.151 334.227 260.242C333.363 278.333 345.143 277.217 345.143 277.217C345.143 277.217 369.272 266.862 371.569 261.677C373.866 256.492 379.331 251.049 378.755 249.599C378.179 248.148 383.925 240.397 383.925 240.397C383.925 240.397 389.99 237.801 390.528 235.212C391.066 232.624 393.977 223.354 393.977 223.354L399.435 217.653C399.435 217.653 385.608 208.171 387.617 203.57Z" fill="#D3D3D3"/>
<path opacity="0.1" d="M560.506 375.179C556.169 374.815 543.646 373.98 541.554 376.273C541.395 375.513 541.281 375.02 541.281 375.02L544.23 367.55C544.23 367.55 558.633 367.831 558.633 369.774C558.679 370.571 559.52 372.811 560.506 375.179Z" fill="black"/>
<path d="M524.066 260.242L534.679 268.874L539.56 284.695C539.56 284.695 545.883 297.927 549.62 304.836C553.357 311.744 554.79 322.668 554.79 322.668C554.79 322.668 555.646 327.846 557.375 329.569C559.103 331.292 557.375 336.766 557.375 336.766C557.375 336.766 559.384 343.09 561.104 345.398C562.825 347.706 561.104 358.342 561.104 358.342L561.862 362.654C561.862 362.654 564.834 367.262 563.113 367.543C561.392 367.823 561.961 373.616 561.961 373.616C561.961 373.616 542.138 371.604 541.281 375.058C541.281 375.058 538.12 366.427 538.696 363.549C539.272 360.672 534.671 352.921 534.671 352.921C534.671 352.921 532.662 349.755 533.526 346.301C534.39 342.847 529.789 333.069 529.789 333.069C529.789 333.069 528.925 324.437 527.204 325.014C525.483 325.591 524.331 321.279 524.043 319.548C523.755 317.817 517.721 306.316 517.721 306.316L505.66 291.641L524.066 260.242Z" fill="#D3D3D3"/>
<path opacity="0.1" d="M715.832 281.689C711.417 285.077 705.978 286.853 700.417 286.724C694.855 286.594 689.505 284.566 685.252 280.975C687.769 273.945 683.857 270.529 683.857 270.529C683.857 270.529 712.504 257.365 712.936 272.252C713.031 275.602 714.032 278.863 715.832 281.689V281.689Z" fill="black"/>
<path d="M700.982 285.863C714.488 285.863 725.437 274.898 725.437 261.373C725.437 247.847 714.488 236.882 700.982 236.882C687.476 236.882 676.527 247.847 676.527 261.373C676.527 274.898 687.476 285.863 700.982 285.863Z" fill="#CE828D"/>
<path opacity="0.1" d="M730.819 293.182L723.928 310.871L694.842 315.835C694.842 315.835 660.805 308.502 676.527 293.182C678.356 291.423 680.049 289.527 681.591 287.511C689.035 306.164 701.626 304.402 701.626 304.402C719.061 301.1 719.615 289.432 719.372 285.978C722.682 289.104 726.57 291.551 730.819 293.182V293.182Z" fill="black"/>
<path opacity="0.1" d="M818.632 278.507C816.615 280.17 814.91 281.673 814.91 281.673L810.172 265.996C811.285 265.425 812.354 264.773 813.371 264.045C815.418 266.687 817.389 273.466 818.632 278.507Z" fill="black"/>
<path opacity="0.1" d="M584.536 383.947C584.536 383.947 583.202 385.549 581.102 387.895C578.646 385.367 574.735 381.108 572.832 377.882C575.864 376.287 578.07 375.02 578.07 375.02L584.536 383.947Z" fill="black"/>
<path d="M819.125 284.551L808.778 287.807C808.778 287.807 793.7 295.558 791.547 299.195C789.394 302.831 754.061 314.295 754.061 314.295C755.138 318.607 744.146 335.437 744.146 335.437C744.146 335.437 742.857 350.112 738.544 357.233C734.754 363.466 737.604 379.249 738.377 383.128C738.476 383.675 738.544 383.986 738.544 383.986C738.544 383.986 651.504 389.596 649.351 385.709C649.243 385.507 649.167 385.289 649.124 385.064C647.934 380.259 655.067 365.106 657.326 362.843C659.691 360.467 656.333 344.289 656.333 344.289C656.333 344.289 634.918 358.311 631.256 364.787C627.595 371.262 590.109 386.15 590.109 386.15L584.045 389.186C584.045 389.186 571.12 376.675 572.628 373.434C574.137 370.192 585.182 366.138 585.182 366.138C585.182 366.138 608.446 348.449 610.198 347.364C611.542 346.344 612.706 345.104 613.639 343.697L615.8 342.179C615.8 342.179 617.316 340.66 621.402 338.945C625.488 337.229 635.191 324.923 635.191 324.923C635.191 324.923 645.311 314.135 646.607 308.98C647.626 305.398 649.158 301.981 651.155 298.838C655.89 298.069 660.336 296.057 664.042 293.008C670.463 287.868 681.227 287.853 681.371 287.853C688.785 307.067 701.604 305.314 701.604 305.314C722.147 301.434 719.244 285.917 719.244 285.917C719.244 285.917 733.844 277.483 737.073 277.703C740.303 277.923 755.608 278.561 759.269 280.504C762.931 282.448 773.058 278.781 773.058 278.781C773.058 278.781 778.44 274.461 784.687 273.383C790.933 272.305 801.493 268.206 801.493 268.206C801.493 268.206 807.307 261.95 811.188 263.028C815.07 264.106 819.125 284.551 819.125 284.551Z" fill="#BBBBBB"/>
<path opacity="0.1" d="M738.573 384.016C738.573 384.016 651.533 389.627 649.38 385.74C649.272 385.537 649.195 385.32 649.152 385.094C649.221 385.016 649.297 384.945 649.38 384.882L663.389 386.241C663.389 386.241 669.734 375.818 672.372 369.775C672.372 369.775 681.696 353.377 681.696 347.987C681.696 347.987 723.275 347.121 729.529 344.1C729.529 344.1 730.689 381.299 734.077 383.432L738.391 383.159C738.504 383.705 738.573 384.016 738.573 384.016Z" fill="black"/>
<path opacity="0.1" d="M674.009 513.97C673.031 515.564 672.607 519.125 672.425 522.123C667.626 521.873 660.372 519.512 660.372 519.512C660.065 517.4 659.425 515.35 658.477 513.439C660.046 511.449 661.228 510.25 661.228 510.25C661.228 510.25 675.851 510.948 674.009 513.97Z" fill="black"/>
<path opacity="0.1" d="M714.77 572.873C709.463 572.873 700.26 572.57 694.855 570.596C695.432 567.931 695.894 566.041 695.894 566.041L714.231 568.076C714.231 568.076 714.512 570.065 714.77 572.873Z" fill="black"/>
<path d="M743.319 418.968C741.445 430.183 738.914 441.279 735.738 452.196C735.738 452.196 731.644 467.934 731.857 472.36C732.069 476.786 728.825 503.759 728.825 503.759C728.825 503.759 725.163 517.568 726.027 523.824C726.891 530.079 718.447 562.663 718.447 562.663L718.879 571.074C718.879 571.074 693.241 572.16 690.656 565.897L691.733 558.563L693.886 538.286C693.886 538.286 696.691 515.625 695.402 510.197C694.113 504.769 692.044 483.049 692.044 483.049L691.824 506.348C691.824 506.348 687.95 513.689 683.637 515.412C679.324 517.135 678.679 519.967 674.161 520.377C669.643 520.787 660.372 517.788 660.372 517.788C660.021 515.357 659.216 513.013 657.999 510.88C656.059 507.646 657.999 496.638 657.999 496.638C657.999 496.638 659.72 489.304 657.135 487.581C654.55 485.858 651.965 474.205 653.042 470.75C653.277 469.991 653.102 468.655 652.701 466.955C651.692 462.551 649.251 455.636 648.463 449.334C648.103 446.918 648.136 444.46 648.562 442.054C650.495 432.557 649.418 418.52 649.418 418.52C649.418 418.52 645.977 388.1 649.418 385.724L663.427 387.09C663.427 387.09 669.772 376.667 672.41 370.624C672.41 370.624 681.734 354.226 681.734 348.829C681.734 348.829 723.313 347.971 729.567 344.949C729.567 344.949 730.727 382.148 734.116 384.274L738.596 384.001C738.596 384.001 746.116 401.492 743.319 418.968Z" fill="#808080"/>
<path d="M722.934 499.751C722.879 500.553 722.641 501.332 722.237 502.028C720.956 504.845 718.174 509.141 716.597 510.052C714.012 511.571 702.384 505.953 702.194 503.903C702.167 502.503 702.346 501.106 702.725 499.758C702.998 498.619 703.27 497.754 703.27 497.754C703.27 497.754 719.432 501.428 722.222 499.697H722.267C722.692 499.379 722.896 499.439 722.934 499.751Z" fill="#CE828D"/>
<path opacity="0.1" d="M692.09 329.621C692.021 332.491 692.09 339.103 692.09 343.772C692.09 346.688 692.143 348.844 692.143 348.844H680.84C680.84 348.844 680.734 346.87 680.62 343.772C680.491 340.197 680.355 335.141 680.378 329.902C680.378 328.574 680.378 327.238 680.423 325.902C680.499 322.03 680.689 318.249 681.052 315.083C682.447 302.777 670.637 289.272 670.637 289.272C673.358 286.038 680.491 287.754 680.491 287.754C680.491 287.754 684.494 299.27 687.61 307.795C689.636 313.471 691.089 319.336 691.946 325.302C692.103 326.291 692.169 327.292 692.143 328.293C692.128 328.574 692.112 329.014 692.09 329.621Z" fill="black"/>
<path d="M692.953 329.621C692.885 332.491 692.953 339.103 692.953 343.772C692.953 346.688 693.006 348.844 693.006 348.844H681.696C681.696 348.844 681.597 346.87 681.483 343.772C681.354 340.197 681.218 335.141 681.241 329.902C681.241 328.574 681.241 327.238 681.286 325.902C681.362 322.03 681.552 318.249 681.915 315.083C683.31 302.777 671.492 289.272 671.492 289.272C674.221 286.038 681.347 287.754 681.347 287.754C681.347 287.754 685.342 299.27 688.465 307.795C690.488 313.472 691.94 319.337 692.801 325.302C692.958 326.291 693.024 327.292 692.998 328.293C692.991 328.574 692.968 329.014 692.953 329.621Z" fill="#808080"/>
<path opacity="0.1" d="M739.756 321.992C739.552 323.032 739.362 324.74 739.165 326.737C738.756 330.768 738.324 335.983 737.649 339.354C737.27 341.191 736.808 342.467 736.239 342.702L733.465 343.772L730.357 344.964L726.278 345.61L727.036 343.772C727.521 342.626 728.181 341.039 728.871 339.354C730.447 335.513 732.161 331.117 732.274 329.963C732.327 329.455 732.502 328.285 732.706 326.737C732.888 325.385 733.086 323.746 733.237 321.992C733.669 317.217 733.775 311.607 732.274 308.714C729.583 303.537 723.178 284.102 723.178 284.102C723.685 282.702 724.699 281.543 726.018 280.855C727.338 280.168 728.867 280.002 730.303 280.39C730.303 280.39 736.148 299.65 736.247 302.246C736.345 304.842 740.621 317.672 739.756 321.992Z" fill="black"/>
<path d="M738.892 321.992C738.687 323.032 738.498 324.74 738.301 326.737C737.899 330.768 737.467 335.983 736.784 339.354C736.405 341.191 735.943 342.467 735.374 342.702L732.661 343.772C731.553 344.236 730.517 344.855 729.583 345.61L725.088 346.308C725.088 346.308 725.785 344.896 726.255 343.772C726.725 342.649 727.4 341.039 728.089 339.354C729.666 335.513 731.387 331.117 731.493 329.963C731.546 329.455 731.721 328.285 731.925 326.737C732.107 325.385 732.304 323.746 732.463 321.992C732.896 317.217 732.994 311.607 731.493 308.714C728.81 303.537 722.396 284.102 722.396 284.102C722.904 282.702 723.917 281.543 725.237 280.855C726.557 280.168 728.086 280.002 729.522 280.39C729.522 280.39 735.367 299.65 735.473 302.246C735.579 304.842 739.756 317.672 738.892 321.992Z" fill="#808080"/>
<path d="M693.015 328.347C693.015 328.574 692.969 329.015 692.954 329.622L681.242 329.903C681.242 328.574 681.242 327.238 681.288 325.902L692.818 325.355C692.975 326.344 693.041 327.346 693.015 328.347V328.347Z" fill="white"/>
<path d="M693.014 348.844H681.697C681.697 348.844 681.598 346.87 681.484 343.772H692.961C692.992 346.688 693.014 348.844 693.014 348.844Z" fill="white"/>
<path d="M738.891 321.992C738.687 323.032 738.497 324.74 738.3 326.737H731.895C732.076 325.386 732.274 323.746 732.433 321.992H738.891Z" fill="white"/>
<path d="M736.754 339.354C736.375 341.192 735.913 342.467 735.344 342.702L732.63 343.773H726.225C726.71 342.626 727.369 341.04 728.059 339.354H736.754Z" fill="white"/>
<path opacity="0.05" d="M488.43 260.242C488.43 260.242 491.075 283.564 499.384 285.864C507.692 288.164 503.538 277.232 503.538 277.232L496.503 268.342L488.43 260.242Z" fill="black"/>
<path opacity="0.05" d="M433.273 302.163C433.273 302.163 464.846 333.752 478.522 327.625C492.197 321.499 448.018 324.817 433.273 302.163Z" fill="black"/>
<path opacity="0.05" d="M469.168 344.965C469.168 344.965 490.227 346.232 496.503 339.354C502.78 332.476 469.168 344.965 469.168 344.965Z" fill="black"/>
<path opacity="0.05" d="M454.059 371.817C453.134 371.156 492.212 369.926 502.787 361.947C513.362 353.969 479.363 389.968 454.059 371.817Z" fill="black"/>
<path opacity="0.05" d="M387.578 247.549C387.578 247.549 395.917 256.021 396.675 262.854C397.433 269.686 387.578 247.549 387.578 247.549Z" fill="black"/>
<path opacity="0.05" d="M408.736 254.905C408.736 254.905 407.978 277.399 417.218 281.673C426.459 285.948 405.711 271.903 408.736 254.905Z" fill="black"/>
<path opacity="0.05" d="M529.344 315.274C529.344 315.274 545.847 308.441 548.492 312.882C551.138 317.323 546.218 318.075 546.218 318.075L529.344 315.274Z" fill="black"/>
<path opacity="0.05" d="M550.772 337.289C543.95 341.563 538.833 341.191 539.326 344.972C539.819 348.752 540.425 347.287 545.034 346.316C549.643 345.344 550.772 337.289 550.772 337.289Z" fill="black"/>
<path opacity="0.05" d="M555.8 354.887C555.8 354.887 547.59 361.977 545.02 362.357C542.45 362.737 555.8 354.887 555.8 354.887Z" fill="black"/>
<path opacity="0.1" d="M672.379 412.667C671.303 411.597 707.887 412.667 716.574 410.39C716.574 410.39 720.978 416.82 712.541 418.338C704.104 419.856 666.717 422.134 666.717 422.134C666.717 422.134 678.035 418.346 672.379 412.667Z" fill="black"/>
<path opacity="0.1" d="M662.594 458.058C661.26 460.335 656.81 463.903 652.74 466.917C651.731 462.514 649.29 455.598 648.502 449.297L656.401 445.577C656.143 445.577 665.24 453.518 662.594 458.058Z" fill="black"/>
<path opacity="0.1" d="M623.742 342.354C623.742 342.354 648.227 338.3 655.77 329.903C655.77 329.903 652.92 344.29 623.742 342.354Z" fill="black"/>
<path opacity="0.1" d="M617.609 356.687C617.609 356.687 621.4 358.205 627.813 356.687C634.226 355.168 617.609 356.687 617.609 356.687Z" fill="black"/>
<path opacity="0.1" d="M671.493 354.887C671.493 354.887 657.75 366.381 661.101 368.909C664.451 371.437 671.493 354.887 671.493 354.887Z" fill="black"/>
<path opacity="0.1" d="M671.492 333.608C671.492 333.608 659.599 333.372 662.593 339.355C665.587 345.337 671.492 333.608 671.492 333.608Z" fill="black"/>
<path opacity="0.1" d="M693.887 255.239C694.631 255.16 695.349 254.921 695.994 254.541C699.001 253.164 702.377 252.82 705.599 253.561C710.215 254.639 714.058 257.858 718.561 259.354C721.154 260.219 724.626 260.151 725.907 257.729C727.036 255.581 725.702 253.007 724.391 250.957C722.117 247.321 719.623 243.533 715.84 241.468C713.663 240.405 711.337 239.681 708.942 239.319C704.136 238.386 699.208 237.672 694.349 238.31C690.559 238.811 679.59 241.346 681.318 247.184C682.182 250.107 685.23 249.697 687.511 250.692C689.679 251.648 691.468 255.3 693.887 255.239Z" fill="black"/>
<path d="M693.887 253.516C694.629 253.429 695.346 253.191 695.994 252.817C699 251.437 702.377 251.093 705.599 251.838C710.215 252.916 714.058 256.127 718.561 257.63C721.154 258.496 724.626 258.427 725.907 256.006C727.036 253.85 725.702 251.284 724.391 249.234C722.117 245.597 719.623 241.809 715.84 239.744C713.664 238.678 711.337 237.954 708.942 237.596C704.136 236.662 699.208 235.949 694.349 236.579C690.559 237.08 679.59 239.615 681.318 245.461C682.182 248.384 685.23 247.966 687.511 248.968C689.679 249.917 691.468 253.554 693.887 253.516Z" fill="#663D5C"/>
<path opacity="0.1" d="M722.373 244.831L677.754 240.276C677.754 240.276 677.913 239.745 678.186 238.758C687.548 236.275 710.691 231.447 721.774 240.846L722.373 244.831Z" fill="black"/>
<path d="M674.115 240.875C674.115 240.875 714.959 227.446 725.443 246.243C725.443 246.19 703.732 249.386 674.115 240.875Z" fill="#808080"/>
<path opacity="0.1" d="M693.416 469.543C693.056 469.722 692.64 469.751 692.259 469.623C691.878 469.495 691.563 469.22 691.384 468.86C691.06 468.115 690.953 467.295 691.074 466.491L691.278 462.893C691.589 457.412 691.907 451.855 693.605 446.632C695.52 441.108 698.625 436.074 702.702 431.889" fill="black"/>
<path opacity="0.1" d="M687.223 360.823C687.223 360.823 707.69 355.509 712.519 357.362C717.348 359.214 715.718 362.091 712.519 362.38C709.32 362.668 687.223 360.823 687.223 360.823Z" fill="black"/>
<path opacity="0.1" d="M681.242 375.027C685.791 378.193 722.374 378.193 722.374 378.193L681.242 375.027Z" fill="black"/>
<path opacity="0.1" d="M513.006 384.518C513.006 384.518 514.522 388.26 504.766 391.995C495.01 395.73 513.006 384.518 513.006 384.518Z" fill="black"/>
<path opacity="0.1" d="M505.683 413.001C505.683 413.001 492.918 412.713 497.292 418.756C501.666 424.799 505.683 413.001 505.683 413.001Z" fill="black"/>
<path opacity="0.1" d="M427.262 387.759C427.262 387.759 447.365 398.615 455.696 399.769C464.027 400.923 440.475 404.529 427.262 387.759Z" fill="black"/>
<path opacity="0.1" d="M444.494 476.573C444.494 476.573 445.495 481.751 454.046 484.34C462.597 486.928 469.139 484.916 469.207 484.34C469.275 483.763 444.494 476.573 444.494 476.573Z" fill="black"/>
<path opacity="0.1" d="M467.334 590.395C467.334 590.395 477.894 595.709 480.259 590.395Z" fill="black"/>
<path opacity="0.1" d="M539.94 485.63C539.94 485.63 538.197 491.263 534.982 491.46Z" fill="black"/>
<path opacity="0.1" d="M725.883 254.275C724.61 256.704 721.13 256.765 718.537 255.899C714.035 254.381 710.199 251.192 705.575 250.107C702.353 249.366 698.977 249.71 695.97 251.086C695.326 251.468 694.607 251.706 693.863 251.785C691.445 251.823 689.656 248.194 687.495 247.23C685.221 246.227 682.189 246.637 681.302 243.715C681.267 243.603 681.239 243.489 681.218 243.373C681.062 244.059 681.091 244.774 681.302 245.446C682.166 248.368 685.213 247.951 687.495 248.953C689.656 249.902 691.445 253.508 693.863 253.508C694.606 253.422 695.323 253.185 695.97 252.809C698.976 251.429 702.353 251.085 705.575 251.83C710.191 252.908 714.035 256.119 718.537 257.623C721.13 258.48 724.602 258.42 725.883 255.998C726.3 255.17 726.42 254.224 726.224 253.318C726.158 253.652 726.043 253.974 725.883 254.275V254.275Z" fill="black"/>
<path opacity="0.1" d="M722.935 499.75C722.88 500.553 722.642 501.332 722.238 502.028L702.695 499.75C702.968 498.612 703.241 497.746 703.241 497.746C703.241 497.746 719.403 501.42 722.192 499.69H722.238L722.935 499.75Z" fill="black"/>
<path d="M702.527 495.849C702.451 496.069 702.141 498.802 702.141 498.802L723.851 501.315V499.037L702.527 495.849Z" fill="#808080"/>
<path opacity="0.1" d="M93.7188 519.884C106.551 519.884 116.953 518.453 116.953 516.688C116.953 514.923 106.551 513.492 93.7188 513.492C80.8868 513.492 70.4844 514.923 70.4844 516.688C70.4844 518.453 80.8868 519.884 93.7188 519.884Z" fill="#BBBBBB"/>
<path opacity="0.1" d="M182.721 528.925C195.553 528.925 205.955 527.494 205.955 525.729C205.955 523.964 195.553 522.533 182.721 522.533C169.889 522.533 159.486 523.964 159.486 525.729C159.486 527.494 169.889 528.925 182.721 528.925Z" fill="#BBBBBB"/>
<path opacity="0.1" d="M287.553 516.688C300.385 516.688 310.787 515.257 310.787 513.492C310.787 511.727 300.385 510.296 287.553 510.296C274.721 510.296 264.318 511.727 264.318 513.492C264.318 515.257 274.721 516.688 287.553 516.688Z" fill="#BBBBBB"/>
<path opacity="0.1" d="M147.1 553.727C156.223 553.727 163.618 552.711 163.618 551.457C163.618 550.204 156.223 549.188 147.1 549.188C137.977 549.188 130.582 550.204 130.582 551.457C130.582 552.711 137.977 553.727 147.1 553.727Z" fill="#BBBBBB"/>
<path opacity="0.1" d="M239.469 551.458C248.592 551.458 255.987 550.442 255.987 549.188C255.987 547.934 248.592 546.918 239.469 546.918C230.347 546.918 222.951 547.934 222.951 549.188C222.951 550.442 230.347 551.458 239.469 551.458Z" fill="#BBBBBB"/>
<path d="M183.215 525.008C183.215 525.008 150.619 418.027 188.317 375.18C216.509 343.128 248.506 346.961 262.841 350.924C266.55 351.912 270 353.697 272.952 356.153C275.904 358.61 278.287 361.68 279.935 365.151C284.946 375.977 284.037 393.551 248.673 414.056C189.454 448.393 185.755 495.492 185.755 495.492L183.215 525.008Z" fill="#BBBBBB"/>
<path d="M257.74 366.138C257.74 366.138 161.687 396.216 183.215 525.046" stroke="#565987" stroke-miterlimit="10"/>
<path d="M201.635 376.88C201.635 376.88 214.863 385.808 210.656 399.222" stroke="#565987" stroke-miterlimit="10"/>
<path d="M248.104 384.829C248.104 384.829 240.015 376.592 230.176 381.132" stroke="#565987" stroke-miterlimit="10"/>
<path d="M210.133 426.256C210.133 426.256 195.935 419.037 192.266 428.078" stroke="#565987" stroke-miterlimit="10"/>
<path d="M174.998 441.295C174.998 441.295 185.664 440.445 185.853 445.554" stroke="#565987" stroke-miterlimit="10"/>
<path d="M181.902 525.858C181.902 525.858 220.063 448.127 230.547 449.805C235.527 450.617 237.824 455.522 238.885 460.433C240.175 466.805 239.449 473.42 236.808 479.359C231.365 491.817 216.818 515.45 181.902 525.858Z" fill="#BBBBBB"/>
<path d="M230.268 464.563C230.268 464.563 190.205 522.738 182.465 525.297" stroke="#565987" stroke-miterlimit="10"/>
<path d="M233.952 473.65H224.598" stroke="#565987" stroke-miterlimit="10"/>
<path d="M222.747 494.93L208.094 495.56" stroke="#565987" stroke-miterlimit="10"/>
<path d="M213.832 477.902L215.424 485.547" stroke="#565987" stroke-miterlimit="10"/>
<path d="M198.246 501.17L198.527 508.124" stroke="#565987" stroke-miterlimit="10"/>
<path d="M183.032 525.858C183.032 525.858 144.872 448.127 134.388 449.805C129.408 450.617 127.111 455.522 126.049 460.433C124.764 466.805 125.489 473.42 128.127 479.359C133.569 491.817 148.116 515.45 183.032 525.858Z" fill="#BBBBBB"/>
<path d="M134.668 464.563C134.668 464.563 174.724 522.738 182.425 525.297" stroke="#565987" stroke-miterlimit="10"/>
<path d="M130.984 473.65H140.339" stroke="#565987" stroke-miterlimit="10"/>
<path d="M142.188 494.93L156.841 495.56" stroke="#565987" stroke-miterlimit="10"/>
<path d="M151.104 477.902L149.512 485.547" stroke="#565987" stroke-miterlimit="10"/>
<path d="M166.689 501.17L166.408 508.124" stroke="#565987" stroke-miterlimit="10"/>
<path d="M248.559 544.018C249.598 543.172 250.357 542.032 250.735 540.746C250.901 540.099 250.841 539.415 250.565 538.808C250.289 538.2 249.814 537.705 249.219 537.405C247.824 536.874 246.33 537.838 245.201 538.817C244.071 539.797 242.783 540.905 241.305 540.7C242.065 540.011 242.634 539.136 242.955 538.16C243.277 537.185 243.34 536.143 243.139 535.135C243.075 534.719 242.899 534.329 242.631 534.004C241.873 533.177 240.448 533.534 239.523 534.186C236.574 536.259 235.733 540.26 235.733 543.873C235.437 542.575 235.687 541.216 235.68 539.88C235.672 538.544 235.308 537.071 234.164 536.35C233.465 535.975 232.682 535.789 231.89 535.811C230.563 535.766 229.092 535.895 228.183 536.866C227.061 538.073 227.349 540.093 228.327 541.421C229.305 542.75 230.798 543.585 232.162 544.458C233.262 545.114 234.199 546.009 234.907 547.077C234.985 547.229 235.054 547.386 235.111 547.548H243.412C245.28 546.61 247.011 545.423 248.559 544.018Z" fill="#BBBBBB"/>
<path d="M103.142 512.702C104.177 511.852 104.932 510.709 105.31 509.422C105.478 508.775 105.419 508.089 105.143 507.48C104.867 506.87 104.391 506.374 103.794 506.074C102.399 505.543 100.913 506.507 99.7835 507.486C98.654 508.466 97.3577 509.582 95.8795 509.369C96.6404 508.68 97.2096 507.805 97.5312 506.83C97.8528 505.854 97.9158 504.812 97.714 503.804C97.6494 503.388 97.474 502.998 97.2061 502.673C96.448 501.846 95.0305 502.203 94.0981 502.855C91.1568 504.928 90.3078 508.929 90.3078 512.542C90.0122 511.244 90.2623 509.885 90.2547 508.557C90.2471 507.228 89.8833 505.74 88.7386 505.019C88.0404 504.644 87.2564 504.458 86.4644 504.48C85.1379 504.434 83.6672 504.571 82.7576 505.535C81.6356 506.742 81.9313 508.769 82.9092 510.09C83.8871 511.411 85.3728 512.254 86.6994 513.173C87.7983 513.826 88.7362 514.718 89.4436 515.784C89.5254 515.935 89.5939 516.092 89.6483 516.255H97.949C99.8336 515.313 101.581 514.118 103.142 512.702V512.702Z" fill="#BBBBBB"/>
<path d="M151.604 544.018C152.643 543.172 153.402 542.032 153.78 540.746C153.946 540.099 153.886 539.415 153.61 538.808C153.334 538.2 152.859 537.705 152.264 537.405C150.869 536.874 149.375 537.838 148.246 538.817C147.116 539.797 145.82 540.905 144.342 540.7C145.102 540.01 145.671 539.135 145.993 538.16C146.316 537.185 146.382 536.143 146.184 535.135C146.117 534.719 145.939 534.328 145.669 534.004C144.91 533.177 143.493 533.534 142.568 534.186C139.619 536.259 138.778 540.26 138.778 543.873C138.475 542.575 138.725 541.216 138.725 539.88C138.725 538.544 138.346 537.071 137.209 536.35C136.51 535.975 135.726 535.789 134.934 535.811C133.608 535.766 132.13 535.895 131.228 536.866C130.106 538.073 130.394 540.093 131.372 541.421C132.349 542.75 133.835 543.585 135.207 544.458C136.307 545.114 137.244 546.009 137.952 547.077C138.031 547.228 138.097 547.385 138.149 547.548H146.487C148.344 546.608 150.065 545.42 151.604 544.018Z" fill="#BBBBBB"/>
<path d="M289.061 480.719C289.061 480.719 292.169 484.795 287.621 490.952C283.072 497.109 279.32 502.34 280.836 506.136C280.836 506.136 287.704 494.748 293.291 494.551C298.878 494.353 295.201 487.604 289.061 480.719Z" fill="#BBBBBB"/>
<path opacity="0.1" d="M289.062 480.719C289.332 481.111 289.544 481.541 289.691 481.994C295.149 488.409 298.03 494.399 292.814 494.551C287.933 494.687 282.073 503.425 280.686 505.635C280.729 505.805 280.784 505.973 280.852 506.136C280.852 506.136 287.72 494.748 293.307 494.551C298.894 494.353 295.202 487.604 289.062 480.719Z" fill="black"/>
<path d="M294.845 485.911C294.845 487.346 294.686 488.515 294.489 488.515C294.292 488.515 294.125 487.346 294.125 485.911C294.125 484.476 294.33 485.152 294.527 485.152C294.724 485.152 294.845 484.476 294.845 485.911Z" fill="#FFD037"/>
<path d="M296.824 487.604C295.565 488.287 294.466 488.705 294.375 488.53C294.284 488.355 295.224 487.657 296.483 487.012C297.741 486.366 297.241 486.822 297.339 487.012C297.438 487.201 298.09 486.943 296.824 487.604Z" fill="#FFD037"/>
<path d="M272.611 480.719C272.611 480.719 269.503 484.795 274.052 490.952C278.6 497.109 282.39 502.34 280.874 506.136C280.874 506.136 274.006 494.748 268.419 494.551C262.832 494.353 266.501 487.604 272.611 480.719Z" fill="#BBBBBB"/>
<path opacity="0.1" d="M272.613 480.719C272.342 481.112 272.128 481.541 271.976 481.994C266.526 488.409 263.637 494.399 268.86 494.551C273.742 494.687 279.602 503.425 280.989 505.635C280.946 505.805 280.891 505.973 280.823 506.136C280.823 506.136 273.955 494.748 268.368 494.551C262.781 494.353 266.503 487.604 272.613 480.719Z" fill="black"/>
<path d="M266.828 485.911C266.828 487.346 266.987 488.515 267.184 488.515C267.382 488.515 267.548 487.346 267.548 485.911C267.548 484.476 267.344 485.152 267.147 485.152C266.949 485.152 266.828 484.476 266.828 485.911Z" fill="#FFD037"/>
<path d="M264.842 487.604C266.1 488.287 267.2 488.705 267.29 488.53C267.381 488.355 266.441 487.657 265.183 487.012C263.925 486.366 264.425 486.822 264.326 487.012C264.228 487.201 263.584 486.943 264.842 487.604Z" fill="#FFD037"/>
<path d="M267.82 505.604C267.82 505.604 276.523 505.339 279.146 503.464C281.769 501.588 292.533 499.364 293.185 502.363C293.837 505.361 306.269 517.28 296.437 517.364C286.605 517.447 273.604 515.846 270.989 514.236C268.374 512.627 267.82 505.604 267.82 505.604Z" fill="#A8A8A8"/>
<path opacity="0.2" d="M296.612 516.316C286.757 516.4 273.779 514.798 271.164 513.188C269.17 511.974 268.374 507.608 268.132 505.597H267.844C267.844 505.597 268.39 512.627 271.012 514.228C273.635 515.83 286.636 517.432 296.46 517.356C299.295 517.356 300.251 516.324 300.251 514.828C299.811 515.739 298.727 516.301 296.612 516.316Z" fill="black"/>
</g>
<defs>
<linearGradient id="paint0_linear_1224:1438" x1="579.996" y1="617.9" x2="579.996" y2="155.439" gradientUnits="userSpaceOnUse">
<stop stop-color="#808080" stop-opacity="0.25"/>
<stop offset="0.54" stop-color="#808080" stop-opacity="0.12"/>
<stop offset="1" stop-color="#808080" stop-opacity="0.1"/>
</linearGradient>
<clipPath id="clip0_1224:1438">
<rect width="862" height="626" fill="white"/>
</clipPath>
</defs>
</svg>
