<svg width="651" height="699" viewBox="0 0 651 699" fill="none" xmlns="http://www.w3.org/2000/svg">
<g clip-path="url(#clip0_1224:1066)">
<path d="M140.808 282.963C110.142 252.775 97.1907 221.282 104.338 194.285C113.51 159.64 154.256 135.686 216.128 128.564L216.357 130.552C155.345 137.573 115.221 160.99 106.271 194.796C99.3157 221.07 112.079 251.875 142.211 281.539L140.808 282.963Z" fill="#F0F0F0"/>
<path d="M436.679 390.122C398.406 390.122 356.816 384.434 315.506 373.498C264.42 359.973 217.58 339.56 180.049 314.463L181.16 312.801C218.51 337.776 265.143 358.096 316.018 371.564C361.992 383.736 408.312 389.375 449.951 387.887L450.023 389.885C445.626 390.043 441.178 390.122 436.679 390.122Z" fill="#F0F0F0"/>
<path d="M524.479 377.544L523.839 375.649C558.068 364.076 579.478 345.433 585.752 321.734C593.728 291.606 576.4 256.646 536.962 223.291C497.322 189.767 440.161 161.951 376.006 144.967L376.518 143.033C440.953 160.092 498.393 188.052 538.253 221.764C578.314 255.645 595.87 291.33 587.686 322.246C581.231 346.625 559.375 365.746 524.479 377.544Z" fill="#F0F0F0"/>
<path d="M210.173 390.956C134.97 357.603 77.0205 314.331 47 269.11L48.666 268.004C78.479 312.911 136.125 355.927 210.984 389.128L210.173 390.956Z" fill="#F0F0F0"/>
<path d="M474.582 448.739C466.825 448.739 458.936 448.566 450.914 448.22L451 446.222C510.864 448.813 563.684 441.649 603.758 425.5L604.506 427.355C569.548 441.441 524.991 448.739 474.582 448.739Z" fill="#F0F0F0"/>
<path d="M430.948 130.358C418.519 126.311 405.733 122.543 392.948 119.158C319.375 99.6805 247.051 92.765 183.793 99.1629L183.592 97.1727C247.085 90.7537 319.657 97.6859 393.46 117.224C406.281 120.619 419.103 124.398 431.567 128.456L430.948 130.358Z" fill="#F0F0F0"/>
<path d="M93.8079 285.963C63.1424 255.775 50.1907 224.282 57.3377 197.285C66.5095 162.64 107.256 138.686 169.128 131.564L169.357 133.552C108.345 140.573 68.2209 163.99 59.2713 197.796C52.3157 224.07 65.0794 254.875 95.2112 284.539L93.8079 285.963Z" fill="#F0F0F0"/>
<path d="M389.679 393.122C351.406 393.122 309.816 387.434 268.506 376.498C217.42 362.973 170.58 342.56 133.049 317.463L134.16 315.801C171.51 340.776 218.143 361.096 269.018 374.564C314.992 386.736 361.312 392.375 402.951 390.887L403.023 392.885C398.626 393.043 394.178 393.122 389.679 393.122Z" fill="#F0F0F0"/>
<path d="M477.479 380.544L476.839 378.649C511.068 367.076 532.478 348.433 538.752 324.734C546.728 294.606 529.4 259.646 489.962 226.291C450.322 192.767 393.161 164.951 329.006 147.967L329.518 146.033C393.953 163.092 451.393 191.052 491.253 224.764C531.314 258.645 548.87 294.33 540.686 325.246C534.231 349.625 512.375 368.746 477.479 380.544Z" fill="#F0F0F0"/>
<path d="M163.173 393.956C87.9702 360.603 30.0205 317.331 0 272.11L1.66602 271.004C31.479 315.911 89.1245 358.927 163.984 392.128L163.173 393.956Z" fill="#F0F0F0"/>
<path d="M427.582 451.739C419.825 451.739 411.936 451.566 403.914 451.22L404 449.222C463.864 451.813 516.684 444.649 556.758 428.5L557.506 430.355C522.548 444.441 477.991 451.739 427.582 451.739Z" fill="#F0F0F0"/>
<path d="M383.948 133.358C371.519 129.311 358.733 125.543 345.948 122.158C272.375 102.681 200.051 95.765 136.793 102.163L136.592 100.173C200.085 93.7537 272.657 100.686 346.46 120.224C359.281 123.619 372.103 127.398 384.567 131.456L383.948 133.358Z" fill="#F0F0F0"/>
<path d="M396.385 313.383L413.385 311.383L419.385 363.383L434.704 435.191C436.834 436.229 438.573 437.927 439.66 440.033C440.747 442.139 441.126 444.539 440.738 446.877C440.351 449.215 439.219 451.366 437.511 453.009C435.803 454.651 433.609 455.698 431.258 455.994C428.907 456.29 426.523 455.818 424.461 454.649C422.399 453.48 420.77 451.677 419.816 449.507C418.862 447.338 418.635 444.918 419.167 442.609C419.699 440.299 420.963 438.224 422.771 436.691L407.385 394.383L396.385 313.383Z" fill="#FFB6B6"/>
<path d="M371.69 684.097H385.695L392.359 630.072H371.688L371.69 684.097Z" fill="#FFB6B6"/>
<path d="M368.117 697.67H413.279V697.099C413.279 692.438 411.427 687.967 408.131 684.671C404.834 681.374 400.364 679.522 395.702 679.521H368.117V697.67Z" fill="#808080"/>
<path d="M264.199 676.458L277.951 679.113L294.739 627.333L274.439 623.414L264.199 676.458Z" fill="#FFB6B6"/>
<path d="M258.121 689.11L302.464 697.673L302.572 697.112C303.456 692.535 302.485 687.794 299.874 683.932C297.262 680.07 293.223 677.404 288.646 676.519L261.563 671.289L258.121 689.11Z" fill="#808080"/>
<path d="M393.652 228.169L385.514 243.783L324.562 230.34L331.24 200.067C336.525 176.105 357.712 158.8 381.674 164.085C405.636 169.37 416.816 192.79 411.531 216.752L401.708 247.352L391.771 245.16L393.652 228.169Z" fill="#808080"/>
<path d="M415.385 400.383C415.385 400.383 421.385 430.383 413.385 474.383C405.385 518.383 403.385 537.383 403.385 537.383C403.385 537.383 409.385 544.383 405.385 548.383C401.385 552.383 405.385 560.383 405.385 560.383L396.385 657.383L365.385 652.383L369.385 561.383C369.385 561.383 365.385 553.383 367.385 551.383C369.385 549.383 365.385 537.383 365.385 537.383L360.385 442.383L329.385 546.383C329.385 546.383 332.385 550.383 329.385 553.383C326.385 556.383 320.385 571.383 320.385 571.383L300.385 641.383L268.385 635.383L286.385 555.383C286.385 555.383 284.385 550.383 287.385 547.383C288.26 546.466 288.899 545.349 289.247 544.13C289.596 542.911 289.643 541.625 289.385 540.383C289.385 540.383 286.385 537.383 290.385 533.383C294.385 529.383 296.385 513.383 296.385 513.383C296.385 513.383 299.385 406.383 309.385 400.383C319.385 394.383 415.385 400.383 415.385 400.383Z" fill="#808080"/>
<path d="M370.168 234.922C385.632 234.922 398.168 222.386 398.168 206.922C398.168 191.458 385.632 178.922 370.168 178.922C354.704 178.922 342.168 191.458 342.168 206.922C342.168 222.386 354.704 234.922 370.168 234.922Z" fill="#FFB6B6"/>
<path d="M330.709 242.763C330.709 242.763 310.385 240.382 304.385 246.382L310.385 367.382C310.385 367.382 306.385 370.382 308.385 377.382C309.546 381.976 309.546 386.788 308.385 391.382C308.385 391.382 302.385 398.382 305.385 401.382C308.385 404.382 416.385 402.382 416.385 402.382C416.385 402.382 420.385 395.382 414.385 391.382C408.385 387.382 411.385 376.382 411.385 376.382C411.385 376.382 413.385 373.382 408.385 368.382C403.385 363.382 399.385 322.382 399.385 322.382L412.385 272.382C412.385 272.382 399.299 257.611 384.342 256.497L330.709 242.763Z" fill="#E6E6E6"/>
<path d="M396.89 273.069L412.383 272.381C412.383 272.381 421.383 290.381 422.383 306.381L427.89 366.069L392.383 371.381L396.89 273.069Z" fill="#E6E6E6"/>
<path d="M394.156 208.311L404.556 194.929C405.17 192.111 404.643 189.166 403.091 186.736C401.539 184.305 399.088 182.588 396.274 181.96L356.982 173.293C354.165 172.679 351.219 173.206 348.789 174.758C346.358 176.31 344.641 178.761 344.012 181.575L343.99 181.675L346.804 197.834L347.298 197.746C371.683 193.398 378.629 194.928 393.757 207.972L394.156 208.311Z" fill="#808080"/>
<path d="M289.509 422.123L291.384 343.383L293.384 287.383L317.384 290.383L304.495 424.228C305.85 425.93 306.671 427.995 306.852 430.163C307.034 432.331 306.568 434.504 305.515 436.408C304.462 438.311 302.867 439.86 300.934 440.857C299 441.855 296.814 442.256 294.653 442.011C292.491 441.767 290.45 440.886 288.789 439.482C287.127 438.077 285.92 436.211 285.319 434.12C284.718 432.029 284.75 429.807 285.412 427.735C286.074 425.662 287.335 423.833 289.037 422.477C289.191 422.354 289.348 422.236 289.509 422.122V422.123Z" fill="#FFB6B6"/>
<path d="M321.892 248.069L304.385 246.381C304.385 246.381 301.385 246.381 298.385 256.381C295.385 266.381 278.893 372.069 278.893 372.069L315.386 375.381L321.892 248.069Z" fill="#E6E6E6"/>
<path d="M156.166 110.533C181.294 110.533 201.664 90.163 201.664 65.0351C201.664 39.9073 181.294 19.5371 156.166 19.5371C131.038 19.5371 110.668 39.9073 110.668 65.0351C110.668 90.163 131.038 110.533 156.166 110.533Z" fill="#808080"/>
<path d="M166.838 92.9961C157.642 92.9961 148.652 90.2691 141.005 85.1598C133.358 80.0505 127.399 72.7885 123.879 64.2921C120.36 55.7957 119.439 46.4465 121.233 37.4268C123.027 28.407 127.456 20.1219 133.959 13.619C140.462 7.11611 148.747 2.6876 157.767 0.893465C166.786 -0.900671 176.136 0.0201507 184.632 3.53948C193.128 7.05882 200.39 13.0186 205.5 20.6652C210.609 28.3117 213.336 37.3017 213.336 46.4981C213.322 58.8259 208.419 70.6447 199.702 79.3618C190.985 88.0788 179.166 92.9822 166.838 92.9961V92.9961ZM166.838 2.00002C158.037 2.00001 149.434 4.60977 142.116 9.49927C134.799 14.3888 129.095 21.3384 125.727 29.4694C122.359 37.6003 121.478 46.5474 123.195 55.1792C124.912 63.811 129.15 71.7398 135.373 77.9629C141.596 84.1861 149.525 88.4241 158.157 90.1411C166.789 91.8581 175.736 90.9769 183.867 87.6089C191.998 84.241 198.947 78.5375 203.837 71.2199C208.726 63.9022 211.336 55.299 211.336 46.4981C211.323 34.7006 206.63 23.3901 198.288 15.048C189.946 6.70589 178.635 2.01341 166.838 2.00002Z" fill="#3F3D56"/>
<path d="M574.83 258.664C592.086 258.664 606.074 244.675 606.074 227.42C606.074 210.164 592.086 196.176 574.83 196.176C557.574 196.176 543.586 210.164 543.586 227.42C543.586 244.675 557.574 258.664 574.83 258.664Z" fill="#808080"/>
<path d="M582.158 246.936C575.781 246.936 569.547 245.044 564.244 241.501C558.942 237.958 554.809 232.923 552.368 227.031C549.928 221.139 549.29 214.656 550.534 208.401C551.778 202.146 554.849 196.401 559.358 191.891C563.868 187.382 569.613 184.311 575.868 183.067C582.122 181.823 588.606 182.461 594.498 184.902C600.389 187.342 605.425 191.475 608.968 196.778C612.511 202.08 614.402 208.314 614.402 214.691C614.393 223.24 610.992 231.436 604.948 237.481C598.903 243.526 590.707 246.926 582.158 246.936ZM582.158 184.447C576.176 184.447 570.329 186.221 565.355 189.544C560.382 192.868 556.505 197.591 554.216 203.117C551.927 208.644 551.328 214.725 552.495 220.592C553.662 226.459 556.543 231.848 560.772 236.077C565.002 240.307 570.391 243.187 576.258 244.354C582.125 245.521 588.206 244.922 593.732 242.633C599.259 240.344 603.982 236.468 607.305 231.494C610.629 226.521 612.402 220.673 612.402 214.691C612.393 206.673 609.204 198.985 603.534 193.316C597.864 187.646 590.177 184.456 582.158 184.447V184.447Z" fill="#3F3D56"/>
<path d="M649.502 698.685H49.502C49.2367 698.685 48.9824 698.579 48.7948 698.392C48.6073 698.204 48.502 697.95 48.502 697.685C48.502 697.419 48.6073 697.165 48.7948 696.977C48.9824 696.79 49.2367 696.685 49.502 696.685H649.502C649.767 696.685 650.022 696.79 650.209 696.977C650.397 697.165 650.502 697.419 650.502 697.685C650.502 697.95 650.397 698.204 650.209 698.392C650.022 698.579 649.767 698.685 649.502 698.685Z" fill="#CACACA"/>
<path d="M607.698 658.012C604.543 659.121 601.155 659.399 597.861 658.818C594.567 658.238 591.478 656.819 588.892 654.699C582.305 649.171 580.24 640.062 578.56 631.629L573.59 606.684L583.995 613.849C591.478 619.001 599.129 624.319 604.311 631.782C609.493 639.245 611.754 649.433 607.591 657.509" fill="#D3D3D3"/>
<path d="M606.093 689.948C607.403 680.406 608.75 670.742 607.831 661.098C607.015 652.533 604.402 644.168 599.082 637.309C596.258 633.675 592.822 630.562 588.929 628.109C587.914 627.468 586.979 629.077 587.99 629.715C594.727 633.973 599.937 640.261 602.871 647.671C606.111 655.912 606.631 664.895 606.071 673.649C605.733 678.943 605.018 684.202 604.297 689.455C604.24 689.693 604.275 689.943 604.396 690.155C604.517 690.368 604.713 690.526 604.947 690.599C605.184 690.663 605.438 690.631 605.652 690.509C605.866 690.387 606.024 690.186 606.091 689.949L606.093 689.948Z" fill="#F2F2F2"/>
<path d="M596.665 674.638C595.312 676.695 593.452 678.369 591.264 679.498C589.076 680.627 586.634 681.174 584.174 681.085C577.851 680.785 572.579 676.372 567.834 672.185L553.799 659.789L563.088 659.345C569.768 659.025 576.621 658.727 582.988 660.787C589.355 662.847 595.219 667.805 596.382 674.387" fill="#E6E6E6"/>
<path d="M609.795 695.434C603.495 684.278 596.177 671.879 583.11 667.916C579.476 666.818 575.667 666.425 571.886 666.757C570.694 666.857 570.992 668.697 572.186 668.594C578.523 668.068 584.849 669.742 590.098 673.333C595.149 676.771 599.081 681.55 602.409 686.619C604.448 689.719 606.274 692.96 608.1 696.192C608.679 697.224 610.385 696.479 609.795 695.434Z" fill="#F2F2F2"/>
<path d="M112.999 670.999C115.271 671.948 117.749 672.295 120.194 672.008C122.64 671.72 124.97 670.808 126.96 669.359C132.034 665.575 133.936 658.969 135.53 652.844L140.236 634.723L132.287 639.549C126.57 643.019 120.722 646.604 116.595 651.872C112.469 657.141 110.381 664.523 113.101 670.637" fill="#E6E6E6"/>
<path d="M113.743 695.58C112.727 682.809 111.861 668.437 120.478 657.845C122.876 654.902 125.815 652.446 129.135 650.607C130.18 650.023 130.961 651.715 129.914 652.298C124.365 655.406 120.057 660.33 117.714 666.243C115.449 671.917 114.862 678.078 114.937 684.142C114.981 687.852 115.279 691.56 115.573 695.26C115.669 696.44 113.837 696.776 113.743 695.58Z" fill="#F2F2F2"/>
<path d="M94.8642 379.373C119.669 379.373 139.777 359.265 139.777 334.46C139.777 309.655 119.669 289.547 94.8642 289.547C70.0594 289.547 49.9512 309.655 49.9512 334.46C49.9512 359.265 70.0594 379.373 94.8642 379.373Z" fill="#E4E4E4"/>
<path d="M105.401 362.076C96.3202 362.076 87.4434 359.383 79.8931 354.338C72.3428 349.293 66.4581 342.122 62.9831 333.733C59.5081 325.343 58.5989 316.112 60.3705 307.205C62.1422 298.299 66.515 290.118 72.936 283.697C79.3571 277.276 87.538 272.904 96.4442 271.132C105.35 269.361 114.582 270.27 122.971 273.745C131.361 277.22 138.531 283.105 143.576 290.655C148.621 298.206 151.314 307.082 151.314 316.163C151.3 328.336 146.459 340.006 137.851 348.613C129.244 357.22 117.574 362.062 105.401 362.076V362.076ZM105.401 272.25C96.7158 272.25 88.2257 274.826 81.0043 279.651C73.7829 284.476 68.1545 291.334 64.8309 299.358C61.5073 307.382 60.6377 316.212 62.3321 324.73C64.0265 333.248 68.2088 341.073 74.3501 347.214C80.4914 353.355 88.3159 357.538 96.8341 359.232C105.352 360.926 114.182 360.057 122.206 356.733C130.23 353.409 137.088 347.781 141.913 340.56C146.738 333.338 149.314 324.848 149.314 316.163C149.301 304.521 144.67 293.359 136.438 285.126C128.205 276.894 117.043 272.263 105.401 272.25V272.25Z" fill="#808080"/>
<path d="M67.7519 178.342C72.1702 178.342 75.7519 174.76 75.7519 170.342C75.7519 165.924 72.1702 162.342 67.7519 162.342C63.3337 162.342 59.752 165.924 59.752 170.342C59.752 174.76 63.3337 178.342 67.7519 178.342Z" fill="#F2F2F2"/>
<path d="M478.752 138.342C483.17 138.342 486.752 134.76 486.752 130.342C486.752 125.924 483.17 122.342 478.752 122.342C474.334 122.342 470.752 125.924 470.752 130.342C470.752 134.76 474.334 138.342 478.752 138.342Z" fill="#D3D3D3"/>
<path d="M531.752 422.342C536.17 422.342 539.752 418.76 539.752 414.342C539.752 409.924 536.17 406.342 531.752 406.342C527.334 406.342 523.752 409.924 523.752 414.342C523.752 418.76 527.334 422.342 531.752 422.342Z" fill="#F2F2F2"/>
<path d="M173.479 201.644L173.783 199.667L212.855 205.661C208.873 201.817 195.687 189.93 183.728 188.724C169.441 187.285 163.156 193.4 162.325 201.643C161.494 209.886 166.433 217.133 180.72 218.573C192.83 219.794 208.362 210.53 212.815 207.679L173.479 201.644Z" fill="#F2F2F2"/>
<path d="M547.367 95.7282L546.161 94.1318L577.706 70.3086C572.174 70.4817 554.459 71.6421 545.255 79.3726C534.26 88.6079 534.259 97.3781 539.587 103.722C544.915 110.065 553.554 111.58 564.549 102.345C573.87 94.5165 578.062 76.9243 579.124 71.7443L547.367 95.7282Z" fill="#F2F2F2"/>
<path d="M472.885 325.065L472.018 323.917L494.712 306.777C490.732 306.902 477.987 307.737 471.365 313.298C463.455 319.943 463.455 326.252 467.288 330.816C471.121 335.38 477.336 336.47 485.247 329.825C491.952 324.193 494.968 311.537 495.732 307.81L472.885 325.065Z" fill="#F2F2F2"/>
<path d="M293.231 52.2521C299.38 35.7202 313.907 21.4355 331.463 19.7363C320.908 35.7523 316.359 54.9855 318.619 74.033C319.518 81.3757 321.282 89.4489 317.323 95.6984C314.861 99.5869 310.52 101.981 306.046 103.061C301.572 104.141 296.91 104.058 292.307 103.968L291.277 104.477C288.041 87.1378 287.082 68.7841 293.231 52.2521Z" fill="#F0F0F0"/>
<path d="M331.547 20.0957C319.579 28.4569 310.549 40.3766 305.741 54.1617C304.653 57.1109 304.037 60.2132 303.916 63.3543C303.896 66.4179 304.697 69.431 306.236 72.0803C307.621 74.5794 309.327 76.9753 310.08 79.7676C310.444 81.2026 310.501 82.6984 310.247 84.157C309.993 85.6155 309.433 87.0039 308.605 88.231C306.62 91.3422 303.636 93.5547 300.642 95.617C297.319 97.9067 293.83 100.232 291.796 103.829C291.55 104.265 290.888 103.857 291.134 103.422C294.672 97.164 302.098 94.8908 306.641 89.5749C308.76 87.0944 310.145 83.9601 309.49 80.6571C308.917 77.7688 307.16 75.2966 305.736 72.7783C304.197 70.2158 303.309 67.3155 303.149 64.3307C303.111 61.1935 303.606 58.0727 304.615 55.1018C306.778 48.3771 309.986 42.0345 314.12 36.3062C318.802 29.7425 324.572 24.0279 331.181 19.4099C331.59 19.1242 331.954 19.8119 331.547 20.0957V20.0957Z" fill="white"/>
<path d="M307.029 49.6329C304.825 48.5123 303.092 46.6449 302.139 44.3643C301.185 42.0837 301.073 39.5383 301.823 37.1829C301.976 36.7068 302.723 36.9227 302.57 37.3994C301.868 39.5916 301.972 41.9625 302.864 44.0844C303.757 46.2063 305.378 47.9393 307.436 48.9707C307.883 49.1954 307.473 49.8563 307.029 49.6329Z" fill="white"/>
<path d="M305.368 70.9073C310.186 69.3854 314.254 66.1032 316.76 61.7153C317.008 61.2803 317.67 61.688 317.423 62.1224C314.806 66.6838 310.566 70.0908 305.548 71.6634C305.07 71.813 304.892 71.056 305.368 70.9073V70.9073Z" fill="white"/>
<path d="M319.336 30.6252C320.098 31.2365 321 31.6489 321.961 31.8253C322.922 32.0018 323.911 31.9369 324.841 31.6363C325.317 31.4808 325.495 32.238 325.021 32.3925C323.993 32.7198 322.9 32.7902 321.838 32.5976C320.776 32.4049 319.777 31.9551 318.929 31.2874C318.843 31.2312 318.783 31.1446 318.759 31.0453C318.735 30.946 318.75 30.8414 318.801 30.7527C318.855 30.6653 318.942 30.6029 319.042 30.579C319.142 30.5551 319.248 30.5717 319.336 30.6252V30.6252Z" fill="white"/>
<path d="M373.78 61.8769C373.485 61.9824 373.19 62.088 372.894 62.1999C368.941 63.6401 365.111 65.399 361.442 67.4593C361.156 67.6141 360.868 67.7753 360.587 67.938C351.801 72.9961 344.031 79.6413 337.672 87.5359C335.144 90.6796 332.859 94.0111 330.837 97.5016C328.044 102.322 325.399 107.771 321.298 111.284C320.874 111.656 320.428 112 319.962 112.316L291.977 105.695C291.921 105.648 291.864 105.607 291.807 105.56L290.678 105.347C290.769 105.159 290.869 104.967 290.96 104.78C291.013 104.671 291.072 104.563 291.125 104.455C291.162 104.382 291.2 104.31 291.229 104.243C291.241 104.219 291.254 104.195 291.265 104.177C291.294 104.11 291.328 104.051 291.356 103.99C291.908 102.914 292.467 101.839 293.036 100.767C293.037 100.761 293.037 100.761 293.045 100.756C297.298 92.5429 302.51 84.8637 308.572 77.8789C308.755 77.6729 308.94 77.4605 309.137 77.2575C311.905 74.1858 314.92 71.3455 318.152 68.765C319.925 67.3576 321.769 66.041 323.676 64.8202C328.61 61.6751 334.008 59.3256 339.671 57.8579C350.962 54.9336 363.062 55.6529 373.023 61.4281C373.278 61.5761 373.526 61.7225 373.78 61.8769Z" fill="#F0F0F0"/>
<path d="M373.632 62.2168C359.042 61.687 344.656 65.7679 332.517 73.8797C329.873 75.5796 327.514 77.6857 325.525 80.1203C323.665 82.5546 322.491 85.4427 322.124 88.4843C321.725 91.3136 321.645 94.2537 320.565 96.9368C319.992 98.3019 319.137 99.5305 318.056 100.542C316.975 101.554 315.692 102.325 314.292 102.806C310.834 104.095 307.119 104.065 303.487 103.909C299.455 103.737 295.269 103.493 291.48 105.141C291.021 105.34 290.738 104.616 291.196 104.417C297.789 101.55 305.087 104.206 311.914 102.697C315.1 101.992 318.093 100.324 319.559 97.2919C320.84 94.6407 320.925 91.6089 321.305 88.7407C321.619 85.7682 322.656 82.9178 324.326 80.4386C326.184 77.9105 328.458 75.717 331.052 73.9521C336.828 69.8855 343.208 66.7525 349.958 64.6677C357.648 62.2457 365.695 61.1569 373.752 61.4486C374.251 61.4669 374.127 62.2349 373.632 62.2168L373.632 62.2168Z" fill="white"/>
<path d="M336.273 71.0378C335.189 68.8165 334.929 66.282 335.541 63.8869C336.153 61.4918 337.596 59.3922 339.613 57.9629C340.022 57.6751 340.488 58.2973 340.079 58.5854C338.198 59.9129 336.854 61.8689 336.289 64.1003C335.724 66.3318 335.975 68.6917 336.997 70.7542C337.219 71.2027 336.494 71.4837 336.273 71.0378V71.0378Z" fill="white"/>
<path d="M322.137 87.0239C326.901 88.7098 332.125 88.5384 336.767 86.5437C337.227 86.3457 337.51 87.0697 337.051 87.2675C332.216 89.3342 326.779 89.5016 321.826 87.7362C321.354 87.5677 321.667 86.8562 322.137 87.0239Z" fill="white"/>
<path d="M357.542 63.2697C357.782 64.2167 358.254 65.089 358.915 65.8085C359.576 66.528 360.406 67.072 361.329 67.3917C361.803 67.5542 361.488 68.2655 361.018 68.104C359.999 67.7461 359.084 67.1441 358.352 66.3509C357.62 65.5576 357.093 64.5971 356.818 63.5534C356.784 63.4571 356.788 63.3515 356.829 63.258C356.869 63.1644 356.944 63.0899 357.038 63.0497C357.134 63.0126 357.241 63.0149 357.335 63.0561C357.43 63.0973 357.504 63.1741 357.542 63.2697H357.542Z" fill="white"/>
<path d="M208.231 280.252C214.38 263.72 228.907 249.435 246.463 247.736C235.909 263.752 231.359 282.986 233.619 302.033C234.518 309.376 236.282 317.449 232.324 323.698C229.861 327.587 225.52 329.981 221.046 331.061C216.572 332.141 211.91 332.058 207.307 331.968L206.277 332.477C203.041 315.138 202.082 296.784 208.231 280.252Z" fill="#F0F0F0"/>
<path d="M246.547 248.096C234.579 256.457 225.549 268.377 220.741 282.162C219.653 285.111 219.037 288.213 218.916 291.354C218.896 294.418 219.697 297.431 221.236 300.08C222.621 302.579 224.327 304.975 225.08 307.768C225.444 309.203 225.501 310.698 225.247 312.157C224.993 313.616 224.433 315.004 223.605 316.231C221.62 319.342 218.636 321.555 215.642 323.617C212.318 325.907 208.83 328.232 206.796 331.829C206.55 332.265 205.888 331.857 206.134 331.422C209.672 325.164 217.098 322.891 221.641 317.575C223.76 315.094 225.145 311.96 224.49 308.657C223.917 305.769 222.16 303.297 220.736 300.778C219.197 298.216 218.309 295.315 218.149 292.331C218.111 289.193 218.606 286.073 219.615 283.102C221.778 276.377 224.986 270.034 229.12 264.306C233.802 257.742 239.572 252.028 246.181 247.41C246.59 247.124 246.953 247.812 246.547 248.096V248.096Z" fill="white"/>
<path d="M222.029 277.633C219.825 276.512 218.092 274.645 217.139 272.364C216.185 270.084 216.073 267.538 216.823 265.183C216.976 264.707 217.723 264.923 217.57 265.399C216.868 267.592 216.972 269.963 217.864 272.084C218.757 274.206 220.378 275.939 222.436 276.971C222.883 277.195 222.473 277.856 222.029 277.633Z" fill="white"/>
<path d="M220.368 298.907C225.186 297.385 229.254 294.103 231.76 289.715C232.008 289.28 232.67 289.688 232.423 290.122C229.806 294.684 225.566 298.091 220.548 299.663C220.07 299.813 219.892 299.056 220.368 298.907Z" fill="white"/>
<path d="M234.336 258.625C235.098 259.236 236 259.649 236.961 259.825C237.922 260.002 238.911 259.937 239.841 259.636C240.317 259.481 240.495 260.238 240.021 260.393C238.993 260.72 237.9 260.79 236.838 260.598C235.775 260.405 234.777 259.955 233.929 259.287C233.843 259.231 233.783 259.145 233.759 259.045C233.735 258.946 233.75 258.841 233.801 258.753C233.855 258.665 233.942 258.603 234.042 258.579C234.142 258.555 234.248 258.572 234.336 258.625Z" fill="white"/>
<path d="M288.78 289.877C288.485 289.982 288.19 290.088 287.894 290.2C283.941 291.64 280.111 293.399 276.442 295.459C276.156 295.614 275.868 295.775 275.587 295.938C266.801 300.996 259.031 307.641 252.672 315.536C250.144 318.68 247.859 322.011 245.837 325.502C243.044 330.322 240.399 335.771 236.298 339.284C235.874 339.656 235.428 340 234.962 340.316L206.977 333.695C206.921 333.648 206.863 333.607 206.807 333.56L205.678 333.347C205.769 333.159 205.869 332.967 205.96 332.78C206.013 332.671 206.072 332.563 206.125 332.454C206.162 332.382 206.199 332.31 206.229 332.243C206.241 332.219 206.254 332.195 206.264 332.177C206.294 332.11 206.328 332.051 206.356 331.99C206.908 330.914 207.467 329.839 208.036 328.767C208.037 328.761 208.037 328.761 208.045 328.756C212.298 320.543 217.51 312.864 223.572 305.879C223.755 305.673 223.94 305.46 224.137 305.258C226.905 302.186 229.92 299.345 233.151 296.765C234.925 295.358 236.769 294.041 238.676 292.82C243.61 289.675 249.008 287.326 254.671 285.858C265.962 282.934 278.062 283.653 288.023 289.428C288.278 289.576 288.526 289.723 288.78 289.877Z" fill="#F0F0F0"/>
<path d="M288.632 290.217C274.042 289.687 259.656 293.768 247.517 301.88C244.873 303.58 242.514 305.686 240.525 308.12C238.665 310.555 237.491 313.443 237.124 316.484C236.725 319.314 236.645 322.254 235.565 324.937C234.992 326.302 234.137 327.531 233.056 328.542C231.975 329.554 230.692 330.325 229.292 330.806C225.834 332.095 222.119 332.065 218.487 331.909C214.455 331.737 210.269 331.493 206.48 333.141C206.021 333.34 205.738 332.616 206.196 332.417C212.789 329.55 220.087 332.206 226.914 330.697C230.1 329.992 233.093 328.324 234.559 325.292C235.84 322.641 235.925 319.609 236.304 316.741C236.619 313.768 237.656 310.918 239.326 308.439C241.184 305.91 243.458 303.717 246.052 301.952C251.828 297.886 258.208 294.752 264.958 292.668C272.648 290.246 280.695 289.157 288.752 289.449C289.251 289.467 289.127 290.235 288.632 290.217L288.632 290.217Z" fill="white"/>
<path d="M251.273 299.038C250.189 296.816 249.929 294.282 250.541 291.887C251.153 289.492 252.596 287.392 254.613 285.963C255.022 285.675 255.488 286.297 255.079 286.585C253.198 287.913 251.854 289.869 251.289 292.1C250.724 294.332 250.975 296.692 251.997 298.754C252.219 299.203 251.494 299.484 251.273 299.038V299.038Z" fill="white"/>
<path d="M237.137 315.024C241.901 316.71 247.125 316.538 251.767 314.544C252.227 314.346 252.51 315.07 252.051 315.268C247.216 317.334 241.779 317.502 236.826 315.736C236.354 315.568 236.667 314.856 237.137 315.024V315.024Z" fill="white"/>
<path d="M272.542 291.27C272.782 292.217 273.254 293.089 273.915 293.809C274.576 294.528 275.406 295.072 276.329 295.392C276.803 295.554 276.488 296.266 276.018 296.104C274.999 295.746 274.084 295.144 273.352 294.351C272.62 293.558 272.093 292.597 271.818 291.553C271.784 291.457 271.788 291.352 271.829 291.258C271.869 291.164 271.944 291.09 272.038 291.05C272.134 291.013 272.241 291.015 272.335 291.056C272.43 291.097 272.504 291.174 272.542 291.27H272.542Z" fill="white"/>
<path d="M556.575 404.166C553.437 392.436 555.898 378.627 565.075 370.676C565.534 383.873 570.646 396.482 579.507 406.273C582.938 410.037 587.146 413.865 587.415 418.951C587.431 422.156 586.215 425.244 584.02 427.579C581.835 429.88 579.365 431.891 576.669 433.564L576.294 434.26C567.566 425.817 559.712 415.897 556.575 404.166Z" fill="#F0F0F0"/>
<path d="M565.268 370.845C561.882 380.309 561.565 390.599 564.36 400.253C564.925 402.342 565.816 404.329 566.999 406.141C568.21 407.868 569.86 409.24 571.78 410.114C573.627 410.827 575.38 411.761 577.002 412.897C577.778 413.557 578.406 414.374 578.845 415.294C579.284 416.214 579.523 417.217 579.547 418.236C579.534 420.753 579.015 423.242 578.021 425.555C577.068 428.165 576.037 430.861 576.329 433.691C576.365 434.034 575.831 434.069 575.795 433.726C575.287 428.803 578.549 424.567 578.98 419.773C579.144 418.668 579.053 417.54 578.715 416.475C578.376 415.411 577.798 414.438 577.025 413.631C575.552 412.238 573.581 411.551 571.777 410.705C569.892 409.88 568.238 408.606 566.959 406.994C565.687 405.249 564.721 403.299 564.103 401.23C562.637 396.593 561.909 391.754 561.947 386.891C561.958 381.34 562.92 375.833 564.789 370.606C564.905 370.283 565.383 370.524 565.268 370.845L565.268 370.845Z" fill="white"/>
<path d="M563.275 397.197C561.592 397.446 559.875 397.088 558.43 396.188C556.986 395.288 555.909 393.904 555.391 392.283C555.287 391.955 555.793 391.778 555.896 392.107C556.376 393.617 557.38 394.907 558.726 395.742C560.073 396.577 561.674 396.904 563.24 396.663C563.58 396.611 563.614 397.145 563.275 397.197V397.197Z" fill="white"/>
<path d="M570.824 409.8C572.922 407.025 573.897 403.562 573.555 400.1C573.521 399.757 574.055 399.722 574.089 400.064C574.438 403.668 573.416 407.27 571.226 410.153C571.017 410.427 570.616 410.073 570.824 409.8V409.8Z" fill="white"/>
<path d="M562.607 381.622C563.279 381.661 563.949 381.533 564.559 381.249C565.169 380.965 565.699 380.534 566.101 379.995C566.306 379.718 566.707 380.072 566.503 380.348C566.056 380.941 565.471 381.417 564.798 381.732C564.125 382.047 563.385 382.193 562.643 382.156C562.572 382.158 562.504 382.134 562.451 382.088C562.398 382.041 562.365 381.977 562.358 381.907C562.354 381.836 562.377 381.766 562.424 381.713C562.471 381.66 562.537 381.627 562.607 381.622V381.622Z" fill="white"/>
<path d="M605.625 377.465C605.502 377.642 605.379 377.818 605.257 377.999C603.612 380.383 602.163 382.897 600.925 385.516C600.826 385.717 600.729 385.922 600.636 386.125C597.72 392.466 596.007 399.294 595.584 406.26C595.418 409.032 595.464 411.813 595.72 414.578C596.073 418.397 596.761 422.51 595.859 426.116C595.769 426.494 595.656 426.865 595.52 427.229L577.173 434.666C577.122 434.662 577.074 434.662 577.023 434.658L576.304 434.988C576.281 434.847 576.26 434.699 576.237 434.557C576.223 434.475 576.214 434.391 576.2 434.309C576.192 434.254 576.184 434.199 576.174 434.149C576.171 434.131 576.169 434.112 576.168 434.098C576.157 434.049 576.153 434.002 576.145 433.956C576.025 433.132 575.911 432.306 575.803 431.478C575.801 431.474 575.801 431.474 575.803 431.468C574.917 425.163 574.782 418.775 575.401 412.438C575.422 412.249 575.441 412.056 575.47 411.864C575.8 409.036 576.36 406.24 577.145 403.504C577.58 402.007 578.09 400.533 578.674 399.087C580.19 395.355 582.283 391.885 584.878 388.804C590.05 382.662 597.129 378.243 605.022 377.515C605.224 377.496 605.422 377.479 605.625 377.465Z" fill="#F0F0F0"/>
<path d="M605.678 377.714C597.277 383.231 590.828 391.256 587.248 400.648C586.441 402.656 585.956 404.779 585.81 406.938C585.736 409.046 586.228 411.135 587.235 412.988C588.28 414.669 589.118 416.471 589.729 418.354C589.951 419.349 589.961 420.379 589.757 421.378C589.554 422.377 589.141 423.321 588.547 424.149C587.021 426.151 585.108 427.827 582.922 429.075C580.589 430.585 578.143 432.117 576.672 434.552C576.494 434.847 576.047 434.554 576.225 434.259C578.783 430.022 583.938 428.604 587.169 425.035C587.965 424.252 588.571 423.297 588.942 422.243C589.312 421.189 589.436 420.064 589.305 418.955C588.968 416.956 587.807 415.22 586.877 413.459C585.868 411.665 585.315 409.652 585.264 407.595C585.299 405.435 585.702 403.297 586.454 401.273C588.076 396.688 590.408 392.386 593.366 388.526C596.717 384.101 600.8 380.282 605.439 377.234C605.726 377.046 605.963 377.526 605.678 377.714L605.678 377.714Z" fill="white"/>
<path d="M588.223 397.556C586.728 396.741 585.572 395.422 584.961 393.834C584.35 392.246 584.323 390.492 584.886 388.886C585.001 388.561 585.51 388.724 585.395 389.049C584.869 390.544 584.894 392.178 585.466 393.655C586.038 395.133 587.12 396.358 588.516 397.108C588.819 397.272 588.524 397.718 588.223 397.556V397.556Z" fill="white"/>
<path d="M586.659 412.163C590.005 411.21 592.869 409.032 594.68 406.062C594.86 405.767 595.307 406.061 595.128 406.355C593.238 409.442 590.253 411.703 586.769 412.686C586.436 412.78 586.329 412.256 586.659 412.163V412.163Z" fill="white"/>
<path d="M597.065 384.719C597.578 385.155 598.19 385.456 598.848 385.597C599.506 385.737 600.188 385.712 600.834 385.523C601.165 385.426 601.272 385.95 600.943 386.047C600.229 386.252 599.475 386.279 598.748 386.126C598.021 385.972 597.343 385.643 596.772 385.167C596.714 385.126 596.674 385.066 596.66 384.997C596.646 384.928 596.658 384.856 596.695 384.796C596.734 384.737 596.795 384.696 596.864 384.681C596.934 384.667 597.006 384.68 597.065 384.719V384.719Z" fill="white"/>
</g>
<defs>
<clipPath id="clip0_1224:1066">
<rect width="650.502" height="698.685" fill="white"/>
</clipPath>
</defs>
</svg>
