<svg width="741" height="595" viewBox="0 0 741 595" fill="none" xmlns="http://www.w3.org/2000/svg">
<path d="M363.393 594C388.798 594 409.393 573.405 409.393 548C409.393 522.595 388.798 502 363.393 502C337.987 502 317.393 522.595 317.393 548C317.393 573.405 337.987 594 363.393 594Z" fill="#CCCCCC"/>
<path d="M638.199 591.416C663.934 583.687 691.293 575.628 711.703 557.255C729.94 540.837 742.253 515.766 734.697 491.144C727.157 466.572 704.573 450.187 681.256 442.038C668.031 437.416 654.195 434.852 640.364 432.838C625.329 430.648 610.228 428.854 595.134 427.128C534.016 420.137 472.668 415.867 411.09 414.317C380.706 413.552 350.327 413.57 319.938 414.011C292.798 414.405 264.216 414.395 239.039 402.861C219.46 393.891 201.691 377.572 196.235 356.127C189.938 331.372 201.553 306.163 218.215 288.235C226.998 278.785 237.263 270.831 247.852 263.518C259.339 255.583 271.227 248.211 283.372 241.33C307.293 227.782 332.302 216.253 358.139 206.861C370.885 202.227 383.82 198.228 396.867 194.54C407.884 191.425 418.935 188.306 429.583 184.062C450.166 175.858 469.744 161.962 474.977 139.181C479.937 117.589 471.574 94.15 456.912 78.1101C439.949 59.5531 414.373 51.4183 389.852 50.1021C362.324 48.6245 335.43 55.5141 309.555 64.258C281.959 73.584 254.957 84.3072 226.777 91.8612C198.833 99.3446 170.348 104.639 141.581 107.698C127.499 109.197 112.991 110.89 98.8251 109.742C86.9526 108.78 75.1408 105.289 66.391 96.8628C58.8884 89.6381 54.4191 79.7088 55.9557 69.2304C56.2348 67.3273 59.1259 68.1364 58.8485 70.028C56.9781 82.7831 65.6484 94.5366 76.3327 100.557C88.6809 107.516 103.707 107.525 117.454 106.729C147.263 104.929 176.871 100.649 205.969 93.9337C234.561 87.4031 262.133 78.0673 289.673 68.0946C315.829 58.6231 342.57 49.3788 370.513 47.3273C394.759 45.5472 420.265 49.0795 441.387 61.7504C459.951 72.8864 473.602 91.4577 477.952 112.769C482.202 133.593 476.315 154.554 460.552 169.086C444.23 184.132 421.851 190.565 400.995 196.489C374.543 204.004 348.658 212.787 323.603 224.192C298.206 235.72 273.85 249.413 250.803 265.121C228.556 280.323 206.602 299.451 199.566 326.572C196.289 339.205 196.894 352.604 202.378 364.536C207.254 375.146 215.284 384.071 224.639 390.955C246.96 407.379 275.092 410.752 302.054 411.087C332.335 411.464 362.617 410.442 392.909 410.939C454.641 411.952 516.247 415.71 577.727 422.212C593.133 423.842 608.518 425.645 623.885 427.619C637.706 429.395 651.575 431.159 665.163 434.313C689.326 439.922 712.837 450.705 727.855 471.191C734.52 480.071 738.65 490.594 739.802 501.637C740.854 513.161 738.032 524.707 732.822 534.958C721.29 557.649 699.688 572.081 676.749 581.563C664.462 586.642 651.717 590.489 638.997 594.309C637.144 594.866 636.352 591.971 638.2 591.416L638.199 591.416Z" fill="#F2F2F2"/>
<path d="M57.8926 93.5C71.1474 93.5 81.8926 82.7548 81.8926 69.5C81.8926 56.2452 71.1474 45.5 57.8926 45.5C44.6377 45.5 33.8926 56.2452 33.8926 69.5C33.8926 82.7548 44.6377 93.5 57.8926 93.5Z" fill="#F2F2F2"/>
<path d="M224.393 139C237.647 139 248.393 128.255 248.393 115C248.393 101.745 237.647 91 224.393 91C211.138 91 200.393 101.745 200.393 115C200.393 128.255 211.138 139 224.393 139Z" fill="#F2F2F2"/>
<path d="M365.393 48C378.647 48 389.393 37.2548 389.393 24C389.393 10.7452 378.647 0 365.393 0C352.138 0 341.393 10.7452 341.393 24C341.393 37.2548 352.138 48 365.393 48Z" fill="#F2F2F2"/>
<path d="M453.393 150C466.647 150 477.393 139.255 477.393 126C477.393 112.745 466.647 102 453.393 102C440.138 102 429.393 112.745 429.393 126C429.393 139.255 440.138 150 453.393 150Z" fill="#F2F2F2"/>
<path d="M334.393 268C347.647 268 358.393 257.255 358.393 244C358.393 230.745 347.647 220 334.393 220C321.138 220 310.393 230.745 310.393 244C310.393 257.255 321.138 268 334.393 268Z" fill="#F2F2F2"/>
<path d="M183.393 325C196.647 325 207.393 314.255 207.393 301C207.393 287.745 196.647 277 183.393 277C170.138 277 159.393 287.745 159.393 301C159.393 314.255 170.138 325 183.393 325Z" fill="#F2F2F2"/>
<path d="M343.393 414C356.647 414 367.393 403.255 367.393 390C367.393 376.745 356.647 366 343.393 366C330.138 366 319.393 376.745 319.393 390C319.393 403.255 330.138 414 343.393 414Z" fill="#F2F2F2"/>
<path d="M515.393 464C528.647 464 539.393 453.255 539.393 440C539.393 426.745 528.647 416 515.393 416C502.138 416 491.393 426.745 491.393 440C491.393 453.255 502.138 464 515.393 464Z" fill="#F2F2F2"/>
<path d="M716.393 453C729.647 453 740.393 442.255 740.393 429C740.393 415.745 729.647 405 716.393 405C703.138 405 692.393 415.745 692.393 429C692.393 442.255 703.138 453 716.393 453Z" fill="#F2F2F2"/>
<path d="M358.464 68.0035C286.573 68.5113 227.708 126.933 226.687 198.82C226.678 199.484 226.673 204.15 226.674 210.254C226.674 219.204 230.23 227.786 236.558 234.115C242.886 240.443 251.468 243.999 260.418 244H260.418C264.854 243.999 269.247 243.124 273.345 241.425C277.443 239.725 281.166 237.235 284.301 234.097C287.437 230.958 289.923 227.232 291.618 223.132C293.312 219.032 294.183 214.639 294.179 210.202C294.176 206.05 294.173 203.176 294.173 203C294.171 191.89 297.061 180.971 302.559 171.316C308.056 161.662 315.973 153.605 325.529 147.938C335.085 142.271 345.951 139.189 357.059 138.996C368.168 138.803 379.135 141.504 388.882 146.835C398.63 152.166 406.822 159.942 412.652 169.399C418.483 178.856 421.751 189.668 422.136 200.771C422.52 211.875 420.008 222.887 414.846 232.725C409.683 242.563 402.049 250.887 392.694 256.879L392.705 256.894C392.705 256.894 344.677 287.813 330.035 330.229L330.047 330.232C327.472 338.921 326.168 347.937 326.173 357C326.173 360.725 326.393 393.321 326.816 419.778C326.964 428.906 330.695 437.611 337.203 444.013C343.712 450.415 352.476 454.002 361.606 454H361.606C366.194 454 370.736 453.093 374.971 451.33C379.207 449.568 383.052 446.986 386.286 443.732C389.519 440.478 392.078 436.617 393.813 432.371C395.549 428.124 396.428 423.577 396.4 418.989C396.253 394.76 396.173 366.548 396.173 364.5C396.173 338.455 421.299 312.505 441.937 295.583C465.703 276.096 482.805 249.54 489.674 219.584C491.194 213.416 492.032 207.1 492.173 200.75C492.173 183.236 488.708 165.896 481.976 149.727C475.245 133.559 465.381 118.882 452.952 106.543C440.524 94.2039 425.776 84.446 409.559 77.8316C393.343 71.2171 375.978 67.8769 358.464 68.0035V68.0035Z" fill="#CCCCCC"/>
<path d="M560.449 272.996C577.018 272.996 590.449 259.565 590.449 242.996C590.449 226.428 577.018 212.996 560.449 212.996C543.881 212.996 530.449 226.428 530.449 242.996C530.449 259.565 543.881 272.996 560.449 272.996Z" fill="#323537"/>
<path d="M505.012 582.13H492.753L486.92 534.842H505.015L505.012 582.13Z" fill="#A0616A"/>
<path d="M483.996 578.625H507.64V593.512H469.109C469.109 591.557 469.494 589.621 470.243 587.815C470.991 586.009 472.087 584.368 473.47 582.985C474.852 581.603 476.493 580.506 478.299 579.758C480.105 579.01 482.041 578.625 483.996 578.625Z" fill="#808080"/>
<path d="M600.012 582.13H587.753L581.92 534.842H600.015L600.012 582.13Z" fill="#A0616A"/>
<path d="M578.996 578.625H602.64V593.512H564.109C564.109 591.557 564.494 589.621 565.243 587.815C565.991 586.009 567.087 584.368 568.47 582.985C569.852 581.603 571.493 580.506 573.299 579.758C575.105 579.01 577.041 578.625 578.996 578.625V578.625Z" fill="#808080"/>
<path d="M555.889 273.171C569.454 273.171 580.45 262.175 580.45 248.61C580.45 235.045 569.454 224.049 555.889 224.049C542.324 224.049 531.328 235.045 531.328 248.61C531.328 262.175 542.324 273.171 555.889 273.171Z" fill="#A0616A"/>
<path d="M570.528 352.406L581.518 327.156C584.187 321.233 584.952 314.627 583.707 308.251C582.462 301.874 579.269 296.041 574.568 291.556C573.603 290.602 572.577 289.71 571.498 288.886C566.075 284.644 559.393 282.332 552.508 282.316C547.879 282.334 543.309 283.351 539.108 285.296C538.748 285.456 538.398 285.626 538.038 285.796C537.348 286.126 536.668 286.486 536.008 286.856C531.703 289.328 528.039 292.777 525.312 296.925C522.585 301.073 520.871 305.804 520.308 310.736L515.458 351.376C514.238 354.566 470.718 469.766 485.938 557.716C486.1 558.656 486.558 559.518 487.246 560.179C487.933 560.839 488.813 561.262 489.758 561.386L505.188 563.486C506.315 563.641 507.458 563.362 508.388 562.707C509.317 562.052 509.964 561.069 510.198 559.956L536.088 436.546C536.25 435.78 536.663 435.089 537.263 434.585C537.863 434.081 538.615 433.793 539.398 433.766C540.181 433.74 540.95 433.977 541.583 434.439C542.216 434.901 542.675 435.562 542.888 436.316L579.468 566.096C579.729 567.039 580.291 567.871 581.07 568.463C581.848 569.056 582.8 569.377 583.778 569.376C584.07 569.375 584.361 569.348 584.648 569.296L603.498 565.666C604.594 565.462 605.574 564.855 606.245 563.965C606.917 563.075 607.232 561.966 607.128 560.856C604.358 529.966 589.638 375.236 570.528 352.406Z" fill="#808080"/>
<path d="M460.439 269.05C460.268 270.51 460.42 271.99 460.884 273.385C461.347 274.78 462.11 276.057 463.12 277.125C464.131 278.193 465.363 279.027 466.73 279.567C468.097 280.108 469.566 280.342 471.033 280.253L484.762 313.246L495.147 297.851L480.518 268.881C480.205 266.426 479.003 264.171 477.139 262.542C475.275 260.914 472.879 260.026 470.404 260.047C467.929 260.068 465.547 260.996 463.711 262.655C461.874 264.314 460.71 266.59 460.439 269.05L460.439 269.05Z" fill="#A0616A"/>
<path d="M554.527 385.626C555.987 385.452 557.391 384.959 558.64 384.183C559.888 383.408 560.952 382.368 561.755 381.137C562.559 379.906 563.082 378.513 563.29 377.058C563.497 375.602 563.382 374.119 562.954 372.713L591.839 351.674L574.449 345.162L549.685 366.139C547.37 367.015 545.457 368.709 544.308 370.902C543.159 373.094 542.854 375.631 543.451 378.033C544.048 380.435 545.505 382.535 547.546 383.934C549.588 385.334 552.072 385.936 554.527 385.626V385.626Z" fill="#A0616A"/>
<path d="M507.44 335.241C506.333 335.24 505.228 335.131 504.142 334.916C501.514 334.416 499.05 333.277 496.967 331.6C494.883 329.924 493.244 327.76 492.194 325.3L472.96 301.847C472.553 301.351 472.257 300.774 472.092 300.154C471.926 299.535 471.895 298.887 472 298.255C472.106 297.622 472.345 297.019 472.702 296.487C473.059 295.954 473.526 295.504 474.071 295.166L487.755 286.696C488.261 286.383 488.823 286.173 489.41 286.079C489.996 285.984 490.596 286.007 491.174 286.145C491.751 286.284 492.296 286.536 492.776 286.886C493.256 287.236 493.662 287.678 493.971 288.186L507.527 310.52L533.489 291.333C535.556 290.249 537.944 289.945 540.216 290.477C542.489 291.008 544.495 292.34 545.867 294.228C547.239 296.116 547.886 298.434 547.69 300.76C547.494 303.086 546.467 305.263 544.798 306.895L518.886 330.531C515.842 333.55 511.728 335.243 507.44 335.241Z" fill="#808080"/>
<path d="M577.59 370.513C577.555 370.513 577.52 370.513 577.484 370.512C576.853 370.496 576.233 370.348 575.662 370.078C575.092 369.807 574.585 369.42 574.174 368.941L562.007 354.748C561.593 354.265 561.286 353.699 561.106 353.088C560.927 352.477 560.879 351.835 560.966 351.204C561.053 350.574 561.273 349.969 561.611 349.429C561.949 348.89 562.398 348.428 562.928 348.075L585.709 332.888L565.071 308.075C563.87 306.074 563.43 303.707 563.83 301.408C564.23 299.108 565.444 297.03 567.251 295.551C569.057 294.073 571.335 293.294 573.668 293.357C576.001 293.42 578.234 294.32 579.958 295.892L605.042 320.405C607.016 322.209 608.523 324.464 609.433 326.978C610.344 329.492 610.631 332.19 610.269 334.839C609.908 337.489 608.909 340.011 607.358 342.189C605.808 344.367 603.751 346.137 601.366 347.346L580.865 369.099C580.444 369.545 579.936 369.901 579.373 370.144C578.81 370.387 578.203 370.512 577.59 370.513Z" fill="#808080"/>
<path d="M549.645 318.215C549.45 318.215 549.255 318.202 549.061 318.178C548.214 318.075 547.414 317.731 546.756 317.187C546.098 316.643 545.61 315.922 545.35 315.109L536.208 287.08C535.979 286.371 536.014 285.603 536.307 284.919C536.6 284.234 537.131 283.679 537.802 283.355L538.099 283.215C538.368 283.087 538.634 282.961 538.906 282.839C543.169 280.862 547.81 279.831 552.509 279.816C558.61 279.828 564.574 281.62 569.67 284.973C570.354 285.428 570.831 286.133 571 286.936C571.168 287.739 571.015 288.577 570.572 289.268L553.422 316.135C553.02 316.773 552.462 317.299 551.802 317.662C551.141 318.026 550.399 318.216 549.645 318.215V318.215Z" fill="#E6E6E6"/>
<path d="M584.102 229.602C589.523 229.602 593.919 225.207 593.919 219.785C593.919 214.364 589.523 209.969 584.102 209.969C578.68 209.969 574.285 214.364 574.285 219.785C574.285 225.207 578.68 229.602 584.102 229.602Z" fill="#323537"/>
<path d="M550.449 208.996C543.554 208.996 536.94 211.735 532.064 216.611C527.189 221.487 524.449 228.1 524.449 234.996V245.996H537.979L544.449 234.996L546.391 245.996H587.449L576.449 234.996C576.449 228.1 573.71 221.487 568.834 216.611C563.958 211.735 557.345 208.996 550.449 208.996V208.996Z" fill="#323537"/>
<path d="M589.146 213.062C590.232 209.668 592.48 206.765 595.494 204.864C598.508 202.962 602.096 202.184 605.627 202.667C611.883 203.713 616.83 208.741 619.777 214.358C622.724 219.974 624.085 226.26 626.066 232.286C628.047 238.311 630.857 244.369 635.859 248.27C640.861 252.17 648.536 253.228 653.449 249.216C652.888 253.397 651.026 257.297 648.127 260.362C645.228 263.428 641.439 265.505 637.296 266.299C633.152 267.093 628.863 266.564 625.037 264.787C621.21 263.01 618.039 260.075 615.972 256.397C613.38 251.785 612.711 246.38 611.942 241.146C611.173 235.912 610.174 230.496 607.08 226.206C603.985 221.915 598.192 219.113 593.276 221.067L589.146 213.062Z" fill="#323537"/>
<path d="M269.947 228.038C260.998 228.037 252.415 224.481 246.087 218.153C239.759 211.825 236.204 203.242 236.203 194.292C236.203 188.188 236.207 183.522 236.216 182.858C236.501 161.951 241.766 141.414 251.575 122.949C235.459 145.012 226.597 171.538 226.216 198.858C226.207 199.522 226.203 204.188 226.203 210.292C226.204 219.242 229.759 227.825 236.087 234.153C242.415 240.481 250.998 244.037 259.947 244.038V244.038C267.301 244.035 274.453 241.632 280.317 237.194C286.181 232.756 290.436 226.525 292.435 219.448C286.256 224.988 278.247 228.048 269.947 228.038V228.038Z" fill="#808080"/>
<path d="M360.753 139.109C371.099 139.603 381.171 142.601 390.103 147.845C399.036 153.089 406.562 160.422 412.036 169.216C417.51 178.009 420.768 188 421.53 198.33C422.292 208.659 420.536 219.02 416.412 228.522C422.377 221.516 426.761 213.307 429.266 204.454C431.771 195.6 432.337 186.311 430.926 177.219C429.515 168.127 426.16 159.446 421.091 151.768C416.021 144.09 409.355 137.596 401.547 132.727C393.74 127.859 384.975 124.732 375.849 123.558C366.723 122.384 357.452 123.192 348.667 125.927C339.882 128.661 331.789 133.257 324.942 139.403C318.094 145.548 312.652 153.097 308.986 161.536C315.322 154.084 323.284 148.186 332.259 144.297C341.235 140.409 350.983 138.634 360.753 139.109V139.109Z" fill="#808080"/>
<path d="M371.134 438.038C362.004 438.04 353.24 434.453 346.731 428.051C340.223 421.649 336.492 412.944 336.344 403.816C335.92 377.36 335.701 344.764 335.701 341.038C335.695 331.976 337 322.96 339.575 314.27L339.563 314.267C341.083 309.906 342.919 305.661 345.057 301.566C338.495 310.311 333.273 319.984 329.563 330.267L329.575 330.27C327 338.96 325.695 347.976 325.701 357.038C325.701 360.764 325.92 393.36 326.344 419.816C326.492 428.944 330.223 437.649 336.731 444.051C343.24 450.453 352.004 454.04 361.134 454.038V454.038C368.661 454.037 375.986 451.595 382.008 447.079C388.03 442.563 392.426 436.216 394.536 428.99C388.139 434.823 379.791 438.05 371.134 438.038V438.038Z" fill="#808080"/>
<path d="M58.5401 582.586L70.7991 582.585L76.6321 535.297L58.5371 535.298L58.5401 582.586Z" fill="#FFB8B8"/>
<path d="M94.4453 593.967L55.9146 593.969L55.9139 579.082L79.5578 579.081C83.506 579.08 87.2926 580.649 90.0846 583.44C92.8765 586.232 94.4451 590.019 94.4453 593.967V593.967L94.4453 593.967Z" fill="#808080"/>
<path d="M14.5401 582.586L26.7991 582.585L32.6321 535.297L14.5371 535.298L14.5401 582.586Z" fill="#FFB8B8"/>
<path d="M50.4453 593.967L11.9146 593.969L11.9139 579.082L35.5578 579.081C39.506 579.08 43.2926 580.649 46.0846 583.44C48.8765 586.232 50.4451 590.019 50.4453 593.967V593.967L50.4453 593.967Z" fill="#808080"/>
<path d="M25.2547 568.041L13.2797 567.411C12.6622 567.379 12.0573 567.224 11.5 566.956C10.9428 566.688 10.4442 566.313 10.0332 565.851C9.62225 565.389 9.30704 564.85 9.10586 564.265C8.90467 563.68 8.82151 563.062 8.8612 562.444L23.1739 403.979L89.0849 421.764L95.4351 420.032L75.5768 560.317C75.4076 561.372 74.8836 562.338 74.0912 563.055C73.2988 563.772 72.2855 564.198 71.2186 564.261L58.3097 564.863C57.6643 564.898 57.0184 564.8 56.4129 564.573C55.8074 564.347 55.2555 563.997 54.792 563.547C54.3285 563.096 53.9636 562.554 53.7203 561.955C53.4769 561.356 53.3605 560.713 53.3782 560.067L55.7172 475.871C55.7282 475.481 55.5929 475.102 55.3381 474.807C55.0832 474.513 54.7273 474.324 54.3405 474.279C53.9536 474.234 53.5638 474.335 53.248 474.563C52.9321 474.791 52.7131 475.129 52.634 475.51L30.0771 564.323C29.8642 565.377 29.2924 566.324 28.4592 567.003C27.626 567.683 26.583 568.052 25.508 568.048C25.4241 568.048 25.3397 568.046 25.2547 568.041Z" fill="#808080"/>
<path d="M60.7427 274.319C74.3074 274.319 85.3037 263.323 85.3037 249.758C85.3037 236.194 74.3074 225.197 60.7427 225.197C47.178 225.197 36.1816 236.194 36.1816 249.758C36.1816 263.323 47.178 274.319 60.7427 274.319Z" fill="#FFB8B8"/>
<path d="M19.8497 321.917L22.5503 380.185L23.5265 401.383C23.5654 402.306 23.8787 403.196 24.4264 403.94C24.974 404.684 25.7311 405.247 26.6008 405.559L89.9368 428.502C90.4484 428.692 90.9906 428.787 91.5364 428.782C92.1602 428.785 92.7783 428.663 93.3536 428.422C93.929 428.18 94.4499 427.826 94.8852 427.379C95.3205 426.932 95.6613 426.402 95.8872 425.82C96.1131 425.239 96.2195 424.618 96.2001 423.994L93.6034 319.227C93.4329 310.632 90.2688 302.365 84.6566 295.852C79.0444 289.339 71.3358 284.989 62.8598 283.55C62.2471 283.457 61.6239 283.363 61.0006 283.28C55.7447 282.628 50.4097 283.135 45.3709 284.766C40.3322 286.397 35.712 289.113 31.8356 292.721C27.8216 296.413 24.6675 300.942 22.5964 305.987C20.5253 311.032 19.5876 316.47 19.8497 321.917L19.8497 321.917Z" fill="#CCCCCC"/>
<path d="M120.192 416.875C118.694 416.41 117.326 415.602 116.196 414.514C115.066 413.426 114.206 412.089 113.684 410.61C113.163 409.131 112.994 407.55 113.192 405.994C113.39 404.438 113.949 402.95 114.824 401.648L93.3457 373.089L111.88 371.941L129.434 399.238C131.314 400.691 132.621 402.76 133.128 405.08C133.635 407.401 133.308 409.826 132.206 411.93C131.103 414.034 129.295 415.683 127.098 416.587C124.902 417.491 122.457 417.593 120.193 416.875H120.192Z" fill="#FFB8B8"/>
<path d="M105.091 396.481C104.522 396.25 104.004 395.908 103.568 395.476C103.132 395.044 102.786 394.529 102.55 393.962L70.1918 316.868C69.5568 315.359 69.2256 313.739 69.217 312.101C69.2083 310.464 69.5225 308.841 70.1414 307.325C70.7604 305.809 71.6721 304.429 72.8243 303.266C73.9766 302.102 75.3468 301.177 76.8567 300.543C78.3667 299.91 79.9867 299.58 81.6242 299.572C83.2617 299.565 84.8846 299.88 86.4002 300.501C87.9158 301.121 89.2942 302.033 90.4569 303.187C91.6196 304.34 92.5436 305.711 93.1761 307.221L125.534 384.316C126.013 385.46 126.018 386.746 125.549 387.893C125.08 389.04 124.176 389.954 123.034 390.435L108.668 396.464C108.103 396.703 107.496 396.828 106.881 396.831C106.267 396.834 105.659 396.715 105.091 396.481L105.091 396.481Z" fill="#CCCCCC"/>
<path d="M52.8446 393.763L83.9239 334.254C84.5232 333.109 85.552 332.249 86.7847 331.862C88.0173 331.476 89.353 331.594 90.4988 332.19L135.61 355.75C136.755 356.35 137.615 357.379 138.002 358.611C138.388 359.844 138.271 361.18 137.674 362.325L106.595 421.834C105.995 422.979 104.966 423.839 103.734 424.225C102.501 424.612 101.165 424.494 100.02 423.898L54.9081 400.338C53.7636 399.738 52.9036 398.709 52.5168 397.477C52.13 396.244 52.2479 394.908 52.8446 393.763Z" fill="#808080"/>
<path d="M73.6879 366.574C73.1354 365.106 72.2474 363.787 71.0948 362.724C69.9422 361.66 68.5569 360.88 67.0495 360.447C65.542 360.013 63.9542 359.939 62.4127 360.228C60.8711 360.517 59.4185 361.163 58.1709 362.113L28.3924 342.359L28.3418 360.929L56.6277 376.841C58.1891 378.631 60.3309 379.814 62.6776 380.183C65.0243 380.552 67.4259 380.083 69.4612 378.858C71.4965 377.633 73.0356 375.731 73.8085 373.485C74.5813 371.238 74.5386 368.792 73.6879 366.574V366.574Z" fill="#FFB8B8"/>
<path d="M36.0387 370.75L11.7019 351.473C9.06916 350.589 6.69024 349.079 4.76937 347.073C2.8485 345.067 1.44307 342.625 0.673699 339.957C-0.0956709 337.288 -0.205992 334.473 0.352212 331.752C0.910416 329.032 2.12047 326.487 3.8785 324.337L25.9756 295.378C27.5112 293.501 29.6708 292.24 32.0596 291.825C34.4485 291.41 36.907 291.868 38.9857 293.116C41.0645 294.364 42.6247 296.319 43.3811 298.622C44.1375 300.926 44.0396 303.425 43.1052 305.662L25.6214 334.262L51.3154 346.449C51.9129 346.733 52.4434 347.139 52.872 347.643C53.3006 348.147 53.6174 348.735 53.8015 349.371C53.9856 350.006 54.0329 350.673 53.9402 351.327C53.8474 351.982 53.6168 352.61 53.2635 353.169L42.8918 369.583C42.5412 370.137 42.0781 370.611 41.5326 370.975C40.9871 371.338 40.3713 371.583 39.7251 371.694C39.6994 371.698 39.6736 371.702 39.6478 371.706C39.0128 371.802 38.3649 371.767 37.7442 371.602C37.1234 371.438 36.5429 371.148 36.0387 370.75V370.75Z" fill="#CCCCCC"/>
<path d="M42.1826 266.204C42.0772 265.896 42.0438 265.568 42.0849 265.245C42.126 264.921 42.2405 264.612 42.4197 264.34C42.5989 264.068 42.838 263.84 43.1187 263.675C43.3993 263.509 43.7141 263.41 44.039 263.385C44.7042 263.422 45.3552 263.592 45.9526 263.887C46.5501 264.182 47.0816 264.594 47.5151 265.1C48.4039 266.125 49.4388 267.014 50.5862 267.737C51.7744 268.336 53.3858 268.251 54.0631 267.109C54.6991 266.037 54.2633 264.601 53.8783 263.356C52.8984 260.187 52.3502 256.901 52.2484 253.586C52.1374 249.885 52.6595 246.024 54.7081 243.138C57.3519 239.413 62.0795 237.999 66.5535 238.101C71.0275 238.204 75.429 239.585 79.8606 240.458C81.3905 240.759 83.1889 240.914 84.2122 239.728C85.3002 238.467 84.9006 236.426 84.4378 234.724C83.2369 230.307 81.9628 225.739 79.1725 222.172C76.1556 218.465 71.846 216.038 67.1117 215.382C62.5666 214.819 57.9527 215.342 53.6494 216.91C46.6382 219.12 40.4689 223.418 35.9665 229.229C31.3252 235.408 29.3197 243.174 30.3884 250.829C31.4325 257.495 34.9652 263.518 40.2742 267.683L42.1826 266.204Z" fill="#323537"/>
<path d="M353.258 582.78C346.724 579.934 340.94 575.608 336.364 570.144C331.787 564.68 328.543 558.227 326.888 551.294C325.232 544.362 325.211 537.139 326.825 530.197C328.439 523.255 331.644 516.782 336.188 511.291C330.92 515.137 326.53 520.06 323.31 525.733C320.09 531.406 318.113 537.698 317.511 544.193C316.909 550.688 317.695 557.237 319.817 563.405C321.939 569.573 325.349 575.219 329.82 579.969C334.291 584.718 339.721 588.462 345.75 590.953C351.779 593.443 358.268 594.623 364.788 594.413C371.307 594.204 377.708 592.611 383.564 589.738C389.421 586.866 394.6 582.782 398.757 577.755C392.273 582.494 384.66 585.452 376.677 586.333C368.695 587.215 360.62 585.99 353.258 582.78V582.78Z" fill="#808080"/>
</svg>
