<svg width="774" height="695" viewBox="0 0 774 695" fill="none" xmlns="http://www.w3.org/2000/svg">
<path d="M719.628 649.698L705.804 662.425L716.79 643.99C708.135 628.294 693.979 614.729 693.979 614.729C693.979 614.729 664.609 642.867 664.609 664.985C664.609 687.103 677.758 694.826 693.979 694.826C710.199 694.826 723.348 687.103 723.348 664.985C723.165 659.689 721.899 654.486 719.628 649.698Z" fill="#F0F0F0"/>
<path d="M702.248 663.114V664.204C702.184 676.877 700.046 686.764 695.853 693.727C695.793 693.829 695.729 693.927 695.669 694.029L695.2 693.743L694.752 693.462C699.404 685.944 701.05 675.317 701.11 664.263C701.115 663.907 701.12 663.545 701.115 663.184C701.099 658.504 700.813 653.771 700.354 649.172C700.322 648.816 700.284 648.455 700.246 648.093C699.609 642.026 698.692 636.23 697.753 631.194C697.688 630.838 697.618 630.482 697.547 630.131C695.923 621.614 694.266 615.445 693.888 614.079C693.845 613.912 693.818 613.82 693.812 613.799L694.325 613.653L694.331 613.648L694.849 613.502C694.854 613.524 694.946 613.831 695.097 614.403C695.675 616.541 697.175 622.343 698.648 629.996C698.713 630.341 698.783 630.698 698.848 631.054C699.615 635.14 700.365 639.706 700.958 644.498C701.11 645.702 701.245 646.889 701.363 648.061C701.406 648.422 701.444 648.784 701.477 649.14C701.973 654.111 702.231 658.769 702.248 663.114Z" fill="white"/>
<path d="M698.649 629.996C698.287 630.044 697.92 630.093 697.548 630.131C696.537 630.235 695.521 630.287 694.504 630.287C690.171 630.293 685.892 629.326 681.982 627.459C681.756 627.745 681.529 628.031 681.297 628.323C685.41 630.33 689.927 631.371 694.504 631.367C695.589 631.366 696.674 631.309 697.753 631.194C698.12 631.156 698.487 631.107 698.849 631.054C701.834 630.625 704.736 629.746 707.457 628.447C707.225 628.15 706.999 627.858 706.777 627.572C704.202 628.776 701.463 629.593 698.649 629.996V629.996Z" fill="white"/>
<path d="M701.363 648.06C700.991 648.082 700.619 648.093 700.246 648.093C700.133 648.098 700.014 648.098 699.901 648.098C695.206 648.098 690.58 646.963 686.419 644.789C682.258 642.616 678.684 639.468 676.002 635.614C675.786 635.933 675.57 636.251 675.359 636.575C678.155 640.474 681.839 643.651 686.107 645.843C690.375 648.034 695.103 649.177 699.901 649.178C700.052 649.178 700.203 649.178 700.354 649.172C700.732 649.167 701.104 649.156 701.477 649.14C707.239 648.845 712.795 646.896 717.48 643.527C717.307 643.208 717.134 642.89 716.956 642.571C712.403 645.879 706.984 647.787 701.363 648.06Z" fill="white"/>
<path d="M702.249 663.114C701.871 663.146 701.494 663.168 701.116 663.184C700.711 663.2 700.306 663.211 699.901 663.211C693.593 663.204 687.456 661.153 682.41 657.367C677.364 653.58 673.681 648.261 671.911 642.205C671.668 642.642 671.425 643.074 671.193 643.511C673.187 649.553 677.034 654.812 682.188 658.542C687.341 662.273 693.539 664.284 699.901 664.291C700.306 664.291 700.711 664.285 701.11 664.264C701.494 664.253 701.871 664.231 702.249 664.204C709.88 663.607 717 660.133 722.165 654.484C722.052 654.084 721.922 653.69 721.793 653.291C716.803 658.982 709.793 662.506 702.249 663.114V663.114Z" fill="white"/>
<path d="M604.03 171.588L604.61 160.553L607.57 172.821C617.662 175.861 629.191 175.745 629.191 175.745C629.191 175.745 629.971 151.84 620.877 142.54C611.783 133.241 603.08 135.4 596.26 142.069C589.441 148.737 587.088 157.39 596.181 166.69C598.435 168.841 601.107 170.508 604.03 171.588V171.588Z" fill="#F0F0F0"/>
<path d="M605.821 158.802L605.373 158.344C600.19 152.989 597.023 147.953 595.924 143.301C595.907 143.234 595.894 143.166 595.877 143.099L596.192 143.026L596.496 142.96C597.631 148.034 601.308 153.179 605.827 157.85C605.972 158.002 606.118 158.157 606.269 158.306C608.2 160.267 610.266 162.14 612.349 163.884C612.509 164.021 612.674 164.157 612.839 164.294C615.6 166.583 618.369 168.643 620.835 170.374C621.008 170.497 621.184 170.618 621.358 170.736C625.543 173.649 628.776 175.562 629.496 175.981C629.583 176.033 629.632 176.061 629.643 176.067L629.487 176.34V176.344L629.329 176.618C629.318 176.611 629.153 176.52 628.854 176.341C627.733 175.68 624.717 173.858 620.951 171.246C620.781 171.127 620.605 171.006 620.432 170.883C618.43 169.48 616.237 167.869 614.017 166.098C613.459 165.654 612.914 165.21 612.382 164.767C612.215 164.633 612.051 164.496 611.891 164.36C609.638 162.474 607.615 160.621 605.821 158.802Z" fill="white"/>
<path d="M620.951 171.245C621.083 171.076 621.218 170.905 621.359 170.736C621.741 170.276 622.147 169.836 622.574 169.418C624.394 167.635 626.59 166.282 629.002 165.459C628.979 165.246 628.957 165.032 628.935 164.814C626.38 165.661 624.053 167.081 622.13 168.965C621.674 169.411 621.242 169.881 620.835 170.373C620.697 170.54 620.562 170.711 620.432 170.882C619.353 172.29 618.494 173.853 617.885 175.518C618.104 175.547 618.32 175.577 618.53 175.606C619.118 174.041 619.934 172.571 620.951 171.245V171.245Z" fill="white"/>
<path d="M612.383 164.767C612.53 164.605 612.683 164.447 612.839 164.294C612.885 164.245 612.934 164.196 612.982 164.15C614.956 162.219 617.367 160.795 620.011 159.998C622.654 159.201 625.451 159.055 628.163 159.573C628.123 159.35 628.082 159.127 628.038 158.905C625.259 158.415 622.404 158.594 619.709 159.427C617.014 160.26 614.555 161.723 612.538 163.696C612.475 163.758 612.411 163.82 612.35 163.885C612.193 164.042 612.041 164.2 611.891 164.36C609.59 166.853 608.055 169.956 607.471 173.299C607.674 173.362 607.878 173.425 608.084 173.485C608.638 170.223 610.132 167.193 612.383 164.767V164.767Z" fill="white"/>
<path d="M605.821 158.802C605.967 158.633 606.117 158.468 606.269 158.306C606.433 158.133 606.598 157.962 606.769 157.796C609.424 155.205 612.847 153.544 616.526 153.062C620.204 152.579 623.94 153.301 627.173 155.12C627.096 154.836 627.02 154.555 626.938 154.275C623.616 152.555 619.836 151.925 616.136 152.476C612.435 153.026 609.002 154.729 606.325 157.342C606.155 157.508 605.987 157.677 605.828 157.85C605.671 158.012 605.521 158.177 605.373 158.343C602.41 161.732 600.846 166.12 600.996 170.618C601.208 170.74 601.425 170.852 601.643 170.967C601.401 166.523 602.9 162.159 605.821 158.802V158.802Z" fill="white"/>
<path d="M184.792 253.588L185.371 242.553L188.331 254.821C198.424 257.861 209.953 257.745 209.953 257.745C209.953 257.745 210.732 233.84 201.639 224.54C192.545 215.241 183.842 217.4 177.022 224.069C170.202 230.737 167.849 239.39 176.943 248.69C179.197 250.841 181.868 252.508 184.792 253.588Z" fill="#F0F0F0"/>
<path d="M186.583 240.802L186.135 240.344C180.952 234.989 177.785 229.953 176.686 225.301C176.669 225.234 176.656 225.166 176.639 225.099L176.954 225.026L177.257 224.96C178.392 230.034 182.07 235.179 186.589 239.85C186.733 240.002 186.88 240.157 187.031 240.306C188.961 242.267 191.028 244.14 193.111 245.884C193.271 246.021 193.436 246.157 193.6 246.294C196.362 248.583 199.131 250.643 201.596 252.374C201.77 252.497 201.946 252.618 202.12 252.736C206.304 255.649 209.537 257.562 210.258 257.981C210.345 258.033 210.394 258.061 210.405 258.067L210.249 258.34V258.344L210.091 258.618C210.08 258.611 209.915 258.52 209.616 258.341C208.495 257.68 205.478 255.858 201.712 253.246C201.543 253.127 201.367 253.006 201.193 252.883C199.191 251.48 196.999 249.869 194.779 248.098C194.22 247.654 193.675 247.21 193.144 246.767C192.977 246.633 192.813 246.496 192.652 246.36C190.4 244.474 188.377 242.621 186.583 240.802Z" fill="white"/>
<path d="M201.713 253.245C201.845 253.076 201.979 252.905 202.12 252.736C202.503 252.276 202.909 251.836 203.336 251.418C205.155 249.635 207.352 248.282 209.763 247.459C209.741 247.246 209.719 247.032 209.696 246.814C207.142 247.661 204.814 249.081 202.892 250.965C202.436 251.411 202.004 251.881 201.597 252.373C201.458 252.54 201.324 252.711 201.194 252.882C200.115 254.29 199.256 255.853 198.646 257.518C198.866 257.547 199.081 257.577 199.292 257.606C199.88 256.041 200.696 254.571 201.713 253.245Z" fill="white"/>
<path d="M193.144 246.767C193.292 246.605 193.444 246.447 193.601 246.294C193.646 246.245 193.696 246.196 193.744 246.15C195.718 244.219 198.129 242.795 200.772 241.998C203.416 241.201 206.212 241.055 208.924 241.573C208.884 241.35 208.844 241.127 208.799 240.905C206.021 240.415 203.166 240.594 200.471 241.427C197.775 242.26 195.317 243.723 193.3 245.696C193.236 245.758 193.173 245.82 193.112 245.885C192.955 246.042 192.803 246.2 192.653 246.36C190.351 248.853 188.817 251.956 188.232 255.299C188.436 255.362 188.64 255.425 188.845 255.485C189.399 252.223 190.893 249.193 193.144 246.767Z" fill="white"/>
<path d="M186.583 240.802C186.729 240.633 186.879 240.468 187.031 240.306C187.194 240.133 187.36 239.962 187.53 239.796C190.186 237.205 193.609 235.544 197.287 235.062C200.966 234.579 204.701 235.301 207.935 237.12C207.857 236.836 207.782 236.555 207.7 236.275C204.378 234.555 200.598 233.925 196.897 234.476C193.197 235.026 189.764 236.729 187.087 239.342C186.916 239.508 186.748 239.677 186.589 239.85C186.433 240.012 186.283 240.177 186.135 240.343C183.172 243.732 181.607 248.12 181.758 252.618C181.97 252.74 182.186 252.852 182.405 252.967C182.163 248.523 183.662 244.159 186.583 240.802V240.802Z" fill="white"/>
<path d="M254.792 113.588L255.371 102.553L258.331 114.821C268.424 117.861 279.953 117.745 279.953 117.745C279.953 117.745 280.732 93.8397 271.639 84.5403C262.545 75.2409 253.842 77.3999 247.022 84.0686C240.202 90.7372 237.849 99.3902 246.943 108.69C249.197 110.841 251.868 112.508 254.792 113.588V113.588Z" fill="#F0F0F0"/>
<path d="M256.583 100.802L256.135 100.344C250.952 94.9888 247.785 89.9529 246.686 85.3015C246.669 85.2339 246.656 85.1665 246.639 85.0989L246.954 85.0261L247.257 84.96C248.392 90.0338 252.07 95.1787 256.589 99.8504C256.733 100.002 256.88 100.157 257.031 100.306C258.961 102.267 261.028 104.14 263.111 105.884C263.271 106.021 263.436 106.157 263.6 106.294C266.362 108.583 269.131 110.643 271.596 112.374C271.77 112.497 271.946 112.618 272.12 112.736C276.304 115.649 279.537 117.562 280.258 117.981C280.345 118.033 280.394 118.061 280.405 118.067L280.249 118.34V118.344L280.091 118.618C280.08 118.611 279.915 118.52 279.616 118.341C278.495 117.68 275.478 115.858 271.712 113.246C271.543 113.127 271.367 113.006 271.193 112.883C269.191 111.48 266.999 109.869 264.779 108.098C264.22 107.654 263.675 107.21 263.144 106.767C262.977 106.633 262.813 106.496 262.652 106.36C260.4 104.474 258.377 102.621 256.583 100.802Z" fill="white"/>
<path d="M271.713 113.245C271.845 113.076 271.979 112.905 272.12 112.736C272.503 112.276 272.909 111.836 273.336 111.418C275.155 109.635 277.352 108.282 279.763 107.459C279.741 107.246 279.719 107.032 279.696 106.814C277.142 107.661 274.814 109.081 272.892 110.964C272.436 111.411 272.004 111.881 271.597 112.373C271.458 112.54 271.324 112.711 271.194 112.882C270.115 114.29 269.256 115.853 268.646 117.518C268.866 117.547 269.081 117.576 269.292 117.606C269.88 116.041 270.696 114.571 271.713 113.245V113.245Z" fill="white"/>
<path d="M263.144 106.767C263.292 106.605 263.444 106.447 263.601 106.294C263.646 106.245 263.696 106.196 263.744 106.15C265.718 104.219 268.129 102.795 270.772 101.998C273.416 101.201 276.213 101.055 278.924 101.573C278.884 101.35 278.844 101.127 278.799 100.905C276.021 100.415 273.166 100.594 270.471 101.427C267.775 102.26 265.317 103.723 263.3 105.696C263.236 105.758 263.173 105.82 263.112 105.885C262.955 106.042 262.803 106.2 262.653 106.36C260.351 108.853 258.817 111.956 258.232 115.299C258.436 115.362 258.64 115.425 258.845 115.485C259.399 112.223 260.894 109.193 263.144 106.767V106.767Z" fill="white"/>
<path d="M256.583 100.802C256.729 100.633 256.879 100.468 257.031 100.306C257.194 100.133 257.36 99.962 257.53 99.7956C260.186 97.2049 263.609 95.544 267.287 95.0616C270.966 94.5792 274.701 95.3013 277.935 97.1196C277.857 96.8359 277.782 96.5546 277.7 96.2753C274.378 94.5551 270.598 93.9255 266.897 94.476C263.197 95.0264 259.764 96.729 257.087 99.3417C256.916 99.5081 256.748 99.6768 256.589 99.8501C256.433 100.012 256.283 100.177 256.135 100.343C253.172 103.732 251.607 108.12 251.758 112.618C251.97 112.74 252.186 112.852 252.405 112.967C252.163 108.523 253.662 104.159 256.583 100.802V100.802Z" fill="white"/>
<path d="M95.3118 615.648L71.3636 637.696L90.3958 605.761C75.4012 578.569 50.8777 555.069 50.8777 555.069C50.8777 555.069 0 603.814 0 642.131C0 680.447 22.7786 693.826 50.8777 693.826C78.9763 693.826 101.755 680.447 101.755 642.131C101.755 633.602 99.2307 624.558 95.3118 615.648Z" fill="#F0F0F0"/>
<path d="M65.2057 638.889V640.778C65.0936 662.731 61.391 679.86 54.1261 691.922C54.0233 692.099 53.9111 692.268 53.8082 692.445L52.9947 691.95L52.2187 691.464C60.2784 678.439 63.1301 660.029 63.2329 640.881C63.2423 640.263 63.2516 639.637 63.2423 639.011C63.2142 630.904 62.7187 622.704 61.924 614.738C61.8679 614.121 61.8024 613.495 61.737 612.868C60.6337 602.359 59.0442 592.317 57.4173 583.594C57.3051 582.976 57.1836 582.359 57.062 581.751C54.2477 566.997 51.3772 556.31 50.7227 553.945C50.648 553.655 50.6012 553.496 50.5918 553.459L51.4801 553.206L51.4894 553.197L52.387 552.944C52.3964 552.982 52.5553 553.515 52.8171 554.506C53.8175 558.208 56.4169 568.26 58.9694 581.518C59.0816 582.116 59.2031 582.733 59.3154 583.35C60.643 590.428 61.9427 598.338 62.9712 606.641C63.233 608.726 63.4667 610.783 63.6725 612.812C63.7472 613.438 63.8127 614.065 63.8688 614.682C64.7289 623.293 65.1746 631.362 65.2057 638.889Z" fill="white"/>
<path d="M58.9682 581.517C58.3418 581.602 57.706 581.686 57.0608 581.751C55.3088 581.932 53.5487 582.022 51.7874 582.022C44.2814 582.032 36.8687 580.358 30.0956 577.123C29.7029 577.619 29.3102 578.114 28.9082 578.619C36.0332 582.097 43.8589 583.901 51.7874 583.892C53.6676 583.892 55.5465 583.792 57.4161 583.593C58.0519 583.528 58.6877 583.444 59.3141 583.35C64.4851 582.608 69.5135 581.086 74.2273 578.834C73.8252 578.32 73.4325 577.815 73.0492 577.319C68.5878 579.404 63.843 580.819 58.9682 581.517V581.517Z" fill="white"/>
<path d="M63.673 612.812C63.0278 612.849 62.3827 612.868 61.7375 612.868C61.5412 612.877 61.3355 612.877 61.1391 612.877C53.0059 612.877 44.9932 610.911 37.7842 607.145C30.5753 603.38 24.3838 597.927 19.7376 591.251C19.3636 591.803 18.9896 592.354 18.625 592.915C23.4677 599.67 29.85 605.173 37.2433 608.97C44.6365 612.767 52.828 614.747 61.1391 614.747C61.4009 614.747 61.6627 614.747 61.9245 614.738C62.579 614.729 63.2241 614.71 63.8693 614.682C73.8523 614.171 83.4768 610.795 91.5919 604.958C91.2926 604.406 90.9934 603.855 90.6848 603.303C82.798 609.034 73.4104 612.338 63.673 612.812V612.812Z" fill="white"/>
<path d="M65.2057 638.889C64.5513 638.945 63.8968 638.982 63.2423 639.01C62.541 639.038 61.8398 639.057 61.1385 639.057C50.2096 639.044 39.5788 635.492 30.8377 628.932C22.0966 622.372 15.7155 613.157 12.6498 602.667C12.2291 603.424 11.8083 604.172 11.4062 604.93C14.8605 615.395 21.5249 624.507 30.4526 630.969C39.3804 637.431 50.1175 640.915 61.1385 640.927C61.8398 640.927 62.541 640.918 63.2329 640.88C63.8968 640.862 64.5513 640.824 65.2057 640.777C78.4256 639.743 90.7585 633.724 99.707 623.938C99.5106 623.246 99.2862 622.564 99.0619 621.872C90.4186 631.731 78.2746 637.835 65.2057 638.889V638.889Z" fill="white"/>
<path d="M710.394 428.181C745.099 397.813 760.408 358.538 744.588 340.458C728.768 322.378 687.808 332.34 653.103 362.707C618.398 393.075 603.089 432.35 618.909 450.43C634.729 468.51 675.689 458.549 710.394 428.181Z" fill="#E4E4E4"/>
<path d="M197.588 450.43C213.408 432.35 198.099 393.076 163.394 362.708C128.689 332.34 87.7294 322.379 71.909 340.459C56.0886 358.539 71.3979 397.813 106.103 428.181C140.808 458.549 181.768 468.51 197.588 450.43Z" fill="#E4E4E4"/>
<path d="M275.748 692.944C321.864 692.944 359.248 673.469 359.248 649.444C359.248 625.42 321.864 605.944 275.748 605.944C229.632 605.944 192.248 625.42 192.248 649.444C192.248 673.469 229.632 692.944 275.748 692.944Z" fill="#E4E4E4"/>
<path d="M540.748 692.944C586.864 692.944 624.248 673.469 624.248 649.444C624.248 625.42 586.864 605.944 540.748 605.944C494.632 605.944 457.248 625.42 457.248 649.444C457.248 673.469 494.632 692.944 540.748 692.944Z" fill="#E4E4E4"/>
<path d="M408.248 632.944C295.211 632.944 203.248 540.982 203.248 427.944C203.248 314.907 295.211 222.944 408.248 222.944C521.285 222.944 613.248 314.907 613.248 427.944C613.248 540.982 521.285 632.944 408.248 632.944ZM408.248 224.944C296.313 224.944 205.248 316.01 205.248 427.944C205.248 539.879 296.313 630.944 408.248 630.944C520.183 630.944 611.248 539.879 611.248 427.944C611.248 316.01 520.183 224.944 408.248 224.944Z" fill="#3F3D56"/>
<path d="M358.276 564.485C316.92 550.255 282.139 521.49 260.402 483.539C238.664 445.588 231.448 401.034 240.097 358.162C228.623 381.152 222.192 406.326 221.233 432.002C220.274 457.678 224.811 483.262 234.538 507.043C244.266 530.824 258.96 552.253 277.638 569.896C296.316 587.539 318.547 600.99 342.843 609.348C367.139 617.706 392.94 620.778 418.52 618.36C444.099 615.941 468.867 608.087 491.166 595.323C513.465 582.559 532.781 565.18 547.821 544.348C562.861 523.517 573.278 499.713 578.376 474.531C558.819 513.65 525.721 544.336 485.236 560.882C444.751 577.428 399.634 578.709 358.276 564.485V564.485Z" fill="#F0F0F0"/>
<path d="M347.871 411.608C337.493 411.608 329.051 400.622 329.051 387.118C329.051 373.614 337.493 362.628 347.871 362.628C358.248 362.628 366.691 373.614 366.691 387.118C366.691 400.622 358.248 411.608 347.871 411.608Z" fill="#3F3D56"/>
<path d="M461.871 411.608C451.493 411.608 443.051 400.622 443.051 387.118C443.051 373.614 451.493 362.628 461.871 362.628C472.248 362.628 480.691 373.614 480.691 387.118C480.691 400.622 472.248 411.608 461.871 411.608Z" fill="#3F3D56"/>
<path d="M395.248 35.9443C405.189 35.9443 413.248 30.124 413.248 22.9443C413.248 15.7646 405.189 9.94434 395.248 9.94434C385.307 9.94434 377.248 15.7646 377.248 22.9443C377.248 30.124 385.307 35.9443 395.248 35.9443Z" fill="#4F4949"/>
<path d="M395.248 15.8889C401.323 15.8889 406.248 12.332 406.248 7.94444C406.248 3.55685 401.323 0 395.248 0C389.173 0 384.248 3.55685 384.248 7.94444C384.248 12.332 389.173 15.8889 395.248 15.8889Z" fill="#4F4949"/>
<path d="M382.304 28.1394C376.113 21.9478 374.153 13.5997 377.242 8.22754C376.508 8.6458 375.832 9.15929 375.233 9.75466C370.156 14.8315 371.74 24.6457 378.769 31.675C385.798 38.7046 395.612 40.2873 400.689 35.2105C401.284 34.6113 401.798 33.936 402.216 33.2021C396.844 36.2907 388.496 34.3311 382.304 28.1394Z" fill="#4F4949"/>
<path d="M209.963 349.912L203.641 339.408L241.147 310.023L250.478 325.525L209.963 349.912Z" fill="#FFB6B6"/>
<path d="M201.394 358.72L181.008 324.851L181.436 324.593C184.932 322.489 189.121 321.86 193.082 322.844C197.042 323.828 200.449 326.344 202.554 329.84L202.554 329.841L215.005 350.527L201.394 358.72Z" fill="#4F4949"/>
<path d="M605.089 335.912L611.411 325.408L573.905 296.023L564.574 311.525L605.089 335.912Z" fill="#FFB6B6"/>
<path d="M600.047 336.527L612.498 315.841L612.499 315.84C614.603 312.344 618.011 309.828 621.971 308.844C625.931 307.86 630.12 308.489 633.616 310.593L634.044 310.851L613.658 344.72L600.047 336.527Z" fill="#4F4949"/>
<path d="M359.97 195.734L357.582 205.27L293.152 256.849L223.812 321.65L231.249 338.944L396.526 228.325L582.858 324.911L591.183 305.846L506.152 248.849L435.833 200.357L359.97 195.734Z" fill="#4F4949"/>
<path d="M381.665 93.708L353.816 102.845L357.581 204.286C357.581 204.286 406.013 233.365 435.832 200.357V98.8942L419.202 93.708H381.665Z" fill="#BBBBBB"/>
<path d="M429.651 105.869L435.832 98.8945C435.832 98.8945 453.017 105.172 451.584 124.011C450.151 142.849 440.051 202.766 440.051 202.766L438.151 241.849H420.211L427.361 140.776L429.651 105.869Z" fill="#BBBBBB"/>
<path d="M361.651 108.869L355.47 101.895C355.47 101.895 338.285 108.172 339.718 127.011C341.151 145.849 351.251 205.766 351.251 205.766L353.151 244.849H371.091L363.941 143.776L361.651 108.869Z" fill="#BBBBBB"/>
<path d="M362.248 260.944C368.323 260.944 373.248 256.019 373.248 249.944C373.248 243.869 368.323 238.944 362.248 238.944C356.173 238.944 351.248 243.869 351.248 249.944C351.248 256.019 356.173 260.944 362.248 260.944Z" fill="#FFB6B6"/>
<path d="M429.248 260.944C435.323 260.944 440.248 256.019 440.248 249.944C440.248 243.869 435.323 238.944 429.248 238.944C423.173 238.944 418.248 243.869 418.248 249.944C418.248 256.019 423.173 260.944 429.248 260.944Z" fill="#FFB6B6"/>
<path d="M394.785 85.379C411.61 85.379 425.249 71.7397 425.249 54.9146C425.249 38.0896 411.61 24.4502 394.785 24.4502C377.96 24.4502 364.32 38.0896 364.32 54.9146C364.32 71.7397 377.96 85.379 394.785 85.379Z" fill="#4F4949"/>
<path d="M395.702 86.3848C409.266 86.3848 420.263 75.3884 420.263 61.8237C420.263 48.259 409.266 37.2627 395.702 37.2627C382.137 37.2627 371.141 48.259 371.141 61.8237C371.141 75.3884 382.137 86.3848 395.702 86.3848Z" fill="#FFB6B6"/>
<path d="M369.895 46.374C375.507 50.2424 382.169 52.3011 388.985 52.2739C386.554 53.9598 383.786 55.0986 380.872 55.6119C389.935 57.5559 399.301 57.6085 408.386 55.7664C410.405 55.4427 412.353 54.7735 414.145 53.7882C415.038 53.2895 415.816 52.6084 416.429 51.7892C417.042 50.97 417.475 50.0311 417.701 49.0335C418.304 45.585 415.617 42.4519 412.825 40.3404C408.549 37.1569 403.619 34.9635 398.392 33.919C393.165 32.8744 387.771 33.0048 382.6 34.3007C379.224 35.1735 375.842 36.648 373.649 39.3594C371.456 42.0708 370.806 46.2509 372.895 49.0429L369.895 46.374Z" fill="#4F4949"/>
<path d="M377.248 507.944C377.248 515.37 380.198 522.492 385.449 527.743C390.7 532.994 397.822 535.944 405.248 535.944C412.674 535.944 419.796 532.994 425.047 527.743C430.298 522.492 433.248 515.37 433.248 507.944H377.248Z" fill="#3F3D56"/>
<path d="M508.371 472.944C521.626 472.944 532.371 462.199 532.371 448.944C532.371 435.69 521.626 424.944 508.371 424.944C495.116 424.944 484.371 435.69 484.371 448.944C484.371 462.199 495.116 472.944 508.371 472.944Z" fill="#F0F0F0"/>
<path d="M301.371 472.944C314.626 472.944 325.371 462.199 325.371 448.944C325.371 435.69 314.626 424.944 301.371 424.944C288.116 424.944 277.371 435.69 277.371 448.944C277.371 462.199 288.116 472.944 301.371 472.944Z" fill="#F0F0F0"/>
</svg>
