<svg width="774" height="695" viewBox="0 0 774 695" fill="none" xmlns="http://www.w3.org/2000/svg">
<path d="M719.99 649.698L706.165 662.425L717.152 643.99C708.496 628.294 694.34 614.729 694.34 614.729C694.34 614.729 664.971 642.867 664.971 664.985C664.971 687.103 678.12 694.826 694.34 694.826C710.56 694.826 723.709 687.103 723.709 664.985C723.526 659.689 722.26 654.486 719.99 649.698Z" fill="#BDD4EF"/>
<path d="M702.61 663.114V664.204C702.545 676.877 700.408 686.764 696.214 693.727C696.155 693.829 696.09 693.927 696.031 694.029L695.561 693.743L695.113 693.462C699.765 685.944 701.412 675.317 701.471 664.263C701.476 663.907 701.482 663.545 701.476 663.184C701.46 658.504 701.174 653.771 700.715 649.172C700.683 648.816 700.645 648.455 700.607 648.093C699.971 642.026 699.053 636.23 698.114 631.194C698.049 630.838 697.979 630.482 697.909 630.131C696.284 621.614 694.627 615.445 694.249 614.079C694.206 613.912 694.179 613.82 694.174 613.799L694.687 613.653L694.692 613.648L695.21 613.502C695.216 613.524 695.307 613.831 695.458 614.403C696.036 616.541 697.536 622.343 699.01 629.996C699.075 630.341 699.145 630.698 699.209 631.054C699.976 635.14 700.726 639.706 701.32 644.498C701.471 645.702 701.606 646.889 701.725 648.061C701.768 648.422 701.806 648.784 701.838 649.14C702.335 654.111 702.592 658.769 702.61 663.114Z" fill="white"/>
<path d="M699.01 629.996C698.649 630.044 698.282 630.093 697.909 630.131C696.898 630.235 695.882 630.287 694.865 630.287C690.532 630.293 686.253 629.326 682.344 627.459C682.117 627.745 681.89 628.031 681.658 628.323C685.771 630.33 690.289 631.371 694.865 631.367C695.951 631.366 697.035 631.309 698.114 631.194C698.481 631.156 698.848 631.107 699.21 631.054C702.195 630.625 705.098 629.746 707.819 628.447C707.587 628.15 707.36 627.858 707.139 627.572C704.563 628.776 701.824 629.593 699.01 629.996V629.996Z" fill="white"/>
<path d="M701.725 648.06C701.352 648.082 700.98 648.093 700.607 648.093C700.494 648.098 700.375 648.098 700.262 648.098C695.567 648.098 690.942 646.963 686.78 644.789C682.619 642.616 679.045 639.468 676.363 635.614C676.147 635.933 675.931 636.251 675.721 636.575C678.516 640.474 682.2 643.651 686.468 645.843C690.736 648.034 695.464 649.177 700.262 649.178C700.413 649.178 700.564 649.178 700.715 649.172C701.093 649.167 701.466 649.156 701.838 649.14C707.601 648.845 713.156 646.896 717.841 643.527C717.668 643.208 717.495 642.89 717.317 642.571C712.765 645.879 707.346 647.787 701.725 648.06Z" fill="white"/>
<path d="M702.611 663.114C702.233 663.146 701.855 663.168 701.477 663.184C701.072 663.2 700.668 663.211 700.263 663.211C693.954 663.204 687.817 661.153 682.772 657.367C677.726 653.58 674.042 648.261 672.273 642.205C672.03 642.642 671.787 643.074 671.555 643.511C673.549 649.553 677.396 654.812 682.549 658.542C687.703 662.273 693.901 664.284 700.263 664.291C700.667 664.291 701.072 664.285 701.472 664.264C701.855 664.253 702.233 664.231 702.611 664.204C710.242 663.607 717.361 660.133 722.526 654.484C722.413 654.084 722.284 653.69 722.154 653.291C717.165 658.982 710.155 662.506 702.611 663.114V663.114Z" fill="white"/>
<path d="M604.391 171.588L604.971 160.553L607.931 172.821C618.023 175.861 629.552 175.745 629.552 175.745C629.552 175.745 630.332 151.84 621.238 142.54C612.145 133.241 603.441 135.4 596.621 142.069C589.802 148.737 587.449 157.39 596.542 166.69C598.797 168.841 601.468 170.508 604.391 171.588V171.588Z" fill="#BDD4EF"/>
<path d="M606.183 158.802L605.734 158.344C600.551 152.989 597.385 147.953 596.285 143.301C596.268 143.234 596.255 143.166 596.238 143.099L596.553 143.026L596.857 142.96C597.992 148.034 601.669 153.179 606.189 157.85C606.333 158.002 606.479 158.157 606.63 158.306C608.561 160.267 610.627 162.14 612.711 163.884C612.871 164.021 613.035 164.157 613.2 164.294C615.962 166.583 618.731 168.643 621.196 170.374C621.37 170.497 621.546 170.618 621.719 170.736C625.904 173.649 629.137 175.562 629.857 175.981C629.944 176.033 629.993 176.061 630.004 176.067L629.849 176.34V176.344L629.691 176.618C629.68 176.611 629.515 176.52 629.216 176.341C628.094 175.68 625.078 173.858 621.312 171.246C621.143 171.127 620.967 171.006 620.793 170.883C618.791 169.48 616.598 167.869 614.378 166.098C613.82 165.654 613.275 165.21 612.743 164.767C612.577 164.633 612.412 164.496 612.252 164.36C610 162.474 607.976 160.621 606.183 158.802Z" fill="white"/>
<path d="M621.313 171.245C621.445 171.076 621.579 170.905 621.72 170.736C622.102 170.276 622.508 169.836 622.936 169.418C624.755 167.635 626.951 166.282 629.363 165.459C629.341 165.246 629.318 165.032 629.296 164.814C626.741 165.661 624.414 167.081 622.492 168.965C622.036 169.411 621.603 169.881 621.197 170.373C621.058 170.54 620.924 170.711 620.794 170.882C619.715 172.29 618.856 173.853 618.246 175.518C618.466 175.547 618.681 175.577 618.891 175.606C619.479 174.041 620.295 172.571 621.313 171.245V171.245Z" fill="white"/>
<path d="M612.744 164.767C612.892 164.605 613.044 164.447 613.2 164.294C613.246 164.245 613.296 164.196 613.343 164.15C615.317 162.219 617.729 160.795 620.372 159.998C623.015 159.201 625.812 159.055 628.524 159.573C628.484 159.35 628.444 159.127 628.399 158.905C625.621 158.415 622.766 158.594 620.07 159.427C617.375 160.26 614.917 161.723 612.9 163.696C612.836 163.758 612.773 163.82 612.711 163.885C612.555 164.042 612.402 164.2 612.253 164.36C609.951 166.853 608.416 169.956 607.832 173.299C608.036 173.362 608.239 173.425 608.445 173.485C608.999 170.223 610.493 167.193 612.744 164.767V164.767Z" fill="white"/>
<path d="M606.183 158.802C606.328 158.633 606.478 158.468 606.63 158.306C606.794 158.133 606.96 157.962 607.13 157.796C609.785 155.205 613.208 153.544 616.887 153.062C620.565 152.579 624.301 153.301 627.534 155.12C627.457 154.836 627.381 154.555 627.299 154.275C623.977 152.555 620.197 151.925 616.497 152.476C612.797 153.026 609.364 154.729 606.686 157.342C606.516 157.508 606.348 157.677 606.189 157.85C606.032 158.012 605.882 158.177 605.735 158.343C602.772 161.732 601.207 166.12 601.358 170.618C601.569 170.74 601.786 170.852 602.005 170.967C601.762 166.523 603.261 162.159 606.183 158.802V158.802Z" fill="white"/>
<path d="M185.153 253.588L185.733 242.553L188.693 254.821C198.785 257.861 210.314 257.745 210.314 257.745C210.314 257.745 211.094 233.84 202 224.54C192.906 215.241 184.203 217.4 177.383 224.069C170.564 230.737 168.211 239.39 177.304 248.69C179.558 250.841 182.23 252.508 185.153 253.588Z" fill="#BDD4EF"/>
<path d="M186.944 240.802L186.496 240.344C181.313 234.989 178.146 229.953 177.047 225.301C177.03 225.234 177.017 225.166 177 225.099L177.315 225.026L177.619 224.96C178.754 230.034 182.431 235.179 186.95 239.85C187.095 240.002 187.241 240.157 187.392 240.306C189.323 242.267 191.389 244.14 193.472 245.884C193.632 246.021 193.797 246.157 193.962 246.294C196.724 248.583 199.493 250.643 201.958 252.374C202.131 252.497 202.307 252.618 202.481 252.736C206.666 255.649 209.899 257.562 210.619 257.981C210.706 258.033 210.755 258.061 210.766 258.067L210.61 258.34V258.344L210.452 258.618C210.441 258.611 210.276 258.52 209.978 258.341C208.856 257.68 205.84 255.858 202.074 253.246C201.904 253.127 201.728 253.006 201.555 252.883C199.553 251.48 197.36 249.869 195.14 248.098C194.582 247.654 194.037 247.21 193.505 246.767C193.338 246.633 193.174 246.496 193.014 246.36C190.761 244.474 188.738 242.621 186.944 240.802Z" fill="white"/>
<path d="M202.074 253.245C202.206 253.076 202.341 252.905 202.482 252.736C202.864 252.276 203.27 251.836 203.697 251.418C205.517 249.635 207.713 248.282 210.125 247.459C210.102 247.246 210.08 247.032 210.058 246.814C207.503 247.661 205.176 249.081 203.253 250.965C202.797 251.411 202.365 251.881 201.958 252.373C201.82 252.54 201.685 252.711 201.555 252.882C200.476 254.29 199.617 255.853 199.008 257.518C199.227 257.547 199.443 257.577 199.653 257.606C200.241 256.041 201.057 254.571 202.074 253.245Z" fill="white"/>
<path d="M193.506 246.767C193.653 246.605 193.805 246.447 193.962 246.294C194.008 246.245 194.057 246.196 194.105 246.15C196.079 244.219 198.49 242.795 201.134 241.998C203.777 241.201 206.574 241.055 209.286 241.573C209.246 241.35 209.205 241.127 209.161 240.905C206.382 240.415 203.527 240.594 200.832 241.427C198.137 242.26 195.678 243.723 193.661 245.696C193.598 245.758 193.534 245.82 193.473 245.885C193.316 246.042 193.164 246.2 193.014 246.36C190.713 248.853 189.178 251.956 188.594 255.299C188.797 255.362 189.001 255.425 189.207 255.485C189.761 252.223 191.255 249.193 193.506 246.767Z" fill="white"/>
<path d="M186.945 240.802C187.09 240.633 187.24 240.468 187.392 240.306C187.556 240.133 187.722 239.962 187.892 239.796C190.547 237.205 193.97 235.544 197.649 235.062C201.327 234.579 205.063 235.301 208.296 237.12C208.219 236.836 208.143 236.555 208.061 236.275C204.739 234.555 200.959 233.925 197.259 234.476C193.558 235.026 190.125 236.729 187.448 239.342C187.278 239.508 187.11 239.677 186.951 239.85C186.794 240.012 186.644 240.177 186.496 240.343C183.533 243.732 181.969 248.12 182.119 252.618C182.331 252.74 182.548 252.852 182.766 252.967C182.524 248.523 184.023 244.159 186.945 240.802V240.802Z" fill="white"/>
<path d="M255.153 113.588L255.733 102.553L258.693 114.821C268.785 117.861 280.314 117.745 280.314 117.745C280.314 117.745 281.094 93.8397 272 84.5403C262.906 75.2409 254.203 77.3999 247.383 84.0686C240.564 90.7372 238.211 99.3902 247.304 108.69C249.558 110.841 252.23 112.508 255.153 113.588V113.588Z" fill="#BDD4EF"/>
<path d="M256.944 100.802L256.496 100.344C251.313 94.9888 248.146 89.9529 247.047 85.3015C247.03 85.2339 247.017 85.1665 247 85.0989L247.315 85.0261L247.619 84.96C248.754 90.0338 252.431 95.1787 256.95 99.8504C257.095 100.002 257.241 100.157 257.392 100.306C259.323 102.267 261.389 104.14 263.472 105.884C263.632 106.021 263.797 106.157 263.962 106.294C266.724 108.583 269.493 110.643 271.958 112.374C272.131 112.497 272.307 112.618 272.481 112.736C276.666 115.649 279.899 117.562 280.619 117.981C280.706 118.033 280.755 118.061 280.766 118.067L280.61 118.34V118.344L280.452 118.618C280.441 118.611 280.276 118.52 279.978 118.341C278.856 117.68 275.84 115.858 272.074 113.246C271.904 113.127 271.728 113.006 271.555 112.883C269.553 111.48 267.36 109.869 265.14 108.098C264.582 107.654 264.037 107.21 263.505 106.767C263.338 106.633 263.174 106.496 263.014 106.36C260.761 104.474 258.738 102.621 256.944 100.802Z" fill="white"/>
<path d="M272.074 113.245C272.206 113.076 272.341 112.905 272.482 112.736C272.864 112.276 273.27 111.836 273.697 111.418C275.517 109.635 277.713 108.282 280.125 107.459C280.102 107.246 280.08 107.032 280.058 106.814C277.503 107.661 275.176 109.081 273.253 110.964C272.797 111.411 272.365 111.881 271.958 112.373C271.82 112.54 271.685 112.711 271.555 112.882C270.476 114.29 269.617 115.853 269.008 117.518C269.227 117.547 269.443 117.576 269.653 117.606C270.241 116.041 271.057 114.571 272.074 113.245V113.245Z" fill="white"/>
<path d="M263.506 106.767C263.653 106.605 263.806 106.447 263.962 106.294C264.008 106.245 264.057 106.196 264.105 106.15C266.079 104.219 268.49 102.795 271.134 101.998C273.777 101.201 276.574 101.055 279.286 101.573C279.246 101.35 279.205 101.127 279.161 100.905C276.382 100.415 273.527 100.594 270.832 101.427C268.137 102.26 265.678 103.723 263.661 105.696C263.598 105.758 263.534 105.82 263.473 105.885C263.316 106.042 263.164 106.2 263.014 106.36C260.713 108.853 259.178 111.956 258.594 115.299C258.797 115.362 259.001 115.425 259.207 115.485C259.761 112.223 261.255 109.193 263.506 106.767V106.767Z" fill="white"/>
<path d="M256.945 100.802C257.09 100.633 257.24 100.468 257.392 100.306C257.556 100.133 257.722 99.962 257.892 99.7956C260.547 97.2049 263.97 95.544 267.649 95.0616C271.327 94.5792 275.063 95.3013 278.296 97.1196C278.219 96.8359 278.143 96.5546 278.061 96.2753C274.739 94.5551 270.959 93.9255 267.259 94.476C263.558 95.0264 260.125 96.729 257.448 99.3417C257.278 99.5081 257.11 99.6768 256.951 99.8501C256.794 100.012 256.644 100.177 256.496 100.343C253.533 103.732 251.969 108.12 252.119 112.618C252.331 112.74 252.548 112.852 252.766 112.967C252.524 108.523 254.023 104.159 256.945 100.802V100.802Z" fill="white"/>
<path d="M95.6731 615.648L71.7249 637.696L90.7571 605.761C75.7625 578.569 51.239 555.069 51.239 555.069C51.239 555.069 0.361328 603.814 0.361328 642.131C0.361328 680.447 23.1399 693.826 51.239 693.826C79.3377 693.826 102.116 680.447 102.116 642.131C102.116 633.602 99.5921 624.558 95.6731 615.648Z" fill="#BDD4EF"/>
<path d="M65.5671 638.889V640.778C65.4549 662.731 61.7523 679.86 54.4874 691.922C54.3846 692.099 54.2724 692.268 54.1695 692.445L53.356 691.95L52.58 691.464C60.6397 678.439 63.4914 660.029 63.5942 640.881C63.6036 640.263 63.613 639.637 63.6036 639.011C63.5755 630.904 63.08 622.704 62.2853 614.738C62.2292 614.121 62.1637 613.495 62.0983 612.868C60.995 602.359 59.4055 592.317 57.7786 583.594C57.6664 582.976 57.5449 582.359 57.4233 581.751C54.609 566.997 51.7385 556.31 51.084 553.945C51.0093 553.655 50.9625 553.496 50.9531 553.459L51.8414 553.206L51.8507 553.197L52.7484 552.944C52.7577 552.982 52.9166 553.515 53.1784 554.506C54.1789 558.208 56.7782 568.26 59.3307 581.518C59.4429 582.116 59.5644 582.733 59.6767 583.35C61.0044 590.428 62.304 598.338 63.3326 606.641C63.5943 608.726 63.828 610.783 64.0338 612.812C64.1085 613.438 64.174 614.065 64.2301 614.682C65.0903 623.293 65.5359 631.362 65.5671 638.889Z" fill="white"/>
<path d="M59.3295 581.517C58.7031 581.602 58.0673 581.686 57.4221 581.751C55.6701 581.932 53.91 582.022 52.1488 582.022C44.6427 582.032 37.2301 580.358 30.4569 577.123C30.0642 577.619 29.6716 578.114 29.2695 578.619C36.3946 582.097 44.2202 583.901 52.1488 583.892C54.029 583.892 55.9078 583.792 57.7775 583.593C58.4133 583.528 59.049 583.444 59.6754 583.35C64.8464 582.608 69.8748 581.086 74.5886 578.834C74.1866 578.32 73.7939 577.815 73.4105 577.319C68.9492 579.404 64.2043 580.819 59.3295 581.517V581.517Z" fill="white"/>
<path d="M64.0343 612.812C63.3891 612.849 62.744 612.868 62.0988 612.868C61.9025 612.877 61.6969 612.877 61.5005 612.877C53.3672 612.877 45.3546 610.911 38.1456 607.145C30.9366 603.38 24.7451 597.927 20.0989 591.251C19.7249 591.803 19.3509 592.354 18.9863 592.915C23.829 599.67 30.2113 605.173 37.6046 608.97C44.9979 612.767 53.1893 614.747 61.5005 614.747C61.7623 614.747 62.024 614.747 62.2859 614.738C62.9403 614.729 63.5855 614.71 64.2306 614.682C74.2136 614.171 83.8381 610.795 91.9532 604.958C91.654 604.406 91.3548 603.855 91.0462 603.303C83.1593 609.034 73.7717 612.338 64.0343 612.812V612.812Z" fill="white"/>
<path d="M65.5671 638.889C64.9126 638.945 64.2581 638.982 63.6036 639.01C62.9024 639.038 62.2011 639.057 61.4999 639.057C50.571 639.044 39.9401 635.492 31.199 628.932C22.4579 622.372 16.0768 613.157 13.0111 602.667C12.5904 603.424 12.1696 604.172 11.7676 604.93C15.2218 615.395 21.8862 624.507 30.814 630.969C39.7417 637.431 50.4788 640.915 61.4999 640.927C62.2011 640.927 62.9023 640.918 63.5942 640.88C64.2581 640.862 64.9126 640.824 65.5671 640.777C78.787 639.743 91.1198 633.724 100.068 623.938C99.872 623.246 99.6476 622.564 99.4232 621.872C90.7799 631.731 78.6359 637.835 65.5671 638.889V638.889Z" fill="white"/>
<path d="M710.755 428.181C745.46 397.813 760.77 358.538 744.949 340.458C729.129 322.378 688.17 332.34 653.464 362.707C618.759 393.075 603.45 432.35 619.27 450.43C635.091 468.51 676.05 458.549 710.755 428.181Z" fill="#7EAFD0"/>
<path d="M197.949 450.43C213.77 432.35 198.46 393.076 163.755 362.708C129.05 332.34 88.0907 322.379 72.2703 340.459C56.45 358.539 71.7592 397.813 106.464 428.181C141.17 458.549 182.129 468.51 197.949 450.43Z" fill="#7EAFD0"/>
<path d="M276.109 692.944C322.225 692.944 359.609 673.469 359.609 649.444C359.609 625.42 322.225 605.944 276.109 605.944C229.994 605.944 192.609 625.42 192.609 649.444C192.609 673.469 229.994 692.944 276.109 692.944Z" fill="#7EAFD0"/>
<path d="M541.109 692.944C587.225 692.944 624.609 673.469 624.609 649.444C624.609 625.42 587.225 605.944 541.109 605.944C494.994 605.944 457.609 625.42 457.609 649.444C457.609 673.469 494.994 692.944 541.109 692.944Z" fill="#7EAFD0"/>
<path d="M408.609 632.944C295.572 632.944 203.609 540.982 203.609 427.944C203.609 314.907 295.572 222.944 408.609 222.944C521.647 222.944 613.609 314.907 613.609 427.944C613.609 540.982 521.647 632.944 408.609 632.944ZM408.609 224.944C296.675 224.944 205.609 316.01 205.609 427.944C205.609 539.879 296.675 630.944 408.609 630.944C520.544 630.944 611.609 539.879 611.609 427.944C611.609 316.01 520.544 224.944 408.609 224.944Z" fill="#1E4470"/>
<path d="M358.638 564.485C317.282 550.255 282.501 521.49 260.763 483.539C239.025 445.588 231.809 401.034 240.458 358.162C228.984 381.152 222.553 406.326 221.594 432.002C220.636 457.678 225.172 483.262 234.9 507.043C244.627 530.824 259.321 552.253 277.999 569.896C296.678 587.539 318.908 600.99 343.205 609.348C367.501 617.706 393.302 620.778 418.881 618.36C444.46 615.941 469.228 608.087 491.527 595.323C513.826 582.559 533.142 565.18 548.182 544.348C563.222 523.517 573.639 499.713 578.737 474.531C559.18 513.65 526.082 544.336 485.597 560.882C445.112 577.428 399.996 578.709 358.638 564.485V564.485Z" fill="#BDD4EF"/>
<path d="M348.232 411.608C337.855 411.608 329.412 400.622 329.412 387.118C329.412 373.614 337.855 362.628 348.232 362.628C358.61 362.628 367.052 373.614 367.052 387.118C367.052 400.622 358.61 411.608 348.232 411.608Z" fill="#1E4470"/>
<path d="M462.232 411.608C451.855 411.608 443.412 400.622 443.412 387.118C443.412 373.614 451.855 362.628 462.232 362.628C472.61 362.628 481.052 373.614 481.052 387.118C481.052 400.622 472.61 411.608 462.232 411.608Z" fill="#1E4470"/>
<path d="M395.609 35.9443C405.551 35.9443 413.609 30.124 413.609 22.9443C413.609 15.7646 405.551 9.94434 395.609 9.94434C385.668 9.94434 377.609 15.7646 377.609 22.9443C377.609 30.124 385.668 35.9443 395.609 35.9443Z" fill="#1E4470"/>
<path d="M395.609 15.8889C401.685 15.8889 406.609 12.332 406.609 7.94444C406.609 3.55685 401.685 0 395.609 0C389.534 0 384.609 3.55685 384.609 7.94444C384.609 12.332 389.534 15.8889 395.609 15.8889Z" fill="#1E4470"/>
<path d="M382.666 28.1394C376.474 21.9478 374.514 13.5997 377.603 8.22754C376.869 8.6458 376.194 9.15929 375.595 9.75466C370.518 14.8315 372.101 24.6457 379.13 31.675C386.16 38.7046 395.974 40.2873 401.05 35.2105C401.646 34.6113 402.159 33.936 402.578 33.2021C397.205 36.2907 388.857 34.3311 382.666 28.1394Z" fill="#1E4470"/>
<path d="M210.324 349.912L204.002 339.408L241.508 310.023L250.839 325.525L210.324 349.912Z" fill="#FFB6B6"/>
<path d="M201.755 358.72L181.369 324.851L181.798 324.593C185.294 322.489 189.483 321.86 193.443 322.844C197.403 323.828 200.81 326.344 202.915 329.84L202.916 329.841L215.367 350.527L201.755 358.72Z" fill="#1E4470"/>
<path d="M605.451 335.912L611.773 325.408L574.267 296.023L564.936 311.525L605.451 335.912Z" fill="#FFB6B6"/>
<path d="M600.408 336.527L612.859 315.841L612.86 315.84C614.965 312.344 618.372 309.828 622.332 308.844C626.292 307.86 630.481 308.489 633.977 310.593L634.406 310.851L614.019 344.72L600.408 336.527Z" fill="#1E4470"/>
<path d="M360.332 195.734L357.944 205.27L293.514 256.849L224.174 321.65L231.611 338.944L396.888 228.325L583.219 324.911L591.544 305.846L506.514 248.849L436.195 200.357L360.332 195.734Z" fill="#1E4470"/>
<path d="M382.026 93.708L354.178 102.845L357.942 204.286C357.942 204.286 406.375 233.365 436.193 200.357V98.8942L419.564 93.708H382.026Z" fill="#3785BA"/>
<path d="M430.012 105.869L436.193 98.8945C436.193 98.8945 453.379 105.172 451.945 124.011C450.512 142.849 440.412 202.766 440.412 202.766L438.512 241.849H420.572L427.722 140.776L430.012 105.869Z" fill="#3785BA"/>
<path d="M362.012 108.869L355.831 101.895C355.831 101.895 338.646 108.172 340.079 127.011C341.512 145.849 351.612 205.766 351.612 205.766L353.512 244.849H371.452L364.302 143.776L362.012 108.869Z" fill="#3785BA"/>
<path d="M362.609 260.944C368.685 260.944 373.609 256.019 373.609 249.944C373.609 243.869 368.685 238.944 362.609 238.944C356.534 238.944 351.609 243.869 351.609 249.944C351.609 256.019 356.534 260.944 362.609 260.944Z" fill="#FFB6B6"/>
<path d="M429.609 260.944C435.685 260.944 440.609 256.019 440.609 249.944C440.609 243.869 435.685 238.944 429.609 238.944C423.534 238.944 418.609 243.869 418.609 249.944C418.609 256.019 423.534 260.944 429.609 260.944Z" fill="#FFB6B6"/>
<path d="M395.146 85.379C411.971 85.379 425.61 71.7397 425.61 54.9146C425.61 38.0896 411.971 24.4502 395.146 24.4502C378.321 24.4502 364.682 38.0896 364.682 54.9146C364.682 71.7397 378.321 85.379 395.146 85.379Z" fill="#1E4470"/>
<path d="M396.063 86.3848C409.628 86.3848 420.624 75.3884 420.624 61.8237C420.624 48.259 409.628 37.2627 396.063 37.2627C382.498 37.2627 371.502 48.259 371.502 61.8237C371.502 75.3884 382.498 86.3848 396.063 86.3848Z" fill="#FFB6B6"/>
<path d="M370.256 46.374C375.868 50.2424 382.53 52.3011 389.347 52.2739C386.915 53.9598 384.147 55.0986 381.233 55.6119C390.296 57.5559 399.663 57.6085 408.747 55.7664C410.766 55.4427 412.715 54.7735 414.507 53.7882C415.4 53.2895 416.178 52.6084 416.79 51.7892C417.403 50.97 417.836 50.0311 418.062 49.0335C418.666 45.585 415.978 42.4519 413.186 40.3404C408.91 37.1569 403.981 34.9635 398.753 33.919C393.526 32.8744 388.132 33.0048 382.961 34.3007C379.585 35.1735 376.203 36.648 374.01 39.3594C371.817 42.0708 371.167 46.2509 373.257 49.0429L370.256 46.374Z" fill="#1E4470"/>
<path d="M377.609 507.944C377.609 515.37 380.559 522.492 385.81 527.743C391.061 532.994 398.183 535.944 405.609 535.944C413.035 535.944 420.157 532.994 425.408 527.743C430.659 522.492 433.609 515.37 433.609 507.944H377.609Z" fill="#1E4470"/>
<path d="M508.732 472.944C521.987 472.944 532.732 462.199 532.732 448.944C532.732 435.69 521.987 424.944 508.732 424.944C495.478 424.944 484.732 435.69 484.732 448.944C484.732 462.199 495.478 472.944 508.732 472.944Z" fill="#BDD4EF"/>
<path d="M301.732 472.944C314.987 472.944 325.732 462.199 325.732 448.944C325.732 435.69 314.987 424.944 301.732 424.944C288.478 424.944 277.732 435.69 277.732 448.944C277.732 462.199 288.478 472.944 301.732 472.944Z" fill="#BDD4EF"/>
</svg>
