<svg width="741" height="595" viewBox="0 0 741 595" fill="none" xmlns="http://www.w3.org/2000/svg">
<path d="M363.391 594C388.796 594 409.391 573.405 409.391 548C409.391 522.595 388.796 502 363.391 502C337.986 502 317.391 522.595 317.391 548C317.391 573.405 337.986 594 363.391 594Z" fill="#3785BA"/>
<path d="M638.198 591.416C663.932 583.687 691.291 575.628 711.701 557.255C729.938 540.837 742.251 515.766 734.695 491.144C727.155 466.572 704.571 450.187 681.254 442.038C668.029 437.416 654.193 434.852 640.362 432.838C625.327 430.648 610.226 428.854 595.132 427.128C534.014 420.137 472.666 415.867 411.088 414.317C380.704 413.552 350.325 413.57 319.936 414.011C292.796 414.405 264.214 414.395 239.037 402.861C219.458 393.891 201.689 377.572 196.233 356.127C189.936 331.372 201.551 306.163 218.213 288.235C226.996 278.785 237.261 270.831 247.85 263.518C259.337 255.583 271.225 248.211 283.37 241.33C307.292 227.782 332.3 216.253 358.137 206.861C370.883 202.227 383.818 198.228 396.865 194.54C407.882 191.425 418.933 188.306 429.581 184.062C450.164 175.858 469.742 161.962 474.975 139.181C479.935 117.589 471.572 94.15 456.91 78.1101C439.947 59.5531 414.371 51.4183 389.85 50.1021C362.322 48.6245 335.428 55.5141 309.553 64.258C281.957 73.584 254.955 84.3072 226.775 91.8612C198.831 99.3446 170.346 104.639 141.579 107.698C127.497 109.197 112.989 110.89 98.8231 109.742C86.9506 108.78 75.1388 105.289 66.389 96.8628C58.8865 89.6381 54.4172 79.7088 55.9537 69.2304C56.2328 67.3273 59.1239 68.1364 58.8466 70.028C56.9762 82.7831 65.6465 94.5366 76.3307 100.557C88.6789 107.516 103.705 107.525 117.453 106.729C147.261 104.929 176.869 100.649 205.967 93.9337C234.56 87.4031 262.131 78.0673 289.671 68.0946C315.827 58.6231 342.568 49.3788 370.511 47.3273C394.757 45.5472 420.263 49.0795 441.385 61.7504C459.949 72.8864 473.6 91.4577 477.95 112.769C482.2 133.593 476.313 154.554 460.55 169.086C444.228 184.132 421.849 190.565 400.993 196.489C374.541 204.004 348.656 212.787 323.601 224.192C298.204 235.72 273.848 249.413 250.801 265.121C228.554 280.323 206.6 299.451 199.564 326.572C196.287 339.205 196.892 352.604 202.376 364.536C207.252 375.146 215.282 384.071 224.637 390.955C246.958 407.379 275.09 410.752 302.052 411.087C332.333 411.464 362.615 410.442 392.907 410.939C454.639 411.952 516.245 415.71 577.725 422.212C593.131 423.842 608.516 425.645 623.883 427.619C637.704 429.395 651.573 431.159 665.161 434.313C689.324 439.922 712.835 450.705 727.853 471.191C734.518 480.071 738.648 490.594 739.8 501.637C740.852 513.161 738.03 524.707 732.82 534.958C721.288 557.649 699.686 572.081 676.747 581.563C664.46 586.642 651.715 590.489 638.995 594.309C637.142 594.866 636.35 591.971 638.198 591.416L638.198 591.416Z" fill="#F2F2F2"/>
<path d="M57.8906 93.5C71.1455 93.5 81.8906 82.7548 81.8906 69.5C81.8906 56.2452 71.1455 45.5 57.8906 45.5C44.6358 45.5 33.8906 56.2452 33.8906 69.5C33.8906 82.7548 44.6358 93.5 57.8906 93.5Z" fill="#F2F2F2"/>
<path d="M224.391 139C237.645 139 248.391 128.255 248.391 115C248.391 101.745 237.645 91 224.391 91C211.136 91 200.391 101.745 200.391 115C200.391 128.255 211.136 139 224.391 139Z" fill="#F2F2F2"/>
<path d="M365.391 48C378.645 48 389.391 37.2548 389.391 24C389.391 10.7452 378.645 0 365.391 0C352.136 0 341.391 10.7452 341.391 24C341.391 37.2548 352.136 48 365.391 48Z" fill="#F2F2F2"/>
<path d="M453.391 150C466.645 150 477.391 139.255 477.391 126C477.391 112.745 466.645 102 453.391 102C440.136 102 429.391 112.745 429.391 126C429.391 139.255 440.136 150 453.391 150Z" fill="#F2F2F2"/>
<path d="M334.391 268C347.645 268 358.391 257.255 358.391 244C358.391 230.745 347.645 220 334.391 220C321.136 220 310.391 230.745 310.391 244C310.391 257.255 321.136 268 334.391 268Z" fill="#F2F2F2"/>
<path d="M183.391 325C196.645 325 207.391 314.255 207.391 301C207.391 287.745 196.645 277 183.391 277C170.136 277 159.391 287.745 159.391 301C159.391 314.255 170.136 325 183.391 325Z" fill="#F2F2F2"/>
<path d="M343.391 414C356.645 414 367.391 403.255 367.391 390C367.391 376.745 356.645 366 343.391 366C330.136 366 319.391 376.745 319.391 390C319.391 403.255 330.136 414 343.391 414Z" fill="#F2F2F2"/>
<path d="M515.391 464C528.645 464 539.391 453.255 539.391 440C539.391 426.745 528.645 416 515.391 416C502.136 416 491.391 426.745 491.391 440C491.391 453.255 502.136 464 515.391 464Z" fill="#F2F2F2"/>
<path d="M716.391 453C729.645 453 740.391 442.255 740.391 429C740.391 415.745 729.645 405 716.391 405C703.136 405 692.391 415.745 692.391 429C692.391 442.255 703.136 453 716.391 453Z" fill="#F2F2F2"/>
<path d="M358.463 68.0035C286.571 68.5113 227.706 126.933 226.685 198.82C226.676 199.484 226.671 204.15 226.672 210.254C226.672 219.204 230.228 227.786 236.556 234.115C242.884 240.443 251.466 243.999 260.416 244H260.416C264.852 243.999 269.245 243.124 273.343 241.425C277.441 239.725 281.164 237.235 284.299 234.097C287.435 230.958 289.921 227.232 291.616 223.132C293.31 219.032 294.181 214.639 294.177 210.202C294.174 206.05 294.171 203.176 294.171 203C294.169 191.89 297.059 180.971 302.557 171.316C308.054 161.662 315.971 153.605 325.527 147.938C335.083 142.271 345.949 139.189 357.057 138.996C368.166 138.803 379.133 141.504 388.881 146.835C398.628 152.166 406.82 159.942 412.65 169.399C418.481 178.856 421.749 189.668 422.134 200.771C422.518 211.875 420.006 222.887 414.844 232.725C409.681 242.563 402.047 250.887 392.692 256.879L392.703 256.894C392.703 256.894 344.675 287.813 330.033 330.229L330.045 330.232C327.47 338.921 326.166 347.937 326.171 357C326.171 360.725 326.391 393.321 326.814 419.778C326.962 428.906 330.693 437.611 337.201 444.013C343.71 450.415 352.475 454.002 361.604 454H361.604C366.192 454 370.734 453.093 374.969 451.33C379.205 449.568 383.05 446.986 386.284 443.732C389.517 440.478 392.076 436.617 393.812 432.371C395.547 428.124 396.426 423.577 396.398 418.989C396.251 394.76 396.171 366.548 396.171 364.5C396.171 338.455 421.297 312.505 441.935 295.583C465.701 276.096 482.803 249.54 489.672 219.584C491.192 213.416 492.03 207.1 492.172 200.75C492.172 183.236 488.706 165.896 481.975 149.727C475.243 133.559 465.379 118.882 452.95 106.543C440.522 94.2039 425.774 84.446 409.557 77.8316C393.341 71.2171 375.976 67.8769 358.463 68.0035V68.0035Z" fill="#3785BA"/>
<path d="M560.447 272.996C577.016 272.996 590.447 259.565 590.447 242.996C590.447 226.428 577.016 212.996 560.447 212.996C543.879 212.996 530.447 226.428 530.447 242.996C530.447 259.565 543.879 272.996 560.447 272.996Z" fill="#323537"/>
<path d="M505.01 582.13H492.751L486.918 534.842H505.013L505.01 582.13Z" fill="#A0616A"/>
<path d="M483.994 578.625H507.638V593.512H469.107C469.107 591.557 469.492 589.621 470.241 587.815C470.989 586.009 472.085 584.368 473.468 582.985C474.85 581.603 476.491 580.506 478.297 579.758C480.103 579.01 482.039 578.625 483.994 578.625Z" fill="#7EAFD0"/>
<path d="M600.01 582.13H587.751L581.918 534.842H600.013L600.01 582.13Z" fill="#A0616A"/>
<path d="M578.994 578.625H602.638V593.512H564.107C564.107 591.557 564.492 589.621 565.241 587.815C565.989 586.009 567.085 584.368 568.468 582.985C569.85 581.603 571.491 580.506 573.297 579.758C575.103 579.01 577.039 578.625 578.994 578.625V578.625Z" fill="#7EAFD0"/>
<path d="M555.887 273.171C569.452 273.171 580.448 262.175 580.448 248.61C580.448 235.045 569.452 224.049 555.887 224.049C542.323 224.049 531.326 235.045 531.326 248.61C531.326 262.175 542.323 273.171 555.887 273.171Z" fill="#A0616A"/>
<path d="M570.526 352.406L581.516 327.156C584.185 321.233 584.95 314.627 583.705 308.251C582.46 301.874 579.267 296.041 574.566 291.556C573.601 290.602 572.575 289.71 571.496 288.886C566.073 284.644 559.391 282.332 552.506 282.316C547.877 282.334 543.307 283.351 539.106 285.296C538.746 285.456 538.396 285.626 538.036 285.796C537.346 286.126 536.666 286.486 536.006 286.856C531.701 289.328 528.037 292.777 525.31 296.925C522.583 301.073 520.869 305.804 520.306 310.736L515.456 351.376C514.236 354.566 470.716 469.766 485.936 557.716C486.098 558.656 486.556 559.518 487.244 560.179C487.931 560.839 488.811 561.262 489.756 561.386L505.186 563.486C506.313 563.641 507.456 563.362 508.386 562.707C509.315 562.052 509.962 561.069 510.196 559.956L536.086 436.546C536.248 435.78 536.661 435.089 537.261 434.585C537.861 434.081 538.613 433.793 539.396 433.766C540.179 433.74 540.949 433.977 541.581 434.439C542.214 434.901 542.673 435.562 542.886 436.316L579.466 566.096C579.727 567.039 580.289 567.871 581.068 568.463C581.847 569.056 582.798 569.377 583.776 569.376C584.068 569.375 584.359 569.348 584.646 569.296L603.496 565.666C604.592 565.462 605.572 564.855 606.243 563.965C606.915 563.075 607.23 561.966 607.126 560.856C604.356 529.966 589.636 375.236 570.526 352.406Z" fill="#7EAFD0"/>
<path d="M460.437 269.05C460.267 270.51 460.418 271.99 460.882 273.385C461.345 274.78 462.108 276.057 463.119 277.125C464.129 278.193 465.361 279.027 466.728 279.567C468.095 280.108 469.564 280.342 471.031 280.253L484.76 313.246L495.145 297.851L480.516 268.881C480.204 266.426 479.001 264.171 477.137 262.542C475.273 260.914 472.877 260.026 470.402 260.047C467.927 260.068 465.545 260.996 463.709 262.655C461.872 264.314 460.708 266.59 460.437 269.05L460.437 269.05Z" fill="#A0616A"/>
<path d="M554.526 385.626C555.985 385.452 557.389 384.959 558.638 384.183C559.887 383.408 560.95 382.368 561.753 381.137C562.557 379.906 563.081 378.513 563.288 377.058C563.495 375.602 563.38 374.119 562.952 372.713L591.837 351.674L574.447 345.162L549.683 366.139C547.368 367.015 545.455 368.709 544.306 370.902C543.157 373.094 542.852 375.631 543.449 378.033C544.046 380.435 545.503 382.535 547.545 383.934C549.586 385.334 552.07 385.936 554.526 385.626V385.626Z" fill="#A0616A"/>
<path d="M507.438 335.241C506.331 335.24 505.226 335.131 504.14 334.916C501.513 334.416 499.048 333.277 496.965 331.6C494.881 329.924 493.242 327.76 492.192 325.3L472.958 301.847C472.551 301.351 472.255 300.774 472.09 300.154C471.924 299.535 471.893 298.887 471.998 298.255C472.104 297.622 472.343 297.019 472.7 296.487C473.057 295.954 473.524 295.504 474.069 295.166L487.753 286.696C488.259 286.383 488.821 286.173 489.408 286.079C489.994 285.984 490.594 286.007 491.172 286.145C491.75 286.284 492.294 286.536 492.774 286.886C493.254 287.236 493.66 287.678 493.969 288.186L507.525 310.52L533.487 291.333C535.554 290.249 537.942 289.945 540.214 290.477C542.487 291.008 544.493 292.34 545.865 294.228C547.237 296.116 547.884 298.434 547.688 300.76C547.492 303.086 546.465 305.263 544.796 306.895L518.885 330.531C515.84 333.55 511.726 335.243 507.438 335.241Z" fill="#7EAFD0"/>
<path d="M577.588 370.513C577.553 370.513 577.518 370.513 577.482 370.512C576.851 370.496 576.231 370.348 575.66 370.078C575.09 369.807 574.583 369.42 574.172 368.941L562.005 354.748C561.591 354.265 561.284 353.699 561.104 353.088C560.925 352.477 560.877 351.835 560.964 351.204C561.051 350.574 561.271 349.969 561.609 349.429C561.947 348.89 562.396 348.428 562.926 348.075L585.707 332.888L565.069 308.075C563.868 306.074 563.428 303.707 563.828 301.408C564.228 299.108 565.443 297.03 567.249 295.551C569.055 294.073 571.333 293.294 573.666 293.357C575.999 293.42 578.232 294.32 579.956 295.892L605.04 320.405C607.014 322.209 608.521 324.464 609.431 326.978C610.342 329.492 610.629 332.19 610.267 334.839C609.906 337.489 608.907 340.011 607.356 342.189C605.806 344.367 603.749 346.137 601.364 347.346L580.863 369.099C580.442 369.545 579.934 369.901 579.371 370.144C578.808 370.387 578.201 370.512 577.588 370.513Z" fill="#7EAFD0"/>
<path d="M549.643 318.215C549.448 318.215 549.253 318.202 549.059 318.178C548.212 318.075 547.412 317.731 546.754 317.187C546.096 316.643 545.609 315.922 545.348 315.109L536.206 287.08C535.977 286.371 536.012 285.603 536.305 284.919C536.598 284.234 537.129 283.679 537.8 283.355L538.097 283.215C538.366 283.087 538.632 282.961 538.904 282.839C543.167 280.862 547.808 279.831 552.507 279.816C558.608 279.828 564.572 281.62 569.668 284.973C570.352 285.428 570.829 286.133 570.998 286.936C571.166 287.739 571.013 288.577 570.57 289.268L553.42 316.135C553.018 316.773 552.46 317.299 551.8 317.662C551.139 318.026 550.397 318.216 549.643 318.215V318.215Z" fill="#E6E6E6"/>
<path d="M584.1 229.602C589.521 229.602 593.917 225.207 593.917 219.785C593.917 214.364 589.521 209.969 584.1 209.969C578.678 209.969 574.283 214.364 574.283 219.785C574.283 225.207 578.678 229.602 584.1 229.602Z" fill="#323537"/>
<path d="M550.447 208.996C543.552 208.996 536.938 211.735 532.062 216.611C527.187 221.487 524.447 228.1 524.447 234.996V245.996H537.977L544.447 234.996L546.389 245.996H587.447L576.447 234.996C576.447 228.1 573.708 221.487 568.832 216.611C563.956 211.735 557.343 208.996 550.447 208.996V208.996Z" fill="#323537"/>
<path d="M589.145 213.062C590.23 209.668 592.478 206.765 595.492 204.864C598.506 202.962 602.094 202.184 605.625 202.667C611.881 203.713 616.828 208.741 619.775 214.358C622.722 219.974 624.083 226.26 626.064 232.286C628.045 238.311 630.855 244.369 635.857 248.27C640.859 252.17 648.534 253.228 653.447 249.216C652.886 253.397 651.024 257.297 648.125 260.362C645.226 263.428 641.437 265.505 637.294 266.299C633.15 267.093 628.862 266.564 625.035 264.787C621.208 263.01 618.037 260.075 615.97 256.397C613.378 251.785 612.709 246.38 611.94 241.146C611.171 235.912 610.173 230.496 607.078 226.206C603.983 221.915 598.19 219.113 593.274 221.067L589.145 213.062Z" fill="#323537"/>
<path d="M269.945 228.038C260.996 228.037 252.413 224.481 246.085 218.153C239.757 211.825 236.202 203.242 236.201 194.292C236.201 188.188 236.205 183.522 236.214 182.858C236.499 161.951 241.764 141.414 251.573 122.949C235.457 145.012 226.595 171.538 226.214 198.858C226.205 199.522 226.201 204.188 226.201 210.292C226.202 219.242 229.757 227.825 236.085 234.153C242.413 240.481 250.996 244.037 259.945 244.038V244.038C267.299 244.035 274.452 241.632 280.315 237.194C286.179 232.756 290.434 226.525 292.433 219.448C286.254 224.988 278.245 228.048 269.945 228.038V228.038Z" fill="#3F3D56"/>
<path d="M360.751 139.109C371.097 139.603 381.169 142.601 390.101 147.845C399.034 153.089 406.56 160.422 412.034 169.216C417.508 178.009 420.766 188 421.528 198.33C422.29 208.659 420.534 219.02 416.41 228.522C422.375 221.516 426.759 213.307 429.264 204.454C431.769 195.6 432.335 186.311 430.924 177.219C429.513 168.127 426.158 159.446 421.089 151.768C416.019 144.09 409.353 137.596 401.545 132.727C393.738 127.859 384.973 124.732 375.847 123.558C366.721 122.384 357.45 123.192 348.665 125.927C339.88 128.661 331.787 133.257 324.94 139.403C318.092 145.548 312.65 153.097 308.984 161.536C315.32 154.084 323.282 148.186 332.257 144.297C341.233 140.409 350.981 138.634 360.751 139.109V139.109Z" fill="#3F3D56"/>
<path d="M371.132 438.038C362.002 438.04 353.238 434.453 346.729 428.051C340.221 421.649 336.49 412.944 336.342 403.816C335.918 377.36 335.699 344.764 335.699 341.038C335.693 331.976 336.998 322.96 339.573 314.27L339.561 314.267C341.081 309.906 342.917 305.661 345.055 301.566C338.493 310.311 333.271 319.984 329.561 330.267L329.573 330.27C326.998 338.96 325.693 347.976 325.699 357.038C325.699 360.764 325.918 393.36 326.342 419.816C326.49 428.944 330.221 437.649 336.729 444.051C343.238 450.453 352.002 454.04 361.132 454.038V454.038C368.659 454.037 375.984 451.595 382.006 447.079C388.028 442.563 392.424 436.216 394.534 428.99C388.137 434.823 379.789 438.05 371.132 438.038V438.038Z" fill="#3F3D56"/>
<path d="M58.5382 582.586L70.7972 582.585L76.6301 535.297L58.5352 535.298L58.5382 582.586Z" fill="#FFB8B8"/>
<path d="M94.4434 593.967L55.9127 593.969L55.912 579.082L79.5558 579.081C83.5041 579.08 87.2907 580.649 90.0826 583.44C92.8746 586.232 94.4432 590.019 94.4434 593.967V593.967L94.4434 593.967Z" fill="#7EAFD0"/>
<path d="M14.5382 582.586L26.7972 582.585L32.6302 535.297L14.5352 535.298L14.5382 582.586Z" fill="#FFB8B8"/>
<path d="M50.4434 593.967L11.9127 593.969L11.912 579.082L35.5558 579.081C39.5041 579.08 43.2907 580.649 46.0826 583.44C48.8746 586.232 50.4432 590.019 50.4434 593.967V593.967L50.4434 593.967Z" fill="#7EAFD0"/>
<path d="M25.2528 568.041L13.2777 567.411C12.6603 567.379 12.0554 567.224 11.4981 566.956C10.9408 566.688 10.4422 566.313 10.0313 565.851C9.6203 565.389 9.30509 564.85 9.1039 564.265C8.90272 563.68 8.81956 563.062 8.85924 562.444L23.1719 403.979L89.0829 421.764L95.4331 420.032L75.5748 560.317C75.4057 561.372 74.8816 562.338 74.0892 563.055C73.2969 563.772 72.2835 564.198 71.2167 564.261L58.3078 564.863C57.6623 564.898 57.0164 564.8 56.4109 564.573C55.8054 564.347 55.2535 563.997 54.79 563.547C54.3266 563.096 53.9616 562.554 53.7183 561.955C53.475 561.356 53.3585 560.713 53.3763 560.067L55.7153 475.871C55.7262 475.481 55.591 475.102 55.3361 474.807C55.0813 474.513 54.7254 474.324 54.3385 474.279C53.9516 474.234 53.5619 474.335 53.246 474.563C52.9302 474.791 52.7112 475.129 52.6321 475.51L30.0752 564.323C29.8622 565.377 29.2904 566.324 28.4573 567.003C27.6241 567.683 26.5811 568.052 25.506 568.048C25.4221 568.048 25.3377 568.046 25.2528 568.041Z" fill="#7EAFD0"/>
<path d="M60.7407 274.319C74.3054 274.319 85.3018 263.323 85.3018 249.758C85.3018 236.194 74.3054 225.197 60.7407 225.197C47.176 225.197 36.1797 236.194 36.1797 249.758C36.1797 263.323 47.176 274.319 60.7407 274.319Z" fill="#FFB8B8"/>
<path d="M19.8477 321.917L22.5483 380.185L23.5246 401.383C23.5635 402.306 23.8768 403.196 24.4244 403.94C24.9721 404.684 25.7292 405.247 26.5989 405.559L89.9349 428.502C90.4465 428.692 90.9886 428.787 91.5344 428.782C92.1583 428.785 92.7763 428.663 93.3517 428.422C93.927 428.18 94.4479 427.826 94.8832 427.379C95.3185 426.932 95.6593 426.402 95.8852 425.82C96.1111 425.239 96.2175 424.618 96.1981 423.994L93.6015 319.227C93.4309 310.632 90.2668 302.365 84.6547 295.852C79.0425 289.339 71.3339 284.989 62.8578 283.55C62.2452 283.457 61.6219 283.363 60.9986 283.28C55.7428 282.628 50.4077 283.135 45.369 284.766C40.3302 286.397 35.7101 289.113 31.8336 292.721C27.8196 296.413 24.6656 300.942 22.5944 305.987C20.5233 311.032 19.5856 316.47 19.8477 321.917L19.8477 321.917Z" fill="#CCCCCC"/>
<path d="M120.191 416.875C118.693 416.41 117.324 415.602 116.194 414.514C115.064 413.426 114.204 412.089 113.682 410.61C113.161 409.131 112.992 407.55 113.19 405.994C113.388 404.438 113.947 402.95 114.822 401.648L93.3438 373.089L111.878 371.941L129.432 399.238C131.312 400.691 132.619 402.76 133.126 405.08C133.633 407.401 133.306 409.826 132.204 411.93C131.101 414.034 129.293 415.683 127.096 416.587C124.9 417.491 122.455 417.593 120.191 416.875H120.191Z" fill="#FFB8B8"/>
<path d="M105.089 396.481C104.52 396.25 104.003 395.908 103.566 395.476C103.13 395.044 102.784 394.529 102.548 393.962L70.1898 316.868C69.5549 315.359 69.2236 313.739 69.215 312.101C69.2064 310.464 69.5205 308.841 70.1395 307.325C70.7585 305.809 71.6701 304.429 72.8224 303.266C73.9746 302.102 75.3449 301.177 76.8548 300.543C78.3647 299.91 79.9847 299.58 81.6222 299.572C83.2598 299.565 84.8827 299.88 86.3982 300.501C87.9138 301.121 89.2923 302.033 90.4549 303.187C91.6176 304.34 92.5416 305.711 93.1742 307.221L125.532 384.316C126.011 385.46 126.016 386.746 125.547 387.893C125.078 389.04 124.174 389.954 123.032 390.435L108.666 396.464C108.101 396.703 107.494 396.828 106.88 396.831C106.265 396.834 105.657 396.715 105.089 396.481L105.089 396.481Z" fill="#CCCCCC"/>
<path d="M52.8427 393.763L83.9219 334.254C84.5213 333.109 85.5501 332.249 86.7827 331.862C88.0153 331.476 89.3511 331.594 90.4968 332.19L135.608 355.75C136.753 356.35 137.613 357.379 138 358.611C138.386 359.844 138.269 361.18 137.672 362.325L106.593 421.834C105.993 422.979 104.964 423.839 103.732 424.225C102.499 424.612 101.163 424.494 100.018 423.898L54.9061 400.338C53.7617 399.738 52.9017 398.709 52.5149 397.477C52.128 396.244 52.2459 394.908 52.8427 393.763Z" fill="#3F3D56"/>
<path d="M73.6859 366.574C73.1334 365.106 72.2454 363.787 71.0928 362.724C69.9402 361.66 68.5549 360.88 67.0475 360.447C65.5401 360.013 63.9523 359.939 62.4107 360.228C60.8692 360.517 59.4166 361.163 58.1689 362.113L28.3905 342.359L28.3398 360.929L56.6257 376.841C58.1871 378.631 60.329 379.814 62.6757 380.183C65.0223 380.552 67.4239 380.083 69.4593 378.858C71.4946 377.633 73.0337 375.731 73.8065 373.485C74.5794 371.238 74.5367 368.792 73.6859 366.574V366.574Z" fill="#FFB8B8"/>
<path d="M36.0367 370.75L11.7 351.473C9.06721 350.589 6.68829 349.079 4.76742 347.073C2.84655 345.067 1.44112 342.625 0.671746 339.957C-0.097624 337.288 -0.207945 334.473 0.350259 331.752C0.908463 329.032 2.11852 326.487 3.87655 324.337L25.9737 295.378C27.5092 293.501 29.6688 292.24 32.0577 291.825C34.4465 291.41 36.905 291.868 38.9838 293.116C41.0626 294.364 42.6228 296.319 43.3792 298.622C44.1356 300.926 44.0376 303.425 43.1033 305.662L25.6195 334.262L51.3134 346.449C51.9109 346.733 52.4415 347.139 52.87 347.643C53.2986 348.147 53.6154 348.735 53.7996 349.371C53.9837 350.006 54.031 350.673 53.9382 351.327C53.8455 351.982 53.6149 352.61 53.2616 353.169L42.8899 369.583C42.5392 370.137 42.0762 370.611 41.5307 370.975C40.9852 371.338 40.3694 371.583 39.7231 371.694C39.6975 371.698 39.6716 371.702 39.6458 371.706C39.0109 371.802 38.363 371.767 37.7422 371.602C37.1214 371.438 36.541 371.148 36.0367 370.75V370.75Z" fill="#CCCCCC"/>
<path d="M42.1807 266.204C42.0753 265.896 42.0419 265.568 42.0829 265.245C42.124 264.921 42.2386 264.612 42.4178 264.34C42.5969 264.068 42.836 263.84 43.1167 263.675C43.3974 263.509 43.7122 263.41 44.037 263.385C44.7022 263.422 45.3532 263.592 45.9507 263.887C46.5481 264.182 47.0796 264.594 47.5131 265.1C48.402 266.125 49.4368 267.014 50.5843 267.737C51.7724 268.336 53.3838 268.251 54.0611 267.109C54.6972 266.037 54.2614 264.601 53.8763 263.356C52.8965 260.187 52.3482 256.901 52.2464 253.586C52.1355 249.885 52.6575 246.024 54.7061 243.138C57.35 239.413 62.0775 237.999 66.5515 238.101C71.0256 238.204 75.427 239.585 79.8587 240.458C81.3886 240.759 83.1869 240.914 84.2102 239.728C85.2983 238.467 84.8987 236.426 84.4359 234.724C83.2349 230.307 81.9608 225.739 79.1706 222.172C76.1536 218.465 71.844 216.038 67.1098 215.382C62.5646 214.819 57.9507 215.342 53.6474 216.91C46.6363 219.12 40.467 223.418 35.9646 229.229C31.3233 235.408 29.3177 243.174 30.3865 250.829C31.4306 257.495 34.9632 263.518 40.2723 267.683L42.1807 266.204Z" fill="#323537"/>
<path d="M353.256 582.78C346.722 579.934 340.938 575.608 336.362 570.144C331.785 564.68 328.541 558.227 326.886 551.294C325.23 544.362 325.209 537.139 326.823 530.197C328.437 523.255 331.642 516.782 336.186 511.291C330.918 515.137 326.528 520.06 323.308 525.733C320.088 531.406 318.111 537.698 317.509 544.193C316.907 550.688 317.693 557.237 319.815 563.405C321.937 569.573 325.347 575.219 329.818 579.969C334.289 584.718 339.719 588.462 345.748 590.953C351.777 593.443 358.266 594.623 364.786 594.413C371.305 594.204 377.706 592.611 383.562 589.738C389.419 586.866 394.598 582.782 398.755 577.755C392.271 582.494 384.658 585.452 376.676 586.333C368.693 587.215 360.618 585.99 353.256 582.78V582.78Z" fill="#3F3D56"/>
</svg>
