<svg width="913" height="772" viewBox="0 0 913 772" fill="none" xmlns="http://www.w3.org/2000/svg">
<g clip-path="url(#clip0_1224:1282)">
<path d="M282.76 0.000264064L221.85 22.6914L462.027 667.408L522.937 644.717L282.76 0.000264064Z" fill="#F2F2F2"/>
<path d="M381.598 677.026C310.573 677.026 241.744 652.398 186.841 607.34C131.937 562.281 94.3552 499.58 80.4989 429.919C66.6426 360.257 77.3689 287.947 110.85 225.308C144.332 162.669 198.497 113.577 264.116 86.3962C329.735 59.2159 402.749 55.629 470.717 76.2468C538.684 96.8645 597.4 140.411 636.86 199.467C676.32 258.523 694.082 329.434 687.12 400.118C680.158 470.802 648.903 536.885 598.68 587.108C570.239 615.705 536.408 638.377 499.146 653.811C461.884 669.245 421.931 677.136 381.598 677.026V677.026ZM381.598 65.0257C213.421 65.0257 76.5984 201.848 76.5984 370.026C76.5984 538.203 213.421 675.026 381.598 675.026C549.776 675.026 686.598 538.203 686.598 370.026C686.598 201.848 549.776 65.0257 381.598 65.0257Z" fill="#949EA9"/>
<path d="M851.544 577.124C810.588 620.524 754.069 645.879 694.42 647.61C634.772 649.34 576.878 627.306 533.474 586.354C443.094 501.074 438.964 358.664 524.254 268.284C565.208 224.884 621.725 199.53 681.372 197.799C741.02 196.068 798.912 218.102 842.314 259.054C932.694 344.344 936.824 486.744 851.544 577.124Z" fill="#949EA9"/>
<path d="M121.894 99.8559C121.894 99.8559 73.9301 86.345 59.7437 151.873C45.5573 217.4 56.366 250.502 56.366 250.502L163.44 238.004C163.44 238.004 193.839 119.784 121.894 99.8559Z" fill="#808080"/>
<path d="M28.3613 457.312L50.2288 551.615L54.3289 588.516C54.3289 588.516 51.6663 627.124 66.0501 660.979C66.2402 661.427 66.4333 661.873 66.6294 662.319C81.6632 696.487 80.2965 708.787 80.2965 708.787H98.0638L95.3304 650.018C95.3304 650.018 95.3304 607.65 88.4968 591.25L84.3967 462.778L28.3613 457.312Z" fill="#FFB9B9"/>
<path d="M103.531 476.445L167.767 592.616C167.767 592.616 180.067 641.818 193.734 656.852L225.169 721.088L238.836 695.12L201.935 569.382L167.767 470.979L103.531 476.445Z" fill="#FFB9B9"/>
<path d="M100.797 701.953L77.5625 703.32L76.1958 725.187C76.1958 725.187 33.8276 768.922 62.5286 770.289C91.2296 771.656 95.3298 759.355 95.3298 759.355C95.3298 759.355 111.73 747.055 111.73 741.588C111.73 736.121 108.997 719.72 106.264 715.62C103.53 711.52 100.797 701.953 100.797 701.953Z" fill="#808080"/>
<path d="M238.835 685.553L214.234 706.053C214.234 706.053 233.368 756.622 241.569 755.255C249.769 753.888 316.738 706.053 309.904 697.853C303.071 689.653 293.504 695.12 293.504 695.12C293.504 695.12 263.436 710.154 256.603 703.32L238.835 685.553Z" fill="#808080"/>
<path d="M33.8282 372.574L21.5278 419.043C21.5278 419.043 -8.53997 450.477 2.39378 454.577C13.3275 458.677 21.5278 454.577 22.8945 460.044C24.2613 465.511 66.6294 479.178 83.03 475.078L91.2303 470.978C91.2303 470.978 96.6972 488.745 104.897 487.378C113.098 486.012 178.7 486.012 177.333 481.912C175.967 477.811 166.4 462.778 166.4 458.677C166.4 454.577 159.566 438.177 159.566 438.177C160.309 437.44 160.789 436.48 160.933 435.443C160.933 434.077 158.199 364.374 158.199 364.374L47.4954 358.907L33.8282 372.574Z" fill="#808080"/>
<path d="M111.732 204.469C131.357 204.469 147.266 188.559 147.266 168.934C147.266 149.309 131.357 133.399 111.732 133.399C92.1067 133.399 76.1973 149.309 76.1973 168.934C76.1973 188.559 92.1067 204.469 111.732 204.469Z" fill="#FFB9B9"/>
<path d="M100.114 195.585C100.114 195.585 104.214 220.186 89.1804 227.02L74.1465 233.853L132.915 278.955L153.416 222.919C153.416 222.919 132.915 218.819 134.282 190.118L100.114 195.585Z" fill="#FFB9B9"/>
<path d="M92.596 231.803C92.596 231.803 130.391 240.748 145.661 219.191L180.066 223.603L170.499 334.307C170.499 334.307 171.866 394.442 156.832 395.809C141.798 397.176 147.265 383.509 147.265 383.509C147.265 383.509 140.431 393.076 129.497 393.076C118.564 393.076 96.6962 384.875 96.6962 384.875C96.6962 384.875 65.2617 380.775 55.6947 382.142C46.1277 383.509 5.12624 390.342 44.761 350.707C44.761 350.707 65.2617 337.04 62.5283 332.94C59.7949 328.84 55.6947 311.073 55.6947 311.073L57.0614 234.537L87.3168 227.866L92.596 231.803Z" fill="#BBBBBB"/>
<path d="M42.0279 404.01C42.0279 404.01 74.8291 425.877 81.6626 409.476C88.4962 393.076 51.5949 386.242 51.5949 386.242L37.9277 391.709L42.0279 404.01Z" fill="#FFB9B9"/>
<path d="M145.899 413.576C145.899 413.576 104.898 410.843 111.731 425.877C118.565 440.911 156.833 428.61 156.833 428.61L145.899 413.576Z" fill="#FFB9B9"/>
<path d="M63.8966 237.27L57.063 234.536C57.063 234.536 46.1293 241.37 36.5623 263.237C26.9953 285.105 9.22799 322.006 9.22799 322.006C9.22799 322.006 1.02768 323.373 5.12783 331.573C9.22798 339.773 9.22799 338.406 6.49456 342.507C3.76113 346.607 1.02769 350.707 3.76113 353.44C6.49457 356.174 9.22798 356.174 7.86126 361.641C6.49454 367.108 6.49455 372.574 7.86126 373.941C9.22797 375.308 20.1617 382.141 18.795 386.242C17.4283 390.342 11.9614 391.708 20.1617 391.708C28.362 391.708 31.0954 405.376 31.0954 405.376L47.496 408.109C47.496 408.109 37.929 388.975 58.4298 387.608C58.4298 387.608 52.9629 383.508 52.9629 379.408C52.9629 375.308 57.063 375.308 50.2295 373.941C43.3959 372.574 42.0292 371.208 43.3959 367.108C44.7626 363.007 46.1293 360.274 43.3959 360.274C40.6625 360.274 37.929 364.374 40.6624 360.274C43.3959 356.174 35.1956 347.974 35.1956 347.974C35.1956 347.974 51.5962 305.605 62.5299 301.505C73.4636 297.405 63.8966 237.27 63.8966 237.27Z" fill="#BBBBBB"/>
<path d="M169.134 224.969L180.067 223.603C180.067 223.603 193.735 226.336 197.835 242.737C201.935 259.137 203.302 345.24 203.302 345.24C203.302 345.24 197.835 350.707 200.568 357.541C203.302 364.374 204.668 363.007 201.935 367.108C199.201 371.208 193.735 373.941 193.735 379.408C193.735 384.875 193.735 387.608 191.001 388.975C188.268 390.342 184.168 388.975 184.168 393.075C184.168 397.175 171.867 406.742 173.234 409.476C174.601 412.209 180.067 423.143 160.933 428.61L154.1 435.443C154.1 435.443 145.9 413.576 137.699 413.576C137.699 413.576 144.533 412.209 143.166 406.742C141.799 401.276 147.266 398.542 147.266 398.542L170.5 364.374L174.601 345.24L155.467 306.972L169.134 224.969Z" fill="#BBBBBB"/>
<path d="M125.624 119.925C125.624 119.925 112.113 155.729 79.0118 170.591L73.6074 138.84L125.624 119.925Z" fill="#808080"/>
<path d="M147.948 172.351C150.464 172.351 152.504 169.291 152.504 165.517C152.504 161.743 150.464 158.684 147.948 158.684C145.432 158.684 143.393 161.743 143.393 165.517C143.393 169.291 145.432 172.351 147.948 172.351Z" fill="#FFB9B9"/>
<path d="M912.895 769.704H463.895V771.704H912.895V769.704Z" fill="#BBBBBB"/>
<path d="M912.895 719.704H463.895V721.704H912.895V719.704Z" fill="#BBBBBB"/>
<path d="M851.545 577.123C830.535 599.444 805.175 617.222 777.029 629.361C748.882 641.5 718.547 647.743 687.895 647.703V197.703C745.325 197.623 800.597 219.582 842.315 259.053C932.695 344.343 936.824 486.743 851.545 577.123Z" fill="#DFE5EE"/>
<path d="M800.895 163.704C809.179 163.704 815.895 156.988 815.895 148.704C815.895 140.42 809.179 133.704 800.895 133.704C792.61 133.704 785.895 140.42 785.895 148.704C785.895 156.988 792.61 163.704 800.895 163.704Z" fill="#DFE5EE"/>
<path d="M486.895 674.704C501.806 674.704 513.895 662.616 513.895 647.704C513.895 632.792 501.806 620.704 486.895 620.704C471.983 620.704 459.895 632.792 459.895 647.704C459.895 662.616 471.983 674.704 486.895 674.704Z" fill="#949EA9"/>
<path d="M442.895 254.704C452.283 254.704 459.895 247.093 459.895 237.704C459.895 228.315 452.283 220.704 442.895 220.704C433.506 220.704 425.895 228.315 425.895 237.704C425.895 247.093 433.506 254.704 442.895 254.704Z" fill="#949EA9"/>
<path d="M555.895 515.704C555.895 588.606 687.895 647.704 687.895 647.704V383.704C687.895 383.704 555.895 442.803 555.895 515.704Z" fill="#DFE5EE"/>
<path d="M687.895 383.704V647.704C687.895 647.704 819.895 588.606 819.895 515.704C819.895 442.803 687.895 383.704 687.895 383.704Z" fill="#949EA9"/>
</g>
<defs>
<clipPath id="clip0_1224:1282">
<rect width="912.896" height="771.704" fill="white"/>
</clipPath>
</defs>
</svg>
