<svg width="959" height="555" viewBox="0 0 959 555" fill="none" xmlns="http://www.w3.org/2000/svg">
<g clip-path="url(#clip0_1224:925)">
<path d="M959 399.5H718V401.5H959V399.5Z" fill="#CCCCCC"/>
<path d="M771.744 381.531L778.744 418.531L793.744 422.531L789.744 378.531L771.744 381.531Z" fill="#A0616A"/>
<path d="M855.744 381.531L862.744 418.531L877.744 422.531L873.744 378.531L855.744 381.531Z" fill="#A0616A"/>
<path d="M787.745 411.531C787.745 411.531 771.745 410.531 771.745 415.531C771.745 420.531 763.745 437.531 763.745 437.531C763.745 437.531 757.745 457.531 773.745 455.531C789.745 453.531 799.745 435.531 799.745 435.531L795.745 416.531L787.745 411.531Z" fill="#2F2E41"/>
<path d="M867.883 413.376C867.883 413.376 857.21 406.515 857.973 411.089C858.735 415.663 859.497 427.86 864.834 428.623C870.17 429.385 886.179 433.959 886.941 435.484C887.704 437.008 906 443.107 906 433.197C906 423.286 894.565 415.663 894.565 415.663L881.605 405.752C881.605 405.752 873.219 404.99 871.695 410.327C870.17 415.663 867.883 413.376 867.883 413.376Z" fill="#2F2E41"/>
<path d="M766.5 171.001C766.5 171.001 749.5 146.001 743.5 154.001C737.5 162.001 758.5 177.001 758.5 177.001L766.5 171.001Z" fill="#A0616A"/>
<path d="M772.5 195C771.5 194 753.5 177 753.5 177L766.5 168L781.5 183L772.5 195Z" fill="#808080"/>
<path d="M775 117.5C775 117.5 762 118.5 763 129.5C764 140.5 772.5 177 772.5 177L777.5 187C777.5 187 796 129.5 775 117.5Z" fill="#808080"/>
<path d="M775.999 82.5L779.599 94.5H824.699L825.999 81.5L829.899 94.5H835.699L836.999 81.5L840.899 94.5H846.999L841.264 80.6832C838.599 74.0781 836.575 67.2326 835.217 60.2408C833.428 51.5588 828.699 43.7597 821.828 38.1594C814.956 32.5592 806.364 29.5007 797.499 29.5V29.5C796.968 29.5 796.439 29.5107 795.912 29.5321C770.634 30.557 754.445 57.0285 764.144 80.3945L769.999 94.5H774.799L775.999 82.5Z" fill="#2F2E41"/>
<path d="M775.5 187C775.5 187 744.5 213 753.5 248C762.5 283 765.5 393 765.5 393L796.5 390V252L839.5 334L846.5 393L881.5 387L865.5 315L834.732 223.222L831.5 196.744L775.5 187Z" fill="#2F2E41"/>
<path d="M797 83.5C808.598 83.5 818 74.098 818 62.5C818 50.902 808.598 41.5 797 41.5C785.402 41.5 776 50.902 776 62.5C776 74.098 785.402 83.5 797 83.5Z" fill="#A0616A"/>
<path d="M784.5 77C784.5 77 793.5 110 788.5 114C783.5 118 823.5 101 823.5 101C823.5 101 806.5 82 808.5 74L784.5 77Z" fill="#A0616A"/>
<path d="M821.5 93.9994C821.5 93.9994 805.489 107.772 789.995 108.885C789.995 108.885 769.5 119.999 770.5 120.999C771.5 121.999 774.5 135.999 774.5 135.999C774.5 135.999 779.5 143.721 779.5 159.999C779.5 161.999 772.5 189.999 772.5 189.999L831.5 197.999C831.5 197.999 847.5 145.999 848.5 127.999C849.5 109.999 855.5 90.9994 846.5 89.9994C837.5 88.9994 821.5 93.9994 821.5 93.9994Z" fill="#808080"/>
<path d="M844.5 94.0008C844.5 94.0008 851.5 88.0008 855.5 102.001C859.5 116.001 875.5 160.001 871.5 169.001C867.5 178.001 843.5 218.001 843.5 218.001L831.5 210.001L855.5 165.001L841.5 133.001L844.5 94.0008Z" fill="#808080"/>
<path d="M836.501 209C836.501 209 805.501 228 815.501 232C825.501 236 842.501 215 842.501 215L836.501 209Z" fill="#A0616A"/>
<path d="M774 38.5V59.5H782L785 50.5L785.75 59.5H808L811 50.5L811.75 59.5H821V38.5H774Z" fill="#2F2E41"/>
<path opacity="0.2" d="M774.001 137.5C774.001 137.5 772.001 157.5 775.001 161.5C778.001 165.5 774.001 137.5 774.001 137.5Z" fill="#3F3D56"/>
<path d="M601 486.5H177V488.5H601V486.5Z" fill="#CCCCCC"/>
<path d="M575.21 334.61L452.19 457.63C433.383 476.435 407.876 487 381.28 487C354.684 487 329.177 476.435 310.37 457.63C308.71 455.97 307.11 454.26 305.59 452.5C303.085 449.639 300.751 446.634 298.6 443.5C290.71 432.086 285.313 419.138 282.76 405.5C282.19 402.53 281.76 399.53 281.47 396.5C281.16 393.27 281.003 390.009 281 386.72C280.991 377.519 282.243 368.36 284.72 359.5C285.57 356.45 286.567 353.45 287.71 350.5C292.76 337.482 300.479 325.665 310.37 315.81L364.04 262.14C366.853 259.327 370.667 257.747 374.645 257.747C378.623 257.747 382.437 259.327 385.25 262.14C388.063 264.952 389.643 268.767 389.643 272.745C389.643 276.722 388.063 280.537 385.25 283.35L331.58 337.02C327.525 341.069 323.975 345.595 321.01 350.5C314.424 361.431 310.962 373.958 311 386.72C311.001 389.991 311.225 393.259 311.67 396.5C312.088 399.538 312.709 402.545 313.53 405.5C316.807 417.346 323.133 428.126 331.878 436.763C340.623 445.4 351.481 451.592 363.367 454.721C375.253 457.85 387.752 457.807 399.617 454.596C411.481 451.384 422.295 445.117 430.98 436.42L461.9 405.5L516.9 350.5L554 313.4C565.665 301.702 572.845 286.276 574.284 269.819C575.722 253.362 571.328 236.924 561.87 223.38C559.643 220.115 558.794 216.103 559.508 212.216C560.221 208.329 562.439 204.88 565.68 202.619C568.921 200.358 572.924 199.466 576.818 200.139C580.713 200.811 584.185 202.992 586.48 206.21C599.957 225.536 606.213 248.984 604.153 272.455C602.092 295.926 591.848 317.927 575.21 334.61V334.61Z" fill="#CCCCCC"/>
<path d="M768 100.28C768 101.02 767.99 101.76 767.97 102.5C767.712 115.59 764.882 128.502 759.64 140.5C758.297 143.576 756.795 146.58 755.14 149.5C750.646 157.445 745.092 164.742 738.63 171.19L684.96 224.86C682.146 227.666 678.333 229.24 674.359 229.237C670.385 229.234 666.575 227.655 663.765 224.845C660.955 222.035 659.375 218.224 659.372 214.25C659.369 210.276 660.944 206.464 663.75 203.65L717.42 149.98C717.58 149.82 717.74 149.66 717.89 149.5C730.275 136.929 737.445 120.139 737.96 102.5C737.99 101.76 738 101.02 738 100.28C738 97.9996 737.893 95.7396 737.68 93.4996C736.114 77.2748 728.951 62.1006 717.42 50.5796C716.35 49.5096 715.26 48.4796 714.13 47.4996C701.3 36.2206 684.802 29.9996 667.72 29.9996C650.637 29.9996 634.139 36.2206 621.31 47.4996C620.18 48.4796 619.09 49.5096 618.02 50.5796L495 173.6C481.84 186.792 474.45 204.666 474.45 223.3C474.45 241.934 481.84 259.807 495 273C497.812 275.812 499.393 279.627 499.393 283.605C499.393 287.582 497.812 291.397 495 294.21C492.187 297.022 488.372 298.602 484.395 298.602C480.417 298.602 476.602 297.022 473.79 294.21C455.011 275.388 444.465 249.887 444.465 223.3C444.465 196.712 455.011 171.211 473.79 152.39L596.81 29.3696C607.513 18.6892 620.49 10.5644 634.772 5.60188C649.055 0.639327 664.274 -1.03277 679.293 0.710396C694.312 2.45357 708.744 7.56697 721.51 15.6689C734.277 23.7707 745.048 34.6518 753.02 47.4996C754.836 50.4089 756.495 53.4132 757.99 56.4996C763.615 68.0833 766.936 80.6493 767.77 93.4996C767.92 95.7496 767.996 98.0096 768 100.28Z" fill="#CCCCCC"/>
<path d="M125.315 526.666C120.734 543.601 105.043 554.089 105.043 554.089C105.043 554.089 96.7789 537.12 101.36 520.186C105.941 503.252 121.632 492.764 121.632 492.764C121.632 492.764 129.896 509.732 125.315 526.666Z" fill="#808080"/>
<path d="M83.6412 526.666C88.2223 543.601 103.914 554.089 103.914 554.089C103.914 554.089 112.177 537.12 107.596 520.186C103.015 503.252 87.324 492.764 87.324 492.764C87.324 492.764 79.0601 509.732 83.6412 526.666Z" fill="#808080"/>
<path d="M90.3712 523.026C102.942 535.263 104.477 554.074 104.477 554.074C104.477 554.074 85.6316 553.045 73.0611 540.808C60.4905 528.571 58.9551 509.76 58.9551 509.76C58.9551 509.76 77.8005 510.789 90.3712 523.026Z" fill="#CCCCCC"/>
<path d="M118.585 523.026C106.014 535.263 104.479 554.074 104.479 554.074C104.479 554.074 123.324 553.045 135.895 540.808C148.465 528.571 150.001 509.76 150.001 509.76C150.001 509.76 131.155 510.789 118.585 523.026Z" fill="#CCCCCC"/>
<path d="M683 98.5003C683 99.8436 682.866 101.184 682.6 102.5C681.677 107.017 679.222 111.077 675.651 113.992C672.079 116.908 667.61 118.5 663 118.5C658.39 118.5 653.921 116.908 650.349 113.992C646.778 111.077 644.323 107.017 643.4 102.5C642.798 99.5213 642.876 96.4447 643.63 93.5003C644.843 88.7824 647.736 84.6694 651.767 81.9333C655.797 79.1972 660.687 78.0262 665.52 78.6399C670.352 79.2536 674.795 81.6099 678.013 85.2666C681.232 88.9233 683.005 93.629 683 98.5003V98.5003Z" fill="#CCCCCC"/>
<path d="M388 401.5C388 402.844 387.866 404.184 387.6 405.5C386.677 410.017 384.222 414.077 380.651 416.992C377.079 419.908 372.61 421.5 368 421.5C363.39 421.5 358.921 419.908 355.349 416.992C351.778 414.077 349.323 410.017 348.4 405.5C347.798 402.521 347.876 399.445 348.63 396.5C349.843 391.782 352.736 387.669 356.767 384.933C360.797 382.197 365.687 381.026 370.52 381.64C375.352 382.254 379.795 384.61 383.013 388.267C386.232 391.923 388.005 396.629 388 401.5V401.5Z" fill="#CCCCCC"/>
<path d="M231 552.5H0V554.5H231V552.5Z" fill="#CCCCCC"/>
<path d="M578.68 47.5H621.31C620.18 48.48 619.09 49.51 618.02 50.58L612.1 56.5H569.68L578.68 47.5Z" fill="#808080"/>
<path d="M757.991 56.5H722.711C721.061 54.4284 719.294 52.4519 717.421 50.58C716.351 49.51 715.261 48.48 714.131 47.5H753.021C754.837 50.4093 756.496 53.4136 757.991 56.5V56.5Z" fill="#808080"/>
<path d="M532.68 93.5H575.1L566.1 102.5H523.68L532.68 93.5Z" fill="#808080"/>
<path d="M682.37 93.5C683.124 96.4444 683.202 99.521 682.6 102.5H643.4C642.798 99.521 642.876 96.4444 643.63 93.5H682.37Z" fill="#808080"/>
<path d="M768 100.28C768 101.02 767.99 101.76 767.97 102.5H737.96C737.99 101.76 738 101.02 738 100.28C738 98 737.893 95.74 737.68 93.5H767.77C767.92 95.75 767.996 98.01 768 100.28Z" fill="#808080"/>
<path d="M485.68 140.5H528.1L519.1 149.5H476.68L485.68 140.5Z" fill="#808080"/>
<path d="M759.641 140.5C758.298 143.576 756.796 146.58 755.141 149.5H717.891C720.636 146.716 723.142 143.706 725.381 140.5H759.641Z" fill="#808080"/>
<path d="M321.011 350.5C319.272 353.386 317.745 356.394 316.441 359.5H284.721C285.571 356.45 286.567 353.45 287.711 350.5H321.011Z" fill="#808080"/>
<path d="M559.32 350.5L550.32 359.5H507.9L516.9 350.5H559.32Z" fill="#808080"/>
<path d="M313.531 405.5H282.761C282.191 402.53 281.761 399.53 281.471 396.5H311.671C312.088 399.538 312.71 402.545 313.531 405.5V405.5Z" fill="#808080"/>
<path d="M388 401.5C388 402.843 387.866 404.183 387.6 405.5H348.4C347.798 402.521 347.876 399.444 348.63 396.5H387.37C387.788 398.134 388 399.814 388 401.5Z" fill="#808080"/>
<path d="M513.32 396.5L504.32 405.5H461.9L470.9 396.5H513.32Z" fill="#808080"/>
<path d="M356.44 452.5H305.59C303.085 449.64 300.751 446.635 298.6 443.5H339.84C344.938 447.24 350.523 450.268 356.44 452.5V452.5Z" fill="#808080"/>
<path d="M466.319 443.5L457.319 452.5H406.119C412.036 450.268 417.62 447.24 422.719 443.5H466.319Z" fill="#808080"/>
<path d="M315.595 169.735C307.949 156.817 292.824 156.215 292.824 156.215C292.824 156.215 278.084 154.33 268.629 174.005C259.816 192.343 247.653 210.05 266.671 214.342L270.106 203.651L272.234 215.138C274.941 215.333 277.658 215.38 280.371 215.277C300.737 214.62 320.133 215.47 319.509 208.161C318.678 198.446 322.951 182.165 315.595 169.735Z" fill="#2F2E41"/>
<path d="M260.5 455L261.5 481H279.5L278.5 453L260.5 455Z" fill="#FBBEBE"/>
<path d="M309.5 271L307.68 277.05L284.1 355.38L281.5 364L283.5 456L258.5 459C258.5 459 257.77 449.34 256.7 435.08C254.55 406.84 251.03 360.53 248.99 335.33C248.24 326.01 247.7 319.58 247.5 318C246.5 310 259.5 270 259.5 270L285.5 268L309.5 271Z" fill="#2F2E41"/>
<path d="M266.5 478.001C266.5 478.001 259.5 470.001 258.5 476.001C257.5 482.001 245.5 505.001 245.5 505.001C245.5 505.001 210.5 528.001 240.5 530.001C240.5 530.001 255.5 528.001 260.5 520.001C260.5 520.001 268.5 515.001 270.5 515.001C272.5 515.001 284.5 511.001 282.5 505.001C280.5 499.001 281.5 477.001 281.5 477.001L266.5 478.001Z" fill="#2F2E41"/>
<path d="M265.5 431L274.5 448L288.5 441L279.5 421L265.5 431Z" fill="#FBBEBE"/>
<path opacity="0.2" d="M258.5 382C258.5 382 251.04 365.7 249 340.5C263.48 324.32 281 306.5 281 306.5L302 305.5L308.5 305C310.02 320.2 297.16 339.78 284.1 355.38C276.164 364.809 267.612 373.701 258.5 382V382Z" fill="#3F3D56"/>
<path d="M284.5 306C284.5 306 220.5 362 229.5 385C238.5 408 263.5 436 263.5 436L282.815 424.472L264.5 382C264.5 382 272.178 375.191 281.524 365.102C296.733 348.685 316.358 323.581 314.5 305L313.5 271L296.5 273L284.5 306Z" fill="#2F2E41"/>
<path d="M278.5 444C278.5 444 271.5 444 272.5 450C273.5 456 275.5 466 275.5 466C275.5 466 267.5 513 286.5 502C305.5 491 300.5 462 300.5 462C300.5 462 307.5 444 298.5 442C289.5 440 286.5 438 285.5 439C284.5 440 278.5 444 278.5 444Z" fill="#2F2E41"/>
<path d="M292.5 199C302.441 199 310.5 190.941 310.5 181C310.5 171.059 302.441 163 292.5 163C282.559 163 274.5 171.059 274.5 181C274.5 190.941 282.559 199 292.5 199Z" fill="#FBBEBE"/>
<path d="M285.5 188C285.5 188 293.5 209 290.5 210C287.5 211 281.5 216 281.5 216L291.5 225L317.5 211C317.5 211 305.5 195 306.5 188H285.5Z" fill="#FBBEBE"/>
<path d="M317.499 207C317.499 207 296.575 217.315 289.037 210.657C289.037 210.657 276.499 210 274.499 217C272.499 224 276.499 230 271.499 232C266.499 234 262.999 239.5 265.999 248.5C268.999 257.5 268.499 259 264.499 262C260.499 265 256.499 271 256.499 273C256.499 275 252.499 275 254.499 277C256.499 279 252.499 277 256.499 279C260.499 281 271.499 263 279.499 272C287.499 281 312.499 296 314.499 287C316.499 278 322.499 256 322.499 256C322.499 256 343.499 217 337.499 213C331.499 209 317.499 207 317.499 207Z" fill="#E6E6E6"/>
<path d="M314.5 277.001C314.5 277.001 303.5 275.001 300.5 282.001C297.5 289.001 280.5 305.001 291.5 306.001C302.5 307.001 310.5 289.001 310.5 289.001L321.5 287.001L314.5 277.001Z" fill="#FBBEBE"/>
<path d="M325.5 213L338.578 213.728C338.578 213.728 344.5 220 345.5 226C346.5 232 365.5 277 353.5 282C341.5 287 315.5 290 315.5 290L312.5 276L329.5 270L317.5 245L325.5 213Z" fill="#E6E6E6"/>
<path opacity="0.2" d="M266 382.5L282.449 423.623L263 382.5L280 364.5L266 382.5Z" fill="#3F3D56"/>
<path opacity="0.2" d="M256.143 427.766L263 436.5H258L256.143 427.766Z" fill="#3F3D56"/>
<path d="M294.673 167.215C300.713 167.215 305.61 162.319 305.61 156.279C305.61 150.238 300.713 145.342 294.673 145.342C288.633 145.342 283.736 150.238 283.736 156.279C283.736 162.319 288.633 167.215 294.673 167.215Z" fill="#2F2E41"/>
<path d="M282.586 153.402C282.587 150.701 283.586 148.095 285.393 146.087C287.2 144.079 289.686 142.811 292.372 142.526C291.99 142.486 291.605 142.465 291.221 142.465C289.784 142.463 288.36 142.745 287.032 143.294C285.704 143.843 284.497 144.649 283.48 145.664C282.464 146.68 281.657 147.886 281.107 149.214C280.557 150.541 280.273 151.965 280.273 153.402C280.273 154.839 280.557 156.262 281.107 157.589C281.657 158.917 282.464 160.123 283.48 161.139C284.497 162.155 285.704 162.96 287.032 163.509C288.36 164.058 289.784 164.34 291.221 164.338C291.605 164.338 291.99 164.317 292.372 164.277C289.686 163.993 287.2 162.724 285.393 160.716C283.586 158.708 282.587 156.103 282.586 153.402V153.402Z" fill="#2F2E41"/>
<path d="M312.213 168.489L297.269 160.662L276.633 163.864L272.363 182.721L282.992 182.312L285.961 175.384V182.198L290.865 182.009L293.711 170.98L295.49 182.721L312.924 182.365L312.213 168.489Z" fill="#2F2E41"/>
</g>
<defs>
<clipPath id="clip0_1224:925">
<rect width="959" height="554.5" fill="white"/>
</clipPath>
</defs>
</svg>
