<svg width="795" height="610" viewBox="0 0 795 610" fill="none" xmlns="http://www.w3.org/2000/svg">
<path d="M576.346 605.145V416.798" stroke="#BBBBBB" stroke-width="2" stroke-miterlimit="10"/>
<path d="M229.207 607.999V513.825" stroke="#BBBBBB" stroke-width="2" stroke-miterlimit="10"/>
<path d="M229.207 527.143C236.56 527.143 242.521 521.18 242.521 513.825C242.521 506.47 236.56 500.508 229.207 500.508C221.853 500.508 215.892 506.47 215.892 513.825C215.892 521.18 221.853 527.143 229.207 527.143Z" fill="#BBBBBB"/>
<path d="M229.207 571.866C229.207 571.866 231.109 530.948 270.103 535.704Z" fill="#BBBBBB"/>
<path d="M513.575 607.047V512.874" stroke="#BBBBBB" stroke-width="2" stroke-miterlimit="10"/>
<path d="M513.576 526.191C520.929 526.191 526.891 520.229 526.891 512.874C526.891 505.519 520.929 499.557 513.576 499.557C506.222 499.557 500.261 505.519 500.261 512.874C500.261 520.229 506.222 526.191 513.576 526.191Z" fill="#BBBBBB"/>
<path d="M513.576 570.914C513.576 570.914 511.673 529.996 472.68 534.752Z" fill="#BBBBBB"/>
<path d="M699.033 607.047V512.874" stroke="#BBBBBB" stroke-width="2" stroke-miterlimit="10"/>
<path d="M699.034 526.191C706.387 526.191 712.349 520.229 712.349 512.874C712.349 505.519 706.387 499.557 699.034 499.557C691.68 499.557 685.719 505.519 685.719 512.874C685.719 520.229 691.68 526.191 699.034 526.191Z" fill="#BBBBBB"/>
<path d="M699.034 570.914C699.034 570.914 697.131 529.996 658.138 534.752Z" fill="#BBBBBB"/>
<path d="M184.507 605.145V416.798" stroke="#BBBBBB" stroke-width="2" stroke-miterlimit="10"/>
<path d="M184.506 430.115C191.86 430.115 197.821 424.153 197.821 416.798C197.821 409.443 191.86 403.48 184.506 403.48C177.153 403.48 171.191 409.443 171.191 416.798C171.191 424.153 177.153 430.115 184.506 430.115Z" fill="#BBBBBB"/>
<path d="M143.611 535.704C150.964 535.704 156.926 529.742 156.926 522.387C156.926 515.032 150.964 509.069 143.611 509.069C136.257 509.069 130.296 515.032 130.296 522.387C130.296 529.742 136.257 535.704 143.611 535.704Z" fill="#BBBBBB"/>
<path d="M184.507 471.034C184.507 471.034 182.605 430.116 143.611 434.872Z" fill="#BBBBBB"/>
<path d="M184.507 601.484C184.507 601.484 193.067 526.191 143.611 522.386" stroke="#BBBBBB" stroke-width="2" stroke-miterlimit="10"/>
<path d="M576.346 430.115C583.7 430.115 589.661 424.153 589.661 416.798C589.661 409.443 583.7 403.48 576.346 403.48C568.993 403.48 563.031 409.443 563.031 416.798C563.031 424.153 568.993 430.115 576.346 430.115Z" fill="#BBBBBB"/>
<path d="M576.346 471.034C576.346 471.034 578.248 430.116 617.242 434.872Z" fill="#BBBBBB"/>
<path d="M576.346 601.484C576.346 601.484 567.787 526.191 617.242 522.386" stroke="#BBBBBB" stroke-width="2" stroke-miterlimit="10"/>
<path d="M617.242 535.704C624.595 535.704 630.557 529.742 630.557 522.387C630.557 515.032 624.595 509.069 617.242 509.069C609.888 509.069 603.927 515.032 603.927 522.387C603.927 529.742 609.888 535.704 617.242 535.704Z" fill="#BBBBBB"/>
<path d="M562.175 389.707L491.488 374.604L476.389 445.304L547.075 460.406L562.175 389.707Z" fill="white"/>
<path d="M478.355 355.715C478.355 355.715 504.318 374.264 495.663 381.683C487.009 389.103 469.7 359.425 469.7 359.425L478.355 355.715Z" fill="#FFB9B9"/>
<path d="M358.43 384.155C358.43 384.155 363.375 445.984 364.611 454.64C365.848 463.296 367.084 541.201 369.557 549.857C372.029 558.513 374.502 579.535 374.502 579.535H389.338C389.338 579.535 388.102 541.201 391.811 526.362C395.52 511.523 394.284 470.716 394.284 470.716C394.284 470.716 401.702 397.758 397.993 387.865C394.284 377.972 358.43 384.155 358.43 384.155Z" fill="#FFB9B9"/>
<path d="M378.21 575.826C378.21 575.826 372.029 579.536 372.029 582.009C372.029 584.482 373.265 590.665 372.029 593.138C370.792 595.611 362.138 605.504 367.083 607.977C372.029 610.45 394.283 607.977 394.283 607.977C394.283 607.977 393.047 590.665 391.81 589.429C390.574 588.192 393.047 575.826 393.047 575.826H378.21Z" fill="#2F2E41"/>
<path d="M452.94 382.641C452.94 382.641 454.511 444.647 454.19 453.385C453.869 462.123 460.815 539.727 459.265 548.595C457.714 557.463 457.461 578.628 457.461 578.628L442.707 580.186C442.707 580.186 439.913 541.934 434.668 527.566C429.422 513.199 426.369 472.487 426.369 472.487C426.369 472.487 411.335 400.711 413.985 390.483C416.636 380.256 452.94 382.641 452.94 382.641Z" fill="#FFB9B9"/>
<path d="M453.383 575.328C453.383 575.328 459.92 578.368 460.18 580.828C460.439 583.287 459.858 589.566 461.348 591.896C462.837 594.225 472.481 603.155 467.823 606.133C463.164 609.112 440.774 608.989 440.774 608.989C440.774 608.989 440.186 591.643 441.286 590.283C442.386 588.924 438.629 576.886 438.629 576.886L453.383 575.328Z" fill="#2F2E41"/>
<path d="M375.738 291.412C375.738 291.412 365.848 292.649 362.139 313.671C358.43 334.692 344.83 387.865 355.957 391.575C367.084 395.285 400.465 402.704 401.702 400.231C402.938 397.758 405.411 391.575 405.411 391.575C405.411 391.575 401.702 402.704 406.647 402.704C411.593 402.704 459.81 395.285 458.574 391.575C457.337 387.865 454.865 360.661 454.865 360.661C454.865 360.661 447.447 314.907 440.028 307.488C437.882 305.426 436.215 302.917 435.147 300.139C434.078 297.361 433.634 294.381 433.847 291.412H375.738Z" fill="#2F2E41"/>
<path d="M357.193 281.52C357.193 281.52 373.266 277.81 375.739 282.757C378.211 287.703 369.557 295.122 365.848 295.122C362.139 295.122 355.957 291.413 355.957 291.413L357.193 281.52Z" fill="#FFB9B9"/>
<path d="M390.575 176.41C402.865 176.41 412.829 166.445 412.829 154.152C412.829 141.859 402.865 131.894 390.575 131.894C378.284 131.894 368.32 141.859 368.32 154.152C368.32 166.445 378.284 176.41 390.575 176.41Z" fill="#FFB9B9"/>
<path d="M394.283 170.228C394.283 170.228 397.992 187.54 395.52 187.54C393.047 187.54 414.065 198.669 414.065 198.669L430.137 196.196L435.083 188.776C435.083 188.776 409.119 171.464 409.119 161.572C409.119 151.679 394.283 170.228 394.283 170.228Z" fill="#FFB9B9"/>
<path d="M405.411 187.54C405.411 187.54 401.702 185.066 400.465 185.066H390.575C389.338 185.066 373.266 188.776 373.266 188.776L363.375 244.422C363.375 244.422 380.684 272.864 368.32 295.122C368.32 295.122 372.029 292.649 389.338 293.885C406.647 295.122 437.556 298.832 438.792 298.832C440.028 298.832 440.028 288.939 438.792 286.466C437.556 283.993 440.028 285.229 440.028 279.046C440.028 272.864 443.737 261.734 443.737 261.734L461.046 198.669C461.046 198.669 438.792 186.303 435.083 187.54C431.374 188.776 420.247 192.486 417.774 191.249C415.302 190.013 405.411 187.54 405.411 187.54Z" fill="#808080"/>
<path d="M376.974 190.013L373.265 188.777C373.265 188.777 365.847 187.54 357.193 194.959C348.538 202.379 316.393 224.637 316.393 224.637C316.393 224.637 304.03 234.53 307.739 245.659C311.448 256.788 317.63 283.993 336.175 282.757C336.175 282.757 347.302 297.596 353.484 295.122C359.666 292.649 364.611 282.757 360.902 281.52C357.193 280.283 347.302 267.918 347.302 267.918L359.666 244.423H363.375L376.974 237.003V190.013Z" fill="#808080"/>
<path d="M451.155 197.433L461.046 198.669C461.046 198.669 469.7 202.379 468.464 218.454C467.227 234.53 475.882 307.488 472.173 316.144C472.173 316.144 484.536 358.188 482.063 359.425C479.591 360.661 464.755 368.081 465.991 363.134C467.227 358.188 452.391 323.564 452.391 323.564C452.391 323.564 435.082 305.015 442.5 279.047V258.025L451.155 197.433Z" fill="#808080"/>
<path d="M376.357 183.212L392.429 182.555V174.555L393.7 182.503L419.629 181.445V177.029L420.331 181.416L436.938 180.738L427.047 148.232C427.047 141.439 424.349 134.924 419.546 130.121C414.744 125.318 408.23 122.619 401.439 122.619H395.165C384.777 122.619 367.702 129.542 367.702 139.931C376.57 155.73 388.994 172.345 376.357 183.212Z" fill="#2F2E41"/>
<path d="M265.347 17.9824H193.066V90.2771H265.347V17.9824Z" stroke="#808080" stroke-width="2" stroke-miterlimit="10"/>
<path d="M775.118 17.0312H523.086V136.888H775.118V17.0312Z" fill="white"/>
<path d="M793.189 1.81152H541.156V121.669H793.189V1.81152Z" stroke="#808080" stroke-width="2" stroke-miterlimit="10"/>
<path d="M252.032 220.598H0V340.455H252.032V220.598Z" fill="white"/>
<path d="M270.103 205.378H18.0703V325.235H270.103V205.378Z" stroke="#808080" stroke-width="2" stroke-miterlimit="10"/>
</svg>
