<svg width="716" height="697" viewBox="0 0 716 697" fill="none" xmlns="http://www.w3.org/2000/svg">
<g clip-path="url(#clip0)">
<path d="M80.1572 616.159C80.1572 616.159 79.6099 604.691 68.3901 606.024L80.1572 616.159Z" fill="#4E4E54"/>
<path d="M83.3269 605.246C80.2256 605.246 77.7114 602.732 77.7114 599.63C77.7114 596.529 80.2256 594.015 83.3269 594.015C86.4282 594.015 88.9424 596.529 88.9424 599.63C88.9424 602.732 86.4282 605.246 83.3269 605.246Z" fill="#D3D3D3"/>
<path d="M82.6561 609.087H84.2412V620.183H82.6561V609.087Z" fill="#4E4E54"/>
<path d="M461.384 279.006C461.384 281.814 461.475 284.599 461.657 287.361C462.678 303.287 466.701 318.876 473.515 333.307C473.568 333.43 473.63 333.545 473.683 333.659C474 334.328 474.326 334.997 474.66 335.658C476.687 339.739 478.935 343.706 481.395 347.542C492.631 365.152 508.031 379.723 526.235 389.967C544.439 400.212 564.886 405.814 585.77 406.28L584.51 478.682L568.092 470.037L565.16 475.609L584.387 485.733L582.037 620.201L582.01 621.996L594.705 624.823L594.679 623.018L590.682 406.289C607.491 406.048 624.085 402.47 639.5 395.763C654.915 389.056 668.844 379.353 680.478 367.219C681.279 366.391 682.071 365.537 682.846 364.692C682.881 364.657 682.908 364.622 682.934 364.595C692.628 354.024 700.467 341.892 706.123 328.711C705.999 328.852 705.867 328.984 705.744 329.125C718.525 299.237 719.392 265.592 708.167 235.085C696.942 204.578 674.475 179.519 645.37 165.043C644.929 164.823 644.48 164.611 644.04 164.391C615.25 150.523 582.3 147.979 551.722 157.262C521.144 166.545 495.17 186.978 478.948 214.51C478.173 215.813 477.424 217.143 476.702 218.481C466.625 237.061 461.359 257.869 461.384 279.006Z" fill="#808080"/>
<path d="M478.521 333.728C386.366 333.728 311.659 259.021 311.659 166.864C311.659 74.7076 386.366 0 478.521 0C570.676 0 645.383 74.7076 645.383 166.864C645.383 259.021 570.676 333.728 478.521 333.728Z" fill="#D3D3D3"/>
<path opacity="0.2" d="M601.727 55.4121C637.955 140.157 598.625 238.225 513.882 274.453C481.73 288.198 446.073 291.496 411.946 283.882C377.819 276.267 346.945 258.125 323.686 232.016C359.91 316.763 457.975 356.099 542.721 319.874C627.467 283.65 666.802 185.583 630.578 100.836C623.481 84.2335 613.738 68.8928 601.727 55.4121Z" fill="black"/>
<path d="M469.492 631.715L486.536 626.935L486.501 625.103L481.395 347.542L481.14 333.702L481.131 333.297L480.242 284.807L478.947 214.518V214.51L478.067 166.864H477.601L476.703 218.48L475.532 285.661L474.695 333.333V333.685L474.66 335.648V335.657L473.04 428.579L472.873 437.814L469.528 629.866L469.492 631.715Z" fill="#4E4E54"/>
<path d="M451.525 417.25L479.107 431.772L475.263 439.074L447.681 424.552L451.525 417.25Z" fill="#4E4E54"/>
<path d="M481.79 665.307H560.469V667.067H481.79V665.307Z" fill="#343434"/>
<path d="M337.413 695.239H416.092V697H337.413V695.239Z" fill="#343434"/>
<path d="M112.923 672.35H191.602V674.11H112.923V672.35Z" fill="#343434"/>
<path d="M148.858 600.708V549.494C148.858 549.494 128.9 585.803 148.858 600.708Z" fill="#808080"/>
<path d="M147.626 600.7L185.353 566.065C185.353 566.065 145.109 575.917 147.626 600.7Z" fill="#808080"/>
<path d="M538.855 613.034V561.819C538.855 561.819 518.897 598.128 538.855 613.034Z" fill="#808080"/>
<path d="M537.623 613.025L575.35 578.391C575.35 578.391 535.106 588.242 537.623 613.025Z" fill="#808080"/>
<path d="M403.281 650.009V586.323C403.281 586.323 378.463 631.474 403.281 650.009Z" fill="#808080"/>
<path d="M401.748 649.998L448.662 606.93C448.662 606.93 398.618 619.18 401.748 649.998Z" fill="#808080"/>
<path d="M-0.000305176 642.218L0.483887 643.917L148.234 601.836L259.537 626.372L401.881 650.688L402.075 650.635L469.492 631.716L486.536 626.935L538.591 612.321L582.01 621.996L594.705 624.822L622.304 630.976L622.683 629.259L594.679 623.018L582.037 620.2L538.538 610.508L538.327 610.56L486.501 625.104L469.527 629.867L401.793 648.883L259.88 624.646L148.181 600.022L147.961 600.075L-0.000305176 642.218Z" fill="#343434"/>
<path d="M264.333 106.909L253.069 97.8996C261.82 96.9342 265.415 101.707 266.887 105.484C273.723 102.645 281.165 106.366 281.165 106.366L258.628 114.547C259.765 111.511 261.744 108.861 264.333 106.909Z" fill="#4E4E54"/>
<path d="M678.1 103.387L666.836 94.3781C675.586 93.4127 679.182 98.1851 680.653 101.962C687.49 99.1238 694.932 102.844 694.932 102.844L672.395 111.026C673.531 107.989 675.511 105.339 678.1 103.387Z" fill="#4E4E54"/>
<path d="M288.984 275.059L277.72 266.05C286.47 265.085 290.066 269.857 291.537 273.634C298.373 270.796 305.815 274.516 305.815 274.516L283.278 282.698C284.415 279.661 286.394 277.011 288.984 275.059Z" fill="#4E4E54"/>
<path d="M365.482 662.544L356.873 665.743L340.44 634.058L353.146 629.338L365.482 662.544Z" fill="#FFB7B7"/>
<path d="M366.634 658.917L349.679 665.216L349.679 665.216C346.813 666.281 344.488 668.441 343.215 671.22C341.942 673.999 341.824 677.17 342.889 680.036L343.019 680.387L370.778 670.073L366.634 658.917Z" fill="#343437"/>
<path d="M280.76 671.484L271.576 671.483L267.207 636.059L280.762 636.059L280.76 671.484Z" fill="#FFB7B7"/>
<path d="M282.354 668.485L264.268 668.484H264.267C261.21 668.485 258.279 669.699 256.117 671.86C253.956 674.022 252.741 676.954 252.741 680.011V680.385L282.354 680.386L282.354 668.485Z" fill="#343437"/>
<path d="M322.807 425.801L319.811 419.808L294.341 432.543L295.09 437.787L290.221 444.154C290.221 444.154 281.981 448.649 283.479 463.631L284.977 477.865L286.85 496.218L273.74 541.54L266.998 601.47L262.129 649.788L285.726 648.664L307.45 570.007L345.655 654.657L371.874 647.915L335.917 564.014L331.422 528.805C331.422 528.805 334.418 510.077 320.185 497.342L322.433 490.6V482.292L329.924 442.656L322.807 425.801Z" fill="#343437"/>
<path opacity="0.2" d="M323.507 511.456L324.354 511.695L307.874 570.127L307.027 569.888L323.507 511.456Z" fill="black"/>
<path d="M322.058 499.964H285.352V496.218H322.058V499.964Z" fill="#4E4E54"/>
<path d="M285.352 502.211C284.525 502.211 283.854 500.534 283.854 498.465C283.854 496.397 284.525 494.72 285.352 494.72C286.18 494.72 286.851 496.397 286.851 498.465C286.851 500.534 286.18 502.211 285.352 502.211Z" fill="#4E4E54"/>
<path d="M284.384 408.169C279.095 398.492 282.651 386.36 292.327 381.07C302.004 375.78 314.136 379.336 319.426 389.013C324.716 398.69 321.16 410.822 311.483 416.112C301.806 421.402 289.674 417.846 284.384 408.169Z" fill="#FFB7B7"/>
<path d="M332.461 391.463C322.705 391.463 314.796 383.554 314.796 373.798C314.796 364.042 322.705 356.133 332.461 356.133C342.217 356.133 350.126 364.042 350.126 373.798C350.126 383.554 342.217 391.463 332.461 391.463Z" fill="#343437"/>
<path d="M354.878 371.905C355.575 374.246 355.779 376.706 355.477 379.129C355.175 381.552 354.374 383.887 353.125 385.985C351.875 388.083 350.204 389.9 348.217 391.319C346.23 392.739 343.971 393.732 341.581 394.234C339.191 394.736 336.723 394.738 334.332 394.238C331.942 393.739 329.681 392.749 327.693 391.331C325.704 389.914 324.031 388.1 322.779 386.003C321.527 383.906 320.723 381.573 320.418 379.15C321.684 383.399 324.501 387.018 328.311 389.286C332.121 391.555 336.645 392.308 340.984 391.396C345.323 390.483 349.161 387.973 351.735 384.362C354.309 380.751 355.431 376.305 354.878 371.905Z" fill="#343437"/>
<path d="M285.09 393.048C284.572 397.614 285.574 402.224 287.941 406.163C290.309 410.101 293.909 413.15 298.184 414.835C302.46 416.52 307.171 416.748 311.589 415.484C316.008 414.219 319.885 411.533 322.622 407.841C325.358 404.149 326.801 399.657 326.726 395.062C326.651 390.467 325.062 386.026 322.207 382.425C319.351 378.824 315.387 376.266 310.93 375.147C306.473 374.027 301.771 374.409 297.553 376.233C294.065 373.42 289.74 374.292 286.224 377.261C282.247 380.618 281.067 382.924 277.984 388.445C281.016 388.871 282.058 392.622 285.09 393.048Z" fill="#343437"/>
<path d="M358.489 453.098C358.266 459.016 357.823 470.664 357.823 471.258C357.823 471.885 348.992 490.169 345.177 498.038V498.042C344.906 498.596 344.663 499.099 344.447 499.542C344.152 500.153 343.688 500.666 343.11 501.021C342.533 501.376 341.865 501.558 341.187 501.545L324.516 501.246C323.599 501.23 322.724 500.861 322.074 500.216C321.423 499.57 321.047 498.698 321.024 497.782L319.164 424.435C319.158 424.193 319.201 423.952 319.289 423.727C319.377 423.502 319.51 423.296 319.678 423.123C319.847 422.95 320.049 422.812 320.272 422.718C320.495 422.624 320.734 422.575 320.976 422.575H342.476C343.384 422.576 344.274 422.832 345.043 423.315C345.812 423.797 346.43 424.487 346.825 425.305L357.144 446.653C358.112 448.659 358.574 450.872 358.489 453.098V453.098Z" fill="#D3D3D3"/>
<path d="M320.734 492.749C316.456 490.157 312.612 486.908 309.343 483.122C301.747 474.578 297.127 463.801 296.177 452.408C295.329 442.66 297.264 435.414 301.926 430.871C307.852 425.097 315.918 425.936 316.259 425.975L316.62 426.016L322.085 430.64L320.538 432.468L315.649 428.33C314.152 428.255 308.041 428.239 303.577 432.605C299.468 436.624 297.781 443.217 298.562 452.2C299.466 463.048 303.854 473.312 311.07 481.461C314.183 485.062 317.833 488.162 321.89 490.652L320.734 492.749Z" fill="#D3D3D3"/>
<path d="M351.757 464.883L351.918 465.665L322.788 471.648L322.627 470.866L351.757 464.883Z" fill="#4E4E54"/>
<path d="M332.558 422.559L334.45 468.911L333.653 468.944L331.761 422.592L332.558 422.559Z" fill="#4E4E54"/>
<path d="M358.489 453.098C358.266 459.016 357.823 470.664 357.823 471.259C357.823 471.885 348.992 490.169 345.177 498.038L352.288 456.75C352.563 455.161 353.255 453.674 354.294 452.441C355.332 451.207 356.679 450.272 358.198 449.73C358.437 450.836 358.535 451.968 358.489 453.098Z" fill="#4E4E54"/>
<path d="M314.801 539.628C315.431 538.817 315.875 537.877 316.102 536.876C316.329 535.874 316.334 534.835 316.117 533.832C315.899 532.828 315.463 531.884 314.842 531.067C314.22 530.25 313.426 529.579 312.517 529.102L313.962 513.115L304.461 509.867L302.737 532.473C302.037 534.053 301.94 535.836 302.466 537.483C302.992 539.13 304.104 540.527 305.591 541.409C307.078 542.291 308.837 542.597 310.535 542.269C312.232 541.94 313.75 541.001 314.801 539.628Z" fill="#FFB7B7"/>
<path d="M321.02 443.14C321.206 440.712 320.578 438.292 319.235 436.261C317.893 434.229 315.912 432.703 313.606 431.922C311.572 431.251 309.377 431.253 307.344 431.928C305.17 432.669 303.283 434.074 301.951 435.946C300.618 437.818 299.908 440.061 299.92 442.359L299.208 523.548L316.043 524.159L321.02 443.14Z" fill="#343434"/>
</g>
<defs>
<clipPath id="clip0">
<rect width="716" height="697" fill="white" transform="matrix(-1 0 0 1 716 0)"/>
</clipPath>
</defs>
</svg>
