<svg width="554" height="367" viewBox="0 0 554 367" fill="none" xmlns="http://www.w3.org/2000/svg">
<path d="M4.6538 189.677C4.6538 189.677 -27.7455 240.374 78.4657 241.245C78.4657 241.245 80.0278 197.133 45.3082 178.96C38.557 175.41 30.7405 174.464 23.3395 176.3C15.9384 178.137 9.46677 182.628 5.15054 188.924L4.6538 189.677Z" fill="#D3D3D3"/>
<path d="M4.89453 188.826C4.89453 188.826 59.2943 199.563 78.4646 241.245" stroke="#535461" stroke-miterlimit="10"/>
<path d="M83.2102 234.423C83.2102 234.423 48.2815 189.212 51.4711 144.642C52.7783 125.938 48.3926 107.254 38.2617 91.4767C33.4411 84.0063 27.9474 76.9939 21.8496 70.5273" stroke="#535461" stroke-width="2" stroke-miterlimit="10"/>
<path d="M23.6811 42.4366C26.119 48.6952 21.8771 71.2747 21.8771 71.2747C21.8771 71.2747 3.49113 57.5332 1.05318 51.2746C0.410354 49.7743 0.0754729 48.1598 0.0684715 46.5272C0.0614701 44.8946 0.38249 43.2773 1.01242 41.7715C1.64235 40.2658 2.56832 38.9023 3.73519 37.7624C4.90206 36.6225 6.28598 35.7294 7.80458 35.1363C9.32318 34.5431 10.9454 34.2621 12.5747 34.3099C14.2039 34.3577 15.807 34.7334 17.2883 35.4145C18.7696 36.0957 20.099 37.0684 21.1972 38.2747C22.2955 39.4811 23.1402 40.8965 23.6811 42.4366V42.4366Z" fill="#D3D3D3"/>
<path d="M55.9026 69.7879C54.5562 76.3739 38.7389 93.0155 38.7389 93.0155C38.7389 93.0155 30.7518 71.477 32.0982 64.8648C32.3843 63.2665 32.9868 61.7416 33.8702 60.3801C34.7536 59.0185 35.9002 57.8479 37.2423 56.937C38.5844 56.0261 40.0949 55.3934 41.6848 55.0762C43.2748 54.759 44.9121 54.7638 46.5002 55.0901C48.0883 55.4165 49.5951 56.0578 50.932 56.9765C52.2688 57.8951 53.4086 59.0724 54.2842 60.439C55.1598 61.8056 55.7535 63.3339 56.0303 64.9339C56.3071 66.5339 56.2615 68.1732 55.8961 69.7552L55.9026 69.7879Z" fill="#D3D3D3"/>
<path d="M78.179 129.363C73.6952 134.364 51.6621 140.734 51.6621 140.734C51.6621 140.734 55.623 118.103 60.1002 113.101C62.2662 110.75 65.2696 109.347 68.4602 109.197C71.6509 109.047 74.7722 110.161 77.1487 112.299C79.5252 114.437 80.9657 117.426 81.1585 120.619C81.3513 123.813 80.2809 126.954 78.179 129.363V129.363Z" fill="#D3D3D3"/>
<path d="M84.8965 178.246C81.3213 183.935 60.6738 193.958 60.6738 193.958C60.6738 193.958 60.7588 170.986 64.334 165.297C65.1669 163.909 66.2679 162.702 67.5725 161.745C68.8771 160.789 70.359 160.103 71.9316 159.728C73.5042 159.353 75.1357 159.295 76.7306 159.56C78.3256 159.824 79.8518 160.404 81.22 161.267C82.5882 162.129 83.7708 163.256 84.6985 164.582C85.6262 165.908 86.2804 167.407 86.6228 168.989C86.9652 170.572 86.9889 172.207 86.6925 173.798C86.396 175.39 85.7855 176.907 84.8965 178.259V178.246Z" fill="#D3D3D3"/>
<path d="M15.4313 103.517C21.6144 106.135 44.2619 102.482 44.2619 102.482C44.2619 102.482 31.0721 83.6804 24.889 81.0617C23.417 80.4397 21.837 80.1142 20.2394 80.1038C18.6418 80.0934 17.0577 80.3982 15.5777 81.001C14.0977 81.6037 12.7508 82.4925 11.6137 83.6167C10.4766 84.7408 9.57179 86.0783 8.95079 87.5527C8.32979 89.0272 8.00481 90.6097 7.9944 92.2099C7.98399 93.8101 8.28837 95.3967 8.89014 96.8791C9.49191 98.3615 10.3793 99.7107 11.5016 100.85C12.624 101.988 13.9593 102.895 15.4313 103.517V103.517Z" fill="#D3D3D3"/>
<path d="M24.0341 160.584C30.714 161.239 51.2307 150.954 51.2307 150.954C51.2307 150.954 33.0147 136.997 26.3348 136.355C24.7241 136.158 23.0905 136.287 21.5302 136.733C19.9699 137.179 18.5146 137.934 17.2502 138.952C15.9858 139.971 14.9379 141.233 14.1684 142.664C13.3988 144.095 12.9231 145.665 12.7695 147.283C12.6158 148.901 12.7872 150.534 13.2736 152.084C13.76 153.635 14.5515 155.072 15.6015 156.311C16.6514 157.55 17.9385 158.566 19.3868 159.299C20.8352 160.032 22.4153 160.466 24.0341 160.578V160.584Z" fill="#D3D3D3"/>
<path d="M39.9743 214.895C46.4516 216.656 68.4062 210.005 68.4062 210.005C68.4062 210.005 52.8046 193.16 46.3274 191.406C44.7768 190.953 43.1517 190.815 41.5471 190.999C39.9425 191.183 38.3906 191.685 36.9821 192.477C35.5736 193.268 34.3368 194.333 33.344 195.609C32.3512 196.885 31.6224 198.346 31.2001 199.908C30.7778 201.469 30.6705 203.099 30.8845 204.703C31.0985 206.306 31.6295 207.851 32.4465 209.246C33.2634 210.642 34.35 211.86 35.6425 212.83C36.9351 213.8 38.4077 214.502 39.9743 214.895V214.895Z" fill="#D3D3D3"/>
<path opacity="0.25" d="M23.6811 42.4366C26.119 48.6952 21.8771 71.2747 21.8771 71.2747C21.8771 71.2747 3.49113 57.5332 1.05318 51.2746C0.410354 49.7743 0.0754729 48.1598 0.0684715 46.5272C0.0614701 44.8946 0.38249 43.2773 1.01242 41.7715C1.64235 40.2658 2.56832 38.9023 3.73519 37.7624C4.90206 36.6225 6.28598 35.7294 7.80458 35.1363C9.32318 34.5431 10.9454 34.2621 12.5747 34.3099C14.2039 34.3577 15.807 34.7334 17.2883 35.4145C18.7696 36.0957 20.099 37.0684 21.1972 38.2747C22.2955 39.4811 23.1402 40.8965 23.6811 42.4366V42.4366Z" fill="#4F4949"/>
<path opacity="0.25" d="M55.9026 69.7879C54.5562 76.3739 38.7389 93.0155 38.7389 93.0155C38.7389 93.0155 30.7518 71.477 32.0982 64.8648C32.3843 63.2665 32.9868 61.7416 33.8702 60.3801C34.7536 59.0185 35.9002 57.8479 37.2423 56.937C38.5844 56.0261 40.0949 55.3934 41.6848 55.0762C43.2748 54.759 44.9121 54.7638 46.5002 55.0901C48.0883 55.4165 49.5951 56.0578 50.932 56.9765C52.2688 57.8951 53.4086 59.0724 54.2842 60.439C55.1598 61.8056 55.7535 63.3339 56.0303 64.9339C56.3071 66.5339 56.2615 68.1732 55.8961 69.7552L55.9026 69.7879Z" fill="#4F4949"/>
<path opacity="0.25" d="M78.179 129.363C73.6952 134.364 51.6621 140.734 51.6621 140.734C51.6621 140.734 55.623 118.103 60.1002 113.101C62.2662 110.75 65.2696 109.347 68.4602 109.197C71.6509 109.047 74.7722 110.161 77.1487 112.299C79.5252 114.437 80.9657 117.426 81.1585 120.619C81.3513 123.813 80.2809 126.954 78.179 129.363V129.363Z" fill="#4F4949"/>
<path opacity="0.25" d="M84.8965 178.246C81.3213 183.935 60.6738 193.958 60.6738 193.958C60.6738 193.958 60.7588 170.986 64.334 165.297C65.1669 163.909 66.2679 162.702 67.5725 161.745C68.8771 160.789 70.359 160.103 71.9316 159.728C73.5042 159.353 75.1357 159.295 76.7306 159.56C78.3256 159.824 79.8518 160.404 81.22 161.267C82.5882 162.129 83.7708 163.256 84.6985 164.582C85.6262 165.908 86.2804 167.407 86.6228 168.989C86.9652 170.572 86.9889 172.207 86.6925 173.798C86.396 175.39 85.7855 176.907 84.8965 178.259V178.246Z" fill="#4F4949"/>
<path opacity="0.25" d="M15.4313 103.517C21.6144 106.135 44.2619 102.482 44.2619 102.482C44.2619 102.482 31.0721 83.6804 24.889 81.0617C23.417 80.4397 21.837 80.1142 20.2394 80.1038C18.6418 80.0934 17.0577 80.3982 15.5777 81.001C14.0977 81.6037 12.7508 82.4925 11.6137 83.6167C10.4766 84.7408 9.57179 86.0783 8.95079 87.5527C8.32979 89.0272 8.00481 90.6097 7.9944 92.2099C7.98399 93.8101 8.28837 95.3967 8.89014 96.8791C9.49191 98.3615 10.3793 99.7107 11.5016 100.85C12.624 101.988 13.9593 102.895 15.4313 103.517V103.517Z" fill="#4F4949"/>
<path opacity="0.25" d="M24.0341 160.584C30.714 161.239 51.2307 150.954 51.2307 150.954C51.2307 150.954 33.0147 136.997 26.3348 136.355C24.7241 136.158 23.0905 136.287 21.5302 136.733C19.9699 137.179 18.5146 137.934 17.2502 138.952C15.9858 139.971 14.9379 141.233 14.1684 142.664C13.3988 144.095 12.9231 145.665 12.7695 147.283C12.6158 148.901 12.7872 150.534 13.2736 152.084C13.76 153.635 14.5515 155.072 15.6015 156.311C16.6514 157.55 17.9385 158.566 19.3868 159.299C20.8352 160.032 22.4153 160.466 24.0341 160.578V160.584Z" fill="#4F4949"/>
<path opacity="0.25" d="M39.9743 214.895C46.4516 216.656 68.4062 210.005 68.4062 210.005C68.4062 210.005 52.8046 193.16 46.3274 191.406C44.7768 190.953 43.1517 190.815 41.5471 190.999C39.9425 191.183 38.3906 191.685 36.9821 192.477C35.5736 193.268 34.3368 194.333 33.344 195.609C32.3512 196.885 31.6224 198.346 31.2001 199.908C30.7778 201.469 30.6705 203.099 30.8845 204.703C31.0985 206.306 31.6295 207.851 32.4465 209.246C33.2634 210.642 34.35 211.86 35.6425 212.83C36.9351 213.8 38.4077 214.502 39.9743 214.895V214.895Z" fill="#4F4949"/>
<path opacity="0.1" d="M302.947 147.621C290.528 147.346 277.188 147.968 267.318 152.858C249.017 161.906 251.482 180.256 239.547 192.989C229.468 203.739 210.206 209.323 191.526 212.885C161.094 218.691 129.179 220.865 98.9558 227.104C81.1385 230.783 63.4518 236.132 51.2425 245.284C39.0331 254.436 33.5559 268.086 41.8109 278.914C49.4451 288.924 66.2624 294.279 81.5764 299.464C96.8904 304.649 113.113 311.451 117.374 322.26C119.747 328.276 117.982 334.764 120.754 340.702C126.218 352.42 146.682 357.952 165.068 360.944C179.755 363.333 194.683 365.095 209.729 366.181C221.749 367.065 234.043 367.53 245.841 365.808C256.057 364.315 265.514 361.225 275.312 358.849C337.562 343.667 409.158 356.8 472.649 343.942C484.205 341.618 495.571 338.345 504.329 332.99C510.866 329.009 515.702 324.034 519.774 318.875C530.14 305.782 535.82 291.098 536.258 276.374C536.52 267.549 534.951 258.633 537.363 249.939C539.892 240.891 546.644 232.57 550.239 223.674C556.775 207.503 552.2 189.631 537.971 175.641C532.892 170.484 526.665 166.608 519.8 164.328C514.049 162.482 507.617 161.775 501.284 161.055C483.636 159.136 465.76 157.212 447.956 158.292C435.289 159.064 422.89 161.349 410.184 161.762C392.354 162.344 378.386 158.227 362.222 154.357C343.627 149.945 322.705 148.053 302.947 147.621Z" fill="white"/>
<path d="M78.5234 13.7877V188.891L311.129 143.634L306.685 9.33594L78.5234 13.7877Z" fill="#D3D3D3"/>
<path d="M515.767 220.243V278.115L269.828 350.089L267.318 348.786L72.7852 247.693V8.40576L313.535 0.615234L315.018 133.427L305.384 136.4L301.678 12.1766L89.8182 19.5351L88.341 199.464L272.789 280.341L272.933 280.308L515.767 220.243Z" fill="#D3D3D3"/>
<path opacity="0.1" d="M515.767 220.244V278.117L269.828 350.091L267.318 348.788L272.933 280.31L515.767 220.244Z" fill="#4F4949"/>
<path d="M219.272 136.21C219.272 136.21 100.197 148.112 88.635 165.349C77.0727 182.587 88.537 203.732 88.537 203.732L272.619 283.864L522.258 219.313C522.258 219.313 515.591 174.05 494.852 168.858C474.113 163.667 308.901 128.053 308.901 128.053C308.901 128.053 242.233 123.968 219.272 136.21Z" fill="#EBECF0"/>
<path d="M88.5254 165.514L276.313 230.437C276.313 230.437 476.611 169.606 504.984 175.334C504.984 175.334 364.87 125.102 308.902 127.288C264.3 129.03 217.6 136.362 217.6 136.362C217.6 136.362 93.715 148.827 88.5254 165.514Z" fill="#F8F9FA"/>
<path d="M377.452 207.281L377.497 207.215V207.176L377.53 207.111V207.065V206.999V206.954V206.882V206.836V206.751V206.711C377.53 206.672 377.53 206.633 377.53 206.593C377.53 206.548 377.53 206.502 377.53 206.456C377.53 206.41 377.53 206.456 377.53 206.41C377.53 206.364 377.53 206.345 377.53 206.312V206.253V206.155V206.089V205.991V205.926V205.821V205.755V205.644V205.585L377.478 205.422L377.412 205.238V205.179L377.36 205.048V204.976L377.308 204.852L377.275 204.773L377.223 204.649L377.184 204.564L377.125 204.44L377.086 204.361L377.014 204.224L376.974 204.152L376.876 203.962L376.759 203.739L376.72 203.667L376.635 203.51L376.589 203.425L376.504 203.281L376.452 203.189L376.367 203.045L376.223 202.829L376.131 202.685L376.072 202.593L375.974 202.436L375.922 202.351L375.791 202.142V202.102L375.628 201.854L375.576 201.782L375.458 201.605L375.393 201.513L375.282 201.356L375.216 201.258L375.105 201.101L375.033 200.996L374.916 200.865L374.844 200.767L374.719 200.597L374.654 200.512L374.491 200.289V200.256L374.301 199.994L374.236 199.903L374.112 199.733L374.027 199.621L373.909 199.464L373.824 199.353L373.706 199.196L373.621 199.091L373.497 198.927L373.412 198.823L373.282 198.652L373.203 198.554L373.046 198.358L372.994 198.292C372.406 197.546 371.798 196.8 371.19 196.08C369.476 194.038 367.376 192.356 365.012 191.128C362.648 189.9 360.065 189.151 357.412 188.924C356.869 188.878 356.301 188.819 355.726 188.747H355.484L355.059 188.688H354.856L354.203 188.597L353.582 188.499L353.366 188.459L352.928 188.381L352.667 188.328L352.268 188.25L351.987 188.191L351.608 188.106L351.32 188.04L350.941 187.949L350.647 187.877L350.275 187.778L349.98 187.7L349.608 187.595C347.647 184.675 344.667 182.076 341.765 181.572C340.965 181.448 340.148 181.49 339.366 181.697L339.229 181.546L339.033 181.323L338.771 180.989L338.601 180.767L338.327 180.381L338.189 180.191C338.054 179.994 337.926 179.794 337.804 179.589C337.418 179.417 337.015 179.287 336.601 179.202C342.385 178.325 348.088 176.978 353.654 175.176C353.924 175.074 354.18 174.94 354.418 174.777L354.536 174.737C359.379 172.97 365.327 155.752 361.144 153.343C356.961 150.934 350.575 131.084 346.83 120.917C343.085 110.75 332.294 109.67 332.294 109.67C332.294 109.67 316.66 97.5392 309.614 98.8616C302.568 100.184 301.463 89.5981 300.803 89.1594C300.726 89.0956 300.662 89.0179 300.614 88.9303C298.914 86.2658 285.404 82.711 278.116 80.9565C270.992 75.7846 262.495 71.7715 255.626 70.1152C253.331 69.4933 250.924 69.4119 248.592 69.8776C246.261 70.3433 244.069 71.3433 242.188 72.7993C227.756 73.5326 225.455 84.4524 225.455 84.4524C225.406 85.9425 225.664 87.4268 226.213 88.8125C225.434 88.823 224.654 88.7815 223.88 88.6881C225.553 85.9188 225.606 82.3574 226.854 79.3132C229.318 73.2903 236.116 70.1807 242.541 69.3689C246.286 68.8975 250.384 68.8975 253.338 66.5473C254.859 65.3301 255.897 63.6104 256.266 61.6962C256.386 61.2829 256.349 60.8397 256.162 60.4523C255.979 60.2011 255.733 60.0024 255.449 59.8762C251.58 57.8075 246.92 58.3443 242.527 58.2461C235.39 58.089 228.436 56.1315 221.534 54.3181C218.612 53.5521 215.455 52.8124 212.631 53.8991C209.965 54.9204 208.148 57.3557 206.01 59.2477C197.252 66.9859 182.709 65.8664 174.918 74.5866C173.114 76.6095 171.761 79.3525 172.422 81.9843C172.69 83.0579 173.284 84.0465 173.474 85.1398C173.853 87.3002 172.624 89.3689 171.585 91.3002C170.546 93.2315 169.624 95.5752 170.605 97.5392C172.088 100.538 176.618 100.315 178.971 102.691C180.062 103.798 180.592 105.382 181.729 106.436C183.552 108.119 186.356 107.988 188.827 107.745C189.801 107.654 191.258 107.385 191.794 106.528C193.705 108.328 196.008 109.66 198.52 110.417C201.032 111.175 203.686 111.338 206.271 110.894C208.857 110.449 211.305 109.41 213.421 107.857C215.538 106.304 217.265 104.28 218.468 101.945C223.792 101.585 229.084 103.018 233.501 106.017C234.167 107.982 235.388 109.711 237.018 110.993C238.56 112.204 240.397 113.69 242.246 115.281C237.56 116.518 233.397 117.31 233.397 117.31C233.397 117.31 214.899 123.268 214.899 127.235C214.965 127.953 215.188 128.649 215.553 129.271C215.085 130.257 214.82 131.328 214.775 132.42C209.671 131.556 205.586 130.253 203.474 128.335C203.474 128.335 202.873 128.171 201.945 127.988C200.703 126.397 197.056 121.978 194.886 122.155C193.442 122.272 192.925 125.637 192.742 128.649C192.552 128.813 192.385 129.003 192.245 129.212C190.043 132.518 194.01 139.137 196.651 140.243C199.291 141.349 213.828 140.898 223.736 148.184C228.128 151.412 235.678 152.034 242.691 151.732C235.638 156.721 225.762 164.387 224.39 169.14C223.651 171.66 222.782 174.79 222.834 178.004C218.52 183.719 211.991 195.785 228.135 201.572C241.442 206.332 277.522 205.723 303.228 204.557C315.189 206.672 325.065 208.8 329.209 210.836C329.209 210.836 339.117 212.145 343.085 214.587C347.052 217.029 354.314 216.355 354.314 216.355C354.314 216.355 368.406 218.783 371.491 221.867C374.576 224.95 379.857 216.571 373.255 212.603C370.68 211.058 366.844 208.512 363.124 205.723C367.902 206.286 372.118 206.901 374.798 207.53L375.066 207.589H375.151H375.321H375.419H375.563H375.654H375.791H376.445H376.615H376.667H376.772H376.831H376.916H376.968H377.046H377.099L377.171 207.556H377.216L377.282 207.51H377.314L377.399 207.438L377.452 207.281ZM316.62 186.135C316.62 186.135 314.764 185.71 311.993 185.055L306.489 182.829C306.489 182.829 315.882 179.87 324.581 176.106C327.072 177.199 329.261 178.07 329.81 178.862C330.047 179.124 330.369 179.294 330.719 179.34C327.451 180.152 323.254 182.24 318.333 187.058C317.736 186.802 317.163 186.493 316.62 186.135V186.135ZM250.122 132.976L255.554 130.449C256.737 131.457 258.005 132.413 259.247 133.343C256.266 133.52 252.26 133.716 247.73 133.84C249.116 133.376 250.122 132.976 250.122 132.976Z" fill="url(#paint0_linear)"/>
<path d="M203.84 128.761C203.84 128.761 199.095 122.306 196.513 122.502C193.931 122.699 194.356 133.514 194.356 133.514L203.84 128.761Z" fill="#FFD5D8"/>
<path d="M264.848 133.08C264.848 133.08 214.403 137.185 204.919 128.543C204.919 128.543 196.082 126.167 193.925 129.407C191.768 132.648 195.651 139.123 198.239 140.203C200.827 141.283 215.056 140.858 224.756 147.974C234.455 155.09 259.894 149.283 259.894 149.283L270.456 145.178L264.848 133.08Z" fill="#4F4949"/>
<path opacity="0.05" d="M264.848 133.08C264.848 133.08 214.403 137.185 204.919 128.543C204.919 128.543 196.082 126.167 193.925 129.407C191.768 132.648 195.651 139.123 198.239 140.203C200.827 141.283 215.056 140.858 224.756 147.974C234.455 155.09 259.894 149.283 259.894 149.283L270.456 145.178L264.848 133.08Z" fill="#4F4949"/>
<path d="M337.066 157.264C337.066 157.264 326.288 149.493 304.085 159.228C281.882 168.963 226.482 174.128 226.482 174.128C226.482 174.128 207.946 192.695 229.096 200.256C250.247 207.817 329.981 201.565 329.981 201.565C329.981 201.565 362.53 203.726 372.661 206.102C378.792 207.542 373.968 200.59 369.164 194.881C367.487 192.881 365.432 191.233 363.117 190.031C360.802 188.829 358.272 188.096 355.674 187.876C349.308 187.333 340.478 185.33 336.438 178.678C336.438 178.678 328.68 174.789 317.039 186.449L305.81 181.879C305.81 181.879 336.634 172.164 337.713 165.683C338.791 159.202 337.066 157.264 337.066 157.264Z" fill="#FFD5D8"/>
<path opacity="0.05" d="M337.066 157.264C337.066 157.264 326.288 149.493 304.085 159.228C281.882 168.963 226.482 174.128 226.482 174.128C226.482 174.128 207.946 192.695 229.096 200.256C250.247 207.817 329.981 201.565 329.981 201.565C329.981 201.565 362.53 203.726 372.661 206.102C378.034 207.359 374.981 202.174 370.936 197.055C368.918 194.483 366.412 192.337 363.563 190.739C360.714 189.141 357.577 188.124 354.334 187.745C348.125 187.038 340.203 184.871 336.445 178.678C336.445 178.678 328.686 174.789 317.046 186.449L305.81 181.879C305.81 181.879 336.634 172.164 337.713 165.683C338.791 159.202 337.066 157.264 337.066 157.264Z" fill="#4F4949"/>
<path d="M337.281 126.607C337.281 126.607 323.699 105.003 291.58 123.798L250.403 146.711C250.403 146.711 227.527 161.18 225.396 168.518C223.265 175.857 220.004 188.381 242.429 193.134C264.854 197.887 317.019 203.929 328.012 209.33C328.012 209.33 337.712 210.64 341.594 213.003C345.477 215.366 352.588 214.731 352.588 214.731C352.588 214.731 366.386 217.108 369.405 220.132C372.425 223.157 377.595 214.947 371.131 211.065C364.667 207.183 350.006 196.813 350.216 192.734C350.425 188.656 345.255 181.448 340.274 180.571C335.294 179.693 328.849 187.045 328.849 187.045C328.849 187.045 320.659 188.355 315.699 185.081C315.699 185.081 290.26 179.248 287.672 177.527C285.084 175.805 267.41 169.108 267.41 169.108C267.41 169.108 309.241 168.675 321.516 157.448C321.516 157.448 326.261 153.991 330.137 155.071C330.169 155.104 349.353 147.765 337.281 126.607Z" fill="#FFD5D8"/>
<path d="M215.049 86.0103C215.049 86.0103 227.337 94.6453 236.821 86.0103C246.305 77.3752 240.925 112.57 240.925 112.57C240.925 112.57 227.775 95.0774 208.16 106.527L215.049 86.0103Z" fill="#FFD5D8"/>
<path opacity="0.05" d="M215.049 86.0103C215.049 86.0103 227.337 94.6453 236.821 86.0103C246.305 77.3752 240.925 112.57 240.925 112.57C240.925 112.57 227.775 95.0774 208.16 106.527L215.049 86.0103Z" fill="#4F4949"/>
<path d="M162.454 160.072C162.454 160.072 175.389 149.061 182.716 148.845C184.899 148.779 187.422 146.554 189.906 143.464C193.043 139.56 197.181 136.583 201.878 134.854C206.574 133.124 211.651 132.706 216.566 133.644C220.736 134.416 225.867 134.396 232.096 132.851C254.73 127.234 243.521 113.211 243.521 113.211L236.41 107.169C236.41 107.169 226.71 100.478 223.044 100.91C219.377 101.342 209.893 111.058 208.815 109.977C207.736 108.897 194.586 99.1819 192.429 96.5894C190.272 93.9969 173.016 85.5779 177.33 83.2015C181.644 80.825 203.409 71.974 199.095 70.2456C194.782 68.5173 171.5 65.9248 162.448 76.7203C153.395 87.5157 157.918 153.807 162.454 160.072Z" fill="#F8F9FA"/>
<path opacity="0.05" d="M162.454 160.072C162.454 160.072 175.389 149.061 182.716 148.845C184.899 148.779 187.422 146.554 189.906 143.464C193.043 139.56 197.181 136.583 201.878 134.854C206.574 133.124 211.651 132.706 216.566 133.644C220.736 134.416 225.867 134.396 232.096 132.851C254.73 127.234 243.521 113.211 243.521 113.211L236.41 107.169C236.41 107.169 226.71 100.478 223.044 100.91C219.377 101.342 209.893 111.058 208.815 109.977C207.736 108.897 194.586 99.1819 192.429 96.5894C190.272 93.9969 173.016 85.5779 177.33 83.2015C181.644 80.825 203.409 71.974 199.095 70.2456C194.782 68.5173 171.5 65.9248 162.448 76.7203C153.395 87.5157 157.918 153.807 162.454 160.072Z" fill="#4F4949"/>
<path d="M163.318 158.562C163.318 158.562 176.252 147.55 183.579 147.334C185.762 147.269 188.285 145.043 190.769 141.953C193.903 138.053 198.035 135.079 202.725 133.349C207.415 131.618 212.486 131.196 217.397 132.126C221.567 132.899 226.698 132.879 232.927 131.334C255.561 125.717 244.352 111.694 244.352 111.694L237.24 105.652C237.24 105.652 227.541 98.961 223.874 99.3931C220.207 99.8252 210.724 109.54 209.645 108.46C208.567 107.38 195.416 97.6648 193.259 95.0723C191.102 92.4798 173.88 84.0674 178.181 81.7171C182.481 79.3669 204.266 70.4896 199.952 68.7613C195.638 67.0329 172.357 64.4405 163.304 75.2359C154.252 86.0314 158.788 152.297 163.318 158.562Z" fill="#F8F9FA"/>
<path d="M226.475 85.579C226.475 85.579 229.926 69.1665 255.148 75.6477C280.371 82.1289 292.875 96.1584 292.875 96.1584L269.998 106.738L241.972 97.2386C241.972 97.2386 226.266 97.4285 226.475 85.579Z" fill="#FFD5D8"/>
<path opacity="0.05" d="M272.614 81.4738C272.614 81.4738 296.869 86.7112 299.157 90.3184C299.205 90.4039 299.269 90.4794 299.346 90.5409C300 90.973 301.072 101.336 307.967 100.04C314.863 98.7439 330.19 110.62 330.19 110.62C330.19 110.62 340.752 111.7 344.419 121.631C348.086 131.562 354.334 150.999 358.432 153.369C362.53 155.739 356.707 172.584 351.968 174.319C347.229 176.053 330.196 180.152 328.687 177.991C327.177 175.831 314.026 173.454 314.889 166.548C315.752 159.641 320.922 153.16 316.85 149.055C312.778 144.95 310.17 134.155 304.131 131.994C298.091 129.834 287.313 129.186 280.849 133.507C274.385 137.827 266.574 138.017 266.574 138.017C266.574 138.017 253.208 130.246 251.051 124.845C249.6 121.206 242.371 115.117 237.809 111.536C236.613 110.596 235.637 109.406 234.947 108.049C234.257 106.693 233.871 105.202 233.815 103.68C233.626 98.3511 233.456 90.4951 234.018 89.2251C234.881 87.2611 246.737 75.6211 246.737 75.6211L272.614 81.4738Z" fill="#4F4949"/>
<path d="M273.475 81.0609C273.475 81.0609 297.731 86.2982 300.018 89.9055C300.067 89.991 300.131 90.0665 300.208 90.128C300.862 90.5601 301.933 100.923 308.829 99.6272C315.725 98.331 331.052 110.207 331.052 110.207C331.052 110.207 341.614 111.287 345.281 121.218C348.947 131.149 355.196 150.587 359.294 152.956C363.392 155.326 357.568 172.171 352.83 173.906C348.091 175.641 331.058 179.739 329.548 177.578C328.039 175.418 314.888 173.042 315.751 166.135C316.613 159.228 321.783 152.747 317.711 148.642C313.64 144.537 311.032 133.742 304.992 131.582C298.953 129.421 288.175 128.773 281.711 133.094C275.247 137.415 266.73 138.167 266.73 138.167C266.73 138.167 254.122 129.853 251.965 124.459C250.514 120.819 243.285 114.73 238.723 111.149C237.527 110.209 236.551 109.019 235.861 107.663C235.171 106.306 234.785 104.815 234.73 103.293C234.54 97.9644 234.37 90.1084 234.932 88.8383C235.795 86.8743 247.651 75.2344 247.651 75.2344L273.475 81.0609Z" fill="#4F4949"/>
<path d="M217.637 127.896C217.421 128.113 213.755 133.514 218.068 136.532C219.262 137.408 220.641 137.998 222.098 138.256C223.556 138.513 225.053 138.432 226.474 138.018L217.637 127.896Z" fill="#FFD5D8"/>
<path opacity="0.1" d="M238.312 80.8255C238.312 80.8255 244.135 69.1658 256.613 72.1904C269.09 75.215 287.221 86.2264 291.535 97.2379C295.849 108.249 275.195 121.65 275.195 121.65L250.619 133.094C250.619 133.094 243.077 136.119 240.92 135.058C238.763 133.997 228.416 143.254 228.416 143.254C228.416 143.254 216.775 132.027 216.775 128.138C216.775 124.249 234.887 118.377 234.887 118.377C234.887 118.377 256.456 114.272 256.227 110.174C256.227 110.174 259.894 105.853 257.953 104.557C256.011 103.261 235.207 97.107 235.207 97.107C235.207 97.107 234.455 83.4179 238.312 80.8255Z" fill="#4F4949"/>
<path d="M237.659 80.177C237.659 80.177 243.482 68.5174 255.96 71.542C268.437 74.5665 286.568 85.578 290.882 96.5895C295.196 107.601 274.548 120.995 274.548 120.995L249.973 132.439C249.973 132.439 242.43 135.464 240.273 134.403C238.116 133.342 227.77 142.599 227.77 142.599C227.77 142.599 216.129 131.372 216.129 127.483C216.129 123.595 234.24 117.722 234.24 117.722C234.24 117.722 255.809 113.617 255.581 109.519C255.581 109.519 259.247 105.198 257.306 103.902C255.365 102.606 234.561 96.452 234.561 96.452C234.561 96.452 233.809 82.7695 237.659 80.177Z" fill="#4F4949"/>
<path opacity="0.1" d="M210.096 104.361C213.592 102.228 217.529 100.922 221.606 100.544C222.789 98.2595 219.684 95.7718 219.684 93.0222C219.684 90.7177 218.808 89.8405 217.959 87.8372C214.874 86.7177 216.991 83.8438 216.991 83.8438L210.096 104.361Z" fill="#4F4949"/>
<path d="M204.92 111.706C214.089 111.706 221.522 104.261 221.522 95.0778C221.522 85.8941 214.089 78.4492 204.92 78.4492C195.751 78.4492 188.318 85.8941 188.318 95.0778C188.318 104.261 195.751 111.706 204.92 111.706Z" fill="#FFD5D8"/>
<path d="M192.474 101.9C196.18 99.0325 201.004 98.0702 205.671 97.6512C208.586 97.3893 211.553 97.2977 214.351 96.4073C215.96 95.8453 217.52 95.1535 219.017 94.3386C221.017 93.3173 223.083 92.2437 224.449 90.4564C226.58 87.6676 226.514 83.805 227.848 80.5513C230.259 74.6593 236.913 71.6086 243.227 70.8164C246.894 70.3516 250.9 70.3516 253.802 68.0537C255.291 66.8632 256.309 65.1807 256.672 63.3074C256.788 62.9025 256.751 62.4688 256.567 62.0897C256.387 61.844 256.146 61.6499 255.868 61.5267C252.077 59.5038 247.515 60.0275 243.221 59.9293C236.233 59.7788 229.423 57.854 222.665 56.0799C219.802 55.327 216.71 54.6069 213.952 55.6675C211.338 56.6691 209.566 59.0521 207.468 60.9048C198.893 68.4858 184.657 67.386 177.03 75.9228C175.265 77.8868 173.938 80.5906 174.585 83.1634C174.853 84.2175 175.428 85.1798 175.618 86.2535C175.99 88.368 174.788 90.3975 173.768 92.283C172.749 94.1684 171.86 96.4728 172.807 98.391C174.265 101.324 178.69 101.108 180.997 103.432C182.069 104.512 182.579 106.051 183.697 107.098C185.487 108.748 188.226 108.617 190.644 108.407C191.952 108.283 194.089 107.851 193.716 106.096C193.403 104.525 191.331 103.851 192.474 101.9Z" fill="#85596B"/>
<path d="M186.678 111.832C186.678 111.832 197.998 103.321 205.109 106.11C212.221 108.899 214.162 110.431 218.691 108.729C223.221 107.027 225.156 112.185 225.156 112.185L196.946 120.343L186.678 111.832Z" fill="#F8F9FA"/>
<path opacity="0.05" d="M171.402 126.711C171.402 126.711 176.579 113.323 182.827 110.73Z" fill="#4F4949"/>
<path opacity="0.05" d="M164.715 122.391C164.715 122.391 169.891 109.003 176.14 106.41Z" fill="#4F4949"/>
<path opacity="0.05" d="M285.869 125.632C285.869 125.632 304.17 116.781 316.478 117.645C328.785 118.509 330.922 110.738 330.922 110.738" fill="#4F4949"/>
<path d="M206.696 346.62C205.173 345.199 203.742 343.523 203.298 341.487C202.853 339.451 203.722 337.003 205.67 336.25C207.847 335.412 210.18 336.904 211.945 338.456C213.71 340.008 215.736 341.729 218.043 341.402C216.855 340.322 215.966 338.953 215.463 337.427C214.96 335.901 214.86 334.271 215.174 332.695C215.275 332.044 215.55 331.433 215.971 330.927C217.18 329.618 219.376 330.188 220.821 331.209C225.396 334.482 226.703 340.721 226.736 346.364C227.2 344.328 226.808 342.207 226.821 340.119C226.834 338.031 227.403 335.72 229.161 334.594C230.256 334.004 231.487 333.715 232.729 333.756C234.801 333.677 237.109 333.886 238.52 335.405C240.279 337.291 239.828 340.453 238.292 342.528C236.756 344.603 234.435 345.906 232.298 347.34C230.582 348.364 229.119 349.763 228.017 351.432C227.886 351.665 227.779 351.91 227.697 352.165H214.723C211.81 350.688 209.11 348.822 206.696 346.62V346.62Z" fill="#D3D3D3"/>
<path d="M506.396 288.257C505.385 287.431 504.649 286.317 504.285 285.062C504.01 283.792 504.553 282.273 505.762 281.789C507.115 281.272 508.566 282.208 509.684 283.164C510.801 284.119 512.037 285.2 513.474 284.997C512.735 284.326 512.182 283.474 511.87 282.525C511.557 281.576 511.495 280.562 511.69 279.582C511.753 279.178 511.925 278.797 512.187 278.483C512.939 277.677 514.305 278.024 515.207 278.659C518.069 280.676 518.867 284.551 518.886 288.08C519.174 286.817 518.932 285.494 518.939 284.198C518.945 282.902 519.298 281.461 520.396 280.767C521.078 280.399 521.845 280.219 522.618 280.244C523.926 280.198 525.337 280.329 526.22 281.272C527.311 282.443 527.03 284.407 526.076 285.697C525.122 286.987 523.677 287.799 522.35 288.689C521.284 289.327 520.375 290.197 519.69 291.236C519.61 291.379 519.545 291.531 519.494 291.687H511.383C509.574 290.774 507.896 289.62 506.396 288.257Z" fill="#D3D3D3"/>
<defs>
<linearGradient id="paint0_linear" x1="273.959" y1="222.535" x2="273.959" y2="53.3492" gradientUnits="userSpaceOnUse">
<stop stop-color="#808080" stop-opacity="0.25"/>
<stop offset="0.54" stop-color="#808080" stop-opacity="0.12"/>
<stop offset="1" stop-color="#808080" stop-opacity="0.1"/>
</linearGradient>
</defs>
</svg>
