<svg width="691" height="547" viewBox="0 0 691 547" fill="none" xmlns="http://www.w3.org/2000/svg">
<g clip-path="url(#clip0)">
<path opacity="0.1" d="M642.946 368.721C615.939 388.819 613.612 428.296 618.253 461.684C619.809 472.859 621.763 484.767 617.05 495.013C611.286 507.543 596.985 513.959 583.318 515.707C558.409 518.888 532.212 509.389 515.114 490.967C500.336 475.045 492.492 453.566 477.27 438.07C451.779 412.139 411.471 408.335 375.307 411.589C349.719 413.887 321.254 418.188 300.593 402.888C286.057 392.119 279.024 373.625 277.325 355.595C276.515 346.888 276.671 337.755 272.75 329.958C270.403 325.323 266.743 321.487 262.861 318.037C227.409 286.541 172.709 283.339 139.041 249.951C116.302 227.398 106.89 193.964 107.407 161.918C107.923 129.873 117.335 98.6777 127.669 68.3012C134.996 46.7365 144.911 41.62 163.5 28.5005C183.115 14.6281 206.96 18.8382 229 28.5011C251.04 38.1639 276.562 62.7261 291 81.9995C309.046 106.091 318.515 105.735 344.66 120.616C362.497 130.783 383.327 133.539 403.321 137.984C436.74 145.401 468.812 157.853 500.597 170.586C531.029 182.77 561.585 195.385 588.736 213.794C607.952 226.802 621.364 244.564 638.874 259.202C650.286 268.74 664.051 274.259 674.326 285.245C686.98 298.777 696.49 318.914 687.398 336.963C678.771 354.109 657.273 358.05 642.946 368.721Z" fill="#3785BA"/>
<path d="M349.569 118.717C350.313 118.717 350.915 118.113 350.915 117.368C350.915 116.623 350.313 116.02 349.569 116.02C348.825 116.02 348.223 116.623 348.223 117.368C348.223 118.113 348.825 118.717 349.569 118.717Z" fill="#F8F9FA"/>
<path d="M353.163 118.717C353.906 118.717 354.509 118.113 354.509 117.368C354.509 116.623 353.906 116.02 353.163 116.02C352.419 116.02 351.816 116.623 351.816 117.368C351.816 118.113 352.419 118.717 353.163 118.717Z" fill="#F8F9FA"/>
<path d="M356.764 118.717C357.508 118.717 358.111 118.113 358.111 117.368C358.111 116.623 357.508 116.02 356.764 116.02C356.021 116.02 355.418 116.623 355.418 117.368C355.418 118.113 356.021 118.717 356.764 118.717Z" fill="#F8F9FA"/>
<path d="M4.6538 369.677C4.6538 369.677 -27.7455 420.374 78.4657 421.245C78.4657 421.245 80.0278 377.133 45.3082 358.96C38.557 355.41 30.7405 354.464 23.3395 356.3C15.9384 358.137 9.46677 362.628 5.15054 368.924L4.6538 369.677Z" fill="#3785BA"/>
<path d="M4.89551 368.826C4.89551 368.826 59.2952 379.563 78.4655 421.245" stroke="#535461" stroke-miterlimit="10"/>
<path d="M83.2112 414.423C83.2112 414.423 48.2825 369.212 51.4721 324.642C52.7793 305.938 48.3936 287.254 38.2627 271.477C33.442 264.006 27.9484 256.994 21.8506 250.527" stroke="#535461" stroke-width="2" stroke-miterlimit="10"/>
<path d="M23.6801 222.437C26.118 228.695 21.8761 251.275 21.8761 251.275C21.8761 251.275 3.49015 237.533 1.0522 231.275C0.409378 229.774 0.0744963 228.16 0.0674949 226.527C0.0604935 224.895 0.381513 223.277 1.01144 221.772C1.64137 220.266 2.56734 218.902 3.73421 217.762C4.90108 216.623 6.28501 215.729 7.8036 215.136C9.3222 214.543 10.9444 214.262 12.5737 214.31C14.203 214.358 15.806 214.733 17.2873 215.415C18.7686 216.096 20.098 217.068 21.1963 218.275C22.2945 219.481 23.1392 220.896 23.6801 222.437V222.437Z" fill="#3785BA"/>
<path d="M55.9026 249.788C54.5562 256.374 38.7389 273.015 38.7389 273.015C38.7389 273.015 30.7518 251.477 32.0982 244.865C32.3843 243.266 32.9868 241.742 33.8702 240.38C34.7536 239.019 35.9002 237.848 37.2423 236.937C38.5844 236.026 40.0949 235.393 41.6848 235.076C43.2748 234.759 44.9121 234.764 46.5002 235.09C48.0883 235.416 49.5951 236.058 50.932 236.976C52.2688 237.895 53.4086 239.072 54.2842 240.439C55.1598 241.806 55.7535 243.334 56.0303 244.934C56.3071 246.534 56.2615 248.173 55.8961 249.755L55.9026 249.788Z" fill="#3785BA"/>
<path d="M78.178 309.363C73.6942 314.364 51.6611 320.734 51.6611 320.734C51.6611 320.734 55.622 298.103 60.0992 293.101C62.2653 290.75 65.2686 289.347 68.4592 289.197C71.6499 289.047 74.7712 290.161 77.1477 292.299C79.5242 294.437 80.9647 297.426 81.1576 300.619C81.3504 303.813 80.28 306.954 78.178 309.363V309.363Z" fill="#3785BA"/>
<path d="M84.8975 358.246C81.3223 363.935 60.6748 373.958 60.6748 373.958C60.6748 373.958 60.7598 350.986 64.335 345.297C65.1679 343.909 66.2688 342.702 67.5734 341.745C68.878 340.789 70.36 340.103 71.9326 339.728C73.5052 339.353 75.1367 339.295 76.7316 339.56C78.3265 339.824 79.8528 340.404 81.221 341.267C82.5891 342.129 83.7717 343.256 84.6995 344.582C85.6272 345.908 86.2814 347.407 86.6238 348.989C86.9662 350.572 86.9899 352.207 86.6934 353.798C86.397 355.39 85.7864 356.907 84.8975 358.259V358.246Z" fill="#3785BA"/>
<path d="M15.4323 283.517C21.6154 286.135 44.2629 282.482 44.2629 282.482C44.2629 282.482 31.0731 263.68 24.89 261.062C23.4179 260.44 21.838 260.114 20.2404 260.104C18.6427 260.093 17.0587 260.398 15.5787 261.001C14.0987 261.604 12.7517 262.493 11.6147 263.617C10.4776 264.741 9.57277 266.078 8.95177 267.553C8.33076 269.027 8.00578 270.61 7.99538 272.21C7.98497 273.81 8.28934 275.397 8.89111 276.879C9.49288 278.361 10.3803 279.711 11.5026 280.85C12.6249 281.988 13.9602 282.895 15.4323 283.517V283.517Z" fill="#3785BA"/>
<path d="M24.0332 340.584C30.713 341.239 51.2298 330.954 51.2298 330.954C51.2298 330.954 33.0137 316.997 26.3339 316.355C24.7232 316.158 23.0895 316.287 21.5292 316.733C19.9689 317.179 18.5136 317.934 17.2492 318.952C15.9849 319.971 14.937 321.233 14.1674 322.664C13.3978 324.095 12.9222 325.665 12.7685 327.283C12.6148 328.901 12.7862 330.534 13.2726 332.084C13.759 333.635 14.5506 335.072 15.6005 336.311C16.6505 337.55 17.9376 338.566 19.3859 339.299C20.8342 340.032 22.4144 340.466 24.0332 340.578V340.584Z" fill="#3785BA"/>
<path d="M39.9743 394.895C46.4516 396.656 68.4062 390.005 68.4062 390.005C68.4062 390.005 52.8046 373.16 46.3274 371.406C44.7768 370.953 43.1517 370.815 41.5471 370.999C39.9425 371.183 38.3906 371.685 36.9821 372.477C35.5736 373.268 34.3368 374.333 33.344 375.609C32.3512 376.885 31.6224 378.346 31.2001 379.908C30.7778 381.469 30.6705 383.099 30.8845 384.703C31.0985 386.306 31.6295 387.851 32.4465 389.246C33.2634 390.642 34.35 391.86 35.6425 392.83C36.9351 393.8 38.4077 394.502 39.9743 394.895V394.895Z" fill="#3785BA"/>
<path opacity="0.25" d="M23.6801 222.437C26.118 228.695 21.8761 251.275 21.8761 251.275C21.8761 251.275 3.49015 237.533 1.0522 231.275C0.409378 229.774 0.0744963 228.16 0.0674949 226.527C0.0604935 224.895 0.381513 223.277 1.01144 221.772C1.64137 220.266 2.56734 218.902 3.73421 217.762C4.90108 216.623 6.28501 215.729 7.8036 215.136C9.3222 214.543 10.9444 214.262 12.5737 214.31C14.203 214.358 15.806 214.733 17.2873 215.415C18.7686 216.096 20.098 217.068 21.1963 218.275C22.2945 219.481 23.1392 220.896 23.6801 222.437V222.437Z" fill="black"/>
<path opacity="0.25" d="M55.9026 249.788C54.5562 256.374 38.7389 273.015 38.7389 273.015C38.7389 273.015 30.7518 251.477 32.0982 244.865C32.3843 243.266 32.9868 241.742 33.8702 240.38C34.7536 239.019 35.9002 237.848 37.2423 236.937C38.5844 236.026 40.0949 235.393 41.6848 235.076C43.2748 234.759 44.9121 234.764 46.5002 235.09C48.0883 235.416 49.5951 236.058 50.932 236.976C52.2688 237.895 53.4086 239.072 54.2842 240.439C55.1598 241.806 55.7535 243.334 56.0303 244.934C56.3071 246.534 56.2615 248.173 55.8961 249.755L55.9026 249.788Z" fill="black"/>
<path opacity="0.25" d="M78.178 309.363C73.6942 314.364 51.6611 320.734 51.6611 320.734C51.6611 320.734 55.622 298.103 60.0992 293.101C62.2653 290.75 65.2686 289.347 68.4592 289.197C71.6499 289.047 74.7712 290.161 77.1477 292.299C79.5242 294.437 80.9647 297.426 81.1576 300.619C81.3504 303.813 80.28 306.954 78.178 309.363V309.363Z" fill="black"/>
<path opacity="0.25" d="M84.8975 358.246C81.3223 363.935 60.6748 373.958 60.6748 373.958C60.6748 373.958 60.7598 350.986 64.335 345.297C65.1679 343.909 66.2688 342.702 67.5734 341.745C68.878 340.789 70.36 340.103 71.9326 339.728C73.5052 339.353 75.1367 339.295 76.7316 339.56C78.3265 339.824 79.8528 340.404 81.221 341.267C82.5891 342.129 83.7717 343.256 84.6995 344.582C85.6272 345.908 86.2814 347.407 86.6238 348.989C86.9662 350.572 86.9899 352.207 86.6934 353.798C86.397 355.39 85.7864 356.907 84.8975 358.259V358.246Z" fill="black"/>
<path opacity="0.25" d="M15.4323 283.517C21.6154 286.135 44.2629 282.482 44.2629 282.482C44.2629 282.482 31.0731 263.68 24.89 261.062C23.4179 260.44 21.838 260.114 20.2404 260.104C18.6427 260.093 17.0587 260.398 15.5787 261.001C14.0987 261.604 12.7517 262.493 11.6147 263.617C10.4776 264.741 9.57277 266.078 8.95177 267.553C8.33076 269.027 8.00578 270.61 7.99538 272.21C7.98497 273.81 8.28934 275.397 8.89111 276.879C9.49288 278.361 10.3803 279.711 11.5026 280.85C12.6249 281.988 13.9602 282.895 15.4323 283.517V283.517Z" fill="black"/>
<path opacity="0.25" d="M24.0332 340.584C30.713 341.239 51.2298 330.954 51.2298 330.954C51.2298 330.954 33.0137 316.997 26.3339 316.355C24.7232 316.158 23.0895 316.287 21.5292 316.733C19.9689 317.179 18.5136 317.934 17.2492 318.952C15.9849 319.971 14.937 321.233 14.1674 322.664C13.3978 324.095 12.9222 325.665 12.7685 327.283C12.6148 328.901 12.7862 330.534 13.2726 332.084C13.759 333.635 14.5506 335.072 15.6005 336.311C16.6505 337.55 17.9376 338.566 19.3859 339.299C20.8342 340.032 22.4144 340.466 24.0332 340.578V340.584Z" fill="black"/>
<path opacity="0.25" d="M39.9743 394.895C46.4516 396.656 68.4062 390.005 68.4062 390.005C68.4062 390.005 52.8046 373.16 46.3274 371.406C44.7768 370.953 43.1517 370.815 41.5471 370.999C39.9425 371.183 38.3906 371.685 36.9821 372.477C35.5736 373.268 34.3368 374.333 33.344 375.609C32.3512 376.885 31.6224 378.346 31.2001 379.908C30.7778 381.469 30.6705 383.099 30.8845 384.703C31.0985 386.306 31.6295 387.851 32.4465 389.246C33.2634 390.642 34.35 391.86 35.6425 392.83C36.9351 393.8 38.4077 394.502 39.9743 394.895V394.895Z" fill="black"/>
<path opacity="0.1" d="M302.947 327.621C290.528 327.346 277.188 327.968 267.318 332.858C249.017 341.906 251.482 360.256 239.547 372.989C229.468 383.739 210.206 389.323 191.526 392.885C161.094 398.691 129.179 400.865 98.9558 407.104C81.1385 410.783 63.4518 416.132 51.2425 425.284C39.0331 434.436 33.5559 448.086 41.8109 458.914C49.4451 468.924 66.2624 474.279 81.5764 479.464C96.8904 484.649 113.113 491.451 117.374 502.26C119.747 508.276 117.982 514.764 120.754 520.702C126.218 532.42 146.682 537.952 165.068 540.944C179.755 543.333 194.683 545.095 209.729 546.181C221.749 547.065 234.043 547.53 245.841 545.808C256.057 544.315 265.514 541.225 275.312 538.849C337.562 523.667 409.158 536.8 472.649 523.942C484.205 521.618 495.571 518.345 504.329 512.99C510.866 509.009 515.702 504.034 519.774 498.875C530.14 485.782 535.82 471.098 536.258 456.374C536.52 447.549 534.951 438.633 537.363 429.939C539.892 420.891 546.644 412.57 550.239 403.674C556.775 387.503 552.2 369.631 537.971 355.641C532.892 350.484 526.665 346.608 519.8 344.328C514.049 342.482 507.617 341.775 501.284 341.055C483.636 339.136 465.76 337.212 447.956 338.292C435.289 339.064 422.89 341.349 410.184 341.762C392.354 342.344 378.386 338.227 362.222 334.357C343.627 329.945 322.705 328.053 302.947 327.621Z" fill="#3785BA"/>
<path d="M78.5244 193.788V368.891L311.13 323.634L306.686 189.336L78.5244 193.788Z" fill="#DBACA2"/>
<path d="M515.768 400.243V458.115L269.829 530.089L267.319 528.786L72.7861 427.693V188.406L313.536 180.615L315.019 313.427L305.385 316.4L301.679 192.177L89.8191 199.535L88.342 379.464L272.79 460.341L272.934 460.308L515.768 400.243Z" fill="#E8C2B8"/>
<path opacity="0.1" d="M515.767 400.244V458.117L269.828 530.091L267.318 528.788L272.933 460.31L515.767 400.244Z" fill="black"/>
<path d="M219.272 316.21C219.272 316.21 100.198 328.112 88.636 345.349C77.0737 362.587 88.538 383.732 88.538 383.732L272.62 463.864L522.259 399.313C522.259 399.313 515.592 354.05 494.853 348.858C474.114 343.667 308.902 308.053 308.902 308.053C308.902 308.053 242.234 303.968 219.272 316.21Z" fill="#EBECF0"/>
<path d="M88.5244 345.514L276.312 410.437C276.312 410.437 476.61 349.606 504.983 355.334C504.983 355.334 364.869 305.102 308.901 307.288C264.299 309.03 217.599 316.362 217.599 316.362C217.599 316.362 93.7141 328.827 88.5244 345.514Z" fill="#F8F9FA"/>
<path d="M377.452 387.281L377.497 387.215V387.176L377.53 387.111V387.065V386.999V386.954V386.882V386.836V386.751V386.711C377.53 386.672 377.53 386.633 377.53 386.593C377.53 386.548 377.53 386.502 377.53 386.456C377.53 386.41 377.53 386.456 377.53 386.41C377.53 386.364 377.53 386.345 377.53 386.312V386.253V386.155V386.089V385.991V385.926V385.821V385.755V385.644V385.585L377.478 385.422L377.412 385.238V385.179L377.36 385.048V384.976L377.308 384.852L377.275 384.773L377.223 384.649L377.184 384.564L377.125 384.44L377.086 384.361L377.014 384.224L376.974 384.152L376.876 383.962L376.759 383.739L376.72 383.667L376.635 383.51L376.589 383.425L376.504 383.281L376.452 383.189L376.367 383.045L376.223 382.829L376.131 382.685L376.072 382.593L375.974 382.436L375.922 382.351L375.791 382.142V382.102L375.628 381.854L375.576 381.782L375.458 381.605L375.393 381.513L375.282 381.356L375.216 381.258L375.105 381.101L375.033 380.996L374.916 380.865L374.844 380.767L374.719 380.597L374.654 380.512L374.491 380.289V380.256L374.301 379.994L374.236 379.903L374.112 379.733L374.027 379.621L373.909 379.464L373.824 379.353L373.706 379.196L373.621 379.091L373.497 378.927L373.412 378.823L373.282 378.652L373.203 378.554L373.046 378.358L372.994 378.292C372.406 377.546 371.798 376.8 371.19 376.08C369.476 374.038 367.376 372.356 365.012 371.128C362.648 369.9 360.065 369.151 357.412 368.924C356.869 368.878 356.301 368.819 355.726 368.747H355.484L355.059 368.688H354.856L354.203 368.597L353.582 368.499L353.366 368.459L352.928 368.381L352.667 368.328L352.268 368.25L351.987 368.191L351.608 368.106L351.32 368.04L350.941 367.949L350.647 367.877L350.275 367.778L349.98 367.7L349.608 367.595C347.647 364.675 344.667 362.076 341.765 361.572C340.965 361.448 340.148 361.49 339.366 361.697L339.229 361.546L339.033 361.323L338.771 360.989L338.601 360.767L338.327 360.381L338.189 360.191C338.054 359.994 337.926 359.794 337.804 359.589C337.418 359.417 337.015 359.287 336.601 359.202C342.385 358.325 348.088 356.978 353.654 355.176C353.924 355.074 354.18 354.94 354.418 354.777L354.536 354.737C359.379 352.97 365.327 335.752 361.144 333.343C356.961 330.934 350.575 311.084 346.83 300.917C343.085 290.75 332.294 289.67 332.294 289.67C332.294 289.67 316.66 277.539 309.614 278.862C302.568 280.184 301.463 269.598 300.803 269.159C300.726 269.096 300.662 269.018 300.614 268.93C298.914 266.266 285.404 262.711 278.116 260.956C270.992 255.785 262.495 251.771 255.626 250.115C253.331 249.493 250.924 249.412 248.592 249.878C246.261 250.343 244.069 251.343 242.188 252.799C227.756 253.533 225.455 264.452 225.455 264.452C225.406 265.943 225.664 267.427 226.213 268.812C225.434 268.823 224.654 268.781 223.88 268.688C225.553 265.919 225.606 262.357 226.854 259.313C229.318 253.29 236.116 250.181 242.541 249.369C246.286 248.898 250.384 248.898 253.338 246.547C254.859 245.33 255.897 243.61 256.266 241.696C256.386 241.283 256.349 240.84 256.162 240.452C255.979 240.201 255.733 240.002 255.449 239.876C251.58 237.807 246.92 238.344 242.527 238.246C235.39 238.089 228.436 236.132 221.534 234.318C218.612 233.552 215.455 232.812 212.631 233.899C209.965 234.92 208.148 237.356 206.01 239.248C197.252 246.986 182.709 245.866 174.918 254.587C173.114 256.609 171.761 259.353 172.422 261.984C172.69 263.058 173.284 264.046 173.474 265.14C173.853 267.3 172.624 269.369 171.585 271.3C170.546 273.231 169.624 275.575 170.605 277.539C172.088 280.538 176.618 280.315 178.971 282.691C180.062 283.798 180.592 285.382 181.729 286.436C183.552 288.119 186.356 287.988 188.827 287.745C189.801 287.654 191.258 287.385 191.794 286.528C193.705 288.328 196.008 289.66 198.52 290.417C201.032 291.175 203.686 291.338 206.271 290.894C208.857 290.449 211.305 289.41 213.421 287.857C215.538 286.304 217.265 284.28 218.468 281.945C223.792 281.585 229.084 283.018 233.501 286.017C234.167 287.982 235.388 289.711 237.018 290.993C238.56 292.204 240.397 293.69 242.246 295.281C237.56 296.518 233.397 297.31 233.397 297.31C233.397 297.31 214.899 303.268 214.899 307.235C214.965 307.953 215.188 308.649 215.553 309.271C215.085 310.257 214.82 311.328 214.775 312.42C209.671 311.556 205.586 310.253 203.474 308.335C203.474 308.335 202.873 308.171 201.945 307.988C200.703 306.397 197.056 301.978 194.886 302.155C193.442 302.272 192.925 305.637 192.742 308.649C192.552 308.813 192.385 309.003 192.245 309.212C190.043 312.518 194.01 319.137 196.651 320.243C199.291 321.349 213.828 320.898 223.736 328.184C228.128 331.412 235.678 332.034 242.691 331.732C235.638 336.721 225.762 344.387 224.39 349.14C223.651 351.66 222.782 354.79 222.834 358.004C218.52 363.719 211.991 375.785 228.135 381.572C241.442 386.332 277.522 385.723 303.228 384.557C315.189 386.672 325.065 388.8 329.209 390.836C329.209 390.836 339.117 392.145 343.085 394.587C347.052 397.029 354.314 396.355 354.314 396.355C354.314 396.355 368.406 398.783 371.491 401.867C374.576 404.95 379.857 396.571 373.255 392.603C370.68 391.058 366.844 388.512 363.124 385.723C367.902 386.286 372.118 386.901 374.798 387.53L375.066 387.589H375.151H375.321H375.419H375.563H375.654H375.791H376.445H376.615H376.667H376.772H376.831H376.916H376.968H377.046H377.099L377.171 387.556H377.216L377.282 387.51H377.314L377.399 387.438L377.452 387.281ZM316.62 366.135C316.62 366.135 314.764 365.71 311.993 365.055L306.489 362.829C306.489 362.829 315.882 359.87 324.581 356.106C327.072 357.199 329.261 358.07 329.81 358.862C330.047 359.124 330.369 359.294 330.719 359.34C327.451 360.152 323.254 362.24 318.333 367.058C317.736 366.802 317.163 366.493 316.62 366.135V366.135ZM250.122 312.976L255.554 310.449C256.737 311.457 258.005 312.413 259.247 313.343C256.266 313.52 252.26 313.716 247.73 313.84C249.116 313.376 250.122 312.976 250.122 312.976Z" fill="url(#paint0_linear)"/>
<path d="M203.84 308.761C203.84 308.761 199.095 302.306 196.513 302.502C193.931 302.699 194.356 313.514 194.356 313.514L203.84 308.761Z" fill="#FFD5D8"/>
<path d="M264.848 313.08C264.848 313.08 214.403 317.185 204.919 308.543C204.919 308.543 196.082 306.167 193.925 309.407C191.768 312.648 195.651 319.123 198.239 320.203C200.827 321.283 215.056 320.858 224.756 327.974C234.455 335.09 259.894 329.283 259.894 329.283L270.456 325.178L264.848 313.08Z" fill="#3785BA"/>
<path opacity="0.05" d="M264.848 313.08C264.848 313.08 214.403 317.185 204.919 308.543C204.919 308.543 196.082 306.167 193.925 309.407C191.768 312.648 195.651 319.123 198.239 320.203C200.827 321.283 215.056 320.858 224.756 327.974C234.455 335.09 259.894 329.283 259.894 329.283L270.456 325.178L264.848 313.08Z" fill="black"/>
<path d="M337.066 337.264C337.066 337.264 326.288 329.493 304.085 339.228C281.882 348.963 226.482 354.128 226.482 354.128C226.482 354.128 207.946 372.695 229.096 380.256C250.247 387.817 329.981 381.565 329.981 381.565C329.981 381.565 362.53 383.726 372.661 386.102C378.792 387.542 373.968 380.59 369.164 374.881C367.487 372.881 365.432 371.233 363.117 370.031C360.802 368.829 358.272 368.096 355.674 367.876C349.308 367.333 340.478 365.33 336.438 358.678C336.438 358.678 328.68 354.789 317.039 366.449L305.81 361.879C305.81 361.879 336.634 352.164 337.713 345.683C338.791 339.202 337.066 337.264 337.066 337.264Z" fill="#FFD5D8"/>
<path opacity="0.05" d="M337.066 337.264C337.066 337.264 326.288 329.493 304.085 339.228C281.882 348.963 226.482 354.128 226.482 354.128C226.482 354.128 207.946 372.695 229.096 380.256C250.247 387.817 329.981 381.565 329.981 381.565C329.981 381.565 362.53 383.726 372.661 386.102C378.034 387.359 374.981 382.174 370.936 377.055C368.918 374.483 366.412 372.337 363.563 370.739C360.714 369.141 357.577 368.124 354.334 367.745C348.125 367.038 340.203 364.871 336.445 358.678C336.445 358.678 328.686 354.789 317.046 366.449L305.81 361.879C305.81 361.879 336.634 352.164 337.713 345.683C338.791 339.202 337.066 337.264 337.066 337.264Z" fill="black"/>
<path d="M337.281 306.607C337.281 306.607 323.699 285.003 291.58 303.798L250.403 326.711C250.403 326.711 227.527 341.18 225.396 348.518C223.265 355.857 220.004 368.381 242.429 373.134C264.854 377.887 317.019 383.929 328.012 389.33C328.012 389.33 337.712 390.64 341.594 393.003C345.477 395.366 352.588 394.731 352.588 394.731C352.588 394.731 366.386 397.108 369.405 400.132C372.425 403.157 377.595 394.947 371.131 391.065C364.667 387.183 350.006 376.813 350.216 372.734C350.425 368.656 345.255 361.448 340.274 360.571C335.294 359.693 328.849 367.045 328.849 367.045C328.849 367.045 320.659 368.355 315.699 365.081C315.699 365.081 290.26 359.248 287.672 357.527C285.084 355.805 267.41 349.108 267.41 349.108C267.41 349.108 309.241 348.675 321.516 337.448C321.516 337.448 326.261 333.991 330.137 335.071C330.169 335.104 349.353 327.765 337.281 306.607Z" fill="#FFD5D8"/>
<path d="M215.049 266.01C215.049 266.01 227.337 274.645 236.821 266.01C246.305 257.375 240.925 292.57 240.925 292.57C240.925 292.57 227.775 275.077 208.16 286.527L215.049 266.01Z" fill="#FFD5D8"/>
<path opacity="0.05" d="M215.049 266.01C215.049 266.01 227.337 274.645 236.821 266.01C246.305 257.375 240.925 292.57 240.925 292.57C240.925 292.57 227.775 275.077 208.16 286.527L215.049 266.01Z" fill="black"/>
<path d="M162.454 340.072C162.454 340.072 175.389 329.061 182.716 328.845C184.899 328.779 187.422 326.554 189.906 323.464C193.043 319.56 197.181 316.583 201.878 314.854C206.574 313.124 211.651 312.706 216.566 313.644C220.736 314.416 225.867 314.396 232.096 312.851C254.73 307.234 243.521 293.211 243.521 293.211L236.41 287.169C236.41 287.169 226.71 280.478 223.044 280.91C219.377 281.342 209.893 291.058 208.815 289.977C207.736 288.897 194.586 279.182 192.429 276.589C190.272 273.997 173.016 265.578 177.33 263.201C181.644 260.825 203.409 251.974 199.095 250.246C194.782 248.517 171.5 245.925 162.448 256.72C153.395 267.516 157.918 333.807 162.454 340.072Z" fill="#F8F9FA"/>
<path opacity="0.05" d="M162.454 340.072C162.454 340.072 175.389 329.061 182.716 328.845C184.899 328.779 187.422 326.554 189.906 323.464C193.043 319.56 197.181 316.583 201.878 314.854C206.574 313.124 211.651 312.706 216.566 313.644C220.736 314.416 225.867 314.396 232.096 312.851C254.73 307.234 243.521 293.211 243.521 293.211L236.41 287.169C236.41 287.169 226.71 280.478 223.044 280.91C219.377 281.342 209.893 291.058 208.815 289.977C207.736 288.897 194.586 279.182 192.429 276.589C190.272 273.997 173.016 265.578 177.33 263.201C181.644 260.825 203.409 251.974 199.095 250.246C194.782 248.517 171.5 245.925 162.448 256.72C153.395 267.516 157.918 333.807 162.454 340.072Z" fill="black"/>
<path d="M163.318 338.562C163.318 338.562 176.252 327.55 183.579 327.334C185.762 327.269 188.285 325.043 190.769 321.953C193.903 318.053 198.035 315.079 202.725 313.349C207.415 311.618 212.486 311.196 217.397 312.126C221.567 312.899 226.698 312.879 232.927 311.334C255.561 305.717 244.352 291.694 244.352 291.694L237.24 285.652C237.24 285.652 227.541 278.961 223.874 279.393C220.207 279.825 210.724 289.54 209.645 288.46C208.567 287.38 195.416 277.665 193.259 275.072C191.102 272.48 173.88 264.067 178.181 261.717C182.481 259.367 204.266 250.49 199.952 248.761C195.638 247.033 172.357 244.44 163.304 255.236C154.252 266.031 158.788 332.297 163.318 338.562Z" fill="#F8F9FA"/>
<path d="M226.475 265.579C226.475 265.579 229.926 249.167 255.148 255.648C280.371 262.129 292.875 276.158 292.875 276.158L269.998 286.738L241.972 277.239C241.972 277.239 226.266 277.428 226.475 265.579Z" fill="#FFD5D8"/>
<path opacity="0.05" d="M272.614 261.474C272.614 261.474 296.869 266.711 299.157 270.318C299.205 270.404 299.269 270.479 299.346 270.541C300 270.973 301.072 281.336 307.967 280.04C314.863 278.744 330.19 290.62 330.19 290.62C330.19 290.62 340.752 291.7 344.419 301.631C348.086 311.562 354.334 330.999 358.432 333.369C362.53 335.739 356.707 352.584 351.968 354.319C347.229 356.053 330.196 360.152 328.687 357.991C327.177 355.831 314.026 353.454 314.889 346.548C315.752 339.641 320.922 333.16 316.85 329.055C312.778 324.95 310.17 314.155 304.131 311.994C298.091 309.834 287.313 309.186 280.849 313.507C274.385 317.827 266.574 318.017 266.574 318.017C266.574 318.017 253.208 310.246 251.051 304.845C249.6 301.206 242.371 295.117 237.809 291.536C236.613 290.596 235.637 289.406 234.947 288.049C234.257 286.693 233.871 285.202 233.815 283.68C233.626 278.351 233.456 270.495 234.018 269.225C234.881 267.261 246.737 255.621 246.737 255.621L272.614 261.474Z" fill="black"/>
<path d="M273.475 261.061C273.475 261.061 297.731 266.298 300.018 269.905C300.067 269.991 300.131 270.067 300.208 270.128C300.862 270.56 301.933 280.923 308.829 279.627C315.725 278.331 331.052 290.207 331.052 290.207C331.052 290.207 341.614 291.287 345.281 301.218C348.947 311.149 355.196 330.587 359.294 332.956C363.392 335.326 357.568 352.171 352.83 353.906C348.091 355.641 331.058 359.739 329.548 357.578C328.039 355.418 314.888 353.042 315.751 346.135C316.613 339.228 321.783 332.747 317.711 328.642C313.64 324.537 311.032 313.742 304.992 311.582C298.953 309.421 288.175 308.773 281.711 313.094C275.247 317.415 266.73 318.167 266.73 318.167C266.73 318.167 254.122 309.853 251.965 304.459C250.514 300.819 243.285 294.73 238.723 291.149C237.527 290.209 236.551 289.019 235.861 287.663C235.171 286.306 234.785 284.815 234.73 283.293C234.54 277.964 234.37 270.108 234.932 268.838C235.795 266.874 247.651 255.234 247.651 255.234L273.475 261.061Z" fill="#3785BA"/>
<path d="M217.637 307.896C217.421 308.113 213.755 313.514 218.068 316.532C219.262 317.408 220.641 317.998 222.098 318.256C223.556 318.513 225.053 318.432 226.474 318.018L217.637 307.896Z" fill="#FFD5D8"/>
<path opacity="0.1" d="M238.312 260.825C238.312 260.825 244.135 249.166 256.613 252.19C269.09 255.215 287.221 266.226 291.535 277.238C295.849 288.249 275.195 301.65 275.195 301.65L250.619 313.094C250.619 313.094 243.077 316.119 240.92 315.058C238.763 313.997 228.416 323.254 228.416 323.254C228.416 323.254 216.775 312.027 216.775 308.138C216.775 304.249 234.887 298.377 234.887 298.377C234.887 298.377 256.456 294.272 256.227 290.174C256.227 290.174 259.894 285.853 257.953 284.557C256.011 283.261 235.207 277.107 235.207 277.107C235.207 277.107 234.455 263.418 238.312 260.825Z" fill="black"/>
<path d="M237.659 260.177C237.659 260.177 243.482 248.517 255.96 251.542C268.437 254.567 286.568 265.578 290.882 276.59C295.196 287.601 274.548 300.995 274.548 300.995L249.973 312.439C249.973 312.439 242.43 315.464 240.273 314.403C238.116 313.342 227.77 322.599 227.77 322.599C227.77 322.599 216.129 311.372 216.129 307.483C216.129 303.595 234.24 297.722 234.24 297.722C234.24 297.722 255.809 293.617 255.581 289.519C255.581 289.519 259.247 285.198 257.306 283.902C255.365 282.606 234.561 276.452 234.561 276.452C234.561 276.452 233.809 262.769 237.659 260.177Z" fill="#3785BA"/>
<path opacity="0.1" d="M210.096 284.361C213.592 282.228 217.529 280.922 221.606 280.544C222.789 278.26 219.684 275.772 219.684 273.022C219.684 270.718 218.808 269.84 217.959 267.837C214.874 266.718 216.991 263.844 216.991 263.844L210.096 284.361Z" fill="black"/>
<path d="M204.92 291.706C214.089 291.706 221.522 284.261 221.522 275.078C221.522 265.894 214.089 258.449 204.92 258.449C195.751 258.449 188.318 265.894 188.318 275.078C188.318 284.261 195.751 291.706 204.92 291.706Z" fill="#FFD5D8"/>
<path d="M192.474 281.9C196.18 279.033 201.004 278.07 205.671 277.651C208.586 277.389 211.553 277.298 214.351 276.407C215.96 275.845 217.52 275.153 219.017 274.339C221.017 273.317 223.083 272.244 224.449 270.456C226.58 267.668 226.514 263.805 227.848 260.551C230.259 254.659 236.913 251.609 243.227 250.816C246.894 250.352 250.9 250.352 253.802 248.054C255.291 246.863 256.309 245.181 256.672 243.307C256.788 242.902 256.751 242.469 256.567 242.09C256.387 241.844 256.146 241.65 255.868 241.527C252.077 239.504 247.515 240.028 243.221 239.929C236.233 239.779 229.423 237.854 222.665 236.08C219.802 235.327 216.71 234.607 213.952 235.667C211.338 236.669 209.566 239.052 207.468 240.905C198.893 248.486 184.657 247.386 177.03 255.923C175.265 257.887 173.938 260.591 174.585 263.163C174.853 264.217 175.428 265.18 175.618 266.253C175.99 268.368 174.788 270.398 173.768 272.283C172.749 274.168 171.86 276.473 172.807 278.391C174.265 281.324 178.69 281.108 180.997 283.432C182.069 284.512 182.579 286.051 183.697 287.098C185.487 288.748 188.226 288.617 190.644 288.407C191.952 288.283 194.089 287.851 193.716 286.096C193.403 284.525 191.331 283.851 192.474 281.9Z" fill="#85596B"/>
<path d="M186.678 291.832C186.678 291.832 197.998 283.321 205.109 286.11C212.221 288.899 214.162 290.431 218.691 288.729C223.221 287.027 225.156 292.185 225.156 292.185L196.946 300.343L186.678 291.832Z" fill="#F8F9FA"/>
<path opacity="0.05" d="M171.402 306.711C171.402 306.711 176.579 293.323 182.827 290.73Z" fill="black"/>
<path opacity="0.05" d="M164.715 302.391C164.715 302.391 169.891 289.003 176.14 286.41Z" fill="black"/>
<path opacity="0.05" d="M285.869 305.632C285.869 305.632 304.17 296.781 316.478 297.645C328.785 298.509 330.922 290.738 330.922 290.738" fill="black"/>
<path d="M206.696 526.62C205.173 525.199 203.742 523.523 203.298 521.487C202.853 519.451 203.722 517.003 205.67 516.25C207.847 515.412 210.18 516.904 211.945 518.456C213.71 520.008 215.736 521.729 218.043 521.402C216.855 520.322 215.966 518.953 215.463 517.427C214.96 515.901 214.86 514.271 215.174 512.695C215.275 512.044 215.55 511.433 215.971 510.927C217.18 509.618 219.376 510.188 220.821 511.209C225.396 514.482 226.703 520.721 226.736 526.364C227.2 524.328 226.808 522.207 226.821 520.119C226.834 518.031 227.403 515.72 229.161 514.594C230.256 514.004 231.487 513.715 232.729 513.756C234.801 513.677 237.109 513.886 238.52 515.405C240.279 517.291 239.828 520.453 238.292 522.528C236.756 524.603 234.435 525.906 232.298 527.34C230.582 528.364 229.119 529.763 228.017 531.432C227.886 531.665 227.779 531.91 227.697 532.165H214.723C211.81 530.688 209.11 528.822 206.696 526.62V526.62Z" fill="#3785BA"/>
<path d="M506.396 468.257C505.385 467.431 504.649 466.317 504.285 465.062C504.01 463.792 504.553 462.273 505.762 461.789C507.115 461.272 508.566 462.208 509.684 463.164C510.801 464.119 512.037 465.2 513.474 464.997C512.735 464.326 512.182 463.474 511.87 462.525C511.557 461.576 511.495 460.562 511.69 459.582C511.753 459.178 511.925 458.797 512.187 458.483C512.939 457.677 514.305 458.024 515.207 458.659C518.069 460.676 518.867 464.551 518.886 468.08C519.174 466.817 518.932 465.494 518.939 464.198C518.945 462.902 519.298 461.461 520.396 460.767C521.078 460.399 521.845 460.219 522.618 460.244C523.926 460.198 525.337 460.329 526.22 461.272C527.311 462.443 527.03 464.407 526.076 465.697C525.122 466.987 523.677 467.799 522.35 468.689C521.284 469.327 520.375 470.197 519.69 471.236C519.61 471.379 519.545 471.531 519.494 471.687H511.383C509.574 470.774 507.896 469.62 506.396 468.257Z" fill="#3785BA"/>
</g>
<defs>
<linearGradient id="paint0_linear" x1="273.959" y1="402.535" x2="273.959" y2="233.349" gradientUnits="userSpaceOnUse">
<stop stop-color="#808080" stop-opacity="0.25"/>
<stop offset="0.54" stop-color="#808080" stop-opacity="0.12"/>
<stop offset="1" stop-color="#808080" stop-opacity="0.1"/>
</linearGradient>
<clipPath id="clip0">
<rect width="691" height="547" fill="white"/>
</clipPath>
</defs>
</svg>
