<svg width="515" height="626" viewBox="0 0 515 626" fill="none" xmlns="http://www.w3.org/2000/svg">
<g clip-path="url(#clip0)">
<path d="M515 352.023L425.983 626H137.894L48.8779 352.023L281.939 182.695L515 352.023Z" fill="#3785BA"/>
<path d="M165.464 496.051H164.044V494.631H163.767V496.051H162.348V496.327H163.767V497.747H164.044V496.327H165.464V496.051Z" fill="#F2F2F2"/>
<path d="M149.105 581.738H147.686V580.318H147.409V581.738H145.989V582.015H147.409V583.434H147.686V582.015H149.105V581.738Z" fill="#F2F2F2"/>
<path d="M242.585 607.445H241.165V606.025H240.888V607.445H239.469V607.722H240.888V609.141H241.165V607.722H242.585V607.445Z" fill="#F2F2F2"/>
<path d="M226.225 542.927C227.946 542.927 229.341 541.532 229.341 539.811C229.341 538.09 227.946 536.695 226.225 536.695C224.504 536.695 223.109 538.09 223.109 539.811C223.109 541.532 224.504 542.927 226.225 542.927Z" fill="white"/>
<path d="M397.605 309.094H396.186V307.674H395.909V309.094H394.489V309.37H395.909V310.79H396.186V309.37H397.605V309.094Z" fill="#F2F2F2"/>
<path d="M381.247 394.781H379.828V393.361H379.55V394.781H378.131V395.058H379.55V396.477H379.828V395.058H381.247V394.781Z" fill="#F2F2F2"/>
<path d="M474.726 420.488H473.307V419.068H473.03V420.488H471.61V420.765H473.03V422.184H473.307V420.765H474.726V420.488Z" fill="#F2F2F2"/>
<path d="M458.367 355.972C460.088 355.972 461.483 354.577 461.483 352.856C461.483 351.135 460.088 349.74 458.367 349.74C456.646 349.74 455.251 351.135 455.251 352.856C455.251 354.577 456.646 355.972 458.367 355.972Z" fill="white"/>
<path d="M138.993 319.08C142.005 319.08 144.446 316.638 144.446 313.627C144.446 310.615 142.005 308.174 138.993 308.174C135.981 308.174 133.54 310.615 133.54 313.627C133.54 316.638 135.981 319.08 138.993 319.08Z" fill="#F2F2F2"/>
<path d="M133.291 467.211L131.522 467.484C132.076 471.02 132.512 474.635 132.831 478.21L134.615 478.054C134.296 474.432 133.852 470.786 133.291 467.211Z" fill="#E6E6E6"/>
<path d="M128.454 445.912L126.74 446.434C127.776 449.862 128.703 453.375 129.49 456.872L131.243 456.475C130.44 452.939 129.498 449.386 128.454 445.912Z" fill="#E6E6E6"/>
<path d="M120.734 425.488L119.105 426.236C120.601 429.5 122.003 432.85 123.273 436.199L124.948 435.568C123.663 432.18 122.253 428.783 120.734 425.488Z" fill="#E6E6E6"/>
<path d="M110.295 406.34L108.784 407.298C110.708 410.32 112.555 413.452 114.268 416.591L115.842 415.734C114.113 412.556 112.243 409.393 110.295 406.34Z" fill="#E6E6E6"/>
<path d="M97.3173 388.789L95.9541 389.95C98.2755 392.676 100.535 395.527 102.669 398.41L104.102 397.342C101.952 394.429 99.6699 391.547 97.3173 388.789Z" fill="#E6E6E6"/>
<path d="M82.0639 373.164L80.8721 374.496C83.5518 376.888 86.1771 379.404 88.6776 381.967L89.963 380.712C87.4313 378.118 84.7748 375.579 82.0639 373.164Z" fill="#E6E6E6"/>
<path d="M64.833 359.75L63.8281 361.23C66.8039 363.232 69.7485 365.366 72.5763 367.571L73.6825 366.161C70.8158 363.933 67.84 361.775 64.833 359.75Z" fill="#E6E6E6"/>
<path d="M49.1514 350.434V352.459C51.0132 353.433 52.8594 354.453 54.6667 355.497L55.5625 353.947C53.4592 352.732 51.3222 351.561 49.1514 350.434Z" fill="#E6E6E6"/>
<path d="M133.412 489.259L135.203 489.227C135.236 491.035 135.238 492.852 135.21 494.63L133.42 494.602C133.447 492.845 133.444 491.047 133.412 489.259Z" fill="#E6E6E6"/>
<path d="M281.14 131.346H281.14C324.677 131.346 359.97 170.513 359.97 218.829V280.214H341.091L330.161 257.47L332.893 280.214H211.542L201.605 259.538L204.09 280.214H190.427V232.015C190.427 176.417 231.04 131.346 281.14 131.346Z" fill="#151421"/>
<path d="M204.492 419.504C204.492 419.504 215.507 469.57 207.496 493.602C199.485 517.634 202.489 531.653 202.489 531.653L360.703 528.649C360.703 528.649 356.697 466.567 333.666 459.557C310.635 452.548 204.492 419.504 204.492 419.504Z" fill="#D0CDE1"/>
<path d="M290.609 264.296C317.154 264.296 338.674 242.777 338.674 216.232C338.674 189.687 317.154 168.168 290.609 168.168C264.063 168.168 242.544 189.687 242.544 216.232C242.544 242.777 264.063 264.296 290.609 264.296Z" fill="#FFB9B9"/>
<path d="M260.568 245.271C260.568 245.271 263.572 281.319 252.557 283.322C241.542 285.325 284.6 319.37 284.6 319.37L323.653 289.33C323.653 289.33 298.619 269.303 309.634 250.278L260.568 245.271Z" fill="#FFB9B9"/>
<path d="M278.592 292.333L258.933 275C258.933 275 248.551 265.297 244.546 271.305C240.54 277.313 231.528 269.303 231.528 269.303L190.473 319.369C190.473 319.369 166.441 340.397 177.455 378.448C188.47 416.499 199.485 441.532 199.485 441.532C199.485 441.532 196.481 425.511 208.497 431.519C220.513 437.527 307.631 462.56 312.638 468.568C317.644 474.576 319.647 480.584 325.655 475.577C331.663 470.57 329.661 467.566 335.669 469.569C341.677 471.572 350.689 457.553 350.689 457.553C350.689 457.553 332.665 447.54 340.676 436.525C348.686 425.511 360.703 362.427 360.703 362.427L387.739 329.383C387.739 329.383 386.738 312.36 365.709 302.347C344.681 292.333 328.659 288.328 326.657 285.324C324.654 282.32 314.64 282.32 314.64 282.32L278.592 292.333Z" fill="#01426A"/>
<path d="M385.639 625.978C385.639 625.985 385.647 625.993 385.639 626.001H169.023C168.33 624.194 166.881 618.227 165.44 598.744C163.438 571.706 193.476 550.681 192.479 548.679C191.474 546.677 194.481 545.672 195.478 543.67C196.483 541.668 195.478 540.663 193.476 535.662C191.474 530.653 195.478 531.65 197.48 528.651C199.482 525.644 198.485 523.642 197.48 518.634C196.483 513.632 204.343 504.768 204.343 504.768C204.343 504.768 204.491 523.642 270.581 524.647C336.671 525.644 355.819 504.768 355.819 504.768C367.574 509.683 377.273 565.248 382.212 599.679C382.92 604.633 383.536 609.144 384.034 613.007C384.891 619.528 385.437 624.194 385.639 625.978Z" fill="#151421"/>
<path d="M388.187 609.584C388.187 609.584 360.948 634.214 349.579 621.193C338.209 608.172 375.249 588.152 375.249 588.152L388.187 609.584Z" fill="#FFB9B9"/>
<path d="M425.789 510.624C418.778 563.696 413.777 616.768 405.761 615.763C399.015 614.914 388.716 623.312 385.639 625.976L385.616 625.999H384.245L378.543 616.971L364.567 594.848L360.704 588.725C360.704 588.725 369.262 565.978 370.455 555.263C371.084 549.612 379.07 525.374 375.129 504.629C374.081 499.133 374.863 494.282 373.571 489.05C369.516 472.637 364.99 452.914 363.444 436.079L349.688 351.415L365.712 316.369L382.14 316.115C382.14 316.115 397.753 344.404 397.753 347.403C397.753 350.41 432.8 457.552 425.789 510.624Z" fill="#01426A"/>
<path d="M335.669 121.105C335.669 121.105 371.718 114.096 374.722 131.119C377.726 148.141 335.669 146.139 335.669 146.139V121.105Z" fill="#FFB9B9"/>
<path d="M258.73 155.443C266.644 145.252 278.318 138.797 291.35 138.797H292.898C322.738 138.797 346.928 165.798 346.928 199.106V199.107H336.93L335.315 186.816L332.947 199.107H273.646L268.677 188.708L269.919 199.107H258.253C252.809 226.142 260.631 253.177 281.719 280.213H261.846L251.909 259.416L254.393 280.213H216.51L209.058 232.381C209.058 196.559 229.871 166.183 258.73 155.443Z" fill="#151421"/>
<path d="M190.474 324.376C190.474 324.376 169.446 287.327 174.452 243.268C179.459 199.209 172.45 138.128 197.483 132.12C222.517 126.112 341.678 118.102 341.678 118.102C341.678 118.102 344.682 151.146 341.678 155.151C338.674 159.156 329.662 154.15 323.654 156.152C317.645 158.155 255.562 160.157 247.551 178.181L239.54 196.205C239.54 196.205 241.543 219.236 231.529 223.241C221.516 227.247 230.528 250.277 229.527 252.28C228.525 254.283 231.529 269.303 231.529 269.303L230.528 299.343L190.474 324.376Z" fill="#01426A"/>
<path d="M365.848 99.7677C357.32 87.0913 353.617 71.7786 355.411 56.6063C357.205 41.4341 364.376 27.407 375.625 17.0688C386.874 6.73062 401.456 0.765884 416.726 0.256279C431.995 -0.253326 446.942 4.72594 458.855 14.2911C470.769 23.8563 478.86 37.374 481.661 52.3929C484.463 67.4118 481.789 82.9373 474.125 96.1541C466.461 109.371 454.315 119.404 439.888 124.433C425.461 129.462 409.71 129.155 395.49 123.568C394.568 126.858 392.845 129.868 390.474 132.329C388.104 134.79 385.16 136.625 381.906 137.669C378.652 138.714 375.19 138.935 371.83 138.313C368.47 137.691 365.317 136.246 362.652 134.107C359.988 131.967 357.895 129.201 356.562 126.054C355.229 122.908 354.697 119.48 355.014 116.078C355.33 112.675 356.486 109.404 358.376 106.558C360.267 103.712 362.834 101.379 365.848 99.7677Z" fill="#3785BA"/>
<path d="M393.765 70.0424C397.849 70.0424 401.159 66.7323 401.159 62.6491C401.159 58.5659 397.849 55.2559 393.765 55.2559C389.682 55.2559 386.372 58.5659 386.372 62.6491C386.372 66.7323 389.682 70.0424 393.765 70.0424Z" fill="white"/>
<path d="M418.99 70.0424C423.073 70.0424 426.383 66.7323 426.383 62.6491C426.383 58.5659 423.073 55.2559 418.99 55.2559C414.907 55.2559 411.597 58.5659 411.597 62.6491C411.597 66.7323 414.907 70.0424 418.99 70.0424Z" fill="white"/>
<path d="M444.214 70.0424C448.297 70.0424 451.607 66.7323 451.607 62.6491C451.607 58.5659 448.297 55.2559 444.214 55.2559C440.13 55.2559 436.82 58.5659 436.82 62.6491C436.82 66.7323 440.13 70.0424 444.214 70.0424Z" fill="white"/>
<path d="M107.039 366.738H105.62V365.318H105.342V366.738H103.923V367.015H105.342V368.434H105.62V367.015H107.039V366.738Z" fill="#F2F2F2"/>
<path d="M90.6805 452.428H89.2611V451.008H88.9838V452.428H87.5645V452.704H88.9838V454.124H89.2611V452.704H90.6805V452.428Z" fill="#F2F2F2"/>
<path d="M184.16 478.133H182.741V476.713H182.463V478.133H181.044V478.41H182.463V479.829H182.741V478.41H184.16V478.133Z" fill="#F2F2F2"/>
<path d="M167.801 413.617C169.521 413.617 170.917 412.222 170.917 410.501C170.917 408.78 169.521 407.385 167.801 407.385C166.08 407.385 164.685 408.78 164.685 410.501C164.685 412.222 166.08 413.617 167.801 413.617Z" fill="white"/>
<path d="M95.9391 261.079L81.0774 255.215L66.2148 249.35L78.7248 239.412L91.2347 229.473L93.5873 245.276L95.9391 261.079Z" fill="#3785BA"/>
<path d="M29.7243 483.091L14.8625 477.227L0 471.362L12.5099 461.423L25.0199 451.484L27.3725 467.288L29.7243 483.091Z" fill="#3785BA"/>
<path d="M500.975 264.785L486.938 272.418L472.902 280.049L473.311 264.078L473.719 248.105L487.347 256.445L500.975 264.785Z" fill="#3785BA"/>
</g>
<defs>
<clipPath id="clip0">
<rect width="515" height="626" fill="white"/>
</clipPath>
</defs>
</svg>
