<svg width="751" height="549" viewBox="0 0 751 549" fill="none" xmlns="http://www.w3.org/2000/svg">
<path opacity="0.1" d="M507.527 548.5C408.081 548.5 327.464 550.447 327.464 535.453C327.464 520.458 408.081 508.303 507.527 508.303C606.974 508.303 687.591 520.458 687.591 535.453C687.591 550.447 606.974 548.5 507.527 548.5Z" fill="black"/>
<path d="M597.259 211.314C681.823 211.314 750.369 279.813 750.369 364.302C750.369 448.79 681.791 517.289 597.259 517.289C586.84 517.293 576.448 516.239 566.242 514.145C580.811 490.213 588.495 462.732 588.45 434.721C588.45 360.857 536.053 299.215 466.364 284.886C480.012 262.415 499.228 243.839 522.157 230.952C545.085 218.064 570.951 211.301 597.259 211.314V211.314Z" fill="#808080"/>
<path opacity="0.1" d="M734.918 368.704C734.918 284.215 666.364 215.725 581.807 215.725C573.576 215.726 565.357 216.384 557.231 217.694C570.283 214.181 583.742 212.407 597.259 212.418C681.823 212.418 750.369 280.917 750.369 365.405C750.369 441.587 694.655 504.729 621.721 516.431C654.213 507.657 682.906 488.432 703.367 461.73C723.828 435.027 734.916 402.334 734.918 368.704V368.704Z" fill="#808080"/>
<path d="M467.094 283.777C444.603 270.14 426.011 250.94 413.111 228.03C400.212 205.12 393.442 179.274 393.455 152.987C393.455 68.4987 462.001 0 546.565 0C631.13 0 699.668 68.4987 699.668 152.987C699.672 163.4 698.617 173.787 696.521 183.987C672.574 169.421 645.069 161.74 617.033 161.789C543.126 161.764 481.434 214.152 467.094 283.777Z" fill="#808080"/>
<path opacity="0.1" d="M406.652 152.987C406.634 176.946 412.256 200.573 423.064 221.96C433.873 243.347 449.564 261.894 468.871 276.102C468.214 278.638 467.605 281.191 467.07 283.777C444.579 270.14 425.986 250.94 413.087 228.03C400.188 205.12 393.418 179.274 393.431 152.987C393.431 68.4987 461.976 0 546.541 0C548.756 0 550.954 0.0567268 553.144 0.15398C471.677 3.61457 406.652 70.7112 406.652 152.987Z" fill="#808080"/>
<path d="M473.778 352.574C476.286 353.854 478.669 355.362 480.899 357.081C483.14 358.813 484.855 361.134 485.855 363.783C487.242 360.906 487.996 357.778 488.921 354.722C490.692 349.179 492.783 343.742 495.183 338.44C491.231 336.933 487.805 334.305 485.328 330.879C480.461 335.701 475.505 340.726 473.097 347.088C472.683 348.19 471.474 349.365 471.19 350.33C470.809 351.764 472.723 351.991 473.778 352.574Z" fill="#FFBFC5"/>
<path d="M607.803 508.731C607.803 544.893 581.694 548.726 549.477 548.726C517.26 548.726 491.159 544.893 491.159 508.731C491.159 472.569 517.268 458.832 549.477 458.832C581.685 458.832 607.803 472.577 607.803 508.731Z" fill="#5A5A5A"/>
<path d="M428.202 470.032C422.91 471.7 417.975 474.339 413.651 477.813C413.326 478.015 413.091 478.334 412.994 478.704C412.88 479.514 414 479.879 414.811 480.114C417.244 480.803 418.728 483.048 420.488 484.799C422.248 486.549 425.071 487.935 427.123 486.533C427.662 486.12 428.133 485.625 428.518 485.066L437.181 473.785C434.244 472.141 431.156 470.784 427.958 469.732" fill="white"/>
<path d="M412.621 472.383C411.469 473.551 410.999 475.236 409.847 476.436C409.092 477.159 408.227 477.758 407.284 478.211L400.649 481.858C399.62 482.467 398.533 482.975 397.405 483.373C396.156 483.729 394.886 483.999 393.601 484.184C391.76 484.539 389.961 485.082 388.231 485.804C386.934 486.339 385.482 487.255 385.49 488.657C385.546 489.346 385.832 489.997 386.301 490.505C388.913 493.795 393.544 494.557 397.729 494.971C406.781 495.927 416.044 496.64 424.893 494.509C426.621 494.191 428.255 493.484 429.67 492.442C432.339 490.229 432.915 486.202 431.876 482.887C431.595 481.613 430.841 480.493 429.768 479.75C428.364 478.94 426.62 479.321 425.006 479.199C423.307 478.96 421.661 478.431 420.14 477.635C419.126 477.181 417.966 476.59 417.707 475.39C417.447 474.191 418.818 473.153 418.518 472.148C417.95 469.887 413.675 471.306 412.621 472.383Z" fill="#CCCCCC"/>
<path opacity="0.1" d="M412.621 472.383C411.469 473.551 410.999 475.236 409.847 476.436C409.092 477.159 408.227 477.758 407.284 478.211L400.649 481.858C399.62 482.467 398.533 482.975 397.405 483.373C396.156 483.729 394.886 483.999 393.601 484.184C391.76 484.539 389.961 485.082 388.231 485.804C386.934 486.339 385.482 487.255 385.49 488.657C385.546 489.346 385.832 489.997 386.301 490.505C388.913 493.795 393.544 494.557 397.729 494.971C406.781 495.927 416.044 496.64 424.893 494.509C426.621 494.191 428.255 493.484 429.67 492.442C432.339 490.229 432.915 486.202 431.876 482.887C431.595 481.613 430.841 480.493 429.768 479.75C428.364 478.94 426.62 479.321 425.006 479.199C423.307 478.96 421.661 478.431 420.14 477.635C419.126 477.181 417.966 476.59 417.707 475.39C417.447 474.191 418.818 473.153 418.518 472.148C417.95 469.887 413.675 471.306 412.621 472.383Z" fill="#808080"/>
<path d="M397.234 508.577L394.444 510.417C393.592 510.872 392.89 511.564 392.424 512.41C391.816 513.829 392.635 515.433 393.544 516.682C396.27 520.407 399.992 523.289 404.283 524.997C405.77 525.615 407.342 526.006 408.946 526.156C409.311 526.216 409.685 526.171 410.025 526.026C410.877 525.572 410.755 524.365 410.763 523.4C410.763 520.62 412.896 518.359 414.819 516.309C416.741 514.258 418.639 511.746 418.201 509.015C417.8 507.392 416.958 505.911 415.768 504.736C414.723 503.418 413.494 502.258 412.118 501.291C410.147 500.003 409.457 500.7 407.608 501.875C404.131 504.084 400.673 506.319 397.234 508.577Z" fill="white"/>
<path d="M406.286 522.145C405.528 522.337 404.736 522.347 403.973 522.175C403.211 522.003 402.5 521.654 401.898 521.156C400.699 520.152 399.728 518.903 399.051 517.493C398.37 516.246 397.779 514.951 397.283 513.619C396.699 512.055 396.163 510.329 394.784 509.381C393.162 508.23 390.778 508.684 389.107 509.794C387.436 510.904 386.17 512.55 384.735 513.976C381.353 517.347 376.9 519.479 372.325 520.873C367.75 522.267 363.006 522.964 358.309 523.863C357.367 523.989 356.455 524.283 355.617 524.73C353.719 525.889 353.078 528.475 353.613 530.63C354.148 532.786 355.552 534.569 357.085 536.19C358.362 537.702 359.946 538.926 361.732 539.78C363.239 540.329 364.825 540.63 366.428 540.672C374.208 541.197 382.023 540.585 389.626 538.856C392.416 538.095 395.257 537.529 398.126 537.163C399.87 537.009 401.638 537.057 403.382 536.936C406.866 536.696 410.273 535.799 413.423 534.294C414.189 534.011 414.834 533.473 415.248 532.77C415.477 532.125 415.525 531.43 415.386 530.76L414.226 520.597C414.121 519.714 413.829 518.612 412.945 518.474C412.061 518.336 411.501 519.203 410.974 519.868C409.951 521.09 408.55 521.938 406.993 522.278C405.435 522.618 403.808 522.432 402.368 521.748" fill="#CCCCCC"/>
<path d="M473.639 393.98C468.538 393.405 462.617 393.308 459.161 397.109C457.044 399.443 456.404 402.709 455.674 405.764C454.529 410.905 452.667 415.859 450.142 420.482C448.52 423.351 446.549 426.033 445.275 429.081C444.002 432.128 443.523 435.564 442.777 438.879C439.789 451.878 432.488 463.486 422.062 471.815C423.903 476.816 429.232 479.676 434.415 480.957C435.665 481.371 437.01 481.413 438.284 481.079C439.249 480.661 440.106 480.029 440.79 479.231C443.212 476.615 445.468 473.852 447.546 470.956C455.017 460.988 462.592 450.817 466.664 439.057C468.092 434.924 469.519 430.142 473.534 428.384C475.821 427.395 478.441 427.703 480.899 428.124C486.391 429.052 491.795 430.437 497.056 432.266C502.669 434.219 509.092 436.618 514.227 433.635C517.301 431.844 519.093 428.416 519.799 424.931C520.505 421.446 520.148 417.848 519.799 414.314C519.765 412.722 519.383 411.156 518.68 409.727C517.969 408.657 517.057 407.735 515.995 407.012C511.408 403.541 506.307 400.806 500.876 398.908C495.693 397.076 490.113 396.476 484.703 395.561C481.031 394.923 477.343 394.396 473.639 393.98Z" fill="#CCCCCC"/>
<path opacity="0.1" d="M473.639 393.98C468.538 393.405 462.617 393.308 459.161 397.109C457.044 399.443 456.404 402.709 455.674 405.764C454.529 410.905 452.667 415.859 450.142 420.482C448.52 423.351 446.549 426.033 445.275 429.081C444.002 432.128 443.523 435.564 442.777 438.879C439.789 451.878 432.488 463.486 422.062 471.815C423.903 476.816 429.232 479.676 434.415 480.957C435.665 481.371 437.01 481.413 438.284 481.079C439.249 480.661 440.106 480.029 440.79 479.231C443.212 476.615 445.468 473.852 447.546 470.956C455.017 460.988 462.592 450.817 466.664 439.057C468.092 434.924 469.519 430.142 473.534 428.384C475.821 427.395 478.441 427.703 480.899 428.124C486.391 429.052 491.795 430.437 497.056 432.266C502.669 434.219 509.092 436.618 514.227 433.635C517.301 431.844 519.093 428.416 519.799 424.931C520.505 421.446 520.148 417.848 519.799 414.314C519.765 412.722 519.383 411.156 518.68 409.727C517.969 408.657 517.057 407.735 515.995 407.012C511.408 403.541 506.307 400.806 500.876 398.908C495.693 397.076 490.113 396.476 484.703 395.561C481.031 394.923 477.343 394.396 473.639 393.98Z" fill="#808080"/>
<path d="M444.424 430.758C442.042 431.948 439.854 433.492 437.935 435.337C435.867 437.542 434.61 440.386 433.539 443.223C433.119 444.19 432.861 445.219 432.777 446.27C432.738 446.795 432.819 447.322 433.014 447.81C433.21 448.299 433.514 448.737 433.904 449.09C434.847 449.708 435.969 449.993 437.092 449.901C438.568 449.901 440.052 449.901 441.529 449.787C442.428 449.781 443.318 449.61 444.157 449.285C444.924 448.893 445.616 448.369 446.201 447.737C448.802 445.323 450.933 442.449 452.487 439.26C453.557 436.901 455.325 431.455 453.638 428.999C451.951 426.544 446.257 429.713 444.424 430.758Z" fill="#FFBFC5"/>
<path d="M515.987 429.916C508.435 432.347 500.397 432.607 492.505 433.344C479.231 434.585 466.118 437.176 453.37 441.076C450.758 441.886 448.09 442.762 445.989 444.504C444.282 446.081 442.836 447.92 441.706 449.95C439.633 453.106 437.756 456.386 436.085 459.773C434.65 462.836 433.555 466.046 432.225 469.15C427.743 479.547 420.656 488.616 411.647 495.481C410.025 496.737 408.168 498.099 407.746 500.117C407.554 501.419 407.766 502.748 408.354 503.926C410.301 508.456 414.34 511.755 418.582 514.275C420.399 515.361 422.41 516.455 423.303 518.384C429.743 515.726 434.536 510.053 438.519 504.347C442.501 498.642 446.046 492.49 451.156 487.757C453.402 485.666 455.957 483.851 457.734 481.339C460.435 477.513 461.165 472.278 464.798 469.328C468.432 466.378 473.72 466.759 478.417 467.221C502.478 469.565 526.723 469.293 550.726 466.41C555.714 465.819 560.84 465.057 565.163 462.488C569.486 459.919 572.853 455.121 572.244 450.137C571.668 445.468 567.783 441.773 563.444 439.949C559.104 438.126 554.319 437.794 549.655 437.267C538.048 435.986 526.969 433.879 515.987 429.916Z" fill="#CCCCCC"/>
<path d="M585.003 439.601C584.411 435.646 582.878 431.902 581.913 428.02C581.431 425.576 580.819 423.16 580.08 420.782C580.08 420.709 580.023 420.644 579.999 420.58C579.754 420.56 579.517 420.486 579.304 420.365C579.091 420.243 578.907 420.075 578.766 419.875C578.633 419.529 578.596 419.153 578.661 418.789C578.689 418.403 578.689 418.015 578.661 417.63C577.08 414.983 575.352 412.426 573.486 409.971C570.241 405.343 567.386 400.424 564.564 395.513C562.244 391.46 559.924 387.457 558.01 383.226C556.566 380.058 555.358 376.743 553.768 373.679C548.09 362.657 537.935 354.529 527.002 348.693C516.506 343.093 505.159 339.325 494.128 334.867C493.847 335.149 493.59 335.452 493.358 335.775C487.396 343.92 486.755 354.618 484.298 364.408C483.308 368.363 481.986 372.302 481.986 376.37C481.986 382.383 484.865 387.976 487.729 393.268C490.413 398.252 493.179 403.236 496.74 407.637C498.427 409.728 500.284 411.689 501.979 413.756C508.939 422.273 512.954 432.753 516.863 443.037C519.118 448.994 522.817 454.27 525.299 460.137C526.256 462.39 526.807 464.814 528.008 466.953C529.208 469.093 531.293 470.957 533.742 471.005C534.459 470.983 535.17 470.872 535.859 470.673C544.724 468.396 552.146 462.569 559.511 457.106C560.833 456.134 562.155 455.178 563.566 454.302C564.977 453.427 566.405 452.625 567.849 451.871L571.142 450.064C574.727 448.102 578.328 446.133 582.067 444.472C583.196 444.031 584.282 443.489 585.312 442.851C585.301 441.761 585.198 440.673 585.003 439.601Z" fill="#535461"/>
<path d="M469.114 351.894C457.834 351.894 448.69 342.758 448.69 331.487C448.69 320.217 457.834 311.08 469.114 311.08C480.393 311.08 489.537 320.217 489.537 331.487C489.537 342.758 480.393 351.894 469.114 351.894Z" fill="#FFBFC5"/>
<path d="M455.366 321.94C454.868 322.799 454.12 323.485 453.221 323.907C452.322 324.328 451.316 324.465 450.337 324.299C449.362 324.103 448.44 323.704 447.63 323.127C446.821 322.55 446.143 321.809 445.641 320.952C444.647 319.231 444.054 317.308 443.905 315.327C443.735 313.779 443.759 312.085 444.756 310.878C445.515 310.136 446.389 309.523 447.344 309.062C448.666 308.252 449.777 307.141 450.588 305.821C451.156 304.872 451.57 303.843 452.081 302.871C453.938 299.345 457.556 296.476 461.538 296.606C463.452 296.671 465.277 297.416 467.167 297.724C473.502 298.835 480.38 295.487 486.26 298.097C487.704 298.8 489.046 299.694 490.251 300.755C491.906 302.122 493.495 303.559 495.02 305.067C496.344 306.193 497.346 307.65 497.924 309.289C498.735 312.288 496.829 315.635 498.037 318.488C498.448 319.305 498.939 320.079 499.506 320.798C500.836 322.751 499.392 330.377 499.506 332.735C499.67 333.88 499.379 335.044 498.694 335.977C497.729 337.055 496.115 337.144 494.639 337.16H491.987C491.59 337.189 491.192 337.148 490.811 337.039C490.289 336.81 489.83 336.46 489.472 336.018C487.266 333.692 486.796 326.098 483.592 326.13C483.103 326.098 482.617 326.223 482.205 326.487C481.629 326.908 481.459 327.694 481.045 328.278C480.575 328.833 479.939 329.223 479.231 329.389C478.522 329.556 477.779 329.49 477.111 329.202C475.789 328.588 474.638 327.658 473.761 326.495C472.89 325.333 471.832 324.322 470.63 323.504C468.919 322.508 466.989 322.078 465.326 320.952C463.939 320.011 463.152 318.65 461.903 317.612C460.654 316.575 459.6 316.721 458.269 317.41C456.347 318.472 456.266 320.157 455.366 321.94Z" fill="#535461"/>
<path opacity="0.1" d="M502.555 357.892C497.788 357.212 492.928 357.6 488.329 359.027C486.793 359.38 485.406 360.205 484.362 361.385C483.765 362.276 483.377 363.29 483.227 364.351C482.289 369.233 482.893 374.285 484.955 378.809C485.1 379.035 485.196 379.289 485.236 379.554C485.277 379.82 485.261 380.091 485.19 380.349C484.98 380.674 484.704 380.95 484.379 381.16C484.093 381.436 483.869 381.77 483.721 382.139C483.573 382.508 483.505 382.904 483.521 383.301C483.537 383.698 483.637 384.087 483.814 384.443C483.991 384.799 484.242 385.114 484.549 385.366C484.93 385.642 485.433 385.885 485.506 386.347C485.579 386.809 485.109 387.254 484.736 387.611C484.192 388.143 483.79 388.804 483.569 389.532C483.348 390.26 483.314 391.032 483.47 391.777C483.671 392.374 483.81 392.99 483.884 393.616C483.803 394.385 483.574 395.131 483.211 395.813C482.591 397.354 482.381 399.029 482.602 400.675C482.799 401.453 482.818 402.264 482.659 403.05C482.431 403.569 482.125 404.05 481.751 404.476C480.283 406.454 479.966 409.76 482.091 410.96C481.181 411.428 480.439 412.169 479.97 413.078C479.5 413.987 479.326 415.02 479.472 416.033C478.198 415.36 476.657 416.228 475.595 417.2C474.532 418.173 473.453 419.372 472.018 419.445C471.012 419.494 469.949 418.975 469.041 419.388C467.646 420.012 467.694 422.274 466.324 422.946C465.123 423.546 463.444 422.573 462.422 423.441C462.065 423.74 461.887 424.202 461.538 424.518C460.768 425.232 459.551 424.932 458.497 424.883C456.007 424.786 453.711 426.504 452.422 428.595C451.132 430.686 450.67 433.239 450.337 435.703C450.063 437.056 450.091 438.454 450.418 439.795C450.59 440.462 450.955 441.064 451.467 441.525C451.979 441.986 452.616 442.287 453.298 442.389C465.829 443.199 478.198 440.192 490.405 437.226C493.99 436.351 497.632 435.33 500.625 433.174C503.342 431.205 505.337 428.433 507.284 425.71C510.877 420.677 514.495 415.612 517.066 409.995C520.375 402.774 521.851 394.864 523.295 387.044C523.793 384.948 523.971 382.79 523.822 380.641C523.385 378.129 522.424 375.738 521 373.623C519.282 370.821 517.386 368.133 515.322 365.575C512.183 361.709 507.487 358.597 502.555 357.892Z" fill="#808080"/>
<path d="M501.736 357.081C496.965 356.401 492.102 356.791 487.501 358.224C485.965 358.571 484.577 359.393 483.535 360.574C482.941 361.466 482.553 362.479 482.399 363.54C481.465 368.422 482.069 373.473 484.127 377.998C484.272 378.224 484.368 378.478 484.408 378.743C484.449 379.009 484.433 379.28 484.362 379.538C484.152 379.863 483.876 380.139 483.551 380.349C483.265 380.625 483.041 380.959 482.893 381.328C482.745 381.697 482.677 382.093 482.693 382.49C482.709 382.887 482.809 383.276 482.986 383.632C483.164 383.988 483.414 384.303 483.721 384.555C484.103 384.83 484.605 385.074 484.678 385.536C484.751 385.998 484.281 386.443 483.867 386.8C483.323 387.332 482.922 387.993 482.701 388.721C482.48 389.449 482.446 390.221 482.602 390.966C482.803 391.563 482.942 392.179 483.016 392.805C482.938 393.573 482.712 394.319 482.351 395.002C481.725 396.541 481.512 398.217 481.734 399.864C481.985 400.511 482.038 401.217 481.886 401.894C481.735 402.571 481.385 403.187 480.883 403.665C479.414 405.643 479.098 408.949 481.223 410.197C480.313 410.663 479.57 411.402 479.101 412.31C478.631 413.219 478.457 414.251 478.603 415.263C477.33 414.59 475.789 415.457 474.726 416.43C473.664 417.402 472.585 418.602 471.149 418.675C470.144 418.723 469.089 418.205 468.173 418.618C466.778 419.25 466.826 421.503 465.455 422.184C464.255 422.775 462.576 421.803 461.554 422.67C461.197 422.97 461.019 423.432 460.67 423.748C459.899 424.461 458.683 424.161 457.628 424.113C455.138 424.015 452.843 425.734 451.553 427.824C450.379 430.026 449.67 432.445 449.469 434.932C449.209 436.273 449.237 437.654 449.55 438.984C449.722 439.651 450.087 440.253 450.599 440.714C451.111 441.175 451.748 441.475 452.429 441.578C464.961 442.388 477.33 439.381 489.537 436.415C493.122 435.54 496.772 434.519 499.757 432.363C502.474 430.402 504.469 427.622 506.416 424.899C510.009 419.874 513.626 414.809 516.198 409.192C519.507 401.963 520.983 394.053 522.427 386.241C522.925 384.143 523.103 381.981 522.954 379.83C522.54 377.321 521.604 374.927 520.204 372.804C518.492 370.001 516.595 367.316 514.527 364.764C511.355 360.882 506.659 357.778 501.736 357.081Z" fill="#535461"/>
<path d="M38.5676 214.047C36.3751 213.629 34.2917 212.767 32.4461 211.513C30.6006 210.259 29.0322 208.64 27.8382 206.756C26.6441 204.872 25.8497 202.763 25.5042 200.56C25.1587 198.356 25.2694 196.106 25.8294 193.947C26.3894 191.788 27.3868 189.767 28.76 188.009C30.1331 186.251 31.8527 184.793 33.8124 183.726C35.7721 182.659 37.9301 182.005 40.1529 181.804C42.3758 181.604 44.6161 181.861 46.7354 182.561C40.3809 191.765 37.4878 202.917 38.5676 214.047V214.047Z" fill="#A3A3A3"/>
<path d="M13.2698 207.457C11.0773 207.04 8.99384 206.177 7.1483 204.923C5.30277 203.669 3.7345 202.05 2.54045 200.166C1.3464 198.282 0.552013 196.173 0.20648 193.97C-0.139054 191.766 -0.0283705 189.516 0.53163 187.357C1.09163 185.198 2.08902 183.177 3.46214 181.419C4.83527 179.661 6.55488 178.203 8.51455 177.136C10.4742 176.069 12.6322 175.415 14.8551 175.214C17.0779 175.014 19.3183 175.272 21.4375 175.971C15.0831 185.175 12.1901 196.327 13.2698 207.457V207.457Z" fill="#A3A3A3"/>
<path d="M38.5677 214.046C42.6359 214.82 46.8465 214.018 50.3453 211.805C53.844 209.591 56.3691 206.13 57.4082 202.124C58.4473 198.119 57.9226 193.868 55.9406 190.235C53.9586 186.602 50.6677 183.858 46.7355 182.56C52.2417 174.593 60.0622 168.506 69.1408 165.122C78.2195 161.738 88.1188 161.219 97.502 163.636C77.9209 189.775 68.9144 222.326 72.2769 254.803C63.2349 252.136 55.1959 246.832 49.1902 239.57C43.1845 232.309 39.4856 223.421 38.5677 214.046V214.046Z" fill="#A3A3A3"/>
<path d="M330.408 227.516C339.533 229.467 347.878 234.069 354.395 240.744C360.912 247.418 365.31 255.868 367.037 265.031C363.111 264.947 359.286 266.282 356.265 268.789C353.245 271.297 351.231 274.809 350.593 278.681C349.956 282.553 350.739 286.525 352.797 289.867C354.855 293.209 358.051 295.697 361.797 296.873C356.432 306.459 347.892 313.878 337.646 317.855C327.4 321.832 316.088 322.119 305.653 318.666C325.061 292.464 333.897 259.927 330.408 227.516V227.516Z" fill="#A3A3A3"/>
<path d="M367.021 265.031C369.363 265.073 371.669 265.618 373.781 266.63C375.893 267.641 377.763 269.095 379.263 270.893C380.763 272.691 381.858 274.79 382.474 277.048C383.09 279.307 383.212 281.671 382.832 283.98C382.452 286.29 381.578 288.49 380.271 290.433C378.965 292.375 377.254 294.014 375.257 295.237C373.26 296.46 371.023 297.239 368.698 297.522C366.373 297.804 364.014 297.583 361.781 296.874C367.198 287.197 369.052 275.931 367.021 265.031V265.031Z" fill="#A3A3A3"/>
<path d="M396.861 272.082C399.203 272.124 401.509 272.669 403.621 273.681C405.733 274.692 407.603 276.146 409.103 277.944C410.603 279.742 411.698 281.841 412.314 284.099C412.93 286.357 413.052 288.722 412.671 291.031C412.291 293.341 411.418 295.541 410.111 297.484C408.804 299.426 407.094 301.064 405.097 302.288C403.1 303.511 400.863 304.29 398.538 304.573C396.212 304.855 393.853 304.634 391.621 303.924C397.033 294.246 398.887 282.982 396.861 272.082Z" fill="#A3A3A3"/>
<path d="M147.028 123.674L173.315 155.857C172.053 157.833 170.944 159.903 169.998 162.048L141.058 126.624C143.045 125.546 145.016 124.557 147.028 123.674Z" fill="#A3A3A3"/>
<path d="M72.2769 254.803C78.2962 256.551 84.6032 257.087 90.8316 256.38C97.0601 255.673 103.086 253.737 108.559 250.684C114.033 247.631 118.845 243.523 122.717 238.597C126.588 233.671 129.442 228.025 131.112 221.988C132.783 215.951 133.237 209.643 132.447 203.429C131.658 197.216 129.641 191.221 126.515 185.792C123.388 180.364 119.213 175.61 114.233 171.806C109.252 168.003 103.565 165.226 97.5019 163.636C107.992 149.703 121.166 138.008 136.248 129.241L129.127 135.052L165.95 180.128C165.75 189.024 168.065 197.795 172.63 205.435C177.194 213.075 183.823 219.274 191.754 223.319C199.685 227.364 208.598 229.091 217.467 228.303C226.337 227.515 234.805 224.243 241.897 218.862C248.989 213.482 254.419 206.212 257.562 197.887C260.706 189.562 261.435 180.52 259.667 171.8C257.899 163.08 253.705 155.034 247.566 148.588C241.428 142.142 233.595 137.557 224.966 135.36L227.926 132.928L210.893 112.092C241.183 114.316 269.733 127.086 291.571 148.176C313.409 169.267 327.153 197.343 330.408 227.515C318.556 224.951 306.171 227.031 295.809 233.325C285.447 239.619 277.898 249.648 274.72 261.341C271.542 273.035 272.978 285.501 278.731 296.168C284.484 306.835 294.115 314.888 305.637 318.666C290.063 339.669 268.498 355.479 243.773 364.022C219.048 372.564 192.316 373.44 167.083 366.535C141.851 359.629 119.296 345.265 102.378 325.326C85.4592 305.387 74.9668 280.805 72.2769 254.803V254.803ZM212.799 340.54C220.055 334.625 225.392 326.693 228.136 317.747C230.88 308.801 230.907 299.243 228.214 290.282C225.522 281.321 220.23 273.358 213.008 267.402C205.786 261.446 196.959 257.764 187.643 256.821C178.326 255.878 168.939 257.716 160.669 262.104C152.398 266.492 145.615 273.231 141.179 281.471C136.742 289.711 134.85 299.08 135.742 308.394C136.635 317.708 140.271 326.548 146.192 333.797C154.13 343.515 165.607 349.686 178.098 350.95C190.589 352.215 203.071 348.47 212.799 340.54V340.54Z" fill="#A3A3A3"/>
<path d="M184.297 112.871C186.866 112.531 189.445 112.26 192.035 112.061L209.944 133.991C207.431 134.159 204.936 134.531 202.482 135.101L184.297 112.871Z" fill="#A3A3A3"/>
<path d="M183.105 144.746L161.311 118.066C163.55 117.337 165.799 116.672 168.059 116.072L188.394 140.961C186.631 142.048 184.941 143.247 183.332 144.551L183.105 144.746Z" fill="#A3A3A3"/>
</svg>
