<svg width="573" height="592" viewBox="0 0 573 592" fill="none" xmlns="http://www.w3.org/2000/svg">
<path d="M554.457 592V485.012C554.457 485.012 596.18 560.862 554.457 592Z" fill="#C8CCD0"/>
<path d="M557.034 591.982L478.167 519.629C478.167 519.629 562.296 540.21 557.034 591.982Z" fill="#949EA9"/>
<path d="M275.259 205.333C275.73 205.816 276.161 206.336 276.55 206.887L337.004 205.409L344.057 192.53L364.898 200.626L354.629 224.638C353.8 226.578 352.363 228.197 350.535 229.251C348.706 230.305 346.585 230.738 344.489 230.485L276.187 222.24C274.576 224.278 272.382 225.778 269.897 226.54C267.412 227.302 264.754 227.29 262.276 226.505C259.798 225.72 257.618 224.2 256.026 222.147C254.433 220.094 253.504 217.605 253.362 215.012C253.22 212.418 253.871 209.843 255.229 207.628C256.587 205.413 258.588 203.664 260.965 202.613C263.342 201.563 265.983 201.26 268.536 201.746C271.09 202.232 273.435 203.483 275.259 205.333V205.333Z" fill="#FFB7B7"/>
<path d="M472.333 572.229H452.455L442.998 495.608L472.336 495.61L472.333 572.229Z" fill="#FFB7B7"/>
<path d="M477.401 591.486L413.307 591.483V590.673C413.307 584.061 415.936 577.721 420.614 573.045C425.293 568.37 431.638 565.744 438.254 565.743H438.256L477.402 565.745L477.401 591.486Z" fill="#C8CCD0"/>
<path d="M291.834 571.789L273.555 563.985L294.977 489.812L321.956 501.33L291.834 571.789Z" fill="#FFB7B7"/>
<path d="M288.928 591.486L229.986 566.323L230.305 565.578C232.904 559.498 237.814 554.698 243.954 552.236C250.094 549.773 256.962 549.848 263.047 552.445L263.048 552.446L299.047 567.815L288.928 591.486Z" fill="#C8CCD0"/>
<path d="M375.712 221.931L374.273 245.209L416.291 249.702L460.255 254.403L447.314 219.058L375.712 221.931Z" fill="#FFB7B7"/>
<path d="M372.952 245.508L356.629 131.794L384.921 122.528L393.23 111.14L433.667 113.531L439.604 126.82L461.166 137.002L457.852 198.5L460.27 249.945L372.952 245.508Z" fill="#666B71"/>
<path d="M362.678 215.035L333.9 203.529L334.023 203.017C334.147 202.501 346.395 151.353 348.021 143.134C349.715 134.571 355.905 132.203 356.167 132.107L356.359 132.036L367.748 135.5L372.75 174.773L362.678 215.035Z" fill="#C8CCD0"/>
<path d="M306.64 558.322L268.333 550.47L329.559 381.64L350.513 324.055C350.513 324.055 363.804 277.883 369.808 260.015L373.432 236.041L459.213 245.53C459.213 245.53 483.172 280.691 475.894 338.003L479.185 553.414L440.878 555.378L408.792 338.124L352.478 457.221C352.478 457.221 334.728 508.044 322.028 519.06L306.64 558.322Z" fill="#666B71"/>
<path d="M424.813 253.526C425.488 253.51 426.163 253.547 426.831 253.637L466.85 208.331L462.195 194.406L482.306 184.639L492.944 208.489C493.803 210.416 494.014 212.569 493.545 214.626C493.075 216.683 491.951 218.532 490.34 219.895L437.85 264.341C438.251 266.908 437.859 269.535 436.729 271.874C435.598 274.213 433.782 276.153 431.522 277.435C429.261 278.717 426.664 279.281 424.074 279.052C421.485 278.823 419.027 277.812 417.027 276.153C415.027 274.494 413.58 272.265 412.879 269.764C412.177 267.263 412.254 264.608 413.099 262.152C413.944 259.695 415.518 257.554 417.61 256.013C419.703 254.473 422.215 253.605 424.813 253.526V253.526Z" fill="#FFB7B7"/>
<path d="M463.655 212.74L446.961 173.499L453.472 146.166L460.487 137.309C461.001 137.089 461.555 136.978 462.114 136.984C462.673 136.989 463.224 137.11 463.734 137.339C466.321 138.38 468.524 141.569 470.283 146.818L485.928 191.351L463.655 212.74Z" fill="#C8CCD0"/>
<path d="M377.044 96.5998V67.0157C377.044 56.5018 381.223 46.4185 388.663 38.9841C396.102 31.5497 406.192 27.373 416.713 27.373C427.234 27.373 437.325 31.5497 444.764 38.9841C452.204 46.4185 456.383 56.5018 456.383 67.0157V96.5998C456.381 98.0116 455.819 99.3651 454.82 100.363C453.822 101.362 452.467 101.923 451.054 101.925H382.373C380.96 101.923 379.605 101.362 378.606 100.363C377.607 99.3651 377.046 98.0116 377.044 96.5998V96.5998Z" fill="#1D1D1E"/>
<path d="M408.562 101.236C424.625 101.236 437.646 88.223 437.646 72.171C437.646 56.1191 424.625 43.1064 408.562 43.1064C392.499 43.1064 379.478 56.1191 379.478 72.171C379.478 88.223 392.499 101.236 408.562 101.236Z" fill="#FFB7B7"/>
<path d="M367.659 69.3825C367.669 61.0685 370.978 53.0976 376.861 47.2187C382.744 41.3397 390.72 38.0328 399.04 38.0234H404.961C413.28 38.0328 421.257 41.3397 427.139 47.2187C433.022 53.0976 436.331 61.0685 436.341 69.3825V69.9742H423.828L419.56 58.0319L418.707 69.9742H412.24L410.087 63.9487L409.656 69.9742H367.659L367.659 69.3825Z" fill="#1D1D1E"/>
<path d="M405.699 105.251C405.111 104.456 404.76 103.511 404.687 102.526C404.613 101.54 404.819 100.554 405.281 99.6808C411.556 87.7547 420.341 65.718 408.68 52.1279L407.842 51.1514H441.694V101.941L410.942 107.363C410.631 107.418 410.315 107.446 409.999 107.447C409.159 107.447 408.332 107.248 407.584 106.866C406.837 106.484 406.191 105.931 405.699 105.251V105.251Z" fill="#1D1D1E"/>
<path d="M10.8057 555.494L28.7695 561.909L62.0821 495.718L35.5685 486.25L10.8057 555.494Z" fill="#9F616A"/>
<path d="M0 571.261L8.31985 547.997L43.6982 560.632C49.6732 562.774 54.5543 567.197 57.2706 572.93C59.9868 578.664 60.3164 585.24 58.1872 591.216L57.925 591.948L0 571.261Z" fill="#C8CCD0"/>
<path d="M127.623 573.251L146.7 573.249L155.777 499.717L127.62 499.718L127.623 573.251Z" fill="#9F616A"/>
<path d="M122.756 567.027L160.325 567.025H160.327C163.471 567.025 166.585 567.644 169.489 568.846C172.394 570.049 175.034 571.811 177.257 574.033C179.48 576.255 181.244 578.892 182.447 581.795C183.65 584.698 184.27 587.809 184.27 590.951V591.729L122.757 591.731L122.756 567.027Z" fill="#C8CCD0"/>
<path d="M84.1445 103.464L92.4412 87.0811C92.4412 87.0811 123.349 94.8195 126.159 112.721L84.1445 103.464Z" fill="#F1F1F1"/>
<path d="M49.9124 290.79L72.4745 416.611L12.5654 522.488L48.3555 536.483L109.043 433.852L116.823 405.861L121.491 552.033L153.769 551.054L168.567 414.565L144.832 287.68L49.9124 290.79Z" fill="#C8CCD0"/>
<path d="M92.7411 320.533C59.5951 320.533 38.5501 314.198 38.0786 314.097L37.3154 313.935L54.58 233.944L55.3573 160.16C55.3573 128.892 75.9502 105.84 78.8079 103.712C79.289 101.815 80.1789 100.044 81.4155 98.5258C82.652 97.0072 84.2054 95.7766 85.9671 94.9199C92.8361 91.8053 101.23 95.5426 101.583 95.7035L126.777 105.143L126.896 105.492C127.199 106.387 160.383 215.252 160.383 215.252C160.383 215.252 158.375 310.371 157.675 313.488C157.675 313.488 111.158 320.533 92.7411 320.533Z" fill="#949EA9"/>
<path d="M118.211 81.9229C137.017 81.9229 152.262 66.6879 152.262 47.8946C152.262 29.1012 137.017 13.8662 118.211 13.8662C99.4045 13.8662 84.1592 29.1012 84.1592 47.8946C84.1592 66.6879 99.4045 81.9229 118.211 81.9229Z" fill="#9F616A"/>
<path opacity="0.2" d="M80.2441 166.193L139.817 249.255L148.614 210.466L80.2441 166.193Z" fill="black"/>
<path d="M267.018 222.711C265.343 224.035 263.397 224.976 261.318 225.468C259.239 225.96 257.078 225.99 254.986 225.557C252.894 225.123 250.923 224.237 249.211 222.96C247.499 221.683 246.088 220.046 245.078 218.165L193.802 226.367L204.91 201.791L251.9 197.77C255.174 196.283 258.881 196.048 262.317 197.11C265.753 198.172 268.681 200.456 270.544 203.53C272.408 206.604 273.078 210.255 272.428 213.79C271.778 217.325 269.853 220.499 267.018 222.711H267.018Z" fill="#9F616A"/>
<path d="M207.551 200.391L225.975 198.585L231.081 224.269L207.897 224.678L207.551 200.391Z" fill="#F1F1F1"/>
<path d="M222.654 233.219L132.421 225.19L86.8586 152.779L86.7183 152.139C85.4253 146.224 86.3307 140.041 89.2656 134.744C92.2004 129.447 96.9641 125.398 102.667 123.354C108.37 121.31 114.623 121.41 120.258 123.635C125.892 125.861 130.524 130.06 133.288 135.448L160.034 187.583L214.012 195.736L222.654 233.219Z" fill="#949EA9"/>
<path d="M89.2073 77.439L117.47 78.4528C119.193 78.5146 123.869 59.9346 124.481 56.0803C124.964 53.571 126.346 51.3234 128.366 49.7574C130.387 48.1914 132.909 47.4139 135.462 47.5704C137.577 47.77 142.912 43.8202 148.417 39.1431C158.869 30.2636 158.325 13.5865 146.844 6.08327C146.53 5.87819 146.222 5.69095 145.92 5.52153C138.677 1.47039 130.205 0.110015 121.905 0.00623624C114.381 -0.0877964 106.644 0.858524 100.016 4.41723C88.133 10.7972 81.8089 24.7394 81.2534 38.2083C80.6978 51.6772 85.0187 64.8474 89.9218 77.4056" fill="#212224"/>
</svg>
