<svg width="592" height="519" viewBox="0 0 592 519" fill="none" xmlns="http://www.w3.org/2000/svg">
<path d="M330.087 500C448.612 500 544.696 502.026 544.696 481.087C544.696 460.148 448.612 443.174 330.087 443.174C211.562 443.174 115.479 460.148 115.479 481.087C115.479 502.026 211.562 500 330.087 500Z" fill="#1E4470"/>
<path d="M404.736 159.588C391.095 139.311 385.172 114.817 388.041 90.5478C390.91 66.2783 402.382 43.8406 420.375 27.3037C438.369 10.7667 461.692 1.22558 486.117 0.410423C510.542 -0.404739 534.45 7.56008 553.506 22.8605C572.562 38.1609 585.504 59.7838 589.985 83.808C594.466 107.832 590.189 132.667 577.93 153.808C565.672 174.95 546.243 190.998 523.167 199.043C500.09 207.088 474.895 206.597 452.15 197.659C450.676 202.922 447.919 207.738 444.127 211.674C440.335 215.611 435.626 218.546 430.421 220.216C425.217 221.886 419.68 222.24 414.305 221.245C408.93 220.251 403.886 217.939 399.624 214.517C395.362 211.095 392.015 206.669 389.883 201.636C387.75 196.603 386.899 191.12 387.406 185.678C387.912 180.235 389.76 175.003 392.785 170.45C395.809 165.897 399.915 162.165 404.736 159.588V159.588Z" fill="#3785BA"/>
<path d="M428.851 91.7051L550.413 91.7051V82.1079L428.851 82.1079V91.7051Z" fill="white"/>
<path d="M428.851 107.701L550.413 107.701V98.104L428.851 98.104V107.701Z" fill="white"/>
<path d="M428.851 123.695L550.413 123.695V114.098L428.851 114.098V123.695Z" fill="white"/>
<path d="M227.279 439.303C219.663 427.983 216.356 414.308 217.958 400.759C219.56 387.209 225.965 374.683 236.01 365.45C246.056 356.218 259.077 350.891 272.713 350.436C286.349 349.981 299.696 354.428 310.335 362.97C320.974 371.512 328.199 383.583 330.701 396.996C333.203 410.408 330.815 424.273 323.971 436.076C317.127 447.879 306.28 456.839 293.397 461.33C280.514 465.821 266.448 465.547 253.75 460.557C252.926 463.496 251.387 466.184 249.27 468.382C247.153 470.58 244.524 472.218 241.619 473.151C238.713 474.083 235.622 474.281 232.621 473.725C229.621 473.17 226.805 471.879 224.425 469.969C222.046 468.058 220.177 465.588 218.987 462.778C217.796 459.968 217.321 456.907 217.604 453.868C217.887 450.83 218.918 447.909 220.607 445.367C222.295 442.825 224.588 440.742 227.279 439.303V439.303Z" fill="#3785BA"/>
<path d="M252.21 412.758C255.856 412.758 258.812 409.802 258.812 406.155C258.812 402.509 255.856 399.553 252.21 399.553C248.563 399.553 245.607 402.509 245.607 406.155C245.607 409.802 248.563 412.758 252.21 412.758Z" fill="white"/>
<path d="M274.735 412.758C278.382 412.758 281.337 409.802 281.337 406.155C281.337 402.509 278.382 399.553 274.735 399.553C271.089 399.553 268.133 402.509 268.133 406.155C268.133 409.802 271.089 412.758 274.735 412.758Z" fill="white"/>
<path d="M297.261 412.758C300.907 412.758 303.863 409.802 303.863 406.155C303.863 402.509 300.907 399.553 297.261 399.553C293.614 399.553 290.658 402.509 290.658 406.155C290.658 409.802 293.614 412.758 297.261 412.758Z" fill="white"/>
<path d="M281.347 201.33C281.347 201.33 310.805 202.131 315.671 203.901C320.536 205.671 322.711 218.329 322.711 218.329L299.839 225.518L282.731 224.549L269.856 225.459L277.045 206.63L281.347 201.33Z" fill="#2F2E41"/>
<path d="M282.618 191.664C282.618 191.664 284.556 199.15 280.254 204.45C275.953 209.751 298.746 228.638 298.746 228.638L310.771 226.571C310.771 226.571 308.12 203.57 311.68 197.746C315.24 191.921 282.618 191.664 282.618 191.664Z" fill="#9F616A"/>
<path opacity="0.1" d="M282.618 191.664C282.618 191.664 284.556 199.15 280.254 204.45C275.953 209.751 298.746 228.638 298.746 228.638L310.771 226.571C310.771 226.571 308.12 203.57 311.68 197.746C315.24 191.921 282.618 191.664 282.618 191.664Z" fill="black"/>
<path d="M362.588 410.531L336.057 445.716L354.163 456.287L379.083 415.515L362.588 410.531Z" fill="#9F616A"/>
<path d="M343.977 446.308C343.977 446.308 334.207 434.956 334.642 437.487C335.077 440.019 327.69 461.487 334.563 463.564C341.435 465.641 400.372 471.149 401.183 464.493C401.994 457.838 383.601 453.181 383.601 453.181C383.601 453.181 372.674 442.679 370.251 443.747C367.828 444.815 343.977 446.308 343.977 446.308Z" fill="#2F2E41"/>
<path d="M356.635 444.134L377.826 480.237L393.826 470.972L372.457 441.414L356.635 444.134Z" fill="#9F616A"/>
<path d="M390.088 358.24L383.799 367.14C383.799 367.14 353.816 408.782 357 412.144C360.185 415.506 373.445 428.213 380.189 425.751C386.933 423.289 410.894 380.727 410.894 380.727L404.644 355.738L390.088 358.24Z" fill="#2F2E41"/>
<path d="M260.932 349.815C260.932 349.815 267.647 362.344 284.665 366.586C301.684 370.828 319.464 379.501 320.096 379.392C320.729 379.283 322.519 378.324 322.954 380.856C323.389 383.387 328.057 387.798 328.057 387.798C328.057 387.798 346.855 451.679 354.035 451.748C361.214 451.817 375.968 446.675 376.274 444.668C376.581 442.66 354.291 377.424 354.074 376.158L351.463 360.969C351.463 360.969 380.941 365.676 383.69 366.507C386.439 367.338 410.894 380.727 410.894 380.727C410.894 380.727 435.823 362.759 412.506 344.613C389.188 326.467 349.11 313.157 349.11 313.157L334.731 309.113L322.2 308.365L320.355 301.289L290.677 303.001L259.706 316.144L260.932 349.815Z" fill="#2F2E41"/>
<path d="M300.101 206.564C312.868 206.564 323.219 196.214 323.219 183.446C323.219 170.678 312.868 160.328 300.101 160.328C287.333 160.328 276.983 170.678 276.983 183.446C276.983 196.214 287.333 206.564 300.101 206.564Z" fill="#9F616A"/>
<path d="M279.186 202.027L281.967 201.549C281.967 201.549 286.989 220.885 302.524 224.079C302.524 224.079 310.189 214.896 309.862 213.346C309.535 211.797 315.933 203.53 319.334 208.158C322.736 212.786 318.504 294.309 321.362 295.772C324.22 297.236 330.351 298.788 325.416 304.197C320.482 309.607 300.882 316.885 296.541 314.373C292.2 311.861 283.33 290.581 279.493 283.421C275.656 276.262 269.515 251.906 269.515 251.906C269.515 251.906 261.674 225.236 266.499 219.194C271.325 213.152 279.186 202.027 279.186 202.027Z" fill="#D0CDE1"/>
<path d="M301.311 302.39C300.794 308.069 299.91 313.708 298.663 319.273C297.529 323.8 296.209 326.533 294.703 326.417C290.859 326.13 289.112 331.767 288.211 338.267C287.248 345.163 287.248 353.03 286.72 355.81C286.021 359.483 281.548 362.286 272.61 361.463C267.287 360.857 262.063 359.576 257.063 357.65C244.996 353.263 245.353 317.681 247.372 291.278C248.607 275.094 250.463 262.351 250.463 262.351C250.463 262.351 246.797 251.417 245.625 243.923C245.391 242.556 245.274 241.171 245.275 239.784C245.454 233.238 257.405 215.548 264.627 204.529C271.857 193.509 281.719 201.593 281.719 201.593L278.286 211.953C278.286 211.953 283.606 220.161 283.645 227.973C283.684 235.785 296.38 241.423 300.938 245.205C303.804 247.581 303.734 279.303 301.311 302.39Z" fill="#2F2E41"/>
<path d="M311.349 205.295C311.349 205.295 312.182 206.28 315.996 205.799C320.571 205.223 326.861 206.806 328.323 211.174C331.003 219.184 338.558 251.767 338.558 251.767C338.558 251.767 341.702 289.018 343.116 297.246C344.53 305.473 343.828 312.761 345.223 317.083C346.617 321.404 331.458 309.023 325.871 310.635C320.283 312.247 316.694 291.362 317.396 284.074C318.098 276.786 318.691 268.865 316.753 261.379C314.815 253.893 318.251 234.081 318.123 229.542C317.994 225.003 305.803 213.564 311.349 205.295Z" fill="#2F2E41"/>
<path d="M327.706 321.07C327.706 321.07 352.183 334.424 354.526 353.431C356.869 372.437 321.787 335.027 321.787 335.027L327.706 321.07Z" fill="#9F616A"/>
<path d="M341.679 307.592C341.679 307.592 349.179 345.397 360.863 343.389C372.547 341.381 354.336 305.416 354.336 305.416L341.679 307.592Z" fill="#9F616A"/>
<path d="M376.53 463.449C376.53 463.449 370.547 470.341 369.064 469.293C367.58 468.245 364.169 482.514 367.244 485.243C370.32 487.973 382.166 492.452 382.295 496.991C382.423 501.53 414.196 500.63 415.333 495.874C416.47 491.117 411.348 480.269 407.748 478.282C404.149 476.294 390.84 458 390.84 458C390.84 458 380.416 459.523 376.53 463.449Z" fill="#2F2E41"/>
<path opacity="0.1" d="M323.808 344.192C318.131 340.185 302.282 339.191 288.211 338.267C282.037 337.871 276.205 337.483 271.725 336.854C267.407 336.256 263.524 332.311 260.077 326.433C254.85 317.526 250.626 304.169 247.372 291.278C248.607 275.094 250.463 262.351 250.463 262.351C250.463 262.351 246.798 251.417 245.625 243.923C246.452 242.773 247.516 241.814 248.747 241.112C263.672 234.706 277.922 297.754 279.731 307.648C279.762 307.811 279.785 307.966 279.809 308.098C280.686 313.192 290.168 317.549 298.663 319.273C303.897 320.337 308.766 320.407 311.01 319.024C316.904 315.405 335.029 329.888 336.403 330.3C337.778 330.719 331.962 349.962 323.808 344.192Z" fill="black"/>
<path d="M248.749 237.23C248.749 237.23 237.901 242.352 242.668 266.293C247.434 290.234 257.036 330.936 271.721 332.973C286.405 335.01 315.646 334.545 323.804 340.31C331.962 346.076 337.777 326.832 336.402 326.417C335.028 326.001 316.902 311.524 311.008 315.143C305.115 318.763 281.224 312.444 279.809 304.216C278.395 295.989 263.918 230.713 248.749 237.23Z" fill="#2F2E41"/>
<path d="M326.919 225.75L338.841 253.414C338.841 253.414 340.041 252.816 341.436 257.137C342.83 261.458 343.483 265.256 345.925 268.094C348.368 270.932 359.235 311.416 359.562 313.315C359.888 315.214 344.552 321.759 341.125 316.484C337.698 311.209 326.919 225.75 326.919 225.75Z" fill="#2F2E41"/>
<path d="M286.948 183.124C287.834 182.887 287.964 181.711 287.994 180.794C288.153 175.886 291.108 170.85 295.806 169.421C297.609 168.927 299.497 168.823 301.343 169.116C303.978 169.467 306.523 170.316 308.841 171.618C310.065 172.306 311.265 173.134 312.653 173.344C313.569 173.483 317.538 174.637 318.451 174.8C320.458 175.157 322.323 176.952 324.249 176.284C326.091 175.645 326.499 173.259 326.543 171.31C326.645 166.868 323.273 160.721 320.303 157.417C318.05 154.91 314.656 153.752 311.339 153.15C307.464 152.528 303.537 152.289 299.615 152.437C294.307 152.532 288.851 152.942 284.064 155.239C279.277 157.536 275.256 162.107 275.027 167.412C274.979 168.517 275.093 169.626 275 170.728C274.774 173.417 273.346 175.846 272.676 178.459C272.197 180.377 272.126 182.374 272.466 184.321C272.806 186.268 273.551 188.122 274.652 189.764C276.428 192.378 279.22 194.743 279.118 197.902L282.97 193.911C283.545 193.472 283.952 192.849 284.124 192.145C284.295 191.442 284.22 190.701 283.911 190.047L282.547 184.728C282.197 183.779 282.155 182.743 282.429 181.768C283.891 178.156 285.471 183.518 286.948 183.124Z" fill="#2F2E41"/>
<path d="M462.015 449.101C461.855 448.84 458.091 442.555 456.786 429.503C455.589 417.529 456.358 397.345 466.826 369.19C486.656 315.854 462.256 272.818 462.007 272.39L463.21 271.691C463.274 271.8 469.57 282.772 473.289 300.244C478.204 323.408 476.414 347.492 468.13 369.676C448.334 422.921 463.051 448.127 463.202 448.376L462.015 449.101Z" fill="#1E4470"/>
<path d="M454.261 269.257C459.256 269.257 463.305 265.208 463.305 260.214C463.305 255.219 459.256 251.17 454.261 251.17C449.267 251.17 445.218 255.219 445.218 260.214C445.218 265.208 449.267 269.257 454.261 269.257Z" fill="#3785BA"/>
<path d="M482.783 302.65C487.777 302.65 491.826 298.601 491.826 293.606C491.826 288.611 487.777 284.562 482.783 284.562C477.788 284.562 473.739 288.611 473.739 293.606C473.739 298.601 477.788 302.65 482.783 302.65Z" fill="#1E4470"/>
<path d="M463.304 324.911C468.299 324.911 472.348 320.862 472.348 315.868C472.348 310.873 468.299 306.824 463.304 306.824C458.31 306.824 454.261 310.873 454.261 315.868C454.261 320.862 458.31 324.911 463.304 324.911Z" fill="#3785BA"/>
<path d="M486.957 343.693C491.951 343.693 496 339.644 496 334.649C496 329.654 491.951 325.605 486.957 325.605C481.962 325.605 477.913 329.654 477.913 334.649C477.913 339.644 481.962 343.693 486.957 343.693Z" fill="#3785BA"/>
<path d="M456.348 372.911C461.343 372.911 465.392 368.862 465.392 363.868C465.392 358.873 461.343 354.824 456.348 354.824C451.354 354.824 447.305 358.873 447.305 363.868C447.305 368.862 451.354 372.911 456.348 372.911Z" fill="#1E4470"/>
<path d="M467.478 449.434C467.478 449.434 458.435 427.172 485.565 410.477L467.478 449.434Z" fill="#1E4470"/>
<path d="M456.356 449.03C456.356 449.03 452.24 425.357 420.385 425.56L456.356 449.03Z" fill="#1E4470"/>
</svg>
