<svg width="300" height="125" viewBox="0 0 300 125" fill="none" xmlns="http://www.w3.org/2000/svg">
<g filter="url(#filter0_d)">
<rect x="4" y="4" width="286" height="111" rx="20" fill="url(#paint0_linear)"/>
</g>
<ellipse cx="241" cy="68.5" rx="38" ry="38.5" fill="#163962"/>
<path d="M232.194 62.81V65H230.574V58.33H233.574C234.354 58.33 234.968 58.5067 235.414 58.86C235.861 59.2133 236.084 59.76 236.084 60.5C236.084 61.24 235.861 61.81 235.414 62.21C234.968 62.61 234.354 62.81 233.574 62.81H232.194ZM232.194 61.56H233.374C233.721 61.56 233.968 61.47 234.114 61.29C234.261 61.11 234.334 60.8833 234.334 60.61C234.334 60.3033 234.261 60.0567 234.114 59.87C233.968 59.6833 233.721 59.59 233.374 59.59H232.194V61.56ZM237.165 59.25V58.1H238.705V59.25H237.165ZM237.195 65V60.01H238.685L238.695 65H237.195ZM240.206 59.18V58.03H241.746V59.18H240.206ZM239.436 66.93V65.72C239.963 65.7733 240.226 65.5467 240.226 65.04V59.94H241.716L241.736 65.04C241.736 65.52 241.633 65.8967 241.426 66.17C241.226 66.45 240.953 66.6467 240.606 66.76C240.26 66.8733 239.87 66.93 239.436 66.93ZM243.063 60.37C243.23 60.2767 243.463 60.1867 243.763 60.1C244.07 60.0133 244.393 59.9433 244.733 59.89C245.08 59.83 245.397 59.8 245.683 59.8C246.363 59.8 246.89 59.9333 247.263 60.2C247.643 60.4667 247.833 60.9333 247.833 61.6V65H246.343V61.9C246.343 61.64 246.27 61.43 246.123 61.27C245.977 61.11 245.723 61.03 245.363 61.03C245.21 61.03 245.057 61.05 244.903 61.09C244.75 61.1233 244.633 61.16 244.553 61.2V65H243.063V60.37ZM249.287 62.45V61.42H252.337V62.45H249.287ZM223.918 77.15C223.404 77.15 222.954 77.0467 222.568 76.84C222.181 76.6267 221.881 76.3267 221.668 75.94C221.454 75.5533 221.348 75.0867 221.348 74.54C221.348 73.66 221.564 72.98 221.998 72.5C222.438 72.0133 223.061 71.77 223.868 71.77C224.701 71.77 225.301 72.04 225.668 72.58C226.034 73.1133 226.214 73.8733 226.208 74.86H222.868C222.928 75.2 223.071 75.46 223.298 75.64C223.531 75.82 223.858 75.91 224.278 75.91C224.558 75.91 224.831 75.8667 225.098 75.78C225.371 75.6867 225.591 75.6033 225.758 75.53V76.81C225.518 76.91 225.248 76.99 224.948 77.05C224.654 77.1167 224.311 77.15 223.918 77.15ZM223.808 72.91C223.568 72.91 223.361 72.9867 223.188 73.14C223.021 73.2867 222.911 73.5433 222.858 73.91H224.728C224.681 73.55 224.584 73.2933 224.438 73.14C224.291 72.9867 224.081 72.91 223.808 72.91ZM229.663 77.15C229.136 77.15 228.67 77.07 228.263 76.91C227.856 76.75 227.536 76.4733 227.303 76.08C227.076 75.6867 226.963 75.1367 226.963 74.43C226.963 73.61 227.163 72.9633 227.563 72.49C227.963 72.0167 228.57 71.78 229.383 71.78C229.503 71.78 229.673 71.7933 229.893 71.82C230.113 71.8467 230.326 71.9167 230.533 72.03V69.86H232.013V75.68C232.013 76.0067 231.9 76.28 231.673 76.5C231.446 76.7133 231.153 76.8767 230.793 76.99C230.433 77.0967 230.056 77.15 229.663 77.15ZM229.723 75.9C229.963 75.9 230.156 75.87 230.303 75.81C230.456 75.7433 230.533 75.6467 230.533 75.52V73.19C230.28 73.05 230.02 72.98 229.753 72.98C229.326 72.98 229.003 73.09 228.783 73.31C228.57 73.53 228.463 73.9167 228.463 74.47C228.463 74.9167 228.553 75.2667 228.733 75.52C228.92 75.7733 229.25 75.9 229.723 75.9ZM235.717 77.15C235.01 77.15 234.437 76.9833 233.997 76.65C233.557 76.3167 233.337 75.79 233.337 75.07V71.94H234.827V74.95C234.827 75.27 234.897 75.51 235.037 75.67C235.183 75.8233 235.413 75.9 235.727 75.9C236.04 75.9 236.267 75.8233 236.407 75.67C236.553 75.51 236.627 75.27 236.627 74.95V71.94H238.027V75.07C238.027 75.79 237.82 76.3167 237.407 76.65C236.993 76.9833 236.43 77.15 235.717 77.15ZM241.713 77.13C241.233 77.13 240.789 77.0367 240.383 76.85C239.983 76.6567 239.663 76.37 239.423 75.99C239.183 75.6033 239.063 75.12 239.063 74.54C239.063 73.92 239.176 73.41 239.403 73.01C239.629 72.6033 239.939 72.3 240.333 72.1C240.733 71.9 241.189 71.8 241.703 71.8C241.976 71.8 242.256 71.83 242.543 71.89C242.836 71.9433 243.093 72.02 243.313 72.12V73.4C243.079 73.3 242.849 73.2133 242.623 73.14C242.403 73.0667 242.176 73.03 241.943 73.03C241.523 73.03 241.183 73.1367 240.923 73.35C240.669 73.5567 240.543 73.8967 240.543 74.37C240.543 74.87 240.653 75.2467 240.873 75.5C241.099 75.7533 241.479 75.88 242.013 75.88C242.253 75.88 242.489 75.8367 242.723 75.75C242.956 75.6633 243.156 75.5733 243.323 75.48V76.75C243.089 76.87 242.846 76.9633 242.593 77.03C242.339 77.0967 242.046 77.13 241.713 77.13ZM246.312 77.15C245.899 77.15 245.525 77.1 245.192 77C244.859 76.8933 244.592 76.7167 244.392 76.47C244.192 76.2167 244.092 75.8667 244.092 75.42C244.092 74.9533 244.239 74.58 244.532 74.3C244.825 74.0133 245.282 73.87 245.902 73.87C246.162 73.87 246.412 73.9033 246.652 73.97C246.899 74.0367 247.109 74.1167 247.282 74.21V73.89C247.282 73.5833 247.182 73.3633 246.982 73.23C246.789 73.09 246.515 73.02 246.162 73.02C245.862 73.02 245.562 73.0733 245.262 73.18C244.962 73.28 244.725 73.4033 244.552 73.55V72.23C244.712 72.1233 244.975 72.0233 245.342 71.93C245.715 71.8367 246.125 71.79 246.572 71.79C246.765 71.79 246.985 71.8133 247.232 71.86C247.485 71.9 247.729 71.9833 247.962 72.11C248.195 72.23 248.385 72.4067 248.532 72.64C248.685 72.8733 248.762 73.18 248.762 73.56L248.752 75.95C248.745 76.3833 248.529 76.6933 248.102 76.88C247.675 77.06 247.079 77.15 246.312 77.15ZM245.572 75.45C245.572 75.65 245.652 75.81 245.812 75.93C245.979 76.0433 246.162 76.1 246.362 76.1C246.702 76.1 246.939 76.0767 247.072 76.03C247.212 75.9833 247.282 75.89 247.282 75.75V74.97C247.042 74.89 246.785 74.85 246.512 74.85C245.885 74.85 245.572 75.05 245.572 75.45ZM252.155 77.2C251.568 77.2 251.131 77.0633 250.845 76.79C250.558 76.51 250.415 76.1167 250.415 75.61V73.08H249.675V71.94H250.415V70.55H251.975V71.94H253.085V73.08H251.975V75.42C251.975 75.5933 252.011 75.7233 252.085 75.81C252.158 75.89 252.281 75.93 252.455 75.93C252.688 75.93 252.898 75.86 253.085 75.72V76.99C252.938 77.07 252.785 77.1233 252.625 77.15C252.465 77.1833 252.308 77.2 252.155 77.2ZM254.216 71.25V70.1H255.756V71.25H254.216ZM254.246 77V72.01H255.736L255.746 77H254.246ZM259.367 77.15C258.854 77.15 258.404 77.0467 258.017 76.84C257.63 76.6267 257.33 76.3267 257.117 75.94C256.904 75.5533 256.797 75.0867 256.797 74.54C256.797 73.66 257.014 72.98 257.447 72.5C257.887 72.0133 258.51 71.77 259.317 71.77C260.15 71.77 260.75 72.04 261.117 72.58C261.484 73.1133 261.664 73.8733 261.657 74.86H258.317C258.377 75.2 258.52 75.46 258.747 75.64C258.98 75.82 259.307 75.91 259.727 75.91C260.007 75.91 260.28 75.8667 260.547 75.78C260.82 75.6867 261.04 75.6033 261.207 75.53V76.81C260.967 76.91 260.697 76.99 260.397 77.05C260.104 77.1167 259.76 77.15 259.367 77.15ZM259.257 72.91C259.017 72.91 258.81 72.9867 258.637 73.14C258.47 73.2867 258.36 73.5433 258.307 73.91H260.177C260.13 73.55 260.034 73.2933 259.887 73.14C259.74 72.9867 259.53 72.91 259.257 72.91Z" fill="white"/>
<g filter="url(#filter1_d)">
<circle cx="262.5" cy="39.5" r="13.5" fill="#3785BA"/>
</g>
<path d="M260.131 42.8896L257.049 39.78L256 40.8315L260.131 45L269 36.0515L267.958 35L260.131 42.8896Z" fill="white"/>
<ellipse cx="147" cy="68.5" rx="38" ry="38.5" fill="#0086BF"/>
<path d="M138.194 62.81V65H136.574V58.33H139.574C140.354 58.33 140.968 58.5067 141.414 58.86C141.861 59.2133 142.084 59.76 142.084 60.5C142.084 61.24 141.861 61.81 141.414 62.21C140.968 62.61 140.354 62.81 139.574 62.81H138.194ZM138.194 61.56H139.374C139.721 61.56 139.968 61.47 140.114 61.29C140.261 61.11 140.334 60.8833 140.334 60.61C140.334 60.3033 140.261 60.0567 140.114 59.87C139.968 59.6833 139.721 59.59 139.374 59.59H138.194V61.56ZM143.165 59.25V58.1H144.705V59.25H143.165ZM143.195 65V60.01H144.685L144.695 65H143.195ZM146.206 59.18V58.03H147.746V59.18H146.206ZM145.436 66.93V65.72C145.963 65.7733 146.226 65.5467 146.226 65.04V59.94H147.716L147.736 65.04C147.736 65.52 147.633 65.8967 147.426 66.17C147.226 66.45 146.953 66.6467 146.606 66.76C146.26 66.8733 145.87 66.93 145.436 66.93ZM149.063 60.37C149.23 60.2767 149.463 60.1867 149.763 60.1C150.07 60.0133 150.393 59.9433 150.733 59.89C151.08 59.83 151.397 59.8 151.683 59.8C152.363 59.8 152.89 59.9333 153.263 60.2C153.643 60.4667 153.833 60.9333 153.833 61.6V65H152.343V61.9C152.343 61.64 152.27 61.43 152.123 61.27C151.977 61.11 151.723 61.03 151.363 61.03C151.21 61.03 151.057 61.05 150.903 61.09C150.75 61.1233 150.633 61.16 150.553 61.2V65H149.063V60.37ZM155.287 62.45V61.42H158.337V62.45H155.287ZM129.918 77.15C129.404 77.15 128.954 77.0467 128.568 76.84C128.181 76.6267 127.881 76.3267 127.668 75.94C127.454 75.5533 127.348 75.0867 127.348 74.54C127.348 73.66 127.564 72.98 127.998 72.5C128.438 72.0133 129.061 71.77 129.868 71.77C130.701 71.77 131.301 72.04 131.668 72.58C132.034 73.1133 132.214 73.8733 132.208 74.86H128.868C128.928 75.2 129.071 75.46 129.298 75.64C129.531 75.82 129.858 75.91 130.278 75.91C130.558 75.91 130.831 75.8667 131.098 75.78C131.371 75.6867 131.591 75.6033 131.758 75.53V76.81C131.518 76.91 131.248 76.99 130.948 77.05C130.654 77.1167 130.311 77.15 129.918 77.15ZM129.808 72.91C129.568 72.91 129.361 72.9867 129.188 73.14C129.021 73.2867 128.911 73.5433 128.858 73.91H130.728C130.681 73.55 130.584 73.2933 130.438 73.14C130.291 72.9867 130.081 72.91 129.808 72.91ZM135.663 77.15C135.136 77.15 134.67 77.07 134.263 76.91C133.856 76.75 133.536 76.4733 133.303 76.08C133.076 75.6867 132.963 75.1367 132.963 74.43C132.963 73.61 133.163 72.9633 133.563 72.49C133.963 72.0167 134.57 71.78 135.383 71.78C135.503 71.78 135.673 71.7933 135.893 71.82C136.113 71.8467 136.326 71.9167 136.533 72.03V69.86H138.013V75.68C138.013 76.0067 137.9 76.28 137.673 76.5C137.446 76.7133 137.153 76.8767 136.793 76.99C136.433 77.0967 136.056 77.15 135.663 77.15ZM135.723 75.9C135.963 75.9 136.156 75.87 136.303 75.81C136.456 75.7433 136.533 75.6467 136.533 75.52V73.19C136.28 73.05 136.02 72.98 135.753 72.98C135.326 72.98 135.003 73.09 134.783 73.31C134.57 73.53 134.463 73.9167 134.463 74.47C134.463 74.9167 134.553 75.2667 134.733 75.52C134.92 75.7733 135.25 75.9 135.723 75.9ZM141.717 77.15C141.01 77.15 140.437 76.9833 139.997 76.65C139.557 76.3167 139.337 75.79 139.337 75.07V71.94H140.827V74.95C140.827 75.27 140.897 75.51 141.037 75.67C141.183 75.8233 141.413 75.9 141.727 75.9C142.04 75.9 142.267 75.8233 142.407 75.67C142.553 75.51 142.627 75.27 142.627 74.95V71.94H144.027V75.07C144.027 75.79 143.82 76.3167 143.407 76.65C142.993 76.9833 142.43 77.15 141.717 77.15ZM147.713 77.13C147.233 77.13 146.789 77.0367 146.383 76.85C145.983 76.6567 145.663 76.37 145.423 75.99C145.183 75.6033 145.063 75.12 145.063 74.54C145.063 73.92 145.176 73.41 145.403 73.01C145.629 72.6033 145.939 72.3 146.333 72.1C146.733 71.9 147.189 71.8 147.703 71.8C147.976 71.8 148.256 71.83 148.543 71.89C148.836 71.9433 149.093 72.02 149.313 72.12V73.4C149.079 73.3 148.849 73.2133 148.623 73.14C148.403 73.0667 148.176 73.03 147.943 73.03C147.523 73.03 147.183 73.1367 146.923 73.35C146.669 73.5567 146.543 73.8967 146.543 74.37C146.543 74.87 146.653 75.2467 146.873 75.5C147.099 75.7533 147.479 75.88 148.013 75.88C148.253 75.88 148.489 75.8367 148.723 75.75C148.956 75.6633 149.156 75.5733 149.323 75.48V76.75C149.089 76.87 148.846 76.9633 148.593 77.03C148.339 77.0967 148.046 77.13 147.713 77.13ZM152.312 77.15C151.899 77.15 151.525 77.1 151.192 77C150.859 76.8933 150.592 76.7167 150.392 76.47C150.192 76.2167 150.092 75.8667 150.092 75.42C150.092 74.9533 150.239 74.58 150.532 74.3C150.825 74.0133 151.282 73.87 151.902 73.87C152.162 73.87 152.412 73.9033 152.652 73.97C152.899 74.0367 153.109 74.1167 153.282 74.21V73.89C153.282 73.5833 153.182 73.3633 152.982 73.23C152.789 73.09 152.515 73.02 152.162 73.02C151.862 73.02 151.562 73.0733 151.262 73.18C150.962 73.28 150.725 73.4033 150.552 73.55V72.23C150.712 72.1233 150.975 72.0233 151.342 71.93C151.715 71.8367 152.125 71.79 152.572 71.79C152.765 71.79 152.985 71.8133 153.232 71.86C153.485 71.9 153.729 71.9833 153.962 72.11C154.195 72.23 154.385 72.4067 154.532 72.64C154.685 72.8733 154.762 73.18 154.762 73.56L154.752 75.95C154.745 76.3833 154.529 76.6933 154.102 76.88C153.675 77.06 153.079 77.15 152.312 77.15ZM151.572 75.45C151.572 75.65 151.652 75.81 151.812 75.93C151.979 76.0433 152.162 76.1 152.362 76.1C152.702 76.1 152.939 76.0767 153.072 76.03C153.212 75.9833 153.282 75.89 153.282 75.75V74.97C153.042 74.89 152.785 74.85 152.512 74.85C151.885 74.85 151.572 75.05 151.572 75.45ZM158.155 77.2C157.568 77.2 157.131 77.0633 156.845 76.79C156.558 76.51 156.415 76.1167 156.415 75.61V73.08H155.675V71.94H156.415V70.55H157.975V71.94H159.085V73.08H157.975V75.42C157.975 75.5933 158.011 75.7233 158.085 75.81C158.158 75.89 158.281 75.93 158.455 75.93C158.688 75.93 158.898 75.86 159.085 75.72V76.99C158.938 77.07 158.785 77.1233 158.625 77.15C158.465 77.1833 158.308 77.2 158.155 77.2ZM160.216 71.25V70.1H161.756V71.25H160.216ZM160.246 77V72.01H161.736L161.746 77H160.246ZM165.367 77.15C164.854 77.15 164.404 77.0467 164.017 76.84C163.63 76.6267 163.33 76.3267 163.117 75.94C162.904 75.5533 162.797 75.0867 162.797 74.54C162.797 73.66 163.014 72.98 163.447 72.5C163.887 72.0133 164.51 71.77 165.317 71.77C166.15 71.77 166.75 72.04 167.117 72.58C167.484 73.1133 167.664 73.8733 167.657 74.86H164.317C164.377 75.2 164.52 75.46 164.747 75.64C164.98 75.82 165.307 75.91 165.727 75.91C166.007 75.91 166.28 75.8667 166.547 75.78C166.82 75.6867 167.04 75.6033 167.207 75.53V76.81C166.967 76.91 166.697 76.99 166.397 77.05C166.104 77.1167 165.76 77.15 165.367 77.15ZM165.257 72.91C165.017 72.91 164.81 72.9867 164.637 73.14C164.47 73.2867 164.36 73.5433 164.307 73.91H166.177C166.13 73.55 166.034 73.2933 165.887 73.14C165.74 72.9867 165.53 72.91 165.257 72.91Z" fill="white"/>
<path d="M146.69 32C168.317 32 182 48.8625 182 67.9437C182 87.025 166.11 103 146.69 103C131.153 103 121.09 93.3854 118 88.3562" stroke="#01426A" stroke-width="8" stroke-linecap="round"/>
<ellipse cx="53" cy="68.5" rx="38" ry="38.5" fill="#5F6B78"/>
<path d="M44.1943 62.81V65H42.5743V58.33H45.5743C46.3543 58.33 46.9676 58.5067 47.4143 58.86C47.8609 59.2133 48.0843 59.76 48.0843 60.5C48.0843 61.24 47.8609 61.81 47.4143 62.21C46.9676 62.61 46.3543 62.81 45.5743 62.81H44.1943ZM44.1943 61.56H45.3743C45.7209 61.56 45.9676 61.47 46.1143 61.29C46.2609 61.11 46.3343 60.8833 46.3343 60.61C46.3343 60.3033 46.2609 60.0567 46.1143 59.87C45.9676 59.6833 45.7209 59.59 45.3743 59.59H44.1943V61.56ZM49.1649 59.25V58.1H50.7049V59.25H49.1649ZM49.1949 65V60.01H50.6849L50.6949 65H49.1949ZM52.2062 59.18V58.03H53.7462V59.18H52.2062ZM51.4362 66.93V65.72C51.9629 65.7733 52.2262 65.5467 52.2262 65.04V59.94H53.7162L53.7362 65.04C53.7362 65.52 53.6329 65.8967 53.4262 66.17C53.2262 66.45 52.9529 66.6467 52.6062 66.76C52.2595 66.8733 51.8695 66.93 51.4362 66.93ZM55.0633 60.37C55.23 60.2767 55.4633 60.1867 55.7633 60.1C56.07 60.0133 56.3933 59.9433 56.7333 59.89C57.08 59.83 57.3967 59.8 57.6833 59.8C58.3633 59.8 58.89 59.9333 59.2633 60.2C59.6433 60.4667 59.8333 60.9333 59.8333 61.6V65H58.3433V61.9C58.3433 61.64 58.27 61.43 58.1233 61.27C57.9767 61.11 57.7233 61.03 57.3633 61.03C57.21 61.03 57.0567 61.05 56.9033 61.09C56.75 61.1233 56.6333 61.16 56.5533 61.2V65H55.0633V60.37ZM61.2871 62.45V61.42H64.3371V62.45H61.2871ZM35.9178 77.15C35.4044 77.15 34.9544 77.0467 34.5678 76.84C34.1811 76.6267 33.8811 76.3267 33.6678 75.94C33.4544 75.5533 33.3478 75.0867 33.3478 74.54C33.3478 73.66 33.5644 72.98 33.9978 72.5C34.4378 72.0133 35.0611 71.77 35.8678 71.77C36.7011 71.77 37.3011 72.04 37.6678 72.58C38.0344 73.1133 38.2144 73.8733 38.2078 74.86H34.8678C34.9278 75.2 35.0711 75.46 35.2978 75.64C35.5311 75.82 35.8578 75.91 36.2778 75.91C36.5578 75.91 36.8311 75.8667 37.0978 75.78C37.3711 75.6867 37.5911 75.6033 37.7578 75.53V76.81C37.5178 76.91 37.2478 76.99 36.9478 77.05C36.6544 77.1167 36.3111 77.15 35.9178 77.15ZM35.8078 72.91C35.5678 72.91 35.3611 72.9867 35.1878 73.14C35.0211 73.2867 34.9111 73.5433 34.8578 73.91H36.7278C36.6811 73.55 36.5844 73.2933 36.4378 73.14C36.2911 72.9867 36.0811 72.91 35.8078 72.91ZM41.663 77.15C41.1363 77.15 40.6697 77.07 40.263 76.91C39.8563 76.75 39.5363 76.4733 39.303 76.08C39.0763 75.6867 38.963 75.1367 38.963 74.43C38.963 73.61 39.163 72.9633 39.563 72.49C39.963 72.0167 40.5697 71.78 41.383 71.78C41.503 71.78 41.673 71.7933 41.893 71.82C42.113 71.8467 42.3263 71.9167 42.533 72.03V69.86H44.013V75.68C44.013 76.0067 43.8997 76.28 43.673 76.5C43.4463 76.7133 43.153 76.8767 42.793 76.99C42.433 77.0967 42.0563 77.15 41.663 77.15ZM41.723 75.9C41.963 75.9 42.1563 75.87 42.303 75.81C42.4563 75.7433 42.533 75.6467 42.533 75.52V73.19C42.2797 73.05 42.0197 72.98 41.753 72.98C41.3263 72.98 41.003 73.09 40.783 73.31C40.5697 73.53 40.463 73.9167 40.463 74.47C40.463 74.9167 40.553 75.2667 40.733 75.52C40.9197 75.7733 41.2497 75.9 41.723 75.9ZM47.7168 77.15C47.0101 77.15 46.4368 76.9833 45.9968 76.65C45.5568 76.3167 45.3368 75.79 45.3368 75.07V71.94H46.8268V74.95C46.8268 75.27 46.8968 75.51 47.0368 75.67C47.1834 75.8233 47.4134 75.9 47.7268 75.9C48.0401 75.9 48.2668 75.8233 48.4068 75.67C48.5534 75.51 48.6268 75.27 48.6268 74.95V71.94H50.0268V75.07C50.0268 75.79 49.8201 76.3167 49.4068 76.65C48.9934 76.9833 48.4301 77.15 47.7168 77.15ZM53.7126 77.13C53.2326 77.13 52.7893 77.0367 52.3826 76.85C51.9826 76.6567 51.6626 76.37 51.4226 75.99C51.1826 75.6033 51.0626 75.12 51.0626 74.54C51.0626 73.92 51.176 73.41 51.4026 73.01C51.6293 72.6033 51.9393 72.3 52.3326 72.1C52.7326 71.9 53.1893 71.8 53.7026 71.8C53.976 71.8 54.256 71.83 54.5426 71.89C54.836 71.9433 55.0926 72.02 55.3126 72.12V73.4C55.0793 73.3 54.8493 73.2133 54.6226 73.14C54.4026 73.0667 54.176 73.03 53.9426 73.03C53.5226 73.03 53.1826 73.1367 52.9226 73.35C52.6693 73.5567 52.5426 73.8967 52.5426 74.37C52.5426 74.87 52.6526 75.2467 52.8726 75.5C53.0993 75.7533 53.4793 75.88 54.0126 75.88C54.2526 75.88 54.4893 75.8367 54.7226 75.75C54.956 75.6633 55.156 75.5733 55.3226 75.48V76.75C55.0893 76.87 54.846 76.9633 54.5926 77.03C54.3393 77.0967 54.046 77.13 53.7126 77.13ZM58.3121 77.15C57.8988 77.15 57.5255 77.1 57.1921 77C56.8588 76.8933 56.5921 76.7167 56.3921 76.47C56.1921 76.2167 56.0921 75.8667 56.0921 75.42C56.0921 74.9533 56.2388 74.58 56.5321 74.3C56.8255 74.0133 57.2821 73.87 57.9021 73.87C58.1621 73.87 58.4121 73.9033 58.6521 73.97C58.8988 74.0367 59.1088 74.1167 59.2821 74.21V73.89C59.2821 73.5833 59.1821 73.3633 58.9821 73.23C58.7888 73.09 58.5155 73.02 58.1621 73.02C57.8621 73.02 57.5621 73.0733 57.2621 73.18C56.9621 73.28 56.7255 73.4033 56.5521 73.55V72.23C56.7121 72.1233 56.9755 72.0233 57.3421 71.93C57.7155 71.8367 58.1255 71.79 58.5721 71.79C58.7655 71.79 58.9855 71.8133 59.2321 71.86C59.4855 71.9 59.7288 71.9833 59.9621 72.11C60.1955 72.23 60.3855 72.4067 60.5321 72.64C60.6855 72.8733 60.7621 73.18 60.7621 73.56L60.7521 75.95C60.7455 76.3833 60.5288 76.6933 60.1021 76.88C59.6755 77.06 59.0788 77.15 58.3121 77.15ZM57.5721 75.45C57.5721 75.65 57.6521 75.81 57.8121 75.93C57.9788 76.0433 58.1621 76.1 58.3621 76.1C58.7021 76.1 58.9388 76.0767 59.0721 76.03C59.2121 75.9833 59.2821 75.89 59.2821 75.75V74.97C59.0421 74.89 58.7855 74.85 58.5121 74.85C57.8855 74.85 57.5721 75.05 57.5721 75.45ZM64.1548 77.2C63.5681 77.2 63.1315 77.0633 62.8448 76.79C62.5581 76.51 62.4148 76.1167 62.4148 75.61V73.08H61.6748V71.94H62.4148V70.55H63.9748V71.94H65.0848V73.08H63.9748V75.42C63.9748 75.5933 64.0115 75.7233 64.0848 75.81C64.1581 75.89 64.2815 75.93 64.4548 75.93C64.6881 75.93 64.8981 75.86 65.0848 75.72V76.99C64.9381 77.07 64.7848 77.1233 64.6248 77.15C64.4648 77.1833 64.3081 77.2 64.1548 77.2ZM66.2157 71.25V70.1H67.7557V71.25H66.2157ZM66.2457 77V72.01H67.7357L67.7457 77H66.2457ZM71.367 77.15C70.8537 77.15 70.4037 77.0467 70.017 76.84C69.6303 76.6267 69.3303 76.3267 69.117 75.94C68.9037 75.5533 68.797 75.0867 68.797 74.54C68.797 73.66 69.0137 72.98 69.447 72.5C69.887 72.0133 70.5103 71.77 71.317 71.77C72.1503 71.77 72.7503 72.04 73.117 72.58C73.4837 73.1133 73.6637 73.8733 73.657 74.86H70.317C70.377 75.2 70.5203 75.46 70.747 75.64C70.9803 75.82 71.307 75.91 71.727 75.91C72.007 75.91 72.2803 75.8667 72.547 75.78C72.8203 75.6867 73.0403 75.6033 73.207 75.53V76.81C72.967 76.91 72.697 76.99 72.397 77.05C72.1037 77.1167 71.7603 77.15 71.367 77.15ZM71.257 72.91C71.017 72.91 70.8103 72.9867 70.637 73.14C70.4703 73.2867 70.3603 73.5433 70.307 73.91H72.177C72.1303 73.55 72.0337 73.2933 71.887 73.14C71.7403 72.9867 71.5303 72.91 71.257 72.91Z" fill="white"/>
<path d="M25.7011 22L23.2111 15.33H25.0811L26.7111 20.21L28.3211 15.34L30.0411 15.33L27.4311 22H25.7011ZM32.6229 22.15C32.1095 22.15 31.6595 22.0467 31.2729 21.84C30.8862 21.6267 30.5862 21.3267 30.3729 20.94C30.1595 20.5533 30.0529 20.0867 30.0529 19.54C30.0529 18.66 30.2695 17.98 30.7029 17.5C31.1429 17.0133 31.7662 16.77 32.5729 16.77C33.4062 16.77 34.0062 17.04 34.3729 17.58C34.7395 18.1133 34.9195 18.8733 34.9129 19.86H31.5729C31.6329 20.2 31.7762 20.46 32.0029 20.64C32.2362 20.82 32.5629 20.91 32.9829 20.91C33.2629 20.91 33.5362 20.8667 33.8029 20.78C34.0762 20.6867 34.2962 20.6033 34.4629 20.53V21.81C34.2229 21.91 33.9529 21.99 33.6529 22.05C33.3595 22.1167 33.0162 22.15 32.6229 22.15ZM32.5129 17.91C32.2729 17.91 32.0662 17.9867 31.8929 18.14C31.7262 18.2867 31.6162 18.5433 31.5629 18.91H33.4329C33.3862 18.55 33.2895 18.2933 33.1429 18.14C32.9962 17.9867 32.7862 17.91 32.5129 17.91ZM35.9481 22V17.47C36.0414 17.3967 36.2081 17.3067 36.4481 17.2C36.6881 17.0933 36.9614 17 37.2681 16.92C37.5814 16.8333 37.8948 16.79 38.2081 16.79C38.5214 16.79 38.7681 16.8133 38.9481 16.86C39.1281 16.9067 39.2648 16.9667 39.3581 17.04V18.13C39.2048 18.0967 39.0048 18.0733 38.7581 18.06C38.5114 18.0467 38.2648 18.0433 38.0181 18.05C37.7781 18.05 37.5848 18.0633 37.4381 18.09V22H35.9481ZM42.1654 22.15C41.4788 22.1167 40.9354 21.8967 40.5354 21.49C40.1421 21.0833 39.9454 20.4633 39.9454 19.63C39.9454 18.8833 40.0654 18.3067 40.3054 17.9C40.5454 17.4867 40.8788 17.2 41.3054 17.04C41.7388 16.88 42.2421 16.8 42.8154 16.8C43.4488 16.8 43.9554 16.92 44.3354 17.16C44.7154 17.3933 44.9054 17.7267 44.9054 18.16V22.06C44.9054 22.7667 44.6788 23.3033 44.2254 23.67C43.7788 24.0367 43.1454 24.22 42.3254 24.22C41.8788 24.22 41.4954 24.19 41.1754 24.13C40.8621 24.07 40.6221 23.9933 40.4554 23.9V22.59C40.5554 22.6367 40.7021 22.69 40.8954 22.75C41.0888 22.8167 41.3054 22.87 41.5454 22.91C41.7854 22.9567 42.0254 22.98 42.2654 22.98C42.7254 22.98 43.0354 22.8867 43.1954 22.7C43.3621 22.52 43.4454 22.2867 43.4454 22V21.72C43.2854 21.8533 43.1021 21.9567 42.8954 22.03C42.6888 22.11 42.4454 22.15 42.1654 22.15ZM42.5454 21.03C42.8854 21.03 43.1854 20.9567 43.4454 20.81V18.49C43.4454 18.2767 43.3621 18.14 43.1954 18.08C43.0288 18.0133 42.8454 17.98 42.6454 17.98C42.1854 17.98 41.8654 18.1267 41.6854 18.42C41.5121 18.7133 41.4254 19.0867 41.4254 19.54C41.4254 20 41.5288 20.3633 41.7354 20.63C41.9421 20.8967 42.2121 21.03 42.5454 21.03ZM46.1532 22V17.47C46.2465 17.3967 46.4132 17.3067 46.6532 17.2C46.8932 17.0933 47.1665 17 47.4732 16.92C47.7865 16.8333 48.0998 16.79 48.4132 16.79C48.7265 16.79 48.9732 16.8133 49.1532 16.86C49.3332 16.9067 49.4698 16.9667 49.5632 17.04V18.13C49.4098 18.0967 49.2098 18.0733 48.9632 18.06C48.7165 18.0467 48.4698 18.0433 48.2232 18.05C47.9832 18.05 47.7898 18.0633 47.6432 18.09V22H46.1532ZM52.5545 22.15C52.0412 22.15 51.5912 22.0467 51.2045 21.84C50.8178 21.6267 50.5178 21.3267 50.3045 20.94C50.0912 20.5533 49.9845 20.0867 49.9845 19.54C49.9845 18.66 50.2012 17.98 50.6345 17.5C51.0745 17.0133 51.6978 16.77 52.5045 16.77C53.3378 16.77 53.9378 17.04 54.3045 17.58C54.6712 18.1133 54.8512 18.8733 54.8445 19.86H51.5045C51.5645 20.2 51.7078 20.46 51.9345 20.64C52.1678 20.82 52.4945 20.91 52.9145 20.91C53.1945 20.91 53.4678 20.8667 53.7345 20.78C54.0078 20.6867 54.2278 20.6033 54.3945 20.53V21.81C54.1545 21.91 53.8845 21.99 53.5845 22.05C53.2912 22.1167 52.9478 22.15 52.5545 22.15ZM52.4445 17.91C52.2045 17.91 51.9978 17.9867 51.8245 18.14C51.6578 18.2867 51.5478 18.5433 51.4945 18.91H53.3645C53.3178 18.55 53.2212 18.2933 53.0745 18.14C52.9278 17.9867 52.7178 17.91 52.4445 17.91ZM55.8797 17.37C56.0464 17.2767 56.2797 17.1867 56.5797 17.1C56.8864 17.0133 57.2097 16.9433 57.5497 16.89C57.8964 16.83 58.2131 16.8 58.4997 16.8C59.1797 16.8 59.7064 16.9333 60.0797 17.2C60.4597 17.4667 60.6497 17.9333 60.6497 18.6V22H59.1597V18.9C59.1597 18.64 59.0864 18.43 58.9397 18.27C58.7931 18.11 58.5397 18.03 58.1797 18.03C58.0264 18.03 57.8731 18.05 57.7197 18.09C57.5664 18.1233 57.4497 18.16 57.3697 18.2V22H55.8797V17.37ZM64.3935 22.15C63.8668 22.15 63.4001 22.07 62.9935 21.91C62.5868 21.75 62.2668 21.4733 62.0335 21.08C61.8068 20.6867 61.6935 20.1367 61.6935 19.43C61.6935 18.61 61.8935 17.9633 62.2935 17.49C62.6935 17.0167 63.3001 16.78 64.1135 16.78C64.2335 16.78 64.4035 16.7933 64.6235 16.82C64.8435 16.8467 65.0568 16.9167 65.2635 17.03V14.86H66.7435V20.68C66.7435 21.0067 66.6301 21.28 66.4035 21.5C66.1768 21.7133 65.8835 21.8767 65.5235 21.99C65.1635 22.0967 64.7868 22.15 64.3935 22.15ZM64.4535 20.9C64.6935 20.9 64.8868 20.87 65.0335 20.81C65.1868 20.7433 65.2635 20.6467 65.2635 20.52V18.19C65.0101 18.05 64.7501 17.98 64.4835 17.98C64.0568 17.98 63.7335 18.09 63.5135 18.31C63.3001 18.53 63.1935 18.9167 63.1935 19.47C63.1935 19.9167 63.2835 20.2667 63.4635 20.52C63.6501 20.7733 63.9801 20.9 64.4535 20.9ZM70.3572 22.15C69.8439 22.15 69.3939 22.0467 69.0072 21.84C68.6206 21.6267 68.3206 21.3267 68.1072 20.94C67.8939 20.5533 67.7872 20.0867 67.7872 19.54C67.7872 18.66 68.0039 17.98 68.4372 17.5C68.8772 17.0133 69.5006 16.77 70.3072 16.77C71.1406 16.77 71.7406 17.04 72.1072 17.58C72.4739 18.1133 72.6539 18.8733 72.6472 19.86H69.3072C69.3672 20.2 69.5106 20.46 69.7372 20.64C69.9706 20.82 70.2972 20.91 70.7172 20.91C70.9972 20.91 71.2706 20.8667 71.5372 20.78C71.8106 20.6867 72.0306 20.6033 72.1972 20.53V21.81C71.9572 21.91 71.6872 21.99 71.3872 22.05C71.0939 22.1167 70.7506 22.15 70.3572 22.15ZM70.2472 17.91C70.0072 17.91 69.8006 17.9867 69.6272 18.14C69.4606 18.2867 69.3506 18.5433 69.2972 18.91H71.1672C71.1206 18.55 71.0239 18.2933 70.8772 18.14C70.7306 17.9867 70.5206 17.91 70.2472 17.91ZM75.1625 22H73.6825V15.03H75.1625V22ZM78.9052 22.15C78.3785 22.15 77.9119 22.07 77.5052 21.91C77.0985 21.75 76.7785 21.4733 76.5452 21.08C76.3185 20.6867 76.2052 20.1367 76.2052 19.43C76.2052 18.61 76.4052 17.9633 76.8052 17.49C77.2052 17.0167 77.8119 16.78 78.6252 16.78C78.7452 16.78 78.9152 16.7933 79.1352 16.82C79.3552 16.8467 79.5685 16.9167 79.7752 17.03V14.86H81.2552V20.68C81.2552 21.0067 81.1419 21.28 80.9152 21.5C80.6885 21.7133 80.3952 21.8767 80.0352 21.99C79.6752 22.0967 79.2985 22.15 78.9052 22.15ZM78.9652 20.9C79.2052 20.9 79.3985 20.87 79.5452 20.81C79.6985 20.7433 79.7752 20.6467 79.7752 20.52V18.19C79.5219 18.05 79.2619 17.98 78.9952 17.98C78.5685 17.98 78.2452 18.09 78.0252 18.31C77.8119 18.53 77.7052 18.9167 77.7052 19.47C77.7052 19.9167 77.7952 20.2667 77.9752 20.52C78.1619 20.7733 78.4919 20.9 78.9652 20.9Z" fill="#01426A"/>
<path d="M126.886 22L124.396 15.33H126.266L127.896 20.21L129.506 15.34L131.226 15.33L128.616 22H126.886ZM133.797 22.15C132.084 22.15 131.231 21.25 131.237 19.45C131.237 18.4967 131.454 17.8133 131.887 17.4C132.321 16.98 132.957 16.77 133.797 16.77C134.644 16.77 135.287 16.9867 135.727 17.42C136.167 17.8467 136.387 18.5233 136.387 19.45C136.387 20.3367 136.164 21.01 135.717 21.47C135.271 21.9233 134.631 22.15 133.797 22.15ZM133.797 20.96C134.164 20.96 134.441 20.8333 134.627 20.58C134.814 20.32 134.907 19.9433 134.907 19.45C134.907 18.89 134.811 18.5 134.617 18.28C134.431 18.06 134.157 17.95 133.797 17.95C133.417 17.95 133.141 18.0633 132.967 18.29C132.794 18.5167 132.707 18.9033 132.707 19.45C132.707 19.9567 132.794 20.3367 132.967 20.59C133.147 20.8367 133.424 20.96 133.797 20.96ZM139.696 22.15C137.983 22.15 137.129 21.25 137.136 19.45C137.136 18.4967 137.353 17.8133 137.786 17.4C138.219 16.98 138.856 16.77 139.696 16.77C140.543 16.77 141.186 16.9867 141.626 17.42C142.066 17.8467 142.286 18.5233 142.286 19.45C142.286 20.3367 142.063 21.01 141.616 21.47C141.169 21.9233 140.529 22.15 139.696 22.15ZM139.696 20.96C140.063 20.96 140.339 20.8333 140.526 20.58C140.713 20.32 140.806 19.9433 140.806 19.45C140.806 18.89 140.709 18.5 140.516 18.28C140.329 18.06 140.056 17.95 139.696 17.95C139.316 17.95 139.039 18.0633 138.866 18.29C138.693 18.5167 138.606 18.9033 138.606 19.45C138.606 19.9567 138.693 20.3367 138.866 20.59C139.046 20.8367 139.323 20.96 139.696 20.96ZM143.314 22V17.47C143.408 17.3967 143.574 17.3067 143.814 17.2C144.054 17.0933 144.328 17 144.634 16.92C144.948 16.8333 145.261 16.79 145.574 16.79C145.888 16.79 146.134 16.8133 146.314 16.86C146.494 16.9067 146.631 16.9667 146.724 17.04V18.13C146.571 18.0967 146.371 18.0733 146.124 18.06C145.878 18.0467 145.631 18.0433 145.384 18.05C145.144 18.05 144.951 18.0633 144.804 18.09V22H143.314ZM149.662 22.2C149.075 22.2 148.638 22.0633 148.352 21.79C148.065 21.51 147.922 21.1167 147.922 20.61V18.08H147.182V16.94H147.922V15.55H149.482V16.94H150.592V18.08H149.482V20.42C149.482 20.5933 149.518 20.7233 149.592 20.81C149.665 20.89 149.788 20.93 149.962 20.93C150.195 20.93 150.405 20.86 150.592 20.72V21.99C150.445 22.07 150.292 22.1233 150.132 22.15C149.972 22.1833 149.815 22.2 149.662 22.2ZM153.663 22.15C152.976 22.1167 152.433 21.8967 152.033 21.49C151.639 21.0833 151.443 20.4633 151.443 19.63C151.443 18.8833 151.563 18.3067 151.803 17.9C152.043 17.4867 152.376 17.2 152.803 17.04C153.236 16.88 153.739 16.8 154.313 16.8C154.946 16.8 155.453 16.92 155.833 17.16C156.213 17.3933 156.403 17.7267 156.403 18.16V22.06C156.403 22.7667 156.176 23.3033 155.723 23.67C155.276 24.0367 154.643 24.22 153.823 24.22C153.376 24.22 152.993 24.19 152.673 24.13C152.359 24.07 152.119 23.9933 151.953 23.9V22.59C152.053 22.6367 152.199 22.69 152.393 22.75C152.586 22.8167 152.803 22.87 153.043 22.91C153.283 22.9567 153.523 22.98 153.763 22.98C154.223 22.98 154.533 22.8867 154.693 22.7C154.859 22.52 154.943 22.2867 154.943 22V21.72C154.783 21.8533 154.599 21.9567 154.393 22.03C154.186 22.11 153.943 22.15 153.663 22.15ZM154.043 21.03C154.383 21.03 154.683 20.9567 154.943 20.81V18.49C154.943 18.2767 154.859 18.14 154.693 18.08C154.526 18.0133 154.343 17.98 154.143 17.98C153.683 17.98 153.363 18.1267 153.183 18.42C153.009 18.7133 152.923 19.0867 152.923 19.54C152.923 20 153.026 20.3633 153.233 20.63C153.439 20.8967 153.709 21.03 154.043 21.03ZM159.6 22.15C159.187 22.15 158.814 22.1 158.48 22C158.147 21.8933 157.88 21.7167 157.68 21.47C157.48 21.2167 157.38 20.8667 157.38 20.42C157.38 19.9533 157.527 19.58 157.82 19.3C158.114 19.0133 158.57 18.87 159.19 18.87C159.45 18.87 159.7 18.9033 159.94 18.97C160.187 19.0367 160.397 19.1167 160.57 19.21V18.89C160.57 18.5833 160.47 18.3633 160.27 18.23C160.077 18.09 159.804 18.02 159.45 18.02C159.15 18.02 158.85 18.0733 158.55 18.18C158.25 18.28 158.014 18.4033 157.84 18.55V17.23C158 17.1233 158.264 17.0233 158.63 16.93C159.004 16.8367 159.414 16.79 159.86 16.79C160.054 16.79 160.274 16.8133 160.52 16.86C160.774 16.9 161.017 16.9833 161.25 17.11C161.484 17.23 161.674 17.4067 161.82 17.64C161.974 17.8733 162.05 18.18 162.05 18.56L162.04 20.95C162.034 21.3833 161.817 21.6933 161.39 21.88C160.964 22.06 160.367 22.15 159.6 22.15ZM158.86 20.45C158.86 20.65 158.94 20.81 159.1 20.93C159.267 21.0433 159.45 21.1 159.65 21.1C159.99 21.1 160.227 21.0767 160.36 21.03C160.5 20.9833 160.57 20.89 160.57 20.75V19.97C160.33 19.89 160.074 19.85 159.8 19.85C159.174 19.85 158.86 20.05 158.86 20.45ZM163.373 17.37C163.54 17.2767 163.773 17.1867 164.073 17.1C164.38 17.0133 164.703 16.9433 165.043 16.89C165.39 16.83 165.706 16.8 165.993 16.8C166.673 16.8 167.2 16.9333 167.573 17.2C167.953 17.4667 168.143 17.9333 168.143 18.6V22H166.653V18.9C166.653 18.64 166.58 18.43 166.433 18.27C166.286 18.11 166.033 18.03 165.673 18.03C165.52 18.03 165.366 18.05 165.213 18.09C165.06 18.1233 164.943 18.16 164.863 18.2V22H163.373V17.37ZM171.407 22.15C170.72 22.1167 170.177 21.8967 169.777 21.49C169.383 21.0833 169.187 20.4633 169.187 19.63C169.187 18.8833 169.307 18.3067 169.547 17.9C169.787 17.4867 170.12 17.2 170.547 17.04C170.98 16.88 171.483 16.8 172.057 16.8C172.69 16.8 173.197 16.92 173.577 17.16C173.957 17.3933 174.147 17.7267 174.147 18.16V22.06C174.147 22.7667 173.92 23.3033 173.467 23.67C173.02 24.0367 172.387 24.22 171.567 24.22C171.12 24.22 170.737 24.19 170.417 24.13C170.103 24.07 169.863 23.9933 169.697 23.9V22.59C169.797 22.6367 169.943 22.69 170.137 22.75C170.33 22.8167 170.547 22.87 170.787 22.91C171.027 22.9567 171.267 22.98 171.507 22.98C171.967 22.98 172.277 22.8867 172.437 22.7C172.603 22.52 172.687 22.2867 172.687 22V21.72C172.527 21.8533 172.343 21.9567 172.137 22.03C171.93 22.11 171.687 22.15 171.407 22.15ZM171.787 21.03C172.127 21.03 172.427 20.9567 172.687 20.81V18.49C172.687 18.2767 172.603 18.14 172.437 18.08C172.27 18.0133 172.087 17.98 171.887 17.98C171.427 17.98 171.107 18.1267 170.927 18.42C170.753 18.7133 170.667 19.0867 170.667 19.54C170.667 20 170.77 20.3633 170.977 20.63C171.183 20.8967 171.453 21.03 171.787 21.03Z" fill="#01426A"/>
<path d="M220.967 22L218.477 15.33H220.347L221.977 20.21L223.587 15.34L225.307 15.33L222.697 22H220.967ZM227.878 22.15C226.165 22.15 225.312 21.25 225.318 19.45C225.318 18.4967 225.535 17.8133 225.968 17.4C226.402 16.98 227.038 16.77 227.878 16.77C228.725 16.77 229.368 16.9867 229.808 17.42C230.248 17.8467 230.468 18.5233 230.468 19.45C230.468 20.3367 230.245 21.01 229.798 21.47C229.352 21.9233 228.712 22.15 227.878 22.15ZM227.878 20.96C228.245 20.96 228.522 20.8333 228.708 20.58C228.895 20.32 228.988 19.9433 228.988 19.45C228.988 18.89 228.892 18.5 228.698 18.28C228.512 18.06 228.238 17.95 227.878 17.95C227.498 17.95 227.222 18.0633 227.048 18.29C226.875 18.5167 226.788 18.9033 226.788 19.45C226.788 19.9567 226.875 20.3367 227.048 20.59C227.228 20.8367 227.505 20.96 227.878 20.96ZM232.977 22H231.497V15.03H232.977V22ZM236.37 22.2C235.783 22.2 235.346 22.0633 235.06 21.79C234.773 21.51 234.63 21.1167 234.63 20.61V18.08H233.89V16.94H234.63V15.55H236.19V16.94H237.3V18.08H236.19V20.42C236.19 20.5933 236.226 20.7233 236.3 20.81C236.373 20.89 236.496 20.93 236.67 20.93C236.903 20.93 237.113 20.86 237.3 20.72V21.99C237.153 22.07 237 22.1233 236.84 22.15C236.68 22.1833 236.523 22.2 236.37 22.2ZM240.711 22.15C238.997 22.15 238.144 21.25 238.151 19.45C238.151 18.4967 238.367 17.8133 238.801 17.4C239.234 16.98 239.871 16.77 240.711 16.77C241.557 16.77 242.201 16.9867 242.641 17.42C243.081 17.8467 243.301 18.5233 243.301 19.45C243.301 20.3367 243.077 21.01 242.631 21.47C242.184 21.9233 241.544 22.15 240.711 22.15ZM240.711 20.96C241.077 20.96 241.354 20.8333 241.541 20.58C241.727 20.32 241.821 19.9433 241.821 19.45C241.821 18.89 241.724 18.5 241.531 18.28C241.344 18.06 241.071 17.95 240.711 17.95C240.331 17.95 240.054 18.0633 239.881 18.29C239.707 18.5167 239.621 18.9033 239.621 19.45C239.621 19.9567 239.707 20.3367 239.881 20.59C240.061 20.8367 240.337 20.96 240.711 20.96ZM246.609 22.15C244.896 22.15 244.042 21.25 244.049 19.45C244.049 18.4967 244.266 17.8133 244.699 17.4C245.132 16.98 245.769 16.77 246.609 16.77C247.456 16.77 248.099 16.9867 248.539 17.42C248.979 17.8467 249.199 18.5233 249.199 19.45C249.199 20.3367 248.976 21.01 248.529 21.47C248.082 21.9233 247.442 22.15 246.609 22.15ZM246.609 20.96C246.976 20.96 247.252 20.8333 247.439 20.58C247.626 20.32 247.719 19.9433 247.719 19.45C247.719 18.89 247.622 18.5 247.429 18.28C247.242 18.06 246.969 17.95 246.609 17.95C246.229 17.95 245.952 18.0633 245.779 18.29C245.606 18.5167 245.519 18.9033 245.519 19.45C245.519 19.9567 245.606 20.3367 245.779 20.59C245.959 20.8367 246.236 20.96 246.609 20.96ZM250.227 16.25V15.1H251.767V16.25H250.227ZM250.257 22V17.01H251.747L251.757 22H250.257ZM255.509 22.15C254.982 22.15 254.515 22.07 254.109 21.91C253.702 21.75 253.382 21.4733 253.149 21.08C252.922 20.6867 252.809 20.1367 252.809 19.43C252.809 18.61 253.009 17.9633 253.409 17.49C253.809 17.0167 254.415 16.78 255.229 16.78C255.349 16.78 255.519 16.7933 255.739 16.82C255.959 16.8467 256.172 16.9167 256.379 17.03V14.86H257.859V20.68C257.859 21.0067 257.745 21.28 257.519 21.5C257.292 21.7133 256.999 21.8767 256.639 21.99C256.279 22.0967 255.902 22.15 255.509 22.15ZM255.569 20.9C255.809 20.9 256.002 20.87 256.149 20.81C256.302 20.7433 256.379 20.6467 256.379 20.52V18.19C256.125 18.05 255.865 17.98 255.599 17.98C255.172 17.98 254.849 18.09 254.629 18.31C254.415 18.53 254.309 18.9167 254.309 19.47C254.309 19.9167 254.399 20.2667 254.579 20.52C254.765 20.7733 255.095 20.9 255.569 20.9ZM260.102 20.16L259.932 15.33H261.362L261.182 20.16H260.102ZM259.982 22V20.86H261.302V22H259.982Z" fill="#01426A"/>
<path d="M95 75.0025L101.799 68.5L95 61.9975L97.0931 60L106 68.5L97.0931 77L95 75.0025Z" fill="#0086BF"/>
<path d="M189 76.0025L195.799 69.5L189 62.9975L191.093 61L200 69.5L191.093 78L189 76.0025Z" fill="#0086BF"/>
<defs>
<filter id="filter0_d" x="0" y="0" width="300" height="125" filterUnits="userSpaceOnUse" color-interpolation-filters="sRGB">
<feFlood flood-opacity="0" result="BackgroundImageFix"/>
<feColorMatrix in="SourceAlpha" type="matrix" values="0 0 0 0 0 0 0 0 0 0 0 0 0 0 0 0 0 0 127 0"/>
<feOffset dx="3" dy="3"/>
<feGaussianBlur stdDeviation="3.5"/>
<feColorMatrix type="matrix" values="0 0 0 0 0 0 0 0 0 0 0 0 0 0 0 0 0 0 0.1 0"/>
<feBlend mode="normal" in2="BackgroundImageFix" result="effect1_dropShadow"/>
<feBlend mode="normal" in="SourceGraphic" in2="effect1_dropShadow" result="shape"/>
</filter>
<filter id="filter1_d" x="245" y="26" width="35" height="35" filterUnits="userSpaceOnUse" color-interpolation-filters="sRGB">
<feFlood flood-opacity="0" result="BackgroundImageFix"/>
<feColorMatrix in="SourceAlpha" type="matrix" values="0 0 0 0 0 0 0 0 0 0 0 0 0 0 0 0 0 0 127 0"/>
<feOffset dy="4"/>
<feGaussianBlur stdDeviation="2"/>
<feColorMatrix type="matrix" values="0 0 0 0 0 0 0 0 0 0 0 0 0 0 0 0 0 0 0.1 0"/>
<feBlend mode="normal" in2="BackgroundImageFix" result="effect1_dropShadow"/>
<feBlend mode="normal" in="SourceGraphic" in2="effect1_dropShadow" result="shape"/>
</filter>
<linearGradient id="paint0_linear" x1="147" y1="4" x2="147" y2="115" gradientUnits="userSpaceOnUse">
<stop stop-color="#E6F0F7"/>
<stop offset="1" stop-color="#E0F0F9"/>
</linearGradient>
</defs>
</svg>
