<svg width="266" height="95" viewBox="0 0 266 95" fill="none" xmlns="http://www.w3.org/2000/svg">
<ellipse cx="227" cy="56.5" rx="38" ry="38.5" fill="#163962"/>
<path d="M218.194 50.81V53H216.574V46.33H219.574C220.354 46.33 220.968 46.5067 221.414 46.86C221.861 47.2133 222.084 47.76 222.084 48.5C222.084 49.24 221.861 49.81 221.414 50.21C220.968 50.61 220.354 50.81 219.574 50.81H218.194ZM218.194 49.56H219.374C219.721 49.56 219.968 49.47 220.114 49.29C220.261 49.11 220.334 48.8833 220.334 48.61C220.334 48.3033 220.261 48.0567 220.114 47.87C219.968 47.6833 219.721 47.59 219.374 47.59H218.194V49.56ZM223.165 47.25V46.1H224.705V47.25H223.165ZM223.195 53V48.01H224.685L224.695 53H223.195ZM226.206 47.18V46.03H227.746V47.18H226.206ZM225.436 54.93V53.72C225.963 53.7733 226.226 53.5467 226.226 53.04V47.94H227.716L227.736 53.04C227.736 53.52 227.633 53.8967 227.426 54.17C227.226 54.45 226.953 54.6467 226.606 54.76C226.26 54.8733 225.87 54.93 225.436 54.93ZM229.063 48.37C229.23 48.2767 229.463 48.1867 229.763 48.1C230.07 48.0133 230.393 47.9433 230.733 47.89C231.08 47.83 231.397 47.8 231.683 47.8C232.363 47.8 232.89 47.9333 233.263 48.2C233.643 48.4667 233.833 48.9333 233.833 49.6V53H232.343V49.9C232.343 49.64 232.27 49.43 232.123 49.27C231.977 49.11 231.723 49.03 231.363 49.03C231.21 49.03 231.057 49.05 230.903 49.09C230.75 49.1233 230.633 49.16 230.553 49.2V53H229.063V48.37ZM235.287 50.45V49.42H238.337V50.45H235.287ZM209.918 65.15C209.404 65.15 208.954 65.0467 208.568 64.84C208.181 64.6267 207.881 64.3267 207.668 63.94C207.454 63.5533 207.348 63.0867 207.348 62.54C207.348 61.66 207.564 60.98 207.998 60.5C208.438 60.0133 209.061 59.77 209.868 59.77C210.701 59.77 211.301 60.04 211.668 60.58C212.034 61.1133 212.214 61.8733 212.208 62.86H208.868C208.928 63.2 209.071 63.46 209.298 63.64C209.531 63.82 209.858 63.91 210.278 63.91C210.558 63.91 210.831 63.8667 211.098 63.78C211.371 63.6867 211.591 63.6033 211.758 63.53V64.81C211.518 64.91 211.248 64.99 210.948 65.05C210.654 65.1167 210.311 65.15 209.918 65.15ZM209.808 60.91C209.568 60.91 209.361 60.9867 209.188 61.14C209.021 61.2867 208.911 61.5433 208.858 61.91H210.728C210.681 61.55 210.584 61.2933 210.438 61.14C210.291 60.9867 210.081 60.91 209.808 60.91ZM215.663 65.15C215.136 65.15 214.67 65.07 214.263 64.91C213.856 64.75 213.536 64.4733 213.303 64.08C213.076 63.6867 212.963 63.1367 212.963 62.43C212.963 61.61 213.163 60.9633 213.563 60.49C213.963 60.0167 214.57 59.78 215.383 59.78C215.503 59.78 215.673 59.7933 215.893 59.82C216.113 59.8467 216.326 59.9167 216.533 60.03V57.86H218.013V63.68C218.013 64.0067 217.9 64.28 217.673 64.5C217.446 64.7133 217.153 64.8767 216.793 64.99C216.433 65.0967 216.056 65.15 215.663 65.15ZM215.723 63.9C215.963 63.9 216.156 63.87 216.303 63.81C216.456 63.7433 216.533 63.6467 216.533 63.52V61.19C216.28 61.05 216.02 60.98 215.753 60.98C215.326 60.98 215.003 61.09 214.783 61.31C214.57 61.53 214.463 61.9167 214.463 62.47C214.463 62.9167 214.553 63.2667 214.733 63.52C214.92 63.7733 215.25 63.9 215.723 63.9ZM221.717 65.15C221.01 65.15 220.437 64.9833 219.997 64.65C219.557 64.3167 219.337 63.79 219.337 63.07V59.94H220.827V62.95C220.827 63.27 220.897 63.51 221.037 63.67C221.183 63.8233 221.413 63.9 221.727 63.9C222.04 63.9 222.267 63.8233 222.407 63.67C222.553 63.51 222.627 63.27 222.627 62.95V59.94H224.027V63.07C224.027 63.79 223.82 64.3167 223.407 64.65C222.993 64.9833 222.43 65.15 221.717 65.15ZM227.713 65.13C227.233 65.13 226.789 65.0367 226.383 64.85C225.983 64.6567 225.663 64.37 225.423 63.99C225.183 63.6033 225.063 63.12 225.063 62.54C225.063 61.92 225.176 61.41 225.403 61.01C225.629 60.6033 225.939 60.3 226.333 60.1C226.733 59.9 227.189 59.8 227.703 59.8C227.976 59.8 228.256 59.83 228.543 59.89C228.836 59.9433 229.093 60.02 229.313 60.12V61.4C229.079 61.3 228.849 61.2133 228.623 61.14C228.403 61.0667 228.176 61.03 227.943 61.03C227.523 61.03 227.183 61.1367 226.923 61.35C226.669 61.5567 226.543 61.8967 226.543 62.37C226.543 62.87 226.653 63.2467 226.873 63.5C227.099 63.7533 227.479 63.88 228.013 63.88C228.253 63.88 228.489 63.8367 228.723 63.75C228.956 63.6633 229.156 63.5733 229.323 63.48V64.75C229.089 64.87 228.846 64.9633 228.593 65.03C228.339 65.0967 228.046 65.13 227.713 65.13ZM232.312 65.15C231.899 65.15 231.525 65.1 231.192 65C230.859 64.8933 230.592 64.7167 230.392 64.47C230.192 64.2167 230.092 63.8667 230.092 63.42C230.092 62.9533 230.239 62.58 230.532 62.3C230.825 62.0133 231.282 61.87 231.902 61.87C232.162 61.87 232.412 61.9033 232.652 61.97C232.899 62.0367 233.109 62.1167 233.282 62.21V61.89C233.282 61.5833 233.182 61.3633 232.982 61.23C232.789 61.09 232.515 61.02 232.162 61.02C231.862 61.02 231.562 61.0733 231.262 61.18C230.962 61.28 230.725 61.4033 230.552 61.55V60.23C230.712 60.1233 230.975 60.0233 231.342 59.93C231.715 59.8367 232.125 59.79 232.572 59.79C232.765 59.79 232.985 59.8133 233.232 59.86C233.485 59.9 233.729 59.9833 233.962 60.11C234.195 60.23 234.385 60.4067 234.532 60.64C234.685 60.8733 234.762 61.18 234.762 61.56L234.752 63.95C234.745 64.3833 234.529 64.6933 234.102 64.88C233.675 65.06 233.079 65.15 232.312 65.15ZM231.572 63.45C231.572 63.65 231.652 63.81 231.812 63.93C231.979 64.0433 232.162 64.1 232.362 64.1C232.702 64.1 232.939 64.0767 233.072 64.03C233.212 63.9833 233.282 63.89 233.282 63.75V62.97C233.042 62.89 232.785 62.85 232.512 62.85C231.885 62.85 231.572 63.05 231.572 63.45ZM238.155 65.2C237.568 65.2 237.131 65.0633 236.845 64.79C236.558 64.51 236.415 64.1167 236.415 63.61V61.08H235.675V59.94H236.415V58.55H237.975V59.94H239.085V61.08H237.975V63.42C237.975 63.5933 238.011 63.7233 238.085 63.81C238.158 63.89 238.281 63.93 238.455 63.93C238.688 63.93 238.898 63.86 239.085 63.72V64.99C238.938 65.07 238.785 65.1233 238.625 65.15C238.465 65.1833 238.308 65.2 238.155 65.2ZM240.216 59.25V58.1H241.756V59.25H240.216ZM240.246 65V60.01H241.736L241.746 65H240.246ZM245.367 65.15C244.854 65.15 244.404 65.0467 244.017 64.84C243.63 64.6267 243.33 64.3267 243.117 63.94C242.904 63.5533 242.797 63.0867 242.797 62.54C242.797 61.66 243.014 60.98 243.447 60.5C243.887 60.0133 244.51 59.77 245.317 59.77C246.15 59.77 246.75 60.04 247.117 60.58C247.484 61.1133 247.664 61.8733 247.657 62.86H244.317C244.377 63.2 244.52 63.46 244.747 63.64C244.98 63.82 245.307 63.91 245.727 63.91C246.007 63.91 246.28 63.8667 246.547 63.78C246.82 63.6867 247.04 63.6033 247.207 63.53V64.81C246.967 64.91 246.697 64.99 246.397 65.05C246.104 65.1167 245.76 65.15 245.367 65.15ZM245.257 60.91C245.017 60.91 244.81 60.9867 244.637 61.14C244.47 61.2867 244.36 61.5433 244.307 61.91H246.177C246.13 61.55 246.034 61.2933 245.887 61.14C245.74 60.9867 245.53 60.91 245.257 60.91Z" fill="white"/>
<g filter="url(#filter0_d)">
<circle cx="248.5" cy="27.5" r="13.5" fill="#3785BA"/>
</g>
<path d="M246.131 30.8896L243.049 27.78L242 28.8315L246.131 33L255 24.0515L253.958 23L246.131 30.8896Z" fill="white"/>
<ellipse cx="133" cy="56.5" rx="38" ry="38.5" fill="#0086BF"/>
<path d="M124.194 50.81V53H122.574V46.33H125.574C126.354 46.33 126.968 46.5067 127.414 46.86C127.861 47.2133 128.084 47.76 128.084 48.5C128.084 49.24 127.861 49.81 127.414 50.21C126.968 50.61 126.354 50.81 125.574 50.81H124.194ZM124.194 49.56H125.374C125.721 49.56 125.968 49.47 126.114 49.29C126.261 49.11 126.334 48.8833 126.334 48.61C126.334 48.3033 126.261 48.0567 126.114 47.87C125.968 47.6833 125.721 47.59 125.374 47.59H124.194V49.56ZM129.165 47.25V46.1H130.705V47.25H129.165ZM129.195 53V48.01H130.685L130.695 53H129.195ZM132.206 47.18V46.03H133.746V47.18H132.206ZM131.436 54.93V53.72C131.963 53.7733 132.226 53.5467 132.226 53.04V47.94H133.716L133.736 53.04C133.736 53.52 133.633 53.8967 133.426 54.17C133.226 54.45 132.953 54.6467 132.606 54.76C132.26 54.8733 131.87 54.93 131.436 54.93ZM135.063 48.37C135.23 48.2767 135.463 48.1867 135.763 48.1C136.07 48.0133 136.393 47.9433 136.733 47.89C137.08 47.83 137.397 47.8 137.683 47.8C138.363 47.8 138.89 47.9333 139.263 48.2C139.643 48.4667 139.833 48.9333 139.833 49.6V53H138.343V49.9C138.343 49.64 138.27 49.43 138.123 49.27C137.977 49.11 137.723 49.03 137.363 49.03C137.21 49.03 137.057 49.05 136.903 49.09C136.75 49.1233 136.633 49.16 136.553 49.2V53H135.063V48.37ZM141.287 50.45V49.42H144.337V50.45H141.287ZM115.918 65.15C115.404 65.15 114.954 65.0467 114.568 64.84C114.181 64.6267 113.881 64.3267 113.668 63.94C113.454 63.5533 113.348 63.0867 113.348 62.54C113.348 61.66 113.564 60.98 113.998 60.5C114.438 60.0133 115.061 59.77 115.868 59.77C116.701 59.77 117.301 60.04 117.668 60.58C118.034 61.1133 118.214 61.8733 118.208 62.86H114.868C114.928 63.2 115.071 63.46 115.298 63.64C115.531 63.82 115.858 63.91 116.278 63.91C116.558 63.91 116.831 63.8667 117.098 63.78C117.371 63.6867 117.591 63.6033 117.758 63.53V64.81C117.518 64.91 117.248 64.99 116.948 65.05C116.654 65.1167 116.311 65.15 115.918 65.15ZM115.808 60.91C115.568 60.91 115.361 60.9867 115.188 61.14C115.021 61.2867 114.911 61.5433 114.858 61.91H116.728C116.681 61.55 116.584 61.2933 116.438 61.14C116.291 60.9867 116.081 60.91 115.808 60.91ZM121.663 65.15C121.136 65.15 120.67 65.07 120.263 64.91C119.856 64.75 119.536 64.4733 119.303 64.08C119.076 63.6867 118.963 63.1367 118.963 62.43C118.963 61.61 119.163 60.9633 119.563 60.49C119.963 60.0167 120.57 59.78 121.383 59.78C121.503 59.78 121.673 59.7933 121.893 59.82C122.113 59.8467 122.326 59.9167 122.533 60.03V57.86H124.013V63.68C124.013 64.0067 123.9 64.28 123.673 64.5C123.446 64.7133 123.153 64.8767 122.793 64.99C122.433 65.0967 122.056 65.15 121.663 65.15ZM121.723 63.9C121.963 63.9 122.156 63.87 122.303 63.81C122.456 63.7433 122.533 63.6467 122.533 63.52V61.19C122.28 61.05 122.02 60.98 121.753 60.98C121.326 60.98 121.003 61.09 120.783 61.31C120.57 61.53 120.463 61.9167 120.463 62.47C120.463 62.9167 120.553 63.2667 120.733 63.52C120.92 63.7733 121.25 63.9 121.723 63.9ZM127.717 65.15C127.01 65.15 126.437 64.9833 125.997 64.65C125.557 64.3167 125.337 63.79 125.337 63.07V59.94H126.827V62.95C126.827 63.27 126.897 63.51 127.037 63.67C127.183 63.8233 127.413 63.9 127.727 63.9C128.04 63.9 128.267 63.8233 128.407 63.67C128.553 63.51 128.627 63.27 128.627 62.95V59.94H130.027V63.07C130.027 63.79 129.82 64.3167 129.407 64.65C128.993 64.9833 128.43 65.15 127.717 65.15ZM133.713 65.13C133.233 65.13 132.789 65.0367 132.383 64.85C131.983 64.6567 131.663 64.37 131.423 63.99C131.183 63.6033 131.063 63.12 131.063 62.54C131.063 61.92 131.176 61.41 131.403 61.01C131.629 60.6033 131.939 60.3 132.333 60.1C132.733 59.9 133.189 59.8 133.703 59.8C133.976 59.8 134.256 59.83 134.543 59.89C134.836 59.9433 135.093 60.02 135.313 60.12V61.4C135.079 61.3 134.849 61.2133 134.623 61.14C134.403 61.0667 134.176 61.03 133.943 61.03C133.523 61.03 133.183 61.1367 132.923 61.35C132.669 61.5567 132.543 61.8967 132.543 62.37C132.543 62.87 132.653 63.2467 132.873 63.5C133.099 63.7533 133.479 63.88 134.013 63.88C134.253 63.88 134.489 63.8367 134.723 63.75C134.956 63.6633 135.156 63.5733 135.323 63.48V64.75C135.089 64.87 134.846 64.9633 134.593 65.03C134.339 65.0967 134.046 65.13 133.713 65.13ZM138.312 65.15C137.899 65.15 137.525 65.1 137.192 65C136.859 64.8933 136.592 64.7167 136.392 64.47C136.192 64.2167 136.092 63.8667 136.092 63.42C136.092 62.9533 136.239 62.58 136.532 62.3C136.825 62.0133 137.282 61.87 137.902 61.87C138.162 61.87 138.412 61.9033 138.652 61.97C138.899 62.0367 139.109 62.1167 139.282 62.21V61.89C139.282 61.5833 139.182 61.3633 138.982 61.23C138.789 61.09 138.515 61.02 138.162 61.02C137.862 61.02 137.562 61.0733 137.262 61.18C136.962 61.28 136.725 61.4033 136.552 61.55V60.23C136.712 60.1233 136.975 60.0233 137.342 59.93C137.715 59.8367 138.125 59.79 138.572 59.79C138.765 59.79 138.985 59.8133 139.232 59.86C139.485 59.9 139.729 59.9833 139.962 60.11C140.195 60.23 140.385 60.4067 140.532 60.64C140.685 60.8733 140.762 61.18 140.762 61.56L140.752 63.95C140.745 64.3833 140.529 64.6933 140.102 64.88C139.675 65.06 139.079 65.15 138.312 65.15ZM137.572 63.45C137.572 63.65 137.652 63.81 137.812 63.93C137.979 64.0433 138.162 64.1 138.362 64.1C138.702 64.1 138.939 64.0767 139.072 64.03C139.212 63.9833 139.282 63.89 139.282 63.75V62.97C139.042 62.89 138.785 62.85 138.512 62.85C137.885 62.85 137.572 63.05 137.572 63.45ZM144.155 65.2C143.568 65.2 143.131 65.0633 142.845 64.79C142.558 64.51 142.415 64.1167 142.415 63.61V61.08H141.675V59.94H142.415V58.55H143.975V59.94H145.085V61.08H143.975V63.42C143.975 63.5933 144.011 63.7233 144.085 63.81C144.158 63.89 144.281 63.93 144.455 63.93C144.688 63.93 144.898 63.86 145.085 63.72V64.99C144.938 65.07 144.785 65.1233 144.625 65.15C144.465 65.1833 144.308 65.2 144.155 65.2ZM146.216 59.25V58.1H147.756V59.25H146.216ZM146.246 65V60.01H147.736L147.746 65H146.246ZM151.367 65.15C150.854 65.15 150.404 65.0467 150.017 64.84C149.63 64.6267 149.33 64.3267 149.117 63.94C148.904 63.5533 148.797 63.0867 148.797 62.54C148.797 61.66 149.014 60.98 149.447 60.5C149.887 60.0133 150.51 59.77 151.317 59.77C152.15 59.77 152.75 60.04 153.117 60.58C153.484 61.1133 153.664 61.8733 153.657 62.86H150.317C150.377 63.2 150.52 63.46 150.747 63.64C150.98 63.82 151.307 63.91 151.727 63.91C152.007 63.91 152.28 63.8667 152.547 63.78C152.82 63.6867 153.04 63.6033 153.207 63.53V64.81C152.967 64.91 152.697 64.99 152.397 65.05C152.104 65.1167 151.76 65.15 151.367 65.15ZM151.257 60.91C151.017 60.91 150.81 60.9867 150.637 61.14C150.47 61.2867 150.36 61.5433 150.307 61.91H152.177C152.13 61.55 152.034 61.2933 151.887 61.14C151.74 60.9867 151.53 60.91 151.257 60.91Z" fill="white"/>
<path d="M132.69 20C154.317 20 168 36.8625 168 55.9437C168 75.025 152.11 91 132.69 91C117.153 91 107.09 81.3854 104 76.3562" stroke="#01426A" stroke-width="8" stroke-linecap="round"/>
<ellipse cx="39" cy="56.5" rx="38" ry="38.5" fill="#5F6B78"/>
<path d="M30.1943 50.81V53H28.5743V46.33H31.5743C32.3543 46.33 32.9676 46.5067 33.4143 46.86C33.8609 47.2133 34.0843 47.76 34.0843 48.5C34.0843 49.24 33.8609 49.81 33.4143 50.21C32.9676 50.61 32.3543 50.81 31.5743 50.81H30.1943ZM30.1943 49.56H31.3743C31.7209 49.56 31.9676 49.47 32.1143 49.29C32.2609 49.11 32.3343 48.8833 32.3343 48.61C32.3343 48.3033 32.2609 48.0567 32.1143 47.87C31.9676 47.6833 31.7209 47.59 31.3743 47.59H30.1943V49.56ZM35.1649 47.25V46.1H36.7049V47.25H35.1649ZM35.1949 53V48.01H36.6849L36.6949 53H35.1949ZM38.2062 47.18V46.03H39.7462V47.18H38.2062ZM37.4362 54.93V53.72C37.9629 53.7733 38.2262 53.5467 38.2262 53.04V47.94H39.7162L39.7362 53.04C39.7362 53.52 39.6329 53.8967 39.4262 54.17C39.2262 54.45 38.9529 54.6467 38.6062 54.76C38.2595 54.8733 37.8695 54.93 37.4362 54.93ZM41.0633 48.37C41.23 48.2767 41.4633 48.1867 41.7633 48.1C42.07 48.0133 42.3933 47.9433 42.7333 47.89C43.08 47.83 43.3967 47.8 43.6833 47.8C44.3633 47.8 44.89 47.9333 45.2633 48.2C45.6433 48.4667 45.8333 48.9333 45.8333 49.6V53H44.3433V49.9C44.3433 49.64 44.27 49.43 44.1233 49.27C43.9767 49.11 43.7233 49.03 43.3633 49.03C43.21 49.03 43.0567 49.05 42.9033 49.09C42.75 49.1233 42.6333 49.16 42.5533 49.2V53H41.0633V48.37ZM47.2871 50.45V49.42H50.3371V50.45H47.2871ZM21.9178 65.15C21.4044 65.15 20.9544 65.0467 20.5678 64.84C20.1811 64.6267 19.8811 64.3267 19.6678 63.94C19.4544 63.5533 19.3478 63.0867 19.3478 62.54C19.3478 61.66 19.5644 60.98 19.9978 60.5C20.4378 60.0133 21.0611 59.77 21.8678 59.77C22.7011 59.77 23.3011 60.04 23.6678 60.58C24.0344 61.1133 24.2144 61.8733 24.2078 62.86H20.8678C20.9278 63.2 21.0711 63.46 21.2978 63.64C21.5311 63.82 21.8578 63.91 22.2778 63.91C22.5578 63.91 22.8311 63.8667 23.0978 63.78C23.3711 63.6867 23.5911 63.6033 23.7578 63.53V64.81C23.5178 64.91 23.2478 64.99 22.9478 65.05C22.6544 65.1167 22.3111 65.15 21.9178 65.15ZM21.8078 60.91C21.5678 60.91 21.3611 60.9867 21.1878 61.14C21.0211 61.2867 20.9111 61.5433 20.8578 61.91H22.7278C22.6811 61.55 22.5844 61.2933 22.4378 61.14C22.2911 60.9867 22.0811 60.91 21.8078 60.91ZM27.663 65.15C27.1363 65.15 26.6697 65.07 26.263 64.91C25.8563 64.75 25.5363 64.4733 25.303 64.08C25.0763 63.6867 24.963 63.1367 24.963 62.43C24.963 61.61 25.163 60.9633 25.563 60.49C25.963 60.0167 26.5697 59.78 27.383 59.78C27.503 59.78 27.673 59.7933 27.893 59.82C28.113 59.8467 28.3263 59.9167 28.533 60.03V57.86H30.013V63.68C30.013 64.0067 29.8997 64.28 29.673 64.5C29.4463 64.7133 29.153 64.8767 28.793 64.99C28.433 65.0967 28.0563 65.15 27.663 65.15ZM27.723 63.9C27.963 63.9 28.1563 63.87 28.303 63.81C28.4563 63.7433 28.533 63.6467 28.533 63.52V61.19C28.2797 61.05 28.0197 60.98 27.753 60.98C27.3263 60.98 27.003 61.09 26.783 61.31C26.5697 61.53 26.463 61.9167 26.463 62.47C26.463 62.9167 26.553 63.2667 26.733 63.52C26.9197 63.7733 27.2497 63.9 27.723 63.9ZM33.7168 65.15C33.0101 65.15 32.4368 64.9833 31.9968 64.65C31.5568 64.3167 31.3368 63.79 31.3368 63.07V59.94H32.8268V62.95C32.8268 63.27 32.8968 63.51 33.0368 63.67C33.1834 63.8233 33.4134 63.9 33.7268 63.9C34.0401 63.9 34.2668 63.8233 34.4068 63.67C34.5534 63.51 34.6268 63.27 34.6268 62.95V59.94H36.0268V63.07C36.0268 63.79 35.8201 64.3167 35.4068 64.65C34.9934 64.9833 34.4301 65.15 33.7168 65.15ZM39.7126 65.13C39.2326 65.13 38.7893 65.0367 38.3826 64.85C37.9826 64.6567 37.6626 64.37 37.4226 63.99C37.1826 63.6033 37.0626 63.12 37.0626 62.54C37.0626 61.92 37.176 61.41 37.4026 61.01C37.6293 60.6033 37.9393 60.3 38.3326 60.1C38.7326 59.9 39.1893 59.8 39.7026 59.8C39.976 59.8 40.256 59.83 40.5426 59.89C40.836 59.9433 41.0926 60.02 41.3126 60.12V61.4C41.0793 61.3 40.8493 61.2133 40.6226 61.14C40.4026 61.0667 40.176 61.03 39.9426 61.03C39.5226 61.03 39.1826 61.1367 38.9226 61.35C38.6693 61.5567 38.5426 61.8967 38.5426 62.37C38.5426 62.87 38.6526 63.2467 38.8726 63.5C39.0993 63.7533 39.4793 63.88 40.0126 63.88C40.2526 63.88 40.4893 63.8367 40.7226 63.75C40.956 63.6633 41.156 63.5733 41.3226 63.48V64.75C41.0893 64.87 40.846 64.9633 40.5926 65.03C40.3393 65.0967 40.046 65.13 39.7126 65.13ZM44.3121 65.15C43.8988 65.15 43.5255 65.1 43.1921 65C42.8588 64.8933 42.5921 64.7167 42.3921 64.47C42.1921 64.2167 42.0921 63.8667 42.0921 63.42C42.0921 62.9533 42.2388 62.58 42.5321 62.3C42.8255 62.0133 43.2821 61.87 43.9021 61.87C44.1621 61.87 44.4121 61.9033 44.6521 61.97C44.8988 62.0367 45.1088 62.1167 45.2821 62.21V61.89C45.2821 61.5833 45.1821 61.3633 44.9821 61.23C44.7888 61.09 44.5155 61.02 44.1621 61.02C43.8621 61.02 43.5621 61.0733 43.2621 61.18C42.9621 61.28 42.7255 61.4033 42.5521 61.55V60.23C42.7121 60.1233 42.9755 60.0233 43.3421 59.93C43.7155 59.8367 44.1255 59.79 44.5721 59.79C44.7655 59.79 44.9855 59.8133 45.2321 59.86C45.4855 59.9 45.7288 59.9833 45.9621 60.11C46.1955 60.23 46.3855 60.4067 46.5321 60.64C46.6855 60.8733 46.7621 61.18 46.7621 61.56L46.7521 63.95C46.7455 64.3833 46.5288 64.6933 46.1021 64.88C45.6755 65.06 45.0788 65.15 44.3121 65.15ZM43.5721 63.45C43.5721 63.65 43.6521 63.81 43.8121 63.93C43.9788 64.0433 44.1621 64.1 44.3621 64.1C44.7021 64.1 44.9388 64.0767 45.0721 64.03C45.2121 63.9833 45.2821 63.89 45.2821 63.75V62.97C45.0421 62.89 44.7855 62.85 44.5121 62.85C43.8855 62.85 43.5721 63.05 43.5721 63.45ZM50.1548 65.2C49.5681 65.2 49.1315 65.0633 48.8448 64.79C48.5581 64.51 48.4148 64.1167 48.4148 63.61V61.08H47.6748V59.94H48.4148V58.55H49.9748V59.94H51.0848V61.08H49.9748V63.42C49.9748 63.5933 50.0115 63.7233 50.0848 63.81C50.1581 63.89 50.2815 63.93 50.4548 63.93C50.6881 63.93 50.8981 63.86 51.0848 63.72V64.99C50.9381 65.07 50.7848 65.1233 50.6248 65.15C50.4648 65.1833 50.3081 65.2 50.1548 65.2ZM52.2157 59.25V58.1H53.7557V59.25H52.2157ZM52.2457 65V60.01H53.7357L53.7457 65H52.2457ZM57.367 65.15C56.8537 65.15 56.4037 65.0467 56.017 64.84C55.6303 64.6267 55.3303 64.3267 55.117 63.94C54.9037 63.5533 54.797 63.0867 54.797 62.54C54.797 61.66 55.0137 60.98 55.447 60.5C55.887 60.0133 56.5103 59.77 57.317 59.77C58.1503 59.77 58.7503 60.04 59.117 60.58C59.4837 61.1133 59.6637 61.8733 59.657 62.86H56.317C56.377 63.2 56.5203 63.46 56.747 63.64C56.9803 63.82 57.307 63.91 57.727 63.91C58.007 63.91 58.2803 63.8667 58.547 63.78C58.8203 63.6867 59.0403 63.6033 59.207 63.53V64.81C58.967 64.91 58.697 64.99 58.397 65.05C58.1037 65.1167 57.7603 65.15 57.367 65.15ZM57.257 60.91C57.017 60.91 56.8103 60.9867 56.637 61.14C56.4703 61.2867 56.3603 61.5433 56.307 61.91H58.177C58.1303 61.55 58.0337 61.2933 57.887 61.14C57.7403 60.9867 57.5303 60.91 57.257 60.91Z" fill="white"/>
<path d="M11.7011 10L9.21105 3.33H11.0811L12.7111 8.21L14.3211 3.34L16.0411 3.33L13.4311 10H11.7011ZM18.6229 10.15C18.1095 10.15 17.6595 10.0467 17.2729 9.84C16.8862 9.62667 16.5862 9.32667 16.3729 8.94C16.1595 8.55333 16.0529 8.08667 16.0529 7.54C16.0529 6.66 16.2695 5.98 16.7029 5.5C17.1429 5.01333 17.7662 4.77 18.5729 4.77C19.4062 4.77 20.0062 5.04 20.3729 5.58C20.7395 6.11333 20.9195 6.87333 20.9129 7.86H17.5729C17.6329 8.2 17.7762 8.46 18.0029 8.64C18.2362 8.82 18.5629 8.91 18.9829 8.91C19.2629 8.91 19.5362 8.86667 19.8029 8.78C20.0762 8.68667 20.2962 8.60333 20.4629 8.53V9.81C20.2229 9.91 19.9529 9.99 19.6529 10.05C19.3595 10.1167 19.0162 10.15 18.6229 10.15ZM18.5129 5.91C18.2729 5.91 18.0662 5.98667 17.8929 6.14C17.7262 6.28667 17.6162 6.54333 17.5629 6.91H19.4329C19.3862 6.55 19.2895 6.29333 19.1429 6.14C18.9962 5.98667 18.7862 5.91 18.5129 5.91ZM21.9481 10V5.47C22.0414 5.39667 22.2081 5.30667 22.4481 5.2C22.6881 5.09333 22.9614 5 23.2681 4.92C23.5814 4.83333 23.8948 4.79 24.2081 4.79C24.5214 4.79 24.7681 4.81333 24.9481 4.86C25.1281 4.90667 25.2648 4.96667 25.3581 5.04V6.13C25.2048 6.09667 25.0048 6.07333 24.7581 6.06C24.5114 6.04667 24.2648 6.04333 24.0181 6.05C23.7781 6.05 23.5848 6.06333 23.4381 6.09V10H21.9481ZM28.1654 10.15C27.4788 10.1167 26.9354 9.89667 26.5354 9.49C26.1421 9.08333 25.9454 8.46333 25.9454 7.63C25.9454 6.88333 26.0654 6.30667 26.3054 5.9C26.5454 5.48667 26.8788 5.2 27.3054 5.04C27.7388 4.88 28.2421 4.8 28.8154 4.8C29.4488 4.8 29.9554 4.92 30.3354 5.16C30.7154 5.39333 30.9054 5.72667 30.9054 6.16V10.06C30.9054 10.7667 30.6788 11.3033 30.2254 11.67C29.7788 12.0367 29.1454 12.22 28.3254 12.22C27.8788 12.22 27.4954 12.19 27.1754 12.13C26.8621 12.07 26.6221 11.9933 26.4554 11.9V10.59C26.5554 10.6367 26.7021 10.69 26.8954 10.75C27.0888 10.8167 27.3054 10.87 27.5454 10.91C27.7854 10.9567 28.0254 10.98 28.2654 10.98C28.7254 10.98 29.0354 10.8867 29.1954 10.7C29.3621 10.52 29.4454 10.2867 29.4454 10V9.72C29.2854 9.85333 29.1021 9.95667 28.8954 10.03C28.6888 10.11 28.4454 10.15 28.1654 10.15ZM28.5454 9.03C28.8854 9.03 29.1854 8.95667 29.4454 8.81V6.49C29.4454 6.27667 29.3621 6.14 29.1954 6.08C29.0288 6.01333 28.8454 5.98 28.6454 5.98C28.1854 5.98 27.8654 6.12667 27.6854 6.42C27.5121 6.71333 27.4254 7.08667 27.4254 7.54C27.4254 8 27.5288 8.36333 27.7354 8.63C27.9421 8.89667 28.2121 9.03 28.5454 9.03ZM32.1532 10V5.47C32.2465 5.39667 32.4132 5.30667 32.6532 5.2C32.8932 5.09333 33.1665 5 33.4732 4.92C33.7865 4.83333 34.0998 4.79 34.4132 4.79C34.7265 4.79 34.9732 4.81333 35.1532 4.86C35.3332 4.90667 35.4698 4.96667 35.5632 5.04V6.13C35.4098 6.09667 35.2098 6.07333 34.9632 6.06C34.7165 6.04667 34.4698 6.04333 34.2232 6.05C33.9832 6.05 33.7898 6.06333 33.6432 6.09V10H32.1532ZM38.5545 10.15C38.0412 10.15 37.5912 10.0467 37.2045 9.84C36.8178 9.62667 36.5178 9.32667 36.3045 8.94C36.0912 8.55333 35.9845 8.08667 35.9845 7.54C35.9845 6.66 36.2012 5.98 36.6345 5.5C37.0745 5.01333 37.6978 4.77 38.5045 4.77C39.3378 4.77 39.9378 5.04 40.3045 5.58C40.6712 6.11333 40.8512 6.87333 40.8445 7.86H37.5045C37.5645 8.2 37.7078 8.46 37.9345 8.64C38.1678 8.82 38.4945 8.91 38.9145 8.91C39.1945 8.91 39.4678 8.86667 39.7345 8.78C40.0078 8.68667 40.2278 8.60333 40.3945 8.53V9.81C40.1545 9.91 39.8845 9.99 39.5845 10.05C39.2912 10.1167 38.9478 10.15 38.5545 10.15ZM38.4445 5.91C38.2045 5.91 37.9978 5.98667 37.8245 6.14C37.6578 6.28667 37.5478 6.54333 37.4945 6.91H39.3645C39.3178 6.55 39.2212 6.29333 39.0745 6.14C38.9278 5.98667 38.7178 5.91 38.4445 5.91ZM41.8797 5.37C42.0464 5.27667 42.2797 5.18667 42.5797 5.1C42.8864 5.01333 43.2097 4.94333 43.5497 4.89C43.8964 4.83 44.2131 4.8 44.4997 4.8C45.1797 4.8 45.7064 4.93333 46.0797 5.2C46.4597 5.46667 46.6497 5.93333 46.6497 6.6V10H45.1597V6.9C45.1597 6.64 45.0864 6.43 44.9397 6.27C44.7931 6.11 44.5397 6.03 44.1797 6.03C44.0264 6.03 43.8731 6.05 43.7197 6.09C43.5664 6.12333 43.4497 6.16 43.3697 6.2V10H41.8797V5.37ZM50.3935 10.15C49.8668 10.15 49.4001 10.07 48.9935 9.91C48.5868 9.75 48.2668 9.47333 48.0335 9.08C47.8068 8.68667 47.6935 8.13667 47.6935 7.43C47.6935 6.61 47.8935 5.96333 48.2935 5.49C48.6935 5.01667 49.3001 4.78 50.1135 4.78C50.2335 4.78 50.4035 4.79333 50.6235 4.82C50.8435 4.84667 51.0568 4.91667 51.2635 5.03V2.86H52.7435V8.68C52.7435 9.00667 52.6301 9.28 52.4035 9.5C52.1768 9.71333 51.8835 9.87667 51.5235 9.99C51.1635 10.0967 50.7868 10.15 50.3935 10.15ZM50.4535 8.9C50.6935 8.9 50.8868 8.87 51.0335 8.81C51.1868 8.74333 51.2635 8.64667 51.2635 8.52V6.19C51.0101 6.05 50.7501 5.98 50.4835 5.98C50.0568 5.98 49.7335 6.09 49.5135 6.31C49.3001 6.53 49.1935 6.91667 49.1935 7.47C49.1935 7.91667 49.2835 8.26667 49.4635 8.52C49.6501 8.77333 49.9801 8.9 50.4535 8.9ZM56.3572 10.15C55.8439 10.15 55.3939 10.0467 55.0072 9.84C54.6206 9.62667 54.3206 9.32667 54.1072 8.94C53.8939 8.55333 53.7872 8.08667 53.7872 7.54C53.7872 6.66 54.0039 5.98 54.4372 5.5C54.8772 5.01333 55.5006 4.77 56.3072 4.77C57.1406 4.77 57.7406 5.04 58.1072 5.58C58.4739 6.11333 58.6539 6.87333 58.6472 7.86H55.3072C55.3672 8.2 55.5106 8.46 55.7372 8.64C55.9706 8.82 56.2972 8.91 56.7172 8.91C56.9972 8.91 57.2706 8.86667 57.5372 8.78C57.8106 8.68667 58.0306 8.60333 58.1972 8.53V9.81C57.9572 9.91 57.6872 9.99 57.3872 10.05C57.0939 10.1167 56.7506 10.15 56.3572 10.15ZM56.2472 5.91C56.0072 5.91 55.8006 5.98667 55.6272 6.14C55.4606 6.28667 55.3506 6.54333 55.2972 6.91H57.1672C57.1206 6.55 57.0239 6.29333 56.8772 6.14C56.7306 5.98667 56.5206 5.91 56.2472 5.91ZM61.1625 10H59.6825V3.03H61.1625V10ZM64.9052 10.15C64.3785 10.15 63.9119 10.07 63.5052 9.91C63.0985 9.75 62.7785 9.47333 62.5452 9.08C62.3185 8.68667 62.2052 8.13667 62.2052 7.43C62.2052 6.61 62.4052 5.96333 62.8052 5.49C63.2052 5.01667 63.8119 4.78 64.6252 4.78C64.7452 4.78 64.9152 4.79333 65.1352 4.82C65.3552 4.84667 65.5685 4.91667 65.7752 5.03V2.86H67.2552V8.68C67.2552 9.00667 67.1419 9.28 66.9152 9.5C66.6885 9.71333 66.3952 9.87667 66.0352 9.99C65.6752 10.0967 65.2985 10.15 64.9052 10.15ZM64.9652 8.9C65.2052 8.9 65.3985 8.87 65.5452 8.81C65.6985 8.74333 65.7752 8.64667 65.7752 8.52V6.19C65.5219 6.05 65.2619 5.98 64.9952 5.98C64.5685 5.98 64.2452 6.09 64.0252 6.31C63.8119 6.53 63.7052 6.91667 63.7052 7.47C63.7052 7.91667 63.7952 8.26667 63.9752 8.52C64.1619 8.77333 64.4919 8.9 64.9652 8.9Z" fill="#01426A"/>
<path d="M112.886 10L110.396 3.33H112.266L113.896 8.21L115.506 3.34L117.226 3.33L114.616 10H112.886ZM119.797 10.15C118.084 10.15 117.231 9.25 117.237 7.45C117.237 6.49667 117.454 5.81333 117.887 5.4C118.321 4.98 118.957 4.77 119.797 4.77C120.644 4.77 121.287 4.98667 121.727 5.42C122.167 5.84667 122.387 6.52333 122.387 7.45C122.387 8.33667 122.164 9.01 121.717 9.47C121.271 9.92333 120.631 10.15 119.797 10.15ZM119.797 8.96C120.164 8.96 120.441 8.83333 120.627 8.58C120.814 8.32 120.907 7.94333 120.907 7.45C120.907 6.89 120.811 6.5 120.617 6.28C120.431 6.06 120.157 5.95 119.797 5.95C119.417 5.95 119.141 6.06333 118.967 6.29C118.794 6.51667 118.707 6.90333 118.707 7.45C118.707 7.95667 118.794 8.33667 118.967 8.59C119.147 8.83667 119.424 8.96 119.797 8.96ZM125.696 10.15C123.983 10.15 123.129 9.25 123.136 7.45C123.136 6.49667 123.353 5.81333 123.786 5.4C124.219 4.98 124.856 4.77 125.696 4.77C126.543 4.77 127.186 4.98667 127.626 5.42C128.066 5.84667 128.286 6.52333 128.286 7.45C128.286 8.33667 128.063 9.01 127.616 9.47C127.169 9.92333 126.529 10.15 125.696 10.15ZM125.696 8.96C126.063 8.96 126.339 8.83333 126.526 8.58C126.713 8.32 126.806 7.94333 126.806 7.45C126.806 6.89 126.709 6.5 126.516 6.28C126.329 6.06 126.056 5.95 125.696 5.95C125.316 5.95 125.039 6.06333 124.866 6.29C124.693 6.51667 124.606 6.90333 124.606 7.45C124.606 7.95667 124.693 8.33667 124.866 8.59C125.046 8.83667 125.323 8.96 125.696 8.96ZM129.314 10V5.47C129.408 5.39667 129.574 5.30667 129.814 5.2C130.054 5.09333 130.328 5 130.634 4.92C130.948 4.83333 131.261 4.79 131.574 4.79C131.888 4.79 132.134 4.81333 132.314 4.86C132.494 4.90667 132.631 4.96667 132.724 5.04V6.13C132.571 6.09667 132.371 6.07333 132.124 6.06C131.878 6.04667 131.631 6.04333 131.384 6.05C131.144 6.05 130.951 6.06333 130.804 6.09V10H129.314ZM135.662 10.2C135.075 10.2 134.638 10.0633 134.352 9.79C134.065 9.51 133.922 9.11667 133.922 8.61V6.08H133.182V4.94H133.922V3.55H135.482V4.94H136.592V6.08H135.482V8.42C135.482 8.59333 135.518 8.72333 135.592 8.81C135.665 8.89 135.788 8.93 135.962 8.93C136.195 8.93 136.405 8.86 136.592 8.72V9.99C136.445 10.07 136.292 10.1233 136.132 10.15C135.972 10.1833 135.815 10.2 135.662 10.2ZM139.663 10.15C138.976 10.1167 138.433 9.89667 138.033 9.49C137.639 9.08333 137.443 8.46333 137.443 7.63C137.443 6.88333 137.563 6.30667 137.803 5.9C138.043 5.48667 138.376 5.2 138.803 5.04C139.236 4.88 139.739 4.8 140.313 4.8C140.946 4.8 141.453 4.92 141.833 5.16C142.213 5.39333 142.403 5.72667 142.403 6.16V10.06C142.403 10.7667 142.176 11.3033 141.723 11.67C141.276 12.0367 140.643 12.22 139.823 12.22C139.376 12.22 138.993 12.19 138.673 12.13C138.359 12.07 138.119 11.9933 137.953 11.9V10.59C138.053 10.6367 138.199 10.69 138.393 10.75C138.586 10.8167 138.803 10.87 139.043 10.91C139.283 10.9567 139.523 10.98 139.763 10.98C140.223 10.98 140.533 10.8867 140.693 10.7C140.859 10.52 140.943 10.2867 140.943 10V9.72C140.783 9.85333 140.599 9.95667 140.393 10.03C140.186 10.11 139.943 10.15 139.663 10.15ZM140.043 9.03C140.383 9.03 140.683 8.95667 140.943 8.81V6.49C140.943 6.27667 140.859 6.14 140.693 6.08C140.526 6.01333 140.343 5.98 140.143 5.98C139.683 5.98 139.363 6.12667 139.183 6.42C139.009 6.71333 138.923 7.08667 138.923 7.54C138.923 8 139.026 8.36333 139.233 8.63C139.439 8.89667 139.709 9.03 140.043 9.03ZM145.6 10.15C145.187 10.15 144.814 10.1 144.48 10C144.147 9.89333 143.88 9.71667 143.68 9.47C143.48 9.21667 143.38 8.86667 143.38 8.42C143.38 7.95333 143.527 7.58 143.82 7.3C144.114 7.01333 144.57 6.87 145.19 6.87C145.45 6.87 145.7 6.90333 145.94 6.97C146.187 7.03667 146.397 7.11667 146.57 7.21V6.89C146.57 6.58333 146.47 6.36333 146.27 6.23C146.077 6.09 145.804 6.02 145.45 6.02C145.15 6.02 144.85 6.07333 144.55 6.18C144.25 6.28 144.014 6.40333 143.84 6.55V5.23C144 5.12333 144.264 5.02333 144.63 4.93C145.004 4.83667 145.414 4.79 145.86 4.79C146.054 4.79 146.274 4.81333 146.52 4.86C146.774 4.9 147.017 4.98333 147.25 5.11C147.484 5.23 147.674 5.40667 147.82 5.64C147.974 5.87333 148.05 6.18 148.05 6.56L148.04 8.95C148.034 9.38333 147.817 9.69333 147.39 9.88C146.964 10.06 146.367 10.15 145.6 10.15ZM144.86 8.45C144.86 8.65 144.94 8.81 145.1 8.93C145.267 9.04333 145.45 9.1 145.65 9.1C145.99 9.1 146.227 9.07667 146.36 9.03C146.5 8.98333 146.57 8.89 146.57 8.75V7.97C146.33 7.89 146.074 7.85 145.8 7.85C145.174 7.85 144.86 8.05 144.86 8.45ZM149.373 5.37C149.54 5.27667 149.773 5.18667 150.073 5.1C150.38 5.01333 150.703 4.94333 151.043 4.89C151.39 4.83 151.706 4.8 151.993 4.8C152.673 4.8 153.2 4.93333 153.573 5.2C153.953 5.46667 154.143 5.93333 154.143 6.6V10H152.653V6.9C152.653 6.64 152.58 6.43 152.433 6.27C152.286 6.11 152.033 6.03 151.673 6.03C151.52 6.03 151.366 6.05 151.213 6.09C151.06 6.12333 150.943 6.16 150.863 6.2V10H149.373V5.37ZM157.407 10.15C156.72 10.1167 156.177 9.89667 155.777 9.49C155.383 9.08333 155.187 8.46333 155.187 7.63C155.187 6.88333 155.307 6.30667 155.547 5.9C155.787 5.48667 156.12 5.2 156.547 5.04C156.98 4.88 157.483 4.8 158.057 4.8C158.69 4.8 159.197 4.92 159.577 5.16C159.957 5.39333 160.147 5.72667 160.147 6.16V10.06C160.147 10.7667 159.92 11.3033 159.467 11.67C159.02 12.0367 158.387 12.22 157.567 12.22C157.12 12.22 156.737 12.19 156.417 12.13C156.103 12.07 155.863 11.9933 155.697 11.9V10.59C155.797 10.6367 155.943 10.69 156.137 10.75C156.33 10.8167 156.547 10.87 156.787 10.91C157.027 10.9567 157.267 10.98 157.507 10.98C157.967 10.98 158.277 10.8867 158.437 10.7C158.603 10.52 158.687 10.2867 158.687 10V9.72C158.527 9.85333 158.343 9.95667 158.137 10.03C157.93 10.11 157.687 10.15 157.407 10.15ZM157.787 9.03C158.127 9.03 158.427 8.95667 158.687 8.81V6.49C158.687 6.27667 158.603 6.14 158.437 6.08C158.27 6.01333 158.087 5.98 157.887 5.98C157.427 5.98 157.107 6.12667 156.927 6.42C156.753 6.71333 156.667 7.08667 156.667 7.54C156.667 8 156.77 8.36333 156.977 8.63C157.183 8.89667 157.453 9.03 157.787 9.03Z" fill="#01426A"/>
<path d="M212.483 10V3.33H214.103V6.12L216.143 3.33H218.183L215.683 6.15L218.393 10H216.363L214.563 7.4L214.103 7.91V10H212.483ZM220.71 10H219.23V3.03H220.71V10ZM223.983 10.15C223.57 10.15 223.196 10.1 222.863 10C222.53 9.89333 222.263 9.71667 222.063 9.47C221.863 9.21667 221.763 8.86667 221.763 8.42C221.763 7.95333 221.91 7.58 222.203 7.3C222.496 7.01333 222.953 6.87 223.573 6.87C223.833 6.87 224.083 6.90333 224.323 6.97C224.57 7.03667 224.78 7.11667 224.953 7.21V6.89C224.953 6.58333 224.853 6.36333 224.653 6.23C224.46 6.09 224.186 6.02 223.833 6.02C223.533 6.02 223.233 6.07333 222.933 6.18C222.633 6.28 222.396 6.40333 222.223 6.55V5.23C222.383 5.12333 222.646 5.02333 223.013 4.93C223.386 4.83667 223.796 4.79 224.243 4.79C224.436 4.79 224.656 4.81333 224.903 4.86C225.156 4.9 225.4 4.98333 225.633 5.11C225.866 5.23 226.056 5.40667 226.203 5.64C226.356 5.87333 226.433 6.18 226.433 6.56L226.423 8.95C226.416 9.38333 226.2 9.69333 225.773 9.88C225.346 10.06 224.75 10.15 223.983 10.15ZM223.243 8.45C223.243 8.65 223.323 8.81 223.483 8.93C223.65 9.04333 223.833 9.1 224.033 9.1C224.373 9.1 224.61 9.07667 224.743 9.03C224.883 8.98333 224.953 8.89 224.953 8.75V7.97C224.713 7.89 224.456 7.85 224.183 7.85C223.556 7.85 223.243 8.05 223.243 8.45ZM229.706 10.15C229.292 10.15 228.919 10.1 228.586 10C228.252 9.89333 227.986 9.71667 227.786 9.47C227.586 9.21667 227.486 8.86667 227.486 8.42C227.486 7.95333 227.632 7.58 227.926 7.3C228.219 7.01333 228.676 6.87 229.296 6.87C229.556 6.87 229.806 6.90333 230.046 6.97C230.292 7.03667 230.502 7.11667 230.676 7.21V6.89C230.676 6.58333 230.576 6.36333 230.376 6.23C230.182 6.09 229.909 6.02 229.556 6.02C229.256 6.02 228.956 6.07333 228.656 6.18C228.356 6.28 228.119 6.40333 227.946 6.55V5.23C228.106 5.12333 228.369 5.02333 228.736 4.93C229.109 4.83667 229.519 4.79 229.966 4.79C230.159 4.79 230.379 4.81333 230.626 4.86C230.879 4.9 231.122 4.98333 231.356 5.11C231.589 5.23 231.779 5.40667 231.926 5.64C232.079 5.87333 232.156 6.18 232.156 6.56L232.146 8.95C232.139 9.38333 231.922 9.69333 231.496 9.88C231.069 10.06 230.472 10.15 229.706 10.15ZM228.966 8.45C228.966 8.65 229.046 8.81 229.206 8.93C229.372 9.04333 229.556 9.1 229.756 9.1C230.096 9.1 230.332 9.07667 230.466 9.03C230.606 8.98333 230.676 8.89 230.676 8.75V7.97C230.436 7.89 230.179 7.85 229.906 7.85C229.279 7.85 228.966 8.05 228.966 8.45ZM233.478 10V5.47C233.572 5.39667 233.738 5.30667 233.978 5.2C234.218 5.09333 234.492 5 234.798 4.92C235.112 4.83333 235.425 4.79 235.738 4.79C236.052 4.79 236.298 4.81333 236.478 4.86C236.658 4.90667 236.795 4.96667 236.888 5.04V6.13C236.735 6.09667 236.535 6.07333 236.288 6.06C236.042 6.04667 235.795 6.04333 235.548 6.05C235.308 6.05 235.115 6.06333 234.968 6.09V10H233.478ZM238.676 8.16L238.506 3.33H239.936L239.756 8.16H238.676ZM238.556 10V8.86H239.876V10H238.556Z" fill="#01426A"/>
<path d="M81 63.0025L87.7989 56.5L81 49.9975L83.0931 48L92 56.5L83.0931 65L81 63.0025Z" fill="#0086BF"/>
<path d="M175 64.0025L181.799 57.5L175 50.9975L177.093 49L186 57.5L177.093 66L175 64.0025Z" fill="#0086BF"/>
<defs>
<filter id="filter0_d" x="231" y="14" width="35" height="35" filterUnits="userSpaceOnUse" color-interpolation-filters="sRGB">
<feFlood flood-opacity="0" result="BackgroundImageFix"/>
<feColorMatrix in="SourceAlpha" type="matrix" values="0 0 0 0 0 0 0 0 0 0 0 0 0 0 0 0 0 0 127 0"/>
<feOffset dy="4"/>
<feGaussianBlur stdDeviation="2"/>
<feColorMatrix type="matrix" values="0 0 0 0 0 0 0 0 0 0 0 0 0 0 0 0 0 0 0.1 0"/>
<feBlend mode="normal" in2="BackgroundImageFix" result="effect1_dropShadow"/>
<feBlend mode="normal" in="SourceGraphic" in2="effect1_dropShadow" result="shape"/>
</filter>
</defs>
</svg>
