<svg width="933" height="558" viewBox="0 0 933 558" fill="none" xmlns="http://www.w3.org/2000/svg">
<g clip-path="url(#clip0)">
<path d="M809.206 273.716H206.368C197.622 273.705 189.236 270.028 183.051 263.49C176.866 256.952 173.387 248.087 173.377 238.841V34.875C173.387 25.6288 176.866 16.7643 183.051 10.2262C189.236 3.68812 197.622 0.0104445 206.368 0H809.206C817.953 0.0104445 826.338 3.68812 832.523 10.2262C838.708 16.7643 842.187 25.6288 842.197 34.875V238.841C842.187 248.087 838.708 256.952 832.523 263.49C826.338 270.028 817.953 273.705 809.206 273.716V273.716Z" fill="#E6E6E6"/>
<path d="M207.368 13.7388C202.067 13.7452 196.985 15.9741 193.236 19.9365C189.488 23.899 187.379 29.2714 187.373 34.8751V238.841C187.379 244.445 189.488 249.817 193.236 253.78C196.985 257.742 202.067 259.971 207.368 259.977H810.206C815.507 259.971 820.589 257.742 824.337 253.78C828.086 249.817 830.194 244.445 830.2 238.841V34.8751C830.194 29.2714 828.086 23.899 824.337 19.9365C820.589 15.974 815.507 13.7451 810.206 13.7388H207.368Z" fill="white"/>
<path d="M282.991 99.065C278.659 99.065 274.425 97.7072 270.823 95.1633C267.222 92.6194 264.415 89.0037 262.757 84.7733C261.099 80.5429 260.666 75.888 261.511 71.397C262.356 66.9061 264.442 62.7809 267.504 59.5431C270.567 56.3053 274.47 54.1004 278.718 53.2071C282.966 52.3138 287.37 52.7722 291.372 54.5245C295.374 56.2768 298.794 59.2442 301.201 63.0514C303.607 66.8586 304.891 71.3347 304.891 75.9136V75.9136C304.885 82.0516 302.576 87.9363 298.47 92.2766C294.364 96.6168 288.797 99.0582 282.991 99.065V99.065ZM282.991 55.8491C279.237 55.8491 275.567 57.0258 272.446 59.2306C269.324 61.4353 266.891 64.5689 265.455 68.2352C264.018 71.9016 263.642 75.9359 264.375 79.828C265.107 83.7202 266.915 87.2953 269.569 90.1014C272.224 92.9075 275.606 94.8185 279.288 95.5927C282.97 96.3669 286.786 95.9695 290.254 94.4509C293.723 92.9322 296.687 90.3605 298.773 87.0609C300.858 83.7613 301.971 79.882 301.971 75.9136V75.9136C301.966 70.594 299.964 65.4941 296.406 61.7325C292.847 57.971 288.023 55.8551 282.991 55.8491Z" fill="#CCCCCC"/>
<path d="M282.506 70.6592H282.465L280.154 71.9781L279.807 70.5296L282.71 68.8867H284.245V82.9403H282.506V70.6592Z" fill="#CCCCCC"/>
<path d="M253.093 136.441C253.608 136.46 254.117 136.314 254.554 136.023C254.99 135.732 255.333 135.308 255.539 134.808C255.745 134.308 255.803 133.754 255.707 133.218C255.611 132.682 255.364 132.189 254.999 131.803C254.634 131.418 254.168 131.157 253.661 131.055C253.154 130.953 252.63 131.015 252.157 131.233C251.684 131.45 251.283 131.813 251.008 132.274C250.732 132.735 250.595 133.274 250.612 133.819C250.635 134.507 250.903 135.16 251.364 135.646C251.824 136.133 252.442 136.417 253.093 136.441Z" fill="#E6E6E6"/>
<path d="M253.093 153.418C253.608 153.437 254.117 153.291 254.554 153C254.99 152.709 255.333 152.286 255.539 151.786C255.745 151.285 255.803 150.731 255.707 150.195C255.611 149.659 255.364 149.167 254.999 148.781C254.634 148.395 254.168 148.134 253.661 148.033C253.154 147.931 252.63 147.993 252.157 148.21C251.684 148.428 251.283 148.79 251.008 149.252C250.732 149.713 250.595 150.251 250.612 150.796C250.635 151.484 250.903 152.137 251.364 152.624C251.824 153.11 252.442 153.394 253.093 153.418V153.418Z" fill="#E6E6E6"/>
<path d="M253.093 170.396C253.608 170.415 254.117 170.269 254.554 169.978C254.99 169.687 255.333 169.263 255.539 168.763C255.745 168.263 255.803 167.709 255.707 167.173C255.611 166.637 255.364 166.144 254.999 165.758C254.634 165.373 254.168 165.112 253.661 165.01C253.154 164.908 252.63 164.97 252.157 165.188C251.684 165.405 251.283 165.768 251.008 166.229C250.732 166.691 250.595 167.229 250.612 167.774C250.635 168.462 250.903 169.115 251.364 169.601C251.824 170.088 252.442 170.372 253.093 170.396Z" fill="#E6E6E6"/>
<path d="M313.909 135.268H267.187C266.8 135.268 266.429 135.105 266.155 134.816C265.881 134.526 265.727 134.134 265.727 133.725C265.727 133.315 265.881 132.923 266.155 132.633C266.429 132.344 266.8 132.181 267.187 132.181H313.909C314.296 132.181 314.668 132.344 314.941 132.633C315.215 132.923 315.369 133.315 315.369 133.725C315.369 134.134 315.215 134.526 314.941 134.816C314.668 135.105 314.296 135.268 313.909 135.268H313.909Z" fill="#E6E6E6"/>
<path d="M313.909 152.246H267.187C266.8 152.246 266.428 152.084 266.154 151.795C265.88 151.506 265.726 151.113 265.726 150.704C265.725 150.294 265.879 149.902 266.152 149.612C266.426 149.322 266.797 149.159 267.184 149.159H313.909C314.296 149.158 314.668 149.32 314.942 149.61C315.216 149.899 315.37 150.291 315.371 150.7C315.371 151.11 315.217 151.503 314.944 151.792C314.67 152.082 314.299 152.245 313.912 152.246H313.909Z" fill="#E6E6E6"/>
<path d="M313.909 169.224H267.187C266.8 169.224 266.429 169.061 266.155 168.772C265.881 168.482 265.727 168.089 265.727 167.68C265.727 167.271 265.881 166.878 266.155 166.589C266.429 166.299 266.8 166.137 267.187 166.137H313.909C314.101 166.137 314.291 166.176 314.468 166.254C314.645 166.331 314.806 166.444 314.942 166.588C315.078 166.731 315.185 166.901 315.259 167.088C315.333 167.275 315.37 167.476 315.371 167.679C315.371 167.881 315.333 168.082 315.26 168.269C315.187 168.457 315.08 168.627 314.944 168.77C314.809 168.914 314.648 169.028 314.471 169.105C314.294 169.183 314.104 169.223 313.912 169.224H313.909Z" fill="#E6E6E6"/>
<path d="M418.646 95.8946C414.314 95.8946 410.08 94.5368 406.478 91.9929C402.877 89.449 400.07 85.8332 398.412 81.6029C396.755 77.3725 396.321 72.7175 397.166 68.2266C398.011 63.7357 400.097 59.6105 403.16 56.3727C406.223 53.1349 410.125 50.93 414.373 50.0367C418.622 49.1434 423.025 49.6018 427.027 51.3541C431.029 53.1064 434.449 56.0738 436.856 59.881C439.262 63.6882 440.547 68.1643 440.547 72.7432C440.547 75.7835 439.98 78.794 438.88 81.6029C437.779 84.4118 436.166 86.964 434.132 89.1138C432.098 91.2636 429.684 92.9689 427.027 94.1324C424.37 95.2958 421.522 95.8947 418.646 95.8946V95.8946ZM418.646 52.6787C414.892 52.6787 411.222 53.8554 408.101 56.0601C404.979 58.2648 402.547 61.3985 401.11 65.0648C399.673 68.7311 399.297 72.7655 400.03 76.6576C400.762 80.5498 402.57 84.1249 405.224 86.931C407.879 89.7371 411.261 91.6481 414.943 92.4223C418.625 93.1965 422.441 92.7991 425.909 91.2805C429.378 89.7619 432.342 87.1902 434.428 83.8906C436.513 80.591 437.627 76.7117 437.627 72.7433V72.7432C437.621 67.4237 435.619 62.3237 432.061 58.5622C428.503 54.8007 423.678 52.6848 418.646 52.6787V52.6787Z" fill="#CCCCCC"/>
<path d="M414.772 79.8893V78.7212L416.182 77.2727C419.578 73.8573 421.113 72.0396 421.133 69.9219C421.169 69.5482 421.125 69.1706 421.005 68.8171C420.885 68.4636 420.691 68.1433 420.437 67.8797C420.184 67.6162 419.878 67.4162 419.542 67.2946C419.206 67.173 418.848 67.1329 418.495 67.1772C417.452 67.2177 416.455 67.6372 415.672 68.3649L415.098 67.0249C416.155 66.0955 417.488 65.59 418.863 65.5976C419.392 65.5479 419.924 65.6178 420.426 65.8025C420.927 65.9873 421.385 66.2828 421.77 66.6693C422.155 67.0559 422.458 67.5246 422.658 68.0443C422.858 68.564 422.952 69.1229 422.932 69.6837C422.932 72.2777 421.153 74.3758 418.351 77.229L417.287 78.2675V78.3097H423.26V79.8893H414.772Z" fill="#CCCCCC"/>
<path d="M476.63 219.782H360.662C358.276 219.779 355.989 218.776 354.302 216.993C352.616 215.209 351.667 212.792 351.664 210.27V137.35C351.667 134.828 352.616 132.41 354.302 130.627C355.989 128.844 358.276 127.841 360.662 127.838H476.63C479.016 127.841 481.303 128.844 482.99 130.627C484.676 132.41 485.625 134.828 485.628 137.35V210.27C485.625 212.792 484.676 215.209 482.99 216.993C481.303 218.776 479.016 219.779 476.63 219.782V219.782Z" fill="white"/>
<path d="M458.068 147.572H379.225C378.837 147.572 378.466 147.41 378.192 147.121C377.918 146.832 377.763 146.439 377.763 146.03C377.763 145.621 377.916 145.228 378.189 144.938C378.463 144.648 378.834 144.485 379.221 144.485H458.067C458.455 144.484 458.826 144.647 459.1 144.936C459.374 145.225 459.529 145.617 459.529 146.027C459.53 146.436 459.376 146.829 459.103 147.118C458.829 147.408 458.458 147.571 458.071 147.572H458.068Z" fill="#E6E6E6"/>
<path d="M458.068 161.462H379.225C378.837 161.463 378.466 161.301 378.192 161.011C377.918 160.722 377.763 160.33 377.763 159.921C377.763 159.511 377.916 159.118 378.189 158.829C378.463 158.539 378.834 158.376 379.221 158.375H458.067C458.455 158.375 458.826 158.538 459.1 158.828C459.374 159.117 459.528 159.51 459.528 159.919C459.528 160.328 459.374 160.721 459.1 161.01C458.826 161.3 458.455 161.462 458.067 161.462H458.068Z" fill="#E6E6E6"/>
<path d="M458.068 175.353H379.225C378.837 175.354 378.466 175.192 378.192 174.903C377.918 174.613 377.763 174.221 377.763 173.812C377.763 173.402 377.916 173.01 378.189 172.72C378.463 172.43 378.834 172.267 379.221 172.267H458.067C458.455 172.266 458.826 172.428 459.1 172.717C459.374 173.007 459.529 173.399 459.529 173.808C459.53 174.218 459.376 174.61 459.103 174.9C458.829 175.19 458.458 175.353 458.071 175.353H458.068Z" fill="#E6E6E6"/>
<path d="M458.067 189.244H379.224C378.838 189.244 378.467 189.081 378.194 188.792C377.921 188.503 377.767 188.111 377.766 187.702C377.766 187.294 377.919 186.901 378.192 186.612C378.464 186.322 378.835 186.159 379.221 186.157H458.067C458.454 186.158 458.824 186.321 459.097 186.611C459.37 186.9 459.524 187.292 459.524 187.701C459.524 188.109 459.37 188.501 459.097 188.791C458.824 189.08 458.454 189.243 458.067 189.244H458.067Z" fill="#E6E6E6"/>
<path d="M458.067 203.135H379.224C378.837 203.135 378.466 202.973 378.192 202.683C377.918 202.394 377.764 202.001 377.764 201.592C377.764 201.182 377.918 200.79 378.192 200.5C378.466 200.211 378.837 200.048 379.224 200.048H458.067C458.455 200.048 458.826 200.21 459.1 200.499C459.374 200.788 459.529 201.181 459.529 201.59C459.529 201.999 459.376 202.392 459.102 202.682C458.829 202.972 458.458 203.135 458.07 203.135H458.067Z" fill="#E6E6E6"/>
<path d="M476.63 219.782H360.662C358.276 219.779 355.989 218.776 354.302 216.993C352.616 215.209 351.667 212.792 351.664 210.27V137.35C351.667 134.828 352.616 132.41 354.302 130.627C355.989 128.844 358.276 127.841 360.662 127.838H476.63C479.016 127.841 481.303 128.844 482.99 130.627C484.676 132.41 485.625 134.828 485.628 137.35V210.27C485.625 212.792 484.676 215.209 482.99 216.993C481.303 218.776 479.016 219.779 476.63 219.782V219.782ZM360.662 129.952C358.806 129.954 357.027 130.734 355.716 132.121C354.404 133.508 353.666 135.388 353.664 137.35V210.27C353.666 212.232 354.404 214.112 355.716 215.499C357.027 216.886 358.806 217.666 360.662 217.668H476.63C478.486 217.666 480.265 216.886 481.577 215.499C482.889 214.112 483.626 212.232 483.629 210.27V137.35C483.626 135.388 482.889 133.508 481.577 132.121C480.265 130.734 478.486 129.954 476.63 129.952H360.662Z" fill="#E6E6E6"/>
<path d="M565.378 95.8946C561.047 95.8946 556.812 94.5368 553.211 91.9929C549.609 89.449 546.802 85.8332 545.144 81.6029C543.487 77.3725 543.053 72.7175 543.898 68.2266C544.743 63.7357 546.829 59.6105 549.892 56.3727C552.955 53.1349 556.857 50.93 561.106 50.0367C565.354 49.1434 569.757 49.6018 573.759 51.3541C577.761 53.1064 581.181 56.0738 583.588 59.881C585.994 63.6882 587.279 68.1643 587.279 72.7432C587.279 78.8834 584.971 84.772 580.864 89.1138C576.757 93.4555 571.187 95.8947 565.378 95.8946V95.8946ZM565.378 52.6787C561.624 52.6787 557.954 53.8554 554.833 56.0601C551.712 58.2648 549.279 61.3985 547.842 65.0648C546.406 68.7311 546.03 72.7655 546.762 76.6576C547.494 80.5498 549.302 84.1249 551.957 86.931C554.611 89.7371 557.993 91.6481 561.675 92.4223C565.357 93.1965 569.173 92.7991 572.642 91.2805C576.11 89.7619 579.074 87.1902 581.16 83.8906C583.246 80.591 584.359 76.7117 584.359 72.7433V72.7432C584.353 67.4237 582.351 62.3238 578.793 58.5623C575.235 54.8008 570.41 52.6848 565.378 52.6787V52.6787Z" fill="#CCCCCC"/>
<path d="M561.717 77.5858C562.61 78.1442 563.624 78.4495 564.662 78.4721C566.974 78.4721 567.69 76.9151 567.669 75.7485C567.649 73.78 565.97 72.9375 564.234 72.9375H563.23V71.5101H564.234C565.543 71.5101 567.2 70.7972 567.2 69.1317C567.2 68.0072 566.524 67.0125 564.867 67.0125C563.914 67.0408 562.99 67.3648 562.209 67.9439L561.739 66.5603C562.772 65.848 563.981 65.4718 565.215 65.4781C567.833 65.4781 569.019 67.121 569.019 68.8302C569.005 69.5886 568.758 70.3216 568.315 70.9183C567.872 71.5149 567.257 71.9428 566.564 72.1372V72.1809C567.385 72.3066 568.137 72.7403 568.681 73.403C569.226 74.0656 569.527 74.9131 569.529 75.7907C569.529 78.0396 567.873 80.008 564.683 80.008C563.471 80.0246 562.277 79.6955 561.227 79.0554L561.717 77.5858Z" fill="#CCCCCC"/>
<path d="M533.017 199.414C533.533 199.433 534.042 199.287 534.479 198.996C534.915 198.705 535.258 198.281 535.464 197.781C535.67 197.281 535.728 196.727 535.632 196.191C535.536 195.655 535.289 195.162 534.924 194.776C534.559 194.391 534.093 194.13 533.586 194.028C533.079 193.926 532.555 193.988 532.082 194.206C531.608 194.423 531.208 194.786 530.933 195.247C530.657 195.709 530.519 196.247 530.537 196.792C530.56 197.48 530.828 198.133 531.289 198.619C531.749 199.106 532.367 199.39 533.017 199.414V199.414Z" fill="#E6E6E6"/>
<path d="M593.834 198.241H547.112C546.725 198.241 546.353 198.079 546.08 197.789C545.806 197.5 545.652 197.107 545.652 196.698C545.652 196.288 545.806 195.896 546.08 195.606C546.353 195.317 546.725 195.154 547.112 195.154H593.834C594.025 195.154 594.215 195.194 594.393 195.271C594.57 195.349 594.731 195.462 594.867 195.605C595.002 195.748 595.11 195.918 595.184 196.106C595.257 196.293 595.295 196.493 595.295 196.696C595.296 196.899 595.258 197.1 595.185 197.287C595.112 197.474 595.004 197.644 594.869 197.788C594.733 197.931 594.573 198.045 594.395 198.123C594.218 198.201 594.029 198.241 593.837 198.241H593.834Z" fill="#E6E6E6"/>
<path d="M606.367 177.509H524.389C522.534 177.507 520.755 176.727 519.443 175.34C518.131 173.953 517.393 172.072 517.391 170.111V135.236C517.393 133.275 518.131 131.394 519.443 130.008C520.755 128.621 522.534 127.841 524.389 127.838H606.367C608.222 127.841 610.001 128.621 611.313 130.008C612.625 131.394 613.363 133.275 613.365 135.236V170.111C613.363 172.072 612.625 173.953 611.313 175.34C610.001 176.727 608.222 177.507 606.367 177.509V177.509ZM524.389 129.952C523.064 129.954 521.793 130.511 520.856 131.501C519.919 132.492 519.392 133.835 519.391 135.236V170.111C519.392 171.512 519.919 172.855 520.856 173.846C521.793 174.836 523.064 175.394 524.389 175.395H606.367C607.692 175.394 608.963 174.836 609.9 173.846C610.837 172.855 611.364 171.512 611.366 170.111V135.236C611.364 133.835 610.837 132.492 609.9 131.501C608.963 130.511 607.692 129.954 606.367 129.952H524.389Z" fill="#E6E6E6"/>
<path d="M610.493 130.127L519.572 173.448L520.393 175.375L611.315 132.054L610.493 130.127Z" fill="#E6E6E6"/>
<path d="M520.774 129.591L519.94 131.511L610.358 175.369L611.191 173.448L520.774 129.591Z" fill="#E6E6E6"/>
<path d="M673.721 154.1C673.665 153.977 673.594 153.863 673.508 153.761V153.76L662.558 142.185C662.422 142.041 662.262 141.927 662.084 141.85C661.907 141.772 661.717 141.732 661.525 141.731C661.333 141.731 661.143 141.771 660.966 141.849C660.789 141.926 660.628 142.04 660.492 142.183C660.356 142.327 660.249 142.497 660.175 142.685C660.102 142.872 660.064 143.073 660.064 143.276C660.064 143.479 660.102 143.679 660.176 143.867C660.25 144.054 660.357 144.224 660.493 144.367L668.951 153.308H631.595C631.207 153.308 630.836 153.471 630.562 153.76C630.288 154.05 630.135 154.443 630.135 154.852C630.135 155.261 630.288 155.654 630.562 155.943C630.836 156.233 631.207 156.395 631.595 156.395H668.951L661.223 164.565C661.087 164.708 660.979 164.878 660.905 165.065C660.832 165.253 660.794 165.454 660.793 165.657C660.793 165.86 660.831 166.061 660.904 166.248C660.978 166.436 661.085 166.606 661.221 166.75C661.357 166.893 661.518 167.007 661.695 167.084C661.873 167.162 662.063 167.202 662.255 167.202C662.447 167.201 662.637 167.161 662.814 167.083C662.992 167.005 663.153 166.891 663.288 166.747L673.507 155.944L673.509 155.943C673.731 155.704 673.873 155.393 673.912 155.06C673.95 154.726 673.883 154.389 673.721 154.1V154.1Z" fill="#CCCCCC"/>
<path d="M766.963 123.763H766.279V103.948C766.279 102.442 765.998 100.951 765.453 99.5592C764.907 98.1678 764.108 96.9035 763.101 95.8386C762.093 94.7736 760.897 93.9289 759.581 93.3525C758.265 92.7762 756.854 92.4795 755.43 92.4795H715.716C714.291 92.4795 712.881 92.7761 711.564 93.3525C710.248 93.9288 709.052 94.7736 708.045 95.8385C707.037 96.9035 706.238 98.1677 705.693 99.5592C705.148 100.951 704.867 102.442 704.867 103.948V212.656C704.867 215.697 706.01 218.614 708.045 220.765C710.079 222.916 712.839 224.124 715.716 224.124H755.429C756.854 224.124 758.265 223.827 759.581 223.251C760.897 222.675 762.093 221.83 763.101 220.765C764.108 219.7 764.907 218.436 765.453 217.044C765.998 215.653 766.278 214.162 766.278 212.656V137.868H766.963V123.763Z" fill="#3F3D56"/>
<path d="M763.969 104.028V212.575C763.969 214.847 763.116 217.026 761.596 218.632C760.077 220.238 758.016 221.14 755.867 221.14H715.963C713.814 221.14 711.753 220.238 710.234 218.632C708.715 217.026 707.861 214.847 707.861 212.575V104.028C707.861 101.756 708.715 99.5778 710.234 97.9715C711.753 96.3653 713.814 95.4629 715.963 95.4629H720.804C720.566 96.0808 720.475 96.751 720.54 97.4146C720.605 98.0782 720.823 98.7148 721.175 99.2685C721.527 99.8222 722.002 100.276 722.559 100.59C723.116 100.904 723.737 101.068 724.368 101.069H747.12C747.751 101.068 748.372 100.904 748.929 100.59C749.486 100.276 749.961 99.8221 750.313 99.2685C750.665 98.7148 750.883 98.0782 750.948 97.4146C751.012 96.751 750.922 96.0808 750.684 95.4629H755.867C758.016 95.4629 760.077 96.3653 761.596 97.9715C763.116 99.5778 763.969 101.756 763.969 104.028V104.028Z" fill="white"/>
<path d="M240.965 229.435C240.551 228.882 240.262 228.235 240.119 227.546C239.977 226.856 239.986 226.141 240.144 225.455C243.934 208.674 243.934 191.186 240.144 174.405C239.986 173.719 239.977 173.004 240.119 172.315C240.262 171.625 240.551 170.979 240.965 170.425C241.37 169.879 241.888 169.438 242.479 169.135C243.069 168.833 243.718 168.677 244.374 168.679H284.891C285.926 168.681 286.927 169.071 287.715 169.781C288.504 170.49 289.029 171.472 289.196 172.552C291.839 190.697 291.839 209.163 289.196 227.309C289.029 228.389 288.504 229.371 287.715 230.08C286.927 230.789 285.926 231.18 284.891 231.182H244.374C243.718 231.184 243.069 231.028 242.479 230.725C241.888 230.423 241.37 229.981 240.965 229.435Z" fill="#0086BF"/>
<path d="M277.072 191.74H255.728C254.933 191.739 254.171 191.405 253.609 190.81C253.046 190.216 252.73 189.41 252.729 188.57V187.223C252.73 186.383 253.046 185.577 253.609 184.982C254.171 184.388 254.933 184.054 255.728 184.053H277.072C277.867 184.054 278.63 184.388 279.192 184.982C279.754 185.577 280.07 186.383 280.071 187.223V188.57C280.07 189.41 279.754 190.216 279.192 190.81C278.63 191.405 277.867 191.739 277.072 191.74Z" fill="white"/>
<path d="M277.072 205.001H255.728C254.933 205 254.171 204.665 253.609 204.071C253.046 203.477 252.73 202.671 252.729 201.83V200.484C252.73 199.643 253.046 198.837 253.609 198.243C254.171 197.649 254.933 197.314 255.728 197.313H277.072C277.867 197.314 278.63 197.649 279.192 198.243C279.754 198.837 280.07 199.643 280.071 200.484V201.83C280.07 202.671 279.754 203.477 279.192 204.071C278.63 204.665 277.867 205 277.072 205.001V205.001Z" fill="white"/>
<path d="M615.691 268.465C613.091 250.612 613.091 232.445 615.691 214.593C615.856 213.53 616.372 212.564 617.147 211.866C617.923 211.168 618.908 210.784 619.926 210.782H659.788C660.434 210.78 661.072 210.934 661.653 211.232C662.235 211.529 662.744 211.964 663.143 212.501C663.55 213.046 663.834 213.681 663.974 214.36C664.114 215.038 664.106 215.741 663.95 216.416C660.221 232.926 660.221 250.132 663.949 266.641C664.106 267.316 664.114 268.019 663.974 268.698C663.835 269.376 663.55 270.012 663.143 270.556C662.744 271.094 662.235 271.528 661.653 271.826C661.072 272.124 660.434 272.277 659.788 272.275H619.926C618.908 272.273 617.923 271.889 617.147 271.191C616.372 270.493 615.856 269.527 615.691 268.465V268.465Z" fill="#0086BF"/>
<path d="M648.25 238.166H627.332C626.537 238.165 625.774 237.831 625.212 237.236C624.65 236.642 624.333 235.836 624.333 234.995V233.756C624.333 232.916 624.65 232.11 625.212 231.516C625.774 230.921 626.537 230.587 627.332 230.586H648.25C649.045 230.587 649.807 230.921 650.369 231.516C650.932 232.11 651.248 232.916 651.249 233.756V234.995C651.248 235.836 650.932 236.642 650.369 237.236C649.807 237.831 649.045 238.165 648.25 238.166Z" fill="white"/>
<path d="M36.8654 385.777C45.237 370.031 55.839 355.732 68.3032 343.377C69.053 342.648 70.0232 342.225 71.0409 342.181C72.0586 342.138 73.0579 342.478 73.8608 343.14L105.234 369.135C105.744 369.554 106.156 370.091 106.44 370.705C106.723 371.318 106.871 371.992 106.871 372.675C106.874 373.369 106.727 374.055 106.441 374.68C106.155 375.306 105.738 375.854 105.222 376.283C92.6523 386.845 82.6115 400.387 75.9115 415.812C75.6408 416.445 75.2371 417.004 74.7311 417.447C74.2252 417.89 73.6303 418.205 72.9918 418.368C72.3645 418.531 71.7103 418.54 71.079 418.395C70.4477 418.251 69.8559 417.956 69.3488 417.533L37.9756 391.538C37.1752 390.872 36.6243 389.928 36.421 388.873C36.2177 387.818 36.3752 386.721 36.8654 385.777V385.777Z" fill="#CCCCCC"/>
<path d="M80.3607 381.661L63.8972 368.02C63.2719 367.501 62.867 366.74 62.7713 365.906C62.6757 365.071 62.897 364.231 63.3869 363.569L64.1096 362.594C64.6008 361.933 65.32 361.505 66.1094 361.404C66.8988 361.303 67.6939 361.537 68.3203 362.055L84.7838 375.696C85.4091 376.215 85.814 376.975 85.9096 377.81C86.0053 378.644 85.7839 379.485 85.2941 380.147L84.5714 381.121C84.0801 381.782 83.3609 382.21 82.5716 382.312C81.7822 382.413 80.987 382.179 80.3607 381.661V381.661Z" fill="white"/>
<path d="M72.7474 391.929L56.2839 378.288C55.6586 377.769 55.2537 377.008 55.1581 376.174C55.0624 375.339 55.2837 374.499 55.7736 373.837L56.4966 372.862C56.9878 372.201 57.707 371.773 58.4964 371.672C59.2858 371.57 60.0809 371.804 60.7073 372.322L77.1708 385.963C77.7961 386.482 78.201 387.243 78.2967 388.077C78.3924 388.912 78.171 389.752 77.6812 390.414L76.9581 391.389C76.4669 392.05 75.7477 392.478 74.9583 392.58C74.1689 392.681 73.3738 392.447 72.7474 391.929V391.929Z" fill="white"/>
<path d="M884.619 399.51C882.018 381.658 882.018 363.49 884.619 345.638C884.783 344.576 885.3 343.609 886.075 342.912C886.851 342.214 887.836 341.83 888.854 341.828H928.716C929.362 341.825 930 341.979 930.581 342.277C931.162 342.575 931.672 343.009 932.07 343.546C932.478 344.091 932.762 344.727 932.902 345.405C933.042 346.084 933.034 346.787 932.878 347.461C929.149 363.971 929.149 381.177 932.877 397.687C933.033 398.361 933.042 399.064 932.902 399.743C932.762 400.421 932.478 401.057 932.07 401.602C931.672 402.139 931.162 402.573 930.581 402.871C930 403.169 929.362 403.323 928.716 403.32H888.854C887.836 403.318 886.851 402.934 886.075 402.236C885.3 401.539 884.783 400.572 884.619 399.51V399.51Z" fill="#CCCCCC"/>
<path d="M917.177 369.211H896.259C895.464 369.21 894.702 368.876 894.139 368.282C893.577 367.687 893.261 366.881 893.26 366.041V364.802C893.261 363.961 893.577 363.155 894.139 362.561C894.702 361.967 895.464 361.632 896.259 361.631H917.177C917.972 361.632 918.735 361.967 919.297 362.561C919.859 363.155 920.175 363.961 920.176 364.802V366.041C920.175 366.881 919.859 367.687 919.297 368.282C918.735 368.876 917.972 369.21 917.177 369.211V369.211Z" fill="white"/>
<path d="M896.326 350.23C897.515 347.688 897.755 344.766 896.998 342.046C896.241 339.325 894.544 337.006 892.243 335.549C891.778 335.276 891.292 335.046 890.79 334.861L889.97 296.488L875.47 307.774L878.472 342.483C877.935 344.813 878.12 347.262 878.999 349.472C879.877 351.682 881.404 353.536 883.353 354.761C884.475 355.421 885.715 355.827 886.993 355.955C888.271 356.083 889.561 355.929 890.78 355.503C891.999 355.077 893.122 354.389 894.076 353.481C895.031 352.573 895.797 351.466 896.326 350.23V350.23Z" fill="#A0616A"/>
<path d="M890.217 333.191L879.824 333.854C878.715 333.883 877.637 333.47 876.803 332.697C875.969 331.924 875.441 330.847 875.324 329.681L866.693 261.044L852.747 219.177C851.57 215.689 851.699 211.857 853.109 208.466C853.763 206.832 854.726 205.357 855.939 204.132C857.152 202.906 858.59 201.956 860.163 201.339C866.515 198.898 873.468 202.762 875.664 209.951L889.847 257.953L894.221 328.054C894.309 329.325 893.933 330.583 893.171 331.57C892.694 332.191 892.068 332.665 891.358 332.942C890.991 333.083 890.607 333.167 890.217 333.191V333.191Z" fill="#3F3D56"/>
<path d="M829.626 544.156L817.369 544.154L811.539 494.18L829.628 494.181L829.626 544.156Z" fill="#A0616A"/>
<path d="M832.751 556.715L793.231 556.713V556.185C793.231 554.049 793.629 551.935 794.402 549.962C795.175 547.989 796.308 546.197 797.736 544.687C799.165 543.177 800.86 541.979 802.727 541.162C804.593 540.345 806.593 539.924 808.613 539.924H808.614L832.752 539.925L832.751 556.715Z" fill="#2F2E41"/>
<path d="M865.616 544.156L853.359 544.154L847.529 494.18L865.618 494.181L865.616 544.156Z" fill="#A0616A"/>
<path d="M868.741 556.715L829.221 556.713V556.185C829.221 554.049 829.619 551.935 830.392 549.962C831.165 547.989 832.298 546.197 833.727 544.687C835.155 543.177 836.851 541.979 838.717 541.162C840.583 540.345 842.583 539.924 844.604 539.924H844.604L868.742 539.925L868.741 556.715Z" fill="#2F2E41"/>
<path d="M873.841 342.19L870.914 525.752C870.905 526.334 870.782 526.907 870.554 527.436C870.326 527.965 869.997 528.438 869.588 528.827C869.178 529.215 868.698 529.51 868.176 529.693C867.654 529.876 867.102 529.944 866.554 529.891L852.212 528.513C851.271 528.422 850.391 527.983 849.727 527.272C849.064 526.561 848.66 525.625 848.587 524.63L840.19 410.128C840.17 409.859 840.054 409.609 839.865 409.427C839.676 409.246 839.429 409.148 839.174 409.153C838.918 409.159 838.675 409.267 838.493 409.456C838.311 409.645 838.204 409.9 838.194 410.17L833.997 527.293C833.958 528.385 833.52 529.419 832.775 530.178C832.03 530.936 831.036 531.36 830.001 531.36H814.62C813.602 531.36 812.622 530.949 811.88 530.212C811.138 529.474 810.691 528.465 810.628 527.391L799.861 341.133L863.844 324.224L873.841 342.19Z" fill="#2F2E41"/>
<path d="M827.432 169.826C840.993 169.826 851.987 158.205 851.987 143.87C851.987 129.534 840.993 117.913 827.432 117.913C813.871 117.913 802.878 129.534 802.878 143.87C802.878 158.205 813.871 169.826 827.432 169.826Z" fill="#A0616A"/>
<path d="M797.67 347.65C797.245 347.215 796.905 346.696 796.671 346.122C796.437 345.548 796.313 344.93 796.306 344.305L794.65 219.133C794.55 212.765 796.362 206.528 799.826 201.318C803.289 196.107 808.226 192.191 813.926 190.132C816.227 179.1 828.47 177.718 835.608 177.883C837.389 177.923 839.135 178.417 840.698 179.323C842.26 180.229 843.593 181.519 844.583 183.085L849.7 191.198L860.977 198.186C866.196 201.406 870.312 206.296 872.733 212.149C875.153 218.002 875.752 224.517 874.443 230.754L872.707 239.102C866.593 268.65 867.175 299.307 874.405 328.572L877.898 342.654C878.08 343.387 878.094 344.156 877.938 344.896C877.781 345.636 877.46 346.325 877.001 346.907C876.541 347.489 875.956 347.947 875.295 348.241C874.635 348.536 873.917 348.659 873.202 348.601L869.144 348.271C868.091 348.187 867.099 347.713 866.344 346.932C865.588 346.152 865.117 345.115 865.013 344.003L864.341 336.905C864.329 336.775 864.271 336.654 864.179 336.566C864.087 336.478 863.968 336.429 863.844 336.429C863.72 336.429 863.6 336.478 863.508 336.566C863.416 336.654 863.359 336.775 863.346 336.905L862.696 343.777C862.587 344.938 862.077 346.016 861.264 346.806C860.452 347.595 859.393 348.042 858.289 348.059L800.874 348.993C800.85 348.993 800.826 348.994 800.802 348.994C799.632 348.997 798.507 348.514 797.67 347.65V347.65Z" fill="#3F3D56"/>
<path d="M829.353 158.832C829.454 162.501 831.864 164.624 834.822 166.546C837.781 168.467 841.239 169.301 844.627 170.105C845.082 170.36 845.592 170.487 846.107 170.474C846.622 170.461 847.125 170.307 847.568 170.028C848.011 169.75 848.378 169.355 848.634 168.882C848.891 168.41 849.027 167.876 849.031 167.331L852.139 154.836C853.238 150.845 854.038 146.768 854.531 142.643C855.28 134.708 853.501 126.171 848.261 120.433C843.021 114.695 833.934 112.657 827.655 117.078C820.203 107.017 786.143 129.245 794.545 136.241C796.039 137.486 798.324 135.911 800.222 135.758C802.119 135.605 804.245 135.958 805.45 137.515C807.025 139.548 806.339 142.577 806.988 145.114C807.256 146.007 807.689 146.834 808.261 147.549C808.834 148.264 809.535 148.852 810.323 149.279C811.111 149.706 811.972 149.964 812.855 150.038C813.739 150.112 814.627 150 815.469 149.71C817.038 148.892 818.513 147.89 819.868 146.72C821.323 145.696 823.162 144.938 824.8 145.585C826.959 146.437 827.727 149.231 827.922 151.659C828.251 154.08 828.729 156.476 829.353 158.832Z" fill="#2F2E41"/>
<path opacity="0.2" d="M823.618 228.397L819.619 280.182L798.625 334.079L829.617 281.238L823.618 228.397Z" fill="black"/>
<path d="M793.716 354.151C794.862 353.178 795.792 351.951 796.442 350.557C797.091 349.164 797.443 347.636 797.473 346.083C797.503 344.53 797.211 342.988 796.617 341.567C796.023 340.146 795.141 338.88 794.034 337.859L807.409 302.84L789.211 306.724L779.3 339.383C777.8 341.463 777.073 344.053 777.258 346.661C777.443 349.269 778.526 351.715 780.303 353.536C782.08 355.356 784.427 356.424 786.899 356.537C789.371 356.651 791.797 355.801 793.716 354.151V354.151Z" fill="#A0616A"/>
<path d="M793.325 338.706L783.025 334.782C781.964 334.371 781.086 333.556 780.565 332.496C780.044 331.436 779.918 330.208 780.21 329.054L797.203 263.3L799.794 203.872C799.872 202.078 800.287 200.319 801.014 198.696C801.741 197.073 802.766 195.62 804.029 194.419C805.292 193.219 806.769 192.296 808.373 191.704C809.977 191.113 811.676 190.864 813.371 190.973C815.067 191.081 816.725 191.545 818.249 192.337C819.774 193.129 821.134 194.234 822.251 195.587C823.368 196.94 824.219 198.514 824.756 200.218C825.292 201.922 825.502 203.721 825.375 205.512L820.748 270.583L799.096 335.808C798.768 336.794 798.142 337.638 797.315 338.211C796.489 338.783 795.507 339.053 794.521 338.978C794.113 338.945 793.711 338.854 793.325 338.706V338.706Z" fill="#3F3D56"/>
<path d="M51.3442 529.149L62.3503 534.852L88.3953 492.692L72.1526 484.275L51.3442 529.149Z" fill="#FFB8B8"/>
<path d="M50.2987 523.896L71.9721 535.127L71.973 535.127C73.7868 536.067 75.4078 537.375 76.7433 538.978C78.0788 540.58 79.1026 542.444 79.7564 544.465C80.4102 546.485 80.6812 548.622 80.5538 550.753C80.4264 552.884 79.9031 554.968 79.0139 556.885L78.7939 557.36L43.3081 538.972L50.2987 523.896Z" fill="#2F2E41"/>
<path d="M160.409 549.028L172.665 549.027L178.496 499.052L160.407 499.053L160.409 549.028Z" fill="#FFB8B8"/>
<path d="M157.282 540.57L181.42 540.569H181.421C183.441 540.569 185.441 540.99 187.307 541.807C189.173 542.624 190.869 543.822 192.298 545.332C193.726 546.842 194.859 548.634 195.632 550.607C196.405 552.58 196.803 554.694 196.803 556.83V557.358L157.283 557.36L157.282 540.57Z" fill="#2F2E41"/>
<path d="M134.082 204.131C147.643 204.131 158.636 192.51 158.636 178.174C158.636 163.839 147.643 152.218 134.082 152.218C120.521 152.218 109.527 163.839 109.527 178.174C109.527 192.51 120.521 204.131 134.082 204.131Z" fill="#FFB8B8"/>
<path d="M158.533 532.544C157.375 532.543 156.261 532.069 155.425 531.222C154.589 530.375 154.094 529.219 154.044 527.996L144.552 394.455C144.541 394.105 144.421 393.769 144.211 393.499C144 393.229 143.711 393.04 143.388 392.962C143.065 392.884 142.727 392.921 142.426 393.067C142.125 393.214 141.879 393.461 141.725 393.771L81.0097 516.301C80.4586 517.4 79.5239 518.229 78.4041 518.611C77.2843 518.993 76.0676 518.899 75.0125 518.348L58.0872 509.402C57.0254 508.838 56.2172 507.853 55.8385 506.663C55.4599 505.472 55.5412 504.172 56.065 503.044L92.294 425.44L116.29 367.309C125.552 348.024 135.388 338.085 146.359 336.925C157.614 335.737 169.633 343.918 183.11 361.937L183.22 362.084L183.218 362.271L181.219 525.399C181.222 526.584 180.805 527.727 180.049 528.602C179.294 529.478 178.256 530.022 177.14 530.128L158.973 532.522C158.825 532.537 158.679 532.544 158.533 532.544Z" fill="#2F2E41"/>
<path d="M108.166 376.698C109.502 375.826 110.642 374.656 111.503 373.268C112.365 371.881 112.929 370.311 113.155 368.668C113.381 367.026 113.263 365.351 112.81 363.762C112.357 362.173 111.58 360.708 110.534 359.47L114.237 256.055L96.2415 258.425L94.7241 359.034C92.874 361.03 91.7808 363.674 91.6516 366.465C91.5224 369.256 92.3662 372 94.0231 374.177C95.68 376.355 98.0349 377.814 100.642 378.278C103.248 378.743 105.926 378.181 108.166 376.698V376.698Z" fill="#FFB8B8"/>
<path d="M119.55 274.338L95.3839 271.436C94.6963 271.353 94.0336 271.115 93.441 270.737C92.8484 270.359 92.3397 269.851 91.9497 269.247C91.5597 268.642 91.2975 267.956 91.1809 267.235C91.0643 266.514 91.0961 265.775 91.2741 265.068L97.513 240.299C97.9325 236.582 99.7291 233.193 102.509 230.875C105.289 228.557 108.825 227.498 112.342 227.932C115.858 228.365 119.069 230.255 121.27 233.187C123.47 236.12 124.481 239.855 124.08 243.574L124.906 269.108C124.929 269.839 124.804 270.567 124.537 271.242C124.27 271.917 123.869 272.523 123.361 273.02C122.852 273.516 122.249 273.891 121.591 274.118C120.933 274.346 120.237 274.421 119.55 274.338L119.55 274.338Z" fill="#2F2E41"/>
<path d="M223.648 209.238C223.525 209.808 223.445 210.388 223.409 210.971L180.463 237.161L170.024 230.809L158.896 246.209L176.342 259.353C177.751 260.415 179.448 260.965 181.178 260.921C182.909 260.876 184.578 260.239 185.937 259.106L230.222 222.175C232.22 222.957 234.397 223.077 236.462 222.52C238.526 221.962 240.382 220.754 241.781 219.054C243.18 217.355 244.056 215.246 244.294 213.007C244.531 210.768 244.118 208.506 243.11 206.522C242.101 204.537 240.545 202.924 238.648 201.897C236.752 200.87 234.604 200.478 232.491 200.773C230.378 201.068 228.401 202.036 226.821 203.548C225.241 205.06 224.135 207.045 223.648 209.238V209.238Z" fill="#FFB8B8"/>
<path d="M179.027 238.402L165.147 257.418C164.752 257.96 164.251 258.404 163.679 258.722C163.107 259.041 162.477 259.225 161.831 259.262C161.186 259.299 160.54 259.189 159.939 258.939C159.337 258.689 158.793 258.305 158.345 257.812L142.632 240.564C140.023 238.413 138.328 235.256 137.918 231.785C137.509 228.315 138.418 224.814 140.447 222.051C142.476 219.288 145.458 217.489 148.74 217.048C152.022 216.607 155.336 217.56 157.954 219.698L177.662 231.347C178.226 231.681 178.716 232.139 179.097 232.691C179.479 233.242 179.743 233.875 179.873 234.544C180.002 235.214 179.994 235.905 179.848 236.571C179.702 237.236 179.422 237.861 179.027 238.402H179.027Z" fill="#2F2E41"/>
<path d="M190.349 370.024L163.703 232.818C162.436 226.297 158.828 220.548 153.636 216.781C148.444 213.013 142.072 211.519 135.86 212.614L126.973 214.18C123.886 214.723 120.931 215.905 118.275 217.656C115.62 219.407 113.317 221.695 111.498 224.387C108.608 228.664 106.661 233.572 105.8 238.749C104.94 243.927 105.188 249.242 106.526 254.305L121.235 309.952L110.319 369.569C110.197 370.23 110.227 370.913 110.405 371.56C110.584 372.206 110.906 372.798 111.345 373.287C111.784 373.775 112.327 374.145 112.929 374.366C113.531 374.587 114.174 374.653 114.805 374.558C120.27 373.731 129.277 372.552 139.623 371.909L145.228 349.054L147.508 371.546C160.217 371.17 174.013 371.828 185.394 374.954C186.053 375.14 186.745 375.145 187.406 374.969C188.067 374.793 188.674 374.441 189.17 373.947C189.667 373.454 190.035 372.834 190.242 372.147C190.448 371.461 190.485 370.73 190.349 370.024V370.024Z" fill="#0086BF"/>
<path d="M162.36 156.26C160.894 147.249 154.051 139.78 145.9 136.723C137.748 133.667 128.556 134.661 120.573 138.18C112.053 141.843 105 148.518 100.618 157.067C99.5798 156.576 98.5814 155.995 97.6333 155.33C92.9061 152.004 89.0702 147.268 83.9559 144.66C74.9388 140.063 64.0374 143.119 55.2619 148.212C46.4865 153.304 38.7073 160.338 29.4374 164.334C20.1679 168.33 8.33953 168.528 1.32042 160.983C-0.406965 166.273 -0.548222 171.998 0.915909 177.376C2.38004 182.754 5.37825 187.524 9.50146 191.034C13.6247 194.545 18.672 196.625 23.9549 196.991C29.2378 197.357 34.4989 195.991 39.0203 193.08C49.1767 186.54 54.787 172.827 66.179 169.218C72.4824 167.22 79.2516 168.829 85.6229 170.571C89.376 171.713 93.2059 172.55 97.0793 173.076C97.1247 180.466 99.7578 187.577 104.47 193.035C112.332 201.784 124.671 204.116 136.084 203.974L136.323 203.718C132.829 198.188 130.07 190.521 133.918 185.259C137.716 180.066 145.207 180.831 151.024 178.533C159.126 175.332 163.825 165.271 162.36 156.26Z" fill="#2F2E41"/>
<path d="M205.86 558H35.9062C35.6411 558 35.3868 557.889 35.1993 557.69C35.0118 557.492 34.9065 557.223 34.9065 556.943C34.9065 556.663 35.0118 556.394 35.1993 556.196C35.3868 555.998 35.6411 555.886 35.9062 555.886H205.86C206.126 555.886 206.38 555.998 206.567 556.196C206.755 556.394 206.86 556.663 206.86 556.943C206.86 557.223 206.755 557.492 206.567 557.69C206.38 557.889 206.126 558 205.86 558Z" fill="#CCCCCC"/>
<path d="M908.671 558H738.717C738.452 558 738.198 557.889 738.01 557.69C737.823 557.492 737.717 557.223 737.717 556.943C737.717 556.663 737.823 556.394 738.01 556.196C738.198 555.998 738.452 555.886 738.717 555.886H908.671C908.936 555.886 909.191 555.998 909.378 556.196C909.566 556.394 909.671 556.663 909.671 556.943C909.671 557.223 909.566 557.492 909.378 557.69C909.191 557.889 908.936 558 908.671 558Z" fill="#CCCCCC"/>
</g>
<defs>
<clipPath id="clip0">
<rect width="933" height="558" fill="white"/>
</clipPath>
</defs>
</svg>
