<svg id="Capa_1" enable-background="new 0 0 512 512" height="512" viewBox="0 0 512 512" width="512" xmlns="http://www.w3.org/2000/svg"><g><path d="m424.559 0c-37.483 0-65.742 34.411-58.329 71.253-2.36-4.154-5.051-8.177-8.118-12.01-11.012-13.765-25.767-24.054-42.49-29.628l-80.443-26.814c-24.009-8.003-50.368 1.586-63.622 23.146l-45.473 73.969c-7.636 12.421-4.273 28.641 7.672 37.002 12.361 8.653 29.383 5.754 38.183-6.503l45.122-62.849 65.358 23.965-92.431 108.869c-18.387 21.657-28.481 49.142-28.481 77.551v198.351c0 19 14.855 35.064 33.845 35.68 17.881.58 33.283-12.385 35.804-30.035l28.387-198.699 95.132-105.702c21.375-23.75 28.224-56.051 20.232-85.31 10.659 16.11 28.931 26.764 49.652 26.764 32.809 0 59.5-26.691 59.5-59.5s-26.691-59.5-59.5-59.5z"/><path d="m363.028 330.708-44.709-63.916-27.831 30.923-8.675 60.719 15.856 21.293 21.383 105.481c3.472 17.128 19.55 28.691 36.892 26.534 18.687-2.324 31.769-19.616 28.922-38.231z"/><path d="m107.175 288.523-13.95 7.558-1.572-15.788c-1.058-10.641-12.641-16.812-22.072-11.702l-33.783 18.307c-7.284 3.947-9.988 13.051-6.042 20.334 3.947 7.283 13.049 9.99 20.335 6.042l13.946-7.557 1.572 15.786c1.066 10.717 12.71 16.777 22.071 11.702l33.786-18.306c7.284-3.946 9.989-13.05 6.043-20.334-3.946-7.283-13.05-9.991-20.334-6.042z"/><path d="m131.286 190.547-33.462-18.894c-9.325-5.267-21.026.681-22.273 11.315l-1.847 15.756-13.812-7.8c-7.213-4.073-16.362-1.529-20.438 5.685-4.073 7.213-1.528 16.364 5.686 20.437l33.459 18.895c9.247 5.224 21.019-.611 22.274-11.314l1.847-15.758 13.816 7.801c7.215 4.074 16.364 1.528 20.437-5.687 4.072-7.213 1.527-16.363-5.687-20.436z"/></g></svg>