<svg id="Layer_1" enable-background="new 0 0 508.641 508.641" height="512" viewBox="0 0 508.641 508.641" width="512" xmlns="http://www.w3.org/2000/svg"><path d="m476.295 166.784c-13.219-17.143-26.924-32.436-41.073-45.882-2.994 10.37-8.032 20.596-14.882 29.806-9.231 12.411-24.822 25.582-38.934 25.582-7.917 0-14.796-5.874-15.846-13.937-1.141-8.762 5.038-16.791 13.801-17.932 5.314-.691 18.747-12.813 24.56-30.522 3.113-9.484-.669-19.898-8.967-25.446-5.535-3.701-11.127-7.143-16.773-10.325-6.729-3.792-14.843-4.19-21.876-.997-11.264 5.113-27.927 14.873-36.695 30.85-9.803 17.863-14.56 40.537-12.436 59.235.988 8.7-5.159 16.842-13.846 17.944-8.851 1.123-16.885-5.19-17.914-14.019-4.723-40.508 12.984-90.919 48.357-115.143-44.91-11.614-93.155-8.522-143.874 9.165 19.007 14.253 27.81 34.307 26.364 53.495-.632 8.402-7.647 14.799-15.938 14.8-10.228 0-16.645-8.31-15.972-17.191 1.224-16.169-14.495-29.349-30.428-33.567-5.426-1.436-11.131-1.321-16.553.132-37.385 10.013-65.301 30.847-83.304 62.182-21.158 36.826 17.55 84.105 58.049 84.274 8.799.037 16.162 7.146 16.191 15.945.03 8.862-7.145 16.055-16 16.055-36.833 0-76.811-26.389-90.995-65.255-20.568 42.319-12.364 82.149 18.724 117.968 18.696 33.596 48.947 45.696 86.637 34.619 14.34-4.215 26.518-13.903 33.494-27.121 8.123-15.393 12.884-39.022 9.238-48.511-3.168-8.248.95-17.504 9.198-20.673 8.252-3.171 17.504.949 20.674 9.198 9.786 25.474-2.531 79.807-35.638 105.359 24.322 20.355 56.008 20.795 86.875 14.082 14.118 17.883 39.704 20.286 55.381 20.498l47.589 52.79c3.034 3.366 7.353 5.287 11.884 5.287h33.142c11.192 0 18.261-10.004 15.938-19.721l-4.344-18.167c80.224-16.865 123.049-88.791 87.503-130.539 32.832-39.658 25.842-87.706-11.311-124.318zm-270.103 41.622c-23.985 11.79-56.186 12.557-71.84-9.04-5.186-7.154-3.59-17.158 3.564-22.345 7.155-5.184 17.159-3.59 22.345 3.565 3.798 5.239 18.396 5.88 32.25-1.107 1.825-.921 17.738-9.284 14.544-19.356-2.671-8.423 1.992-17.416 10.415-20.088 8.425-2.668 17.417 1.992 20.088 10.416 4.153 13.095 1.608 26.379-6.496 37.716 5.807 8.574 13.981 14.783 20.678 11.741 8.047-3.654 17.531-.093 21.184 7.953 3.653 8.045.093 17.529-7.952 21.184-21.75 9.874-44.136-.638-58.78-20.639zm190.459 137.558c-1.55 8.709-9.866 14.497-18.557 12.948-8.7-1.548-14.497-9.855-12.948-18.556 5.612-31.541-70.338-67.068-87.619-35.145-4.208 7.771-13.918 10.656-21.688 6.452-7.771-4.208-10.659-13.918-6.452-21.688 14.004-25.863 44.983-35.442 79.923-25.198 5.365-16.578 5.998-37.648-9.177-45.7-7.806-4.142-10.776-13.827-6.635-21.633s13.825-10.777 21.633-6.635c27.943 14.826 37.177 49.002 23.522 87.067-.169.471 45.491 25.981 37.998 68.088zm39.03-96.476c-28.29 5.504-26.313 5.224-28.392 5.224-7.504 0-14.201-5.306-15.688-12.947-1.688-8.674 3.976-17.073 12.649-18.761l25.318-4.926c8.67-1.69 17.073 3.976 18.761 12.649 1.69 8.674-3.974 17.074-12.648 18.761z"/></svg>