<svg id="Layer_2" enable-background="new 0 0 32 32" height="512" viewBox="0 0 32 32" width="512" xmlns="http://www.w3.org/2000/svg"><g><path d="m5.10321 30.15808h3.01935l.96777-.96777 4.74194-4.73224h17.16773v-8.69031c-.51294.87091-1.17096 1.66449-1.93549 2.35156-.30969.28064-.62903.53229-.96771.75482-1.6936 1.20001-3.71619 1.83875-5.80646 1.83875-5.60321 0-10.16132-4.55811-10.16132-10.16125 0-2.09033.63867-4.11292 1.82904-5.80646.23224-.33868.48389-.65808.76453-.96777.68707-.77417 1.47095-1.42255 2.33228-1.93549h-16.05487v22.61615h4.10321z"/><path d="m15.80646 4.74518c-1.38391 1.5387-2.22583 3.57092-2.22583 5.80646 0 4.80963 3.90002 8.70966 8.70972 8.70966 2.22577 0 4.2677-.84198 5.80646-2.22583 1.78063-1.58711 2.90319-3.90974 2.90319-6.48383 0-.99677-.16449-1.9549-.48389-2.84521-1.17096-3.41608-4.4129-5.8645-8.22577-5.8645-.29034 0-.58063.01941-.87103.0484-2.22577.21288-4.20965 1.27739-5.61285 2.85485zm6.48388-.48389 4.6839 4.87738-1.61621 1.55811-1.94513-2.02259v8.16772h-2.24512v-8.16772l-1.94519 2.02258-1.61615-1.55811z"/></g></svg>