<svg height="681pt" viewBox="-22 -87 681.33423 681" width="681pt" xmlns="http://www.w3.org/2000/svg"><path d="m92.28125 246.875c0-47.214844 11.363281-91.824219 31.492188-131.242188-70.1875 31.011719-119.289063 101.28125-119.289063 182.8125 0 32.292969 7.824219 64.101563 22.695313 92.53125l-26.351563 86.882813c-2.0625 6.792969-.207031 14.164063 4.804687 19.183594 3.664063 3.664062 8.582032 5.640625 13.605469 5.640625 1.867188 0 3.75-.273438 5.585938-.828125l86.882812-26.351563c28.429688 14.867188 60.238281 22.695313 92.53125 22.695313 10.210938 0 20.246094-.773438 30.042969-2.261719-84.949219-50.53125-142-143.25-142-249.0625zm0 0"/><path d="m603.425781 365.167969c19.363281-36.234375 29.566407-76.949219 29.566407-118.292969 0-138.464844-112.652344-251.117188-251.117188-251.117188s-251.113281 112.652344-251.113281 251.117188 112.648437 251.113281 251.113281 251.113281c41.34375 0 82.0625-10.199219 118.292969-29.566406l113.757812 34.5c1.835938.554687 3.71875.828125 5.585938.828125 5.023437 0 9.941406-1.972656 13.601562-5.636719 5.019531-5.015625 6.871094-12.394531 4.808594-19.1875zm-192.660156-28.109375h-116.496094c-10.625 0-19.242187-8.617188-19.242187-19.238282 0-10.628906 8.617187-19.242187 19.242187-19.242187h116.496094c10.621094 0 19.234375 8.613281 19.234375 19.242187 0 10.621094-8.613281 19.238282-19.234375 19.238282zm58.714844-70.941406h-175.210938c-10.625 0-19.242187-8.609376-19.242187-19.238282 0-10.625 8.617187-19.238281 19.242187-19.238281h175.210938c10.625 0 19.242187 8.613281 19.242187 19.238281 0 10.628906-8.617187 19.238282-19.242187 19.238282zm0-70.933594h-175.210938c-10.625 0-19.242187-8.617188-19.242187-19.238282 0-10.625 8.617187-19.242187 19.242187-19.242187h175.210938c10.625 0 19.242187 8.617187 19.242187 19.242187 0 10.621094-8.617187 19.238282-19.242187 19.238282zm0 0"/></svg>