<svg height="512pt" viewBox="0 0 512.00003 512" width="512pt" xmlns="http://www.w3.org/2000/svg"><path d="m475.996094 328.113281c2.5-13.523437 4.140625-27.242187 4.140625-41.117187 0-76.097656-38.042969-146.484375-101.746094-188.273438l-16.464844 25.078125c55.238281 36.238281 88.210938 97.25 88.210938 163.195313 0 10.390625-1.117188 20.660156-2.734375 30.828125-29.382813-4.089844-59.652344 9.464843-75.355469 36.667969-20.75 35.914062-8.394531 81.753906 27.464844 102.449218 36.011719 20.765625 81.765625 8.355469 102.449219-27.449218 20.421874-35.351563 8.660156-80.230469-25.964844-101.378907zm0 0"/><path d="m134.335938 437.851562c5.878906-7.601562 10.441406-16.46875 13.117187-26.449218 10.777344-40.203125-13.140625-81.15625-53.023437-91.84375-39.828126-10.757813-81.085938 12.867187-91.84375 53.023437-10.773438 40.203125 13.140624 81.15625 53.023437 91.847657 19.078125 5.144531 38.71875 2.257812 55.164063-6.65625 40.75 34.90625 92.089843 54.21875 146.101562 54.21875 35.683594 0 69.800781-8.117188 101.425781-24.097657l-13.535156-26.777343c-67.382813 34.0625-151.664063 24.082031-210.429687-23.265626zm0 0"/><path d="m186.519531 103.328125c11.210938 27.332031 38.039063 46.667969 69.359375 46.667969 41.351563 0 74.996094-33.644532 74.996094-74.996094 0-41.355469-33.644531-75-74.996094-75-40.8125 0-73.976562 32.8125-74.839844 73.417969-85 30.070312-144.8125 108.277343-149.808593 199.023437l29.941406 1.640625c4.246094-77.015625 54.105469-143.535156 125.347656-170.753906zm0 0"/></svg>