<svg id="Layer_1" enable-background="new 0 0 512 512" height="512" viewBox="0 0 512 512" width="512" xmlns="http://www.w3.org/2000/svg"><g><path d="m331.333 256c0-14.543 4.507-28.051 12.195-39.2h-304.328c-21.615 0-39.2 17.585-39.2 39.2 0 21.7 17.563 39.2 39.2 39.2h126.467c8.284 0 15 6.716 15 15v93.4h75.333c38.157 0 69.2 31.043 69.2 69.199 0 14.542-4.508 28.05-12.201 39.2h126.734v-186.799h-39.2c-38.157 0-69.2-31.043-69.2-69.2z"/><path d="m472.8 216.8h-72.267c-21.617 0-39.2 17.481-39.2 39.2 0 21.661 17.521 39.2 39.2 39.2h72.267c21.614 0 39.2-17.479 39.2-39.2 0-21.661-17.521-39.2-39.2-39.2z"/><path d="m256 433.601h-90.333c-8.284 0-15-6.716-15-15v-93.4h-78.4v93.4c0 51.501 41.899 93.399 93.4 93.399h90.333c21.613 0 39.2-17.477 39.2-39.2 0-21.614-17.585-39.199-39.2-39.199z"/><circle cx="201.8" cy="93.4" r="93.4"/><path d="m325.2 93.4c0 34.457-14.573 67.104-39.25 90.203 7.868 2.111 16.024 3.196 24.25 3.196 51.501 0 93.4-41.898 93.4-93.399s-41.899-93.4-93.4-93.4c-8.227 0-16.383 1.085-24.251 3.197 24.677 23.098 39.251 55.745 39.251 90.203z"/></g></svg>