<svg id="Capa_1" enable-background="new 0 0 512.004 512.004" height="512" viewBox="0 0 512.004 512.004" width="512" xmlns="http://www.w3.org/2000/svg"><path d="m142.243 177.406c1.459 16.089 6.509 41.825 23.392 58.708 16.779 16.778 42.619 21.857 58.747 23.352-1.459-16.089-6.509-41.825-23.392-58.708-16.779-16.778-42.619-21.858-58.747-23.352z"/><path d="m255.377 259.509c16.086-1.454 41.851-6.498 58.75-23.396 16.895-16.895 21.939-42.655 23.394-58.751-16.086 1.454-41.851 6.498-58.75 23.396-16.895 16.895-21.939 42.655-23.394 58.751z"/><path d="m239.099 202.699c.27.402.532.837.781 1.32.115-.222.25-.417.396-.597 4.408-8.456 10.042-16.638 17.281-23.877 1.366-1.366 2.769-2.669 4.198-3.924-4.828-15.864-14.469-29.672-21.895-38.636-7.419 8.936-17.034 22.706-21.86 38.631 1.43 1.257 2.835 2.561 4.202 3.928 7.033 7.033 12.547 14.956 16.897 23.155z"/><path d="m485.336 303.937-30.469-91.408c-.325-29.132-6.384-57.33-18.023-83.85-11.557-26.334-28.037-49.766-48.981-69.644-43.191-40.992-99.833-61.852-159.507-58.729-55.162 2.884-106.69 27.111-145.092 68.217-38.372 41.073-59.099 94.127-58.364 149.388.438 32.895 8.132 64.392 22.87 93.614 24.278 48.143 37.111 102.381 37.111 156.85v28.629c0 8.284 6.716 15 15 15h200c8.247 0 14.947-6.657 15-14.904l.365-57.096h64.635c30.327 0 55-24.673 55-55v-35h17.251c11.219 0 21.833-5.434 28.393-14.535s8.358-20.889 4.811-31.532zm-149.996-46.61c-30.199 30.199-76.745 32.756-91.624 32.756-1.744 0-3.04-.035-3.836-.065-.796.03-2.094.065-3.836.065-14.875 0-61.422-2.555-91.623-32.756-35.573-35.573-32.791-93.824-32.655-96.286.421-7.634 6.517-13.73 14.151-14.151 1.834-.1 34.702-1.67 66.05 12.293 12.305-32.044 36.661-54.234 37.887-55.336 5.702-5.124 14.351-5.124 20.053 0 1.226 1.102 25.582 23.291 37.887 55.335 31.348-13.964 64.214-12.395 66.05-12.292 7.634.421 13.73 6.517 14.151 14.151.136 2.462 2.918 60.713-32.655 96.286z"/></svg>