<svg width="451" height="497" viewBox="0 0 451 497" fill="none" xmlns="http://www.w3.org/2000/svg">
<path d="M99.2 8.55066C92.4 -3.04934 85.2 -2.64934 78.4 8.55066C47.2 54.9507 0 124.551 0 159.351C0 183.751 10 206.151 26 222.151C42 238.151 64.4 248.151 88.8 248.151C113.2 248.151 135.6 238.151 151.6 222.151C167.6 206.151 177.6 183.751 177.6 159.351C177.6 124.151 130.4 54.9507 99.2 8.55066ZM152.8 198.951C146.4 209.351 137.2 218.551 126 224.951C120.8 227.751 114.4 226.151 111.6 220.951C108.4 215.351 110.4 208.951 115.6 206.151C123.6 201.751 130 195.351 134.8 187.751C139.6 180.151 142.4 171.351 142.8 162.151C143.2 156.151 148 151.751 154 152.151C160 152.551 164.4 157.351 164 163.351C163.2 176.151 159.2 188.151 152.8 198.951Z" fill="black"/>
<path d="M372.2 8.55066C365.4 -3.04934 358.2 -2.64934 351.4 8.55066C320.2 54.9507 273 124.551 273 159.351C273 183.751 283 206.151 299 222.151C315 238.151 337.4 248.151 361.8 248.151C386.2 248.151 408.6 238.151 424.6 222.151C440.6 206.151 450.6 183.751 450.6 159.351C450.6 124.151 403.4 54.9507 372.2 8.55066ZM425.8 198.951C419.4 209.351 410.2 218.551 399 224.951C393.8 227.751 387.4 226.151 384.6 220.951C381.4 215.351 383.4 208.951 388.6 206.151C396.6 201.751 403 195.351 407.8 187.751C412.6 180.151 415.4 171.351 415.8 162.151C416.2 156.151 421 151.751 427 152.151C433 152.551 437.4 157.351 437 163.351C436.2 176.151 432.2 188.151 425.8 198.951Z" fill="black"/>
<path d="M234.2 256.551C227.4 244.951 220.2 245.351 213.4 256.551C182.2 302.951 135 372.551 135 407.351C135 431.751 145 454.151 161 470.151C177 486.151 199.4 496.151 223.8 496.151C248.2 496.151 270.6 486.151 286.6 470.151C302.6 454.151 312.6 431.751 312.6 407.351C312.6 372.151 265.4 302.951 234.2 256.551ZM287.8 446.951C281.4 457.351 272.2 466.551 261 472.951C255.8 475.751 249.4 474.151 246.6 468.951C243.4 463.351 245.4 456.951 250.6 454.151C258.6 449.751 265 443.351 269.8 435.751C274.6 428.151 277.4 419.351 277.8 410.151C278.2 404.151 283 399.751 289 400.151C295 400.551 299.4 405.351 299 411.351C298.2 424.151 294.2 436.151 287.8 446.951Z" fill="black"/>
</svg>
