<svg width="178" height="249" viewBox="0 0 178 249" fill="none" xmlns="http://www.w3.org/2000/svg">
<path d="M99.2 8.55066C92.4 -3.04934 85.2 -2.64934 78.4 8.55066C47.2 54.9507 0 124.551 0 159.351C0 183.751 10 206.151 26 222.151C42 238.151 64.4 248.151 88.8 248.151C113.2 248.151 135.6 238.151 151.6 222.151C167.6 206.151 177.6 183.751 177.6 159.351C177.6 124.151 130.4 54.9507 99.2 8.55066ZM152.8 198.951C146.4 209.351 137.2 218.551 126 224.951C120.8 227.751 114.4 226.151 111.6 220.951C108.4 215.351 110.4 208.951 115.6 206.151C123.6 201.751 130 195.351 134.8 187.751C139.6 180.151 142.4 171.351 142.8 162.151C143.2 156.151 148 151.751 154 152.151C160 152.551 164.4 157.351 164 163.351C163.2 176.151 159.2 188.151 152.8 198.951Z" fill="black"/>
</svg>
