<svg width="476" height="249" viewBox="0 0 476 249" fill="none" xmlns="http://www.w3.org/2000/svg">
<g clip-path="url(#clip0)">
<path d="M134.475 8.55102C127.675 -3.04898 120.475 -2.64898 113.675 8.55102C82.4754 54.951 35.2754 124.551 35.2754 159.351C35.2754 183.751 45.2754 206.151 61.2754 222.151C77.2754 238.151 99.6754 248.151 124.075 248.151C148.475 248.151 170.875 238.151 186.875 222.151C202.875 206.151 212.875 183.751 212.875 159.351C212.875 124.151 165.675 54.951 134.475 8.55102ZM188.075 198.951C181.675 209.351 172.475 218.551 161.275 224.951C156.075 227.751 149.675 226.151 146.875 220.951C143.675 215.351 145.675 208.951 150.875 206.151C158.875 201.751 165.275 195.351 170.075 187.751C174.875 180.151 177.675 171.351 178.075 162.151C178.475 156.151 183.275 151.751 189.275 152.151C195.275 152.551 199.675 157.351 199.275 163.351C198.475 176.151 194.475 188.151 188.075 198.951Z" fill="black"/>
</g>
<g clip-path="url(#clip1)">
<path d="M361.475 8.55102C354.675 -3.04898 347.475 -2.64898 340.675 8.55102C309.475 54.951 262.275 124.551 262.275 159.351C262.275 183.751 272.275 206.151 288.275 222.151C304.275 238.151 326.675 248.151 351.075 248.151C375.475 248.151 397.875 238.151 413.875 222.151C429.875 206.151 439.875 183.751 439.875 159.351C439.875 124.151 392.675 54.951 361.475 8.55102ZM415.075 198.951C408.675 209.351 399.475 218.551 388.275 224.951C383.075 227.751 376.675 226.151 373.875 220.951C370.675 215.351 372.675 208.951 377.875 206.151C385.875 201.751 392.275 195.351 397.075 187.751C401.875 180.151 404.675 171.351 405.075 162.151C405.475 156.151 410.275 151.751 416.275 152.151C422.275 152.551 426.675 157.351 426.275 163.351C425.475 176.151 421.475 188.151 415.075 198.951Z" fill="black"/>
</g>
<defs>
<clipPath id="clip0">
<rect width="248.151" height="248.151" fill="white"/>
</clipPath>
<clipPath id="clip1">
<rect width="248.151" height="248.151" fill="white" transform="translate(227)"/>
</clipPath>
</defs>
</svg>
