<svg height="512pt" viewBox="0 0 512 512" width="512pt" xmlns="http://www.w3.org/2000/svg"><path d="m45 512c-24.8125 0-45-20.1875-45-45s20.1875-45 45-45 45 20.1875 45 45-20.1875 45-45 45zm0 0"/><path d="m479.523438 171.121094c-8.921876-7.382813-13.609376-18.703125-12.523438-30.261719 2.445312-26.324219-6.78125-52.046875-25.296875-70.5625s-44.269531-27.609375-70.5625-25.296875c-11.746094 1.070312-22.894531-3.605469-30.261719-12.523438-17.082031-20.640624-42.191406-32.476562-68.878906-32.476562s-51.796875 11.835938-68.878906 32.476562c-7.382813 8.949219-18.644532 13.652344-30.261719 12.523438-26.394531-2.371094-52.0625 6.78125-70.5625 25.296875-18.515625 18.515625-27.742187 44.238281-25.296875 70.5625 1.085938 11.570313-3.589844 22.878906-12.523438 30.261719-20.640624 17.082031-32.476562 42.191406-32.476562 68.878906s11.835938 51.796875 32.476562 68.878906c8.921876 7.382813 13.609376 18.703125 12.523438 30.261719-2.445312 26.324219 6.78125 52.046875 25.296875 70.5625 18.53125 18.542969 44.429687 27.859375 70.546875 25.28125 11.601562-1.113281 22.882812 3.605469 30.277344 12.539063 17.082031 20.640624 42.191406 32.476562 68.878906 32.476562s51.796875-11.835938 68.878906-32.476562c7.382813-8.933594 18.601563-13.609376 30.261719-12.539063 26.164063 2.242187 52.03125-6.765625 70.5625-25.28125 18.515625-18.515625 27.742187-44.238281 25.296875-70.5625-1.082031-11.574219 3.589844-22.882813 12.523438-30.265625 20.640624-17.078125 32.476562-42.1875 32.476562-68.875s-11.835938-51.796875-32.476562-68.878906zm-312.523438 98.878906c-16.539062 0-30-13.460938-30-30s13.460938-30 30-30 30 13.460938 30 30-13.460938 30-30 30zm105 0c-16.539062 0-30-13.460938-30-30s13.460938-30 30-30 30 13.460938 30 30-13.460938 30-30 30zm105 0c-16.539062 0-30-13.460938-30-30s13.460938-30 30-30 30 13.460938 30 30-13.460938 30-30 30zm0 0"/></svg>