<svg width="154" height="135" viewBox="0 0 154 135" fill="none" xmlns="http://www.w3.org/2000/svg">
<g clip-path="url(#clip0)">
<path d="M144.86 43.1859C144.86 48.8048 143.601 53.43 141.416 57.3921C140.695 58.6972 139.876 59.9393 138.968 61.1067C130.937 71.4866 116.005 77.1678 102.509 86.3702C62.673 113.533 58.358 70.0071 60.1571 43.1859C60.8829 32.3635 64.8713 22.4501 71.2078 14.8597C72.5386 13.2633 73.9761 11.7699 75.5093 10.3911C82.7031 3.91742 91.9969 0 102.509 0C120.545 0 135.947 11.495 142.054 27.6936C143.91 32.6229 144.863 37.8805 144.86 43.1859Z" fill="#0086BF"/>
<path d="M111.532 9.73283L71.2075 14.8597C72.5383 13.2633 73.9758 11.7699 75.509 10.3911L111.532 9.73283Z" fill="white"/>
<path d="M141.416 57.3921C140.695 58.6972 139.876 59.9393 138.968 61.1066L104.426 56.7163L141.416 57.3921Z" fill="white"/>
<path d="M143.463 32.1477L84.9224 24.1244L142.054 27.6935C142.602 29.149 143.073 30.6362 143.463 32.1477Z" fill="white"/>
<path d="M64.1279 11.5034C64.1279 11.6136 64.1249 11.7222 64.1158 11.8293C64.07 12.4928 63.8848 13.1371 63.5735 13.7153C63.2623 14.2936 62.8329 14.7912 62.3167 15.1719C61.8005 15.5526 61.2104 15.8069 60.5894 15.9161C59.9684 16.0254 59.3322 15.9869 58.727 15.8035C58.1219 15.6201 57.5631 15.2964 57.0913 14.8559C56.6196 14.4155 56.2467 13.8693 55.9999 13.2574C55.7531 12.6454 55.6386 11.9829 55.6648 11.3183C55.6909 10.6536 55.857 10.0035 56.151 9.41525C56.242 9.23091 56.3461 9.05413 56.4625 8.88643C56.9687 8.14445 57.6781 7.58438 58.4951 7.28176C59.312 6.97915 60.197 6.94855 61.0309 7.19409C61.8648 7.43963 62.6074 7.9495 63.1585 8.65492C63.7095 9.36035 64.0426 10.2274 64.1128 11.1391C64.1234 11.2589 64.1279 11.3803 64.1279 11.5034Z" fill="#0086BF"/>
<path d="M64.1279 11.5034C64.1279 11.6136 64.1249 11.7223 64.1158 11.8293L57.7778 11.0241L64.1128 11.1391C64.1234 11.2589 64.1279 11.3804 64.1279 11.5034Z" fill="white"/>
<path d="M62.616 13.7576L56.7527 14.5037C56.5863 14.3077 56.4365 14.0965 56.3052 13.8727L62.616 13.7576Z" fill="white"/>
<path d="M60.9528 8.80495L56.1509 9.41525C56.2419 9.23091 56.346 9.05413 56.4623 8.88643L60.9528 8.80495Z" fill="white"/>
<path d="M122.146 92.0447C122.097 92.142 122.046 92.2365 121.991 92.3266C121.656 92.8899 121.206 93.3673 120.675 93.7239C120.144 94.0805 119.544 94.3074 118.919 94.3879C118.294 94.4685 117.66 94.4008 117.063 94.1897C116.466 93.9786 115.921 93.6295 115.468 93.1677C115.014 92.706 114.664 92.1432 114.443 91.5204C114.222 90.8977 114.135 90.2306 114.188 89.5678C114.242 88.905 114.434 88.2631 114.752 87.6889C115.07 87.1148 115.505 86.6228 116.026 86.2488C116.188 86.1311 116.359 86.0265 116.536 85.936C117.312 85.5314 118.187 85.388 119.043 85.5254C119.899 85.6627 120.694 86.0741 121.322 86.7041C121.95 87.334 122.379 88.1523 122.553 89.0484C122.727 89.9444 122.637 90.8753 122.294 91.7154C122.25 91.8265 122.201 91.936 122.146 92.0447Z" fill="#0086BF"/>
<path d="M122.146 92.0447C122.097 92.142 122.046 92.2365 121.991 92.3266L116.75 88.4758L122.294 91.7154C122.251 91.8265 122.201 91.936 122.146 92.0447Z" fill="white"/>
<path d="M119.81 93.287L114.3 91.0417C114.24 90.7861 114.201 90.5254 114.185 90.2626L119.81 93.287Z" fill="white"/>
<path d="M120.539 88.0884L116.026 86.2489C116.189 86.1311 116.359 86.0266 116.536 85.9361L120.539 88.0884Z" fill="white"/>
<path d="M152.129 14.9304C152.202 15.0093 152.272 15.0893 152.336 15.1727C152.742 15.6814 153.035 16.2794 153.194 16.923C153.353 17.5666 153.375 18.2396 153.257 18.893C153.139 19.5464 152.884 20.1638 152.512 20.7002C152.139 21.2366 151.659 21.6785 151.104 21.9936C150.55 22.3088 149.936 22.4893 149.307 22.522C148.678 22.5547 148.051 22.4389 147.47 22.1828C146.888 21.9268 146.369 21.537 145.948 21.0419C145.528 20.5468 145.217 19.9588 145.039 19.3208C144.982 19.1216 144.94 18.9183 144.913 18.7124C144.785 17.8077 144.923 16.8833 145.307 16.064C145.692 15.2446 146.306 14.5697 147.065 14.1303C147.824 13.6908 148.693 13.508 149.553 13.6064C150.414 13.7049 151.225 14.0799 151.878 14.6808C151.965 14.7588 152.048 14.8423 152.129 14.9304Z" fill="#0086BF"/>
<path d="M152.129 14.9304C152.202 15.0093 152.272 15.0893 152.336 15.1726L147.267 19.2722L151.878 14.6808C151.965 14.7587 152.048 14.8423 152.129 14.9304Z" fill="white"/>
<path d="M152.537 17.6597L148.832 22.5197C148.583 22.5021 148.337 22.4614 148.095 22.3981L152.537 17.6597Z" fill="white"/>
<path d="M148.074 15.3411L145.039 19.3207C144.982 19.1216 144.94 18.9182 144.913 18.7124L148.074 15.3411Z" fill="white"/>
<path d="M72.7081 97.369C72.7081 97.369 81.9983 97.778 81.9983 100.232C81.9983 102.686 71.5469 100.232 71.5469 100.232L72.7081 97.369Z" fill="#A0616A"/>
<path d="M58.7728 135L41.3538 133.773L40.5796 123.956L36.7087 132.546L19.6768 130.092C20.0638 114.548 26.2573 99.4141 26.6444 97.3689C27.0314 95.3237 27.9566 86.8731 27.9566 86.8731C29.6482 83.0813 38.5125 82.7255 45.4608 83.0691C48.3407 83.2081 50.8955 83.4699 52.4709 83.6581C53.5122 83.7808 54.1277 83.8708 54.1277 83.8708C56.9031 86.8935 58.6915 91.0125 59.7908 95.6141C63.7546 112.192 58.7728 135 58.7728 135Z" fill="#2F2E41"/>
<path d="M39.4184 40.1042C44.763 40.1042 49.0957 35.5259 49.0957 29.8783C49.0957 24.2308 44.763 19.6525 39.4184 19.6525C34.0739 19.6525 29.7412 24.2308 29.7412 29.8783C29.7412 35.5259 34.0739 40.1042 39.4184 40.1042Z" fill="#A0616A"/>
<path d="M32.8377 32.3325C32.8377 32.3325 30.128 45.0125 25.8701 48.6938C21.6121 52.3752 42.5149 48.6938 42.5149 48.6938C42.5149 48.6938 37.8698 40.5132 41.3536 36.8319C44.8374 33.1506 32.8377 32.3325 32.8377 32.3325Z" fill="#A0616A"/>
<path d="M52.5791 84.6889L46.1573 85.4415L28.1925 87.5521C28.1925 87.5521 28.1073 87.3108 27.9564 86.8731C26.6519 83.1141 20.3694 64.8221 19.6765 59.3288C18.9023 53.1933 27.0312 45.8307 27.0312 45.8307C27.0312 45.8307 34.773 44.1945 37.0955 44.1945C39.4181 44.1945 48.7082 47.8758 48.7082 47.8758L52.1727 80.8071L52.4707 83.6581L52.5791 84.6889Z" fill="#0086BF"/>
<path opacity="0.15" d="M59.7907 95.6141L46.7729 87.552C46.7729 87.552 46.5445 86.7667 46.1574 85.4414C45.9639 84.7788 45.7278 83.9771 45.4607 83.069C43.9588 77.9725 41.4388 69.5627 39.4182 63.4191C36.3215 54.0113 51.418 80.1894 51.418 80.1894L52.1728 80.8071L52.4708 83.658C53.5121 83.7807 54.1276 83.8707 54.1276 83.8707C56.903 86.8935 58.6914 91.0124 59.7907 95.6141Z" fill="black"/>
<path d="M42.515 48.6938C42.515 48.6938 38.6441 54.0113 41.7408 63.419C44.8375 72.8268 49.0955 87.552 49.0955 87.552L71.5467 101.459L74.6434 97.3688L53.7406 80.1894C53.7406 80.1894 52.9664 49.1029 49.0955 47.8758C45.2246 46.6487 42.515 48.6938 42.515 48.6938Z" fill="#0086BF"/>
<path d="M23.354 84.4844C23.354 84.4844 28.7732 96.3464 31.0958 95.1193C33.4183 93.8921 25.2894 81.6211 25.2894 81.6211L23.354 84.4844Z" fill="#A0616A"/>
<path d="M22.7734 51.9661L2.25765 69.9636C2.25765 69.9636 -5.48413 75.6901 8.83818 79.7804C23.1605 83.8707 24.3217 86.3249 24.3217 86.3249C24.3217 86.3249 25.8701 81.0075 27.8056 81.8256L11.1607 73.2359L24.7088 64.6461L22.7734 51.9661Z" fill="#0086BF"/>
<path d="M14.5279 38.2714C15.6046 37.7079 17.9823 36.5707 20.0076 35.2007C19.8656 30.7436 20.385 26.6976 21.9054 24.5529C22.7588 22.5053 24.551 20.4552 25.9546 18.8408C29.4015 14.8762 37.0233 12.6632 38.3752 14.644C48.5996 14.8573 49.676 23.3261 49.676 23.3261C49.6228 26.8684 46.1388 26.9805 43.0868 26.8514C43.3601 29.2697 42.6317 31.7824 40.5226 32.8968C36.4894 35.0277 35.2794 37.7979 37.296 39.7158C39.3127 41.6336 42.9426 46.7479 38.1027 48.0264C33.2628 49.305 32.6578 51.8621 34.0695 52.9276C35.4811 53.9931 30.8429 51.0098 30.8429 51.0098C30.8429 51.0098 30.0362 56.124 25.8013 54.8455C25.4218 54.7309 25.0425 54.4373 24.6696 53.9982C23.5258 55.3261 22.5055 56.1113 21.7365 56.1156C17.3322 56.1403 17.8603 50.9856 17.8603 50.9856C17.8603 50.9856 12.6327 52.537 14.2639 51.9132C15.8951 51.2894 15.965 48.6546 11.6306 46.0444C7.29618 43.4343 12.0966 39.5436 14.5279 38.2714Z" fill="#2F2E41"/>
<path d="M68.5658 51.6328L68.4956 51.6231L68.6669 52.3111C68.8288 53.2709 69.0639 54.2154 69.3699 55.1352L74.3935 75.3147C74.5538 75.9587 74.8886 76.5393 75.3568 76.9852C75.8249 77.431 76.4061 77.7228 77.0289 77.8246L87.2737 79.4993C87.9362 79.6076 88.6141 79.4959 89.2138 79.1796C89.8136 78.8633 90.3057 78.3581 90.6221 77.7336L100.358 58.5178C100.662 57.9854 100.94 57.4368 101.191 56.8741L101.521 56.2217L101.47 56.2145C102.502 53.6346 102.956 50.8378 102.797 48.042C102.638 45.2461 101.871 42.5268 100.554 40.0961C99.2369 37.6653 97.4065 35.5887 95.2054 34.0282C93.0043 32.4677 90.4919 31.4654 87.864 31.0995C85.2361 30.7336 82.5638 31.0139 80.0553 31.9187C77.5467 32.8234 75.2698 34.3281 73.402 36.3154C71.5342 38.3027 70.126 40.719 69.2871 43.3759C68.4483 46.0328 68.2014 48.8585 68.5658 51.6328H68.5658Z" fill="#01426A"/>
<path d="M87.9026 80.8178C87.7221 80.8178 87.542 80.8031 87.3636 80.7739L76.655 79.0232C75.9748 78.9122 75.3401 78.5936 74.8289 78.1067C74.3177 77.6199 73.9521 76.9858 73.7771 76.2824L68.5261 55.1894C68.2052 54.2238 67.9586 53.2323 67.7886 52.2248L67.6558 51.302C67.2985 48.354 67.5946 45.3586 68.5207 42.5523C69.4467 39.746 70.9774 37.2055 72.992 35.1315C75.0065 33.0574 77.4497 31.5066 80.1286 30.6013C82.8076 29.6961 85.6491 29.4613 88.4286 29.9154L88.3823 30.2312C85.633 29.7835 82.8227 30.0209 80.1756 30.9246C77.5286 31.8282 75.118 33.3731 73.1363 35.4359C71.1545 37.4987 69.6564 40.0223 68.7614 42.8055C67.8664 45.5886 67.5994 48.5543 67.9816 51.4659L68.0837 52.1561C68.2524 53.1552 68.4969 54.1382 68.815 55.0958L74.0696 76.2011C74.2296 76.8443 74.5639 77.4242 75.0313 77.8694C75.4988 78.3146 76.0792 78.6059 76.7012 78.7075L87.4099 80.4581C88.0713 80.5656 88.748 80.4537 89.3467 80.1379C89.9455 79.8222 90.437 79.3181 90.7534 78.695L91.02 78.8457C90.7175 79.4413 90.2678 79.9392 89.7189 80.2865C89.17 80.6337 88.5423 80.8173 87.9026 80.8178Z" fill="white"/>
<path d="M90.6189 56.2195L84.103 75.019L84.4703 75.1611L90.9861 56.3616L90.6189 56.2195Z" fill="white"/>
<path d="M79.9801 54.4801L79.5894 54.4982L80.421 74.4996L80.8117 74.4815L79.9801 54.4801Z" fill="white"/>
<path d="M86.9972 90.3804L73.2754 88.1373C73.1734 88.12 73.082 88.0607 73.0212 87.9724C72.9604 87.8841 72.9351 87.774 72.9509 87.6661C72.9667 87.5581 73.0223 87.4612 73.1055 87.3965C73.1887 87.3317 73.2928 87.3044 73.395 87.3204L87.1168 89.5635C87.1678 89.5715 87.2168 89.5901 87.261 89.6182C87.3052 89.6463 87.3436 89.6834 87.3742 89.7272C87.4048 89.7711 87.4269 89.8209 87.4392 89.8738C87.4514 89.9267 87.4537 89.9817 87.4458 90.0355C87.4379 90.0893 87.4201 90.141 87.3932 90.1875C87.3664 90.234 87.3311 90.2745 87.2894 90.3065C87.2477 90.3386 87.2004 90.3616 87.1503 90.3743C87.1002 90.3869 87.0482 90.389 86.9972 90.3804Z" fill="#01426A"/>
<path d="M87.3489 87.3013L73.627 85.0582C73.5761 85.0502 73.5271 85.0316 73.4829 85.0035C73.4387 84.9754 73.4002 84.9383 73.3697 84.8945C73.3391 84.8506 73.317 84.8008 73.3047 84.7479C73.2924 84.695 73.2902 84.64 73.2981 84.5862C73.3059 84.5323 73.3238 84.4807 73.3507 84.4342C73.3775 84.3877 73.4128 84.3472 73.4545 84.3152C73.4962 84.2831 73.5434 84.2601 73.5936 84.2474C73.6437 84.2347 73.6957 84.2327 73.7466 84.2413L87.4685 86.4845C87.5195 86.4925 87.5685 86.5111 87.6127 86.5392C87.6569 86.5672 87.6953 86.6043 87.7259 86.6482C87.7565 86.692 87.7786 86.7418 87.7908 86.7947C87.8031 86.8477 87.8054 86.9026 87.7975 86.9565C87.7896 87.0103 87.7718 87.062 87.7449 87.1085C87.7181 87.155 87.6828 87.1954 87.6411 87.2275C87.5994 87.2595 87.5521 87.2826 87.502 87.2952C87.4519 87.3079 87.3998 87.31 87.3489 87.3013Z" fill="#01426A"/>
<path d="M87.7008 84.2222L73.979 81.979C73.877 81.9617 73.7856 81.9024 73.7248 81.8141C73.664 81.7258 73.6387 81.6157 73.6545 81.5077C73.6703 81.3998 73.7259 81.3029 73.8091 81.2381C73.8923 81.1734 73.9964 81.146 74.0986 81.1621L87.8204 83.4053C87.9225 83.4226 88.0139 83.4819 88.0747 83.5702C88.1355 83.6585 88.1607 83.7686 88.1449 83.8765C88.1291 83.9845 88.0735 84.0814 87.9903 84.1461C87.9071 84.2109 87.8031 84.2382 87.7008 84.2222H87.7008Z" fill="#01426A"/>
<path d="M79.7097 92.1722C82.4315 92.6172 84.8726 91.3749 85.1621 89.3976L75.3055 87.7863C75.0161 89.7636 76.9879 91.7273 79.7097 92.1722Z" fill="#01426A"/>
<path d="M84.6421 52.2588C84.0566 52.1632 83.5722 51.6742 83.3066 51.3464C83.2196 51.239 83.1348 51.1275 83.0498 51.0158C82.7405 50.609 82.4485 50.2248 82.0419 50.0245C81.1443 49.5819 80.0866 50.2001 79.1709 50.8632L78.9497 50.5224C79.9565 49.793 81.1305 49.1193 82.2073 49.6498C82.6964 49.8909 83.0311 50.3312 83.3547 50.7569C83.4371 50.8653 83.5193 50.9734 83.6037 51.0776C83.8798 51.4184 84.4306 51.9705 85.0206 51.8432C85.2693 51.7666 85.5006 51.6372 85.7003 51.463C85.8525 51.343 86.0133 51.2357 86.1813 51.1423C86.522 50.9696 86.9034 50.9073 87.2776 50.9632C87.6517 51.0191 88.0019 51.1906 88.2839 51.4563C88.3845 51.5569 88.4798 51.6634 88.5693 51.7751C88.7452 51.9871 88.9113 52.1871 89.1275 52.2598C89.4472 52.3678 89.7851 52.1747 90.1431 51.9707C90.5123 51.7602 90.894 51.5424 91.3269 51.5961C91.341 51.5979 91.3552 51.5999 91.3691 51.6022C92.1395 51.7282 92.4947 52.6285 92.6957 53.3004L92.3227 53.4249C92.0496 52.5115 91.717 52.0573 91.2811 52.0067C90.971 51.9681 90.6591 52.1461 90.3289 52.3344C89.915 52.5706 89.4865 52.8147 89.0088 52.6536C88.6891 52.5461 88.4786 52.2928 88.2752 52.0478C88.1951 51.9475 88.1099 51.8518 88.0199 51.7613C87.7953 51.5534 87.5182 51.4191 87.2225 51.375C86.9268 51.3308 86.6253 51.3786 86.3549 51.5126C86.2052 51.5967 86.0619 51.6929 85.9261 51.8004C85.6834 52.0095 85.4016 52.1621 85.0992 52.2481C84.9486 52.2805 84.7938 52.2841 84.6421 52.2588Z" fill="white"/>
</g>
<defs>
<clipPath id="clip0">
<rect width="153.163" height="135" fill="white" transform="translate(0.168457)"/>
</clipPath>
</defs>
</svg>
