<svg width="140" height="122" viewBox="0 0 140 122" fill="none" xmlns="http://www.w3.org/2000/svg">
<path d="M137 40.473C137 45.739 135.8 50.0736 133.719 53.7869C133.359 54.4277 99.1061 52.2825 98.6963 52.8893C98.324 53.4407 131.8 56.7472 131.388 57.2681C123.738 66.9959 109.514 72.3202 96.6595 80.9446C58.714 106.401 54.6038 65.6094 56.3176 40.473C57.0089 30.3304 60.808 21.0398 66.8438 13.9262C67.532 13.1139 103.681 9.56853 104.428 8.81489C105.056 8.18043 70.2735 10.329 70.941 9.73832C77.7933 3.67134 86.646 0 96.6595 0C113.839 0 128.51 10.7729 134.327 25.9539C134.586 26.6297 80.238 22.1269 80.4597 22.815C80.695 23.5454 135.497 29.4675 135.691 30.2099C136.56 33.5494 137.002 37.0003 137 40.473Z" fill="#0086BF"/>
<path d="M55.0863 10.6742C55.0863 10.7728 61.0085 11.1957 60.9999 11.2914C60.9566 11.8846 60.7813 12.4607 60.4868 12.9778C60.1923 13.4948 59.7861 13.9398 59.2976 14.2802C58.8091 14.6206 58.2508 14.848 57.6632 14.9457C57.0756 15.0434 56.4736 15.009 55.901 14.845C55.3284 14.681 54.7997 14.3915 54.3533 13.9977C54.1498 13.8182 59.6593 13.2974 59.4971 13.0821C59.3035 12.8249 53.4476 12.8661 53.3206 12.5683C53.0871 12.0211 52.9787 11.4287 53.0035 10.8344C53.0282 10.2401 53.1854 9.65881 53.4635 9.13282C53.5061 9.05132 57.8958 8.70762 57.9444 8.62958C57.994 8.54981 53.7026 8.73577 53.7582 8.65997C54.2373 7.99652 54.9085 7.49573 55.6815 7.22514C56.4545 6.95455 57.2919 6.92719 58.081 7.14674C58.87 7.36629 59.5726 7.8222 60.0941 8.45296C60.6155 9.08373 60.9307 9.85901 60.9971 10.6742C61.0071 10.7814 55.0863 10.5642 55.0863 10.6742Z" fill="#0086BF"/>
<path d="M110.36 82.7273C110.314 82.8144 115.438 86.0467 115.386 86.1272C115.069 86.631 114.644 87.0579 114.14 87.3767C113.637 87.6956 113.069 87.8985 112.478 87.9705C111.886 88.0426 111.286 87.982 110.721 87.7933C110.156 87.6045 109.64 87.2923 109.211 86.8794C108.782 86.4665 108.451 85.9632 108.241 85.4063C108.156 85.1787 112.992 86.9234 112.949 86.6854C112.888 86.3414 107.97 84.0106 108 83.6602C108.051 83.0675 108.233 82.4935 108.534 81.9801C108.835 81.4666 109.247 81.0267 109.74 80.6922C109.82 80.6371 113.9 82.2811 113.985 82.2326C114.062 82.1884 110.142 80.4511 110.222 80.4125C110.957 80.0507 111.786 79.9225 112.596 80.0453C113.406 80.1682 114.159 80.536 114.753 81.0994C115.347 81.6627 115.754 82.3944 115.918 83.1957C116.083 83.997 115.997 84.8294 115.673 85.5807C115.632 85.68 110.412 82.6302 110.36 82.7273Z" fill="#0086BF"/>
<path d="M133.314 15.1752C133.382 15.2458 137.998 11.35 138.059 11.4245C138.442 11.8797 138.719 12.4147 138.87 12.9905C139.02 13.5663 139.041 14.1685 138.929 14.7531C138.818 15.3377 138.577 15.8901 138.225 16.37C137.873 16.8499 137.419 17.2452 136.895 17.5272C136.371 17.8092 135.791 17.9707 135.197 18C134.938 18.0127 138.221 14.2223 137.966 14.1852C137.636 14.1371 133.77 17.8257 133.46 17.6965C132.911 17.4674 132.42 17.1186 132.023 16.6757C131.625 16.2327 131.332 15.7066 131.163 15.1358C131.137 15.0475 133.85 11.8001 133.83 11.7101C133.81 11.6186 131.057 14.6844 131.044 14.5915C130.923 13.7821 131.053 12.955 131.417 12.222C131.781 11.4889 132.36 10.8851 133.078 10.4919C133.795 10.0987 134.616 9.93517 135.429 10.0232C136.243 10.1113 137.009 10.4468 137.626 10.9844C137.708 11.0542 133.237 15.0964 133.314 15.1752Z" fill="#0086BF"/>
<path d="M69 91C69 91 77 91.4138 77 93.8966C77 96.3793 68 93.8966 68 93.8966L69 91Z" fill="#A0616A"/>
<path d="M55.9152 122H38.6184L38.0292 116.271L34.4252 122H18C18.3709 107.487 24.3055 93.3563 24.6764 91.4467C25.0473 89.5371 25.9338 81.6467 25.9338 81.6467C27.5547 78.1063 36.0485 77.7741 42.7063 78.0949C45.4659 78.2247 47.9139 78.4691 49.4235 78.6448C50.4212 78.7594 51.011 78.8434 51.011 78.8434C53.6704 81.6658 55.3841 85.5117 56.4375 89.8082C60.2356 105.287 55.9152 122 55.9152 122Z" fill="#2F2E41"/>
<path d="M37 38C41.9706 38 46 33.5228 46 28C46 22.4772 41.9706 18 37 18C32.0294 18 28 22.4772 28 28C28 33.5228 32.0294 38 37 38Z" fill="#A0616A"/>
<path d="M31.0068 30C31.0068 30 28.4887 41.9773 24.5318 45.4545C20.5748 48.9318 40 45.4545 40 45.4545C40 45.4545 35.6833 37.7273 38.9208 34.25C42.1584 30.7727 31.0068 30 31.0068 30Z" fill="#A0616A"/>
<path d="M50 79.2925L43.7642 80.0041L26.3198 82C26.3198 82 26.2371 81.7718 26.0905 81.3579C24.8238 77.8033 18.7233 60.506 18.0505 55.3113C17.2987 49.5094 25.1921 42.5472 25.1921 42.5472C25.1921 42.5472 32.7097 41 34.9649 41C37.2202 41 46.2412 44.4811 46.2412 44.4811L49.6053 75.6218L49.8948 78.3177L50 79.2925Z" fill="#0086BF"/>
<path opacity="0.15" d="M56 89L44.1037 81.4644C44.1037 81.4644 43.895 80.7303 43.5412 79.4915C43.3644 78.8722 43.1486 78.1228 42.9045 77.2741C41.532 72.5103 39.2291 64.6496 37.3826 58.9071C34.5527 50.1136 48.3486 74.5825 48.3486 74.5825L49.0384 75.1598L49.3108 77.8246C50.2623 77.9393 50.8248 78.0234 50.8248 78.0234C53.3611 80.8488 54.9954 84.6988 56 89Z" fill="black"/>
<path d="M39.911 45.1434C39.911 45.1434 36.1654 50.1677 39.1619 59.0569C42.1584 67.9461 46.2787 81.8595 46.2787 81.8595L68.0035 95L71 91.1352L50.7735 74.9028C50.7735 74.9028 50.0243 45.5299 46.2787 44.3705C42.533 43.211 39.911 45.1434 39.911 45.1434Z" fill="#0086BF"/>
<path d="M22 78.7395C22 78.7395 27.3136 90.0889 29.5908 88.9148C31.8681 87.7407 23.8977 76 23.8977 76L22 78.7395Z" fill="#A0616A"/>
<path d="M21.2659 49L1.96544 65.7619C1.96544 65.7619 -5.31776 71.0952 8.15617 74.9048C21.6301 78.7143 22.7226 81 22.7226 81C22.7226 81 24.1792 76.0476 26 76.8095L10.3411 68.8095L23.0867 60.8095L21.2659 49Z" fill="#0086BF"/>
<path d="M13.4349 36.0897C14.4631 35.5557 16.7337 34.478 18.6678 33.1797C18.5322 28.956 19.0282 25.1217 20.4802 23.0893C21.2951 21.1489 23.0066 19.2061 24.3469 17.6762C27.6386 13.9191 34.9172 11.8219 36.2081 13.6991C45.9721 13.9013 47 21.9268 47 21.9268C46.9492 25.2836 43.6221 25.3898 40.7075 25.2675C40.9685 27.5592 40.273 29.9404 38.2589 30.9964C34.4073 33.0158 33.2518 35.641 35.1776 37.4585C37.1034 39.276 40.5698 44.1225 35.9479 45.3341C31.326 46.5458 30.7483 48.9691 32.0963 49.9788C33.4444 50.9885 29.0151 48.1613 29.0151 48.1613C29.0151 48.1613 28.2448 53.0079 24.2006 51.7962C23.8382 51.6876 23.476 51.4094 23.1198 50.9933C22.0276 52.2517 21.0532 52.9958 20.3189 52.9999C16.1129 53.0233 16.6173 48.1385 16.6173 48.1385C16.6173 48.1385 11.6251 49.6086 13.1828 49.0175C14.7406 48.4263 14.8073 45.9294 10.6681 43.4559C6.52893 40.9824 11.1131 37.2954 13.4349 36.0897Z" fill="#2F2E41"/>
<path d="M65.1519 48.1583L65.0867 48.1492L65.2459 48.7863C65.3964 49.6752 65.6149 50.5497 65.8994 51.4015L70.569 70.0878C70.718 70.6842 71.0292 71.2218 71.4644 71.6346C71.8995 72.0475 72.4397 72.3177 73.0187 72.412L82.5416 73.9628C83.1573 74.063 83.7875 73.9596 84.345 73.6667C84.9025 73.3738 85.3599 72.906 85.654 72.3277L94.7038 54.5338C94.9866 54.0408 95.245 53.5328 95.478 53.0117L95.7852 52.4075L95.7373 52.4009C96.6967 50.012 97.1189 47.4221 96.9712 44.8331C96.8235 42.2442 96.1098 39.7261 94.8858 37.4752C93.6617 35.2243 91.9604 33.3014 89.9144 31.8563C87.8684 30.4113 85.533 29.4832 83.0903 29.1444C80.6476 28.8055 78.1635 29.0651 75.8318 29.9029C73.5 30.7407 71.3836 32.134 69.6474 33.9743C67.9112 35.8145 66.6022 38.052 65.8224 40.5123C65.0427 42.9727 64.8132 45.5893 65.1519 48.1583H65.1519Z" fill="#01426A"/>
<path d="M83.0829 76C82.9141 76 82.7455 75.9862 82.5786 75.9588L72.5583 74.3152C71.9218 74.211 71.328 73.9119 70.8496 73.4548C70.3712 72.9977 70.0292 72.4024 69.8654 71.7421L64.9519 51.9393C64.6517 51.0328 64.4209 50.102 64.2618 49.1561L64.1376 48.2897C63.8032 45.5221 64.0803 42.7099 64.9468 40.0753C65.8134 37.4406 67.2457 35.0555 69.1307 33.1084C71.0158 31.1612 73.3019 29.7052 75.8087 28.8554C78.3155 28.0055 80.9742 27.7851 83.5752 28.2114L83.5318 28.5079C80.9592 28.0876 78.3296 28.3105 75.8527 29.1589C73.3758 30.0072 71.1201 31.4576 69.2658 33.3942C67.4114 35.3308 66.0095 37.7 65.1721 40.313C64.3347 42.9259 64.0848 45.7101 64.4424 48.4436L64.5379 49.0916C64.6958 50.0296 64.9246 50.9525 65.2222 51.8515L70.1391 71.6658C70.2888 72.2696 70.6016 72.814 71.039 73.232C71.4765 73.65 72.0195 73.9234 72.6015 74.0188L82.6219 75.6624C83.2408 75.7632 83.874 75.6582 84.4343 75.3617C84.9945 75.0653 85.4544 74.592 85.7505 74.007L86 74.1485C85.7169 74.7077 85.2961 75.1752 84.7825 75.5012C84.2689 75.8272 83.6815 75.9996 83.0829 76V76Z" fill="url(#paint0_linear)"/>
<path d="M85.6295 52.6202L79.4609 70.2161L79.8086 70.3492L85.9772 52.7532L85.6295 52.6202Z" fill="url(#paint1_linear)"/>
<path d="M75.5579 50.9921L75.188 51.0091L75.9753 69.7299L76.3452 69.713L75.5579 50.9921Z" fill="url(#paint2_linear)"/>
<path d="M82.5626 84.9949L69.3177 82.8027C69.2192 82.7858 69.1309 82.7278 69.0723 82.6416C69.0136 82.5553 68.9892 82.4476 69.0044 82.3422C69.0197 82.2367 69.0733 82.142 69.1536 82.0787C69.234 82.0154 69.3344 81.9887 69.4331 82.0044L82.678 84.1966C82.7272 84.2044 82.7745 84.2226 82.8172 84.25C82.8598 84.2775 82.8969 84.3137 82.9264 84.3565C82.956 84.3994 82.9773 84.4481 82.9891 84.4998C83.001 84.5515 83.0032 84.6052 82.9956 84.6578C82.988 84.7104 82.9707 84.7609 82.9448 84.8064C82.9189 84.8518 82.8848 84.8914 82.8446 84.9227C82.8043 84.954 82.7587 84.9765 82.7103 84.9889C82.6619 85.0013 82.6117 85.0033 82.5626 84.9949V84.9949Z" fill="#01426A"/>
<path d="M82.5627 81.9949L69.3219 79.8032C69.2727 79.7954 69.2254 79.7772 69.1828 79.7498C69.1402 79.7224 69.103 79.6862 69.0735 79.6433C69.044 79.6004 69.0227 79.5518 69.0109 79.5001C68.999 79.4484 68.9968 79.3947 69.0044 79.3421C69.012 79.2895 69.0293 79.239 69.0552 79.1936C69.0811 79.1481 69.1151 79.1086 69.1554 79.0773C69.1956 79.046 69.2412 79.0235 69.2896 79.0111C69.338 78.9987 69.3882 78.9967 69.4373 79.0051L82.6781 81.1968C82.7273 81.2046 82.7746 81.2228 82.8172 81.2502C82.8598 81.2776 82.897 81.3138 82.9265 81.3567C82.956 81.3996 82.9773 81.4482 82.9891 81.4999C83.001 81.5516 83.0032 81.6053 82.9956 81.6579C82.988 81.7105 82.9707 81.761 82.9448 81.8064C82.9189 81.8519 82.8849 81.8914 82.8446 81.9227C82.8044 81.954 82.7588 81.9765 82.7104 81.9889C82.662 82.0013 82.6118 82.0033 82.5627 81.9949V81.9949Z" fill="#01426A"/>
<path d="M82.5977 78.9956L70.2951 76.8029C70.2036 76.786 70.1216 76.728 70.0671 76.6417C70.0126 76.5554 69.99 76.4477 70.0041 76.3423C70.0183 76.2368 70.0681 76.142 70.1427 76.0787C70.2173 76.0154 70.3106 75.9887 70.4023 76.0044L82.7049 78.1971C82.7964 78.214 82.8784 78.272 82.9329 78.3583C82.9874 78.4446 83.01 78.5523 82.9959 78.6578C82.9817 78.7632 82.9319 78.858 82.8573 78.9213C82.7827 78.9846 82.6894 79.0113 82.5977 78.9956H82.5977Z" fill="#01426A"/>
<path d="M75.0356 85.9193C77.5138 86.3169 79.7364 85.2068 80 83.4399L71.0257 82C70.7621 83.767 72.5574 85.5217 75.0356 85.9193Z" fill="#01426A"/>
<path d="M80.3834 48.8237C79.8297 48.7273 79.3716 48.2339 79.1205 47.9033C79.0381 47.7948 78.958 47.6824 78.8776 47.5697C78.5851 47.1593 78.309 46.7718 77.9244 46.5697C77.0755 46.1232 76.0752 46.7468 75.2092 47.4158L75 47.0719C75.9521 46.3362 77.0624 45.6565 78.0808 46.1917C78.5433 46.4349 78.8599 46.8791 79.1659 47.3085C79.2439 47.4179 79.3216 47.5269 79.4014 47.6321C79.6626 47.9758 80.1834 48.5329 80.7415 48.4044C80.9766 48.3271 81.1954 48.1966 81.3843 48.0208C81.5282 47.8998 81.6803 47.7916 81.8392 47.6973C82.1614 47.5231 82.5221 47.4603 82.8759 47.5167C83.2297 47.573 83.5609 47.7461 83.8277 48.0141C83.9228 48.1156 84.0128 48.223 84.0975 48.3357C84.2639 48.5495 84.421 48.7513 84.6255 48.8247C84.9278 48.9336 85.2473 48.7388 85.5859 48.5331C85.9351 48.3207 86.296 48.101 86.7055 48.1552C86.7188 48.157 86.7322 48.159 86.7454 48.1613C87.474 48.2884 87.8099 49.1966 88 49.8745L87.6472 50C87.3889 49.0786 87.0744 48.6204 86.6622 48.5693C86.3689 48.5304 86.0739 48.7099 85.7616 48.8999C85.3702 49.1382 84.965 49.3845 84.5132 49.222C84.2108 49.1135 84.0117 48.8579 83.8194 48.6108C83.7436 48.5096 83.663 48.4131 83.578 48.3218C83.3655 48.112 83.1035 47.9766 82.8238 47.9321C82.5442 47.8875 82.2591 47.9358 82.0034 48.0709C81.8618 48.1558 81.7262 48.2528 81.5978 48.3612C81.3683 48.5722 81.1017 48.7261 80.8157 48.8129C80.6734 48.8456 80.527 48.8492 80.3834 48.8237Z" fill="url(#paint3_linear)"/>
<defs>
<linearGradient id="paint0_linear" x1="75" y1="28" x2="75" y2="76" gradientUnits="userSpaceOnUse">
<stop stop-color="#E6F0F7"/>
<stop offset="1" stop-color="#E0F0F9"/>
</linearGradient>
<linearGradient id="paint1_linear" x1="82.5452" y1="61.4182" x2="82.8964" y2="61.5413" gradientUnits="userSpaceOnUse">
<stop stop-color="#E6F0F7"/>
<stop offset="1" stop-color="#E0F0F9"/>
</linearGradient>
<linearGradient id="paint2_linear" x1="75.3729" y1="51.0006" x2="76.2321" y2="69.7182" gradientUnits="userSpaceOnUse">
<stop stop-color="#E6F0F7"/>
<stop offset="1" stop-color="#E0F0F9"/>
</linearGradient>
<linearGradient id="paint3_linear" x1="81.5" y1="46" x2="81.5" y2="50" gradientUnits="userSpaceOnUse">
<stop stop-color="#E6F0F7"/>
<stop offset="1" stop-color="#E0F0F9"/>
</linearGradient>
</defs>
</svg>
